<svg width="37" height="7" viewBox="0 0 37 7" fill="none" xmlns="http://www.w3.org/2000/svg">
<path d="M9.69459 4.69409H7.65895V1.62014H8.12802V4.27968H9.69459V4.69409ZM12.9433 4.69409H12.4423L12.1782 3.98367H10.7801L10.516 4.69409H10.015L11.1854 1.62014H11.7729L12.9433 4.69409ZM11.4814 2.09376L10.9258 3.58747H12.0325L11.4814 2.09376ZM15.9493 4.69409H15.4256L14.6605 3.42352H14.0002V4.69409H13.5311V1.62014H14.8609C15.5167 1.62014 15.9265 1.87061 15.9265 2.52183C15.9265 3.06831 15.6396 3.33244 15.1615 3.40075L15.9493 4.69409ZM14.8427 2.03455H14.0002V3.00911H14.8427C15.2434 3.00911 15.4575 2.88615 15.4575 2.52183C15.4575 2.15751 15.2343 2.03455 14.8427 2.03455ZM19.318 4.69409H18.817L18.5529 3.98367H17.1548L16.8907 4.69409H16.3898L17.5601 1.62014H18.1476L19.318 4.69409ZM17.8561 2.09376L17.3006 3.58747H18.4072L17.8561 2.09376ZM20.9539 4.74874C20.2571 4.74874 19.8063 4.40719 19.7152 3.81062L20.1661 3.70132C20.2344 4.11118 20.5349 4.35254 20.9812 4.35254C21.3729 4.35254 21.6006 4.16127 21.6006 3.86526C21.6006 3.51005 21.2408 3.43263 20.8446 3.33244C20.3664 3.20493 19.8245 3.05465 19.8245 2.43075C19.8245 1.91615 20.2526 1.56094 20.9129 1.56094C21.4685 1.56094 21.9421 1.81141 22.0651 2.4262L21.6416 2.53549C21.555 2.12108 21.2772 1.95258 20.9129 1.95258C20.5258 1.95258 20.289 2.13474 20.289 2.41709C20.289 2.74042 20.6169 2.81784 21.0268 2.91803C21.5095 3.03643 22.0696 3.20949 22.0696 3.81517C22.0696 4.39353 21.678 4.74874 20.9539 4.74874ZM24.9601 4.05653V1.62014H25.4291V4.69409H24.8553L23.2888 2.24404V4.69409H22.8197V1.62014H23.3889L24.9601 4.05653ZM27.4917 4.74874C26.7813 4.74874 26.2576 4.36165 26.2576 3.6239V1.62014H26.7266V3.5647C26.7266 4.04742 27.0272 4.32066 27.4917 4.32066C27.9562 4.32066 28.2568 4.04742 28.2568 3.5647V1.62014H28.7258V3.6239C28.7258 4.36165 28.2021 4.74874 27.4917 4.74874ZM31.9638 3.53282H30.6022V3.13662H32.401V4.69409H31.982V4.18404C31.7817 4.55747 31.431 4.74874 30.9301 4.74874C30.0511 4.74874 29.4181 4.10207 29.4181 3.15484C29.4181 2.21216 30.0648 1.56094 30.971 1.56094C31.5904 1.56094 32.2598 1.89338 32.4556 2.66756L32.0048 2.79052C31.8909 2.33512 31.5266 1.99357 30.971 1.99357C30.3335 1.99357 29.8872 2.46263 29.8872 3.15484C29.8872 3.84705 30.3153 4.31611 30.971 4.31611C31.472 4.31611 31.85 4.04287 31.9638 3.53282ZM33.6491 4.69409H33.1801V1.62014H33.6491V2.93625H35.1838V1.62014H35.6529V4.69409H35.1838V3.35066H33.6491V4.69409Z" fill="#9A9A9A"/>
<path fill-rule="evenodd" clip-rule="evenodd" d="M5.82945 3.34026C5.82945 4.8017 4.64472 5.98643 3.18328 5.98643C1.72184 5.98643 0.537109 4.8017 0.537109 3.34026C0.537109 1.87882 1.72184 0.694092 3.18328 0.694092C4.64472 0.694092 5.82945 1.87882 5.82945 3.34026ZM5.28932 3.34021C5.28932 4.5034 4.34637 5.44635 3.18318 5.44635C2.02 5.44635 1.07705 4.5034 1.07705 3.34021C1.07705 2.17703 2.02 1.23408 3.18318 1.23408C4.34637 1.23408 5.28932 2.17703 5.28932 3.34021Z" fill="#9A9A9A"/>
<path fill-rule="evenodd" clip-rule="evenodd" d="M4.62677 2.9893C4.46914 2.33839 3.88269 1.85498 3.18334 1.85498C2.36314 1.85498 1.69824 2.51988 1.69824 3.34008C1.69824 4.16027 2.36314 4.82517 3.18334 4.82517C3.89216 4.82517 4.48499 4.32859 4.63293 3.66434H3.9261C3.80103 3.95027 3.51564 4.15006 3.18359 4.15006C2.73621 4.15006 2.37354 3.78739 2.37354 3.34001C2.37354 2.89263 2.73621 2.52995 3.18359 2.52995C3.50533 2.52995 3.78327 2.71753 3.91399 2.9893H4.62677Z" fill="#9A9A9A"/>
</svg>
