<svg width="16" height="17" viewBox="0 0 16 17" fill="none" xmlns="http://www.w3.org/2000/svg">
<rect x="1.02169" y="1.84115" width="14.0927" height="14.0927" rx="1.12293" stroke="#9A9A9A" stroke-width="0.965251"/>
<path d="M1.02169 2.96408C1.02169 2.3439 1.52444 1.84115 2.14462 1.84115H13.9914C14.6116 1.84115 15.1144 2.3439 15.1144 2.96408V5.123H1.02169V2.96408Z" stroke="#9A9A9A" stroke-width="0.965251"/>
<rect x="3.35015" y="0.308892" width="0.650504" height="2.49689" rx="0.325252" fill="#9A9A9A" stroke="#9A9A9A" stroke-width="0.168837"/>
<rect x="12.4898" y="0.308892" width="0.650504" height="2.49689" rx="0.325252" fill="#9A9A9A" stroke="#9A9A9A" stroke-width="0.168837"/>
<mask id="path-5-outside-1_465_143" maskUnits="userSpaceOnUse" x="5.66211" y="7.4397" width="5" height="6" fill="black">
<rect fill="white" x="5.66211" y="7.4397" width="5" height="6"/>
<path d="M7.792 12.4397H6.22327V7.81569H7.792C9.42924 7.81569 10.2924 8.53498 10.2924 10.1243C10.2924 11.7273 9.41554 12.4397 7.792 12.4397ZM6.92885 8.43908V11.8163H7.792C8.96342 11.8163 9.5868 11.2888 9.5868 10.1243C9.5868 8.946 8.93601 8.43908 7.792 8.43908H6.92885Z"/>
</mask>
<path d="M7.792 12.4397H6.22327V7.81569H7.792C9.42924 7.81569 10.2924 8.53498 10.2924 10.1243C10.2924 11.7273 9.41554 12.4397 7.792 12.4397ZM6.92885 8.43908V11.8163H7.792C8.96342 11.8163 9.5868 11.2888 9.5868 10.1243C9.5868 8.946 8.93601 8.43908 7.792 8.43908H6.92885Z" fill="#9A9A9A"/>
<path d="M6.22327 12.4397H6.01557V12.6474H6.22327V12.4397ZM6.22327 7.81569V7.608H6.01557V7.81569H6.22327ZM6.92885 8.43908V8.23138H6.72116V8.43908H6.92885ZM6.92885 11.8163H6.72116V12.024H6.92885V11.8163ZM7.792 12.232H6.22327V12.6474H7.792V12.232ZM6.43096 12.4397V7.81569H6.01557V12.4397H6.43096ZM6.22327 8.02339H7.792V7.608H6.22327V8.02339ZM7.792 8.02339C8.58484 8.02339 9.15037 8.19814 9.5172 8.52836C9.87975 8.85473 10.0847 9.36632 10.0847 10.1243H10.5001C10.5001 9.29293 10.2735 8.65023 9.79512 8.21963C9.32107 7.79289 8.63641 7.608 7.792 7.608V8.02339ZM10.0847 10.1243C10.0847 10.8886 9.87656 11.4019 9.51238 11.7285C9.14375 12.0589 8.57802 12.232 7.792 12.232V12.6474C8.62952 12.6474 9.31398 12.4642 9.78967 12.0377C10.2698 11.6073 10.5001 10.9629 10.5001 10.1243H10.0847ZM6.72116 8.43908V11.8163H7.13655V8.43908H6.72116ZM6.92885 12.024H7.792V11.6086H6.92885V12.024ZM7.792 12.024C8.4046 12.024 8.91336 11.8866 9.26913 11.56C9.62834 11.2303 9.7945 10.7424 9.7945 10.1243H9.3791C9.3791 10.6707 9.23357 11.0288 8.98824 11.254C8.73945 11.4823 8.35081 11.6086 7.792 11.6086V12.024ZM9.7945 10.1243C9.7945 9.49747 9.62041 9.01088 9.25704 8.68516C8.89804 8.36338 8.39023 8.23138 7.792 8.23138V8.64677C8.33779 8.64677 8.72737 8.76824 8.97978 8.99448C9.2278 9.2168 9.3791 9.57281 9.3791 10.1243H9.7945ZM7.792 8.23138H6.92885V8.64677H7.792V8.23138Z" fill="#9A9A9A" mask="url(#path-5-outside-1_465_143)"/>
</svg>
