<svg width="19" height="78" viewBox="0 0 19 78" fill="none" xmlns="http://www.w3.org/2000/svg">
<g filter="url(#filter0_d_547_3915)">
<path d="M0.000320673 2L0.000317466 75.3591L9.24542 70.0968C13.057 67.9273 15.4443 63.6453 15.4443 58.9782L15.4443 18.3809C15.4443 13.7138 13.057 9.43173 9.24543 7.2623L0.000320673 2Z" fill="#FFFFFF"/>
</g>
<mask id="mask0_547_3915" style="mask-type:alpha" maskUnits="userSpaceOnUse" x="0" y="2" width="16" height="74">
<path d="M0.000320673 2L0.000317466 75.3591L9.24542 70.0968C13.057 67.9273 15.4443 63.6453 15.4443 58.9782L15.4443 18.3809C15.4443 13.7138 13.057 9.43173 9.24543 7.2623L0.000320673 2Z" fill="#DAD6C9"/>
</mask>
<g mask="url(#mask0_547_3915)">
<rect x="2.70312" y="1.80713" width="73.5521" height="2.7027" transform="rotate(90 2.70312 1.80713)" fill="url(#paint0_linear_547_3915)" fill-opacity="0.2"/>
</g>
<defs>
<filter id="filter0_d_547_3915" x="0" y="0.841699" width="18.5331" height="76.4477" filterUnits="userSpaceOnUse" color-interpolation-filters="sRGB">
<feFlood flood-opacity="0" result="BackgroundImageFix"/>
<feColorMatrix in="SourceAlpha" type="matrix" values="0 0 0 0 0 0 0 0 0 0 0 0 0 0 0 0 0 0 127 0" result="hardAlpha"/>
<feOffset dx="1.5444" dy="0.3861"/>
<feGaussianBlur stdDeviation="0.772201"/>
<feComposite in2="hardAlpha" operator="out"/>
<feColorMatrix type="matrix" values="0 0 0 0 0 0 0 0 0 0 0 0 0 0 0 0 0 0 0.1 0"/>
<feBlend mode="normal" in2="BackgroundImageFix" result="effect1_dropShadow_547_3915"/>
<feBlend mode="normal" in="SourceGraphic" in2="effect1_dropShadow_547_3915" result="shape"/>
</filter>
<linearGradient id="paint0_linear_547_3915" x1="39.3744" y1="5.66813" x2="39.3744" y2="1.80713" gradientUnits="userSpaceOnUse">
<stop/>
<stop offset="1" stop-opacity="0"/>
</linearGradient>
</defs>
</svg>
