<svg width="17" height="45" viewBox="0 0 17 45" fill="none" xmlns="http://www.w3.org/2000/svg">
<path d="M2.71892 0.965332C10.1822 0.965332 16.2324 7.01554 16.2324 14.4788L16.2324 30.502C16.2324 37.9653 10.1822 44.0155 2.71891 44.0155H0.788406L0.788406 0.965332L2.71892 0.965332Z" fill="#E0D2C4"/>
<path d="M2.71892 0C10.1822 0 16.2324 6.05021 16.2324 13.5135L16.2324 29.5367C16.2324 37 10.1822 43.0502 2.71891 43.0502H0.788406L0.788406 0L2.71892 0Z" fill="#EAE0D6"/>
<circle cx="8.50968" cy="21.6219" r="2.08827" transform="rotate(91.1833 8.50968 21.6219)" fill="#A0907F"/>
<circle cx="8.50989" cy="21.622" r="4.08812" transform="rotate(90 8.50989 21.622)" stroke="#A0907F" stroke-width="0.511026"/>
<rect x="1.56055" width="43.0502" height="0.772201" transform="rotate(90 1.56055 0)" fill="#E0D2C4"/>
</svg>
