<svg width="16" height="17" viewBox="0 0 16 17" fill="none" xmlns="http://www.w3.org/2000/svg">
<rect x="1.25802" y="1.84115" width="14.0927" height="14.0927" rx="1.12293" stroke="#9A9A9A" stroke-width="0.965251"/>
<path d="M1.25802 2.96408C1.25802 2.3439 1.76077 1.84115 2.38095 1.84115H14.2277C14.8479 1.84115 15.3507 2.3439 15.3507 2.96408V5.123H1.25802V2.96408Z" stroke="#9A9A9A" stroke-width="0.965251"/>
<rect x="3.58648" y="0.308892" width="0.650504" height="2.49689" rx="0.325252" fill="#9A9A9A" stroke="#9A9A9A" stroke-width="0.168837"/>
<rect x="12.7261" y="0.308892" width="0.650504" height="2.49689" rx="0.325252" fill="#9A9A9A" stroke="#9A9A9A" stroke-width="0.168837"/>
<mask id="path-5-outside-1_465_131" maskUnits="userSpaceOnUse" x="5.5127" y="7.4397" width="6" height="6" fill="black">
<rect fill="white" x="5.5127" y="7.4397" width="6" height="6"/>
<path d="M8.51323 11.1587L9.69835 7.81569H10.9109V12.4397H10.2053V8.19931L8.75984 12.4397H8.25977L6.81434 8.19931V12.4397H6.10875V7.81569H7.32127L8.51323 11.1587Z"/>
</mask>
<path d="M8.51323 11.1587L9.69835 7.81569H10.9109V12.4397H10.2053V8.19931L8.75984 12.4397H8.25977L6.81434 8.19931V12.4397H6.10875V7.81569H7.32127L8.51323 11.1587Z" fill="#9A9A9A"/>
<path d="M8.51323 11.1587L8.3176 11.2284L8.51379 11.7787L8.70899 11.2281L8.51323 11.1587ZM9.69835 7.81569V7.608H9.55161L9.50259 7.74629L9.69835 7.81569ZM10.9109 7.81569H11.1186V7.608H10.9109V7.81569ZM10.9109 12.4397V12.6474H11.1186V12.4397H10.9109ZM10.2053 12.4397H9.99758V12.6474H10.2053V12.4397ZM10.2053 8.19931H10.413L10.0087 8.1323L10.2053 8.19931ZM8.75984 12.4397V12.6474H8.90848L8.95643 12.5067L8.75984 12.4397ZM8.25977 12.4397L8.06318 12.5067L8.11113 12.6474H8.25977V12.4397ZM6.81434 8.19931L7.01093 8.1323L6.60664 8.19931H6.81434ZM6.81434 12.4397V12.6474H7.02203V12.4397H6.81434ZM6.10875 12.4397H5.90105V12.6474H6.10875V12.4397ZM6.10875 7.81569V7.608H5.90105V7.81569H6.10875ZM7.32127 7.81569L7.5169 7.74594L7.46771 7.608H7.32127V7.81569ZM8.70899 11.2281L9.89411 7.88509L9.50259 7.74629L8.31747 11.0893L8.70899 11.2281ZM9.69835 8.02339H10.9109V7.608H9.69835V8.02339ZM10.7032 7.81569V12.4397H11.1186V7.81569H10.7032ZM10.9109 12.232H10.2053V12.6474H10.9109V12.232ZM10.413 12.4397V8.19931H9.99758V12.4397H10.413ZM10.0087 8.1323L8.56325 12.3727L8.95643 12.5067L10.4019 8.26633L10.0087 8.1323ZM8.75984 12.232H8.25977V12.6474H8.75984V12.232ZM8.45636 12.3727L7.01093 8.1323L6.61775 8.26633L8.06318 12.5067L8.45636 12.3727ZM6.60664 8.19931V12.4397H7.02203V8.19931H6.60664ZM6.81434 12.232H6.10875V12.6474H6.81434V12.232ZM6.31645 12.4397V7.81569H5.90105V12.4397H6.31645ZM6.10875 8.02339H7.32127V7.608H6.10875V8.02339ZM7.12563 7.88545L8.3176 11.2284L8.70886 11.0889L7.5169 7.74594L7.12563 7.88545Z" fill="#9A9A9A" mask="url(#path-5-outside-1_465_131)"/>
</svg>
