<svg width="16" height="17" viewBox="0 0 16 17" fill="none" xmlns="http://www.w3.org/2000/svg">
<rect x="0.639852" y="1.84115" width="14.0927" height="14.0927" rx="1.12293" stroke="#A0907F" stroke-width="0.965251"/>
<path d="M0.639852 2.96408C0.639852 2.3439 1.14261 1.84115 1.76278 1.84115H13.6096C14.2298 1.84115 14.7325 2.3439 14.7325 2.96408V5.123H0.639852V2.96408Z" stroke="#A0907F" stroke-width="0.965251"/>
<rect x="2.96832" y="0.308892" width="0.650504" height="2.49689" rx="0.325252" fill="#A0907F" stroke="#A0907F" stroke-width="0.168837"/>
<rect x="12.108" y="0.308892" width="0.650504" height="2.49689" rx="0.325252" fill="#A0907F" stroke="#A0907F" stroke-width="0.168837"/>
<mask id="path-5-outside-1_465_137" maskUnits="userSpaceOnUse" x="4.21094" y="7.4397" width="7" height="6" fill="black">
<rect fill="white" x="4.21094" y="7.4397" width="7" height="6"/>
<path d="M9.0743 11.7615L10.1498 7.81569H10.8828L9.61548 12.4397H8.59477L7.71107 8.89805L6.82737 12.4397H5.80667L4.53935 7.81569H5.27234L6.341 11.7478L7.3206 7.81569H8.09469L9.0743 11.7615Z"/>
</mask>
<path d="M9.0743 11.7615L10.1498 7.81569H10.8828L9.61548 12.4397H8.59477L7.71107 8.89805L6.82737 12.4397H5.80667L4.53935 7.81569H5.27234L6.341 11.7478L7.3206 7.81569H8.09469L9.0743 11.7615Z" fill="#A0907F"/>
<path d="M9.0743 11.7615L8.87272 11.8116L9.06492 12.5857L9.27468 11.8161L9.0743 11.7615ZM10.1498 7.81569V7.608H9.99114L9.94942 7.76107L10.1498 7.81569ZM10.8828 7.81569L11.0831 7.87059L11.1551 7.608H10.8828V7.81569ZM9.61548 12.4397V12.6474H9.77391L9.81579 12.4946L9.61548 12.4397ZM8.59477 12.4397L8.39325 12.49L8.43253 12.6474H8.59477V12.4397ZM7.71107 8.89805L7.91259 8.84777H7.50955L7.71107 8.89805ZM6.82737 12.4397V12.6474H6.98961L7.02889 12.49L6.82737 12.4397ZM5.80667 12.4397L5.60636 12.4946L5.64823 12.6474H5.80667V12.4397ZM4.53935 7.81569V7.608H4.26707L4.33904 7.87059L4.53935 7.81569ZM5.27234 7.81569L5.47276 7.76122L5.43112 7.608H5.27234V7.81569ZM6.341 11.7478L6.14057 11.8023L6.34974 12.5719L6.54253 11.798L6.341 11.7478ZM7.3206 7.81569V7.608H7.1583L7.11906 7.76548L7.3206 7.81569ZM8.09469 7.81569L8.29627 7.76565L8.25713 7.608H8.09469V7.81569ZM9.27468 11.8161L10.3502 7.87031L9.94942 7.76107L8.87391 11.7069L9.27468 11.8161ZM10.1498 8.02339H10.8828V7.608H10.1498V8.02339ZM10.6825 7.76079L9.41517 12.3848L9.81579 12.4946L11.0831 7.87059L10.6825 7.76079ZM9.61548 12.232H8.59477V12.6474H9.61548V12.232ZM8.79629 12.3894L7.91259 8.84777L7.50955 8.94833L8.39325 12.49L8.79629 12.3894ZM7.50955 8.84777L6.62585 12.3894L7.02889 12.49L7.91259 8.94833L7.50955 8.84777ZM6.82737 12.232H5.80667V12.6474H6.82737V12.232ZM6.00698 12.3848L4.73966 7.76079L4.33904 7.87059L5.60636 12.4946L6.00698 12.3848ZM4.53935 8.02339H5.27234V7.608H4.53935V8.02339ZM5.07191 7.87016L6.14057 11.8023L6.54142 11.6933L5.47276 7.76122L5.07191 7.87016ZM6.54253 11.798L7.52214 7.8659L7.11906 7.76548L6.13946 11.6976L6.54253 11.798ZM7.3206 8.02339H8.09469V7.608H7.3206V8.02339ZM7.89311 7.86574L8.87272 11.8116L9.27587 11.7115L8.29627 7.76565L7.89311 7.86574Z" fill="#A0907F" mask="url(#path-5-outside-1_465_137)"/>
</svg>
