<svg width="465" height="641" viewBox="0 0 465 641" fill="none" xmlns="http://www.w3.org/2000/svg">
<rect width="124.75" height="124.75" fill="#F8F8F8"/>
<path d="M62.4788 58.6872C60.0798 58.6872 58.1352 60.6321 58.1352 63.031C58.1352 65.4299 60.0798 67.3746 62.4788 67.3746C64.8777 67.3746 66.8224 65.4299 66.8224 63.031C66.8224 60.6321 64.8777 58.6872 62.4788 58.6872ZM74.0619 54.3436H70.5869C70.0759 54.3203 69.6272 53.9963 69.4446 53.5183L68.5454 50.824C68.3613 50.3465 67.9127 50.0232 67.4017 50H57.5559C57.0782 50 56.5628 50.3709 56.4136 50.8224L55.513 53.5183C55.33 53.996 54.8816 54.3201 54.3707 54.3436H50.8958C49.3031 54.3436 48 55.6469 48 57.2395V70.2704C48 71.863 49.3031 73.1661 50.8958 73.1661H74.0619C75.6544 73.1661 76.9575 71.863 76.9575 70.2704V57.2395C76.9575 55.6469 75.6544 54.3436 74.0619 54.3436ZM62.4788 70.2704C58.4797 70.2704 55.2394 67.03 55.2394 63.031C55.2394 59.0327 58.4805 55.7915 62.4788 55.7915C66.4769 55.7915 69.7183 59.0327 69.7183 63.031C69.7183 67.0292 66.4769 70.2704 62.4788 70.2704ZM73.3379 58.977C72.7781 58.977 72.3244 58.5233 72.3244 57.9635C72.3244 57.4036 72.7781 56.95 73.3379 56.95C73.8977 56.95 74.3514 57.4036 74.3514 57.9635C74.3514 58.5233 73.8977 58.977 73.3379 58.977Z" stroke="#9A9A9A" stroke-width="1.1583"/>
<path d="M0.0205078 142.419H124.731" stroke="#333333" stroke-width="0.965251"/>
<path d="M2.32939 136.292H0.561048V131.08H2.32939C4.17495 131.08 5.14792 131.89 5.14792 133.682C5.14792 135.489 4.1595 136.292 2.32939 136.292ZM1.35642 131.782V135.589H2.32939C3.64985 135.589 4.35255 134.995 4.35255 133.682C4.35255 132.354 3.61896 131.782 2.32939 131.782H1.35642ZM10.6675 136.292H9.81805L9.37017 135.087H6.99951L6.55164 136.292H5.70222L7.68677 131.08H8.68291L10.6675 136.292ZM8.1887 131.883L7.24662 134.416H9.12307L8.1887 131.883ZM10.4546 131.08H14.8021V131.782H13.026V136.292H12.2306V131.782H10.4546V131.08ZM19.5553 131.08V131.782H16.7444V133.319H19.3236V134.014H16.7444V135.589H19.5553V136.292H15.9491V131.08H19.5553ZM21.5338 133.589H20.7693V132.5H21.5338V133.589ZM21.5338 136.292H20.7693V135.195H21.5338V136.292Z" fill="#333333"/>
<rect x="0.0205078" y="165" width="124.75" height="124.75" fill="#F8F8F8"/>
<path d="M62.5686 224.687C60.1697 224.687 58.225 226.632 58.225 229.031C58.225 231.43 60.1697 233.375 62.5686 233.375C64.9675 233.375 66.9122 231.43 66.9122 229.031C66.9122 226.632 64.9675 224.687 62.5686 224.687ZM74.1517 220.344H70.6767C70.1657 220.32 69.7171 219.996 69.5345 219.518L68.6352 216.824C68.4512 216.347 68.0025 216.023 67.4915 216H57.6458C57.168 216 56.6526 216.371 56.5034 216.822L55.6029 219.518C55.4199 219.996 54.9715 220.32 54.4605 220.344H50.9856C49.3929 220.344 48.0898 221.647 48.0898 223.239V236.27C48.0898 237.863 49.3929 239.166 50.9856 239.166H74.1517C75.7443 239.166 77.0474 237.863 77.0474 236.27V223.239C77.0474 221.647 75.7443 220.344 74.1517 220.344ZM62.5686 236.27C58.5696 236.27 55.3292 233.03 55.3292 229.031C55.3292 225.033 58.5704 221.792 62.5686 221.792C66.5667 221.792 69.8081 225.033 69.8081 229.031C69.8081 233.029 66.5667 236.27 62.5686 236.27ZM73.4277 224.977C72.8679 224.977 72.4143 224.523 72.4143 223.963C72.4143 223.404 72.8679 222.95 73.4277 222.95C73.9876 222.95 74.4412 223.404 74.4412 223.963C74.4412 224.523 73.9876 224.977 73.4277 224.977Z" stroke="#9A9A9A" stroke-width="1.1583"/>
<path d="M0.0205078 308.209H124.731" stroke="#333333" stroke-width="0.965251"/>
<path d="M2.32939 302.082H0.561048V296.87H2.32939C4.17495 296.87 5.14792 297.68 5.14792 299.472C5.14792 301.279 4.1595 302.082 2.32939 302.082ZM1.35642 297.572V301.379H2.32939C3.64985 301.379 4.35255 300.785 4.35255 299.472C4.35255 298.144 3.61896 297.572 2.32939 297.572H1.35642ZM10.6675 302.082H9.81805L9.37017 300.877H6.99951L6.55164 302.082H5.70222L7.68677 296.87H8.68291L10.6675 302.082ZM8.1887 297.673L7.24662 300.206H9.12307L8.1887 297.673ZM10.4546 296.87H14.8021V297.572H13.026V302.082H12.2306V297.572H10.4546V296.87ZM19.5553 296.87V297.572H16.7444V299.109H19.3236V299.804H16.7444V301.379H19.5553V302.082H15.9491V296.87H19.5553ZM21.5338 299.379H20.7693V298.291H21.5338V299.379ZM21.5338 302.082H20.7693V300.986H21.5338V302.082Z" fill="#333333"/>
<rect x="0.0205078" y="331" width="124.75" height="124.75" fill="#F8F8F8"/>
<path d="M62.5686 390.687C60.1697 390.687 58.225 392.632 58.225 395.031C58.225 397.43 60.1697 399.375 62.5686 399.375C64.9675 399.375 66.9122 397.43 66.9122 395.031C66.9122 392.632 64.9675 390.687 62.5686 390.687ZM74.1517 386.344H70.6767C70.1657 386.32 69.7171 385.996 69.5345 385.518L68.6352 382.824C68.4512 382.347 68.0025 382.023 67.4915 382H57.6458C57.168 382 56.6526 382.371 56.5034 382.822L55.6029 385.518C55.4199 385.996 54.9715 386.32 54.4605 386.344H50.9856C49.3929 386.344 48.0898 387.647 48.0898 389.239V402.27C48.0898 403.863 49.3929 405.166 50.9856 405.166H74.1517C75.7443 405.166 77.0474 403.863 77.0474 402.27V389.239C77.0474 387.647 75.7443 386.344 74.1517 386.344ZM62.5686 402.27C58.5696 402.27 55.3292 399.03 55.3292 395.031C55.3292 391.033 58.5704 387.792 62.5686 387.792C66.5667 387.792 69.8081 391.033 69.8081 395.031C69.8081 399.029 66.5667 402.27 62.5686 402.27ZM73.4277 390.977C72.8679 390.977 72.4143 390.523 72.4143 389.963C72.4143 389.404 72.8679 388.95 73.4277 388.95C73.9876 388.95 74.4412 389.404 74.4412 389.963C74.4412 390.523 73.9876 390.977 73.4277 390.977Z" stroke="#9A9A9A" stroke-width="1.1583"/>
<path d="M0.0205078 473.963H124.731" stroke="#333333" stroke-width="0.965251"/>
<path d="M2.32939 467.835H0.561048V462.623H2.32939C4.17495 462.623 5.14792 463.434 5.14792 465.225C5.14792 467.032 4.1595 467.835 2.32939 467.835ZM1.35642 463.326V467.133H2.32939C3.64985 467.133 4.35255 466.538 4.35255 465.225C4.35255 463.897 3.61896 463.326 2.32939 463.326H1.35642ZM10.6675 467.835H9.81805L9.37017 466.631H6.99951L6.55164 467.835H5.70222L7.68677 462.623H8.68291L10.6675 467.835ZM8.1887 463.426L7.24662 465.959H9.12307L8.1887 463.426ZM10.4546 462.623H14.8021V463.326H13.026V467.835H12.2306V463.326H10.4546V462.623ZM19.5553 462.623V463.326H16.7444V464.862H19.3236V465.557H16.7444V467.133H19.5553V467.835H15.9491V462.623H19.5553ZM21.5338 465.133H20.7693V464.044H21.5338V465.133ZM21.5338 467.835H20.7693V466.739H21.5338V467.835Z" fill="#333333"/>
<rect x="0.0205078" y="496.9" width="124.75" height="124.75" fill="#F8F8F8"/>
<path d="M62.5686 556.434C60.1697 556.434 58.225 558.379 58.225 560.778C58.225 563.176 60.1697 565.121 62.5686 565.121C64.9675 565.121 66.9122 563.176 66.9122 560.778C66.9122 558.379 64.9675 556.434 62.5686 556.434ZM74.1517 552.09H70.6767C70.1657 552.067 69.7171 551.743 69.5345 551.265L68.6352 548.571C68.4512 548.093 68.0025 547.77 67.4915 547.747H57.6458C57.168 547.747 56.6526 548.117 56.5034 548.569L55.6029 551.265C55.4199 551.743 54.9715 552.067 54.4605 552.09H50.9856C49.3929 552.09 48.0898 553.393 48.0898 554.986V568.017C48.0898 569.61 49.3929 570.913 50.9856 570.913H74.1517C75.7443 570.913 77.0474 569.61 77.0474 568.017V554.986C77.0474 553.393 75.7443 552.09 74.1517 552.09ZM62.5686 568.017C58.5696 568.017 55.3292 564.777 55.3292 560.778C55.3292 556.779 58.5704 553.538 62.5686 553.538C66.5667 553.538 69.8081 556.779 69.8081 560.778C69.8081 564.776 66.5667 568.017 62.5686 568.017ZM73.4277 556.724C72.8679 556.724 72.4143 556.27 72.4143 555.71C72.4143 555.15 72.8679 554.697 73.4277 554.697C73.9876 554.697 74.4412 555.15 74.4412 555.71C74.4412 556.27 73.9876 556.724 73.4277 556.724Z" stroke="#9A9A9A" stroke-width="1.1583"/>
<path d="M0.0205078 639.672H124.731" stroke="#333333" stroke-width="0.965251"/>
<path d="M2.32939 633.544H0.561048V628.332H2.32939C4.17495 628.332 5.14792 629.143 5.14792 630.934C5.14792 632.741 4.1595 633.544 2.32939 633.544ZM1.35642 629.035V632.842H2.32939C3.64985 632.842 4.35255 632.247 4.35255 630.934C4.35255 629.606 3.61896 629.035 2.32939 629.035H1.35642ZM10.6675 633.544H9.81805L9.37017 632.34H6.99951L6.55164 633.544H5.70222L7.68677 628.332H8.68291L10.6675 633.544ZM8.1887 629.135L7.24662 631.668H9.12307L8.1887 629.135ZM10.4546 628.332H14.8021V629.035H13.026V633.544H12.2306V629.035H10.4546V628.332ZM19.5553 628.332V629.035H16.7444V630.571H19.3236V631.266H16.7444V632.842H19.5553V633.544H15.9491V628.332H19.5553ZM21.5338 630.842H20.7693V629.753H21.5338V630.842ZM21.5338 633.544H20.7693V632.448H21.5338V633.544Z" fill="#333333"/>
<rect x="169.79" width="124.75" height="124.75" fill="#F8F8F8"/>
<path d="M232.299 58.6872C229.9 58.6872 227.955 60.6321 227.955 63.031C227.955 65.4299 229.9 67.3746 232.299 67.3746C234.698 67.3746 236.643 65.4299 236.643 63.031C236.643 60.6321 234.698 58.6872 232.299 58.6872ZM243.882 54.3436H240.407C239.896 54.3203 239.448 53.9963 239.265 53.5183L238.366 50.824C238.182 50.3465 237.733 50.0232 237.222 50H227.376C226.898 50 226.383 50.3709 226.234 50.8224L225.333 53.5183C225.15 53.996 224.702 54.3201 224.191 54.3436H220.716C219.123 54.3436 217.82 55.6469 217.82 57.2395V70.2704C217.82 71.863 219.123 73.1661 220.716 73.1661H243.882C245.475 73.1661 246.778 71.863 246.778 70.2704V57.2395C246.778 55.6469 245.475 54.3436 243.882 54.3436ZM232.299 70.2704C228.3 70.2704 225.06 67.03 225.06 63.031C225.06 59.0327 228.301 55.7915 232.299 55.7915C236.297 55.7915 239.539 59.0327 239.539 63.031C239.539 67.0292 236.297 70.2704 232.299 70.2704ZM243.158 58.977C242.598 58.977 242.145 58.5233 242.145 57.9635C242.145 57.4036 242.598 56.95 243.158 56.95C243.718 56.95 244.172 57.4036 244.172 57.9635C244.172 58.5233 243.718 58.977 243.158 58.977Z" stroke="#9A9A9A" stroke-width="1.1583"/>
<path d="M169.75 142.419H294.46" stroke="#333333" stroke-width="0.965251"/>
<path d="M172.059 136.292H170.291V131.08H172.059C173.904 131.08 174.877 131.89 174.877 133.682C174.877 135.489 173.889 136.292 172.059 136.292ZM171.086 131.782V135.589H172.059C173.379 135.589 174.082 134.995 174.082 133.682C174.082 132.354 173.348 131.782 172.059 131.782H171.086ZM180.397 136.292H179.548L179.1 135.087H176.729L176.281 136.292H175.432L177.416 131.08H178.412L180.397 136.292ZM177.918 131.883L176.976 134.416H178.853L177.918 131.883ZM180.184 131.08H184.532V131.782H182.755V136.292H181.96V131.782H180.184V131.08ZM189.285 131.08V131.782H186.474V133.319H189.053V134.014H186.474V135.589H189.285V136.292H185.679V131.08H189.285ZM191.263 133.589H190.499V132.5H191.263V133.589ZM191.263 136.292H190.499V135.195H191.263V136.292Z" fill="#333333"/>
<rect x="169.79" y="165" width="124.75" height="124.75" fill="#F8F8F8"/>
<path d="M232.299 224.687C229.9 224.687 227.955 226.632 227.955 229.031C227.955 231.43 229.9 233.375 232.299 233.375C234.698 233.375 236.643 231.43 236.643 229.031C236.643 226.632 234.698 224.687 232.299 224.687ZM243.882 220.344H240.407C239.896 220.32 239.448 219.996 239.265 219.518L238.366 216.824C238.182 216.347 237.733 216.023 237.222 216H227.376C226.898 216 226.383 216.371 226.234 216.822L225.333 219.518C225.15 219.996 224.702 220.32 224.191 220.344H220.716C219.123 220.344 217.82 221.647 217.82 223.239V236.27C217.82 237.863 219.123 239.166 220.716 239.166H243.882C245.475 239.166 246.778 237.863 246.778 236.27V223.239C246.778 221.647 245.475 220.344 243.882 220.344ZM232.299 236.27C228.3 236.27 225.06 233.03 225.06 229.031C225.06 225.033 228.301 221.792 232.299 221.792C236.297 221.792 239.539 225.033 239.539 229.031C239.539 233.029 236.297 236.27 232.299 236.27ZM243.158 224.977C242.598 224.977 242.145 224.523 242.145 223.963C242.145 223.404 242.598 222.95 243.158 222.95C243.718 222.95 244.172 223.404 244.172 223.963C244.172 224.523 243.718 224.977 243.158 224.977Z" stroke="#9A9A9A" stroke-width="1.1583"/>
<path d="M169.75 308.209H294.46" stroke="#333333" stroke-width="0.965251"/>
<path d="M172.059 302.082H170.291V296.87H172.059C173.904 296.87 174.877 297.68 174.877 299.472C174.877 301.279 173.889 302.082 172.059 302.082ZM171.086 297.572V301.379H172.059C173.379 301.379 174.082 300.785 174.082 299.472C174.082 298.144 173.348 297.572 172.059 297.572H171.086ZM180.397 302.082H179.548L179.1 300.877H176.729L176.281 302.082H175.432L177.416 296.87H178.412L180.397 302.082ZM177.918 297.673L176.976 300.206H178.853L177.918 297.673ZM180.184 296.87H184.532V297.572H182.755V302.082H181.96V297.572H180.184V296.87ZM189.285 296.87V297.572H186.474V299.109H189.053V299.804H186.474V301.379H189.285V302.082H185.679V296.87H189.285ZM191.263 299.379H190.499V298.291H191.263V299.379ZM191.263 302.082H190.499V300.986H191.263V302.082Z" fill="#333333"/>
<rect x="169.79" y="331" width="124.75" height="124.75" fill="#F8F8F8"/>
<path d="M232.299 390.687C229.9 390.687 227.955 392.632 227.955 395.031C227.955 397.43 229.9 399.375 232.299 399.375C234.698 399.375 236.643 397.43 236.643 395.031C236.643 392.632 234.698 390.687 232.299 390.687ZM243.882 386.344H240.407C239.896 386.32 239.448 385.996 239.265 385.518L238.366 382.824C238.182 382.347 237.733 382.023 237.222 382H227.376C226.898 382 226.383 382.371 226.234 382.822L225.333 385.518C225.15 385.996 224.702 386.32 224.191 386.344H220.716C219.123 386.344 217.82 387.647 217.82 389.239V402.27C217.82 403.863 219.123 405.166 220.716 405.166H243.882C245.475 405.166 246.778 403.863 246.778 402.27V389.239C246.778 387.647 245.475 386.344 243.882 386.344ZM232.299 402.27C228.3 402.27 225.06 399.03 225.06 395.031C225.06 391.033 228.301 387.792 232.299 387.792C236.297 387.792 239.539 391.033 239.539 395.031C239.539 399.029 236.297 402.27 232.299 402.27ZM243.158 390.977C242.598 390.977 242.145 390.523 242.145 389.963C242.145 389.404 242.598 388.95 243.158 388.95C243.718 388.95 244.172 389.404 244.172 389.963C244.172 390.523 243.718 390.977 243.158 390.977Z" stroke="#9A9A9A" stroke-width="1.1583"/>
<path d="M169.75 473.963H294.46" stroke="#333333" stroke-width="0.965251"/>
<path d="M172.059 467.835H170.291V462.623H172.059C173.904 462.623 174.877 463.434 174.877 465.225C174.877 467.032 173.889 467.835 172.059 467.835ZM171.086 463.326V467.133H172.059C173.379 467.133 174.082 466.538 174.082 465.225C174.082 463.897 173.348 463.326 172.059 463.326H171.086ZM180.397 467.835H179.548L179.1 466.631H176.729L176.281 467.835H175.432L177.416 462.623H178.412L180.397 467.835ZM177.918 463.426L176.976 465.959H178.853L177.918 463.426ZM180.184 462.623H184.532V463.326H182.755V467.835H181.96V463.326H180.184V462.623ZM189.285 462.623V463.326H186.474V464.862H189.053V465.557H186.474V467.133H189.285V467.835H185.679V462.623H189.285ZM191.263 465.133H190.499V464.044H191.263V465.133ZM191.263 467.835H190.499V466.739H191.263V467.835Z" fill="#333333"/>
<rect x="169.79" y="496.899" width="124.75" height="124.75" fill="#F8F8F8"/>
<path d="M232.299 556.433C229.9 556.433 227.955 558.378 227.955 560.777C227.955 563.176 229.9 565.121 232.299 565.121C234.698 565.121 236.643 563.176 236.643 560.777C236.643 558.378 234.698 556.433 232.299 556.433ZM243.882 552.09H240.407C239.896 552.066 239.448 551.742 239.265 551.264L238.366 548.57C238.182 548.093 237.733 547.769 237.222 547.746H227.376C226.898 547.746 226.383 548.117 226.234 548.569L225.333 551.264C225.15 551.742 224.702 552.066 224.191 552.09H220.716C219.123 552.09 217.82 553.393 217.82 554.986V568.017C217.82 569.609 219.123 570.912 220.716 570.912H243.882C245.475 570.912 246.778 569.609 246.778 568.017V554.986C246.778 553.393 245.475 552.09 243.882 552.09ZM232.299 568.017C228.3 568.017 225.06 564.776 225.06 560.777C225.06 556.779 228.301 553.538 232.299 553.538C236.297 553.538 239.539 556.779 239.539 560.777C239.539 564.775 236.297 568.017 232.299 568.017ZM243.158 556.723C242.598 556.723 242.145 556.269 242.145 555.71C242.145 555.15 242.598 554.696 243.158 554.696C243.718 554.696 244.172 555.15 244.172 555.71C244.172 556.269 243.718 556.723 243.158 556.723Z" stroke="#9A9A9A" stroke-width="1.1583"/>
<path d="M169.75 639.673H294.46" stroke="#333333" stroke-width="0.965251"/>
<path d="M172.059 633.546H170.291V628.334H172.059C173.904 628.334 174.877 629.144 174.877 630.936C174.877 632.743 173.889 633.546 172.059 633.546ZM171.086 629.036V632.843H172.059C173.379 632.843 174.082 632.249 174.082 630.936C174.082 629.608 173.348 629.036 172.059 629.036H171.086ZM180.397 633.546H179.548L179.1 632.341H176.729L176.281 633.546H175.432L177.416 628.334H178.412L180.397 633.546ZM177.918 629.137L176.976 631.669H178.853L177.918 629.137ZM180.184 628.334H184.532V629.036H182.755V633.546H181.96V629.036H180.184V628.334ZM189.285 628.334V629.036H186.474V630.573H189.053V631.268H186.474V632.843H189.285V633.546H185.679V628.334H189.285ZM191.263 630.843H190.499V629.754H191.263V630.843ZM191.263 633.546H190.499V632.449H191.263V633.546Z" fill="#333333"/>
<rect x="339.599" width="124.75" height="124.75" fill="#F8F8F8"/>
<path d="M402.069 58.6872C399.67 58.6872 397.725 60.6321 397.725 63.031C397.725 65.4299 399.67 67.3746 402.069 67.3746C404.468 67.3746 406.412 65.4299 406.412 63.031C406.412 60.6321 404.468 58.6872 402.069 58.6872ZM413.652 54.3436H410.177C409.666 54.3203 409.217 53.9963 409.034 53.5183L408.135 50.824C407.951 50.3465 407.503 50.0232 406.992 50H397.146C396.668 50 396.153 50.3709 396.003 50.8224L395.103 53.5183C394.92 53.996 394.471 54.3201 393.961 54.3436H390.486C388.893 54.3436 387.59 55.6469 387.59 57.2395V70.2704C387.59 71.863 388.893 73.1661 390.486 73.1661H413.652C415.244 73.1661 416.547 71.863 416.547 70.2704V57.2395C416.547 55.6469 415.244 54.3436 413.652 54.3436ZM402.069 70.2704C398.07 70.2704 394.829 67.03 394.829 63.031C394.829 59.0327 398.07 55.7915 402.069 55.7915C406.067 55.7915 409.308 59.0327 409.308 63.031C409.308 67.0292 406.067 70.2704 402.069 70.2704ZM412.928 58.977C412.368 58.977 411.914 58.5233 411.914 57.9635C411.914 57.4036 412.368 56.95 412.928 56.95C413.488 56.95 413.941 57.4036 413.941 57.9635C413.941 58.5233 413.488 58.977 412.928 58.977Z" stroke="#9A9A9A" stroke-width="1.1583"/>
<path d="M339.52 142.419H464.23" stroke="#333333" stroke-width="0.965251"/>
<path d="M341.828 136.292H340.06V131.08H341.828C343.674 131.08 344.647 131.89 344.647 133.682C344.647 135.489 343.659 136.292 341.828 136.292ZM340.855 131.782V135.589H341.828C343.149 135.589 343.852 134.995 343.852 133.682C343.852 132.354 343.118 131.782 341.828 131.782H340.855ZM350.166 136.292H349.317L348.869 135.087H346.499L346.051 136.292H345.201L347.186 131.08H348.182L350.166 136.292ZM347.688 131.883L346.746 134.416H348.622L347.688 131.883ZM349.954 131.08H354.301V131.782H352.525V136.292H351.73V131.782H349.954V131.08ZM359.054 131.08V131.782H356.243V133.319H358.823V134.014H356.243V135.589H359.054V136.292H355.448V131.08H359.054ZM361.033 133.589H360.268V132.5H361.033V133.589ZM361.033 136.292H360.268V135.195H361.033V136.292Z" fill="#333333"/>
<rect x="339.599" y="165" width="124.75" height="124.75" fill="#F8F8F8"/>
<path d="M402.069 224.687C399.67 224.687 397.725 226.632 397.725 229.031C397.725 231.43 399.67 233.375 402.069 233.375C404.468 233.375 406.412 231.43 406.412 229.031C406.412 226.632 404.468 224.687 402.069 224.687ZM413.652 220.344H410.177C409.666 220.32 409.217 219.996 409.034 219.518L408.135 216.824C407.951 216.347 407.503 216.023 406.992 216H397.146C396.668 216 396.153 216.371 396.003 216.822L395.103 219.518C394.92 219.996 394.471 220.32 393.961 220.344H390.486C388.893 220.344 387.59 221.647 387.59 223.239V236.27C387.59 237.863 388.893 239.166 390.486 239.166H413.652C415.244 239.166 416.547 237.863 416.547 236.27V223.239C416.547 221.647 415.244 220.344 413.652 220.344ZM402.069 236.27C398.07 236.27 394.829 233.03 394.829 229.031C394.829 225.033 398.07 221.792 402.069 221.792C406.067 221.792 409.308 225.033 409.308 229.031C409.308 233.029 406.067 236.27 402.069 236.27ZM412.928 224.977C412.368 224.977 411.914 224.523 411.914 223.963C411.914 223.404 412.368 222.95 412.928 222.95C413.488 222.95 413.941 223.404 413.941 223.963C413.941 224.523 413.488 224.977 412.928 224.977Z" stroke="#9A9A9A" stroke-width="1.1583"/>
<path d="M339.52 308.209H464.23" stroke="#333333" stroke-width="0.965251"/>
<path d="M341.828 302.082H340.06V296.87H341.828C343.674 296.87 344.647 297.68 344.647 299.472C344.647 301.279 343.659 302.082 341.828 302.082ZM340.855 297.572V301.379H341.828C343.149 301.379 343.852 300.785 343.852 299.472C343.852 298.144 343.118 297.572 341.828 297.572H340.855ZM350.166 302.082H349.317L348.869 300.877H346.499L346.051 302.082H345.201L347.186 296.87H348.182L350.166 302.082ZM347.688 297.673L346.746 300.206H348.622L347.688 297.673ZM349.954 296.87H354.301V297.572H352.525V302.082H351.73V297.572H349.954V296.87ZM359.054 296.87V297.572H356.243V299.109H358.823V299.804H356.243V301.379H359.054V302.082H355.448V296.87H359.054ZM361.033 299.379H360.268V298.291H361.033V299.379ZM361.033 302.082H360.268V300.986H361.033V302.082Z" fill="#333333"/>
<rect x="339.599" y="331" width="124.75" height="124.75" fill="#F8F8F8"/>
<path d="M402.069 390.687C399.67 390.687 397.725 392.632 397.725 395.031C397.725 397.43 399.67 399.375 402.069 399.375C404.468 399.375 406.412 397.43 406.412 395.031C406.412 392.632 404.468 390.687 402.069 390.687ZM413.652 386.344H410.177C409.666 386.32 409.217 385.996 409.034 385.518L408.135 382.824C407.951 382.347 407.503 382.023 406.992 382H397.146C396.668 382 396.153 382.371 396.003 382.822L395.103 385.518C394.92 385.996 394.471 386.32 393.961 386.344H390.486C388.893 386.344 387.59 387.647 387.59 389.239V402.27C387.59 403.863 388.893 405.166 390.486 405.166H413.652C415.244 405.166 416.547 403.863 416.547 402.27V389.239C416.547 387.647 415.244 386.344 413.652 386.344ZM402.069 402.27C398.07 402.27 394.829 399.03 394.829 395.031C394.829 391.033 398.07 387.792 402.069 387.792C406.067 387.792 409.308 391.033 409.308 395.031C409.308 399.029 406.067 402.27 402.069 402.27ZM412.928 390.977C412.368 390.977 411.914 390.523 411.914 389.963C411.914 389.404 412.368 388.95 412.928 388.95C413.488 388.95 413.941 389.404 413.941 389.963C413.941 390.523 413.488 390.977 412.928 390.977Z" stroke="#9A9A9A" stroke-width="1.1583"/>
<path d="M339.52 473.963H464.23" stroke="#333333" stroke-width="0.965251"/>
<path d="M341.828 467.835H340.06V462.623H341.828C343.674 462.623 344.647 463.434 344.647 465.225C344.647 467.032 343.659 467.835 341.828 467.835ZM340.855 463.326V467.133H341.828C343.149 467.133 343.852 466.538 343.852 465.225C343.852 463.897 343.118 463.326 341.828 463.326H340.855ZM350.166 467.835H349.317L348.869 466.631H346.499L346.051 467.835H345.201L347.186 462.623H348.182L350.166 467.835ZM347.688 463.426L346.746 465.959H348.622L347.688 463.426ZM349.954 462.623H354.301V463.326H352.525V467.835H351.73V463.326H349.954V462.623ZM359.054 462.623V463.326H356.243V464.862H358.823V465.557H356.243V467.133H359.054V467.835H355.448V462.623H359.054ZM361.033 465.133H360.268V464.044H361.033V465.133ZM361.033 467.835H360.268V466.739H361.033V467.835Z" fill="#333333"/>
<rect x="339.599" y="496.9" width="124.75" height="124.75" fill="#F8F8F8"/>
<path d="M402.069 556.433C399.67 556.433 397.725 558.378 397.725 560.777C397.725 563.176 399.67 565.121 402.069 565.121C404.468 565.121 406.412 563.176 406.412 560.777C406.412 558.378 404.468 556.433 402.069 556.433ZM413.652 552.09H410.177C409.666 552.066 409.217 551.742 409.034 551.264L408.135 548.57C407.951 548.093 407.503 547.769 406.992 547.746H397.146C396.668 547.746 396.153 548.117 396.003 548.569L395.103 551.264C394.92 551.742 394.471 552.066 393.961 552.09H390.486C388.893 552.09 387.59 553.393 387.59 554.986V568.017C387.59 569.609 388.893 570.912 390.486 570.912H413.652C415.244 570.912 416.547 569.609 416.547 568.017V554.986C416.547 553.393 415.244 552.09 413.652 552.09ZM402.069 568.017C398.07 568.017 394.829 564.776 394.829 560.777C394.829 556.779 398.07 553.538 402.069 553.538C406.067 553.538 409.308 556.779 409.308 560.777C409.308 564.775 406.067 568.017 402.069 568.017ZM412.928 556.723C412.368 556.723 411.914 556.269 411.914 555.71C411.914 555.15 412.368 554.696 412.928 554.696C413.488 554.696 413.941 555.15 413.941 555.71C413.941 556.269 413.488 556.723 412.928 556.723Z" stroke="#9A9A9A" stroke-width="1.1583"/>
<path d="M339.52 639.674H464.23" stroke="#333333" stroke-width="0.965251"/>
<path d="M341.828 633.546H340.06V628.334H341.828C343.674 628.334 344.647 629.145 344.647 630.936C344.647 632.743 343.659 633.546 341.828 633.546ZM340.855 629.037V632.844H341.828C343.149 632.844 343.852 632.249 343.852 630.936C343.852 629.608 343.118 629.037 341.828 629.037H340.855ZM350.166 633.546H349.317L348.869 632.342H346.499L346.051 633.546H345.201L347.186 628.334H348.182L350.166 633.546ZM347.688 629.137L346.746 631.67H348.622L347.688 629.137ZM349.954 628.334H354.301V629.037H352.525V633.546H351.73V629.037H349.954V628.334ZM359.054 628.334V629.037H356.243V630.573H358.823V631.268H356.243V632.844H359.054V633.546H355.448V628.334H359.054ZM361.033 630.844H360.268V629.755H361.033V630.844ZM361.033 633.546H360.268V632.45H361.033V633.546Z" fill="#333333"/>
</svg>
