<svg width="441" height="641" viewBox="0 0 441 641" fill="none" xmlns="http://www.w3.org/2000/svg">
<rect x="243.675" y="0.300293" width="196.984" height="264.469" fill="#F1EBE5"/>
<path d="M343.186 127.947C339.391 127.947 336.315 131.024 336.315 134.819C336.315 138.614 339.391 141.691 343.186 141.691C346.981 141.691 350.057 138.614 350.057 134.819C350.057 131.024 346.981 127.947 343.186 127.947ZM361.51 121.076H356.013C355.204 121.039 354.495 120.527 354.206 119.77L352.783 115.508C352.492 114.753 351.782 114.241 350.974 114.205H335.398C334.643 114.205 333.827 114.791 333.591 115.506L332.166 119.77C331.877 120.526 331.168 121.039 330.359 121.076H324.862C322.343 121.076 320.281 123.138 320.281 125.657V146.271C320.281 148.791 322.343 150.852 324.862 150.852H361.51C364.029 150.852 366.091 148.791 366.091 146.271V125.657C366.091 123.138 364.029 121.076 361.51 121.076ZM343.186 146.271C336.86 146.271 331.734 141.145 331.734 134.819C331.734 128.494 336.861 123.367 343.186 123.367C349.511 123.367 354.639 128.494 354.639 134.819C354.639 141.144 349.511 146.271 343.186 146.271ZM360.365 128.406C359.479 128.406 358.761 127.688 358.761 126.802C358.761 125.917 359.479 125.199 360.365 125.199C361.25 125.199 361.968 125.917 361.968 126.802C361.968 127.688 361.25 128.406 360.365 128.406Z" stroke="#A0907F" stroke-width="1.83305"/>
<path d="M243.237 302.425H440.524" stroke="#614F41" stroke-width="1.52754"/>
<path d="M246.891 292.658H244.093V284.409H246.891C249.812 284.409 251.352 285.692 251.352 288.527C251.352 291.387 249.787 292.658 246.891 292.658ZM245.351 285.521V291.546H246.891C248.981 291.546 250.093 290.605 250.093 288.527C250.093 286.425 248.932 285.521 246.891 285.521H245.351ZM260.086 292.658H258.742L258.033 290.751H254.282L253.573 292.658H252.229L255.369 284.409H256.946L260.086 292.658ZM256.164 285.68L254.673 289.688H257.642L256.164 285.68ZM259.75 284.409H266.63V285.521H263.819V292.658H262.56V285.521H259.75V284.409ZM274.152 284.409V285.521H269.704V287.953H273.785V289.053H269.704V291.546H274.152V292.658H268.445V284.409H274.152ZM277.283 288.381H276.073V286.658H277.283V288.381ZM277.283 292.658H276.073V290.922H277.283V292.658Z" fill="#614F41"/>
<rect x="243.675" y="337.629" width="196.984" height="264.469" fill="#F1EBE5"/>
<path d="M342.186 465.276C338.391 465.276 335.315 468.353 335.315 472.148C335.315 475.943 338.391 479.019 342.186 479.019C345.981 479.019 349.057 475.943 349.057 472.148C349.057 468.353 345.981 465.276 342.186 465.276ZM360.51 458.405H355.013C354.204 458.368 353.495 457.855 353.206 457.099L351.783 452.837C351.492 452.081 350.782 451.57 349.974 451.533H334.398C333.643 451.533 332.827 452.12 332.591 452.834L331.166 457.099C330.877 457.855 330.168 458.367 329.359 458.405H323.862C321.343 458.405 319.281 460.466 319.281 462.986V483.6C319.281 486.12 321.343 488.181 323.862 488.181H360.51C363.029 488.181 365.091 486.12 365.091 483.6V462.986C365.091 460.466 363.029 458.405 360.51 458.405ZM342.186 483.6C335.86 483.6 330.734 478.474 330.734 472.148C330.734 465.823 335.861 460.695 342.186 460.695C348.511 460.695 353.639 465.823 353.639 472.148C353.639 478.473 348.511 483.6 342.186 483.6ZM359.365 465.734C358.479 465.734 357.761 465.017 357.761 464.131C357.761 463.245 358.479 462.528 359.365 462.528C360.25 462.528 360.968 463.245 360.968 464.131C360.968 465.017 360.25 465.734 359.365 465.734Z" stroke="#A0907F" stroke-width="1.83305"/>
<path d="M243.237 639.751H440.524" stroke="#614F41" stroke-width="1.52754"/>
<path d="M246.891 629.984H244.093V621.736H246.891C249.812 621.736 251.352 623.019 251.352 625.854C251.352 628.713 249.787 629.984 246.891 629.984ZM245.351 622.848V628.872H246.891C248.981 628.872 250.093 627.931 250.093 625.854C250.093 623.752 248.932 622.848 246.891 622.848H245.351ZM260.086 629.984H258.742L258.033 628.078H254.282L253.573 629.984H252.229L255.369 621.736H256.946L260.086 629.984ZM256.164 623.007L254.673 627.015H257.642L256.164 623.007ZM259.75 621.736H266.63V622.848H263.819V629.984H262.56V622.848H259.75V621.736ZM274.152 621.736V622.848H269.704V625.28H273.785V626.379H269.704V628.872H274.152V629.984H268.445V621.736H274.152ZM277.283 625.707H276.073V623.984H277.283V625.707ZM277.283 629.984H276.073V628.249H277.283V629.984Z" fill="#614F41"/>
<rect x="1.19336" y="0.300293" width="196.984" height="264.469" fill="#F1EBE5"/>
<path d="M99.7046 127.947C95.9096 127.947 92.8332 131.024 92.8332 134.819C92.8332 138.614 95.9096 141.691 99.7046 141.691C103.5 141.691 106.576 138.614 106.576 134.819C106.576 131.024 103.5 127.947 99.7046 127.947ZM118.029 121.076H112.531C111.723 121.039 111.013 120.527 110.724 119.77L109.302 115.508C109.011 114.753 108.301 114.241 107.492 114.205H91.9169C91.1611 114.205 90.3457 114.791 90.1097 115.506L88.6851 119.77C88.3956 120.526 87.6862 121.039 86.8779 121.076H81.3808C78.8612 121.076 76.7998 123.138 76.7998 125.657V146.271C76.7998 148.791 78.8612 150.852 81.3808 150.852H118.029C120.548 150.852 122.609 148.791 122.609 146.271V125.657C122.609 123.138 120.548 121.076 118.029 121.076ZM99.7046 146.271C93.3783 146.271 88.2522 141.145 88.2522 134.819C88.2522 128.494 93.3796 123.367 99.7046 123.367C106.029 123.367 111.157 128.494 111.157 134.819C111.157 141.144 106.029 146.271 99.7046 146.271ZM116.883 128.406C115.998 128.406 115.28 127.688 115.28 126.802C115.28 125.917 115.998 125.199 116.883 125.199C117.769 125.199 118.486 125.917 118.486 126.802C118.486 127.688 117.769 128.406 116.883 128.406Z" stroke="#A0907F" stroke-width="1.83305"/>
<path d="M0.753906 302.425H198.04" stroke="#614F41" stroke-width="1.52754"/>
<path d="M4.40779 292.658H1.60933V284.409H4.40779C7.32845 284.409 8.86822 285.692 8.86822 288.527C8.86822 291.387 7.30401 292.658 4.40779 292.658ZM2.86803 285.521V291.546H4.40779C6.49747 291.546 7.60952 290.605 7.60952 288.527C7.60952 286.425 6.44859 285.521 4.40779 285.521H2.86803ZM17.6031 292.658H16.2589L15.5501 290.751H11.7984L11.0896 292.658H9.74541L12.886 284.409H14.4625L17.6031 292.658ZM13.6804 285.68L12.1895 289.688H15.159L13.6804 285.68ZM17.2662 284.409H24.1462V285.521H21.3355V292.658H20.0769V285.521H17.2662V284.409ZM31.6683 284.409V285.521H27.2201V287.953H31.3017V289.053H27.2201V291.546H31.6683V292.658H25.9614V284.409H31.6683ZM34.7994 288.381H33.5896V286.658H34.7994V288.381ZM34.7994 292.658H33.5896V290.922H34.7994V292.658Z" fill="#614F41"/>
<rect x="1.19336" y="337.629" width="196.984" height="264.469" fill="#F1EBE5"/>
<path d="M99.7046 465.276C95.9096 465.276 92.8332 468.353 92.8332 472.148C92.8332 475.943 95.9096 479.019 99.7046 479.019C103.5 479.019 106.576 475.943 106.576 472.148C106.576 468.353 103.5 465.276 99.7046 465.276ZM118.029 458.405H112.531C111.723 458.368 111.013 457.855 110.724 457.099L109.302 452.837C109.011 452.081 108.301 451.57 107.492 451.533H91.9169C91.1611 451.533 90.3457 452.12 90.1097 452.834L88.6851 457.099C88.3956 457.855 87.6862 458.367 86.8779 458.405H81.3808C78.8612 458.405 76.7998 460.466 76.7998 462.986V483.6C76.7998 486.12 78.8612 488.181 81.3808 488.181H118.029C120.548 488.181 122.609 486.12 122.609 483.6V462.986C122.609 460.466 120.548 458.405 118.029 458.405ZM99.7046 483.6C93.3783 483.6 88.2522 478.474 88.2522 472.148C88.2522 465.823 93.3796 460.695 99.7046 460.695C106.029 460.695 111.157 465.823 111.157 472.148C111.157 478.473 106.029 483.6 99.7046 483.6ZM116.883 465.734C115.998 465.734 115.28 465.017 115.28 464.131C115.28 463.245 115.998 462.528 116.883 462.528C117.769 462.528 118.486 463.245 118.486 464.131C118.486 465.017 117.769 465.734 116.883 465.734Z" stroke="#A0907F" stroke-width="1.83305"/>
<path d="M0.753906 639.751H198.04" stroke="#614F41" stroke-width="1.52754"/>
<path d="M4.40779 629.984H1.60933V621.736H4.40779C7.32845 621.736 8.86822 623.019 8.86822 625.854C8.86822 628.713 7.30401 629.984 4.40779 629.984ZM2.86803 622.848V628.872H4.40779C6.49747 628.872 7.60952 627.931 7.60952 625.854C7.60952 623.752 6.44859 622.848 4.40779 622.848H2.86803ZM17.6031 629.984H16.2589L15.5501 628.078H11.7984L11.0896 629.984H9.74541L12.886 621.736H14.4625L17.6031 629.984ZM13.6804 623.007L12.1895 627.015H15.159L13.6804 623.007ZM17.2662 621.736H24.1462V622.848H21.3355V629.984H20.0769V622.848H17.2662V621.736ZM31.6683 621.736V622.848H27.2201V625.28H31.3017V626.379H27.2201V628.872H31.6683V629.984H25.9614V621.736H31.6683ZM34.7994 625.707H33.5896V623.984H34.7994V625.707ZM34.7994 629.984H33.5896V628.249H34.7994V629.984Z" fill="#614F41"/>
</svg>
