<svg width="397" height="641" viewBox="0 0 397 641" fill="none" xmlns="http://www.w3.org/2000/svg">
<rect x="0.933594" y="0.458496" width="167.969" height="167.969" fill="#F8F8F8"/>
<path d="M84.4948 80.6969C81.2648 80.6969 78.6464 83.3155 78.6464 86.5456C78.6464 89.7754 81.2648 92.394 84.4948 92.394C87.7249 92.394 90.3433 89.7754 90.3433 86.5456C90.3433 83.3155 87.7249 80.6969 84.4948 80.6969ZM100.091 74.8484H95.412C94.724 74.8171 94.1198 74.3807 93.874 73.7372L92.6632 70.1094C92.4154 69.4666 91.8113 69.0312 91.1233 69H77.8665C77.2233 69 76.5293 69.4993 76.3284 70.1074L75.1158 73.7372C74.8694 74.3803 74.2657 74.8168 73.5777 74.8484H68.899C66.7545 74.8484 65 76.6032 65 78.7476V96.293C65 98.4373 66.7545 100.192 68.899 100.192H100.091C102.235 100.192 103.99 98.4373 103.99 96.293V78.7476C103.99 76.6032 102.235 74.8484 100.091 74.8484ZM84.4948 96.293C79.1104 96.293 74.7474 91.9299 74.7474 86.5456C74.7474 81.162 79.1115 76.798 84.4948 76.798C89.8781 76.798 94.2424 81.162 94.2424 86.5456C94.2424 91.9288 89.8781 96.293 84.4948 96.293ZM99.1161 81.0871C98.3623 81.0871 97.7515 80.4761 97.7515 79.7223C97.7515 78.9686 98.3623 78.3578 99.1161 78.3578C99.8698 78.3578 100.481 78.9686 100.481 79.7223C100.481 80.4761 99.8698 81.0871 99.1161 81.0871Z" stroke="#9A9A9A" stroke-width="1.55959"/>
<path d="M0.880859 191.507H168.796" stroke="#333333" stroke-width="1.29966"/>
<path d="M3.98964 183.832H1.60867V176.814H3.98964C6.47458 176.814 7.78464 177.906 7.78464 180.318C7.78464 182.751 6.45379 183.832 3.98964 183.832ZM2.67958 177.76V182.886H3.98964C5.76757 182.886 6.71372 182.085 6.71372 180.318C6.71372 178.529 5.72598 177.76 3.98964 177.76H2.67958ZM15.2164 183.832H14.0727L13.4697 182.21H10.2777L9.67466 183.832H8.53096L11.2031 176.814H12.5443L15.2164 183.832ZM11.8789 177.895L10.6104 181.305H13.1369L11.8789 177.895ZM14.9297 176.814H20.7834V177.76H18.392V183.832H17.3211V177.76H14.9297V176.814ZM27.1833 176.814V177.76H23.3987V179.829H26.8714V180.765H23.3987V182.886H27.1833V183.832H22.3278V176.814H27.1833ZM29.8473 180.193H28.818V178.727H29.8473V180.193ZM29.8473 183.832H28.818V182.356H29.8473V183.832Z" fill="#333333"/>
<rect x="0.933594" y="224.507" width="167.969" height="167.969" fill="#F8F8F8"/>
<path d="M85.0984 304.513C81.8683 304.513 79.2499 307.132 79.2499 310.362C79.2499 313.592 81.8683 316.21 85.0984 316.21C88.3284 316.21 90.9468 313.592 90.9468 310.362C90.9468 307.132 88.3284 304.513 85.0984 304.513ZM100.694 298.665H96.0155C95.3275 298.633 94.7233 298.197 94.4775 297.554L93.2667 293.926C93.0189 293.283 92.4148 292.848 91.7268 292.816H78.4701C77.8268 292.816 77.1328 293.316 76.9319 293.924L75.7194 297.554C75.473 298.197 74.8692 298.633 74.1813 298.665H69.5025C67.358 298.665 65.6035 300.42 65.6035 302.564V320.109C65.6035 322.254 67.358 324.008 69.5025 324.008H100.694C102.839 324.008 104.593 322.254 104.593 320.109V302.564C104.593 300.42 102.839 298.665 100.694 298.665ZM85.0984 320.109C79.7139 320.109 75.3509 315.746 75.3509 310.362C75.3509 304.978 79.715 300.614 85.0984 300.614C90.4816 300.614 94.8459 304.978 94.8459 310.362C94.8459 315.745 90.4816 320.109 85.0984 320.109ZM99.7196 304.903C98.9658 304.903 98.355 304.293 98.355 303.539C98.355 302.785 98.9658 302.174 99.7196 302.174C100.473 302.174 101.084 302.785 101.084 303.539C101.084 304.293 100.473 304.903 99.7196 304.903Z" stroke="#9A9A9A" stroke-width="1.55959"/>
<path d="M0.880859 415.503H168.796" stroke="#333333" stroke-width="1.29966"/>
<path d="M3.98964 407.828H1.60867V400.81H3.98964C6.47458 400.81 7.78464 401.902 7.78464 404.314C7.78464 406.747 6.45379 407.828 3.98964 407.828ZM2.67958 401.756V406.882H3.98964C5.76757 406.882 6.71372 406.081 6.71372 404.314C6.71372 402.526 5.72598 401.756 3.98964 401.756H2.67958ZM15.2164 407.828H14.0727L13.4697 406.206H10.2777L9.67466 407.828H8.53096L11.2031 400.81H12.5443L15.2164 407.828ZM11.8789 401.891L10.6104 405.302H13.1369L11.8789 401.891ZM14.9297 400.81H20.7834V401.756H18.392V407.828H17.3211V401.756H14.9297V400.81ZM27.1833 400.81V401.756H23.3987V403.825H26.8714V404.761H23.3987V406.882H27.1833V407.828H22.3278V400.81H27.1833ZM29.8473 404.189H28.818V402.723H29.8473V404.189ZM29.8473 407.828H28.818V406.352H29.8473V407.828Z" fill="#333333"/>
<rect x="0.933594" y="448.504" width="167.969" height="167.969" fill="#F8F8F8"/>
<path d="M85.0993 528.716C81.8693 528.716 79.2509 531.335 79.2509 534.565C79.2509 537.795 81.8693 540.414 85.0993 540.414C88.3294 540.414 90.9478 537.795 90.9478 534.565C90.9478 531.335 88.3294 528.716 85.0993 528.716ZM100.695 522.868H96.0164C95.3285 522.837 94.7243 522.4 94.4785 521.757L93.2677 518.129C93.0199 517.486 92.4158 517.051 91.7278 517.02H78.471C77.8277 517.02 77.1338 517.519 76.9329 518.127L75.7203 521.757C75.4739 522.4 74.8702 522.836 74.1822 522.868H69.5035C67.359 522.868 65.6045 524.623 65.6045 526.767V544.313C65.6045 546.457 67.359 548.211 69.5035 548.211H100.695C102.84 548.211 104.594 546.457 104.594 544.313V526.767C104.594 524.623 102.84 522.868 100.695 522.868ZM85.0993 544.313C79.7148 544.313 75.3519 539.949 75.3519 534.565C75.3519 529.182 79.716 524.818 85.0993 524.818C90.4826 524.818 94.8469 529.182 94.8469 534.565C94.8469 539.948 90.4826 544.313 85.0993 544.313ZM99.7205 529.107C98.9668 529.107 98.356 528.496 98.356 527.742C98.356 526.988 98.9668 526.377 99.7205 526.377C100.474 526.377 101.085 526.988 101.085 527.742C101.085 528.496 100.474 529.107 99.7205 529.107Z" stroke="#9A9A9A" stroke-width="1.55959"/>
<path d="M0.880859 639.446H168.796" stroke="#333333" stroke-width="1.29966"/>
<path d="M3.98964 631.771H1.60867V624.753H3.98964C6.47458 624.753 7.78464 625.845 7.78464 628.257C7.78464 630.69 6.45379 631.771 3.98964 631.771ZM2.67958 625.699V630.825H3.98964C5.76757 630.825 6.71372 630.024 6.71372 628.257C6.71372 626.468 5.72598 625.699 3.98964 625.699H2.67958ZM15.2164 631.771H14.0727L13.4697 630.149H10.2777L9.67466 631.771H8.53096L11.2031 624.753H12.5443L15.2164 631.771ZM11.8789 625.834L10.6104 629.244H13.1369L11.8789 625.834ZM14.9297 624.753H20.7834V625.699H18.392V631.771H17.3211V625.699H14.9297V624.753ZM27.1833 624.753V625.699H23.3987V627.768H26.8714V628.704H23.3987V630.825H27.1833V631.771H22.3278V624.753H27.1833ZM29.8473 628.132H28.818V626.666H29.8473V628.132ZM29.8473 631.771H28.818V630.295H29.8473V631.771Z" fill="#333333"/>
<rect x="229.007" y="0.458496" width="167.969" height="167.969" fill="#F8F8F8"/>
<path d="M313.119 80.5177C309.889 80.5177 307.27 83.1363 307.27 86.3664C307.27 89.5963 309.889 92.2148 313.119 92.2148C316.349 92.2148 318.967 89.5963 318.967 86.3664C318.967 83.1363 316.349 80.5177 313.119 80.5177ZM328.715 74.6692H324.036C323.348 74.6379 322.744 74.2015 322.498 73.558L321.287 69.9302C321.039 69.2874 320.435 68.852 319.747 68.8208H306.491C305.847 68.8208 305.153 69.3201 304.952 69.9282L303.74 73.558C303.493 74.2011 302.89 74.6376 302.202 74.6692H297.523C295.379 74.6692 293.624 76.424 293.624 78.5684V96.1138C293.624 98.2581 295.379 100.013 297.523 100.013H328.715C330.859 100.013 332.614 98.2581 332.614 96.1138V78.5684C332.614 76.424 330.859 74.6692 328.715 74.6692ZM313.119 96.1138C307.734 96.1138 303.371 91.7507 303.371 86.3664C303.371 80.9828 307.735 76.6188 313.119 76.6188C318.502 76.6188 322.866 80.9828 322.866 86.3664C322.866 91.7496 318.502 96.1138 313.119 96.1138ZM327.74 80.9079C326.986 80.9079 326.375 80.2969 326.375 79.5431C326.375 78.7894 326.986 78.1786 327.74 78.1786C328.494 78.1786 329.105 78.7894 329.105 79.5431C329.105 80.2969 328.494 80.9079 327.74 80.9079Z" stroke="#9A9A9A" stroke-width="1.55959"/>
<path d="M228.902 191.507H396.818" stroke="#333333" stroke-width="1.29966"/>
<path d="M232.011 183.832H229.63V176.814H232.011C234.496 176.814 235.806 177.906 235.806 180.318C235.806 182.751 234.475 183.832 232.011 183.832ZM230.701 177.76V182.886H232.011C233.789 182.886 234.735 182.085 234.735 180.318C234.735 178.529 233.747 177.76 232.011 177.76H230.701ZM243.238 183.832H242.094L241.491 182.21H238.299L237.696 183.832H236.552L239.225 176.814H240.566L243.238 183.832ZM239.9 177.895L238.632 181.305H241.158L239.9 177.895ZM242.951 176.814H248.805V177.76H246.414V183.832H245.343V177.76H242.951V176.814ZM255.205 176.814V177.76H251.42V179.829H254.893V180.765H251.42V182.886H255.205V183.832H250.349V176.814H255.205ZM257.869 180.193H256.839V178.727H257.869V180.193ZM257.869 183.832H256.839V182.356H257.869V183.832Z" fill="#333333"/>
<rect x="229.007" y="224.507" width="167.969" height="167.969" fill="#F8F8F8"/>
<path d="M313.119 304.513C309.889 304.513 307.27 307.132 307.27 310.362C307.27 313.592 309.889 316.21 313.119 316.21C316.349 316.21 318.967 313.592 318.967 310.362C318.967 307.132 316.349 304.513 313.119 304.513ZM328.715 298.665H324.036C323.348 298.633 322.744 298.197 322.498 297.554L321.287 293.926C321.039 293.283 320.435 292.848 319.747 292.816H306.491C305.847 292.816 305.153 293.316 304.952 293.924L303.74 297.554C303.493 298.197 302.89 298.633 302.202 298.665H297.523C295.379 298.665 293.624 300.42 293.624 302.564V320.109C293.624 322.254 295.379 324.008 297.523 324.008H328.715C330.859 324.008 332.614 322.254 332.614 320.109V302.564C332.614 300.42 330.859 298.665 328.715 298.665ZM313.119 320.109C307.734 320.109 303.371 315.746 303.371 310.362C303.371 304.978 307.735 300.614 313.119 300.614C318.502 300.614 322.866 304.978 322.866 310.362C322.866 315.745 318.502 320.109 313.119 320.109ZM327.74 304.903C326.986 304.903 326.375 304.293 326.375 303.539C326.375 302.785 326.986 302.174 327.74 302.174C328.494 302.174 329.105 302.785 329.105 303.539C329.105 304.293 328.494 304.903 327.74 304.903Z" stroke="#9A9A9A" stroke-width="1.55959"/>
<path d="M228.902 415.504H396.818" stroke="#333333" stroke-width="1.29966"/>
<path d="M232.011 407.829H229.63V400.811H232.011C234.496 400.811 235.806 401.903 235.806 404.315C235.806 406.748 234.475 407.829 232.011 407.829ZM230.701 401.757V406.883H232.011C233.789 406.883 234.735 406.082 234.735 404.315C234.735 402.527 233.747 401.757 232.011 401.757H230.701ZM243.238 407.829H242.094L241.491 406.207H238.299L237.696 407.829H236.552L239.225 400.811H240.566L243.238 407.829ZM239.9 401.892L238.632 405.303H241.158L239.9 401.892ZM242.951 400.811H248.805V401.757H246.414V407.829H245.343V401.757H242.951V400.811ZM255.205 400.811V401.757H251.42V403.826H254.893V404.762H251.42V406.883H255.205V407.829H250.349V400.811H255.205ZM257.869 404.19H256.839V402.724H257.869V404.19ZM257.869 407.829H256.839V406.353H257.869V407.829Z" fill="#333333"/>
<rect x="229.007" y="448.505" width="167.969" height="167.969" fill="#F8F8F8"/>
<path d="M313.119 528.717C309.889 528.717 307.27 531.336 307.27 534.566C307.27 537.796 309.889 540.414 313.119 540.414C316.349 540.414 318.967 537.796 318.967 534.566C318.967 531.336 316.349 528.717 313.119 528.717ZM328.715 522.869H324.036C323.348 522.838 322.744 522.401 322.498 521.758L321.287 518.13C321.039 517.487 320.435 517.052 319.747 517.021H306.491C305.847 517.021 305.153 517.52 304.952 518.128L303.74 521.758C303.493 522.401 302.89 522.837 302.202 522.869H297.523C295.379 522.869 293.624 524.624 293.624 526.768V544.313C293.624 546.458 295.379 548.212 297.523 548.212H328.715C330.859 548.212 332.614 546.458 332.614 544.313V526.768C332.614 524.624 330.859 522.869 328.715 522.869ZM313.119 544.313C307.734 544.313 303.371 539.95 303.371 534.566C303.371 529.183 307.735 524.819 313.119 524.819C318.502 524.819 322.866 529.183 322.866 534.566C322.866 539.949 318.502 544.313 313.119 544.313ZM327.74 529.108C326.986 529.108 326.375 528.497 326.375 527.743C326.375 526.989 326.986 526.378 327.74 526.378C328.494 526.378 329.105 526.989 329.105 527.743C329.105 528.497 328.494 529.108 327.74 529.108Z" stroke="#9A9A9A" stroke-width="1.55959"/>
<path d="M228.902 639.447H396.818" stroke="#333333" stroke-width="1.29966"/>
<path d="M232.011 631.772H229.63V624.754H232.011C234.496 624.754 235.806 625.846 235.806 628.258C235.806 630.691 234.475 631.772 232.011 631.772ZM230.701 625.7V630.826H232.011C233.789 630.826 234.735 630.025 234.735 628.258C234.735 626.469 233.747 625.7 232.011 625.7H230.701ZM243.238 631.772H242.094L241.491 630.15H238.299L237.696 631.772H236.552L239.225 624.754H240.566L243.238 631.772ZM239.9 625.835L238.632 629.245H241.158L239.9 625.835ZM242.951 624.754H248.805V625.7H246.414V631.772H245.343V625.7H242.951V624.754ZM255.205 624.754V625.7H251.42V627.769H254.893V628.705H251.42V630.826H255.205V631.772H250.349V624.754H255.205ZM257.869 628.133H256.839V626.667H257.869V628.133ZM257.869 631.772H256.839V630.296H257.869V631.772Z" fill="#333333"/>
</svg>
