<svg width="564" height="517" viewBox="0 0 564 517" fill="none" xmlns="http://www.w3.org/2000/svg">
<path d="M18 116H556" stroke="#A0907F" stroke-width="0.58"/>
<path d="M18 216H556" stroke="#A0907F" stroke-width="0.58"/>
<path d="M18 316H556" stroke="#A0907F" stroke-width="0.58"/>
<path d="M18 417H556" stroke="#A0907F" stroke-width="0.58"/>
<path d="M94 517L94 16" stroke="#A0907F" stroke-width="0.58"/>
<path d="M171 517L171 16" stroke="#A0907F" stroke-width="0.58"/>
<path d="M248 517L248 16" stroke="#A0907F" stroke-width="0.58"/>
<path d="M325 517L325 16" stroke="#A0907F" stroke-width="0.58"/>
<path d="M402 517L402 16" stroke="#A0907F" stroke-width="0.58"/>
<path d="M479 517L479 16" stroke="#A0907F" stroke-width="0.58"/>
<path d="M18 16H556" stroke="#614F41"/>
<path d="M50.2559 5.96419L51.5918 2.19585H52.9586V7.4082H52.1632V2.62828L50.5338 7.4082H49.9701L48.3408 2.62828V7.4082H47.5454V2.19585H48.9122L50.2559 5.96419ZM56.8261 7.50087C55.2817 7.50087 54.1929 6.40434 54.1929 4.79816C54.1929 3.19971 55.2817 2.09546 56.8261 2.09546C58.3705 2.09546 59.4593 3.19971 59.4593 4.79816C59.4593 6.40434 58.3705 7.50087 56.8261 7.50087ZM56.8261 6.76728C57.9072 6.76728 58.6639 5.97963 58.6639 4.79816C58.6639 3.62442 57.9072 2.82905 56.8261 2.82905C55.745 2.82905 54.9882 3.62442 54.9882 4.79816C54.9882 5.97963 55.745 6.76728 56.8261 6.76728ZM64.3143 6.32712V2.19585H65.1096V7.4082H64.1366L61.4803 3.25376V7.4082H60.6849V2.19585H61.6502L64.3143 6.32712Z" fill="#614F41"/>
<path d="M123.623 2.19585H127.971V2.89855H126.195V7.4082H125.399V2.89855H123.623V2.19585ZM131.006 7.50087C129.801 7.50087 128.913 6.8445 128.913 5.59353V2.19585H129.708V5.49315C129.708 6.31168 130.218 6.775 131.006 6.775C131.793 6.775 132.303 6.31168 132.303 5.49315V2.19585H133.098V5.59353C133.098 6.8445 132.21 7.50087 131.006 7.50087ZM138.102 2.19585V2.89855H135.291V4.43523H137.871V5.13021H135.291V6.7055H138.102V7.4082H134.496V2.19585H138.102Z" fill="#614F41"/>
<path d="M205.628 6.64372L206.84 2.19585H207.666L206.238 7.4082H205.087L204.091 3.41592L203.095 7.4082H201.944L200.516 2.19585H201.342L202.546 6.62828L203.651 2.19585H204.523L205.628 6.64372ZM212.322 2.19585V2.89855H209.511V4.43523H212.091V5.13021H209.511V6.7055H212.322V7.4082H208.716V2.19585H212.322ZM215.312 7.4082H213.544V2.19585H215.312C217.158 2.19585 218.131 3.00666 218.131 4.79816C218.131 6.60511 217.142 7.4082 215.312 7.4082ZM214.339 2.89855V6.7055H215.312C216.633 6.7055 217.335 6.11091 217.335 4.79816C217.335 3.46998 216.602 2.89855 215.312 2.89855H214.339Z" fill="#614F41"/>
<path d="M279.5 2.19585H283.848V2.89855H282.072V7.4082H281.277V2.89855H279.5V2.19585ZM285.64 7.4082H284.844V2.19585H285.64V4.42751H288.242V2.19585H289.037V7.4082H288.242V5.13021H285.64V7.4082ZM292.533 7.50087C291.328 7.50087 290.44 6.8445 290.44 5.59353V2.19585H291.235V5.49315C291.235 6.31168 291.745 6.775 292.533 6.775C293.32 6.775 293.83 6.31168 293.83 5.49315V2.19585H294.625V5.59353C294.625 6.8445 293.737 7.50087 292.533 7.50087Z" fill="#614F41"/>
<path d="M363.585 2.19585V2.89855H360.775V4.43523H363.307V5.13021H360.775V7.4082H359.979V2.19585H363.585ZM368.779 7.4082H367.891L366.594 5.25376H365.474V7.4082H364.679V2.19585H366.934C368.046 2.19585 368.741 2.62056 368.741 3.72481C368.741 4.65145 368.254 5.09932 367.443 5.21515L368.779 7.4082ZM366.903 2.89855H365.474V4.55106H366.903C367.582 4.55106 367.945 4.34257 367.945 3.72481C367.945 3.10704 367.567 2.89855 366.903 2.89855ZM370.777 7.4082H369.982V2.19585H370.777V7.4082Z" fill="#614F41"/>
<path d="M439.153 7.50087C437.971 7.50087 437.207 6.92172 437.052 5.91013L437.817 5.72481C437.932 6.41979 438.442 6.82905 439.199 6.82905C439.863 6.82905 440.249 6.50473 440.249 6.0028C440.249 5.40048 439.639 5.26921 438.967 5.09932C438.156 4.88311 437.237 4.62828 437.237 3.57037C437.237 2.69778 437.963 2.09546 439.083 2.09546C440.025 2.09546 440.828 2.52017 441.037 3.56264L440.319 3.74797C440.172 3.04527 439.701 2.75955 439.083 2.75955C438.427 2.75955 438.025 3.06843 438.025 3.5472C438.025 4.09546 438.581 4.22674 439.276 4.39662C440.095 4.59739 441.044 4.89083 441.044 5.91786C441.044 6.89855 440.38 7.50087 439.153 7.50087ZM446.803 7.4082H445.954L445.506 6.20357H443.135L442.687 7.4082H441.838L443.823 2.19585H444.819L446.803 7.4082ZM444.325 2.99894L443.382 5.53176H445.259L444.325 2.99894ZM446.59 2.19585H450.938V2.89855H449.162V7.4082H448.366V2.89855H446.59V2.19585Z" fill="#614F41"/>
<path d="M516.668 7.50087C515.487 7.50087 514.722 6.92172 514.568 5.91013L515.332 5.72481C515.448 6.41979 515.958 6.82905 516.715 6.82905C517.379 6.82905 517.765 6.50473 517.765 6.0028C517.765 5.40048 517.155 5.26921 516.483 5.09932C515.672 4.88311 514.753 4.62828 514.753 3.57037C514.753 2.69778 515.479 2.09546 516.599 2.09546C517.541 2.09546 518.344 2.52017 518.552 3.56264L517.834 3.74797C517.688 3.04527 517.217 2.75955 516.599 2.75955C515.942 2.75955 515.541 3.06843 515.541 3.5472C515.541 4.09546 516.097 4.22674 516.792 4.39662C517.61 4.59739 518.56 4.89083 518.56 5.91786C518.56 6.89855 517.896 7.50087 516.668 7.50087ZM521.871 7.50087C520.666 7.50087 519.778 6.8445 519.778 5.59353V2.19585H520.573V5.49315C520.573 6.31168 521.083 6.775 521.871 6.775C522.658 6.775 523.168 6.31168 523.168 5.49315V2.19585H523.963V5.59353C523.963 6.8445 523.075 7.50087 521.871 7.50087ZM528.99 6.32712V2.19585H529.786V7.4082H528.813L526.156 3.25376V7.4082H525.361V2.19585H526.326L528.99 6.32712Z" fill="#614F41"/>
<path d="M8.51756 68.2275L9.72991 63.7796H10.5562L9.1276 68.9919H7.97702L6.98088 64.9997L5.98474 68.9919H4.83416L3.40559 63.7796H4.23184L5.43648 68.212L6.54073 63.7796H7.41331L8.51756 68.2275ZM13.2354 64.2506V63.7796H13.9999V68.9919H13.2354V65.1618H11.9922V64.5209H12.9651C13.135 64.5209 13.2354 64.4205 13.2354 64.2506Z" fill="#A0907F"/>
<rect y="16" width="17" height="100" fill="#F1EBE5"/>
<rect y="116" width="17" height="100" fill="#F1EBE5"/>
<rect y="216" width="17" height="100" fill="#F1EBE5"/>
<rect y="316" width="17" height="100" fill="#F1EBE5"/>
<rect y="416" width="17" height="101" fill="#F1EBE5"/>
<path d="M8.51756 169.193L9.72991 164.745H10.5562L9.1276 169.957H7.97702L6.98088 165.965L5.98474 169.957H4.83416L3.40559 164.745H4.23184L5.43648 169.177L6.54073 164.745H7.41331L8.51756 169.193ZM14.162 167.579L12.5095 169.27H15.0037V169.957H11.4748V169.293L13.5906 167.146C13.9458 166.784 14.1312 166.49 14.1312 166.127C14.1312 165.633 13.7914 165.332 13.2354 165.332C12.5868 165.332 12.2161 165.679 12.2161 166.336C12.2161 166.467 12.2315 166.598 12.2624 166.745L11.5211 166.845C11.4902 166.645 11.4671 166.467 11.4671 166.297C11.4671 165.262 12.1234 164.645 13.2045 164.645C14.2007 164.645 14.8879 165.208 14.8879 166.104C14.8879 166.614 14.7026 167.031 14.162 167.579Z" fill="#A0907F"/>
<path d="M8.51756 68.2275L9.72991 63.7796H10.5562L9.1276 68.9919H7.97702L6.98088 64.9997L5.98474 68.9919H4.83416L3.40559 63.7796H4.23184L5.43648 68.212L6.54073 63.7796H7.41331L8.51756 68.2275ZM13.2354 64.2506V63.7796H13.9999V68.9919H13.2354V65.1618H11.9922V64.5209H12.9651C13.135 64.5209 13.2354 64.4205 13.2354 64.2506Z" fill="#A0907F"/>
<path d="M8.51756 269L9.72991 264.552H10.5562L9.1276 269.764H7.97702L6.98088 265.772L5.98474 269.764H4.83416L3.40559 264.552H4.23184L5.43648 268.984L6.54073 264.552H7.41331L8.51756 269ZM13.2586 269.857C12.0848 269.857 11.3976 269.216 11.3976 268.127H12.1775C12.1852 268.783 12.5868 269.17 13.2431 269.17C13.8377 269.17 14.247 268.807 14.247 268.258C14.247 267.695 13.8532 267.332 13.1659 267.332H12.9574V266.699H13.1041C13.6601 266.699 14.0076 266.374 14.0076 265.888C14.0076 265.432 13.6833 265.131 13.1968 265.131C12.6794 265.131 12.3165 265.478 12.3165 266.027C12.3165 266.104 12.3242 266.189 12.3397 266.274L11.5829 266.312C11.5597 266.197 11.552 266.088 11.552 265.988C11.552 265.069 12.2084 264.451 13.2045 264.451C14.1466 264.451 14.7489 265.046 14.7489 265.803C14.7489 266.397 14.3783 266.791 13.9922 266.938C14.5559 267.069 15.0269 267.502 15.0269 268.258C15.0269 269.193 14.3165 269.857 13.2586 269.857Z" fill="#A0907F"/>
<path d="M8.51756 368.807L9.72991 364.359H10.5562L9.1276 369.571H7.97702L6.98088 365.579L5.98474 369.571H4.83416L3.40559 364.359H4.23184L5.43648 368.791L6.54073 364.359H7.41331L8.51756 368.807ZM14.5713 367.78H15.1659V368.459H14.5713V369.571H13.8068V368.459H11.2663V367.772L13.5443 364.359H14.5713V367.78ZM13.8068 365.046L12.0385 367.78H13.8068V365.046Z" fill="#A0907F"/>
<path d="M8.51756 468.614L9.72991 464.166H10.5562L9.1276 469.378H7.97702L6.98088 465.386L5.98474 469.378H4.83416L3.40559 464.166H4.23184L5.43648 468.598L6.54073 464.166H7.41331L8.51756 468.614ZM12.4169 466.058H13.2045C14.3242 466.058 15.0346 466.575 15.0346 467.672C15.0346 468.768 14.3242 469.471 13.2508 469.471C12.1389 469.471 11.4285 468.83 11.4285 467.787V467.579H12.1852V467.726C12.1852 468.39 12.5713 468.784 13.2663 468.784C13.8918 468.784 14.2702 468.343 14.2702 467.718C14.2702 466.899 13.6138 466.691 12.9651 466.691H11.6061L11.8609 464.166H14.803V464.845H12.5481L12.4169 466.058Z" fill="#A0907F"/>
<rect x="77" y="19.1345" width="14.8841" height="14.6193" rx="2.89575" fill="#F1EBE5"/>
<rect x="77" y="119.446" width="14.8841" height="14.6193" rx="2.89575" fill="#F1EBE5"/>
<rect x="77" y="219.758" width="14.8841" height="14.6193" rx="2.89575" fill="#F1EBE5"/>
<rect x="77" y="320.069" width="14.8841" height="14.6193" rx="2.89575" fill="#F1EBE5"/>
<rect x="77" y="420.381" width="14.8841" height="14.6193" rx="2.89575" fill="#F1EBE5"/>
<rect x="153.884" y="19.1345" width="14.8841" height="14.6193" rx="2.89575" fill="#F1EBE5"/>
<rect x="153.884" y="119.446" width="14.8841" height="14.6193" rx="2.89575" fill="#F1EBE5"/>
<rect x="153.884" y="219.758" width="14.8841" height="14.6193" rx="2.89575" fill="#F1EBE5"/>
<rect x="153.884" y="320.069" width="14.8841" height="14.6193" rx="2.89575" fill="#F1EBE5"/>
<rect x="153.884" y="420.381" width="14.8841" height="14.6193" rx="2.89575" fill="#F1EBE5"/>
<rect x="230.768" y="19.1345" width="14.8841" height="14.6193" rx="2.89575" fill="#F1EBE5"/>
<rect x="230.768" y="119.254" width="14.8841" height="14.6193" rx="2.89575" fill="#F1EBE5"/>
<rect x="230.768" y="219.373" width="14.8841" height="14.6193" rx="2.89575" fill="#F1EBE5"/>
<rect x="230.768" y="319.493" width="14.8841" height="14.6193" rx="2.89575" fill="#F1EBE5"/>
<rect x="230.768" y="419.612" width="14.8841" height="14.6193" rx="2.89575" fill="#F1EBE5"/>
<rect x="307.651" y="19.1345" width="14.8841" height="14.6193" rx="2.89575" fill="#F1EBE5"/>
<rect x="307.651" y="119.446" width="14.8841" height="14.6193" rx="2.89575" fill="#F1EBE5"/>
<rect x="307.651" y="219.758" width="14.8841" height="14.6193" rx="2.89575" fill="#F1EBE5"/>
<rect x="307.651" y="320.069" width="14.8841" height="14.6193" rx="2.89575" fill="#F1EBE5"/>
<rect x="307.651" y="420.381" width="14.8841" height="14.6193" rx="2.89575" fill="#F1EBE5"/>
<rect x="384.535" y="19.1345" width="14.8841" height="14.6193" rx="2.89575" fill="#F1EBE5"/>
<rect x="384.535" y="119.446" width="14.8841" height="14.6193" rx="2.89575" fill="#F1EBE5"/>
<rect x="384.535" y="219.758" width="14.8841" height="14.6193" rx="2.89575" fill="#F1EBE5"/>
<rect x="384.535" y="320.069" width="14.8841" height="14.6193" rx="2.89575" fill="#F1EBE5"/>
<rect x="384.535" y="420.381" width="14.8841" height="14.6193" rx="2.89575" fill="#F1EBE5"/>
<rect x="461.419" y="19.1345" width="14.8841" height="14.6193" rx="2.89575" fill="#F1EBE5"/>
<rect x="461.419" y="119.446" width="14.8841" height="14.6193" rx="2.89575" fill="#F1EBE5"/>
<rect x="461.419" y="219.758" width="14.8841" height="14.6193" rx="2.89575" fill="#F1EBE5"/>
<rect x="461.419" y="320.069" width="14.8841" height="14.6193" rx="2.89575" fill="#F1EBE5"/>
<rect x="461.419" y="420.381" width="14.8841" height="14.6193" rx="2.89575" fill="#F1EBE5"/>
<rect x="538.303" y="19.1345" width="14.8841" height="14.6193" rx="2.89575" fill="#F1EBE5"/>
<rect x="538.303" y="119.446" width="14.8841" height="14.6193" rx="2.89575" fill="#F1EBE5"/>
<rect x="538.303" y="219.758" width="14.8841" height="14.6193" rx="2.89575" fill="#F1EBE5"/>
<rect x="538.303" y="320.069" width="14.8841" height="14.6193" rx="2.89575" fill="#F1EBE5"/>
<rect x="538.303" y="420.381" width="14.8841" height="14.6193" rx="2.89575" fill="#F1EBE5"/>
</svg>
