<svg width="555" height="428" viewBox="0 0 555 428" fill="none" xmlns="http://www.w3.org/2000/svg">
    <mask id="path-1-inside-1_518_3905" fill="white">
        <path d="M0 0H554.915V98H0V0Z" />
    </mask>
    <path d="M0 0H554.915V98H0V0Z" fill="#F8F8F8" />
    <path d="M0 0.965251H554.915V-0.965251H0V0.965251Z" fill="#333333" mask="url(#path-1-inside-1_518_3905)" />
    <path
        d="M198.049 23.3311V23.2152C198.234 23.2036 198.396 23.0994 198.396 22.6361V15.9179C198.396 15.4546 198.234 15.3504 198.049 15.3388V15.2229H199.786V15.3388C199.601 15.3504 199.439 15.4546 199.439 15.9179V22.6361C199.439 23.0994 199.601 23.2036 199.786 23.2152V23.3311H198.049ZM200.947 23.3311V23.2152C201.132 23.2036 201.294 23.0994 201.294 22.6361V18.2345C201.294 17.7712 201.132 17.667 200.947 17.6554V17.5395H202.337V19.4044C202.65 18.3504 203.31 17.4237 204.364 17.4237C205.29 17.4237 205.928 18.1534 205.928 19.2423V22.6361C205.928 23.0994 206.09 23.2036 206.275 23.2152V23.3311H204.538V23.2152C204.723 23.2036 204.885 23.0994 204.885 22.6361V19.2423C204.885 18.4662 204.503 17.9218 203.935 17.9218C202.928 17.9218 202.337 19.6708 202.337 20.9565V22.6361C202.337 23.0994 202.499 23.2036 202.684 23.2152V23.3311H200.947ZM211.705 21.8021C211.705 22.6824 210.813 23.4469 209.516 23.4469C208.797 23.4469 208.068 23.2152 207.5 22.7403V21.582H207.639C208.045 22.5318 208.647 23.2152 209.516 23.2152C210.199 23.2152 210.685 22.7867 210.685 22.2538C210.685 20.8755 207.489 20.7596 207.489 19.0338C207.489 18.165 208.311 17.4237 209.643 17.4237C210.199 17.4237 210.917 17.5511 211.473 18.0145V19.1728H211.334C210.94 18.2229 210.373 17.6554 209.62 17.6554C208.983 17.6554 208.508 18.0608 208.508 18.5936C208.508 19.972 211.705 20.1226 211.705 21.8021ZM218.247 20.0646C218.247 21.7905 217.228 23.4469 215.838 23.4469C215.143 23.4469 214.656 23.0415 214.309 22.4623V25.5318C214.309 25.9951 214.471 26.0994 214.656 26.111V26.2268H212.919V26.111C213.104 26.0994 213.266 25.9951 213.266 25.5318V18.2345C213.266 17.7712 213.104 17.667 212.919 17.6554V17.5395H214.309V19.2538C214.599 18.2693 215.178 17.4237 216.197 17.4237C217.309 17.4237 218.247 18.4083 218.247 20.0646ZM214.309 20.9565V21.9643C214.633 22.7403 215.155 22.9372 215.525 22.9372C216.475 22.9372 217.089 21.6399 217.089 20.1573C217.089 18.7094 216.498 17.9218 215.803 17.9218C214.784 17.9218 214.309 19.5782 214.309 20.9565ZM219.807 15.9295C219.807 15.6515 219.981 15.4314 220.293 15.4314C220.629 15.4314 220.849 15.6747 220.849 16.0106C220.849 16.4623 220.455 16.9141 219.807 17.0531C220.166 16.555 219.807 16.3233 219.807 15.9295ZM219.459 23.3311V23.2152C219.645 23.2036 219.807 23.0994 219.807 22.6361V18.2345C219.807 17.7712 219.645 17.667 219.459 17.6554V17.5395H220.849V22.6361C220.849 23.0994 221.011 23.2036 221.197 23.2152V23.3311H219.459ZM225.091 18.0724C224.211 18.0724 223.747 19.555 223.747 20.9565V22.6361C223.747 23.0994 223.909 23.2036 224.095 23.2152V23.3311H222.357V23.2152C222.543 23.2036 222.705 23.0994 222.705 22.6361V18.2345C222.705 17.7712 222.543 17.667 222.357 17.6554V17.5395H223.747V19.2654C224.025 18.2577 224.57 17.4237 225.357 17.4237C225.601 17.4237 225.879 17.5048 226.099 17.7828V18.9411H225.96C225.751 18.2693 225.404 18.0724 225.091 18.0724ZM230.487 19.6129C229.514 20.6322 228.02 20.8986 228.02 21.9179C228.02 22.4276 228.391 22.7751 228.947 22.7751C229.723 22.7751 230.487 22.0801 230.487 21.3504V19.6129ZM229.422 17.6554C228.75 17.6554 228.124 18.3388 227.719 19.2886H227.58V18.1303C228.136 17.667 228.785 17.4237 229.456 17.4237C230.615 17.4237 231.53 18.1534 231.53 19.2423V22.6361C231.53 23.0994 231.692 23.2036 231.877 23.2152V23.3311H230.487V22.1033C230.082 22.7982 229.213 23.4469 228.275 23.4469C227.429 23.4469 226.908 22.9141 226.908 22.2307C226.908 20.7017 229.572 20.4585 230.487 19.2654V19.2423C230.487 18.3851 230.105 17.6554 229.422 17.6554ZM235.762 22.7751C235.565 23.1805 235.16 23.4469 234.708 23.4469C234.013 23.4469 233.561 22.8214 233.561 21.8832V17.7712H232.866V17.5395C233.608 17.4932 234.129 17.0531 234.372 16.1959H234.604V17.5395H235.762V17.7712H234.604V21.9758C234.604 22.6245 234.789 22.972 235.148 22.972C235.299 22.972 235.507 22.9141 235.669 22.7056L235.762 22.7751ZM237.27 15.9295C237.27 15.6515 237.443 15.4314 237.756 15.4314C238.092 15.4314 238.312 15.6747 238.312 16.0106C238.312 16.4623 237.918 16.9141 237.27 17.0531C237.629 16.555 237.27 16.3233 237.27 15.9295ZM236.922 23.3311V23.2152C237.107 23.2036 237.27 23.0994 237.27 22.6361V18.2345C237.27 17.7712 237.107 17.667 236.922 17.6554V17.5395H238.312V22.6361C238.312 23.0994 238.474 23.2036 238.66 23.2152V23.3311H236.922ZM239.878 20.4353C239.878 18.7442 241.129 17.4237 242.716 17.4237C244.303 17.4237 245.554 18.7442 245.554 20.4353C245.554 22.1264 244.303 23.4469 242.716 23.4469C241.129 23.4469 239.878 22.1264 239.878 20.4353ZM241.036 20.4353C241.036 22.1148 241.697 23.2152 242.716 23.2152C243.735 23.2152 244.395 22.1148 244.395 20.4353C244.395 18.7558 243.735 17.6554 242.716 17.6554C241.697 17.6554 241.036 18.7558 241.036 20.4353ZM246.768 23.3311V23.2152C246.953 23.2036 247.115 23.0994 247.115 22.6361V18.2345C247.115 17.7712 246.953 17.667 246.768 17.6554V17.5395H248.158V19.4044C248.47 18.3504 249.131 17.4237 250.185 17.4237C251.111 17.4237 251.748 18.1534 251.748 19.2423V22.6361C251.748 23.0994 251.91 23.2036 252.096 23.2152V23.3311H250.358V23.2152C250.544 23.2036 250.706 23.0994 250.706 22.6361V19.2423C250.706 18.4662 250.324 17.9218 249.756 17.9218C248.748 17.9218 248.158 19.6708 248.158 20.9565V22.6361C248.158 23.0994 248.32 23.2036 248.505 23.2152V23.3311H246.768ZM256.888 19.6129C255.915 20.6322 254.421 20.8986 254.421 21.9179C254.421 22.4276 254.792 22.7751 255.348 22.7751C256.124 22.7751 256.888 22.0801 256.888 21.3504V19.6129ZM255.823 17.6554C255.151 17.6554 254.526 18.3388 254.12 19.2886H253.981V18.1303C254.537 17.667 255.186 17.4237 255.858 17.4237C257.016 17.4237 257.931 18.1534 257.931 19.2423V22.6361C257.931 23.0994 258.093 23.2036 258.278 23.2152V23.3311H256.888V22.1033C256.483 22.7982 255.614 23.4469 254.676 23.4469C253.831 23.4469 253.309 22.9141 253.309 22.2307C253.309 20.7017 255.973 20.4585 256.888 19.2654V19.2423C256.888 18.3851 256.506 17.6554 255.823 17.6554ZM259.441 23.3311V23.2152C259.626 23.2036 259.789 23.0994 259.789 22.6361V15.9179C259.789 15.4546 259.626 15.3504 259.441 15.3388V15.2229H260.831V22.6361C260.831 23.0994 260.993 23.2036 261.179 23.2152V23.3311H259.441ZM265.872 19.277C265.872 16.9372 267.378 15.1071 269.347 15.1071C271.316 15.1071 272.822 16.9372 272.822 19.277C272.822 21.2461 271.744 22.8562 270.239 23.3195L268.71 23.9797C270.065 23.9102 271.571 24.6863 272.648 24.0376C272.949 24.6168 272.555 25.0917 271.918 25.0917C270.887 25.0917 269.578 23.887 268.362 24.1303L268.304 24.1534V24.026L269.683 23.4237C269.567 23.4353 269.463 23.4469 269.347 23.4469C267.378 23.4469 265.872 21.6168 265.872 19.277ZM267.03 19.277C267.03 21.6515 267.945 23.2152 269.347 23.2152C270.748 23.2152 271.663 21.6515 271.663 19.277C271.663 16.9025 270.748 15.3388 269.347 15.3388C267.945 15.3388 267.03 16.9025 267.03 19.277ZM279.02 17.5395V22.6361C279.02 23.0994 279.183 23.2036 279.368 23.2152V23.3311H277.978V21.4662C277.665 22.5202 277.005 23.4469 275.951 23.4469C275.024 23.4469 274.387 22.7172 274.387 21.6284V18.2345C274.387 17.7712 274.225 17.667 274.04 17.6554V17.5395H275.43V21.6284C275.43 22.4044 275.812 22.9488 276.379 22.9488C277.387 22.9488 277.978 21.1998 277.978 19.9141V18.2345C277.978 17.7712 277.816 17.667 277.63 17.6554V17.5395H279.02ZM280.581 20.4353C280.581 18.7442 281.832 17.4237 283.419 17.4237C285.006 17.4237 286.257 18.7442 286.257 20.4353C286.257 22.1264 285.006 23.4469 283.419 23.4469C281.832 23.4469 280.581 22.1264 280.581 20.4353ZM281.74 20.4353C281.74 22.1148 282.4 23.2152 283.419 23.2152C284.439 23.2152 285.099 22.1148 285.099 20.4353C285.099 18.7558 284.439 17.6554 283.419 17.6554C282.4 17.6554 281.74 18.7558 281.74 20.4353ZM290.193 22.7751C289.996 23.1805 289.591 23.4469 289.139 23.4469C288.444 23.4469 287.992 22.8214 287.992 21.8832V17.7712H287.297V17.5395C288.039 17.4932 288.56 17.0531 288.803 16.1959H289.035V17.5395H290.193V17.7712H289.035V21.9758C289.035 22.6245 289.22 22.972 289.579 22.972C289.73 22.972 289.938 22.9141 290.1 22.7056L290.193 22.7751ZM296.027 21.9411L296.119 22.0106C295.702 22.7751 294.891 23.4469 293.861 23.4469C292.366 23.4469 291.185 22.0338 291.185 20.389C291.185 18.7442 292.366 17.4237 293.976 17.4237C295.135 17.4237 295.992 18.1071 295.992 18.8948C295.992 20.0878 294.069 20.6785 292.401 20.945C292.656 22.2538 293.583 22.8214 294.428 22.8214C295.065 22.8214 295.691 22.4971 296.027 21.9411ZM292.366 20.7133C293.93 20.4701 294.949 19.9256 294.949 18.8253C294.949 18.2114 294.579 17.6554 293.93 17.6554C293.027 17.6554 292.332 18.7558 292.332 20.2036C292.332 20.389 292.343 20.5511 292.366 20.7133ZM303.096 15.1071C303.501 15.1071 303.965 15.2229 304.37 15.5936V16.7519H304.231C303.895 15.8021 303.513 15.3388 303.061 15.3388C302.494 15.3388 302.378 16.1033 302.378 17.0067V17.5395H303.536V17.7712H302.378V22.6361C302.378 23.0994 302.54 23.2036 302.725 23.2152V23.3311H300.988V23.2152C301.173 23.2036 301.335 23.0994 301.335 22.6361V17.7712H300.64V17.5395H301.335V17.0067C301.335 16.0222 301.961 15.1071 303.096 15.1071ZM304.313 20.4353C304.313 18.7442 305.564 17.4237 307.151 17.4237C308.738 17.4237 309.989 18.7442 309.989 20.4353C309.989 22.1264 308.738 23.4469 307.151 23.4469C305.564 23.4469 304.313 22.1264 304.313 20.4353ZM305.471 20.4353C305.471 22.1148 306.132 23.2152 307.151 23.2152C308.17 23.2152 308.83 22.1148 308.83 20.4353C308.83 18.7558 308.17 17.6554 307.151 17.6554C306.132 17.6554 305.471 18.7558 305.471 20.4353ZM313.936 18.0724C313.056 18.0724 312.593 19.555 312.593 20.9565V22.6361C312.593 23.0994 312.755 23.2036 312.94 23.2152V23.3311H311.203V23.2152C311.388 23.2036 311.55 23.0994 311.55 22.6361V18.2345C311.55 17.7712 311.388 17.667 311.203 17.6554V17.5395H312.593V19.2654C312.871 18.2577 313.415 17.4237 314.203 17.4237C314.446 17.4237 314.724 17.5048 314.944 17.7828V18.9411H314.805C314.596 18.2693 314.249 18.0724 313.936 18.0724ZM321.43 23.3311V23.2152C321.615 23.2036 321.777 23.0994 321.777 22.6361V16.1496C321.777 15.6168 321.592 15.4546 321.21 15.4546C320.561 15.4546 319.97 15.9179 319.75 16.6129H319.634V15.2229H324.962V16.6129H324.847C324.627 15.9179 324.036 15.4546 323.387 15.4546C323.005 15.4546 322.82 15.6168 322.82 16.1496V22.6361C322.82 23.0994 322.982 23.2036 323.167 23.2152V23.3311H321.43ZM326.118 23.3311V23.2152C326.303 23.2036 326.466 23.0994 326.466 22.6361V15.9179C326.466 15.4546 326.303 15.3504 326.118 15.3388V15.2229H327.508V19.4044C327.821 18.3504 328.481 17.4237 329.535 17.4237C330.462 17.4237 331.099 18.1534 331.099 19.2423V22.6361C331.099 23.0994 331.261 23.2036 331.446 23.2152V23.3311H329.709V23.2152C329.894 23.2036 330.056 23.0994 330.056 22.6361V19.2423C330.056 18.4662 329.674 17.9218 329.106 17.9218C328.099 17.9218 327.508 19.6708 327.508 20.9565V22.6361C327.508 23.0994 327.67 23.2036 327.855 23.2152V23.3311H326.118ZM337.501 21.9411L337.594 22.0106C337.177 22.7751 336.366 23.4469 335.335 23.4469C333.841 23.4469 332.66 22.0338 332.66 20.389C332.66 18.7442 333.841 17.4237 335.451 17.4237C336.61 17.4237 337.467 18.1071 337.467 18.8948C337.467 20.0878 335.544 20.6785 333.876 20.945C334.131 22.2538 335.057 22.8214 335.903 22.8214C336.54 22.8214 337.166 22.4971 337.501 21.9411ZM333.841 20.7133C335.405 20.4701 336.424 19.9256 336.424 18.8253C336.424 18.2114 336.054 17.6554 335.405 17.6554C334.501 17.6554 333.806 18.7558 333.806 20.2036C333.806 20.389 333.818 20.5511 333.841 20.7133ZM344.606 23.3311H342.289V23.2152C342.474 23.2036 342.636 23.0994 342.636 22.6361V15.9179C342.636 15.4546 342.474 15.3504 342.289 15.3388V15.2229H344.606C346.992 15.2229 348.775 16.8446 348.775 19.277C348.775 21.7094 346.992 23.3311 344.606 23.3311ZM343.679 23.0994H344.606C346.378 23.0994 347.617 21.5241 347.617 19.2423C347.617 16.9836 346.413 15.4546 344.571 15.4546C343.992 15.4546 343.679 15.6052 343.679 16.1728V23.0994ZM353.281 19.6129C352.308 20.6322 350.814 20.8986 350.814 21.9179C350.814 22.4276 351.184 22.7751 351.74 22.7751C352.516 22.7751 353.281 22.0801 353.281 21.3504V19.6129ZM352.215 17.6554C351.543 17.6554 350.918 18.3388 350.512 19.2886H350.373V18.1303C350.929 17.667 351.578 17.4237 352.25 17.4237C353.408 17.4237 354.323 18.1534 354.323 19.2423V22.6361C354.323 23.0994 354.485 23.2036 354.671 23.2152V23.3311H353.281V22.1033C352.875 22.7982 352.007 23.4469 351.068 23.4469C350.223 23.4469 349.702 22.9141 349.702 22.2307C349.702 20.7017 352.366 20.4585 353.281 19.2654V19.2423C353.281 18.3851 352.899 17.6554 352.215 17.6554ZM357.707 23.3311L355.853 18.2345C355.714 17.887 355.564 17.7133 355.367 17.6554V17.5395H357.174V17.6554C357.012 17.7133 356.965 17.8755 357.07 18.2114L358.703 22.6824L359.467 20.5627C360.174 18.6284 360.29 17.8639 359.653 17.6554V17.5395H361.043V17.6554C360.846 17.7133 360.695 17.8755 360.556 18.2229L358.494 23.9102C358.043 25.1496 357.429 26.2268 356.386 26.2268L356.108 24.86L356.213 24.8137C356.444 25.138 356.687 25.277 356.931 25.277C357.487 25.277 358.008 24.5704 358.251 23.9102L358.297 23.7944C358.379 23.5048 358.17 23.3311 357.707 23.3311Z"
        fill="#333333" />
    <path d="M0 264.085H264.809" stroke="#333333" stroke-width="0.965251" />
    <path d="M0 282.812H264.809" stroke="#9A9A9A" stroke-width="0.579151" />
    <path d="M0 301.537H264.809" stroke="#9A9A9A" stroke-width="0.579151" />
    <path d="M0 320.263H264.809" stroke="#9A9A9A" stroke-width="0.579151" />
    <path
        d="M2.94209 257.664C1.39768 257.664 0.30888 256.567 0.30888 254.961C0.30888 253.363 1.39768 252.259 2.94209 252.259C4.21622 252.259 5.18147 253.015 5.46718 254.174L4.7027 254.367C4.51737 253.594 3.89961 252.992 2.94209 252.992C1.861 252.992 1.10425 253.788 1.10425 254.961C1.10425 256.143 1.861 256.93 2.94209 256.93C3.6834 256.93 4.27799 256.552 4.55598 255.927L5.2973 256.204C4.9112 257.1 4.03861 257.664 2.94209 257.664ZM7.44546 257.571H6.6501V252.359H7.44546V254.591H10.0478V252.359H10.8431V257.571H10.0478V255.293H7.44546V257.571ZM16.8095 257.571H15.9601L15.5122 256.367H13.1415L12.6937 257.571H11.8442L13.8288 252.359H14.8249L16.8095 257.571ZM14.3307 253.162L13.3886 255.695H15.2651L14.3307 253.162ZM21.258 257.571H17.8063V252.359H18.6017V256.869H21.258V257.571ZM25.8219 257.571H22.3701V252.359H23.1655V256.869H25.8219V257.571ZM30.5401 252.359V253.062H27.7293V254.598H30.3085V255.293H27.7293V256.869H30.5401V257.571H26.9339V252.359H30.5401ZM35.3835 256.49V252.359H36.1789V257.571H35.2059L32.5495 253.417V257.571H31.7542V252.359H32.7194L35.3835 256.49ZM41.7303 255.602H39.4215V254.93H42.4716V257.571H41.7612V256.706C41.4215 257.34 40.8269 257.664 39.9774 257.664C38.4871 257.664 37.4137 256.567 37.4137 254.961C37.4137 253.363 38.5103 252.259 40.0469 252.259C41.0971 252.259 42.2323 252.822 42.5643 254.135L41.7998 254.343C41.6068 253.571 40.989 252.992 40.0469 252.992C38.9659 252.992 38.2091 253.788 38.2091 254.961C38.2091 256.135 38.935 256.93 40.0469 256.93C40.8964 256.93 41.5373 256.467 41.7303 255.602ZM47.3988 252.359V253.062H44.588V254.598H47.1672V255.293H44.588V256.869H47.3988V257.571H43.7927V252.359H47.3988ZM53.4142 257.664C51.8698 257.664 50.7809 256.567 50.7809 254.961C50.7809 253.363 51.8698 252.259 53.4142 252.259C54.9586 252.259 56.0474 253.363 56.0474 254.961C56.0474 256.567 54.9586 257.664 53.4142 257.664ZM53.4142 256.93C54.4952 256.93 55.252 256.143 55.252 254.961C55.252 253.788 54.4952 252.992 53.4142 252.992C52.3331 252.992 51.5763 253.788 51.5763 254.961C51.5763 256.143 52.3331 256.93 53.4142 256.93ZM60.8792 252.359V253.062H58.0684V254.598H60.6012V255.293H58.0684V257.571H57.273V252.359H60.8792ZM63.1398 252.359H67.4873V253.062H65.7112V257.571H64.9158V253.062H63.1398V252.359ZM69.2788 257.571H68.4835V252.359H69.2788V254.591H71.8812V252.359H72.6765V257.571H71.8812V255.293H69.2788V257.571ZM77.7394 252.359V253.062H74.9286V254.598H77.5077V255.293H74.9286V256.869H77.7394V257.571H74.1332V252.359H77.7394ZM83.1215 257.571H81.3532V252.359H83.1215C84.9671 252.359 85.94 253.17 85.94 254.961C85.94 256.768 84.9516 257.571 83.1215 257.571ZM82.1485 253.062V256.869H83.1215C84.442 256.869 85.1447 256.274 85.1447 254.961C85.1447 253.633 84.4111 253.062 83.1215 253.062H82.1485ZM91.4596 257.571H90.6102L90.1623 256.367H87.7916L87.3437 257.571H86.4943L88.4789 252.359H89.475L91.4596 257.571ZM88.9808 253.162L88.0387 255.695H89.9152L88.9808 253.162ZM94.7828 252.359H95.7095L93.8562 255.208V257.571H93.0608V255.193L91.2153 252.359H92.1342L93.4624 254.436L94.7828 252.359Z"
        fill="#333333" />
    <path d="M293.673 264.085H554.999" stroke="#333333" stroke-width="0.965251" />
    <path d="M293.673 282.812H554.999" stroke="#9A9A9A" stroke-width="0.579151" />
    <path d="M293.673 301.537H554.999" stroke="#9A9A9A" stroke-width="0.579151" />
    <path d="M293.673 320.263H554.999" stroke="#9A9A9A" stroke-width="0.579151" />
    <path
        d="M298.715 257.571H297.866L297.418 256.367H295.047L294.599 257.571H293.75L295.735 252.359H296.731L298.715 257.571ZM296.237 253.162L295.294 255.695H297.171L296.237 253.162ZM301.873 257.664C300.328 257.664 299.239 256.567 299.239 254.961C299.239 253.363 300.328 252.259 301.873 252.259C303.147 252.259 304.112 253.015 304.398 254.174L303.633 254.367C303.448 253.594 302.83 252.992 301.873 252.992C300.791 252.992 300.035 253.788 300.035 254.961C300.035 256.143 300.791 256.93 301.873 256.93C302.614 256.93 303.208 256.552 303.486 255.927L304.228 256.204C303.842 257.1 302.969 257.664 301.873 257.664ZM306.376 257.571H305.581V252.359H306.376V254.591H308.978V252.359H309.774V257.571H308.978V255.293H306.376V257.571ZM312.026 257.571H311.23V252.359H312.026V257.571ZM317.085 252.359V253.062H314.274V254.598H316.854V255.293H314.274V256.869H317.085V257.571H313.479V252.359H317.085ZM320.322 256.776L321.959 252.359H322.801L320.824 257.571H319.82L317.844 252.359H318.685L320.322 256.776ZM327.404 252.359V253.062H324.594V254.598H327.173V255.293H324.594V256.869H327.404V257.571H323.798V252.359H327.404ZM331.329 256.127L332.665 252.359H334.032V257.571H333.236V252.791L331.607 257.571H331.043L329.414 252.791V257.571H328.618V252.359H329.985L331.329 256.127ZM339.096 252.359V253.062H336.285V254.598H338.864V255.293H336.285V256.869H339.096V257.571H335.49V252.359H339.096ZM343.939 256.49V252.359H344.735V257.571H343.762L341.105 253.417V257.571H340.31V252.359H341.275L343.939 256.49ZM345.889 252.359H350.236V253.062H348.46V257.571H347.665V253.062H345.889V252.359ZM355.649 257.664C354.105 257.664 353.016 256.567 353.016 254.961C353.016 253.363 354.105 252.259 355.649 252.259C357.193 252.259 358.282 253.363 358.282 254.961C358.282 256.567 357.193 257.664 355.649 257.664ZM355.649 256.93C356.73 256.93 357.487 256.143 357.487 254.961C357.487 253.788 356.73 252.992 355.649 252.992C354.568 252.992 353.811 253.788 353.811 254.961C353.811 256.143 354.568 256.93 355.649 256.93ZM363.114 252.359V253.062H360.303V254.598H362.836V255.293H360.303V257.571H359.508V252.359H363.114ZM365.375 252.359H369.722V253.062H367.946V257.571H367.151V253.062H365.375V252.359ZM371.514 257.571H370.718V252.359H371.514V254.591H374.116V252.359H374.911V257.571H374.116V255.293H371.514V257.571ZM379.974 252.359V253.062H377.164V254.598H379.743V255.293H377.164V256.869H379.974V257.571H376.368V252.359H379.974ZM385.356 257.571H383.588V252.359H385.356C387.202 252.359 388.175 253.17 388.175 254.961C388.175 256.768 387.187 257.571 385.356 257.571ZM384.383 253.062V256.869H385.356C386.677 256.869 387.38 256.274 387.38 254.961C387.38 253.633 386.646 253.062 385.356 253.062H384.383ZM393.695 257.571H392.845L392.397 256.367H390.027L389.579 257.571H388.729L390.714 252.359H391.71L393.695 257.571ZM391.216 253.162L390.274 255.695H392.15L391.216 253.162ZM397.018 252.359H397.944L396.091 255.208V257.571H395.296V255.193L393.45 252.359H394.369L395.697 254.436L397.018 252.359Z"
        fill="#333333" />
    <path d="M0 134.478H555" stroke="#333333" stroke-width="0.965251" />
    <path d="M0 153.204H555" stroke="#9A9A9A" stroke-width="0.579151" />
    <path d="M0 209.381H555" stroke="#9A9A9A" stroke-width="0.579151" />
    <path d="M0 171.93H555" stroke="#9A9A9A" stroke-width="0.579151" />
    <path d="M0 228.107H555" stroke="#9A9A9A" stroke-width="0.579151" />
    <path d="M0 190.656H555" stroke="#9A9A9A" stroke-width="0.579151" />
    <path
        d="M0.0772201 122.752H4.42471V123.455H2.64865V127.964H1.85328V123.455H0.0772201V122.752ZM7.52854 128.057C5.98413 128.057 4.89533 126.96 4.89533 125.354C4.89533 123.756 5.98413 122.652 7.52854 122.652C9.07294 122.652 10.1617 123.756 10.1617 125.354C10.1617 126.96 9.07294 128.057 7.52854 128.057ZM7.52854 127.323C8.60962 127.323 9.36637 126.536 9.36637 125.354C9.36637 124.181 8.60962 123.385 7.52854 123.385C6.44745 123.385 5.6907 124.181 5.6907 125.354C5.6907 126.536 6.44745 127.323 7.52854 127.323ZM13.1634 127.964H11.3951V122.752H13.1634C15.009 122.752 15.982 123.563 15.982 125.354C15.982 127.161 14.9935 127.964 13.1634 127.964ZM12.1905 123.455V127.262H13.1634C14.4839 127.262 15.1866 126.667 15.1866 125.354C15.1866 124.026 14.453 123.455 13.1634 123.455H12.1905ZM21.5015 127.964H20.6521L20.2042 126.76H17.8336L17.3857 127.964H16.5363L18.5208 122.752H19.517L21.5015 127.964ZM19.0227 123.555L18.0807 126.088H19.9571L19.0227 123.555ZM24.8247 122.752H25.7514L23.8981 125.601V127.964H23.1027V125.586L21.2572 122.752H22.1761L23.5043 124.829L24.8247 122.752ZM26.9647 124.984H26.3778L26.8103 122.752H27.5902L26.9647 124.984ZM30.5903 128.057C29.4088 128.057 28.6444 127.478 28.4899 126.466L29.2544 126.281C29.3702 126.976 29.8799 127.385 30.6366 127.385C31.3007 127.385 31.6868 127.061 31.6868 126.559C31.6868 125.957 31.0768 125.825 30.405 125.655C29.5942 125.439 28.6753 125.184 28.6753 124.127C28.6753 123.254 29.4011 122.652 30.5208 122.652C31.4629 122.652 32.266 123.076 32.4745 124.119L31.7563 124.304C31.6096 123.601 31.1386 123.316 30.5208 123.316C29.8644 123.316 29.4629 123.625 29.4629 124.103C29.4629 124.652 30.0189 124.783 30.7139 124.953C31.5324 125.154 32.4822 125.447 32.4822 126.474C32.4822 127.455 31.8181 128.057 30.5903 128.057ZM40.6557 127.964H39.8063L39.3584 126.76H36.9878L36.5399 127.964H35.6905L37.675 122.752H38.6712L40.6557 127.964ZM38.1769 123.555L37.2349 126.088H39.1113L38.1769 123.555ZM45.2587 122.752V123.455H42.4479V124.991H44.9807V125.686H42.4479V127.964H41.6525V122.752H45.2587ZM49.9583 122.752V123.455H47.1474V124.991H49.6803V125.686H47.1474V127.964H46.3521V122.752H49.9583ZM51.847 127.964H51.0516V122.752H51.847V127.964ZM57.4008 127.964H56.5127L55.2154 125.81H54.0957V127.964H53.3004V122.752H55.5552C56.6672 122.752 57.3622 123.177 57.3622 124.281C57.3622 125.208 56.8757 125.655 56.0649 125.771L57.4008 127.964ZM55.5243 123.455H54.0957V125.107H55.5243C56.2038 125.107 56.5668 124.899 56.5668 124.281C56.5668 123.663 56.1884 123.455 55.5243 123.455ZM61.3136 126.52L62.6496 122.752H64.0164V127.964H63.221V123.184L61.5916 127.964H61.0279L59.3986 123.184V127.964H58.6032V122.752H59.97L61.3136 126.52ZM69.9843 127.964H69.1348L68.687 126.76H66.3163L65.8684 127.964H65.019L67.0036 122.752H67.9997L69.9843 127.964ZM67.5055 123.555L66.5634 126.088H68.4398L67.5055 123.555ZM69.7714 122.752H74.1188V123.455H72.3428V127.964H71.5474V123.455H69.7714V122.752ZM76.0612 127.964H75.2659V122.752H76.0612V127.964ZM79.9239 128.057C78.3795 128.057 77.2907 126.96 77.2907 125.354C77.2907 123.756 78.3795 122.652 79.9239 122.652C81.4683 122.652 82.5571 123.756 82.5571 125.354C82.5571 126.96 81.4683 128.057 79.9239 128.057ZM79.9239 127.323C81.0049 127.323 81.7617 126.536 81.7617 125.354C81.7617 124.181 81.0049 123.385 79.9239 123.385C78.8428 123.385 78.086 124.181 78.086 125.354C78.086 126.536 78.8428 127.323 79.9239 127.323ZM87.412 126.883V122.752H88.2074V127.964H87.2344L84.5781 123.81V127.964H83.7827V122.752H84.7479L87.412 126.883ZM90.4307 125.262H89.6662V124.173H90.4307V125.262ZM90.4307 127.964H89.6662V126.868H90.4307V127.964ZM95.0722 127.964H94.2768V122.752H95.0722V127.964ZM103.427 127.964H102.578L102.13 126.76H99.7592L99.3114 127.964H98.4619L100.446 122.752H101.443L103.427 127.964ZM100.948 123.555L100.006 126.088H101.883L100.948 123.555ZM107.134 126.52L108.47 122.752H109.837V127.964H109.042V123.184L107.412 127.964H106.849L105.219 123.184V127.964H104.424V122.752H105.791L107.134 126.52ZM114.452 127.964H113.687V126.868H114.452V127.964ZM116.67 127.964H115.906V126.868H116.67V127.964ZM118.889 127.964H118.125V126.868H118.889V127.964Z"
        fill="#333333" />
    <path d="M0 360.557H555" stroke="#333333" stroke-width="0.965251" />
    <path d="M0 382.758H555" stroke="#9A9A9A" stroke-width="0.579151" />
    <path d="M0 404.958H555" stroke="#9A9A9A" stroke-width="0.579151" />
    <path d="M0 427.16H555" stroke="#9A9A9A" stroke-width="0.579151" />
    <path
        d="M1.32819 351.726H0.532819V346.514H1.32819V348.745H3.9305V346.514H4.72587V351.726H3.9305V349.448H1.32819V351.726ZM9.78873 346.514V347.216H6.97792V348.753H9.55707V349.448H6.97792V351.023H9.78873V351.726H6.18255V346.514H9.78873ZM15.1032 351.726H14.2151L12.9178 349.572H11.7981V351.726H11.0028V346.514H13.2576C14.3696 346.514 15.0646 346.938 15.0646 348.043C15.0646 348.969 14.5781 349.417 13.7673 349.533L15.1032 351.726ZM13.2267 347.216H11.7981V348.869H13.2267C13.9063 348.869 14.2692 348.66 14.2692 348.043C14.2692 347.425 13.8908 347.216 13.2267 347.216ZM19.9118 346.514V347.216H17.101V348.753H19.6801V349.448H17.101V351.023H19.9118V351.726H16.3056V346.514H19.9118ZM28.0275 351.726H27.1781L26.7302 350.521H24.3596L23.9117 351.726H23.0623L25.0468 346.514H26.043L28.0275 351.726ZM25.5487 347.317L24.6067 349.85H26.4831L25.5487 347.317ZM33.1247 351.726H32.2367L30.9394 349.572H29.8197V351.726H29.0243V346.514H31.2791C32.3911 346.514 33.0861 346.938 33.0861 348.043C33.0861 348.969 32.5996 349.417 31.7888 349.533L33.1247 351.726ZM31.2483 347.216H29.8197V348.869H31.2483C31.9278 348.869 32.2907 348.66 32.2907 348.043C32.2907 347.425 31.9123 347.216 31.2483 347.216ZM37.9333 346.514V347.216H35.1225V348.753H37.7017V349.448H35.1225V351.023H37.9333V351.726H34.3272V346.514H37.9333ZM43.1919 351.819C42.0182 351.819 41.3309 351.178 41.3309 350.089H42.1108C42.1185 350.745 42.5201 351.131 43.1765 351.131C43.7711 351.131 44.1803 350.769 44.1803 350.22C44.1803 349.657 43.7865 349.294 43.0992 349.294H42.8907V348.66H43.0375C43.5934 348.66 43.9409 348.336 43.9409 347.85C43.9409 347.394 43.6166 347.093 43.1301 347.093C42.6128 347.093 42.2498 347.44 42.2498 347.989C42.2498 348.066 42.2575 348.151 42.273 348.236L41.5162 348.274C41.4931 348.159 41.4853 348.05 41.4853 347.95C41.4853 347.031 42.1417 346.413 43.1379 346.413C44.0799 346.413 44.6823 347.008 44.6823 347.765C44.6823 348.359 44.3116 348.753 43.9255 348.9C44.4892 349.031 44.9602 349.464 44.9602 350.22C44.9602 351.155 44.2498 351.819 43.1919 351.819ZM53.1105 351.726H52.261L51.8132 350.521H49.4425L48.9946 351.726H48.1452L50.1298 346.514H51.1259L53.1105 351.726ZM50.6317 347.317L49.6896 349.85H51.5661L50.6317 347.317ZM56.8177 350.282L58.1536 346.514H59.5204V351.726H58.725V346.946L57.0957 351.726H56.532L54.9026 346.946V351.726H54.1073V346.514H55.4741L56.8177 350.282ZM65.4883 351.726H64.6389L64.191 350.521H61.8203L61.3725 351.726H60.523L62.5076 346.514H63.5037L65.4883 351.726ZM63.0095 347.317L62.0674 349.85H63.9439L63.0095 347.317ZM69.9368 347.162L67.1337 351.023H70.0063V351.726H66.1762V351.07L68.987 347.216H66.1839V346.514H69.9368V347.162ZM71.9348 351.726H71.1394V346.514H71.9348V351.726ZM77.0175 350.645V346.514H77.8129V351.726H76.8399L74.1835 347.572V351.726H73.3881V346.514H74.3534L77.0175 350.645ZM83.3643 349.757H81.0554V349.085H84.1056V351.726H83.3952V350.861C83.0554 351.494 82.4608 351.819 81.6114 351.819C80.1211 351.819 79.0477 350.722 79.0477 349.116C79.0477 347.518 80.1442 346.413 81.6809 346.413C82.7311 346.413 83.8663 346.977 84.1983 348.29L83.4338 348.498C83.2408 347.726 82.623 347.147 81.6809 347.147C80.5998 347.147 79.8431 347.942 79.8431 349.116C79.8431 350.29 80.569 351.085 81.6809 351.085C82.5303 351.085 83.1713 350.622 83.3643 349.757ZM86.9785 346.514H91.326V347.216H89.5499V351.726H88.7545V347.216H86.9785V346.514ZM93.1175 351.726H92.3222V346.514H93.1175V348.745H95.7198V346.514H96.5152V351.726H95.7198V349.448H93.1175V351.726ZM98.7673 351.726H97.9719V346.514H98.7673V351.726ZM103.85 350.645V346.514H104.645V351.726H103.672L101.016 347.572V351.726H100.221V346.514H101.186L103.85 350.645ZM110.197 349.757H107.888V349.085H110.938V351.726H110.228V350.861C109.888 351.494 109.293 351.819 108.444 351.819C106.954 351.819 105.88 350.722 105.88 349.116C105.88 347.518 106.977 346.413 108.513 346.413C109.564 346.413 110.699 346.977 111.031 348.29L110.266 348.498C110.073 347.726 109.455 347.147 108.513 347.147C107.432 347.147 106.676 347.942 106.676 349.116C106.676 350.29 107.401 351.085 108.513 351.085C109.363 351.085 110.004 350.622 110.197 349.757ZM114.082 351.819C112.9 351.819 112.136 351.24 111.981 350.228L112.746 350.043C112.861 350.738 113.371 351.147 114.128 351.147C114.792 351.147 115.178 350.823 115.178 350.321C115.178 349.718 114.568 349.587 113.896 349.417C113.085 349.201 112.166 348.946 112.166 347.888C112.166 347.016 112.892 346.413 114.012 346.413C114.954 346.413 115.757 346.838 115.966 347.881L115.248 348.066C115.101 347.363 114.63 347.077 114.012 347.077C113.356 347.077 112.954 347.386 112.954 347.865C112.954 348.413 113.51 348.545 114.205 348.714C115.024 348.915 115.973 349.209 115.973 350.236C115.973 351.216 115.309 351.819 114.082 351.819ZM118.797 346.514H123.145V347.216H121.368V351.726H120.573V347.216H118.797V346.514ZM124.936 351.726H124.141V346.514H124.936V348.745H127.538V346.514H128.334V351.726H127.538V349.448H124.936V351.726ZM134.3 351.726H133.451L133.003 350.521H130.632L130.184 351.726H129.335L131.319 346.514H132.316L134.3 351.726ZM131.821 347.317L130.879 349.85H132.756L131.821 347.317ZM134.087 346.514H138.435V347.216H136.659V351.726H135.863V347.216H134.087V346.514ZM142.234 351.726H141.438V346.514H142.234V348.745H144.836V346.514H145.631V351.726H144.836V349.448H142.234V351.726ZM151.598 351.726H150.748L150.3 350.521H147.93L147.482 351.726H146.632L148.617 346.514H149.613L151.598 351.726ZM149.119 347.317L148.177 349.85H150.053L149.119 347.317ZM152.595 346.514H154.734C155.846 346.514 156.54 346.938 156.54 348.043C156.54 349.147 155.846 349.572 154.734 349.572H153.39V351.726H152.595V346.514ZM153.39 348.869H154.703C155.382 348.869 155.745 348.66 155.745 348.043C155.745 347.425 155.374 347.216 154.703 347.216H153.39V348.869ZM157.679 346.514H159.818C160.93 346.514 161.625 346.938 161.625 348.043C161.625 349.147 160.93 349.572 159.818 349.572H158.474V351.726H157.679V346.514ZM158.474 348.869H159.787C160.466 348.869 160.829 348.66 160.829 348.043C160.829 347.425 160.459 347.216 159.787 347.216H158.474V348.869ZM166.369 346.514V347.216H163.558V348.753H166.137V349.448H163.558V351.023H166.369V351.726H162.763V346.514H166.369ZM171.212 350.645V346.514H172.008V351.726H171.035L168.378 347.572V351.726H167.583V346.514H168.548L171.212 350.645ZM177.073 346.514V347.216H174.262V348.753H176.841V349.448H174.262V351.023H177.073V351.726H173.467V346.514H177.073ZM180.063 351.726H178.295V346.514H180.063C181.908 346.514 182.881 347.325 182.881 349.116C182.881 350.923 181.893 351.726 180.063 351.726ZM179.09 347.216V351.023H180.063C181.383 351.023 182.086 350.429 182.086 349.116C182.086 347.788 181.352 347.216 180.063 347.216H179.09ZM185.677 346.514H190.024V347.216H188.248V351.726H187.453V347.216H185.677V346.514ZM193.128 351.819C191.584 351.819 190.495 350.722 190.495 349.116C190.495 347.518 191.584 346.413 193.128 346.413C194.673 346.413 195.761 347.518 195.761 349.116C195.761 350.722 194.673 351.819 193.128 351.819ZM193.128 351.085C194.209 351.085 194.966 350.298 194.966 349.116C194.966 347.942 194.209 347.147 193.128 347.147C192.047 347.147 191.29 347.942 191.29 349.116C191.29 350.298 192.047 351.085 193.128 351.085ZM198.763 351.726H196.995V346.514H198.763C200.609 346.514 201.582 347.325 201.582 349.116C201.582 350.923 200.593 351.726 198.763 351.726ZM197.79 347.216V351.023H198.763C200.084 351.023 200.786 350.429 200.786 349.116C200.786 347.788 200.053 347.216 198.763 347.216H197.79ZM207.101 351.726H206.252L205.804 350.521H203.433L202.985 351.726H202.136L204.12 346.514H205.117L207.101 351.726ZM204.622 347.317L203.68 349.85H205.557L204.622 347.317ZM210.424 346.514H211.351L209.498 349.363V351.726H208.702V349.348L206.857 346.514H207.776L209.104 348.591L210.424 346.514Z"
        fill="#333333" />
    <path
        d="M8.61125 370.884C8.61125 373.192 6.72111 375.066 4.38619 375.066C2.05128 375.066 0.161141 373.192 0.161141 370.884C0.161141 368.575 2.05128 366.701 4.38619 366.701C6.72111 366.701 8.61125 368.575 8.61125 370.884Z"
        stroke="#9A9A9A" stroke-width="0.322282" />
    <path
        d="M8.61125 393.418C8.61125 395.726 6.72111 397.6 4.38619 397.6C2.05128 397.6 0.161141 395.726 0.161141 393.418C0.161141 391.109 2.05128 389.235 4.38619 389.235C6.72111 389.235 8.61125 391.109 8.61125 393.418Z"
        stroke="#9A9A9A" stroke-width="0.322282" />
    <path
        d="M8.61125 415.952C8.61125 418.26 6.72111 420.135 4.38619 420.135C2.05128 420.135 0.161141 418.26 0.161141 415.952C0.161141 413.644 2.05128 411.77 4.38619 411.77C6.72111 411.77 8.61125 413.644 8.61125 415.952Z"
        stroke="#9A9A9A" stroke-width="0.322282" />
</svg>