<svg width="540" height="163" viewBox="0 0 540 163" fill="none" xmlns="http://www.w3.org/2000/svg">
<path d="M0.679688 14.0952H266.317" stroke="#333333" stroke-width="0.965251"/>
<path d="M0.679688 32.6279H266.317" stroke="#9A9A9A" stroke-width="0.579151"/>
<path d="M0.679688 88.2266H266.317" stroke="#9A9A9A" stroke-width="0.579151"/>
<path d="M0.679688 51.1609H266.317" stroke="#9A9A9A" stroke-width="0.579151"/>
<path d="M0.679688 106.759H266.317" stroke="#9A9A9A" stroke-width="0.579151"/>
<path d="M0.679688 69.6936H266.317" stroke="#9A9A9A" stroke-width="0.579151"/>
<path d="M0.679688 125.292H266.317" stroke="#9A9A9A" stroke-width="0.579151"/>
<path d="M0.679688 143.825H266.317" stroke="#9A9A9A" stroke-width="0.579151"/>
<path d="M0.679688 162.358H266.317" stroke="#9A9A9A" stroke-width="0.579151"/>
<path d="M3.92293 6.13802L5.25884 2.36968H6.62563V7.58203H5.83027V2.80211L4.20092 7.58203H3.63722L2.00787 2.80211V7.58203H1.21251V2.36968H2.5793L3.92293 6.13802ZM10.4932 7.6747C8.94875 7.6747 7.85995 6.57817 7.85995 4.97199C7.85995 3.37354 8.94875 2.26929 10.4932 2.26929C12.0376 2.26929 13.1264 3.37354 13.1264 4.97199C13.1264 6.57817 12.0376 7.6747 10.4932 7.6747ZM10.4932 6.9411C11.5742 6.9411 12.331 6.15346 12.331 4.97199C12.331 3.79825 11.5742 3.00288 10.4932 3.00288C9.41207 3.00288 8.65531 3.79825 8.65531 4.97199C8.65531 6.15346 9.41207 6.9411 10.4932 6.9411ZM17.9813 6.50095V2.36968H18.7767V7.58203H17.8037L15.1474 3.42759V7.58203H14.352V2.36968H15.3172L17.9813 6.50095ZM19.9307 2.36968H24.2782V3.07238H22.5021V7.58203H21.7068V3.07238H19.9307V2.36968ZM26.0698 7.58203H25.2744V2.36968H26.0698V4.60134H28.6721V2.36968H29.4675V7.58203H28.6721V5.30404H26.0698V7.58203ZM34.3759 7.58203H30.9241V2.36968H31.7195V6.87933H34.3759V7.58203ZM37.4675 2.36968H38.3942L36.5409 5.2191V7.58203H35.7455V5.20365L33.8999 2.36968H34.8189L36.1471 4.4469L37.4675 2.36968ZM40.5026 2.36968H44.8501V3.07238H43.0741V7.58203H42.2787V3.07238H40.5026V2.36968ZM49.6019 7.58203H48.7524L48.3046 6.3774H45.9339L45.486 7.58203H44.6366L46.6212 2.36968H47.6173L49.6019 7.58203ZM47.1231 3.17276L46.181 5.70558H48.0575L47.1231 3.17276ZM52.3758 7.6747C51.1943 7.6747 50.4299 7.09554 50.2754 6.08396L51.0399 5.89863C51.1557 6.59361 51.6654 7.00288 52.4221 7.00288C53.0862 7.00288 53.4723 6.67856 53.4723 6.17663C53.4723 5.57431 52.8623 5.44304 52.1905 5.27315C51.3797 5.05693 50.4608 4.80211 50.4608 3.74419C50.4608 2.87161 51.1866 2.26929 52.3063 2.26929C53.2484 2.26929 54.0515 2.694 54.26 3.73647L53.5418 3.9218C53.3951 3.2191 52.9241 2.93338 52.3063 2.93338C51.6499 2.93338 51.2484 3.24226 51.2484 3.72103C51.2484 4.26929 51.8044 4.40056 52.4994 4.57045C53.3179 4.77122 54.2677 5.06466 54.2677 6.09168C54.2677 7.07238 53.6036 7.6747 52.3758 7.6747ZM59.833 7.58203H58.9449L57.2847 4.85616L56.3349 5.81369V7.58203H55.5395V2.36968H56.3349V4.80211L58.7365 2.36968H59.7326L57.833 4.29246L59.833 7.58203Z" fill="#333333"/>
<circle cx="4.22479" cy="23.6249" r="3.38397" stroke="#9A9A9A" stroke-width="0.322282"/>
<circle cx="4.22479" cy="60.5854" r="3.38397" stroke="#9A9A9A" stroke-width="0.322282"/>
<circle cx="4.22479" cy="42.1052" r="3.38397" stroke="#9A9A9A" stroke-width="0.322282"/>
<circle cx="4.22479" cy="79.0656" r="3.38397" stroke="#9A9A9A" stroke-width="0.322282"/>
<circle cx="4.22479" cy="116.026" r="3.38397" stroke="#9A9A9A" stroke-width="0.322282"/>
<circle cx="4.22479" cy="97.5458" r="3.38397" stroke="#9A9A9A" stroke-width="0.322282"/>
<circle cx="4.22479" cy="152.987" r="3.38397" stroke="#9A9A9A" stroke-width="0.322282"/>
<circle cx="4.22479" cy="134.506" r="3.38397" stroke="#9A9A9A" stroke-width="0.322282"/>
<mask id="path-19-inside-1_486_4312" fill="white">
<path d="M278.865 162.359V13.71L539.483 13.71V162.359L278.865 162.359Z"/>
</mask>
<path d="M278.865 162.359H278.672V162.938H278.865V162.359ZM278.865 13.71V13.1308H278.672V13.71H278.865ZM539.483 13.71H539.676V13.1308H539.483V13.71ZM539.483 162.359V162.938H539.676V162.359H539.483ZM279.058 162.359V13.71H278.672V162.359H279.058ZM278.865 14.2891L539.483 14.2891V13.1308L278.865 13.1308V14.2891ZM539.29 13.71V162.359H539.676V13.71H539.29ZM539.483 161.779L278.865 161.779V162.938L539.483 162.938V161.779Z" fill="#9A9A9A" mask="url(#path-19-inside-1_486_4312)"/>
<path d="M278.865 13.71H539.483" stroke="#333333" stroke-width="0.965251"/>
<path d="M278.865 32.2427H539.483" stroke="#9A9A9A" stroke-width="0.19305"/>
<path d="M278.865 87.8413H539.483" stroke="#9A9A9A" stroke-width="0.19305"/>
<path d="M278.865 50.7756H539.483" stroke="#9A9A9A" stroke-width="0.19305"/>
<path d="M278.865 106.374H539.483" stroke="#9A9A9A" stroke-width="0.19305"/>
<path d="M278.865 69.3083H539.483" stroke="#9A9A9A" stroke-width="0.19305"/>
<path d="M278.865 124.907H539.483" stroke="#9A9A9A" stroke-width="0.19305"/>
<path d="M278.865 143.44H539.483" stroke="#9A9A9A" stroke-width="0.19305"/>
<path d="M297.784 13.9031V161.78" stroke="#9A9A9A" stroke-width="0.19305"/>
<path d="M317.861 13.9031V161.78" stroke="#9A9A9A" stroke-width="0.19305"/>
<path d="M337.938 13.9031V161.78" stroke="#9A9A9A" stroke-width="0.19305"/>
<path d="M358.016 13.9031V161.78" stroke="#9A9A9A" stroke-width="0.19305"/>
<path d="M378.093 13.9031V161.78" stroke="#9A9A9A" stroke-width="0.19305"/>
<path d="M398.17 13.9031V161.78" stroke="#9A9A9A" stroke-width="0.19305"/>
<path d="M418.247 13.9031V161.78" stroke="#9A9A9A" stroke-width="0.19305"/>
<path d="M438.325 13.9031V161.78" stroke="#9A9A9A" stroke-width="0.19305"/>
<path d="M458.401 13.9031V161.78" stroke="#9A9A9A" stroke-width="0.19305"/>
<path d="M478.479 13.9031V161.78" stroke="#9A9A9A" stroke-width="0.19305"/>
<path d="M498.557 13.9031V161.78" stroke="#9A9A9A" stroke-width="0.19305"/>
<path d="M518.634 13.9031V161.78" stroke="#9A9A9A" stroke-width="0.19305"/>
<path d="M283.027 6.11545V1.98418H283.823V7.19653H282.85L280.193 3.04209V7.19653H279.398V1.98418H280.363L283.027 6.11545ZM287.691 7.2892C286.146 7.2892 285.058 6.19267 285.058 4.58649C285.058 2.98804 286.146 1.88379 287.691 1.88379C289.235 1.88379 290.324 2.98804 290.324 4.58649C290.324 6.19267 289.235 7.2892 287.691 7.2892ZM287.691 6.55561C288.772 6.55561 289.529 5.76796 289.529 4.58649C289.529 3.41275 288.772 2.61738 287.691 2.61738C286.61 2.61738 285.853 3.41275 285.853 4.58649C285.853 5.76796 286.61 6.55561 287.691 6.55561ZM290.792 1.98418H295.14V2.68688H293.364V7.19653H292.568V2.68688H290.792V1.98418ZM299.893 1.98418V2.68688H297.082V4.22356H299.661V4.91854H297.082V6.49383H299.893V7.19653H296.287V1.98418H299.893ZM302.832 7.2892C301.65 7.2892 300.886 6.71005 300.731 5.69846L301.496 5.51314C301.611 6.20812 302.121 6.61738 302.878 6.61738C303.542 6.61738 303.928 6.29306 303.928 5.79113C303.928 5.18881 303.318 5.05754 302.646 4.88765C301.835 4.67144 300.916 4.41661 300.916 3.3587C300.916 2.48611 301.642 1.88379 302.762 1.88379C303.704 1.88379 304.507 2.3085 304.716 3.35097L303.998 3.5363C303.851 2.8336 303.38 2.54788 302.762 2.54788C302.106 2.54788 301.704 2.85676 301.704 3.33553C301.704 3.88379 302.26 4.01507 302.955 4.18495C303.774 4.38572 304.723 4.67916 304.723 5.70619C304.723 6.68688 304.059 7.2892 302.832 7.2892Z" fill="#333333"/>
</svg>
