<svg width="551" height="692" viewBox="0 0 551 692" fill="none" xmlns="http://www.w3.org/2000/svg">
    <rect x="0.470703" y="0.0810547" width="549.614" height="169.112" fill="#F8F8F8" />
    <path
        d="M220.452 24.332V24.2162C220.637 24.2046 220.799 24.1004 220.799 23.6371V16.9189C220.799 16.4556 220.637 16.3513 220.452 16.3398V16.2239H222.189V16.3398C222.004 16.3513 221.842 16.4556 221.842 16.9189V20.7413C222.606 20.0116 223.753 19.4556 224.969 19.5946V16.9189C224.969 16.4556 224.807 16.3513 224.622 16.3398V16.2239H226.359V16.3398C226.174 16.3513 226.012 16.4556 226.012 16.9189V23.6371C226.012 24.1004 226.174 24.2046 226.359 24.2162V24.332H224.622V24.2162C224.807 24.2046 224.969 24.1004 224.969 23.6371V19.8262C223.73 19.6872 222.629 20.2432 221.842 21.0656V23.6371C221.842 24.1004 222.004 24.2046 222.189 24.2162V24.332H220.452ZM227.57 21.4363C227.57 19.7452 228.821 18.4247 230.408 18.4247C231.995 18.4247 233.246 19.7452 233.246 21.4363C233.246 23.1274 231.995 24.4479 230.408 24.4479C228.821 24.4479 227.57 23.1274 227.57 21.4363ZM228.729 21.4363C228.729 23.1158 229.389 24.2162 230.408 24.2162C231.427 24.2162 232.088 23.1158 232.088 21.4363C232.088 19.7567 231.427 18.6564 230.408 18.6564C229.389 18.6564 228.729 19.7567 228.729 21.4363ZM236.107 24.332L234.254 19.2355C234.115 18.888 233.964 18.7143 233.767 18.6564V18.5405H235.574V18.6564C235.412 18.7143 235.377 18.8764 235.47 19.2123L237.103 23.6718L237.995 21.2278L237.265 19.2355C237.126 18.888 236.976 18.7143 236.779 18.6564V18.5405H238.586V18.6564C238.424 18.7143 238.377 18.8764 238.481 19.2239L240.103 23.6834L240.879 21.5637C241.586 19.6293 241.702 18.8648 241.064 18.6564V18.5405H242.454V18.6564C242.258 18.7143 242.107 18.888 241.968 19.2355L240.115 24.332H239.119L238.111 21.5637L237.103 24.332H236.107ZM250.6 24.332H249.732L247.299 16.861C247.172 16.5482 247.044 16.3977 246.859 16.3398V16.2239H248.539V16.3398C248.377 16.3977 248.319 16.5598 248.411 16.8957L250.6 23.5907L251.805 19.861L250.832 16.861C250.705 16.5482 250.577 16.3977 250.392 16.3398V16.2239H252.071V16.3398C251.909 16.3977 251.851 16.5598 251.944 16.9073L254.122 23.6139L255.546 19.2471C256.172 17.3127 256.253 16.5482 255.616 16.3398V16.2239H257.006V16.3398C256.809 16.3977 256.67 16.5598 256.543 16.9189L254.133 24.332H253.265L251.933 20.2316L250.6 24.332ZM260.535 20.6139C259.562 21.6332 258.067 21.8996 258.067 22.9189C258.067 23.4286 258.438 23.776 258.994 23.776C259.77 23.776 260.535 23.0811 260.535 22.3513V20.6139ZM259.469 18.6564C258.797 18.6564 258.172 19.3398 257.766 20.2896H257.627V19.1313C258.183 18.6679 258.832 18.4247 259.504 18.4247C260.662 18.4247 261.577 19.1544 261.577 20.2432V23.6371C261.577 24.1004 261.739 24.2046 261.924 24.2162V24.332H260.535V23.1042C260.129 23.7992 259.26 24.4479 258.322 24.4479C257.477 24.4479 256.955 23.915 256.955 23.2316C256.955 21.7027 259.619 21.4594 260.535 20.2664V20.2432C260.535 19.3861 260.152 18.6564 259.469 18.6564ZM267.361 22.8031C267.361 23.6834 266.469 24.4479 265.172 24.4479C264.454 24.4479 263.724 24.2162 263.157 23.7413V22.583H263.296C263.701 23.5328 264.303 24.2162 265.172 24.2162C265.855 24.2162 266.342 23.7876 266.342 23.2548C266.342 21.8764 263.145 21.7606 263.145 20.0347C263.145 19.166 263.967 18.4247 265.299 18.4247C265.855 18.4247 266.574 18.5521 267.13 19.0154V20.1737H266.991C266.597 19.2239 266.029 18.6564 265.276 18.6564C264.639 18.6564 264.164 19.0618 264.164 19.5946C264.164 20.973 267.361 21.1235 267.361 22.8031ZM273.846 24.332V24.2162C274.031 24.2046 274.193 24.1004 274.193 23.6371V17.1506C274.193 16.6177 274.008 16.4556 273.626 16.4556C272.977 16.4556 272.386 16.9189 272.166 17.6139H272.05V16.2239H277.379V17.6139H277.263C277.043 16.9189 276.452 16.4556 275.803 16.4556C275.421 16.4556 275.236 16.6177 275.236 17.1506V23.6371C275.236 24.1004 275.398 24.2046 275.583 24.2162V24.332H273.846ZM278.534 24.332V24.2162C278.719 24.2046 278.882 24.1004 278.882 23.6371V16.9189C278.882 16.4556 278.719 16.3513 278.534 16.3398V16.2239H279.924V20.4054C280.237 19.3513 280.897 18.4247 281.951 18.4247C282.878 18.4247 283.515 19.1544 283.515 20.2432V23.6371C283.515 24.1004 283.677 24.2046 283.862 24.2162V24.332H282.125V24.2162C282.31 24.2046 282.472 24.1004 282.472 23.6371V20.2432C282.472 19.4672 282.09 18.9228 281.523 18.9228C280.515 18.9228 279.924 20.6718 279.924 21.9575V23.6371C279.924 24.1004 280.086 24.2046 280.272 24.2162V24.332H278.534ZM285.365 16.9305C285.365 16.6525 285.539 16.4324 285.852 16.4324C286.188 16.4324 286.408 16.6757 286.408 17.0116C286.408 17.4633 286.014 17.915 285.365 18.054C285.724 17.556 285.365 17.3243 285.365 16.9305ZM285.018 24.332V24.2162C285.203 24.2046 285.365 24.1004 285.365 23.6371V19.2355C285.365 18.7722 285.203 18.6679 285.018 18.6564V18.5405H286.408V23.6371C286.408 24.1004 286.57 24.2046 286.755 24.2162V24.332H285.018ZM292.19 22.8031C292.19 23.6834 291.298 24.4479 290.001 24.4479C289.283 24.4479 288.553 24.2162 287.985 23.7413V22.583H288.124C288.53 23.5328 289.132 24.2162 290.001 24.2162C290.684 24.2162 291.171 23.7876 291.171 23.2548C291.171 21.8764 287.974 21.7606 287.974 20.0347C287.974 19.166 288.796 18.4247 290.128 18.4247C290.684 18.4247 291.402 18.5521 291.958 19.0154V20.1737H291.819C291.426 19.2239 290.858 18.6564 290.105 18.6564C289.468 18.6564 288.993 19.0618 288.993 19.5946C288.993 20.973 292.19 21.1235 292.19 22.8031ZM300.505 24.332H299.636L297.204 16.861C297.076 16.5482 296.949 16.3977 296.763 16.3398V16.2239H298.443V16.3398C298.281 16.3977 298.223 16.5598 298.315 16.8957L300.505 23.5907L301.709 19.861L300.736 16.861C300.609 16.5482 300.482 16.3977 300.296 16.3398V16.2239H301.976V16.3398C301.814 16.3977 301.756 16.5598 301.848 16.9073L304.026 23.6139L305.451 19.2471C306.076 17.3127 306.157 16.5482 305.52 16.3398V16.2239H306.91V16.3398C306.713 16.3977 306.574 16.5598 306.447 16.9189L304.037 24.332H303.169L301.837 20.2316L300.505 24.332ZM311.701 22.9421L311.794 23.0116C311.377 23.776 310.566 24.4479 309.535 24.4479C308.041 24.4479 306.86 23.0347 306.86 21.3899C306.86 19.7452 308.041 18.4247 309.651 18.4247C310.809 18.4247 311.667 19.1081 311.667 19.8957C311.667 21.0888 309.744 21.6795 308.076 21.9459C308.331 23.2548 309.257 23.8224 310.103 23.8224C310.74 23.8224 311.365 23.4981 311.701 22.9421ZM308.041 21.7143C309.605 21.471 310.624 20.9266 310.624 19.8262C310.624 19.2123 310.253 18.6564 309.605 18.6564C308.701 18.6564 308.006 19.7567 308.006 21.2046C308.006 21.3899 308.018 21.5521 308.041 21.7143ZM317.8 22.9421L317.893 23.0116C317.476 23.776 316.665 24.4479 315.634 24.4479C314.14 24.4479 312.959 23.0347 312.959 21.3899C312.959 19.7452 314.14 18.4247 315.75 18.4247C316.909 18.4247 317.766 19.1081 317.766 19.8957C317.766 21.0888 315.843 21.6795 314.175 21.9459C314.43 23.2548 315.356 23.8224 316.202 23.8224C316.839 23.8224 317.465 23.4981 317.8 22.9421ZM314.14 21.7143C315.704 21.471 316.723 20.9266 316.723 19.8262C316.723 19.2123 316.353 18.6564 315.704 18.6564C314.8 18.6564 314.105 19.7567 314.105 21.2046C314.105 21.3899 314.117 21.5521 314.14 21.7143ZM319.113 24.332V24.2162C319.298 24.2046 319.461 24.1004 319.461 23.6371V16.9189C319.461 16.4556 319.298 16.3513 319.113 16.3398V16.2239H320.503V21.2973L322.044 19.2471C322.414 18.7606 322.82 18.5405 323.214 18.5405C323.665 18.5405 324.048 18.8417 324.048 19.3513C324.048 20.1737 323.028 20.973 322.136 21.1351L323.549 23.6718C323.758 24.0309 323.885 24.1583 324.082 24.2162V24.332H322.252V24.2162C322.495 24.1815 322.495 23.973 322.322 23.6139L320.932 21.112L320.503 21.6795V23.6371C320.503 24.1004 320.665 24.2046 320.851 24.2162V24.332H319.113ZM321.071 20.9266H321.824C322.6 20.9266 323.121 20.2896 323.121 19.6988C323.121 19.3745 322.97 19.1776 322.739 19.1776C322.484 19.1776 322.217 19.3977 321.916 19.8031L321.071 20.9266ZM328.721 18.0656C328.721 17.0116 328.189 16.3398 327.366 16.3398C326.474 16.3398 325.745 17.139 325.409 18.193H325.293V16.5714H325.409C325.455 16.6641 325.501 16.6988 325.571 16.6988C325.826 16.6988 326.324 16.1081 327.54 16.1081C328.942 16.1081 329.88 16.8957 329.88 18.0888C329.88 20.0579 327.343 20.776 327.343 22.5482H327.111C327.111 20.5907 328.721 19.8957 328.721 18.0656ZM326.625 23.6718C326.625 23.2896 326.903 23.0116 327.285 23.0116C327.667 23.0116 327.945 23.2896 327.945 23.6718C327.945 24.054 327.667 24.332 327.285 24.332C326.903 24.332 326.625 24.054 326.625 23.6718Z"
        fill="#333333" />
    <path
        d="M207.14 126.842V126.726C207.325 126.714 207.488 126.61 207.488 126.147V119.429C207.488 118.965 207.325 118.861 207.14 118.85V118.734H208.877V118.85C208.692 118.861 208.53 118.965 208.53 119.429V126.147C208.53 126.61 208.692 126.714 208.877 126.726V126.842H207.14ZM210.096 119.324C210.096 118.977 210.351 118.734 210.71 118.734C211.092 118.734 211.335 119.023 211.335 119.463C211.335 120.054 210.895 120.761 210.258 121.039L210.177 120.946C210.548 120.656 210.791 120.274 210.501 119.961C210.362 119.811 210.096 119.683 210.096 119.324ZM212.551 126.842V126.726C212.737 126.714 212.899 126.61 212.899 126.147V121.745C212.899 121.282 212.737 121.178 212.551 121.166V121.05H213.941V122.915C214.254 121.861 214.914 120.934 215.968 120.934C216.895 120.934 217.532 121.664 217.532 122.753V122.915C217.845 121.861 218.505 120.934 219.559 120.934C220.486 120.934 221.123 121.664 221.123 122.753V126.147C221.123 126.61 221.285 126.714 221.47 126.726V126.842H219.733V126.726C219.918 126.714 220.08 126.61 220.08 126.147V122.753C220.08 121.977 219.698 121.433 219.131 121.433C218.123 121.433 217.532 123.182 217.532 124.467V126.147C217.532 126.61 217.694 126.714 217.88 126.726V126.842H216.142V126.726C216.328 126.714 216.49 126.61 216.49 126.147V122.753C216.49 121.977 216.107 121.433 215.54 121.433C214.532 121.433 213.941 123.182 213.941 124.467V126.147C213.941 126.61 214.104 126.714 214.289 126.726V126.842H212.551ZM231.377 126.402C230.891 126.402 230.486 126.958 229.513 126.958C227.625 126.958 226.165 124.884 226.165 122.73C226.165 120.448 227.81 118.618 229.837 118.618C231.088 118.618 231.748 119.313 231.991 118.85H232.107V120.471H231.991C231.609 119.417 230.659 118.85 229.814 118.85C228.354 118.85 227.323 120.564 227.323 122.626C227.323 125.116 228.841 126.471 230.173 126.471C230.798 126.471 231.227 126.17 231.227 125.614V123.645C231.227 123.182 231.065 123.077 230.879 123.066V122.95H232.617V123.066C232.432 123.077 232.269 123.182 232.269 123.645V126.842H232.038C231.829 126.552 231.632 126.402 231.377 126.402ZM236.512 121.583C235.632 121.583 235.169 123.066 235.169 124.467V126.147C235.169 126.61 235.331 126.714 235.516 126.726V126.842H233.779V126.726C233.964 126.714 234.126 126.61 234.126 126.147V121.745C234.126 121.282 233.964 121.178 233.779 121.166V121.05H235.169V122.776C235.447 121.768 235.991 120.934 236.779 120.934C237.022 120.934 237.3 121.016 237.52 121.294V122.452H237.381C237.173 121.78 236.825 121.583 236.512 121.583ZM241.909 123.124C240.936 124.143 239.442 124.409 239.442 125.429C239.442 125.938 239.812 126.286 240.368 126.286C241.144 126.286 241.909 125.591 241.909 124.861V123.124ZM240.843 121.166C240.171 121.166 239.546 121.85 239.14 122.799H239.001V121.641C239.557 121.178 240.206 120.934 240.878 120.934C242.036 120.934 242.951 121.664 242.951 122.753V126.147C242.951 126.61 243.113 126.714 243.299 126.726V126.842H241.909V125.614C241.503 126.309 240.635 126.958 239.696 126.958C238.851 126.958 238.33 126.425 238.33 125.741C238.33 124.212 240.994 123.969 241.909 122.776V122.753C241.909 121.896 241.526 121.166 240.843 121.166ZM247.183 126.286C246.986 126.691 246.581 126.958 246.129 126.958C245.434 126.958 244.983 126.332 244.983 125.394V121.282H244.288V121.05C245.029 121.004 245.55 120.564 245.793 119.707H246.025V121.05H247.183V121.282H246.025V125.487C246.025 126.135 246.21 126.483 246.569 126.483C246.72 126.483 246.928 126.425 247.091 126.216L247.183 126.286ZM253.017 125.452L253.109 125.521C252.692 126.286 251.882 126.958 250.851 126.958C249.357 126.958 248.175 125.544 248.175 123.9C248.175 122.255 249.357 120.934 250.967 120.934C252.125 120.934 252.982 121.618 252.982 122.406C252.982 123.599 251.059 124.189 249.391 124.456C249.646 125.765 250.573 126.332 251.418 126.332C252.055 126.332 252.681 126.008 253.017 125.452ZM249.357 124.224C250.92 123.981 251.94 123.436 251.94 122.336C251.94 121.722 251.569 121.166 250.92 121.166C250.017 121.166 249.322 122.267 249.322 123.714C249.322 123.9 249.333 124.062 249.357 124.224ZM256.611 118.618C257.017 118.618 257.48 118.734 257.885 119.104V120.263H257.746C257.411 119.313 257.028 118.85 256.577 118.85C256.009 118.85 255.893 119.614 255.893 120.517V121.05H257.052V121.282H255.893V126.147C255.893 126.61 256.055 126.714 256.241 126.726V126.842H254.503V126.726C254.689 126.714 254.851 126.61 254.851 126.147V121.282H254.156V121.05H254.851V120.517C254.851 119.533 255.476 118.618 256.611 118.618ZM263.452 121.05V126.147C263.452 126.61 263.615 126.714 263.8 126.726V126.842H262.41V124.977C262.097 126.031 261.437 126.958 260.383 126.958C259.456 126.958 258.819 126.228 258.819 125.139V121.745C258.819 121.282 258.657 121.178 258.472 121.166V121.05H259.862V125.139C259.862 125.915 260.244 126.46 260.812 126.46C261.819 126.46 262.41 124.711 262.41 123.425V121.745C262.41 121.282 262.248 121.178 262.063 121.166V121.05H263.452ZM264.956 126.842V126.726C265.141 126.714 265.303 126.61 265.303 126.147V119.429C265.303 118.965 265.141 118.861 264.956 118.85V118.734H266.346V126.147C266.346 126.61 266.508 126.714 266.693 126.726V126.842H264.956ZM273.124 126.842V126.726C273.309 126.714 273.471 126.61 273.471 126.147V119.66C273.471 119.128 273.286 118.965 272.904 118.965C272.255 118.965 271.664 119.429 271.444 120.124H271.328V118.734H276.657V120.124H276.541C276.321 119.429 275.73 118.965 275.081 118.965C274.699 118.965 274.514 119.128 274.514 119.66V126.147C274.514 126.61 274.676 126.714 274.861 126.726V126.842H273.124ZM277.812 126.842V126.726C277.998 126.714 278.16 126.61 278.16 126.147V119.429C278.16 118.965 277.998 118.861 277.812 118.85V118.734H279.202V122.915C279.515 121.861 280.175 120.934 281.229 120.934C282.156 120.934 282.793 121.664 282.793 122.753V126.147C282.793 126.61 282.955 126.714 283.14 126.726V126.842H281.403V126.726C281.588 126.714 281.75 126.61 281.75 126.147V122.753C281.75 121.977 281.368 121.433 280.801 121.433C279.793 121.433 279.202 123.182 279.202 124.467V126.147C279.202 126.61 279.364 126.714 279.55 126.726V126.842H277.812ZM284.643 119.44C284.643 119.162 284.817 118.942 285.13 118.942C285.466 118.942 285.686 119.185 285.686 119.521C285.686 119.973 285.292 120.425 284.643 120.564C285.003 120.066 284.643 119.834 284.643 119.44ZM284.296 126.842V126.726C284.481 126.714 284.643 126.61 284.643 126.147V121.745C284.643 121.282 284.481 121.178 284.296 121.166V121.05H285.686V126.147C285.686 126.61 285.848 126.714 286.033 126.726V126.842H284.296ZM291.468 125.313C291.468 126.193 290.576 126.958 289.279 126.958C288.561 126.958 287.831 126.726 287.264 126.251V125.093H287.403C287.808 126.043 288.41 126.726 289.279 126.726C289.962 126.726 290.449 126.297 290.449 125.765C290.449 124.386 287.252 124.27 287.252 122.544C287.252 121.676 288.074 120.934 289.406 120.934C289.962 120.934 290.681 121.062 291.236 121.525V122.683H291.097C290.704 121.734 290.136 121.166 289.383 121.166C288.746 121.166 288.271 121.572 288.271 122.104C288.271 123.483 291.468 123.633 291.468 125.313ZM299.783 126.842H298.914L296.482 119.371C296.354 119.058 296.227 118.907 296.041 118.85V118.734H297.721V118.85C297.559 118.907 297.501 119.07 297.594 119.406L299.783 126.1L300.987 122.371L300.014 119.371C299.887 119.058 299.76 118.907 299.574 118.85V118.734H301.254V118.85C301.092 118.907 301.034 119.07 301.126 119.417L303.304 126.124L304.729 121.757C305.354 119.822 305.435 119.058 304.798 118.85V118.734H306.188V118.85C305.991 118.907 305.852 119.07 305.725 119.429L303.316 126.842H302.447L301.115 122.741L299.783 126.842ZM310.979 125.452L311.072 125.521C310.655 126.286 309.844 126.958 308.813 126.958C307.319 126.958 306.138 125.544 306.138 123.9C306.138 122.255 307.319 120.934 308.929 120.934C310.087 120.934 310.945 121.618 310.945 122.406C310.945 123.599 309.022 124.189 307.354 124.456C307.609 125.765 308.535 126.332 309.381 126.332C310.018 126.332 310.643 126.008 310.979 125.452ZM307.319 124.224C308.883 123.981 309.902 123.436 309.902 122.336C309.902 121.722 309.531 121.166 308.883 121.166C307.979 121.166 307.284 122.267 307.284 123.714C307.284 123.9 307.296 124.062 307.319 124.224ZM317.079 125.452L317.171 125.521C316.754 126.286 315.943 126.958 314.913 126.958C313.418 126.958 312.237 125.544 312.237 123.9C312.237 122.255 313.418 120.934 315.028 120.934C316.187 120.934 317.044 121.618 317.044 122.406C317.044 123.599 315.121 124.189 313.453 124.456C313.708 125.765 314.635 126.332 315.48 126.332C316.117 126.332 316.743 126.008 317.079 125.452ZM313.418 124.224C314.982 123.981 316.001 123.436 316.001 122.336C316.001 121.722 315.631 121.166 314.982 121.166C314.079 121.166 313.384 122.267 313.384 123.714C313.384 123.9 313.395 124.062 313.418 124.224ZM318.391 126.842V126.726C318.577 126.714 318.739 126.61 318.739 126.147V119.429C318.739 118.965 318.577 118.861 318.391 118.85V118.734H319.781V123.807L321.322 121.757C321.692 121.27 322.098 121.05 322.492 121.05C322.943 121.05 323.326 121.351 323.326 121.861C323.326 122.683 322.306 123.483 321.414 123.645L322.828 126.182C323.036 126.541 323.163 126.668 323.36 126.726V126.842H321.53V126.726C321.773 126.691 321.773 126.483 321.6 126.124L320.21 123.622L319.781 124.189V126.147C319.781 126.61 319.943 126.714 320.129 126.726V126.842H318.391ZM320.349 123.436H321.102C321.878 123.436 322.399 122.799 322.399 122.209C322.399 121.884 322.248 121.687 322.017 121.687C321.762 121.687 321.495 121.907 321.194 122.313L320.349 123.436ZM327.988 126.842V126.726C328.173 126.714 328.335 126.61 328.335 126.147V119.429C328.335 118.965 328.173 118.861 327.988 118.85V118.734H332.795V120.124H332.679C332.459 119.429 331.834 118.965 331.115 118.965H329.725C329.494 118.965 329.378 119.128 329.378 119.429V122.88C329.644 122.568 330.05 122.324 330.536 122.324C330.942 122.324 331.208 122.151 331.347 121.745H331.463V123.135H331.347C331.185 122.718 330.895 122.556 330.536 122.556C329.992 122.556 329.575 122.915 329.378 123.286V126.147C329.378 126.61 329.54 126.714 329.725 126.726V126.842H327.988ZM332.856 123.946C332.856 122.255 334.106 120.934 335.693 120.934C337.28 120.934 338.531 122.255 338.531 123.946C338.531 125.637 337.28 126.958 335.693 126.958C334.106 126.958 332.856 125.637 332.856 123.946ZM334.014 123.946C334.014 125.626 334.674 126.726 335.693 126.726C336.713 126.726 337.373 125.626 337.373 123.946C337.373 122.267 336.713 121.166 335.693 121.166C334.674 121.166 334.014 122.267 334.014 123.946ZM342.479 121.583C341.598 121.583 341.135 123.066 341.135 124.467V126.147C341.135 126.61 341.297 126.714 341.483 126.726V126.842H339.745V126.726C339.93 126.714 340.093 126.61 340.093 126.147V121.745C340.093 121.282 339.93 121.178 339.745 121.166V121.05H341.135V122.776C341.413 121.768 341.957 120.934 342.745 120.934C342.988 120.934 343.266 121.016 343.486 121.294V122.452H343.347C343.139 121.78 342.791 121.583 342.479 121.583Z"
        fill="#333333" />
    <rect x="18.7141" y="139.367" width="160.811" height="17.9537" rx="8.97683" stroke="#9A9A9A"
        stroke-width="0.965251" />
    <path
        d="M29.7183 146.955C29.7183 145.703 28.7025 144.688 27.45 144.688C26.1974 144.688 25.1816 145.703 25.1816 146.955C25.1816 147.612 25.4648 148.197 25.9105 148.613L25.9049 148.615L29.7183 152.428L33.5342 148.615C33.5324 148.613 33.5311 148.613 33.5293 148.612C33.9736 148.196 34.255 147.612 34.255 146.955C34.255 145.703 33.2413 144.688 31.9869 144.688C30.7347 144.688 29.7183 145.703 29.7183 146.955Z"
        stroke="#9A9A9A" stroke-width="0.965251" stroke-linejoin="round" />
    <rect x="194.969" y="139.367" width="160.811" height="17.9537" rx="8.97683" stroke="#9A9A9A"
        stroke-width="0.965251" />
    <path
        d="M205.973 146.955C205.973 145.703 204.957 144.688 203.705 144.688C202.452 144.688 201.437 145.703 201.437 146.955C201.437 147.612 201.72 148.197 202.165 148.613L202.16 148.615L205.973 152.428L209.789 148.615C209.787 148.613 209.786 148.613 209.784 148.612C210.228 148.196 210.51 147.612 210.51 146.955C210.51 145.703 209.496 144.688 208.242 144.688C206.99 144.688 205.973 145.703 205.973 146.955Z"
        stroke="#9A9A9A" stroke-width="0.965251" stroke-linejoin="round" />
    <rect x="371.224" y="139.367" width="160.811" height="17.9537" rx="8.97683" stroke="#9A9A9A"
        stroke-width="0.965251" />
    <path
        d="M382.228 146.955C382.228 145.703 381.212 144.688 379.96 144.688C378.707 144.688 377.691 145.703 377.691 146.955C377.691 147.612 377.975 148.197 378.42 148.613L378.415 148.615L382.228 152.428L386.044 148.615C386.042 148.613 386.041 148.613 386.039 148.612C386.483 148.196 386.765 147.612 386.765 146.955C386.765 145.703 385.751 144.688 384.497 144.688C383.245 144.688 382.228 145.703 382.228 146.955Z"
        stroke="#9A9A9A" stroke-width="0.965251" stroke-linejoin="round" />
    <path d="M0.470703 201.24H266.108" stroke="#333333" stroke-width="0.965251" />
    <path d="M0.470703 219.966H266.108" stroke="#9A9A9A" stroke-width="0.579151" />
    <path d="M0.470703 238.691H266.108" stroke="#9A9A9A" stroke-width="0.579151" />
    <path d="M0.470703 257.417H266.108" stroke="#9A9A9A" stroke-width="0.579151" />
    <path d="M0.470703 276.143H266.108" stroke="#9A9A9A" stroke-width="0.579151" />
    <path
        d="M2.82592 194.819C1.64445 194.819 0.87997 194.24 0.725529 193.228L1.49001 193.043C1.60584 193.738 2.11549 194.147 2.87225 194.147C3.53634 194.147 3.92244 193.823 3.92244 193.321C3.92244 192.718 3.3124 192.587 2.64059 192.417C1.82978 192.201 0.910858 191.946 0.910858 190.888C0.910858 190.016 1.63673 189.413 2.75642 189.413C3.6985 189.413 4.50159 189.838 4.71009 190.881L3.99194 191.066C3.84522 190.363 3.37418 190.077 2.75642 190.077C2.10005 190.077 1.6985 190.386 1.6985 190.865C1.6985 191.413 2.25449 191.545 2.94947 191.714C3.768 191.915 4.71781 192.209 4.71781 193.236C4.71781 194.216 4.05371 194.819 2.82592 194.819ZM8.70007 193.282L10.036 189.514H11.4028V194.726H10.6074V189.946L8.97806 194.726H8.41436L6.78501 189.946V194.726H5.98965V189.514H7.35644L8.70007 193.282ZM17.3707 194.726H16.5213L16.0734 193.521H13.7027L13.2548 194.726H12.4054L14.39 189.514H15.3861L17.3707 194.726ZM14.8919 190.317L13.9498 192.85H15.8263L14.8919 190.317ZM21.8192 194.726H18.3675V189.514H19.1628V194.023H21.8192V194.726ZM26.383 194.726H22.9313V189.514H23.7267V194.023H26.383V194.726ZM34.3336 193.962L35.546 189.514H36.3722L34.9437 194.726H33.7931L32.797 190.734L31.8008 194.726H30.6502L29.2217 189.514H30.0479L31.2526 193.946L32.3568 189.514H33.2294L34.3336 193.962ZM38.2175 194.726H37.4221V189.514H38.2175V194.726ZM43.3002 193.645V189.514H44.0956V194.726H43.1226L40.4662 190.572V194.726H39.6709V189.514H40.6361L43.3002 193.645ZM47.3768 194.819C46.1953 194.819 45.4308 194.24 45.2764 193.228L46.0409 193.043C46.1567 193.738 46.6663 194.147 47.4231 194.147C48.0872 194.147 48.4733 193.823 48.4733 193.321C48.4733 192.718 47.8633 192.587 47.1914 192.417C46.3806 192.201 45.4617 191.946 45.4617 190.888C45.4617 190.016 46.1876 189.413 47.3073 189.413C48.2494 189.413 49.0524 189.838 49.2609 190.881L48.5428 191.066C48.3961 190.363 47.925 190.077 47.3073 190.077C46.6509 190.077 46.2494 190.386 46.2494 190.865C46.2494 191.413 46.8053 191.545 47.5003 191.714C48.3189 191.915 49.2687 192.209 49.2687 193.236C49.2687 194.216 48.6046 194.819 47.3768 194.819ZM55.3418 194.819C53.7974 194.819 52.7086 193.722 52.7086 192.116C52.7086 190.518 53.7974 189.413 55.3418 189.413C56.8862 189.413 57.975 190.518 57.975 192.116C57.975 193.722 56.8862 194.819 55.3418 194.819ZM55.3418 194.085C56.4229 194.085 57.1796 193.298 57.1796 192.116C57.1796 190.942 56.4229 190.147 55.3418 190.147C54.2607 190.147 53.5039 190.942 53.5039 192.116C53.5039 193.298 54.2607 194.085 55.3418 194.085ZM62.8068 189.514V190.216H59.996V191.753H62.5288V192.448H59.996V194.726H59.2006V189.514H62.8068ZM65.0674 189.514H69.4149V190.216H67.6388V194.726H66.8435V190.216H65.0674V189.514ZM71.2065 194.726H70.4111V189.514H71.2065V191.745H73.8088V189.514H74.6041V194.726H73.8088V192.448H71.2065V194.726ZM79.667 189.514V190.216H76.8562V191.753H79.4354V192.448H76.8562V194.023H79.667V194.726H76.0608V189.514H79.667ZM87.8327 193.962L89.045 189.514H89.8713L88.4427 194.726H87.2921L86.296 190.734L85.2999 194.726H84.1493L82.7207 189.514H83.547L84.7516 193.946L85.8558 189.514H86.7284L87.8327 193.962ZM94.5273 189.514V190.216H91.7165V191.753H94.2957V192.448H91.7165V194.023H94.5273V194.726H90.9212V189.514H94.5273ZM99.3476 189.514V190.216H96.5368V191.753H99.1159V192.448H96.5368V194.023H99.3476V194.726H95.7414V189.514H99.3476ZM104.855 194.726H103.967L102.307 192L101.357 192.958V194.726H100.562V189.514H101.357V191.946L103.759 189.514H104.755L102.855 191.436L104.855 194.726Z"
        fill="#333333" />
    <path d="M0.470703 308.189H266.108" stroke="#333333" stroke-width="0.965251" />
    <path d="M0.470703 326.915H266.108" stroke="#9A9A9A" stroke-width="0.579151" />
    <path d="M0.470703 345.641H266.108" stroke="#9A9A9A" stroke-width="0.579151" />
    <path d="M0.470703 364.367H266.108" stroke="#9A9A9A" stroke-width="0.579151" />
    <path d="M0.470703 383.092H266.108" stroke="#9A9A9A" stroke-width="0.579151" />
    <path
        d="M5.71395 300.911L6.9263 296.463H7.75256L6.32399 301.676H5.17341L4.17727 297.684L3.18113 301.676H2.03055L0.601977 296.463H1.42823L2.63287 300.896L3.73711 296.463H4.6097L5.71395 300.911ZM9.59781 301.676H8.80245V296.463H9.59781V298.695H12.2001V296.463H12.9955V301.676H12.2001V299.398H9.59781V301.676ZM18.9618 301.676H18.1124L17.6645 300.471H15.2939L14.846 301.676H13.9966L15.9811 296.463H16.9773L18.9618 301.676ZM16.4831 297.267L15.541 299.799H17.4174L16.4831 297.267ZM18.7489 296.463H23.0964V297.166H21.3204V301.676H20.525V297.166H18.7489V296.463ZM24.4175 298.695H23.8306L24.2631 296.463H25.043L24.4175 298.695ZM28.0431 301.768C26.8616 301.768 26.0972 301.189 25.9427 300.178L26.7072 299.992C26.823 300.687 27.3327 301.097 28.0894 301.097C28.7535 301.097 29.1396 300.772 29.1396 300.27C29.1396 299.668 28.5296 299.537 27.8578 299.367C27.047 299.151 26.128 298.896 26.128 297.838C26.128 296.965 26.8539 296.363 27.9736 296.363C28.9157 296.363 29.7188 296.788 29.9273 297.83L29.2091 298.016C29.0624 297.313 28.5914 297.027 27.9736 297.027C27.3172 297.027 26.9157 297.336 26.9157 297.815C26.9157 298.363 27.4717 298.494 28.1666 298.664C28.9852 298.865 29.935 299.158 29.935 300.185C29.935 301.166 29.2709 301.768 28.0431 301.768ZM37.6915 299.707H35.3826V299.035H38.4328V301.676H37.7224V300.811C37.3826 301.444 36.788 301.768 35.9386 301.768C34.4483 301.768 33.3749 300.672 33.3749 299.066C33.3749 297.467 34.4714 296.363 36.0081 296.363C37.0583 296.363 38.1934 296.927 38.5255 298.239L37.761 298.448C37.568 297.676 36.9502 297.097 36.0081 297.097C34.927 297.097 34.1703 297.892 34.1703 299.066C34.1703 300.239 34.8961 301.035 36.0081 301.035C36.8575 301.035 37.4985 300.572 37.6915 299.707ZM42.1631 301.768C40.6187 301.768 39.5299 300.672 39.5299 299.066C39.5299 297.467 40.6187 296.363 42.1631 296.363C43.7075 296.363 44.7963 297.467 44.7963 299.066C44.7963 300.672 43.7075 301.768 42.1631 301.768ZM42.1631 301.035C43.2442 301.035 44.0009 300.247 44.0009 299.066C44.0009 297.892 43.2442 297.097 42.1631 297.097C41.082 297.097 40.3253 297.892 40.3253 299.066C40.3253 300.247 41.082 301.035 42.1631 301.035ZM46.8173 301.676H46.0219V296.463H46.8173V301.676ZM51.9 300.595V296.463H52.6954V301.676H51.7224L49.066 297.521V301.676H48.2707V296.463H49.2359L51.9 300.595ZM58.2468 299.707H55.9379V299.035H58.9881V301.676H58.2777V300.811C57.9379 301.444 57.3433 301.768 56.4939 301.768C55.0036 301.768 53.9302 300.672 53.9302 299.066C53.9302 297.467 55.0267 296.363 56.5634 296.363C57.6136 296.363 58.7488 296.927 59.0808 298.239L58.3163 298.448C58.1233 297.676 57.5055 297.097 56.5634 297.097C55.4823 297.097 54.7256 297.892 54.7256 299.066C54.7256 300.239 55.4515 301.035 56.5634 301.035C57.4128 301.035 58.0538 300.572 58.2468 299.707ZM67.2608 300.911L68.4731 296.463H69.2994L67.8708 301.676H66.7202L65.7241 297.684L64.7279 301.676H63.5774L62.1488 296.463H62.975L64.1797 300.896L65.2839 296.463H66.1565L67.2608 300.911ZM73.9554 296.463V297.166H71.1446V298.703H73.7238V299.398H71.1446V300.973H73.9554V301.676H70.3493V296.463H73.9554ZM78.6212 301.676H75.1695V296.463H75.9649V300.973H78.6212V301.676ZM83.185 301.676H79.7333V296.463H80.5287V300.973H83.185V301.676ZM85.3999 300.131H84.9366C84.9366 299.398 85.1605 299.151 85.5543 298.842C85.8091 298.641 86.0949 298.409 86.0949 297.884C86.0949 297.344 85.7474 297.004 85.1605 297.004C84.5659 297.004 84.1952 297.382 84.1952 297.977C84.1952 298.077 84.203 298.17 84.2184 298.278L83.5543 298.363C83.5312 298.216 83.5157 298.07 83.5157 297.938C83.5157 296.95 84.1798 296.363 85.1528 296.363C86.1412 296.363 86.8207 296.95 86.8207 297.861C86.8207 298.68 86.3034 299.004 85.9173 299.259C85.508 299.537 85.3999 299.707 85.3999 300.131ZM85.5543 301.676H84.7898V300.579H85.5543V301.676Z"
        fill="#333333" />
    <path d="M0.470703 415.14H266.108" stroke="#333333" stroke-width="0.965251" />
    <path d="M0.470703 433.866H266.108" stroke="#9A9A9A" stroke-width="0.579151" />
    <path d="M0.470703 452.592H266.108" stroke="#9A9A9A" stroke-width="0.579151" />
    <path d="M0.470703 471.317H266.108" stroke="#9A9A9A" stroke-width="0.579151" />
    <path d="M0.470703 490.043H266.108" stroke="#9A9A9A" stroke-width="0.579151" />
    <path
        d="M0.547923 403.414H4.89541V404.116H3.11935V408.626H2.32399V404.116H0.547923V403.414ZM9.64716 408.626H8.79774L8.34987 407.421H5.97921L5.53133 408.626H4.68191L6.66647 403.414H7.66261L9.64716 408.626ZM7.1684 404.217L6.22631 406.75H8.10276L7.1684 404.217ZM12.4211 408.719C11.2396 408.719 10.4752 408.139 10.3207 407.128L11.0852 406.943C11.201 407.638 11.7107 408.047 12.4674 408.047C13.1315 408.047 13.5176 407.723 13.5176 407.221C13.5176 406.618 12.9076 406.487 12.2358 406.317C11.425 406.101 10.5061 405.846 10.5061 404.788C10.5061 403.916 11.2319 403.313 12.3516 403.313C13.2937 403.313 14.0968 403.738 14.3053 404.78L13.5871 404.966C13.4404 404.263 12.9694 403.977 12.3516 403.977C11.6952 403.977 11.2937 404.286 11.2937 404.765C11.2937 405.313 11.8497 405.445 12.5447 405.614C13.3632 405.815 14.313 406.109 14.313 407.136C14.313 408.116 13.6489 408.719 12.4211 408.719ZM19.8783 408.626H18.9903L17.33 405.9L16.3802 406.858V408.626H15.5848V403.414H16.3802V405.846L18.7818 403.414H19.7779L17.8783 405.336L19.8783 408.626ZM22.5743 408.719C21.3929 408.719 20.6284 408.139 20.474 407.128L21.2384 406.943C21.3543 407.638 21.8639 408.047 22.6207 408.047C23.2848 408.047 23.6709 407.723 23.6709 407.221C23.6709 406.618 23.0608 406.487 22.389 406.317C21.5782 406.101 20.6593 405.846 20.6593 404.788C20.6593 403.916 21.3852 403.313 22.5048 403.313C23.4469 403.313 24.25 403.738 24.4585 404.78L23.7404 404.966C23.5937 404.263 23.1226 403.977 22.5048 403.977C21.8485 403.977 21.4469 404.286 21.4469 404.765C21.4469 405.313 22.0029 405.445 22.6979 405.614C23.5164 405.815 24.4662 406.109 24.4662 407.136C24.4662 408.116 23.8021 408.719 22.5743 408.719ZM28.9255 408.626H28.1301V403.414H28.9255V408.626ZM34.0082 407.545V403.414H34.8035V408.626H33.8306L31.1742 404.472V408.626H30.3788V403.414H31.3441L34.0082 407.545ZM38.6543 403.414H40.7933C41.9053 403.414 42.6003 403.838 42.6003 404.943C42.6003 406.047 41.9053 406.472 40.7933 406.472H39.4497V408.626H38.6543V403.414ZM39.4497 405.769H40.7625C41.442 405.769 41.8049 405.56 41.8049 404.943C41.8049 404.325 41.4343 404.116 40.7625 404.116H39.4497V405.769ZM47.8389 408.626H46.9509L45.6536 406.472H44.5339V408.626H43.7385V403.414H45.9933C47.1053 403.414 47.8003 403.838 47.8003 404.943C47.8003 405.869 47.3138 406.317 46.503 406.433L47.8389 408.626ZM45.9624 404.116H44.5339V405.769H45.9624C46.642 405.769 47.0049 405.56 47.0049 404.943C47.0049 404.325 46.6265 404.116 45.9624 404.116ZM51.4506 408.719C49.9062 408.719 48.8174 407.622 48.8174 406.016C48.8174 404.417 49.9062 403.313 51.4506 403.313C52.995 403.313 54.0838 404.417 54.0838 406.016C54.0838 407.622 52.995 408.719 51.4506 408.719ZM51.4506 407.985C52.5317 407.985 53.2885 407.197 53.2885 406.016C53.2885 404.842 52.5317 404.047 51.4506 404.047C50.3695 404.047 49.6128 404.842 49.6128 406.016C49.6128 407.197 50.3695 407.985 51.4506 407.985ZM59.4021 406.657H57.0932V405.985H60.1434V408.626H59.433V407.761C59.0932 408.394 58.4986 408.719 57.6492 408.719C56.1589 408.719 55.0855 407.622 55.0855 406.016C55.0855 404.417 56.182 403.313 57.7187 403.313C58.7689 403.313 59.904 403.877 60.2361 405.19L59.4716 405.398C59.2786 404.626 58.6608 404.047 57.7187 404.047C56.6376 404.047 55.8809 404.842 55.8809 406.016C55.8809 407.19 56.6067 407.985 57.7187 407.985C58.5681 407.985 59.2091 407.522 59.4021 406.657ZM65.5648 408.626H64.6768L63.3795 406.472H62.2598V408.626H61.4644V403.414H63.7193C64.8312 403.414 65.5262 403.838 65.5262 404.943C65.5262 405.869 65.0397 406.317 64.2289 406.433L65.5648 408.626ZM63.6884 404.116H62.2598V405.769H63.6884C64.3679 405.769 64.7308 405.56 64.7308 404.943C64.7308 404.325 64.3525 404.116 63.6884 404.116ZM70.3735 403.414V404.116H67.5626V405.653H70.1418V406.348H67.5626V407.923H70.3735V408.626H66.7673V403.414H70.3735ZM73.3119 408.719C72.1304 408.719 71.3659 408.139 71.2115 407.128L71.976 406.943C72.0918 407.638 72.6014 408.047 73.3582 408.047C74.0223 408.047 74.4084 407.723 74.4084 407.221C74.4084 406.618 73.7983 406.487 73.1265 406.317C72.3157 406.101 71.3968 405.846 71.3968 404.788C71.3968 403.916 72.1227 403.313 73.2424 403.313C74.1844 403.313 74.9875 403.738 75.196 404.78L74.4779 404.966C74.3312 404.263 73.8601 403.977 73.2424 403.977C72.586 403.977 72.1844 404.286 72.1844 404.765C72.1844 405.313 72.7404 405.445 73.4354 405.614C74.2539 405.815 75.2038 406.109 75.2038 407.136C75.2038 408.116 74.5397 408.719 73.3119 408.719ZM78.298 408.719C77.1165 408.719 76.352 408.139 76.1976 407.128L76.9621 406.943C77.0779 407.638 77.5876 408.047 78.3443 408.047C79.0084 408.047 79.3945 407.723 79.3945 407.221C79.3945 406.618 78.7845 406.487 78.1127 406.317C77.3018 406.101 76.3829 405.846 76.3829 404.788C76.3829 403.916 77.1088 403.313 78.2285 403.313C79.1706 403.313 79.9737 403.738 80.1822 404.78L79.464 404.966C79.3173 404.263 78.8462 403.977 78.2285 403.977C77.5721 403.977 77.1706 404.286 77.1706 404.765C77.1706 405.313 77.7266 405.445 78.4215 405.614C79.2401 405.815 80.1899 406.109 80.1899 407.136C80.1899 408.116 79.5258 408.719 78.298 408.719ZM82.2262 405.923H81.4617V404.834H82.2262V405.923ZM82.2262 408.626H81.4617V407.529H82.2262V408.626Z"
        fill="#333333" />
    <path d="M284.447 201.24H550.084" stroke="#333333" stroke-width="0.965251" />
    <path d="M284.447 219.966H550.084" stroke="#9A9A9A" stroke-width="0.579151" />
    <path d="M284.447 238.691H550.084" stroke="#9A9A9A" stroke-width="0.579151" />
    <path d="M284.447 257.417H550.084" stroke="#9A9A9A" stroke-width="0.579151" />
    <path d="M284.447 276.143H550.084" stroke="#9A9A9A" stroke-width="0.579151" />
    <path
        d="M284.524 189.514H288.872V190.216H287.096V194.726H286.301V190.216H284.524V189.514ZM290.664 194.726H289.868V189.514H290.664V191.745H293.266V189.514H294.061V194.726H293.266V192.448H290.664V194.726ZM296.313 194.726H295.518V189.514H296.313V194.726ZM301.396 193.645V189.514H302.191V194.726H301.218L298.562 190.572V194.726H297.767V189.514H298.732L301.396 193.645ZM307.743 192.757H305.434V192.085H308.484V194.726H307.774V193.861C307.434 194.494 306.839 194.819 305.99 194.819C304.5 194.819 303.426 193.722 303.426 192.116C303.426 190.518 304.523 189.413 306.059 189.413C307.11 189.413 308.245 189.977 308.577 191.29L307.812 191.498C307.619 190.726 307.002 190.147 306.059 190.147C304.978 190.147 304.222 190.942 304.222 192.116C304.222 193.29 304.947 194.085 306.059 194.085C306.909 194.085 307.55 193.622 307.743 192.757ZM312.993 194.726H312.197V189.514H312.993V194.726ZM319.247 194.819C317.703 194.819 316.614 193.722 316.614 192.116C316.614 190.518 317.703 189.413 319.247 189.413C320.521 189.413 321.487 190.17 321.772 191.328L321.008 191.521C320.822 190.749 320.205 190.147 319.247 190.147C318.166 190.147 317.409 190.942 317.409 192.116C317.409 193.298 318.166 194.085 319.247 194.085C319.988 194.085 320.583 193.707 320.861 193.081L321.602 193.359C321.216 194.255 320.344 194.819 319.247 194.819ZM327.374 194.726H326.525L326.077 193.521H323.706L323.259 194.726H322.409L324.394 189.514H325.39L327.374 194.726ZM324.896 190.317L323.953 192.85H325.83L324.896 190.317ZM332 193.645V189.514H332.796V194.726H331.823L329.166 190.572V194.726H328.371V189.514H329.336L332 193.645ZM337.442 194.726H336.647V189.514H337.442V194.726ZM341.606 193.282L342.942 189.514H344.309V194.726H343.513V189.946L341.884 194.726H341.32L339.691 189.946V194.726H338.895V189.514H340.262L341.606 193.282ZM345.767 189.514H347.906C349.018 189.514 349.713 189.938 349.713 191.043C349.713 192.147 349.018 192.572 347.906 192.572H346.562V194.726H345.767V189.514ZM346.562 191.869H347.875C348.554 191.869 348.917 191.66 348.917 191.043C348.917 190.425 348.547 190.216 347.875 190.216H346.562V191.869ZM354.951 194.726H354.063L352.766 192.572H351.646V194.726H350.851V189.514H353.106C354.218 189.514 354.913 189.938 354.913 191.043C354.913 191.969 354.426 192.417 353.615 192.533L354.951 194.726ZM353.075 190.216H351.646V191.869H353.075C353.754 191.869 354.117 191.66 354.117 191.043C354.117 190.425 353.739 190.216 353.075 190.216ZM358.563 194.819C357.019 194.819 355.93 193.722 355.93 192.116C355.93 190.518 357.019 189.413 358.563 189.413C360.107 189.413 361.196 190.518 361.196 192.116C361.196 193.722 360.107 194.819 358.563 194.819ZM358.563 194.085C359.644 194.085 360.401 193.298 360.401 192.116C360.401 190.942 359.644 190.147 358.563 190.147C357.482 190.147 356.725 190.942 356.725 192.116C356.725 193.298 357.482 194.085 358.563 194.085ZM364.211 193.931L365.848 189.514H366.69L364.713 194.726H363.709L361.733 189.514H362.574L364.211 193.931ZM371.293 189.514V190.216H368.482V191.753H371.062V192.448H368.482V194.023H371.293V194.726H367.687V189.514H371.293ZM377.309 194.819C375.764 194.819 374.675 193.722 374.675 192.116C374.675 190.518 375.764 189.413 377.309 189.413C378.853 189.413 379.942 190.518 379.942 192.116C379.942 193.722 378.853 194.819 377.309 194.819ZM377.309 194.085C378.39 194.085 379.146 193.298 379.146 192.116C379.146 190.942 378.39 190.147 377.309 190.147C376.227 190.147 375.471 190.942 375.471 192.116C375.471 193.298 376.227 194.085 377.309 194.085ZM384.797 193.645V189.514H385.592V194.726H384.619L381.963 190.572V194.726H381.167V189.514H382.133L384.797 193.645ZM387.815 192.023H387.051V190.935H387.815V192.023ZM387.815 194.726H387.051V193.63H387.815V194.726Z"
        fill="#333333" />
    <path d="M284.447 308.189H550.084" stroke="#333333" stroke-width="0.965251" />
    <path d="M284.447 326.915H550.084" stroke="#9A9A9A" stroke-width="0.579151" />
    <path d="M284.447 345.641H550.084" stroke="#9A9A9A" stroke-width="0.579151" />
    <path d="M284.447 364.367H550.084" stroke="#9A9A9A" stroke-width="0.579151" />
    <path d="M284.447 383.092H550.084" stroke="#9A9A9A" stroke-width="0.579151" />
    <path
        d="M289.691 300.911L290.903 296.463H291.729L290.301 301.676H289.15L288.154 297.684L287.158 301.676H286.007L284.579 296.463H285.405L286.609 300.896L287.714 296.463H288.586L289.691 300.911ZM293.574 301.676H292.779V296.463H293.574V298.695H296.177V296.463H296.972V301.676H296.177V299.398H293.574V301.676ZM302.938 301.676H302.089L301.641 300.471H299.27L298.823 301.676H297.973L299.958 296.463H300.954L302.938 301.676ZM300.46 297.267L299.518 299.799H301.394L300.46 297.267ZM302.725 296.463H307.073V297.166H305.297V301.676H304.502V297.166H302.725V296.463ZM308.394 298.695H307.807L308.24 296.463H309.02L308.394 298.695ZM312.02 301.768C310.838 301.768 310.074 301.189 309.919 300.178L310.684 299.992C310.8 300.687 311.309 301.097 312.066 301.097C312.73 301.097 313.116 300.772 313.116 300.27C313.116 299.668 312.506 299.537 311.834 299.367C311.024 299.151 310.105 298.896 310.105 297.838C310.105 296.965 310.83 296.363 311.95 296.363C312.892 296.363 313.695 296.788 313.904 297.83L313.186 298.016C313.039 297.313 312.568 297.027 311.95 297.027C311.294 297.027 310.892 297.336 310.892 297.815C310.892 298.363 311.448 298.494 312.143 298.664C312.962 298.865 313.912 299.158 313.912 300.185C313.912 301.166 313.247 301.768 312.02 301.768ZM321.205 300.595V296.463H322V301.676H321.027L318.371 297.521V301.676H317.575V296.463H318.541L321.205 300.595ZM325.868 301.768C324.324 301.768 323.235 300.672 323.235 299.066C323.235 297.467 324.324 296.363 325.868 296.363C327.413 296.363 328.501 297.467 328.501 299.066C328.501 300.672 327.413 301.768 325.868 301.768ZM325.868 301.035C326.949 301.035 327.706 300.247 327.706 299.066C327.706 297.892 326.949 297.097 325.868 297.097C324.787 297.097 324.03 297.892 324.03 299.066C324.03 300.247 324.787 301.035 325.868 301.035ZM328.97 296.463H333.317V297.166H331.541V301.676H330.746V297.166H328.97V296.463ZM340.88 300.911L342.093 296.463H342.919L341.491 301.676H340.34L339.344 297.684L338.348 301.676H337.197L335.769 296.463H336.595L337.799 300.896L338.904 296.463H339.776L340.88 300.911ZM346.25 301.768C344.706 301.768 343.617 300.672 343.617 299.066C343.617 297.467 344.706 296.363 346.25 296.363C347.794 296.363 348.883 297.467 348.883 299.066C348.883 300.672 347.794 301.768 346.25 301.768ZM346.25 301.035C347.331 301.035 348.088 300.247 348.088 299.066C348.088 297.892 347.331 297.097 346.25 297.097C345.169 297.097 344.412 297.892 344.412 299.066C344.412 300.247 345.169 301.035 346.25 301.035ZM354.209 301.676H353.321L352.024 299.521H350.904V301.676H350.109V296.463H352.364C353.476 296.463 354.171 296.888 354.171 297.992C354.171 298.919 353.684 299.367 352.873 299.483L354.209 301.676ZM352.333 297.166H350.904V298.819H352.333C353.012 298.819 353.375 298.61 353.375 297.992C353.375 297.375 352.997 297.166 352.333 297.166ZM359.705 301.676H358.817L357.157 298.95L356.207 299.907V301.676H355.412V296.463H356.207V298.896L358.609 296.463H359.605L357.705 298.386L359.705 301.676ZM361.502 301.676H360.707V296.463H361.502V301.676ZM366.585 300.595V296.463H367.38V301.676H366.408L363.751 297.521V301.676H362.956V296.463H363.921L366.585 300.595ZM372.932 299.707H370.623V299.035H373.673V301.676H372.963V300.811C372.623 301.444 372.028 301.768 371.179 301.768C369.689 301.768 368.615 300.672 368.615 299.066C368.615 297.467 369.712 296.363 371.249 296.363C372.299 296.363 373.434 296.927 373.766 298.239L373.001 298.448C372.808 297.676 372.191 297.097 371.249 297.097C370.167 297.097 369.411 297.892 369.411 299.066C369.411 300.239 370.137 301.035 371.249 301.035C372.098 301.035 372.739 300.572 372.932 299.707ZM376.489 300.131H376.026C376.026 299.398 376.25 299.151 376.644 298.842C376.898 298.641 377.184 298.409 377.184 297.884C377.184 297.344 376.837 297.004 376.25 297.004C375.655 297.004 375.285 297.382 375.285 297.977C375.285 298.077 375.292 298.17 375.308 298.278L374.644 298.363C374.62 298.216 374.605 298.07 374.605 297.938C374.605 296.95 375.269 296.363 376.242 296.363C377.23 296.363 377.91 296.95 377.91 297.861C377.91 298.68 377.393 299.004 377.007 299.259C376.597 299.537 376.489 299.707 376.489 300.131ZM376.644 301.676H375.879V300.579H376.644V301.676Z"
        fill="#333333" />
    <path d="M284.447 415.14H550.084" stroke="#333333" stroke-width="0.965251" />
    <path d="M284.447 433.866H550.084" stroke="#9A9A9A" stroke-width="0.579151" />
    <path d="M284.447 452.592H550.084" stroke="#9A9A9A" stroke-width="0.579151" />
    <path d="M284.447 471.317H550.084" stroke="#9A9A9A" stroke-width="0.579151" />
    <path d="M284.447 490.043H550.084" stroke="#9A9A9A" stroke-width="0.579151" />
    <path
        d="M288.609 407.545V403.414H289.405V408.626H288.432L285.775 404.472V408.626H284.98V403.414H285.945L288.609 407.545ZM294.47 403.414V404.116H291.659V405.653H294.238V406.348H291.659V407.923H294.47V408.626H290.864V403.414H294.47ZM298.186 405.977L300.093 408.626H299.136L297.661 406.587L296.193 408.626H295.236L297.151 405.977L295.336 403.414H296.263L297.668 405.39L299.066 403.414H299.993L298.186 405.977ZM300.644 403.414H304.992V404.116H303.216V408.626H302.42V404.116H300.644V403.414ZM312.555 407.861L313.767 403.414H314.594L313.165 408.626H312.014L311.018 404.634L310.022 408.626H308.871L307.443 403.414H308.269L309.474 407.846L310.578 403.414H311.451L312.555 407.861ZM319.25 403.414V404.116H316.439V405.653H319.018V406.348H316.439V407.923H319.25V408.626H315.643V403.414H319.25ZM324.07 403.414V404.116H321.259V405.653H323.838V406.348H321.259V407.923H324.07V408.626H320.464V403.414H324.07ZM329.577 408.626H328.689L327.029 405.9L326.079 406.858V408.626H325.284V403.414H326.079V405.846L328.481 403.414H329.477L327.577 405.336L329.577 408.626ZM333.767 408.626H332.971V403.414H333.767V408.626ZM335.567 405.645H334.981L335.413 403.414H336.193L335.567 405.645ZM340.822 408.626H337.371V403.414H338.166V407.923H340.822V408.626ZM345.386 408.626H341.934V403.414H342.73V407.923H345.386V408.626ZM352.383 403.414V404.116H349.573V405.653H352.105V406.348H349.573V408.626H348.777V403.414H352.383ZM355.848 408.719C354.304 408.719 353.215 407.622 353.215 406.016C353.215 404.417 354.304 403.313 355.848 403.313C357.393 403.313 358.481 404.417 358.481 406.016C358.481 407.622 357.393 408.719 355.848 408.719ZM355.848 407.985C356.929 407.985 357.686 407.197 357.686 406.016C357.686 404.842 356.929 404.047 355.848 404.047C354.767 404.047 354.01 404.842 354.01 406.016C354.01 407.197 354.767 407.985 355.848 407.985ZM362.116 408.719C360.572 408.719 359.483 407.622 359.483 406.016C359.483 404.417 360.572 403.313 362.116 403.313C363.39 403.313 364.356 404.07 364.641 405.228L363.877 405.421C363.692 404.649 363.074 404.047 362.116 404.047C361.035 404.047 360.279 404.842 360.279 406.016C360.279 407.197 361.035 407.985 362.116 407.985C362.858 407.985 363.452 407.607 363.73 406.981L364.472 407.259C364.085 408.155 363.213 408.719 362.116 408.719ZM367.863 408.719C366.658 408.719 365.77 408.062 365.77 406.811V403.414H366.566V406.711C366.566 407.529 367.075 407.993 367.863 407.993C368.651 407.993 369.16 407.529 369.16 406.711V403.414H369.956V406.811C369.956 408.062 369.068 408.719 367.863 408.719ZM373.176 408.719C371.994 408.719 371.23 408.139 371.075 407.128L371.84 406.943C371.956 407.638 372.465 408.047 373.222 408.047C373.886 408.047 374.272 407.723 374.272 407.221C374.272 406.618 373.662 406.487 372.991 406.317C372.18 406.101 371.261 405.846 371.261 404.788C371.261 403.916 371.987 403.313 373.106 403.313C374.048 403.313 374.852 403.738 375.06 404.78L374.342 404.966C374.195 404.263 373.724 403.977 373.106 403.977C372.45 403.977 372.048 404.286 372.048 404.765C372.048 405.313 372.604 405.445 373.299 405.614C374.118 405.815 375.068 406.109 375.068 407.136C375.068 408.116 374.404 408.719 373.176 408.719ZM377.135 408.626H376.34V403.414H377.135V408.626ZM382.218 407.545V403.414H383.013V408.626H382.04L379.384 404.472V408.626H378.588V403.414H379.554L382.218 407.545ZM388.564 406.657H386.256V405.985H389.306V408.626H388.595V407.761C388.256 408.394 387.661 408.719 386.812 408.719C385.321 408.719 384.248 407.622 384.248 406.016C384.248 404.417 385.344 403.313 386.881 403.313C387.931 403.313 389.066 403.877 389.398 405.19L388.634 405.398C388.441 404.626 387.823 404.047 386.881 404.047C385.8 404.047 385.043 404.842 385.043 406.016C385.043 407.19 385.769 407.985 386.881 407.985C387.731 407.985 388.371 407.522 388.564 406.657ZM395.428 408.719C393.884 408.719 392.795 407.622 392.795 406.016C392.795 404.417 393.884 403.313 395.428 403.313C396.972 403.313 398.061 404.417 398.061 406.016C398.061 407.622 396.972 408.719 395.428 408.719ZM395.428 407.985C396.509 407.985 397.266 407.197 397.266 406.016C397.266 404.842 396.509 404.047 395.428 404.047C394.347 404.047 393.59 404.842 393.59 406.016C393.59 407.197 394.347 407.985 395.428 407.985ZM402.916 407.545V403.414H403.712V408.626H402.739L400.082 404.472V408.626H399.287V403.414H400.252L402.916 407.545ZM405.935 405.923H405.17V404.834H405.935V405.923ZM405.935 408.626H405.17V407.529H405.935V408.626Z"
        fill="#333333" />
    <mask id="path-46-inside-1_509_4387" fill="white">
        <path d="M0.277344 516.683H550.084V691.973H0.277344V516.683Z" />
    </mask>
    <path d="M0.277344 516.683H550.084V691.973H0.277344V516.683Z" fill="#F8F8F8" />
    <path d="M0.277344 517.649H550.084V515.718H0.277344V517.649Z" fill="#333333"
        mask="url(#path-46-inside-1_509_4387)" />
    <path
        d="M195.374 536.301C195.374 533.961 196.88 532.131 198.849 532.131C200.818 532.131 202.324 533.961 202.324 536.301C202.324 538.641 200.818 540.471 198.849 540.471C196.88 540.471 195.374 538.641 195.374 536.301ZM196.532 536.301C196.532 538.675 197.447 540.239 198.849 540.239C200.25 540.239 201.165 538.675 201.165 536.301C201.165 533.926 200.25 532.363 198.849 532.363C197.447 532.363 196.532 533.926 196.532 536.301ZM205.765 540.355L203.912 535.258C203.773 534.911 203.623 534.737 203.426 534.679V534.563H205.233V534.679C205.071 534.737 205.024 534.911 205.128 535.247L206.75 539.706L207.526 537.587C208.233 535.652 208.349 534.888 207.711 534.679V534.563H209.101V534.679C208.904 534.737 208.754 534.911 208.615 535.258L206.762 540.355H205.765ZM214.461 538.965L214.554 539.035C214.137 539.799 213.326 540.471 212.295 540.471C210.801 540.471 209.619 539.058 209.619 537.413C209.619 535.768 210.801 534.448 212.411 534.448C213.569 534.448 214.426 535.131 214.426 535.919C214.426 537.112 212.504 537.702 210.836 537.969C211.091 539.278 212.017 539.845 212.863 539.845C213.5 539.845 214.125 539.521 214.461 538.965ZM210.801 537.737C212.365 537.494 213.384 536.95 213.384 535.849C213.384 535.235 213.013 534.679 212.365 534.679C211.461 534.679 210.766 535.78 210.766 537.228C210.766 537.413 210.778 537.575 210.801 537.737ZM218.507 535.096C217.627 535.096 217.164 536.579 217.164 537.98V539.66C217.164 540.123 217.326 540.228 217.511 540.239V540.355H215.774V540.239C215.959 540.228 216.121 540.123 216.121 539.66V535.258C216.121 534.795 215.959 534.691 215.774 534.679V534.563H217.164V536.289C217.442 535.282 217.986 534.448 218.774 534.448C219.017 534.448 219.295 534.529 219.515 534.807V535.965H219.376C219.168 535.293 218.82 535.096 218.507 535.096ZM223.904 536.637C222.931 537.656 221.437 537.923 221.437 538.942C221.437 539.452 221.807 539.799 222.363 539.799C223.139 539.799 223.904 539.104 223.904 538.374V536.637ZM222.838 534.679C222.166 534.679 221.541 535.363 221.136 536.313H220.997V535.154C221.553 534.691 222.201 534.448 222.873 534.448C224.031 534.448 224.946 535.177 224.946 536.266V539.66C224.946 540.123 225.108 540.228 225.294 540.239V540.355H223.904V539.127C223.498 539.822 222.63 540.471 221.692 540.471C220.846 540.471 220.325 539.938 220.325 539.255C220.325 537.726 222.989 537.482 223.904 536.289V536.266C223.904 535.409 223.522 534.679 222.838 534.679ZM226.456 540.355V540.239C226.642 540.228 226.804 540.123 226.804 539.66V532.942C226.804 532.479 226.642 532.374 226.456 532.363V532.247H227.846V539.66C227.846 540.123 228.009 540.228 228.194 540.239V540.355H226.456ZM229.354 540.355V540.239C229.54 540.228 229.702 540.123 229.702 539.66V532.942C229.702 532.479 229.54 532.374 229.354 532.363V532.247H230.744V539.66C230.744 540.123 230.907 540.228 231.092 540.239V540.355H229.354ZM237.523 540.355V540.239C237.708 540.228 237.87 540.123 237.87 539.66V533.174C237.87 532.641 237.685 532.479 237.303 532.479C236.654 532.479 236.063 532.942 235.843 533.637H235.727V532.247H241.056V533.637H240.94C240.72 532.942 240.129 532.479 239.48 532.479C239.098 532.479 238.913 532.641 238.913 533.174V539.66C238.913 540.123 239.075 540.228 239.26 540.239V540.355H237.523ZM242.211 540.355V540.239C242.397 540.228 242.559 540.123 242.559 539.66V532.942C242.559 532.479 242.397 532.374 242.211 532.363V532.247H243.601V536.428C243.914 535.374 244.574 534.448 245.628 534.448C246.555 534.448 247.192 535.177 247.192 536.266V539.66C247.192 540.123 247.354 540.228 247.539 540.239V540.355H245.802V540.239C245.987 540.228 246.149 540.123 246.149 539.66V536.266C246.149 535.49 245.767 534.946 245.2 534.946C244.192 534.946 243.601 536.695 243.601 537.98V539.66C243.601 540.123 243.763 540.228 243.949 540.239V540.355H242.211ZM248.753 537.459C248.753 535.768 250.004 534.448 251.591 534.448C253.178 534.448 254.429 535.768 254.429 537.459C254.429 539.15 253.178 540.471 251.591 540.471C250.004 540.471 248.753 539.15 248.753 537.459ZM249.911 537.459C249.911 539.139 250.571 540.239 251.591 540.239C252.61 540.239 253.27 539.139 253.27 537.459C253.27 535.78 252.61 534.679 251.591 534.679C250.571 534.679 249.911 535.78 249.911 537.459ZM260.623 534.563V539.66C260.623 540.123 260.785 540.228 260.971 540.239V540.355H259.581V538.49C259.268 539.544 258.608 540.471 257.554 540.471C256.627 540.471 255.99 539.741 255.99 538.652V535.258C255.99 534.795 255.828 534.691 255.642 534.679V534.563H257.032V538.652C257.032 539.428 257.415 539.973 257.982 539.973C258.99 539.973 259.581 538.224 259.581 536.938V535.258C259.581 534.795 259.419 534.691 259.233 534.679V534.563H260.623ZM262.265 536.88C262.265 535.513 263.412 534.448 264.871 534.448C265.868 534.448 266.725 534.297 266.864 533.544C267.188 533.544 267.408 533.718 267.408 533.961C267.408 534.355 266.829 534.563 265.902 534.645C266.829 535.015 267.478 535.861 267.478 536.88C267.478 538.247 266.331 539.313 264.871 539.313C264.512 539.313 264.176 539.255 263.875 539.139C263.435 539.185 263.25 539.382 263.25 539.556C263.25 540.436 267.617 539.185 267.617 541.258C267.617 542.394 266.319 543.251 264.709 543.251C263.273 543.251 262.184 542.579 262.184 541.699C262.184 541.038 262.798 540.645 263.412 540.494C262.983 540.39 262.682 540.204 262.682 539.834C262.682 539.44 263.007 539.081 263.493 538.953C262.752 538.525 262.265 537.772 262.265 536.88ZM263.424 536.88C263.424 538.212 263.991 539.081 264.871 539.081C265.752 539.081 266.319 538.212 266.319 536.88C266.319 535.548 265.752 534.679 264.871 534.679C263.991 534.679 263.424 535.548 263.424 536.88ZM263.933 540.587C263.539 540.737 263.227 541.108 263.227 541.606C263.227 542.37 263.98 542.961 264.953 542.961C265.868 542.961 266.597 542.428 266.597 541.71C266.597 540.679 265.08 540.726 263.933 540.587ZM268.836 540.355V540.239C269.022 540.228 269.184 540.123 269.184 539.66V532.942C269.184 532.479 269.022 532.374 268.836 532.363V532.247H270.226V536.428C270.539 535.374 271.199 534.448 272.253 534.448C273.18 534.448 273.817 535.177 273.817 536.266V539.66C273.817 540.123 273.979 540.228 274.164 540.239V540.355H272.427V540.239C272.612 540.228 272.774 540.123 272.774 539.66V536.266C272.774 535.49 272.392 534.946 271.825 534.946C270.817 534.946 270.226 536.695 270.226 537.98V539.66C270.226 540.123 270.388 540.228 270.574 540.239V540.355H268.836ZM278.042 539.799C277.845 540.204 277.44 540.471 276.988 540.471C276.293 540.471 275.841 539.845 275.841 538.907V534.795H275.146V534.563C275.888 534.517 276.409 534.077 276.652 533.22H276.884V534.563H278.042V534.795H276.884V539C276.884 539.648 277.069 539.996 277.428 539.996C277.579 539.996 277.787 539.938 277.949 539.729L278.042 539.799ZM282.735 540.355L284.6 532.247H284.959L283.094 540.355H282.735ZM289.649 540.355V540.239C289.835 540.228 289.997 540.123 289.997 539.66V532.942C289.997 532.479 289.835 532.374 289.649 532.363V532.247H291.387V532.363C291.202 532.374 291.039 532.479 291.039 532.942V539.66C291.039 540.123 291.202 540.228 291.387 540.239V540.355H289.649ZM292.605 537.83C292.605 536.104 293.625 534.448 295.015 534.448C295.71 534.448 296.196 534.853 296.544 535.432V532.942C296.544 532.479 296.381 532.374 296.196 532.363V532.247H297.586V539.66C297.586 540.123 297.748 540.228 297.934 540.239V540.355H296.544V538.641C296.254 539.625 295.675 540.471 294.656 540.471C293.544 540.471 292.605 539.486 292.605 537.83ZM296.544 536.938V535.93C296.219 535.154 295.698 534.957 295.327 534.957C294.378 534.957 293.764 536.255 293.764 537.737C293.764 539.185 294.354 539.973 295.049 539.973C296.069 539.973 296.544 538.316 296.544 536.938ZM303.874 538.965L303.967 539.035C303.55 539.799 302.739 540.471 301.708 540.471C300.214 540.471 299.033 539.058 299.033 537.413C299.033 535.768 300.214 534.448 301.824 534.448C302.982 534.448 303.84 535.131 303.84 535.919C303.84 537.112 301.917 537.702 300.249 537.969C300.504 539.278 301.43 539.845 302.276 539.845C302.913 539.845 303.538 539.521 303.874 538.965ZM300.214 537.737C301.778 537.494 302.797 536.95 302.797 535.849C302.797 535.235 302.426 534.679 301.778 534.679C300.874 534.679 300.179 535.78 300.179 537.228C300.179 537.413 300.191 537.575 300.214 537.737ZM308.711 536.637C307.738 537.656 306.244 537.923 306.244 538.942C306.244 539.452 306.614 539.799 307.17 539.799C307.946 539.799 308.711 539.104 308.711 538.374V536.637ZM307.645 534.679C306.974 534.679 306.348 535.363 305.943 536.313H305.804V535.154C306.36 534.691 307.008 534.448 307.68 534.448C308.838 534.448 309.753 535.177 309.753 536.266V539.66C309.753 540.123 309.916 540.228 310.101 540.239V540.355H308.711V539.127C308.306 539.822 307.437 540.471 306.499 540.471C305.653 540.471 305.132 539.938 305.132 539.255C305.132 537.726 307.796 537.482 308.711 536.289V536.266C308.711 535.409 308.329 534.679 307.645 534.679ZM315.538 538.826C315.538 539.706 314.646 540.471 313.349 540.471C312.63 540.471 311.901 540.239 311.333 539.764V538.606H311.472C311.877 539.556 312.48 540.239 313.349 540.239C314.032 540.239 314.518 539.811 314.518 539.278C314.518 537.899 311.321 537.784 311.321 536.058C311.321 535.189 312.144 534.448 313.476 534.448C314.032 534.448 314.75 534.575 315.306 535.038V536.197H315.167C314.773 535.247 314.206 534.679 313.453 534.679C312.816 534.679 312.341 535.085 312.341 535.618C312.341 536.996 315.538 537.146 315.538 538.826ZM320.285 540.355L322.15 532.247H322.509L320.644 540.355H320.285ZM332.666 540.355H332.435L327.894 533.104V539.428C327.894 540.007 328.056 540.204 328.358 540.239V540.355H327.199V540.239C327.5 540.204 327.663 540.007 327.663 539.428V533.174C327.663 532.594 327.5 532.397 327.199 532.363V532.247H328.589L332.435 538.397V533.174C332.435 532.594 332.273 532.397 331.971 532.363V532.247H333.13V532.363C332.829 532.397 332.666 532.594 332.666 533.174V540.355ZM334.34 537.459C334.34 535.768 335.591 534.448 337.178 534.448C338.765 534.448 340.016 535.768 340.016 537.459C340.016 539.15 338.765 540.471 337.178 540.471C335.591 540.471 334.34 539.15 334.34 537.459ZM335.499 537.459C335.499 539.139 336.159 540.239 337.178 540.239C338.198 540.239 338.858 539.139 338.858 537.459C338.858 535.78 338.198 534.679 337.178 534.679C336.159 534.679 335.499 535.78 335.499 537.459ZM343.952 539.799C343.755 540.204 343.35 540.471 342.898 540.471C342.203 540.471 341.751 539.845 341.751 538.907V534.795H341.056V534.563C341.798 534.517 342.319 534.077 342.562 533.22H342.794V534.563H343.952V534.795H342.794V539C342.794 539.648 342.979 539.996 343.338 539.996C343.489 539.996 343.697 539.938 343.859 539.729L343.952 539.799ZM349.786 538.965L349.878 539.035C349.461 539.799 348.65 540.471 347.62 540.471C346.125 540.471 344.944 539.058 344.944 537.413C344.944 535.768 346.125 534.448 347.735 534.448C348.894 534.448 349.751 535.131 349.751 535.919C349.751 537.112 347.828 537.702 346.16 537.969C346.415 539.278 347.342 539.845 348.187 539.845C348.824 539.845 349.45 539.521 349.786 538.965ZM346.125 537.737C347.689 537.494 348.708 536.95 348.708 535.849C348.708 535.235 348.338 534.679 347.689 534.679C346.786 534.679 346.091 535.78 346.091 537.228C346.091 537.413 346.102 537.575 346.125 537.737ZM355.372 538.826C355.372 539.706 354.481 540.471 353.183 540.471C352.465 540.471 351.735 540.239 351.168 539.764V538.606H351.307C351.712 539.556 352.314 540.239 353.183 540.239C353.867 540.239 354.353 539.811 354.353 539.278C354.353 537.899 351.156 537.784 351.156 536.058C351.156 535.189 351.979 534.448 353.311 534.448C353.867 534.448 354.585 534.575 355.141 535.038V536.197H355.002C354.608 535.247 354.04 534.679 353.287 534.679C352.65 534.679 352.175 535.085 352.175 535.618C352.175 536.996 355.372 537.146 355.372 538.826Z"
        fill="#333333" />
</svg>