<svg width="557" height="676" viewBox="0 0 557 676" fill="none" xmlns="http://www.w3.org/2000/svg">
<path d="M0.188477 15.7905H556.366" stroke="#614F41" stroke-width="0.965251"/>
<path d="M0.188477 36.061H556.366" stroke="#A0907F" stroke-width="0.579151"/>
<path d="M0.188477 56.3311H556.366" stroke="#A0907F" stroke-width="0.579151"/>
<path d="M0.188477 76.6016H556.366" stroke="#A0907F" stroke-width="0.579151"/>
<path d="M0.188477 96.8716H556.366" stroke="#A0907F" stroke-width="0.579151"/>
<path d="M0.188477 117.142H556.366" stroke="#A0907F" stroke-width="0.579151"/>
<path d="M0.188477 137.412H556.366" stroke="#A0907F" stroke-width="0.579151"/>
<path d="M0.188477 157.683H556.366" stroke="#A0907F" stroke-width="0.579151"/>
<path d="M0.188477 177.953H556.366" stroke="#A0907F" stroke-width="0.579151"/>
<path d="M0.188477 198.223H556.366" stroke="#A0907F" stroke-width="0.579151"/>
<path d="M0.188477 218.493H556.366" stroke="#A0907F" stroke-width="0.579151"/>
<path d="M0.188477 238.764H556.366" stroke="#A0907F" stroke-width="0.579151"/>
<path d="M0.188477 259.034H556.366" stroke="#A0907F" stroke-width="0.579151"/>
<path d="M2.49736 7.34619H0.729017V2.13384H2.49736C4.34292 2.13384 5.31589 2.94465 5.31589 4.73615C5.31589 6.5431 4.32747 7.34619 2.49736 7.34619ZM1.52438 2.83654V6.64349H2.49736C3.81782 6.64349 4.52052 6.04889 4.52052 4.73615C4.52052 3.40797 3.78693 2.83654 2.49736 2.83654H1.52438ZM10.8354 7.34619H9.98602L9.53814 6.14156H7.16748L6.71961 7.34619H5.87019L7.85474 2.13384H8.85088L10.8354 7.34619ZM8.35667 2.93692L7.41459 5.46974H9.29103L8.35667 2.93692ZM12.6276 7.34619H11.8322V2.13384H12.6276V7.34619ZM17.5327 7.34619H14.081V2.13384H14.8763V6.64349H17.5327V7.34619ZM20.6243 2.13384H21.551L19.6977 4.98326V7.34619H18.9023V4.96781L17.0568 2.13384H17.9757L19.3039 4.21106L20.6243 2.13384ZM23.6595 2.13384H28.0069V2.83654H26.2309V7.34619H25.4355V2.83654H23.6595V2.13384ZM32.7587 7.34619H31.9093L31.4614 6.14156H29.0907L28.6429 7.34619H27.7934L29.778 2.13384H30.7741L32.7587 7.34619ZM30.2799 2.93692L29.3378 5.46974H31.2143L30.2799 2.93692ZM35.5326 7.43886C34.3512 7.43886 33.5867 6.8597 33.4323 5.84812L34.1967 5.66279C34.3126 6.35777 34.8222 6.76704 35.579 6.76704C36.2431 6.76704 36.6292 6.44272 36.6292 5.94079C36.6292 5.33847 36.0191 5.2072 35.3473 5.03731C34.5365 4.82109 33.6176 4.56627 33.6176 3.50835C33.6176 2.63577 34.3435 2.03345 35.4632 2.03345C36.4052 2.03345 37.2083 2.45816 37.4168 3.50063L36.6987 3.68596C36.552 2.98326 36.0809 2.69754 35.4632 2.69754C34.8068 2.69754 34.4052 3.00642 34.4052 3.48519C34.4052 4.03345 34.9612 4.16472 35.6562 4.33461C36.4747 4.53538 37.4245 4.82882 37.4245 5.85584C37.4245 6.83654 36.7604 7.43886 35.5326 7.43886ZM42.9898 7.34619H42.1018L40.4416 4.62032L39.4917 5.57785V7.34619H38.6964V2.13384H39.4917V4.56627L41.8933 2.13384H42.8894L40.9898 4.05662L42.9898 7.34619Z" fill="#614F41"/>
<path d="M406.138 5.90169L407.474 2.13335H408.841V7.3457H408.045V2.56578L406.416 7.3457H405.852L404.223 2.56578V7.3457H403.428V2.13335H404.794L406.138 5.90169Z" fill="#614F41"/>
<path d="M426.985 2.13335H431.332V2.83605H429.556V7.3457H428.761V2.83605H426.985V2.13335Z" fill="#614F41"/>
<path d="M454.194 6.58122L455.406 2.13335H456.233L454.804 7.3457H453.653L452.657 3.35342L451.661 7.3457H450.511L449.082 2.13335H449.908L451.113 6.56578L452.217 2.13335H453.09L454.194 6.58122Z" fill="#614F41"/>
<path d="M474.001 2.13335H478.348V2.83605H476.572V7.3457H475.777V2.83605H474.001V2.13335Z" fill="#614F41"/>
<path d="M500.09 2.13335V2.83605H497.279V4.37273H499.812V5.06771H497.279V7.3457H496.484V2.13335H500.09Z" fill="#614F41"/>
<path d="M520.096 7.43837C518.914 7.43837 518.15 6.85922 517.995 5.84763L518.76 5.66231C518.876 6.35729 519.385 6.76655 520.142 6.76655C520.806 6.76655 521.192 6.44223 521.192 5.9403C521.192 5.33798 520.582 5.20671 519.91 5.03682C519.1 4.82061 518.181 4.56578 518.181 3.50787C518.181 2.63528 518.907 2.03296 520.026 2.03296C520.968 2.03296 521.771 2.45767 521.98 3.50014L521.262 3.68547C521.115 2.98277 520.644 2.69705 520.026 2.69705C519.37 2.69705 518.968 3.00593 518.968 3.4847C518.968 4.03296 519.524 4.16424 520.219 4.33412C521.038 4.53489 521.988 4.82833 521.988 5.85536C521.988 6.83605 521.324 7.43837 520.096 7.43837Z" fill="#614F41"/>
<path d="M542.128 7.43837C540.947 7.43837 540.182 6.85922 540.028 5.84763L540.792 5.66231C540.908 6.35729 541.418 6.76655 542.174 6.76655C542.838 6.76655 543.225 6.44223 543.225 5.9403C543.225 5.33798 542.614 5.20671 541.943 5.03682C541.132 4.82061 540.213 4.56578 540.213 3.50787C540.213 2.63528 540.939 2.03296 542.058 2.03296C543.001 2.03296 543.804 2.45767 544.012 3.50014L543.294 3.68547C543.147 2.98277 542.676 2.69705 542.058 2.69705C541.402 2.69705 541.001 3.00593 541.001 3.4847C541.001 4.03296 541.557 4.16424 542.252 4.33412C543.07 4.53489 544.02 4.82833 544.02 5.85536C544.02 6.83605 543.356 7.43837 542.128 7.43837Z" fill="#614F41"/>
<path d="M411.22 25.8282C411.22 28.3849 409.122 30.4614 406.529 30.4614C403.937 30.4614 401.839 28.3849 401.839 25.8282C401.839 23.2715 403.937 21.195 406.529 21.195C409.122 21.195 411.22 23.2715 411.22 25.8282Z" stroke="#A0907F" stroke-width="0.3861"/>
<path d="M411.22 46.0987C411.22 48.6554 409.122 50.7319 406.529 50.7319C403.937 50.7319 401.839 48.6554 401.839 46.0987C401.839 43.542 403.937 41.4655 406.529 41.4655C409.122 41.4655 411.22 43.542 411.22 46.0987Z" stroke="#A0907F" stroke-width="0.3861"/>
<path d="M411.22 66.3687C411.22 68.9254 409.122 71.0019 406.529 71.0019C403.937 71.0019 401.839 68.9254 401.839 66.3687C401.839 63.812 403.937 61.7355 406.529 61.7355C409.122 61.7355 411.22 63.812 411.22 66.3687Z" stroke="#A0907F" stroke-width="0.3861"/>
<path d="M411.22 86.6392C411.22 89.1959 409.122 91.2724 406.529 91.2724C403.937 91.2724 401.839 89.1959 401.839 86.6392C401.839 84.0825 403.937 82.006 406.529 82.006C409.122 82.006 411.22 84.0825 411.22 86.6392Z" stroke="#A0907F" stroke-width="0.3861"/>
<path d="M411.22 106.909C411.22 109.466 409.122 111.542 406.529 111.542C403.937 111.542 401.839 109.466 401.839 106.909C401.839 104.353 403.937 102.276 406.529 102.276C409.122 102.276 411.22 104.353 411.22 106.909Z" stroke="#A0907F" stroke-width="0.3861"/>
<path d="M411.22 127.18C411.22 129.736 409.122 131.813 406.529 131.813C403.937 131.813 401.839 129.736 401.839 127.18C401.839 124.623 403.937 122.547 406.529 122.547C409.122 122.547 411.22 124.623 411.22 127.18Z" stroke="#A0907F" stroke-width="0.3861"/>
<path d="M433.881 25.8282C433.881 28.3849 431.783 30.4614 429.191 30.4614C426.598 30.4614 424.5 28.3849 424.5 25.8282C424.5 23.2715 426.598 21.195 429.191 21.195C431.783 21.195 433.881 23.2715 433.881 25.8282Z" stroke="#A0907F" stroke-width="0.3861"/>
<path d="M433.881 46.0987C433.881 48.6554 431.783 50.7319 429.191 50.7319C426.598 50.7319 424.5 48.6554 424.5 46.0987C424.5 43.542 426.598 41.4655 429.191 41.4655C431.783 41.4655 433.881 43.542 433.881 46.0987Z" stroke="#A0907F" stroke-width="0.3861"/>
<path d="M433.881 66.3687C433.881 68.9254 431.783 71.0019 429.191 71.0019C426.598 71.0019 424.5 68.9254 424.5 66.3687C424.5 63.812 426.598 61.7355 429.191 61.7355C431.783 61.7355 433.881 63.812 433.881 66.3687Z" stroke="#A0907F" stroke-width="0.3861"/>
<path d="M433.881 86.6392C433.881 89.1959 431.783 91.2724 429.191 91.2724C426.598 91.2724 424.5 89.1959 424.5 86.6392C424.5 84.0825 426.598 82.006 429.191 82.006C431.783 82.006 433.881 84.0825 433.881 86.6392Z" stroke="#A0907F" stroke-width="0.3861"/>
<path d="M433.881 106.909C433.881 109.466 431.783 111.542 429.191 111.542C426.598 111.542 424.5 109.466 424.5 106.909C424.5 104.353 426.598 102.276 429.191 102.276C431.783 102.276 433.881 104.353 433.881 106.909Z" stroke="#A0907F" stroke-width="0.3861"/>
<path d="M433.881 127.18C433.881 129.736 431.783 131.813 429.191 131.813C426.598 131.813 424.5 129.736 424.5 127.18C424.5 124.623 426.598 122.547 429.191 122.547C431.783 122.547 433.881 124.623 433.881 127.18Z" stroke="#A0907F" stroke-width="0.3861"/>
<path d="M456.543 25.8282C456.543 28.3849 454.445 30.4614 451.852 30.4614C449.259 30.4614 447.161 28.3849 447.161 25.8282C447.161 23.2715 449.259 21.195 451.852 21.195C454.445 21.195 456.543 23.2715 456.543 25.8282Z" stroke="#A0907F" stroke-width="0.3861"/>
<path d="M456.543 46.0987C456.543 48.6554 454.445 50.7319 451.852 50.7319C449.259 50.7319 447.161 48.6554 447.161 46.0987C447.161 43.542 449.259 41.4655 451.852 41.4655C454.445 41.4655 456.543 43.542 456.543 46.0987Z" stroke="#A0907F" stroke-width="0.3861"/>
<path d="M456.543 66.3687C456.543 68.9254 454.445 71.0019 451.852 71.0019C449.259 71.0019 447.161 68.9254 447.161 66.3687C447.161 63.812 449.259 61.7355 451.852 61.7355C454.445 61.7355 456.543 63.812 456.543 66.3687Z" stroke="#A0907F" stroke-width="0.3861"/>
<path d="M456.543 86.6392C456.543 89.1959 454.445 91.2724 451.852 91.2724C449.259 91.2724 447.161 89.1959 447.161 86.6392C447.161 84.0825 449.259 82.006 451.852 82.006C454.445 82.006 456.543 84.0825 456.543 86.6392Z" stroke="#A0907F" stroke-width="0.3861"/>
<path d="M456.543 106.909C456.543 109.466 454.445 111.542 451.852 111.542C449.259 111.542 447.161 109.466 447.161 106.909C447.161 104.353 449.259 102.276 451.852 102.276C454.445 102.276 456.543 104.353 456.543 106.909Z" stroke="#A0907F" stroke-width="0.3861"/>
<path d="M456.543 127.18C456.543 129.736 454.445 131.813 451.852 131.813C449.259 131.813 447.161 129.736 447.161 127.18C447.161 124.623 449.259 122.547 451.852 122.547C454.445 122.547 456.543 124.623 456.543 127.18Z" stroke="#A0907F" stroke-width="0.3861"/>
<path d="M479.204 25.8282C479.204 28.3849 477.106 30.4614 474.513 30.4614C471.92 30.4614 469.822 28.3849 469.822 25.8282C469.822 23.2715 471.92 21.195 474.513 21.195C477.106 21.195 479.204 23.2715 479.204 25.8282Z" stroke="#A0907F" stroke-width="0.3861"/>
<path d="M479.204 46.0987C479.204 48.6554 477.106 50.7319 474.513 50.7319C471.92 50.7319 469.822 48.6554 469.822 46.0987C469.822 43.542 471.92 41.4655 474.513 41.4655C477.106 41.4655 479.204 43.542 479.204 46.0987Z" stroke="#A0907F" stroke-width="0.3861"/>
<path d="M479.204 66.3687C479.204 68.9254 477.106 71.0019 474.513 71.0019C471.92 71.0019 469.822 68.9254 469.822 66.3687C469.822 63.812 471.92 61.7355 474.513 61.7355C477.106 61.7355 479.204 63.812 479.204 66.3687Z" stroke="#A0907F" stroke-width="0.3861"/>
<path d="M479.204 86.6392C479.204 89.1959 477.106 91.2724 474.513 91.2724C471.92 91.2724 469.822 89.1959 469.822 86.6392C469.822 84.0825 471.92 82.006 474.513 82.006C477.106 82.006 479.204 84.0825 479.204 86.6392Z" stroke="#A0907F" stroke-width="0.3861"/>
<path d="M479.204 106.909C479.204 109.466 477.106 111.542 474.513 111.542C471.92 111.542 469.822 109.466 469.822 106.909C469.822 104.353 471.92 102.276 474.513 102.276C477.106 102.276 479.204 104.353 479.204 106.909Z" stroke="#A0907F" stroke-width="0.3861"/>
<path d="M479.204 127.18C479.204 129.736 477.106 131.813 474.513 131.813C471.92 131.813 469.822 129.736 469.822 127.18C469.822 124.623 471.92 122.547 474.513 122.547C477.106 122.547 479.204 124.623 479.204 127.18Z" stroke="#A0907F" stroke-width="0.3861"/>
<path d="M501.866 25.8282C501.866 28.3849 499.768 30.4614 497.175 30.4614C494.582 30.4614 492.484 28.3849 492.484 25.8282C492.484 23.2715 494.582 21.195 497.175 21.195C499.768 21.195 501.866 23.2715 501.866 25.8282Z" stroke="#A0907F" stroke-width="0.3861"/>
<path d="M501.866 46.0987C501.866 48.6554 499.768 50.7319 497.175 50.7319C494.582 50.7319 492.484 48.6554 492.484 46.0987C492.484 43.542 494.582 41.4655 497.175 41.4655C499.768 41.4655 501.866 43.542 501.866 46.0987Z" stroke="#A0907F" stroke-width="0.3861"/>
<path d="M501.866 66.3687C501.866 68.9254 499.768 71.0019 497.175 71.0019C494.582 71.0019 492.484 68.9254 492.484 66.3687C492.484 63.812 494.582 61.7355 497.175 61.7355C499.768 61.7355 501.866 63.812 501.866 66.3687Z" stroke="#A0907F" stroke-width="0.3861"/>
<path d="M501.866 86.6392C501.866 89.1959 499.768 91.2724 497.175 91.2724C494.582 91.2724 492.484 89.1959 492.484 86.6392C492.484 84.0825 494.582 82.006 497.175 82.006C499.768 82.006 501.866 84.0825 501.866 86.6392Z" stroke="#A0907F" stroke-width="0.3861"/>
<path d="M501.866 106.909C501.866 109.466 499.768 111.542 497.175 111.542C494.582 111.542 492.484 109.466 492.484 106.909C492.484 104.353 494.582 102.276 497.175 102.276C499.768 102.276 501.866 104.353 501.866 106.909Z" stroke="#A0907F" stroke-width="0.3861"/>
<path d="M501.866 127.18C501.866 129.736 499.768 131.813 497.175 131.813C494.582 131.813 492.484 129.736 492.484 127.18C492.484 124.623 494.582 122.547 497.175 122.547C499.768 122.547 501.866 124.623 501.866 127.18Z" stroke="#A0907F" stroke-width="0.3861"/>
<path d="M524.526 25.8282C524.526 28.3849 522.428 30.4614 519.835 30.4614C517.242 30.4614 515.144 28.3849 515.144 25.8282C515.144 23.2715 517.242 21.195 519.835 21.195C522.428 21.195 524.526 23.2715 524.526 25.8282Z" stroke="#A0907F" stroke-width="0.3861"/>
<path d="M524.526 46.0987C524.526 48.6554 522.428 50.7319 519.835 50.7319C517.242 50.7319 515.144 48.6554 515.144 46.0987C515.144 43.542 517.242 41.4655 519.835 41.4655C522.428 41.4655 524.526 43.542 524.526 46.0987Z" stroke="#A0907F" stroke-width="0.3861"/>
<path d="M524.526 66.3687C524.526 68.9254 522.428 71.0019 519.835 71.0019C517.242 71.0019 515.144 68.9254 515.144 66.3687C515.144 63.812 517.242 61.7355 519.835 61.7355C522.428 61.7355 524.526 63.812 524.526 66.3687Z" stroke="#A0907F" stroke-width="0.3861"/>
<path d="M524.526 86.6392C524.526 89.1959 522.428 91.2724 519.835 91.2724C517.242 91.2724 515.144 89.1959 515.144 86.6392C515.144 84.0825 517.242 82.006 519.835 82.006C522.428 82.006 524.526 84.0825 524.526 86.6392Z" stroke="#A0907F" stroke-width="0.3861"/>
<path d="M524.526 106.909C524.526 109.466 522.428 111.542 519.835 111.542C517.242 111.542 515.144 109.466 515.144 106.909C515.144 104.353 517.242 102.276 519.835 102.276C522.428 102.276 524.526 104.353 524.526 106.909Z" stroke="#A0907F" stroke-width="0.3861"/>
<path d="M524.526 127.18C524.526 129.736 522.428 131.813 519.835 131.813C517.242 131.813 515.144 129.736 515.144 127.18C515.144 124.623 517.242 122.547 519.835 122.547C522.428 122.547 524.526 124.623 524.526 127.18Z" stroke="#A0907F" stroke-width="0.3861"/>
<path d="M547.188 25.8282C547.188 28.3849 545.09 30.4614 542.497 30.4614C539.904 30.4614 537.806 28.3849 537.806 25.8282C537.806 23.2715 539.904 21.195 542.497 21.195C545.09 21.195 547.188 23.2715 547.188 25.8282Z" stroke="#A0907F" stroke-width="0.3861"/>
<path d="M547.188 46.0987C547.188 48.6554 545.09 50.7319 542.497 50.7319C539.904 50.7319 537.806 48.6554 537.806 46.0987C537.806 43.542 539.904 41.4655 542.497 41.4655C545.09 41.4655 547.188 43.542 547.188 46.0987Z" stroke="#A0907F" stroke-width="0.3861"/>
<path d="M547.188 66.3687C547.188 68.9254 545.09 71.0019 542.497 71.0019C539.904 71.0019 537.806 68.9254 537.806 66.3687C537.806 63.812 539.904 61.7355 542.497 61.7355C545.09 61.7355 547.188 63.812 547.188 66.3687Z" stroke="#A0907F" stroke-width="0.3861"/>
<path d="M547.188 86.6392C547.188 89.1959 545.09 91.2724 542.497 91.2724C539.904 91.2724 537.806 89.1959 537.806 86.6392C537.806 84.0825 539.904 82.006 542.497 82.006C545.09 82.006 547.188 84.0825 547.188 86.6392Z" stroke="#A0907F" stroke-width="0.3861"/>
<path d="M547.188 106.909C547.188 109.466 545.09 111.542 542.497 111.542C539.904 111.542 537.806 109.466 537.806 106.909C537.806 104.353 539.904 102.276 542.497 102.276C545.09 102.276 547.188 104.353 547.188 106.909Z" stroke="#A0907F" stroke-width="0.3861"/>
<path d="M547.188 127.18C547.188 129.736 545.09 131.813 542.497 131.813C539.904 131.813 537.806 129.736 537.806 127.18C537.806 124.623 539.904 122.547 542.497 122.547C545.09 122.547 547.188 124.623 547.188 127.18Z" stroke="#A0907F" stroke-width="0.3861"/>
<path d="M411.22 147.45C411.22 150.006 409.122 152.083 406.529 152.083C403.937 152.083 401.839 150.006 401.839 147.45C401.839 144.893 403.937 142.817 406.529 142.817C409.122 142.817 411.22 144.893 411.22 147.45Z" stroke="#A0907F" stroke-width="0.3861"/>
<path d="M411.22 167.72C411.22 170.277 409.122 172.354 406.529 172.354C403.937 172.354 401.839 170.277 401.839 167.72C401.839 165.164 403.937 163.087 406.529 163.087C409.122 163.087 411.22 165.164 411.22 167.72Z" stroke="#A0907F" stroke-width="0.3861"/>
<path d="M411.22 187.99C411.22 190.547 409.122 192.624 406.529 192.624C403.937 192.624 401.839 190.547 401.839 187.99C401.839 185.434 403.937 183.357 406.529 183.357C409.122 183.357 411.22 185.434 411.22 187.99Z" stroke="#A0907F" stroke-width="0.3861"/>
<path d="M411.22 208.261C411.22 210.818 409.122 212.894 406.529 212.894C403.937 212.894 401.839 210.818 401.839 208.261C401.839 205.704 403.937 203.628 406.529 203.628C409.122 203.628 411.22 205.704 411.22 208.261Z" stroke="#A0907F" stroke-width="0.3861"/>
<path d="M411.22 228.531C411.22 231.088 409.122 233.164 406.529 233.164C403.937 233.164 401.839 231.088 401.839 228.531C401.839 225.974 403.937 223.898 406.529 223.898C409.122 223.898 411.22 225.974 411.22 228.531Z" stroke="#A0907F" stroke-width="0.3861"/>
<path d="M411.22 248.801C411.22 251.358 409.122 253.435 406.529 253.435C403.937 253.435 401.839 251.358 401.839 248.801C401.839 246.245 403.937 244.168 406.529 244.168C409.122 244.168 411.22 246.245 411.22 248.801Z" stroke="#A0907F" stroke-width="0.3861"/>
<path d="M433.881 147.45C433.881 150.006 431.783 152.083 429.191 152.083C426.598 152.083 424.5 150.006 424.5 147.45C424.5 144.893 426.598 142.817 429.191 142.817C431.783 142.817 433.881 144.893 433.881 147.45Z" stroke="#A0907F" stroke-width="0.3861"/>
<path d="M433.881 167.72C433.881 170.277 431.783 172.354 429.191 172.354C426.598 172.354 424.5 170.277 424.5 167.72C424.5 165.164 426.598 163.087 429.191 163.087C431.783 163.087 433.881 165.164 433.881 167.72Z" stroke="#A0907F" stroke-width="0.3861"/>
<path d="M433.881 187.99C433.881 190.547 431.783 192.624 429.191 192.624C426.598 192.624 424.5 190.547 424.5 187.99C424.5 185.434 426.598 183.357 429.191 183.357C431.783 183.357 433.881 185.434 433.881 187.99Z" stroke="#A0907F" stroke-width="0.3861"/>
<path d="M433.881 208.261C433.881 210.818 431.783 212.894 429.191 212.894C426.598 212.894 424.5 210.818 424.5 208.261C424.5 205.704 426.598 203.628 429.191 203.628C431.783 203.628 433.881 205.704 433.881 208.261Z" stroke="#A0907F" stroke-width="0.3861"/>
<path d="M433.881 228.531C433.881 231.088 431.783 233.164 429.191 233.164C426.598 233.164 424.5 231.088 424.5 228.531C424.5 225.974 426.598 223.898 429.191 223.898C431.783 223.898 433.881 225.974 433.881 228.531Z" stroke="#A0907F" stroke-width="0.3861"/>
<path d="M433.881 248.801C433.881 251.358 431.783 253.435 429.191 253.435C426.598 253.435 424.5 251.358 424.5 248.801C424.5 246.245 426.598 244.168 429.191 244.168C431.783 244.168 433.881 246.245 433.881 248.801Z" stroke="#A0907F" stroke-width="0.3861"/>
<path d="M456.543 147.45C456.543 150.006 454.445 152.083 451.852 152.083C449.259 152.083 447.161 150.006 447.161 147.45C447.161 144.893 449.259 142.817 451.852 142.817C454.445 142.817 456.543 144.893 456.543 147.45Z" stroke="#A0907F" stroke-width="0.3861"/>
<path d="M456.543 167.72C456.543 170.277 454.445 172.354 451.852 172.354C449.259 172.354 447.161 170.277 447.161 167.72C447.161 165.164 449.259 163.087 451.852 163.087C454.445 163.087 456.543 165.164 456.543 167.72Z" stroke="#A0907F" stroke-width="0.3861"/>
<path d="M456.543 187.99C456.543 190.547 454.445 192.624 451.852 192.624C449.259 192.624 447.161 190.547 447.161 187.99C447.161 185.434 449.259 183.357 451.852 183.357C454.445 183.357 456.543 185.434 456.543 187.99Z" stroke="#A0907F" stroke-width="0.3861"/>
<path d="M456.543 208.261C456.543 210.818 454.445 212.894 451.852 212.894C449.259 212.894 447.161 210.818 447.161 208.261C447.161 205.704 449.259 203.628 451.852 203.628C454.445 203.628 456.543 205.704 456.543 208.261Z" stroke="#A0907F" stroke-width="0.3861"/>
<path d="M456.543 228.531C456.543 231.088 454.445 233.164 451.852 233.164C449.259 233.164 447.161 231.088 447.161 228.531C447.161 225.974 449.259 223.898 451.852 223.898C454.445 223.898 456.543 225.974 456.543 228.531Z" stroke="#A0907F" stroke-width="0.3861"/>
<path d="M456.543 248.801C456.543 251.358 454.445 253.435 451.852 253.435C449.259 253.435 447.161 251.358 447.161 248.801C447.161 246.245 449.259 244.168 451.852 244.168C454.445 244.168 456.543 246.245 456.543 248.801Z" stroke="#A0907F" stroke-width="0.3861"/>
<path d="M479.204 147.45C479.204 150.006 477.106 152.083 474.513 152.083C471.92 152.083 469.822 150.006 469.822 147.45C469.822 144.893 471.92 142.817 474.513 142.817C477.106 142.817 479.204 144.893 479.204 147.45Z" stroke="#A0907F" stroke-width="0.3861"/>
<path d="M479.204 167.72C479.204 170.277 477.106 172.354 474.513 172.354C471.92 172.354 469.822 170.277 469.822 167.72C469.822 165.164 471.92 163.087 474.513 163.087C477.106 163.087 479.204 165.164 479.204 167.72Z" stroke="#A0907F" stroke-width="0.3861"/>
<path d="M479.204 187.99C479.204 190.547 477.106 192.624 474.513 192.624C471.92 192.624 469.822 190.547 469.822 187.99C469.822 185.434 471.92 183.357 474.513 183.357C477.106 183.357 479.204 185.434 479.204 187.99Z" stroke="#A0907F" stroke-width="0.3861"/>
<path d="M479.204 208.261C479.204 210.818 477.106 212.894 474.513 212.894C471.92 212.894 469.822 210.818 469.822 208.261C469.822 205.704 471.92 203.628 474.513 203.628C477.106 203.628 479.204 205.704 479.204 208.261Z" stroke="#A0907F" stroke-width="0.3861"/>
<path d="M479.204 228.531C479.204 231.088 477.106 233.164 474.513 233.164C471.92 233.164 469.822 231.088 469.822 228.531C469.822 225.974 471.92 223.898 474.513 223.898C477.106 223.898 479.204 225.974 479.204 228.531Z" stroke="#A0907F" stroke-width="0.3861"/>
<path d="M479.204 248.801C479.204 251.358 477.106 253.435 474.513 253.435C471.92 253.435 469.822 251.358 469.822 248.801C469.822 246.245 471.92 244.168 474.513 244.168C477.106 244.168 479.204 246.245 479.204 248.801Z" stroke="#A0907F" stroke-width="0.3861"/>
<path d="M501.866 147.45C501.866 150.006 499.768 152.083 497.175 152.083C494.582 152.083 492.484 150.006 492.484 147.45C492.484 144.893 494.582 142.817 497.175 142.817C499.768 142.817 501.866 144.893 501.866 147.45Z" stroke="#A0907F" stroke-width="0.3861"/>
<path d="M501.866 167.72C501.866 170.277 499.768 172.354 497.175 172.354C494.582 172.354 492.484 170.277 492.484 167.72C492.484 165.164 494.582 163.087 497.175 163.087C499.768 163.087 501.866 165.164 501.866 167.72Z" stroke="#A0907F" stroke-width="0.3861"/>
<path d="M501.866 187.99C501.866 190.547 499.768 192.624 497.175 192.624C494.582 192.624 492.484 190.547 492.484 187.99C492.484 185.434 494.582 183.357 497.175 183.357C499.768 183.357 501.866 185.434 501.866 187.99Z" stroke="#A0907F" stroke-width="0.3861"/>
<path d="M501.866 208.261C501.866 210.818 499.768 212.894 497.175 212.894C494.582 212.894 492.484 210.818 492.484 208.261C492.484 205.704 494.582 203.628 497.175 203.628C499.768 203.628 501.866 205.704 501.866 208.261Z" stroke="#A0907F" stroke-width="0.3861"/>
<path d="M501.866 228.531C501.866 231.088 499.768 233.164 497.175 233.164C494.582 233.164 492.484 231.088 492.484 228.531C492.484 225.974 494.582 223.898 497.175 223.898C499.768 223.898 501.866 225.974 501.866 228.531Z" stroke="#A0907F" stroke-width="0.3861"/>
<path d="M501.866 248.801C501.866 251.358 499.768 253.435 497.175 253.435C494.582 253.435 492.484 251.358 492.484 248.801C492.484 246.245 494.582 244.168 497.175 244.168C499.768 244.168 501.866 246.245 501.866 248.801Z" stroke="#A0907F" stroke-width="0.3861"/>
<path d="M524.526 147.45C524.526 150.006 522.428 152.083 519.835 152.083C517.242 152.083 515.144 150.006 515.144 147.45C515.144 144.893 517.242 142.817 519.835 142.817C522.428 142.817 524.526 144.893 524.526 147.45Z" stroke="#A0907F" stroke-width="0.3861"/>
<path d="M524.526 167.72C524.526 170.277 522.428 172.354 519.835 172.354C517.242 172.354 515.144 170.277 515.144 167.72C515.144 165.164 517.242 163.087 519.835 163.087C522.428 163.087 524.526 165.164 524.526 167.72Z" stroke="#A0907F" stroke-width="0.3861"/>
<path d="M524.526 187.99C524.526 190.547 522.428 192.624 519.835 192.624C517.242 192.624 515.144 190.547 515.144 187.99C515.144 185.434 517.242 183.357 519.835 183.357C522.428 183.357 524.526 185.434 524.526 187.99Z" stroke="#A0907F" stroke-width="0.3861"/>
<path d="M524.526 208.261C524.526 210.818 522.428 212.894 519.835 212.894C517.242 212.894 515.144 210.818 515.144 208.261C515.144 205.704 517.242 203.628 519.835 203.628C522.428 203.628 524.526 205.704 524.526 208.261Z" stroke="#A0907F" stroke-width="0.3861"/>
<path d="M524.526 228.531C524.526 231.088 522.428 233.164 519.835 233.164C517.242 233.164 515.144 231.088 515.144 228.531C515.144 225.974 517.242 223.898 519.835 223.898C522.428 223.898 524.526 225.974 524.526 228.531Z" stroke="#A0907F" stroke-width="0.3861"/>
<path d="M524.526 248.801C524.526 251.358 522.428 253.435 519.835 253.435C517.242 253.435 515.144 251.358 515.144 248.801C515.144 246.245 517.242 244.168 519.835 244.168C522.428 244.168 524.526 246.245 524.526 248.801Z" stroke="#A0907F" stroke-width="0.3861"/>
<path d="M547.188 147.45C547.188 150.006 545.09 152.083 542.497 152.083C539.904 152.083 537.806 150.006 537.806 147.45C537.806 144.893 539.904 142.817 542.497 142.817C545.09 142.817 547.188 144.893 547.188 147.45Z" stroke="#A0907F" stroke-width="0.3861"/>
<path d="M547.188 167.72C547.188 170.277 545.09 172.354 542.497 172.354C539.904 172.354 537.806 170.277 537.806 167.72C537.806 165.164 539.904 163.087 542.497 163.087C545.09 163.087 547.188 165.164 547.188 167.72Z" stroke="#A0907F" stroke-width="0.3861"/>
<path d="M547.188 187.99C547.188 190.547 545.09 192.624 542.497 192.624C539.904 192.624 537.806 190.547 537.806 187.99C537.806 185.434 539.904 183.357 542.497 183.357C545.09 183.357 547.188 185.434 547.188 187.99Z" stroke="#A0907F" stroke-width="0.3861"/>
<path d="M547.188 208.261C547.188 210.818 545.09 212.894 542.497 212.894C539.904 212.894 537.806 210.818 537.806 208.261C537.806 205.704 539.904 203.628 542.497 203.628C545.09 203.628 547.188 205.704 547.188 208.261Z" stroke="#A0907F" stroke-width="0.3861"/>
<path d="M547.188 228.531C547.188 231.088 545.09 233.164 542.497 233.164C539.904 233.164 537.806 231.088 537.806 228.531C537.806 225.974 539.904 223.898 542.497 223.898C545.09 223.898 547.188 225.974 547.188 228.531Z" stroke="#A0907F" stroke-width="0.3861"/>
<path d="M547.188 248.801C547.188 251.358 545.09 253.435 542.497 253.435C539.904 253.435 537.806 251.358 537.806 248.801C537.806 246.245 539.904 244.168 542.497 244.168C545.09 244.168 547.188 246.245 547.188 248.801Z" stroke="#A0907F" stroke-width="0.3861"/>
<path d="M246.486 295.521V476.409" stroke="#A0907F" stroke-width="0.579151"/>
<path d="M0.188477 295.521H269.3" stroke="#614F41" stroke-width="0.965251"/>
<path d="M0.188477 315.791H269.3" stroke="#A0907F" stroke-width="0.579151"/>
<path d="M0.188477 336.061H269.3" stroke="#A0907F" stroke-width="0.579151"/>
<path d="M0.188477 356.332H269.3" stroke="#A0907F" stroke-width="0.579151"/>
<path d="M0.188477 376.602H269.3" stroke="#A0907F" stroke-width="0.579151"/>
<path d="M0.188477 396.872H269.3" stroke="#A0907F" stroke-width="0.579151"/>
<path d="M0.188477 417.142H269.3" stroke="#A0907F" stroke-width="0.579151"/>
<path d="M0.188477 436.833H269.3" stroke="#A0907F" stroke-width="0.579151"/>
<path d="M0.188477 456.524H269.3" stroke="#A0907F" stroke-width="0.579151"/>
<path d="M0.188477 476.215H269.3" stroke="#A0907F" stroke-width="0.579151"/>
<path d="M5.43172 286.313L6.64408 281.865H7.47033L6.04176 287.077H4.89118L3.89504 283.085L2.8989 287.077H1.74832L0.319751 281.865H1.14601L2.35064 286.297L3.45489 281.865H4.32747L5.43172 286.313ZM12.1264 281.865V282.567H9.31559V284.104H11.8947V284.799H9.31559V286.374H12.1264V287.077H8.52022V281.865H12.1264ZM16.9466 281.865V282.567H14.1358V284.104H16.715V284.799H14.1358V286.374H16.9466V287.077H13.3404V281.865H16.9466ZM22.4541 287.077H21.5661L19.9058 284.351L18.956 285.309V287.077H18.1607V281.865H18.956V284.297L21.3576 281.865H22.3537L20.4541 283.788L22.4541 287.077ZM26.9077 287.077H23.456V281.865H24.2513V286.374H26.9077V287.077ZM29.9993 281.865H30.926L29.0727 284.714V287.077H28.2773V284.699L26.4318 281.865H27.3507L28.6789 283.942L29.9993 281.865ZM33.0345 281.865H37.3819V282.567H35.6059V287.077H34.8105V282.567H33.0345V281.865ZM42.1337 287.077H41.2843L40.8364 285.873H38.4657L38.0179 287.077H37.1684L39.153 281.865H40.1491L42.1337 287.077ZM39.6549 282.668L38.7129 285.201H40.5893L39.6549 282.668ZM44.9076 287.17C43.7262 287.17 42.9617 286.591 42.8073 285.579L43.5717 285.394C43.6876 286.089 44.1972 286.498 44.954 286.498C45.6181 286.498 46.0042 286.174 46.0042 285.672C46.0042 285.069 45.3941 284.938 44.7223 284.768C43.9115 284.552 42.9926 284.297 42.9926 283.239C42.9926 282.367 43.7185 281.764 44.8382 281.764C45.7802 281.764 46.5833 282.189 46.7918 283.232L46.0737 283.417C45.927 282.714 45.4559 282.428 44.8382 282.428C44.1818 282.428 43.7802 282.737 43.7802 283.216C43.7802 283.764 44.3362 283.896 45.0312 284.066C45.8497 284.266 46.7995 284.56 46.7995 285.587C46.7995 286.567 46.1354 287.17 44.9076 287.17ZM52.3648 287.077H51.4768L49.8166 284.351L48.8667 285.309V287.077H48.0714V281.865H48.8667V284.297L51.2683 281.865H52.2644L50.3648 283.788L52.3648 287.077Z" fill="#614F41"/>
<path d="M534.02 295.521V476.409" stroke="#A0907F" stroke-width="0.579151"/>
<path d="M280.69 295.521H556.366" stroke="#614F41" stroke-width="0.965251"/>
<path d="M280.69 315.791H556.366" stroke="#A0907F" stroke-width="0.579151"/>
<path d="M280.69 336.061H556.366" stroke="#A0907F" stroke-width="0.579151"/>
<path d="M280.69 356.332H556.366" stroke="#A0907F" stroke-width="0.579151"/>
<path d="M280.69 376.602H556.366" stroke="#A0907F" stroke-width="0.579151"/>
<path d="M280.69 396.872H556.366" stroke="#A0907F" stroke-width="0.579151"/>
<path d="M280.69 417.142H556.366" stroke="#A0907F" stroke-width="0.579151"/>
<path d="M280.69 436.833H556.366" stroke="#A0907F" stroke-width="0.579151"/>
<path d="M280.69 456.524H556.366" stroke="#A0907F" stroke-width="0.579151"/>
<path d="M280.69 476.215H556.366" stroke="#A0907F" stroke-width="0.579151"/>
<path d="M283.934 285.633L285.27 281.865H286.636V287.077H285.841V282.297L284.212 287.077H283.648L282.019 282.297V287.077H281.223V281.865H282.59L283.934 285.633ZM290.504 287.17C288.959 287.17 287.871 286.073 287.871 284.467C287.871 282.869 288.959 281.764 290.504 281.764C292.048 281.764 293.137 282.869 293.137 284.467C293.137 286.073 292.048 287.17 290.504 287.17ZM290.504 286.436C291.585 286.436 292.342 285.649 292.342 284.467C292.342 283.293 291.585 282.498 290.504 282.498C289.423 282.498 288.666 283.293 288.666 284.467C288.666 285.649 289.423 286.436 290.504 286.436ZM297.992 285.996V281.865H298.787V287.077H297.814L295.158 282.923V287.077H294.363V281.865H295.328L297.992 285.996ZM299.941 281.865H304.289V282.567H302.513V287.077H301.718V282.567H299.941V281.865ZM306.081 287.077H305.285V281.865H306.081V284.096H308.683V281.865H309.478V287.077H308.683V284.799H306.081V287.077ZM314.387 287.077H310.935V281.865H311.73V286.374H314.387V287.077ZM317.478 281.865H318.405L316.552 284.714V287.077H315.756V284.699L313.911 281.865H314.83L316.158 283.942L317.478 281.865ZM320.513 281.865H324.861V282.567H323.085V287.077H322.289V282.567H320.513V281.865ZM329.613 287.077H328.763L328.315 285.873H325.945L325.497 287.077H324.647L326.632 281.865H327.628L329.613 287.077ZM327.134 282.668L326.192 285.201H328.068L327.134 282.668ZM332.387 287.17C331.205 287.17 330.441 286.591 330.286 285.579L331.051 285.394C331.166 286.089 331.676 286.498 332.433 286.498C333.097 286.498 333.483 286.174 333.483 285.672C333.483 285.069 332.873 284.938 332.201 284.768C331.39 284.552 330.471 284.297 330.471 283.239C330.471 282.367 331.197 281.764 332.317 281.764C333.259 281.764 334.062 282.189 334.271 283.232L333.553 283.417C333.406 282.714 332.935 282.428 332.317 282.428C331.661 282.428 331.259 282.737 331.259 283.216C331.259 283.764 331.815 283.896 332.51 284.066C333.329 284.266 334.278 284.56 334.278 285.587C334.278 286.567 333.614 287.17 332.387 287.17ZM339.844 287.077H338.956L337.295 284.351L336.346 285.309V287.077H335.55V281.865H336.346V284.297L338.747 281.865H339.743L337.844 283.788L339.844 287.077Z" fill="#614F41"/>
<path d="M0.264648 512.896H556.365" stroke="#614F41" stroke-width="0.965251"/>
<path d="M0.264648 533.166H556.365" stroke="#A0907F" stroke-width="0.19305"/>
<path d="M0.264648 553.437H556.365" stroke="#A0907F" stroke-width="0.19305"/>
<path d="M0.264648 573.707H556.365" stroke="#A0907F" stroke-width="0.19305"/>
<path d="M0.264648 593.977H556.365" stroke="#A0907F" stroke-width="0.19305"/>
<path d="M0.264648 614.248H556.365" stroke="#A0907F" stroke-width="0.19305"/>
<path d="M0.264648 634.518H556.365" stroke="#A0907F" stroke-width="0.19305"/>
<path d="M0.264648 654.788H556.365" stroke="#A0907F" stroke-width="0.19305"/>
<path d="M0.264648 675.058H556.365" stroke="#614F41" stroke-width="0.965251"/>
<path d="M0.264648 512.896V675.058" stroke="#A0907F" stroke-width="0.19305"/>
<path d="M20.1885 512.896V675.058" stroke="#A0907F" stroke-width="0.19305"/>
<path d="M39.916 512.896V675.058" stroke="#A0907F" stroke-width="0.19305"/>
<path d="M59.8398 512.896V675.058" stroke="#A0907F" stroke-width="0.19305"/>
<path d="M79.7637 512.896V675.058" stroke="#A0907F" stroke-width="0.19305"/>
<path d="M99.4922 512.896V675.058" stroke="#A0907F" stroke-width="0.19305"/>
<path d="M119.416 512.896V675.058" stroke="#A0907F" stroke-width="0.19305"/>
<path d="M139.339 512.896V675.058" stroke="#A0907F" stroke-width="0.19305"/>
<path d="M159.066 512.896V675.058" stroke="#A0907F" stroke-width="0.19305"/>
<path d="M178.99 512.896V675.058" stroke="#A0907F" stroke-width="0.19305"/>
<path d="M198.914 512.896V675.058" stroke="#A0907F" stroke-width="0.19305"/>
<path d="M218.643 512.896V675.058" stroke="#A0907F" stroke-width="0.19305"/>
<path d="M238.566 512.896V675.058" stroke="#A0907F" stroke-width="0.19305"/>
<path d="M258.489 512.896V675.058" stroke="#A0907F" stroke-width="0.19305"/>
<path d="M278.412 512.896V675.058" stroke="#A0907F" stroke-width="0.19305"/>
<path d="M298.141 512.896V675.058" stroke="#A0907F" stroke-width="0.19305"/>
<path d="M318.064 512.896V675.058" stroke="#A0907F" stroke-width="0.19305"/>
<path d="M337.988 512.896V675.058" stroke="#A0907F" stroke-width="0.19305"/>
<path d="M357.717 512.896V675.058" stroke="#A0907F" stroke-width="0.19305"/>
<path d="M377.64 512.896V675.058" stroke="#A0907F" stroke-width="0.19305"/>
<path d="M397.562 512.896V675.058" stroke="#A0907F" stroke-width="0.19305"/>
<path d="M417.291 512.896V675.058" stroke="#A0907F" stroke-width="0.19305"/>
<path d="M437.215 512.896V675.058" stroke="#A0907F" stroke-width="0.19305"/>
<path d="M457.139 512.896V675.058" stroke="#A0907F" stroke-width="0.19305"/>
<path d="M476.866 512.896V675.058" stroke="#A0907F" stroke-width="0.19305"/>
<path d="M496.79 512.896V675.058" stroke="#A0907F" stroke-width="0.19305"/>
<path d="M516.713 512.896V675.058" stroke="#A0907F" stroke-width="0.19305"/>
<path d="M536.441 512.896V675.058" stroke="#A0907F" stroke-width="0.19305"/>
<path d="M556.365 512.896V675.058" stroke="#A0907F" stroke-width="0.19305"/>
<path d="M4.42681 505.108V500.977H5.22218V506.189H4.2492L1.59283 502.035V506.189H0.797467V500.977H1.76272L4.42681 505.108ZM9.09024 506.282C7.54584 506.282 6.45704 505.185 6.45704 503.579C6.45704 501.98 7.54584 500.876 9.09024 500.876C10.6346 500.876 11.7234 501.98 11.7234 503.579C11.7234 505.185 10.6346 506.282 9.09024 506.282ZM9.09024 505.548C10.1713 505.548 10.9281 504.76 10.9281 503.579C10.9281 502.405 10.1713 501.61 9.09024 501.61C8.00916 501.61 7.2524 502.405 7.2524 503.579C7.2524 504.76 8.00916 505.548 9.09024 505.548ZM12.1918 500.977H16.5393V501.679H14.7633V506.189H13.9679V501.679H12.1918V500.977ZM21.2925 500.977V501.679H18.4817V503.216H21.0609V503.911H18.4817V505.486H21.2925V506.189H17.6863V500.977H21.2925ZM24.2309 506.282C23.0495 506.282 22.285 505.702 22.1305 504.691L22.895 504.506C23.0108 505.201 23.5205 505.61 24.2773 505.61C24.9414 505.61 25.3275 505.285 25.3275 504.784C25.3275 504.181 24.7174 504.05 24.0456 503.88C23.2348 503.664 22.3159 503.409 22.3159 502.351C22.3159 501.479 23.0417 500.876 24.1614 500.876C25.1035 500.876 25.9066 501.301 26.1151 502.343L25.3969 502.529C25.2502 501.826 24.7792 501.54 24.1614 501.54C23.5051 501.54 23.1035 501.849 23.1035 502.328C23.1035 502.876 23.6595 503.007 24.3545 503.177C25.173 503.378 26.1228 503.672 26.1228 504.699C26.1228 505.679 25.4587 506.282 24.2309 506.282Z" fill="#614F41"/>
</svg>
