<svg width="557" height="674" viewBox="0 0 557 674" fill="none" xmlns="http://www.w3.org/2000/svg">
<rect x="0.150391" y="329.436" width="556.178" height="19.8842" fill="#F1EBE5"/>
<path d="M0.150391 228.085H556.328" stroke="#614F41" stroke-width="0.965251"/>
<path d="M0.150391 248.355H556.328" stroke="#A0907F" stroke-width="0.579151"/>
<path d="M0.150391 268.625H556.328" stroke="#A0907F" stroke-width="0.579151"/>
<path d="M0.150391 288.896H556.328" stroke="#A0907F" stroke-width="0.579151"/>
<path d="M0.150391 309.166H556.328" stroke="#A0907F" stroke-width="0.579151"/>
<path d="M0.150391 329.436H556.328" stroke="#A0907F" stroke-width="0.579151"/>
<path d="M1.47858 219.64H0.683209V214.428H1.47858V219.64ZM6.56129 218.559V214.428H7.35665V219.64H6.38368L3.72731 215.486V219.64H2.93194V214.428H3.89719L6.56129 218.559ZM11.2247 219.733C9.68031 219.733 8.59151 218.637 8.59151 217.03C8.59151 215.432 9.68031 214.328 11.2247 214.328C12.4988 214.328 13.4641 215.084 13.7498 216.243L12.9853 216.436C12.8 215.664 12.1822 215.061 11.2247 215.061C10.1436 215.061 9.38688 215.857 9.38688 217.03C9.38688 218.212 10.1436 218.999 11.2247 218.999C11.966 218.999 12.5606 218.621 12.8386 217.996L13.5799 218.274C13.1938 219.169 12.3212 219.733 11.2247 219.733ZM17.2817 219.733C15.7373 219.733 14.6485 218.637 14.6485 217.03C14.6485 215.432 15.7373 214.328 17.2817 214.328C18.8261 214.328 19.9149 215.432 19.9149 217.03C19.9149 218.637 18.8261 219.733 17.2817 219.733ZM17.2817 218.999C18.3627 218.999 19.1195 218.212 19.1195 217.03C19.1195 215.857 18.3627 215.061 17.2817 215.061C16.2006 215.061 15.4438 215.857 15.4438 217.03C15.4438 218.212 16.2006 218.999 17.2817 218.999ZM23.8509 218.196L25.1868 214.428H26.5536V219.64H25.7583V214.86L24.1289 219.64H23.5652L21.9359 214.86V219.64H21.1405V214.428H22.5073L23.8509 218.196ZM31.6181 214.428V215.131H28.8072V216.667H31.3864V217.362H28.8072V218.938H31.6181V219.64H28.0119V214.428H31.6181Z" fill="#614F41"/>
<path d="M0.227611 335.471H4.5751V336.173H2.79904V340.683H2.00367V336.173H0.227611V335.471ZM7.67893 340.776C6.13452 340.776 5.04572 339.679 5.04572 338.073C5.04572 336.474 6.13452 335.37 7.67893 335.37C9.22333 335.37 10.3121 336.474 10.3121 338.073C10.3121 339.679 9.22333 340.776 7.67893 340.776ZM7.67893 340.042C8.76001 340.042 9.51676 339.254 9.51676 338.073C9.51676 336.899 8.76001 336.104 7.67893 336.104C6.59784 336.104 5.84109 336.899 5.84109 338.073C5.84109 339.254 6.59784 340.042 7.67893 340.042ZM10.7805 335.471H15.128V336.173H13.3519V340.683H12.5566V336.173H10.7805V335.471ZM19.8798 340.683H19.0303L18.5825 339.478H16.2118L15.7639 340.683H14.9145L16.8991 335.471H17.8952L19.8798 340.683ZM17.401 336.274L16.4589 338.806H18.3354L17.401 336.274ZM24.3283 340.683H20.8766V335.471H21.6719V339.98H24.3283V340.683Z" fill="#614F41"/>
<path d="M379.533 214.428H381.672C382.784 214.428 383.479 214.853 383.479 215.957C383.479 217.061 382.784 217.486 381.672 217.486H380.328V219.64H379.533V214.428ZM380.328 216.783H381.641C382.32 216.783 382.683 216.575 382.683 215.957C382.683 215.339 382.313 215.131 381.641 215.131H380.328V216.783ZM388.717 219.64H387.829L386.532 217.486H385.412V219.64H384.617V214.428H386.872C387.984 214.428 388.679 214.853 388.679 215.957C388.679 216.884 388.192 217.332 387.381 217.447L388.717 219.64ZM386.841 215.131H385.412V216.783H386.841C387.52 216.783 387.883 216.575 387.883 215.957C387.883 215.339 387.505 215.131 386.841 215.131ZM392.329 219.733C390.785 219.733 389.696 218.637 389.696 217.03C389.696 215.432 390.785 214.328 392.329 214.328C393.873 214.328 394.962 215.432 394.962 217.03C394.962 218.637 393.873 219.733 392.329 219.733ZM392.329 218.999C393.41 218.999 394.167 218.212 394.167 217.03C394.167 215.857 393.41 215.061 392.329 215.061C391.248 215.061 390.491 215.857 390.491 217.03C390.491 218.212 391.248 218.999 392.329 218.999ZM396.545 219.733C396.136 219.733 395.726 219.625 395.309 219.378L395.649 218.729C395.904 218.899 396.166 218.992 396.452 218.992C396.946 218.992 397.201 218.652 397.201 218.034V214.428H397.997V218.173C397.997 219.162 397.402 219.733 396.545 219.733ZM403.031 214.428V215.131H400.22V216.667H402.799V217.362H400.22V218.938H403.031V219.64H399.425V214.428H403.031ZM406.616 219.733C405.072 219.733 403.983 218.637 403.983 217.03C403.983 215.432 405.072 214.328 406.616 214.328C407.89 214.328 408.856 215.084 409.141 216.243L408.377 216.436C408.192 215.664 407.574 215.061 406.616 215.061C405.535 215.061 404.778 215.857 404.778 217.03C404.778 218.212 405.535 218.999 406.616 218.999C407.358 218.999 407.952 218.621 408.23 217.996L408.972 218.274C408.585 219.169 407.713 219.733 406.616 219.733ZM409.756 214.428H414.103V215.131H412.327V219.64H411.532V215.131H409.756V214.428ZM418.856 214.428V215.131H416.045V216.667H418.625V217.362H416.045V218.938H418.856V219.64H415.25V214.428H418.856ZM421.846 219.64H420.078V214.428H421.846C423.692 214.428 424.665 215.239 424.665 217.03C424.665 218.837 423.677 219.64 421.846 219.64ZM420.873 215.131V218.938H421.846C423.167 218.938 423.87 218.343 423.87 217.03C423.87 215.702 423.136 215.131 421.846 215.131H420.873Z" fill="#614F41"/>
<path d="M498.042 219.64H497.193L496.745 218.436H494.375L493.927 219.64H493.077L495.062 214.428H496.058L498.042 219.64ZM495.564 215.231L494.622 217.764H496.498L495.564 215.231ZM501.2 219.733C499.655 219.733 498.566 218.637 498.566 217.03C498.566 215.432 499.655 214.328 501.2 214.328C502.474 214.328 503.439 215.084 503.725 216.243L502.96 216.436C502.775 215.664 502.157 215.061 501.2 215.061C500.119 215.061 499.362 215.857 499.362 217.03C499.362 218.212 500.119 218.999 501.2 218.999C501.941 218.999 502.536 218.621 502.814 217.996L503.555 218.274C503.169 219.169 502.296 219.733 501.2 219.733ZM504.339 214.428H508.686V215.131H506.91V219.64H506.115V215.131H504.339V214.428ZM511.721 219.733C510.517 219.733 509.629 219.077 509.629 217.826V214.428H510.424V217.725C510.424 218.544 510.934 219.007 511.721 219.007C512.509 219.007 513.019 218.544 513.019 217.725V214.428H513.814V217.826C513.814 219.077 512.926 219.733 511.721 219.733ZM519.51 219.64H518.661L518.213 218.436H515.842L515.394 219.64H514.545L516.53 214.428H517.526L519.51 219.64ZM517.031 215.231L516.089 217.764H517.966L517.031 215.231ZM523.959 219.64H520.507V214.428H521.302V218.938H523.959V219.64Z" fill="#614F41"/>
<mask id="path-12-inside-1_570_3937" fill="white">
<path d="M349 228.084H452.475V349.32H349V228.084Z"/>
</mask>
<path d="M349.579 349.32V228.084H348.421V349.32H349.579Z" fill="#A0907F" mask="url(#path-12-inside-1_570_3937)"/>
<mask id="path-14-inside-2_570_3937" fill="white">
<path d="M452.476 228.084H555.95V349.32H452.476V228.084Z"/>
</mask>
<path d="M453.055 349.32V228.084H451.896V349.32H453.055Z" fill="#A0907F" mask="url(#path-14-inside-2_570_3937)"/>
<rect x="0.150391" y="653.567" width="556.178" height="19.8842" fill="#F1EBE5"/>
<path d="M0.150391 393.142H556.328" stroke="#614F41" stroke-width="0.965251"/>
<path d="M0.150391 413.413H556.328" stroke="#A0907F" stroke-width="0.579151"/>
<path d="M0.150391 433.683H556.328" stroke="#A0907F" stroke-width="0.579151"/>
<path d="M0.150391 453.953H556.328" stroke="#A0907F" stroke-width="0.579151"/>
<path d="M0.150391 474.223H556.328" stroke="#A0907F" stroke-width="0.579151"/>
<path d="M0.150391 494.494H556.328" stroke="#A0907F" stroke-width="0.579151"/>
<path d="M0.150391 514.378H556.328" stroke="#A0907F" stroke-width="0.579151"/>
<path d="M0.150391 534.262H556.328" stroke="#A0907F" stroke-width="0.579151"/>
<path d="M0.150391 554.147H556.328" stroke="#A0907F" stroke-width="0.579151"/>
<path d="M0.150391 574.031H556.328" stroke="#A0907F" stroke-width="0.579151"/>
<path d="M0.150391 593.916H556.328" stroke="#A0907F" stroke-width="0.579151"/>
<path d="M0.150391 613.799H556.328" stroke="#A0907F" stroke-width="0.579151"/>
<path d="M0.150391 633.684H556.328" stroke="#A0907F" stroke-width="0.579151"/>
<path d="M0.150391 653.568H556.328" stroke="#A0907F" stroke-width="0.579151"/>
<path d="M4.28939 379.486V380.189H1.47858V381.726H4.05773V382.42H1.47858V383.996H4.28939V384.698H0.683209V379.486H4.28939ZM8.00536 382.05L9.9127 384.698H8.95517L7.48027 382.66L6.01308 384.698H5.05555L6.97061 382.05L5.15594 379.486H6.08258L7.48799 381.463L8.88567 379.486H9.81231L8.00536 382.05ZM10.9194 379.486H13.0584C14.1704 379.486 14.8653 379.911 14.8653 381.015C14.8653 382.119 14.1704 382.544 13.0584 382.544H11.7148V384.698H10.9194V379.486ZM11.7148 381.841H13.0275C13.707 381.841 14.07 381.633 14.07 381.015C14.07 380.397 13.6993 380.189 13.0275 380.189H11.7148V381.841ZM19.6097 379.486V380.189H16.7989V381.726H19.3781V382.42H16.7989V383.996H19.6097V384.698H16.0036V379.486H19.6097ZM24.4531 383.617V379.486H25.2485V384.698H24.2755L21.6191 380.544V384.698H20.8238V379.486H21.789L24.4531 383.617ZM28.5297 384.791C27.3482 384.791 26.5837 384.212 26.4293 383.2L27.1938 383.015C27.3096 383.71 27.8192 384.119 28.576 384.119C29.2401 384.119 29.6262 383.795 29.6262 383.293C29.6262 382.691 29.0162 382.559 28.3443 382.39C27.5335 382.173 26.6146 381.919 26.6146 380.861C26.6146 379.988 27.3405 379.386 28.4602 379.386C29.4023 379.386 30.2053 379.81 30.4138 380.853L29.6957 381.038C29.549 380.336 29.0779 380.05 28.4602 380.05C27.8038 380.05 27.4023 380.359 27.4023 380.837C27.4023 381.386 27.9582 381.517 28.6532 381.687C29.4718 381.888 30.4216 382.181 30.4216 383.208C30.4216 384.189 29.7575 384.791 28.5297 384.791ZM35.2996 379.486V380.189H32.4888V381.726H35.0679V382.42H32.4888V383.996H35.2996V384.698H31.6934V379.486H35.2996ZM38.238 384.791C37.0565 384.791 36.292 384.212 36.1376 383.2L36.9021 383.015C37.0179 383.71 37.5276 384.119 38.2843 384.119C38.9484 384.119 39.3345 383.795 39.3345 383.293C39.3345 382.691 38.7245 382.559 38.0527 382.39C37.2418 382.173 36.3229 381.919 36.3229 380.861C36.3229 379.988 37.0488 379.386 38.1685 379.386C39.1106 379.386 39.9137 379.81 40.1222 380.853L39.404 381.038C39.2573 380.336 38.7862 380.05 38.1685 380.05C37.5121 380.05 37.1106 380.359 37.1106 380.837C37.1106 381.386 37.6666 381.517 38.3615 381.687C39.1801 381.888 40.1299 382.181 40.1299 383.208C40.1299 384.189 39.4658 384.791 38.238 384.791Z" fill="#614F41"/>
<path d="M0.227611 659.602H4.5751V660.305H2.79904V664.814H2.00367V660.305H0.227611V659.602ZM7.67893 664.907C6.13452 664.907 5.04572 663.811 5.04572 662.204C5.04572 660.606 6.13452 659.502 7.67893 659.502C9.22333 659.502 10.3121 660.606 10.3121 662.204C10.3121 663.811 9.22333 664.907 7.67893 664.907ZM7.67893 664.174C8.76001 664.174 9.51676 663.386 9.51676 662.204C9.51676 661.031 8.76001 660.235 7.67893 660.235C6.59784 660.235 5.84109 661.031 5.84109 662.204C5.84109 663.386 6.59784 664.174 7.67893 664.174ZM10.7805 659.602H15.128V660.305H13.3519V664.814H12.5566V660.305H10.7805V659.602ZM19.8798 664.814H19.0303L18.5825 663.61H16.2118L15.7639 664.814H14.9145L16.8991 659.602H17.8952L19.8798 664.814ZM17.401 660.405L16.4589 662.938H18.3354L17.401 660.405ZM24.3283 664.814H20.8766V659.602H21.6719V664.112H24.3283V664.814Z" fill="#614F41"/>
<path d="M386.816 381.957C387.403 382.143 387.75 382.552 387.75 383.262C387.75 384.475 386.692 384.698 386.013 384.698H383.604V379.486H385.859C386.97 379.486 387.55 379.934 387.55 380.814C387.55 381.378 387.303 381.78 386.816 381.957ZM386.754 380.938C386.754 380.405 386.453 380.15 385.843 380.15H384.399V381.726H385.843C386.453 381.726 386.754 381.463 386.754 380.938ZM384.399 384.011H386.021C386.631 384.011 386.955 383.756 386.955 383.177C386.955 382.598 386.631 382.343 386.021 382.343H384.399V384.011ZM391.066 384.791C389.861 384.791 388.973 384.135 388.973 382.884V379.486H389.768V382.783C389.768 383.602 390.278 384.065 391.066 384.065C391.853 384.065 392.363 383.602 392.363 382.783V379.486H393.158V382.884C393.158 384.135 392.27 384.791 391.066 384.791ZM396.332 384.698H394.564V379.486H396.332C398.178 379.486 399.151 380.297 399.151 382.088C399.151 383.895 398.162 384.698 396.332 384.698ZM395.359 380.189V383.996H396.332C397.653 383.996 398.355 383.401 398.355 382.088C398.355 380.76 397.622 380.189 396.332 380.189H395.359ZM404.487 382.729H402.178V382.058H405.228V384.698H404.518V383.834C404.178 384.467 403.584 384.791 402.734 384.791C401.244 384.791 400.171 383.695 400.171 382.088C400.171 380.49 401.267 379.386 402.804 379.386C403.854 379.386 404.989 379.949 405.321 381.262L404.557 381.471C404.364 380.698 403.746 380.119 402.804 380.119C401.723 380.119 400.966 380.915 400.966 382.088C400.966 383.262 401.692 384.058 402.804 384.058C403.653 384.058 404.294 383.594 404.487 382.729ZM410.156 379.486V380.189H407.345V381.726H409.924V382.42H407.345V383.996H410.156V384.698H406.55V379.486H410.156ZM411.027 379.486H415.375V380.189H413.599V384.698H412.803V380.189H411.027V379.486Z" fill="#614F41"/>
<path d="M493.042 384.698H492.193L491.745 383.494H489.375L488.927 384.698H488.077L490.062 379.486H491.058L493.042 384.698ZM490.564 380.289L489.622 382.822H491.498L490.564 380.289ZM496.2 384.791C494.655 384.791 493.566 383.695 493.566 382.088C493.566 380.49 494.655 379.386 496.2 379.386C497.474 379.386 498.439 380.143 498.725 381.301L497.96 381.494C497.775 380.722 497.157 380.119 496.2 380.119C495.119 380.119 494.362 380.915 494.362 382.088C494.362 383.27 495.119 384.058 496.2 384.058C496.941 384.058 497.536 383.679 497.814 383.054L498.555 383.332C498.169 384.227 497.296 384.791 496.2 384.791ZM499.339 379.486H503.686V380.189H501.91V384.698H501.115V380.189H499.339V379.486ZM506.721 384.791C505.517 384.791 504.629 384.135 504.629 382.884V379.486H505.424V382.783C505.424 383.602 505.934 384.065 506.721 384.065C507.509 384.065 508.019 383.602 508.019 382.783V379.486H508.814V382.884C508.814 384.135 507.926 384.791 506.721 384.791ZM514.51 384.698H513.661L513.213 383.494H510.842L510.394 384.698H509.545L511.53 379.486H512.526L514.51 384.698ZM512.031 380.289L511.089 382.822H512.966L512.031 380.289ZM518.959 384.698H515.507V379.486H516.302V383.996H518.959V384.698Z" fill="#614F41"/>
<mask id="path-35-inside-3_570_3937" fill="white">
<path d="M451.617 393.335H556.328V673.451H451.617V393.335Z"/>
</mask>
<path d="M452.196 673.451V393.335H451.038V673.451H452.196Z" fill="#A0907F" mask="url(#path-35-inside-3_570_3937)"/>
<mask id="path-37-inside-4_570_3937" fill="white">
<path d="M346.906 393.335H451.617V673.451H346.906V393.335Z"/>
</mask>
<path d="M347.485 673.451V393.335H346.327V673.451H347.485Z" fill="#A0907F" mask="url(#path-37-inside-4_570_3937)"/>
<path d="M284.706 16.1152H556.328" stroke="#614F41" stroke-width="0.965251"/>
<path d="M284.706 34.8411H556.328" stroke="#A0907F" stroke-width="0.579151"/>
<path d="M284.706 91.0188H556.328" stroke="#A0907F" stroke-width="0.579151"/>
<path d="M284.706 147.196H556.328" stroke="#A0907F" stroke-width="0.579151"/>
<path d="M284.706 53.5669H556.328" stroke="#A0907F" stroke-width="0.579151"/>
<path d="M284.706 109.745H556.328" stroke="#A0907F" stroke-width="0.579151"/>
<path d="M284.706 165.922H556.328" stroke="#A0907F" stroke-width="0.579151"/>
<path d="M284.706 72.293H556.328" stroke="#A0907F" stroke-width="0.579151"/>
<path d="M284.706 128.47H556.328" stroke="#A0907F" stroke-width="0.579151"/>
<path d="M284.706 184.648H556.328" stroke="#A0907F" stroke-width="0.579151"/>
<path d="M288.868 6.01072V1.87944H289.664V7.0918H288.691L286.034 2.93736V7.0918H285.239V1.87944H286.204L288.868 6.01072ZM293.532 7.18446C291.987 7.18446 290.898 6.08794 290.898 4.48176C290.898 2.8833 291.987 1.77906 293.532 1.77906C295.076 1.77906 296.165 2.8833 296.165 4.48176C296.165 6.08794 295.076 7.18446 293.532 7.18446ZM293.532 6.45087C294.613 6.45087 295.369 5.66323 295.369 4.48176C295.369 3.30801 294.613 2.51265 293.532 2.51265C292.451 2.51265 291.694 3.30801 291.694 4.48176C291.694 5.66323 292.451 6.45087 293.532 6.45087ZM296.633 1.87944H300.981V2.58214H299.205V7.0918H298.409V2.58214H296.633V1.87944ZM305.734 1.87944V2.58214H302.923V4.11882H305.502V4.8138H302.923V6.38909H305.734V7.0918H302.128V1.87944H305.734ZM308.672 7.18446C307.491 7.18446 306.726 6.60531 306.572 5.59373L307.336 5.4084C307.452 6.10338 307.962 6.51265 308.719 6.51265C309.383 6.51265 309.769 6.18832 309.769 5.68639C309.769 5.08407 309.159 4.9528 308.487 4.78292C307.676 4.5667 306.757 4.31187 306.757 3.25396C306.757 2.38137 307.483 1.77906 308.603 1.77906C309.545 1.77906 310.348 2.20377 310.557 3.24624L309.838 3.43156C309.692 2.72886 309.221 2.44315 308.603 2.44315C307.946 2.44315 307.545 2.75203 307.545 3.23079C307.545 3.77906 308.101 3.91033 308.796 4.08021C309.614 4.28099 310.564 4.57442 310.564 5.60145C310.564 6.58214 309.9 7.18446 308.672 7.18446Z" fill="#614F41"/>
<mask id="path-50-inside-5_570_3937" fill="white">
<path d="M0.34375 15.5361H268.877V184.262H0.34375V15.5361Z"/>
</mask>
<path d="M0.34375 15.5361H268.877V184.262H0.34375V15.5361Z" fill="#F1EBE5"/>
<path d="M0.34375 16.5014H268.877V14.5709H0.34375V16.5014Z" fill="#614F41" mask="url(#path-50-inside-5_570_3937)"/>
<path d="M4.28939 3.81011V4.51281H1.47858V6.04949H4.01139V6.74447H1.47858V9.02246H0.683209V3.81011H4.28939ZM6.17814 9.02246H5.38277V3.81011H6.17814V9.02246ZM11.2609 7.94138V3.81011H12.0562V9.02246H11.0832L8.42687 4.86802V9.02246H7.63151V3.81011H8.59676L11.2609 7.94138ZM18.0247 9.02246H17.1752L16.7274 7.81783H14.3567L13.9088 9.02246H13.0594L15.044 3.81011H16.0401L18.0247 9.02246ZM15.5459 4.61319L14.6038 7.14601H16.4803L15.5459 4.61319ZM22.6508 7.94138V3.81011H23.4462V9.02246H22.4732L19.8168 4.86802V9.02246H19.0215V3.81011H19.9867L22.6508 7.94138ZM27.3142 9.11513C25.7698 9.11513 24.681 8.0186 24.681 6.41242C24.681 4.81397 25.7698 3.70972 27.3142 3.70972C28.5884 3.70972 29.5536 4.46648 29.8393 5.62478L29.0749 5.81783C28.8895 5.04563 28.2718 4.44331 27.3142 4.44331C26.2332 4.44331 25.4764 5.23868 25.4764 6.41242C25.4764 7.59389 26.2332 8.38153 27.3142 8.38153C28.0556 8.38153 28.6501 8.00316 28.9281 7.37767L29.6695 7.65567C29.2834 8.55142 28.4108 9.11513 27.3142 9.11513ZM34.6284 3.81011V4.51281H31.8176V6.04949H34.3968V6.74447H31.8176V8.31976H34.6284V9.02246H31.0223V3.81011H34.6284ZM42.3272 7.05335H40.0183V6.38153H43.0685V9.02246H42.358V8.1576C42.0183 8.7908 41.4237 9.11513 40.5743 9.11513C39.0839 9.11513 38.0105 8.0186 38.0105 6.41242C38.0105 4.81397 39.1071 3.70972 40.6438 3.70972C41.6939 3.70972 42.8291 4.27343 43.1611 5.58617L42.3966 5.79466C42.2036 5.02246 41.5858 4.44331 40.6438 4.44331C39.5627 4.44331 38.8059 5.23868 38.8059 6.41242C38.8059 7.58617 39.5318 8.38153 40.6438 8.38153C41.4932 8.38153 42.1341 7.91821 42.3272 7.05335ZM46.7987 9.11513C45.2543 9.11513 44.1655 8.0186 44.1655 6.41242C44.1655 4.81397 45.2543 3.70972 46.7987 3.70972C48.3431 3.70972 49.4319 4.81397 49.4319 6.41242C49.4319 8.0186 48.3431 9.11513 46.7987 9.11513ZM46.7987 8.38153C47.8798 8.38153 48.6366 7.59389 48.6366 6.41242C48.6366 5.23868 47.8798 4.44331 46.7987 4.44331C45.7177 4.44331 44.9609 5.23868 44.9609 6.41242C44.9609 7.59389 45.7177 8.38153 46.7987 8.38153ZM54.9335 9.02246H54.084L53.6362 7.81783H51.2655L50.8176 9.02246H49.9682L51.9528 3.81011H52.9489L54.9335 9.02246ZM52.4547 4.61319L51.5126 7.14601H53.389L52.4547 4.61319ZM59.382 9.02246H55.9303V3.81011H56.7256V8.31976H59.382V9.02246ZM62.1129 9.11513C60.9314 9.11513 60.1669 8.53597 60.0125 7.52439L60.777 7.33906C60.8928 8.03404 61.4024 8.44331 62.1592 8.44331C62.8233 8.44331 63.2094 8.11899 63.2094 7.61706C63.2094 7.01474 62.5994 6.88346 61.9275 6.71358C61.1167 6.49736 60.1978 6.24254 60.1978 5.18462C60.1978 4.31204 60.9237 3.70972 62.0434 3.70972C62.9855 3.70972 63.7885 4.13443 63.997 5.1769L63.2789 5.36223C63.1322 4.65953 62.6611 4.37381 62.0434 4.37381C61.387 4.37381 60.9855 4.68269 60.9855 5.16146C60.9855 5.70972 61.5414 5.84099 62.2364 6.01088C63.0549 6.21165 64.0048 6.50509 64.0048 7.53211C64.0048 8.51281 63.3407 9.11513 62.1129 9.11513Z" fill="#614F41"/>
</svg>
