<svg width="558" height="678" viewBox="0 0 558 678" fill="none" xmlns="http://www.w3.org/2000/svg">
<rect x="0.803711" y="3.08887" width="549.614" height="14.0927" fill="#F1EBE5"/>
<mask id="path-2-inside-1_526_4118" fill="white">
<path d="M0.803711 0H556.981V17.9537H0.803711V0Z"/>
</mask>
<path d="M0.803711 0H556.981V17.9537H0.803711V0Z" fill="#F1EBE5"/>
<path d="M556.981 16.9884H0.803711V18.9189H556.981V16.9884Z" fill="#614F41" mask="url(#path-2-inside-1_526_4118)"/>
<path d="M0.804688 17.3755H556.982" stroke="#614F41" stroke-width="0.965251"/>
<path d="M0.804688 37.646H556.982" stroke="#A0907F" stroke-width="0.579151"/>
<path d="M0.804688 57.916H556.982" stroke="#A0907F" stroke-width="0.579151"/>
<path d="M0.804688 78.1865H556.982" stroke="#A0907F" stroke-width="0.579151"/>
<path d="M0.804688 98.4565H556.982" stroke="#A0907F" stroke-width="0.579151"/>
<path d="M0.804688 118.727H556.982" stroke="#A0907F" stroke-width="0.579151"/>
<path d="M0.804688 138.997H556.982" stroke="#A0907F" stroke-width="0.579151"/>
<path d="M0.804688 159.268H556.982" stroke="#A0907F" stroke-width="0.579151"/>
<path d="M0.804688 179.538H556.982" stroke="#A0907F" stroke-width="0.579151"/>
<path d="M0.804688 199.808H556.982" stroke="#A0907F" stroke-width="0.579151"/>
<path d="M0.804688 220.078H556.982" stroke="#A0907F" stroke-width="0.579151"/>
<path d="M0.804688 240.349H556.982" stroke="#A0907F" stroke-width="0.579151"/>
<path d="M0.804688 260.619H556.982" stroke="#A0907F" stroke-width="0.579151"/>
<path d="M3.11259 11.0547H1.34425V5.84233H3.11259C4.95815 5.84233 5.93112 6.65314 5.93112 8.44465C5.93112 10.2516 4.94271 11.0547 3.11259 11.0547ZM2.13962 6.54503V10.352H3.11259C4.43305 10.352 5.13576 9.75739 5.13576 8.44465C5.13576 7.11646 4.40217 6.54503 3.11259 6.54503H2.13962ZM11.4507 11.0547H10.6012L10.1534 9.85005H7.78272L7.33484 11.0547H6.48542L8.46998 5.84233H9.46611L11.4507 11.0547ZM8.97191 6.64542L8.02982 9.17824H9.90627L8.97191 6.64542ZM13.2428 11.0547H12.4475V5.84233H13.2428V11.0547ZM18.1479 11.0547H14.6962V5.84233H15.4916V10.352H18.1479V11.0547ZM21.2396 5.84233H22.1662L20.3129 8.69175V11.0547H19.5176V8.67631L17.672 5.84233H18.5909L19.9191 7.91955L21.2396 5.84233Z" fill="#614F41"/>
<path d="M120.965 7.32965V6.92465H121.623V11.4062H120.965V8.1131H119.897V7.56203H120.733C120.879 7.56203 120.965 7.47572 120.965 7.32965Z" fill="#614F41"/>
<path d="M136.023 9.36131L134.602 10.8153H136.747V11.4062H133.712V10.8353L135.532 8.9895C135.837 8.67745 135.996 8.42515 135.996 8.1131C135.996 7.68818 135.704 7.42924 135.226 7.42924C134.669 7.42924 134.35 7.72802 134.35 8.29237C134.35 8.40524 134.363 8.51811 134.39 8.64426L133.752 8.73057C133.726 8.55794 133.706 8.40524 133.706 8.25917C133.706 7.36949 134.27 6.83834 135.2 6.83834C136.056 6.83834 136.647 7.32301 136.647 8.09318C136.647 8.53139 136.488 8.88991 136.023 9.36131Z" fill="#614F41"/>
<path d="M149.606 11.4859C148.596 11.4859 148.005 10.9349 148.005 9.99869H148.676C148.683 10.563 149.028 10.895 149.592 10.895C150.103 10.895 150.455 10.583 150.455 10.1116C150.455 9.62689 150.117 9.31484 149.526 9.31484H149.347V8.7704H149.473C149.951 8.7704 150.25 8.49155 150.25 8.07327C150.25 7.68154 149.971 7.4226 149.552 7.4226C149.108 7.4226 148.796 7.72138 148.796 8.19278C148.796 8.25917 148.802 8.3322 148.815 8.40524L148.165 8.43843C148.145 8.33884 148.138 8.24589 148.138 8.15958C148.138 7.36949 148.703 6.83834 149.559 6.83834C150.369 6.83834 150.887 7.34957 150.887 8.00023C150.887 8.51147 150.568 8.85008 150.236 8.97623C150.721 9.0891 151.126 9.4609 151.126 10.1116C151.126 10.9149 150.515 11.4859 149.606 11.4859Z" fill="#614F41"/>
<path d="M165.093 9.86591H165.604V10.4502H165.093V11.4062H164.435V10.4502H162.251V9.85927L164.21 6.92465H165.093V9.86591ZM164.435 7.51556L162.915 9.86591H164.435V7.51556Z" fill="#614F41"/>
<path d="M177.501 8.5513H178.178C179.141 8.5513 179.752 8.99614 179.752 9.93894C179.752 10.8817 179.141 11.4859 178.218 11.4859C177.262 11.4859 176.651 10.9349 176.651 10.0385V9.85927H177.302V9.98542C177.302 10.5564 177.634 10.895 178.231 10.895C178.769 10.895 179.094 10.5166 179.094 9.97878C179.094 9.275 178.53 9.09574 177.972 9.09574H176.804L177.023 6.92465H179.553V7.50892H177.614L177.501 8.5513Z" fill="#614F41"/>
<path d="M192.585 8.40524C193.395 8.40524 194.052 9.02934 194.052 9.91238C194.052 10.8021 193.329 11.4859 192.439 11.4859C191.536 11.4859 190.852 10.7755 190.852 9.90574C190.852 9.51402 190.985 9.14221 191.257 8.8036L192.758 6.92465H193.554L192.333 8.42515C192.419 8.41188 192.499 8.40524 192.585 8.40524ZM193.408 9.8991C193.415 9.33475 193.023 8.88991 192.432 8.88991C191.861 8.88991 191.476 9.31484 191.47 9.88582C191.456 10.4369 191.835 10.895 192.426 10.895C192.997 10.895 193.402 10.4502 193.408 9.8991Z" fill="#614F41"/>
<path d="M205.159 7.50892V6.92465H208.273V7.50892L206.089 11.4062H205.332L207.556 7.50892H205.159Z" fill="#614F41"/>
<path d="M221.066 11.4859C220.176 11.4859 219.519 10.9415 219.519 10.1315C219.519 9.59369 219.817 9.17541 220.289 8.97623C219.93 8.79032 219.698 8.44507 219.698 8.02015C219.698 7.33629 220.276 6.83834 221.066 6.83834C221.849 6.83834 222.427 7.34293 222.427 8.02015C222.427 8.44507 222.194 8.78368 221.849 8.97623C222.321 9.18205 222.613 9.60033 222.613 10.1315C222.613 10.9415 221.955 11.4859 221.066 11.4859ZM221.066 8.78368C221.491 8.78368 221.803 8.47827 221.803 8.07991C221.803 7.68818 221.484 7.40269 221.066 7.40269C220.641 7.40269 220.329 7.68818 220.329 8.07991C220.329 8.48491 220.641 8.78368 221.066 8.78368ZM221.066 10.895C221.577 10.895 221.955 10.5498 221.955 10.0584C221.955 9.56049 221.584 9.23516 221.066 9.23516C220.548 9.23516 220.176 9.56049 220.176 10.0584C220.176 10.5498 220.554 10.895 221.066 10.895Z" fill="#614F41"/>
<path d="M235.457 6.84497C236.36 6.84497 237.044 7.55539 237.044 8.42515C237.044 8.81688 236.911 9.18205 236.639 9.5273L235.139 11.4062H234.342L235.557 9.90574C235.477 9.91902 235.391 9.92566 235.311 9.92566C234.501 9.92566 233.844 9.29492 233.844 8.41188C233.844 7.52883 234.568 6.84497 235.457 6.84497ZM236.427 8.44507C236.44 7.894 236.061 7.42924 235.471 7.42924C234.9 7.42924 234.495 7.88072 234.488 8.42515C234.481 8.9895 234.873 9.44098 235.464 9.44098C236.035 9.44098 236.42 9.00942 236.427 8.44507Z" fill="#614F41"/>
<path d="M247.697 7.32965V6.92465H248.355V11.4062H247.697V8.1131H246.628V7.56203H247.465C247.611 7.56203 247.697 7.47572 247.697 7.32965ZM251.699 11.4859C250.703 11.4859 250.152 10.7158 250.152 9.16213C250.152 7.60187 250.696 6.83834 251.699 6.83834C252.695 6.83834 253.246 7.60187 253.246 9.16213C253.246 10.7091 252.695 11.4859 251.699 11.4859ZM251.699 10.895C252.263 10.895 252.589 10.3439 252.589 9.16213C252.589 7.97367 252.27 7.43588 251.699 7.43588C251.128 7.43588 250.809 7.96704 250.809 9.16213C250.809 10.3506 251.134 10.895 251.699 10.895Z" fill="#614F41"/>
<path d="M261.959 7.32965V6.92465H262.616V11.4062H261.959V8.1131H260.89V7.56203H261.727C261.873 7.56203 261.959 7.47572 261.959 7.32965ZM265.974 7.32965V6.92465H266.631V11.4062H265.974V8.1131H264.905V7.56203H265.741C265.888 7.56203 265.974 7.47572 265.974 7.32965Z" fill="#614F41"/>
<path d="M276.219 7.32965V6.92465H276.876V11.4062H276.219V8.1131H275.15V7.56203H275.986C276.133 7.56203 276.219 7.47572 276.219 7.32965ZM281.03 9.36131L279.61 10.8153H281.754V11.4062H278.72V10.8353L280.539 8.9895C280.844 8.67745 281.004 8.42515 281.004 8.1131C281.004 7.68818 280.712 7.42924 280.234 7.42924C279.676 7.42924 279.357 7.72802 279.357 8.29237C279.357 8.40524 279.37 8.51811 279.397 8.64426L278.76 8.73057C278.733 8.55794 278.713 8.40524 278.713 8.25917C278.713 7.36949 279.278 6.83834 280.207 6.83834C281.064 6.83834 281.654 7.32301 281.654 8.09318C281.654 8.53139 281.495 8.88991 281.03 9.36131Z" fill="#614F41"/>
<path d="M290.578 7.32965V6.92465H291.236V11.4062H290.578V8.1131H289.509V7.56203H290.346C290.492 7.56203 290.578 7.47572 290.578 7.32965ZM294.613 11.4859C293.604 11.4859 293.013 10.9349 293.013 9.99869H293.683C293.69 10.563 294.035 10.895 294.6 10.895C295.111 10.895 295.463 10.583 295.463 10.1116C295.463 9.62689 295.124 9.31484 294.533 9.31484H294.354V8.7704H294.48C294.958 8.7704 295.257 8.49155 295.257 8.07327C295.257 7.68154 294.978 7.4226 294.56 7.4226C294.115 7.4226 293.803 7.72138 293.803 8.19278C293.803 8.25917 293.81 8.3322 293.823 8.40524L293.172 8.43843C293.152 8.33884 293.146 8.24589 293.146 8.15958C293.146 7.36949 293.71 6.83834 294.566 6.83834C295.376 6.83834 295.894 7.34957 295.894 8.00023C295.894 8.51147 295.576 8.85008 295.244 8.97623C295.728 9.0891 296.133 9.4609 296.133 10.1116C296.133 10.9149 295.523 11.4859 294.613 11.4859Z" fill="#614F41"/>
<path d="M304.937 7.32965V6.92465H305.594V11.4062H304.937V8.1131H303.868V7.56203H304.704C304.85 7.56203 304.937 7.47572 304.937 7.32965ZM310.1 9.86591H310.611V10.4502H310.1V11.4062H309.443V10.4502H307.258V9.85927L309.217 6.92465H310.1V9.86591ZM309.443 7.51556L307.922 9.86591H309.443V7.51556Z" fill="#614F41"/>
<path d="M319.197 7.32965V6.92465H319.855V11.4062H319.197V8.1131H318.128V7.56203H318.965C319.111 7.56203 319.197 7.47572 319.197 7.32965ZM322.508 8.5513H323.186C324.148 8.5513 324.759 8.99614 324.759 9.93894C324.759 10.8817 324.148 11.4859 323.225 11.4859C322.269 11.4859 321.658 10.9349 321.658 10.0385V9.85927H322.309V9.98542C322.309 10.5564 322.641 10.895 323.239 10.895C323.776 10.895 324.102 10.5166 324.102 9.97878C324.102 9.275 323.537 9.09574 322.98 9.09574H321.811L322.03 6.92465H324.56V7.50892H322.621L322.508 8.5513Z" fill="#614F41"/>
<path d="M333.459 7.32965V6.92465H334.116V11.4062H333.459V8.1131H332.39V7.56203H333.227C333.373 7.56203 333.459 7.47572 333.459 7.32965ZM337.593 8.40524C338.403 8.40524 339.061 9.02934 339.061 9.91238C339.061 10.8021 338.337 11.4859 337.447 11.4859C336.544 11.4859 335.86 10.7755 335.86 9.90574C335.86 9.51402 335.993 9.14221 336.265 8.8036L337.766 6.92465H338.563L337.341 8.42515C337.427 8.41188 337.507 8.40524 337.593 8.40524ZM338.417 9.8991C338.423 9.33475 338.032 8.88991 337.441 8.88991C336.87 8.88991 336.485 9.31484 336.478 9.88582C336.465 10.4369 336.843 10.895 337.434 10.895C338.005 10.895 338.41 10.4502 338.417 9.8991Z" fill="#614F41"/>
<path d="M347.72 7.32965V6.92465H348.377V11.4062H347.72V8.1131H346.651V7.56203H347.487C347.634 7.56203 347.72 7.47572 347.72 7.32965ZM350.168 7.50892V6.92465H353.282V7.50892L351.097 11.4062H350.34L352.565 7.50892H350.168Z" fill="#614F41"/>
<path d="M361.981 7.32965V6.92465H362.638V11.4062H361.981V8.1131H360.912V7.56203H361.748C361.894 7.56203 361.981 7.47572 361.981 7.32965ZM365.975 11.4859C365.086 11.4859 364.428 10.9415 364.428 10.1315C364.428 9.59369 364.727 9.17541 365.199 8.97623C364.84 8.79032 364.608 8.44507 364.608 8.02015C364.608 7.33629 365.185 6.83834 365.975 6.83834C366.759 6.83834 367.336 7.34293 367.336 8.02015C367.336 8.44507 367.104 8.78368 366.759 8.97623C367.23 9.18205 367.522 9.60033 367.522 10.1315C367.522 10.9415 366.865 11.4859 365.975 11.4859ZM365.975 8.78368C366.4 8.78368 366.712 8.47827 366.712 8.07991C366.712 7.68818 366.394 7.40269 365.975 7.40269C365.55 7.40269 365.238 7.68818 365.238 8.07991C365.238 8.48491 365.55 8.78368 365.975 8.78368ZM365.975 10.895C366.487 10.895 366.865 10.5498 366.865 10.0584C366.865 9.56049 366.493 9.23516 365.975 9.23516C365.458 9.23516 365.086 9.56049 365.086 10.0584C365.086 10.5498 365.464 10.895 365.975 10.895Z" fill="#614F41"/>
<path d="M376.339 7.32965V6.92465H376.996V11.4062H376.339V8.1131H375.27V7.56203H376.107C376.253 7.56203 376.339 7.47572 376.339 7.32965ZM380.367 6.84497C381.27 6.84497 381.954 7.55539 381.954 8.42515C381.954 8.81688 381.821 9.18205 381.549 9.5273L380.048 11.4062H379.252L380.467 9.90574C380.387 9.91902 380.301 9.92566 380.221 9.92566C379.411 9.92566 378.754 9.29492 378.754 8.41188C378.754 7.52883 379.477 6.84497 380.367 6.84497ZM381.336 8.44507C381.35 7.894 380.971 7.42924 380.38 7.42924C379.809 7.42924 379.404 7.88072 379.398 8.42515C379.391 8.9895 379.783 9.44098 380.374 9.44098C380.945 9.44098 381.33 9.00942 381.336 8.44507Z" fill="#614F41"/>
<path d="M391.494 9.36131L390.073 10.8153H392.218V11.4062H389.184V10.8353L391.003 8.9895C391.308 8.67745 391.468 8.42515 391.468 8.1131C391.468 7.68818 391.175 7.42924 390.697 7.42924C390.14 7.42924 389.821 7.72802 389.821 8.29237C389.821 8.40524 389.834 8.51811 389.861 8.64426L389.223 8.73057C389.197 8.55794 389.177 8.40524 389.177 8.25917C389.177 7.36949 389.741 6.83834 390.671 6.83834C391.527 6.83834 392.118 7.32301 392.118 8.09318C392.118 8.53139 391.959 8.88991 391.494 9.36131ZM394.699 11.4859C393.703 11.4859 393.152 10.7158 393.152 9.16213C393.152 7.60187 393.696 6.83834 394.699 6.83834C395.695 6.83834 396.246 7.60187 396.246 9.16213C396.246 10.7091 395.695 11.4859 394.699 11.4859ZM394.699 10.895C395.263 10.895 395.589 10.3439 395.589 9.16213C395.589 7.97367 395.27 7.43588 394.699 7.43588C394.128 7.43588 393.809 7.96704 393.809 9.16213C393.809 10.3506 394.134 10.895 394.699 10.895Z" fill="#614F41"/>
<path d="M405.756 9.36131L404.335 10.8153H406.479V11.4062H403.445V10.8353L405.264 8.9895C405.57 8.67745 405.729 8.42515 405.729 8.1131C405.729 7.68818 405.437 7.42924 404.959 7.42924C404.401 7.42924 404.083 7.72802 404.083 8.29237C404.083 8.40524 404.096 8.51811 404.123 8.64426L403.485 8.73057C403.459 8.55794 403.439 8.40524 403.439 8.25917C403.439 7.36949 404.003 6.83834 404.933 6.83834C405.789 6.83834 406.38 7.32301 406.38 8.09318C406.38 8.53139 406.221 8.88991 405.756 9.36131ZM408.974 7.32965V6.92465H409.631V11.4062H408.974V8.1131H407.905V7.56203H408.741C408.888 7.56203 408.974 7.47572 408.974 7.32965Z" fill="#614F41"/>
<path d="M420.017 9.36131L418.596 10.8153H420.74V11.4062H417.706V10.8353L419.525 8.9895C419.831 8.67745 419.99 8.42515 419.99 8.1131C419.99 7.68818 419.698 7.42924 419.22 7.42924C418.662 7.42924 418.343 7.72802 418.343 8.29237C418.343 8.40524 418.357 8.51811 418.383 8.64426L417.746 8.73057C417.719 8.55794 417.699 8.40524 417.699 8.25917C417.699 7.36949 418.264 6.83834 419.193 6.83834C420.05 6.83834 420.641 7.32301 420.641 8.09318C420.641 8.53139 420.481 8.88991 420.017 9.36131ZM424.031 9.36131L422.61 10.8153H424.755V11.4062H421.721V10.8353L423.54 8.9895C423.845 8.67745 424.005 8.42515 424.005 8.1131C424.005 7.68818 423.713 7.42924 423.235 7.42924C422.677 7.42924 422.358 7.72802 422.358 8.29237C422.358 8.40524 422.371 8.51811 422.398 8.64426L421.761 8.73057C421.734 8.55794 421.714 8.40524 421.714 8.25917C421.714 7.36949 422.279 6.83834 423.208 6.83834C424.065 6.83834 424.655 7.32301 424.655 8.09318C424.655 8.53139 424.496 8.88991 424.031 9.36131Z" fill="#614F41"/>
<path d="M434.277 9.36131L432.856 10.8153H435.001V11.4062H431.967V10.8353L433.786 8.9895C434.091 8.67745 434.251 8.42515 434.251 8.1131C434.251 7.68818 433.959 7.42924 433.481 7.42924C432.923 7.42924 432.604 7.72802 432.604 8.29237C432.604 8.40524 432.617 8.51811 432.644 8.64426L432.007 8.73057C431.98 8.55794 431.96 8.40524 431.96 8.25917C431.96 7.36949 432.524 6.83834 433.454 6.83834C434.31 6.83834 434.901 7.32301 434.901 8.09318C434.901 8.53139 434.742 8.88991 434.277 9.36131ZM437.515 11.4859C436.506 11.4859 435.915 10.9349 435.915 9.99869H436.586C436.592 10.563 436.938 10.895 437.502 10.895C438.013 10.895 438.365 10.583 438.365 10.1116C438.365 9.62689 438.026 9.31484 437.436 9.31484H437.256V8.7704H437.382C437.86 8.7704 438.159 8.49155 438.159 8.07327C438.159 7.68154 437.88 7.4226 437.462 7.4226C437.017 7.4226 436.705 7.72138 436.705 8.19278C436.705 8.25917 436.712 8.3322 436.725 8.40524L436.074 8.43843C436.055 8.33884 436.048 8.24589 436.048 8.15958C436.048 7.36949 436.612 6.83834 437.469 6.83834C438.279 6.83834 438.797 7.34957 438.797 8.00023C438.797 8.51147 438.478 8.85008 438.146 8.97623C438.631 9.0891 439.036 9.4609 439.036 10.1116C439.036 10.9149 438.425 11.4859 437.515 11.4859Z" fill="#614F41"/>
<path d="M448.637 9.36131L447.216 10.8153H449.36V11.4062H446.326V10.8353L448.145 8.9895C448.451 8.67745 448.61 8.42515 448.61 8.1131C448.61 7.68818 448.318 7.42924 447.84 7.42924C447.282 7.42924 446.964 7.72802 446.964 8.29237C446.964 8.40524 446.977 8.51811 447.003 8.64426L446.366 8.73057C446.339 8.55794 446.32 8.40524 446.32 8.25917C446.32 7.36949 446.884 6.83834 447.813 6.83834C448.67 6.83834 449.261 7.32301 449.261 8.09318C449.261 8.53139 449.101 8.88991 448.637 9.36131ZM453.003 9.86591H453.515V10.4502H453.003V11.4062H452.346V10.4502H450.162V9.85927L452.12 6.92465H453.003V9.86591ZM452.346 7.51556L450.826 9.86591H452.346V7.51556Z" fill="#614F41"/>
<path d="M462.995 9.36131L461.574 10.8153H463.719V11.4062H460.685V10.8353L462.504 8.9895C462.809 8.67745 462.969 8.42515 462.969 8.1131C462.969 7.68818 462.676 7.42924 462.198 7.42924C461.641 7.42924 461.322 7.72802 461.322 8.29237C461.322 8.40524 461.335 8.51811 461.362 8.64426L460.724 8.73057C460.698 8.55794 460.678 8.40524 460.678 8.25917C460.678 7.36949 461.242 6.83834 462.172 6.83834C463.028 6.83834 463.619 7.32301 463.619 8.09318C463.619 8.53139 463.46 8.88991 462.995 9.36131ZM465.509 8.5513H466.187C467.149 8.5513 467.76 8.99614 467.76 9.93894C467.76 10.8817 467.149 11.4859 466.226 11.4859C465.27 11.4859 464.659 10.9349 464.659 10.0385V9.85927H465.31V9.98542C465.31 10.5564 465.642 10.895 466.24 10.895C466.777 10.895 467.103 10.5166 467.103 9.97878C467.103 9.275 466.538 9.09574 465.981 9.09574H464.812L465.031 6.92465H467.561V7.50892H465.622L465.509 8.5513Z" fill="#614F41"/>
<path d="M477.256 9.36131L475.835 10.8153H477.979V11.4062H474.945V10.8353L476.764 8.9895C477.07 8.67745 477.229 8.42515 477.229 8.1131C477.229 7.68818 476.937 7.42924 476.459 7.42924C475.901 7.42924 475.583 7.72802 475.583 8.29237C475.583 8.40524 475.596 8.51811 475.623 8.64426L474.985 8.73057C474.959 8.55794 474.939 8.40524 474.939 8.25917C474.939 7.36949 475.503 6.83834 476.433 6.83834C477.289 6.83834 477.88 7.32301 477.88 8.09318C477.88 8.53139 477.721 8.88991 477.256 9.36131ZM480.593 8.40524C481.403 8.40524 482.061 9.02934 482.061 9.91238C482.061 10.8021 481.337 11.4859 480.447 11.4859C479.544 11.4859 478.86 10.7755 478.86 9.90574C478.86 9.51402 478.993 9.14221 479.265 8.8036L480.766 6.92465H481.563L480.341 8.42515C480.427 8.41188 480.507 8.40524 480.593 8.40524ZM481.417 9.8991C481.423 9.33475 481.032 8.88991 480.441 8.88991C479.87 8.88991 479.485 9.31484 479.478 9.88582C479.465 10.4369 479.843 10.895 480.434 10.895C481.005 10.895 481.41 10.4502 481.417 9.8991Z" fill="#614F41"/>
<path d="M491.517 9.36131L490.096 10.8153H492.24V11.4062H489.206V10.8353L491.025 8.9895C491.331 8.67745 491.49 8.42515 491.49 8.1131C491.49 7.68818 491.198 7.42924 490.72 7.42924C490.162 7.42924 489.843 7.72802 489.843 8.29237C489.843 8.40524 489.857 8.51811 489.883 8.64426L489.246 8.73057C489.219 8.55794 489.199 8.40524 489.199 8.25917C489.199 7.36949 489.764 6.83834 490.693 6.83834C491.55 6.83834 492.141 7.32301 492.141 8.09318C492.141 8.53139 491.981 8.88991 491.517 9.36131ZM493.168 7.50892V6.92465H496.282V7.50892L494.097 11.4062H493.34L495.565 7.50892H493.168Z" fill="#614F41"/>
<path d="M505.777 9.36131L504.356 10.8153H506.501V11.4062H503.467V10.8353L505.286 8.9895C505.591 8.67745 505.751 8.42515 505.751 8.1131C505.751 7.68818 505.459 7.42924 504.981 7.42924C504.423 7.42924 504.104 7.72802 504.104 8.29237C504.104 8.40524 504.117 8.51811 504.144 8.64426L503.507 8.73057C503.48 8.55794 503.46 8.40524 503.46 8.25917C503.46 7.36949 504.024 6.83834 504.954 6.83834C505.81 6.83834 506.401 7.32301 506.401 8.09318C506.401 8.53139 506.242 8.88991 505.777 9.36131ZM508.975 11.4859C508.086 11.4859 507.428 10.9415 507.428 10.1315C507.428 9.59369 507.727 9.17541 508.199 8.97623C507.84 8.79032 507.608 8.44507 507.608 8.02015C507.608 7.33629 508.185 6.83834 508.975 6.83834C509.759 6.83834 510.336 7.34293 510.336 8.02015C510.336 8.44507 510.104 8.78368 509.759 8.97623C510.23 9.18205 510.522 9.60033 510.522 10.1315C510.522 10.9415 509.865 11.4859 508.975 11.4859ZM508.975 8.78368C509.4 8.78368 509.712 8.47827 509.712 8.07991C509.712 7.68818 509.394 7.40269 508.975 7.40269C508.55 7.40269 508.238 7.68818 508.238 8.07991C508.238 8.48491 508.55 8.78368 508.975 8.78368ZM508.975 10.895C509.487 10.895 509.865 10.5498 509.865 10.0584C509.865 9.56049 509.493 9.23516 508.975 9.23516C508.458 9.23516 508.086 9.56049 508.086 10.0584C508.086 10.5498 508.464 10.895 508.975 10.895Z" fill="#614F41"/>
<path d="M520.137 9.36131L518.716 10.8153H520.86V11.4062H517.826V10.8353L519.645 8.9895C519.951 8.67745 520.11 8.42515 520.11 8.1131C520.11 7.68818 519.818 7.42924 519.34 7.42924C518.782 7.42924 518.464 7.72802 518.464 8.29237C518.464 8.40524 518.477 8.51811 518.503 8.64426L517.866 8.73057C517.839 8.55794 517.82 8.40524 517.82 8.25917C517.82 7.36949 518.384 6.83834 519.313 6.83834C520.17 6.83834 520.761 7.32301 520.761 8.09318C520.761 8.53139 520.601 8.88991 520.137 9.36131ZM523.368 6.84497C524.271 6.84497 524.955 7.55539 524.955 8.42515C524.955 8.81688 524.822 9.18205 524.55 9.5273L523.049 11.4062H522.253L523.468 9.90574C523.388 9.91902 523.302 9.92566 523.222 9.92566C522.412 9.92566 521.755 9.29492 521.755 8.41188C521.755 7.52883 522.478 6.84497 523.368 6.84497ZM524.337 8.44507C524.351 7.894 523.972 7.42924 523.381 7.42924C522.81 7.42924 522.405 7.88072 522.399 8.42515C522.392 8.9895 522.784 9.44098 523.375 9.44098C523.946 9.44098 524.331 9.00942 524.337 8.44507Z" fill="#614F41"/>
<path d="M533.718 11.4859C532.709 11.4859 532.118 10.9349 532.118 9.99869H532.789C532.795 10.563 533.141 10.895 533.705 10.895C534.216 10.895 534.568 10.583 534.568 10.1116C534.568 9.62689 534.229 9.31484 533.639 9.31484H533.459V8.7704H533.585C534.063 8.7704 534.362 8.49155 534.362 8.07327C534.362 7.68154 534.083 7.4226 533.665 7.4226C533.22 7.4226 532.908 7.72138 532.908 8.19278C532.908 8.25917 532.915 8.3322 532.928 8.40524L532.277 8.43843C532.258 8.33884 532.251 8.24589 532.251 8.15958C532.251 7.36949 532.815 6.83834 533.672 6.83834C534.482 6.83834 535 7.34957 535 8.00023C535 8.51147 534.681 8.85008 534.349 8.97623C534.834 9.0891 535.239 9.4609 535.239 10.1116C535.239 10.9149 534.628 11.4859 533.718 11.4859ZM537.7 11.4859C536.704 11.4859 536.153 10.7158 536.153 9.16213C536.153 7.60187 536.697 6.83834 537.7 6.83834C538.696 6.83834 539.247 7.60187 539.247 9.16213C539.247 10.7091 538.696 11.4859 537.7 11.4859ZM537.7 10.895C538.264 10.895 538.59 10.3439 538.59 9.16213C538.59 7.97367 538.271 7.43588 537.7 7.43588C537.129 7.43588 536.81 7.96704 536.81 9.16213C536.81 10.3506 537.135 10.895 537.7 10.895Z" fill="#614F41"/>
<path d="M547.979 11.4859C546.97 11.4859 546.379 10.9349 546.379 9.99869H547.049C547.056 10.563 547.401 10.895 547.966 10.895C548.477 10.895 548.829 10.583 548.829 10.1116C548.829 9.62689 548.49 9.31484 547.899 9.31484H547.72V8.7704H547.846C548.324 8.7704 548.623 8.49155 548.623 8.07327C548.623 7.68154 548.344 7.4226 547.926 7.4226C547.481 7.4226 547.169 7.72138 547.169 8.19278C547.169 8.25917 547.176 8.3322 547.189 8.40524L546.538 8.43843C546.518 8.33884 546.512 8.24589 546.512 8.15958C546.512 7.36949 547.076 6.83834 547.933 6.83834C548.743 6.83834 549.26 7.34957 549.26 8.00023C549.26 8.51147 548.942 8.85008 548.61 8.97623C549.094 9.0891 549.499 9.4609 549.499 10.1116C549.499 10.9149 548.889 11.4859 547.979 11.4859ZM551.974 7.32965V6.92465H552.631V11.4062H551.974V8.1131H550.905V7.56203H551.741C551.888 7.56203 551.974 7.47572 551.974 7.32965Z" fill="#614F41"/>
<path d="M113.915 0.00146484V260.426" stroke="#A0907F" stroke-width="0.579151"/>
<path d="M128.176 0.00146484V260.426" stroke="#A0907F" stroke-width="0.579151"/>
<path d="M142.438 0.00146484V260.426" stroke="#A0907F" stroke-width="0.579151"/>
<path d="M156.698 0.00146484V260.426" stroke="#A0907F" stroke-width="0.579151"/>
<path d="M171.154 0.00146484V260.426" stroke="#A0907F" stroke-width="0.579151"/>
<path d="M185.415 0.00146484V260.426" stroke="#A0907F" stroke-width="0.579151"/>
<path d="M199.676 0.00146484V260.426" stroke="#A0907F" stroke-width="0.579151"/>
<path d="M213.938 0.00146484V260.426" stroke="#A0907F" stroke-width="0.579151"/>
<path d="M228.198 0.00146484V260.426" stroke="#A0907F" stroke-width="0.579151"/>
<path d="M242.459 0.00146484V260.426" stroke="#A0907F" stroke-width="0.579151"/>
<path d="M256.916 0.00146484V260.426" stroke="#A0907F" stroke-width="0.579151"/>
<path d="M271.176 0.00146484V260.426" stroke="#A0907F" stroke-width="0.579151"/>
<path d="M285.438 0.00146484V260.426" stroke="#A0907F" stroke-width="0.579151"/>
<path d="M299.698 0.00146484V260.426" stroke="#A0907F" stroke-width="0.579151"/>
<path d="M313.959 0.00146484V260.426" stroke="#A0907F" stroke-width="0.579151"/>
<path d="M328.221 0.00146484V260.426" stroke="#A0907F" stroke-width="0.579151"/>
<path d="M342.677 0.00146484V260.426" stroke="#A0907F" stroke-width="0.579151"/>
<path d="M356.938 0.00146484V260.426" stroke="#A0907F" stroke-width="0.579151"/>
<path d="M371.198 0.00146484V260.426" stroke="#A0907F" stroke-width="0.579151"/>
<path d="M385.459 0.00146484V260.426" stroke="#A0907F" stroke-width="0.579151"/>
<path d="M399.721 0.00146484V260.426" stroke="#A0907F" stroke-width="0.579151"/>
<path d="M413.981 0.00146484V260.426" stroke="#A0907F" stroke-width="0.579151"/>
<path d="M428.438 0.00146484V260.426" stroke="#A0907F" stroke-width="0.579151"/>
<path d="M442.699 0.00146484V260.426" stroke="#A0907F" stroke-width="0.579151"/>
<path d="M456.96 0.00146484V260.426" stroke="#A0907F" stroke-width="0.579151"/>
<path d="M471.221 0.00146484V260.426" stroke="#A0907F" stroke-width="0.579151"/>
<path d="M485.481 0.00146484V260.426" stroke="#A0907F" stroke-width="0.579151"/>
<path d="M499.742 0.00146484V260.426" stroke="#A0907F" stroke-width="0.579151"/>
<path d="M514.199 0.00146484V260.426" stroke="#A0907F" stroke-width="0.579151"/>
<path d="M528.46 0.00146484V260.426" stroke="#A0907F" stroke-width="0.579151"/>
<path d="M542.721 0.00146484V260.426" stroke="#A0907F" stroke-width="0.579151"/>
<path d="M556.981 0.00146484V260.426" stroke="#A0907F" stroke-width="0.579151"/>
<mask id="path-81-inside-2_526_4118" fill="white">
<path d="M0.803711 279.73H269.916V297.684H0.803711V279.73Z"/>
</mask>
<path d="M0.803711 279.73H269.916V297.684H0.803711V279.73Z" fill="#F1EBE5"/>
<path d="M269.916 296.718H0.803711V298.649H269.916V296.718Z" fill="#614F41" mask="url(#path-81-inside-2_526_4118)"/>
<path d="M129.568 297.104V477.993" stroke="#A0907F" stroke-width="0.579151"/>
<path d="M149.646 297.104V477.993" stroke="#A0907F" stroke-width="0.579151"/>
<path d="M169.723 297.104V477.993" stroke="#A0907F" stroke-width="0.579151"/>
<path d="M189.8 297.104V477.993" stroke="#A0907F" stroke-width="0.579151"/>
<path d="M209.684 297.104V477.993" stroke="#A0907F" stroke-width="0.579151"/>
<path d="M229.762 297.104V477.993" stroke="#A0907F" stroke-width="0.579151"/>
<path d="M249.839 297.104V477.993" stroke="#A0907F" stroke-width="0.579151"/>
<path d="M0.804688 297.104H269.917" stroke="#614F41" stroke-width="0.965251"/>
<path d="M0.804688 317.375H269.917" stroke="#A0907F" stroke-width="0.579151"/>
<path d="M0.804688 337.645H269.917" stroke="#A0907F" stroke-width="0.579151"/>
<path d="M0.804688 357.915H269.917" stroke="#A0907F" stroke-width="0.579151"/>
<path d="M0.804688 378.185H269.917" stroke="#A0907F" stroke-width="0.579151"/>
<path d="M0.804688 398.456H269.917" stroke="#A0907F" stroke-width="0.579151"/>
<path d="M0.804688 418.726H269.917" stroke="#A0907F" stroke-width="0.579151"/>
<path d="M0.804688 438.417H269.917" stroke="#A0907F" stroke-width="0.579151"/>
<path d="M0.804688 458.108H269.917" stroke="#A0907F" stroke-width="0.579151"/>
<path d="M0.804688 477.799H269.917" stroke="#A0907F" stroke-width="0.579151"/>
<path d="M10.1007 289.826L11.313 285.378H12.1393L10.7107 290.591H9.56012L8.56399 286.599L7.56785 290.591H6.41727L4.9887 285.378H5.81495L7.01958 289.811L8.12383 285.378H8.99642L10.1007 289.826ZM16.7953 285.378V286.081H13.9845V287.618H16.5637V288.313H13.9845V289.888H16.7953V290.591H13.1892V285.378H16.7953ZM21.6156 285.378V286.081H18.8048V287.618H21.3839V288.313H18.8048V289.888H21.6156V290.591H18.0094V285.378H21.6156ZM27.123 290.591H26.235L24.5748 287.865L23.625 288.822V290.591H22.8296V285.378H23.625V287.811L26.0265 285.378H27.0227L25.123 287.301L27.123 290.591ZM31.5767 290.591H28.1249V285.378H28.9203V289.888H31.5767V290.591ZM34.6683 285.378H35.5949L33.7417 288.228V290.591H32.9463V288.212L31.1007 285.378H32.0196L33.3478 287.456L34.6683 285.378ZM37.7034 285.378H42.0509V286.081H40.2748V290.591H39.4795V286.081H37.7034V285.378ZM46.8026 290.591H45.9532L45.5053 289.386H43.1347L42.6868 290.591H41.8374L43.822 285.378H44.8181L46.8026 290.591ZM44.3239 286.182L43.3818 288.714H45.2582L44.3239 286.182ZM49.5766 290.683C48.3951 290.683 47.6306 290.104 47.4762 289.093L48.2407 288.907C48.3565 289.602 48.8662 290.012 49.6229 290.012C50.287 290.012 50.6731 289.687 50.6731 289.185C50.6731 288.583 50.0631 288.452 49.3913 288.282C48.5805 288.066 47.6615 287.811 47.6615 286.753C47.6615 285.88 48.3874 285.278 49.5071 285.278C50.4492 285.278 51.2523 285.703 51.4608 286.745L50.7426 286.931C50.5959 286.228 50.1249 285.942 49.5071 285.942C48.8507 285.942 48.4492 286.251 48.4492 286.73C48.4492 287.278 49.0052 287.409 49.7001 287.579C50.5187 287.78 51.4685 288.073 51.4685 289.1C51.4685 290.081 50.8044 290.683 49.5766 290.683ZM57.0338 290.591H56.1457L54.4855 287.865L53.5357 288.822V290.591H52.7403V285.378H53.5357V287.811L55.9372 285.378H56.9334L55.0338 287.301L57.0338 290.591Z" fill="#614F41"/>
<path d="M138.86 289.146L140.196 285.378H141.563V290.59H140.767V285.81L139.138 290.59H138.574L136.945 285.81V290.59H136.15V285.378H137.516L138.86 289.146Z" fill="#614F41"/>
<path d="M156.921 285.378H161.268V286.081H159.492V290.59H158.697V286.081H156.921V285.378Z" fill="#614F41"/>
<path d="M181.437 289.826L182.65 285.378H183.476L182.047 290.59H180.897L179.901 286.598L178.904 290.59H177.754L176.325 285.378H177.152L178.356 289.81L179.46 285.378H180.333L181.437 289.826Z" fill="#614F41"/>
<path d="M198.427 285.378H202.774V286.081H200.998V290.59H200.203V286.081H198.427V285.378Z" fill="#614F41"/>
<path d="M221.888 285.378V286.081H219.077V287.617H221.61V288.312H219.077V290.59H218.281V285.378H221.888Z" fill="#614F41"/>
<path d="M239.073 290.683C237.891 290.683 237.127 290.104 236.972 289.092L237.737 288.907C237.853 289.602 238.362 290.011 239.119 290.011C239.783 290.011 240.169 289.687 240.169 289.185C240.169 288.583 239.559 288.451 238.887 288.281C238.077 288.065 237.158 287.81 237.158 286.752C237.158 285.88 237.884 285.278 239.003 285.278C239.945 285.278 240.748 285.702 240.957 286.745L240.239 286.93C240.092 286.227 239.621 285.942 239.003 285.942C238.347 285.942 237.945 286.251 237.945 286.729C237.945 287.278 238.501 287.409 239.196 287.579C240.015 287.78 240.965 288.073 240.965 289.1C240.965 290.081 240.301 290.683 239.073 290.683Z" fill="#614F41"/>
<path d="M258.377 290.683C257.196 290.683 256.432 290.104 256.277 289.092L257.042 288.907C257.157 289.602 257.667 290.011 258.424 290.011C259.088 290.011 259.474 289.687 259.474 289.185C259.474 288.583 258.864 288.451 258.192 288.281C257.381 288.065 256.462 287.81 256.462 286.752C256.462 285.88 257.188 285.278 258.308 285.278C259.25 285.278 260.053 285.702 260.262 286.745L259.543 286.93C259.397 286.227 258.926 285.942 258.308 285.942C257.652 285.942 257.25 286.251 257.25 286.729C257.25 287.278 257.806 287.409 258.501 287.579C259.32 287.78 260.269 288.073 260.269 289.1C260.269 290.081 259.605 290.683 258.377 290.683Z" fill="#614F41"/>
<path d="M534.635 297.104V477.992" stroke="#A0907F" stroke-width="0.579151"/>
<path d="M281.307 297.104H556.982" stroke="#614F41" stroke-width="0.965251"/>
<path d="M281.307 317.374H556.982" stroke="#A0907F" stroke-width="0.579151"/>
<path d="M281.307 337.644H556.982" stroke="#A0907F" stroke-width="0.579151"/>
<path d="M281.307 357.915H556.982" stroke="#A0907F" stroke-width="0.579151"/>
<path d="M281.307 378.185H556.982" stroke="#A0907F" stroke-width="0.579151"/>
<path d="M281.307 398.455H556.982" stroke="#A0907F" stroke-width="0.579151"/>
<path d="M281.307 418.725H556.982" stroke="#A0907F" stroke-width="0.579151"/>
<path d="M281.307 438.416H556.982" stroke="#A0907F" stroke-width="0.579151"/>
<path d="M281.307 458.107H556.982" stroke="#A0907F" stroke-width="0.579151"/>
<path d="M281.307 477.798H556.982" stroke="#A0907F" stroke-width="0.579151"/>
<mask id="path-119-inside-3_526_4118" fill="white">
<path d="M281.306 279.73H556.981V297.684H281.306V279.73Z"/>
</mask>
<path d="M281.306 279.73H556.981V297.684H281.306V279.73Z" fill="#F1EBE5"/>
<path d="M556.981 296.718H281.306V298.649H556.981V296.718Z" fill="#614F41" mask="url(#path-119-inside-3_526_4118)"/>
<path d="M288.702 289.146L290.038 285.378H291.405V290.59H290.61V285.81L288.98 290.59H288.417L286.787 285.81V290.59H285.992V285.378H287.359L288.702 289.146ZM295.272 290.683C293.728 290.683 292.639 289.586 292.639 287.98C292.639 286.382 293.728 285.278 295.272 285.278C296.817 285.278 297.906 286.382 297.906 287.98C297.906 289.586 296.817 290.683 295.272 290.683ZM295.272 289.949C296.354 289.949 297.11 289.162 297.11 287.98C297.11 286.807 296.354 286.011 295.272 286.011C294.191 286.011 293.435 286.807 293.435 287.98C293.435 289.162 294.191 289.949 295.272 289.949ZM302.761 289.509V285.378H303.556V290.59H302.583L299.927 286.436V290.59H299.131V285.378H300.097L302.761 289.509ZM304.71 285.378H309.058V286.081H307.281V290.59H306.486V286.081H304.71V285.378ZM310.849 290.59H310.054V285.378H310.849V287.61H313.451V285.378H314.247V290.59H313.451V288.312H310.849V290.59ZM319.155 290.59H315.703V285.378H316.499V289.888H319.155V290.59ZM322.247 285.378H323.173L321.32 288.227V290.59H320.525V288.212L318.679 285.378H319.598L320.926 287.455L322.247 285.378ZM325.282 285.378H329.629V286.081H327.853V290.59H327.058V286.081H325.282V285.378ZM334.381 290.59H333.532L333.084 289.386H330.713L330.265 290.59H329.416L331.4 285.378H332.397L334.381 290.59ZM331.902 286.181L330.96 288.714H332.837L331.902 286.181ZM337.155 290.683C335.974 290.683 335.209 290.104 335.055 289.092L335.819 288.907C335.935 289.602 336.445 290.011 337.201 290.011C337.866 290.011 338.252 289.687 338.252 289.185C338.252 288.583 337.642 288.451 336.97 288.281C336.159 288.065 335.24 287.81 335.24 286.752C335.24 285.88 335.966 285.278 337.086 285.278C338.028 285.278 338.831 285.702 339.039 286.745L338.321 286.93C338.174 286.227 337.703 285.942 337.086 285.942C336.429 285.942 336.028 286.251 336.028 286.729C336.028 287.278 336.584 287.409 337.279 287.579C338.097 287.78 339.047 288.073 339.047 289.1C339.047 290.081 338.383 290.683 337.155 290.683ZM344.612 290.59H343.724L342.064 287.864L341.114 288.822V290.59H340.319V285.378H341.114V287.81L343.516 285.378H344.512L342.612 287.301L344.612 290.59Z" fill="#614F41"/>
<mask id="path-122-inside-4_526_4118" fill="white">
<path d="M0.803711 497.104H556.981V515.057H0.803711V497.104Z"/>
</mask>
<path d="M0.803711 497.104H556.981V515.057H0.803711V497.104Z" fill="#F1EBE5"/>
<path d="M556.981 514.092H0.803711V516.022H556.981V514.092Z" fill="#614F41" mask="url(#path-122-inside-4_526_4118)"/>
<path d="M0.803711 514.479H556.981" stroke="#614F41" stroke-width="0.965251"/>
<path d="M0.803711 534.749H556.981" stroke="#A0907F" stroke-width="0.19305"/>
<path d="M0.803711 555.02H556.981" stroke="#A0907F" stroke-width="0.19305"/>
<path d="M0.803711 575.29H556.981" stroke="#A0907F" stroke-width="0.19305"/>
<path d="M0.803711 595.56H556.981" stroke="#A0907F" stroke-width="0.19305"/>
<path d="M0.803711 615.831H556.981" stroke="#A0907F" stroke-width="0.19305"/>
<path d="M0.803711 636.101H556.981" stroke="#A0907F" stroke-width="0.19305"/>
<path d="M0.803711 656.371H556.981" stroke="#A0907F" stroke-width="0.19305"/>
<path d="M0.803711 676.641H556.981" stroke="#614F41" stroke-width="0.965251"/>
<path d="M0.803711 514.479V676.641" stroke="#A0907F" stroke-width="0.19305"/>
<path d="M20.7305 514.479V676.641" stroke="#A0907F" stroke-width="0.19305"/>
<path d="M40.4609 514.479V676.641" stroke="#A0907F" stroke-width="0.19305"/>
<path d="M60.3877 514.479V676.641" stroke="#A0907F" stroke-width="0.19305"/>
<path d="M80.3135 514.479V676.641" stroke="#A0907F" stroke-width="0.19305"/>
<path d="M100.045 514.479V676.641" stroke="#A0907F" stroke-width="0.19305"/>
<path d="M119.971 514.479V676.641" stroke="#A0907F" stroke-width="0.19305"/>
<path d="M139.897 514.479V676.641" stroke="#A0907F" stroke-width="0.19305"/>
<path d="M159.628 514.479V676.641" stroke="#A0907F" stroke-width="0.19305"/>
<path d="M179.555 514.479V676.641" stroke="#A0907F" stroke-width="0.19305"/>
<path d="M199.48 514.479V676.641" stroke="#A0907F" stroke-width="0.19305"/>
<path d="M219.212 514.479V676.641" stroke="#A0907F" stroke-width="0.19305"/>
<path d="M239.138 514.479V676.641" stroke="#A0907F" stroke-width="0.19305"/>
<path d="M259.064 514.479V676.641" stroke="#A0907F" stroke-width="0.19305"/>
<path d="M278.99 514.479V676.641" stroke="#A0907F" stroke-width="0.19305"/>
<path d="M298.722 514.479V676.641" stroke="#A0907F" stroke-width="0.19305"/>
<path d="M318.647 514.479V676.641" stroke="#A0907F" stroke-width="0.19305"/>
<path d="M338.574 514.479V676.641" stroke="#A0907F" stroke-width="0.19305"/>
<path d="M358.305 514.479V676.641" stroke="#A0907F" stroke-width="0.19305"/>
<path d="M378.23 514.479V676.641" stroke="#A0907F" stroke-width="0.19305"/>
<path d="M398.157 514.479V676.641" stroke="#A0907F" stroke-width="0.19305"/>
<path d="M417.888 514.479V676.641" stroke="#A0907F" stroke-width="0.19305"/>
<path d="M437.814 514.479V676.641" stroke="#A0907F" stroke-width="0.19305"/>
<path d="M457.741 514.479V676.641" stroke="#A0907F" stroke-width="0.19305"/>
<path d="M477.472 514.479V676.641" stroke="#A0907F" stroke-width="0.19305"/>
<path d="M497.398 514.479V676.641" stroke="#A0907F" stroke-width="0.19305"/>
<path d="M517.324 514.479V676.641" stroke="#A0907F" stroke-width="0.19305"/>
<path d="M537.055 514.479V676.641" stroke="#A0907F" stroke-width="0.19305"/>
<path d="M556.981 514.479V676.641" stroke="#A0907F" stroke-width="0.19305"/>
<path d="M9.06841 506.69V502.559H9.86378V507.771H8.89081L6.23444 503.617V507.771H5.43907V502.559H6.40432L9.06841 506.69ZM13.7318 507.864C12.1874 507.864 11.0986 506.767 11.0986 505.161C11.0986 503.563 12.1874 502.458 13.7318 502.458C15.2762 502.458 16.365 503.563 16.365 505.161C16.365 506.767 15.2762 507.864 13.7318 507.864ZM13.7318 507.13C14.8129 507.13 15.5697 506.342 15.5697 505.161C15.5697 503.987 14.8129 503.192 13.7318 503.192C12.6508 503.192 11.894 503.987 11.894 505.161C11.894 506.342 12.6508 507.13 13.7318 507.13ZM16.8334 502.559H21.1809V503.261H19.4049V507.771H18.6095V503.261H16.8334V502.559ZM25.9341 502.559V503.261H23.1233V504.798H25.7025V505.493H23.1233V507.068H25.9341V507.771H22.3279V502.559H25.9341ZM28.8725 507.864C27.6911 507.864 26.9266 507.285 26.7721 506.273L27.5366 506.088C27.6525 506.783 28.1621 507.192 28.9189 507.192C29.583 507.192 29.9691 506.868 29.9691 506.366C29.9691 505.763 29.359 505.632 28.6872 505.462C27.8764 505.246 26.9575 504.991 26.9575 503.933C26.9575 503.061 27.6833 502.458 28.803 502.458C29.7451 502.458 30.5482 502.883 30.7567 503.925L30.0386 504.111C29.8918 503.408 29.4208 503.122 28.803 503.122C28.1467 503.122 27.7451 503.431 27.7451 503.91C27.7451 504.458 28.3011 504.59 28.9961 504.759C29.8146 504.96 30.7644 505.254 30.7644 506.281C30.7644 507.261 30.1003 507.864 28.8725 507.864Z" fill="#614F41"/>
</svg>
