<svg width="262" height="137" viewBox="0 0 262 137" fill="none" xmlns="http://www.w3.org/2000/svg">
    <path d="M0.660156 13.6631H261.085" stroke="#626463" stroke-width="0.965251" />
    <path d="M0.660156 34.1265H261.085" stroke="#A0907F" stroke-width="0.579151" />
    <path d="M0.660156 95.5166H261.085" stroke="#A0907F" stroke-width="0.579151" />
    <path d="M0.660156 54.5898H261.085" stroke="#A0907F" stroke-width="0.579151" />
    <path d="M0.660156 115.594H261.085" stroke="#A0907F" stroke-width="0.579151" />
    <path d="M0.660156 75.0532H261.085" stroke="#A0907F" stroke-width="0.579151" />
    <path
        d="M5.9034 6.38542L7.11575 1.93755H7.94201L6.51344 7.1499H5.36286L4.36672 3.15762L3.37058 7.1499H2.22L0.79143 1.93755H1.61769L2.82232 6.36998L3.92657 1.93755H4.79915L5.9034 6.38542ZM9.78727 7.1499H8.9919V1.93755H9.78727V4.16921H12.3896V1.93755H13.185V7.1499H12.3896V4.87191H9.78727V7.1499ZM19.1513 7.1499H18.3019L17.854 5.94527H15.4833L15.0355 7.1499H14.186L16.1706 1.93755H17.1667L19.1513 7.1499ZM16.6725 2.74064L15.7304 5.27345H17.6069L16.6725 2.74064ZM18.9384 1.93755H23.2859V2.64025H21.5098V7.1499H20.7145V2.64025H18.9384V1.93755ZM28.6988 7.24257C27.1544 7.24257 26.0656 6.14604 26.0656 4.53986C26.0656 2.94141 27.1544 1.83716 28.6988 1.83716C29.9729 1.83716 30.9381 2.59392 31.2239 3.75222L30.4594 3.94527C30.2741 3.17307 29.6563 2.57075 28.6988 2.57075C27.6177 2.57075 26.8609 3.36612 26.8609 4.53986C26.8609 5.72133 27.6177 6.50898 28.6988 6.50898C29.4401 6.50898 30.0347 6.1306 30.3127 5.50511L31.054 5.78311C30.6679 6.67886 29.7953 7.24257 28.6988 7.24257ZM36.8259 7.1499H35.9765L35.5286 5.94527H33.158L32.7101 7.1499H31.8607L33.8452 1.93755H34.8414L36.8259 7.1499ZM34.3472 2.74064L33.4051 5.27345H35.2815L34.3472 2.74064ZM41.4521 6.06882V1.93755H42.2474V7.1499H41.2745L38.6181 2.99546V7.1499H37.8227V1.93755H38.788L41.4521 6.06882ZM46.8936 7.1499H46.0983V1.93755H46.8936V7.1499ZM52.5151 7.1499H50.7467V1.93755H52.5151C54.3606 1.93755 55.3336 2.74836 55.3336 4.53986C55.3336 6.34681 54.3452 7.1499 52.5151 7.1499ZM51.5421 2.64025V6.4472H52.5151C53.8355 6.4472 54.5382 5.8526 54.5382 4.53986C54.5382 3.21168 53.8046 2.64025 52.5151 2.64025H51.5421ZM58.9865 7.24257C57.4421 7.24257 56.3533 6.14604 56.3533 4.53986C56.3533 2.94141 57.4421 1.83716 58.9865 1.83716C60.5309 1.83716 61.6197 2.94141 61.6197 4.53986C61.6197 6.14604 60.5309 7.24257 58.9865 7.24257ZM58.9865 6.50898C60.0676 6.50898 60.8244 5.72133 60.8244 4.53986C60.8244 3.36612 60.0676 2.57075 58.9865 2.57075C57.9054 2.57075 57.1487 3.36612 57.1487 4.53986C57.1487 5.72133 57.9054 6.50898 58.9865 6.50898ZM64.3972 1.93755H68.7447V2.64025H66.9686V7.1499H66.1732V2.64025H64.3972V1.93755ZM71.8485 7.24257C70.3041 7.24257 69.2153 6.14604 69.2153 4.53986C69.2153 2.94141 70.3041 1.83716 71.8485 1.83716C73.3929 1.83716 74.4817 2.94141 74.4817 4.53986C74.4817 6.14604 73.3929 7.24257 71.8485 7.24257ZM71.8485 6.50898C72.9296 6.50898 73.6863 5.72133 73.6863 4.53986C73.6863 3.36612 72.9296 2.57075 71.8485 2.57075C70.7674 2.57075 70.0107 3.36612 70.0107 4.53986C70.0107 5.72133 70.7674 6.50898 71.8485 6.50898ZM80.8098 5.70589L82.1457 1.93755H83.5125V7.1499H82.7171V2.36998L81.0878 7.1499H80.5241L78.8947 2.36998V7.1499H78.0993V1.93755H79.4661L80.8098 5.70589ZM89.4804 7.1499H88.631L88.1831 5.94527H85.8124L85.3645 7.1499H84.5151L86.4997 1.93755H87.4958L89.4804 7.1499ZM87.0016 2.74064L86.0595 5.27345H87.936L87.0016 2.74064ZM94.7706 7.1499H93.8826L92.2224 4.42403L91.2725 5.38156V7.1499H90.4772V1.93755H91.2725V4.36998L93.6741 1.93755H94.6702L92.7706 3.86033L94.7706 7.1499ZM99.3787 1.93755V2.64025H96.5679V4.17693H99.147V4.87191H96.5679V6.4472H99.3787V7.1499H95.7725V1.93755H99.3787ZM102.145 1.93755H106.492V2.64025H104.716V7.1499H103.921V2.64025H102.145V1.93755ZM109.596 7.24257C108.051 7.24257 106.963 6.14604 106.963 4.53986C106.963 2.94141 108.051 1.83716 109.596 1.83716C111.14 1.83716 112.229 2.94141 112.229 4.53986C112.229 6.14604 111.14 7.24257 109.596 7.24257ZM109.596 6.50898C110.677 6.50898 111.434 5.72133 111.434 4.53986C111.434 3.36612 110.677 2.57075 109.596 2.57075C108.515 2.57075 107.758 3.36612 107.758 4.53986C107.758 5.72133 108.515 6.50898 109.596 6.50898ZM116.165 5.70589L117.501 1.93755H118.868V7.1499H118.072V2.36998L116.443 7.1499H115.879L114.25 2.36998V7.1499H113.455V1.93755H114.821L116.165 5.70589ZM122.735 7.24257C121.191 7.24257 120.102 6.14604 120.102 4.53986C120.102 2.94141 121.191 1.83716 122.735 1.83716C124.28 1.83716 125.369 2.94141 125.369 4.53986C125.369 6.14604 124.28 7.24257 122.735 7.24257ZM122.735 6.50898C123.816 6.50898 124.573 5.72133 124.573 4.53986C124.573 3.36612 123.816 2.57075 122.735 2.57075C121.654 2.57075 120.897 3.36612 120.897 4.53986C120.897 5.72133 121.654 6.50898 122.735 6.50898ZM130.695 7.1499H129.807L128.509 4.99546H127.39V7.1499H126.594V1.93755H128.849C129.961 1.93755 130.656 2.36226 130.656 3.4665C130.656 4.39315 130.169 4.84102 129.359 4.95685L130.695 7.1499ZM128.818 2.64025H127.39V4.29276H128.818C129.498 4.29276 129.861 4.08427 129.861 3.4665C129.861 2.84874 129.482 2.64025 128.818 2.64025ZM135.997 7.1499H135.109L133.812 4.99546H132.692V7.1499H131.897V1.93755H134.152C135.264 1.93755 135.959 2.36226 135.959 3.4665C135.959 4.39315 135.472 4.84102 134.661 4.95685L135.997 7.1499ZM134.121 2.64025H132.692V4.29276H134.121C134.8 4.29276 135.163 4.08427 135.163 3.4665C135.163 2.84874 134.785 2.64025 134.121 2.64025ZM139.609 7.24257C138.065 7.24257 136.976 6.14604 136.976 4.53986C136.976 2.94141 138.065 1.83716 139.609 1.83716C141.154 1.83716 142.242 2.94141 142.242 4.53986C142.242 6.14604 141.154 7.24257 139.609 7.24257ZM139.609 6.50898C140.69 6.50898 141.447 5.72133 141.447 4.53986C141.447 3.36612 140.69 2.57075 139.609 2.57075C138.528 2.57075 137.771 3.36612 137.771 4.53986C137.771 5.72133 138.528 6.50898 139.609 6.50898ZM148.058 6.38542L149.27 1.93755H150.096L148.668 7.1499H147.517L146.521 3.15762L145.525 7.1499H144.374L142.946 1.93755H143.772L144.977 6.36998L146.081 1.93755H146.953L148.058 6.38542ZM156.6 4.40859C157.187 4.59392 157.534 5.00318 157.534 5.71361C157.534 6.92596 156.476 7.1499 155.797 7.1499H153.387V1.93755H155.642C156.754 1.93755 157.333 2.38542 157.333 3.26573C157.333 3.82944 157.086 4.23098 156.6 4.40859ZM156.538 3.38928C156.538 2.85647 156.237 2.60164 155.627 2.60164H154.183V4.17693H155.627C156.237 4.17693 156.538 3.91438 156.538 3.38928ZM154.183 6.46264H155.804C156.414 6.46264 156.739 6.20782 156.739 5.62867C156.739 5.04952 156.414 4.79469 155.804 4.79469H154.183V6.46264ZM162.417 1.93755V2.64025H159.606V4.17693H162.185V4.87191H159.606V6.4472H162.417V7.1499H158.811V1.93755H162.417ZM163.289 1.93755H167.636V2.64025H165.86V7.1499H165.065V2.64025H163.289V1.93755ZM168.411 1.93755H172.758V2.64025H170.982V7.1499H170.187V2.64025H168.411V1.93755ZM177.511 1.93755V2.64025H174.7V4.17693H177.28V4.87191H174.7V6.4472H177.511V7.1499H173.905V1.93755H177.511ZM182.826 7.1499H181.938L180.64 4.99546H179.521V7.1499H178.725V1.93755H180.98C182.092 1.93755 182.787 2.36226 182.787 3.4665C182.787 4.39315 182.301 4.84102 181.49 4.95685L182.826 7.1499ZM180.949 2.64025H179.521V4.29276H180.949C181.629 4.29276 181.992 4.08427 181.992 3.4665C181.992 2.84874 181.613 2.64025 180.949 2.64025Z"
        fill="#626463" />
</svg>