<svg width="267" height="607" viewBox="0 0 267 607" fill="none" xmlns="http://www.w3.org/2000/svg">
<path d="M0.845703 146.865H266.483" stroke="#614F41" stroke-width="0.965251"/>
<path d="M0.845703 165.59H266.483" stroke="#A0907F" stroke-width="0.579151"/>
<path d="M0.845703 184.316H266.483" stroke="#A0907F" stroke-width="0.579151"/>
<path d="M0.845703 203.042H266.483" stroke="#A0907F" stroke-width="0.579151"/>
<path d="M0.845703 221.768H266.483" stroke="#A0907F" stroke-width="0.579151"/>
<path d="M0.845703 240.494H266.483" stroke="#A0907F" stroke-width="0.579151"/>
<path d="M0.845703 259.22H266.483" stroke="#A0907F" stroke-width="0.579151"/>
<path d="M0.845703 277.946H266.483" stroke="#A0907F" stroke-width="0.579151"/>
<path d="M2.17389 140.351H1.37852V135.139H2.17389V137.371H4.77621V135.139H5.57157V140.351H4.77621V138.073H2.17389V140.351ZM11.5379 140.351H10.6885L10.2406 139.147H7.86996L7.42208 140.351H6.57266L8.55721 135.139H9.55335L11.5379 140.351ZM9.05914 135.942L8.11706 138.475H9.99351L9.05914 135.942ZM15.7471 137.61C16.3339 137.795 16.6814 138.205 16.6814 138.915C16.6814 140.127 15.6235 140.351 14.944 140.351H12.5347V135.139H14.7895C15.9015 135.139 16.4807 135.587 16.4807 136.467C16.4807 137.031 16.2336 137.432 15.7471 137.61ZM15.6853 136.591C15.6853 136.058 15.3841 135.803 14.7741 135.803H13.3301V137.378H14.7741C15.3841 137.378 15.6853 137.116 15.6853 136.591ZM13.3301 139.664H14.9517C15.5617 139.664 15.8861 139.409 15.8861 138.83C15.8861 138.251 15.5617 137.996 14.9517 137.996H13.3301V139.664ZM18.7536 140.351H17.9582V135.139H18.7536V140.351ZM19.9022 135.139H24.2497V135.842H22.4736V140.351H21.6782V135.842H19.9022V135.139ZM26.4131 135.139H30.7606V135.842H28.9845V140.351H28.1892V135.842H26.4131V135.139ZM36.008 140.351H35.12L33.8227 138.197H32.703V140.351H31.9076V135.139H34.1624C35.2744 135.139 35.9694 135.564 35.9694 136.668C35.9694 137.595 35.4829 138.042 34.6721 138.158L36.008 140.351ZM34.1315 135.842H32.703V137.494H34.1315C34.8111 137.494 35.174 137.286 35.174 136.668C35.174 136.05 34.7956 135.842 34.1315 135.842ZM41.7201 140.351H40.8707L40.4228 139.147H38.0521L37.6043 140.351H36.7548L38.7394 135.139H39.7355L41.7201 140.351ZM39.2413 135.942L38.2992 138.475H40.1757L39.2413 135.942ZM44.8773 140.444C43.3329 140.444 42.2441 139.347 42.2441 137.741C42.2441 136.143 43.3329 135.039 44.8773 135.039C46.1514 135.039 47.1167 135.795 47.4024 136.954L46.6379 137.147C46.4526 136.374 45.8348 135.772 44.8773 135.772C43.7962 135.772 43.0395 136.568 43.0395 137.741C43.0395 138.923 43.7962 139.71 44.8773 139.71C45.6186 139.71 46.2132 139.332 46.4912 138.707L47.2325 138.985C46.8464 139.88 45.9738 140.444 44.8773 140.444ZM52.8788 140.351H51.9907L50.3305 137.625L49.3807 138.583V140.351H48.5853V135.139H49.3807V137.571L51.7822 135.139H52.7784L50.8788 137.062L52.8788 140.351ZM57.4868 135.139V135.842H54.676V137.378H57.2552V138.073H54.676V139.649H57.4868V140.351H53.8806V135.139H57.4868ZM62.8012 140.351H61.9132L60.6159 138.197H59.4962V140.351H58.7009V135.139H60.9557C62.0677 135.139 62.7626 135.564 62.7626 136.668C62.7626 137.595 62.2761 138.042 61.4653 138.158L62.8012 140.351ZM60.9248 135.842H59.4962V137.494H60.9248C61.6043 137.494 61.9673 137.286 61.9673 136.668C61.9673 136.05 61.5889 135.842 60.9248 135.842Z" fill="#614F41"/>
<path d="M144.308 138.907L145.644 135.139H147.011V140.351H146.216V135.571L144.586 140.351H144.023L142.393 135.571V140.351H141.598V135.139H142.965L144.308 138.907Z" fill="#614F41"/>
<path d="M161.404 135.139H165.752V135.842H163.976V140.351H163.18V135.842H161.404V135.139Z" fill="#614F41"/>
<path d="M184.955 139.587L186.167 135.139H186.993L185.565 140.351H184.414L183.418 136.359L182.422 140.351H181.271L179.843 135.139H180.669L181.874 139.571L182.978 135.139H183.851L184.955 139.587Z" fill="#614F41"/>
<path d="M200.98 135.139H205.327V135.842H203.551V140.351H202.756V135.842H200.98V135.139Z" fill="#614F41"/>
<path d="M223.475 135.139V135.842H220.665V137.378H223.197V138.073H220.665V140.351H219.869V135.139H223.475Z" fill="#614F41"/>
<path d="M239.695 140.444C238.513 140.444 237.749 139.865 237.594 138.853L238.359 138.668C238.475 139.363 238.984 139.772 239.741 139.772C240.405 139.772 240.791 139.448 240.791 138.946C240.791 138.344 240.181 138.212 239.51 138.042C238.699 137.826 237.78 137.571 237.78 136.513C237.78 135.641 238.506 135.039 239.625 135.039C240.567 135.039 241.371 135.463 241.579 136.506L240.861 136.691C240.714 135.988 240.243 135.703 239.625 135.703C238.969 135.703 238.567 136.012 238.567 136.49C238.567 137.039 239.123 137.17 239.818 137.34C240.637 137.541 241.587 137.834 241.587 138.861C241.587 139.842 240.923 140.444 239.695 140.444Z" fill="#614F41"/>
<path d="M258.035 140.444C256.853 140.444 256.089 139.865 255.934 138.853L256.699 138.668C256.815 139.363 257.324 139.772 258.081 139.772C258.745 139.772 259.131 139.448 259.131 138.946C259.131 138.344 258.521 138.212 257.849 138.042C257.039 137.826 256.12 137.571 256.12 136.513C256.12 135.641 256.846 135.039 257.965 135.039C258.907 135.039 259.71 135.463 259.919 136.506L259.201 136.691C259.054 135.988 258.583 135.703 257.965 135.703C257.309 135.703 256.907 136.012 256.907 136.49C256.907 137.039 257.463 137.17 258.158 137.34C258.977 137.541 259.927 137.834 259.927 138.861C259.927 139.842 259.262 140.444 258.035 140.444Z" fill="#614F41"/>
<circle cx="143.897" cy="156.324" r="4.05406" stroke="#A0907F" stroke-width="0.3861"/>
<circle cx="143.897" cy="175.05" r="4.05406" stroke="#A0907F" stroke-width="0.3861"/>
<circle cx="143.897" cy="193.776" r="4.05406" stroke="#A0907F" stroke-width="0.3861"/>
<circle cx="143.897" cy="212.502" r="4.05406" stroke="#A0907F" stroke-width="0.3861"/>
<circle cx="143.897" cy="231.228" r="4.05406" stroke="#A0907F" stroke-width="0.3861"/>
<circle cx="143.897" cy="249.954" r="4.05406" stroke="#A0907F" stroke-width="0.3861"/>
<circle cx="163.009" cy="156.324" r="4.05406" stroke="#A0907F" stroke-width="0.3861"/>
<circle cx="163.009" cy="175.05" r="4.05406" stroke="#A0907F" stroke-width="0.3861"/>
<circle cx="163.009" cy="193.776" r="4.05406" stroke="#A0907F" stroke-width="0.3861"/>
<circle cx="163.009" cy="212.502" r="4.05406" stroke="#A0907F" stroke-width="0.3861"/>
<circle cx="163.009" cy="231.228" r="4.05406" stroke="#A0907F" stroke-width="0.3861"/>
<circle cx="163.009" cy="249.954" r="4.05406" stroke="#A0907F" stroke-width="0.3861"/>
<circle cx="182.12" cy="156.324" r="4.05406" stroke="#A0907F" stroke-width="0.3861"/>
<circle cx="182.12" cy="175.05" r="4.05406" stroke="#A0907F" stroke-width="0.3861"/>
<circle cx="182.12" cy="193.776" r="4.05406" stroke="#A0907F" stroke-width="0.3861"/>
<circle cx="182.12" cy="212.502" r="4.05406" stroke="#A0907F" stroke-width="0.3861"/>
<circle cx="182.12" cy="231.228" r="4.05406" stroke="#A0907F" stroke-width="0.3861"/>
<circle cx="182.12" cy="249.954" r="4.05406" stroke="#A0907F" stroke-width="0.3861"/>
<circle cx="201.232" cy="156.324" r="4.05406" stroke="#A0907F" stroke-width="0.3861"/>
<circle cx="201.232" cy="175.05" r="4.05406" stroke="#A0907F" stroke-width="0.3861"/>
<circle cx="201.232" cy="193.776" r="4.05406" stroke="#A0907F" stroke-width="0.3861"/>
<circle cx="201.232" cy="212.502" r="4.05406" stroke="#A0907F" stroke-width="0.3861"/>
<circle cx="201.232" cy="231.228" r="4.05406" stroke="#A0907F" stroke-width="0.3861"/>
<circle cx="201.232" cy="249.954" r="4.05406" stroke="#A0907F" stroke-width="0.3861"/>
<circle cx="220.345" cy="156.324" r="4.05406" stroke="#A0907F" stroke-width="0.3861"/>
<circle cx="220.345" cy="175.05" r="4.05406" stroke="#A0907F" stroke-width="0.3861"/>
<circle cx="220.345" cy="193.776" r="4.05406" stroke="#A0907F" stroke-width="0.3861"/>
<circle cx="220.345" cy="212.502" r="4.05406" stroke="#A0907F" stroke-width="0.3861"/>
<circle cx="220.345" cy="231.228" r="4.05406" stroke="#A0907F" stroke-width="0.3861"/>
<circle cx="220.345" cy="249.954" r="4.05406" stroke="#A0907F" stroke-width="0.3861"/>
<circle cx="239.456" cy="156.324" r="4.05406" stroke="#A0907F" stroke-width="0.3861"/>
<circle cx="239.456" cy="175.05" r="4.05406" stroke="#A0907F" stroke-width="0.3861"/>
<circle cx="239.456" cy="193.776" r="4.05406" stroke="#A0907F" stroke-width="0.3861"/>
<circle cx="239.456" cy="212.502" r="4.05406" stroke="#A0907F" stroke-width="0.3861"/>
<circle cx="239.456" cy="231.228" r="4.05406" stroke="#A0907F" stroke-width="0.3861"/>
<circle cx="239.456" cy="249.954" r="4.05406" stroke="#A0907F" stroke-width="0.3861"/>
<circle cx="258.568" cy="156.324" r="4.05406" stroke="#A0907F" stroke-width="0.3861"/>
<circle cx="258.568" cy="175.05" r="4.05406" stroke="#A0907F" stroke-width="0.3861"/>
<circle cx="258.568" cy="193.776" r="4.05406" stroke="#A0907F" stroke-width="0.3861"/>
<circle cx="258.568" cy="212.502" r="4.05406" stroke="#A0907F" stroke-width="0.3861"/>
<circle cx="258.568" cy="231.228" r="4.05406" stroke="#A0907F" stroke-width="0.3861"/>
<circle cx="258.568" cy="249.954" r="4.05406" stroke="#A0907F" stroke-width="0.3861"/>
<circle cx="143.897" cy="268.679" r="4.05406" stroke="#A0907F" stroke-width="0.3861"/>
<circle cx="163.009" cy="268.679" r="4.05406" stroke="#A0907F" stroke-width="0.3861"/>
<circle cx="182.12" cy="268.679" r="4.05406" stroke="#A0907F" stroke-width="0.3861"/>
<circle cx="201.232" cy="268.679" r="4.05406" stroke="#A0907F" stroke-width="0.3861"/>
<circle cx="220.345" cy="268.679" r="4.05406" stroke="#A0907F" stroke-width="0.3861"/>
<circle cx="239.456" cy="268.679" r="4.05406" stroke="#A0907F" stroke-width="0.3861"/>
<circle cx="258.568" cy="268.679" r="4.05406" stroke="#A0907F" stroke-width="0.3861"/>
<path d="M0.845703 14.0464H266.483" stroke="#614F41" stroke-width="0.965251"/>
<path d="M0.845703 33.7375H266.483" stroke="#A0907F" stroke-width="0.579151"/>
<path d="M0.845703 53.4287H266.483" stroke="#A0907F" stroke-width="0.579151"/>
<path d="M0.845703 73.1196H266.483" stroke="#A0907F" stroke-width="0.579151"/>
<path d="M0.845703 92.8108H266.483" stroke="#A0907F" stroke-width="0.579151"/>
<path d="M0.845703 112.502H266.483" stroke="#A0907F" stroke-width="0.579151"/>
<path d="M4.08895 6.08846L5.42485 2.32012H6.79165V7.53247H5.99628V2.75255L4.36694 7.53247H3.80323L2.17389 2.75255V7.53247H1.37852V2.32012H2.74532L4.08895 6.08846ZM12.7596 7.53247H11.9101L11.4623 6.32784H9.0916L8.64372 7.53247H7.7943L9.77886 2.32012H10.775L12.7596 7.53247ZM10.2808 3.1232L9.33871 5.65602H11.2152L10.2808 3.1232ZM14.5517 7.53247H13.7564V2.32012H14.5517V7.53247ZM19.6344 6.45139V2.32012H20.4298V7.53247H19.4568L16.8005 3.37803V7.53247H16.0051V2.32012H16.9703L19.6344 6.45139ZM28.3733 5.56336H26.0644V4.89154H29.1146V7.53247H28.4042V6.66761C28.0644 7.30081 27.4698 7.62513 26.6204 7.62513C25.13 7.62513 24.0567 6.52861 24.0567 4.92243C24.0567 3.32398 25.1532 2.21973 26.6899 2.21973C27.7401 2.21973 28.8752 2.78344 29.2073 4.09618L28.4428 4.30467C28.2497 3.53247 27.632 2.95332 26.6899 2.95332C25.6088 2.95332 24.852 3.74869 24.852 4.92243C24.852 6.09618 25.5779 6.89154 26.6899 6.89154C27.5393 6.89154 28.1802 6.42822 28.3733 5.56336ZM32.8449 7.62513C31.3005 7.62513 30.2117 6.52861 30.2117 4.92243C30.2117 3.32398 31.3005 2.21973 32.8449 2.21973C34.3893 2.21973 35.4781 3.32398 35.4781 4.92243C35.4781 6.52861 34.3893 7.62513 32.8449 7.62513ZM32.8449 6.89154C33.9259 6.89154 34.6827 6.1039 34.6827 4.92243C34.6827 3.74869 33.9259 2.95332 32.8449 2.95332C31.7638 2.95332 31.007 3.74869 31.007 4.92243C31.007 6.1039 31.7638 6.89154 32.8449 6.89154ZM40.9796 7.53247H40.1301L39.6823 6.32784H37.3116L36.8637 7.53247H36.0143L37.9989 2.32012H38.995L40.9796 7.53247ZM38.5008 3.1232L37.5587 5.65602H39.4352L38.5008 3.1232ZM45.4281 7.53247H41.9764V2.32012H42.7717V6.82977H45.4281V7.53247ZM48.159 7.62513C46.9775 7.62513 46.213 7.04598 46.0586 6.0344L46.8231 5.84907C46.9389 6.54405 47.4486 6.95332 48.2053 6.95332C48.8694 6.95332 49.2555 6.629 49.2555 6.12707C49.2555 5.52475 48.6455 5.39347 47.9737 5.22359C47.1628 5.00737 46.2439 4.75255 46.2439 3.69463C46.2439 2.82205 46.9698 2.21973 48.0895 2.21973C49.0316 2.21973 49.8347 2.64444 50.0432 3.68691L49.325 3.87224C49.1783 3.16954 48.7073 2.88382 48.0895 2.88382C47.4331 2.88382 47.0316 3.1927 47.0316 3.67147C47.0316 4.21973 47.5876 4.351 48.2825 4.52089C49.1011 4.72166 50.0509 5.0151 50.0509 6.04212C50.0509 7.02282 49.3868 7.62513 48.159 7.62513Z" fill="#614F41"/>
<circle cx="4.39081" cy="23.5754" r="3.38397" stroke="#A0907F" stroke-width="0.322282"/>
<circle cx="4.39081" cy="43.4069" r="3.38397" stroke="#A0907F" stroke-width="0.322282"/>
<circle cx="4.39081" cy="63.2385" r="3.38397" stroke="#A0907F" stroke-width="0.322282"/>
<circle cx="4.39081" cy="83.07" r="3.38397" stroke="#A0907F" stroke-width="0.322282"/>
<circle cx="4.39081" cy="102.902" r="3.38397" stroke="#A0907F" stroke-width="0.322282"/>
<path d="M5.00787 400.75V396.619H5.80323V401.831H4.83026L2.17389 397.677V401.831H1.37852V396.619H2.34377L5.00787 400.75ZM9.67129 401.924C8.12689 401.924 7.03809 400.827 7.03809 399.221C7.03809 397.623 8.12689 396.518 9.67129 396.518C11.2157 396.518 12.3045 397.623 12.3045 399.221C12.3045 400.827 11.2157 401.924 9.67129 401.924ZM9.67129 401.19C10.7524 401.19 11.5091 400.402 11.5091 399.221C11.5091 398.047 10.7524 397.252 9.67129 397.252C8.59021 397.252 7.83346 398.047 7.83346 399.221C7.83346 400.402 8.59021 401.19 9.67129 401.19ZM12.7729 396.619H17.1204V397.321H15.3443V401.831H14.5489V397.321H12.7729V396.619ZM21.8736 396.619V397.321H19.0628V398.858H21.6419V399.553H19.0628V401.128H21.8736V401.831H18.2674V396.619H21.8736ZM24.812 401.924C23.6305 401.924 22.866 401.345 22.7116 400.333L23.4761 400.148C23.5919 400.843 24.1016 401.252 24.8583 401.252C25.5224 401.252 25.9085 400.928 25.9085 400.426C25.9085 399.823 25.2985 399.692 24.6267 399.522C23.8158 399.306 22.8969 399.051 22.8969 397.993C22.8969 397.121 23.6228 396.518 24.7425 396.518C25.6846 396.518 26.4877 396.943 26.6962 397.985L25.978 398.171C25.8313 397.468 25.3602 397.182 24.7425 397.182C24.0861 397.182 23.6846 397.491 23.6846 397.97C23.6846 398.518 24.2406 398.65 24.9355 398.819C25.7541 399.02 26.7039 399.314 26.7039 400.341C26.7039 401.321 26.0398 401.924 24.812 401.924Z" fill="#614F41"/>
<mask id="path-79-inside-1_508_4379" fill="white">
<path d="M0.845703 605.938L0.845703 408.641H266.483V605.938H0.845703Z"/>
</mask>
<path d="M0.845703 605.938H0.652653V606.517H0.845703V605.938ZM0.845703 408.641V408.062H0.652653V408.641H0.845703ZM266.483 408.641H266.676V408.062H266.483V408.641ZM266.483 605.938V606.517H266.676V605.938H266.483ZM1.03875 605.938L1.03875 408.641H0.652653L0.652653 605.938H1.03875ZM0.845703 409.22H266.483V408.062H0.845703L0.845703 409.22ZM266.29 408.641V605.938H266.676V408.641H266.29ZM266.483 605.359H0.845703V606.517H266.483V605.359Z" fill="#A0907F" mask="url(#path-79-inside-1_508_4379)"/>
<path d="M0.845703 408.641H266.483" stroke="#614F41" stroke-width="0.965251"/>
<path d="M0.845703 605.938H266.483" stroke="#614F41" stroke-width="0.965251"/>
<path d="M0.845703 426.595H266.483" stroke="#A0907F" stroke-width="0.19305"/>
<path d="M0.845703 480.456H266.483" stroke="#A0907F" stroke-width="0.19305"/>
<path d="M0.845703 444.548H266.483" stroke="#A0907F" stroke-width="0.19305"/>
<path d="M0.845703 498.409H266.483" stroke="#A0907F" stroke-width="0.19305"/>
<path d="M0.845703 462.502H266.483" stroke="#A0907F" stroke-width="0.19305"/>
<path d="M0.845703 516.363H266.483" stroke="#A0907F" stroke-width="0.19305"/>
<path d="M0.845703 534.317H266.483" stroke="#A0907F" stroke-width="0.19305"/>
<path d="M0.845703 552.271H266.483" stroke="#A0907F" stroke-width="0.19305"/>
<path d="M0.845703 570.224H266.483" stroke="#A0907F" stroke-width="0.19305"/>
<path d="M0.845703 588.178H266.483" stroke="#A0907F" stroke-width="0.19305"/>
<path d="M19.7646 408.834V605.938" stroke="#A0907F" stroke-width="0.19305"/>
<path d="M40.4209 408.834V605.938" stroke="#A0907F" stroke-width="0.19305"/>
<path d="M61.0771 408.834V605.938" stroke="#A0907F" stroke-width="0.19305"/>
<path d="M81.7334 408.834V605.938" stroke="#A0907F" stroke-width="0.19305"/>
<path d="M102.39 408.834V605.938" stroke="#A0907F" stroke-width="0.19305"/>
<path d="M123.047 408.834V605.938" stroke="#A0907F" stroke-width="0.19305"/>
<path d="M143.703 408.834V605.938" stroke="#A0907F" stroke-width="0.19305"/>
<path d="M164.359 408.834V605.938" stroke="#A0907F" stroke-width="0.19305"/>
<path d="M185.016 408.834V605.938" stroke="#A0907F" stroke-width="0.19305"/>
<path d="M205.672 408.834V605.938" stroke="#A0907F" stroke-width="0.19305"/>
<path d="M226.328 408.834V605.938" stroke="#A0907F" stroke-width="0.19305"/>
<path d="M246.984 408.834V605.938" stroke="#A0907F" stroke-width="0.19305"/>
<rect x="1.2318" y="320.031" width="264.865" height="18.1467" rx="9.07336" stroke="#A0907F" stroke-width="0.772201"/>
<path d="M12.3326 327.715C12.3326 326.463 11.3168 325.448 10.0642 325.448C8.81164 325.448 7.7959 326.463 7.7959 327.715C7.7959 328.372 8.07906 328.958 8.52471 329.374L8.51917 329.375L12.3326 333.188L16.1484 329.375C16.1467 329.374 16.1454 329.374 16.1436 329.372C16.5879 328.956 16.8693 328.372 16.8693 327.715C16.8693 326.463 15.8555 325.448 14.6011 325.448C13.349 325.448 12.3326 326.463 12.3326 327.715Z" stroke="#A0907F" stroke-width="0.772201" stroke-linejoin="round"/>
<rect x="1.2318" y="342.618" width="264.865" height="18.1467" rx="9.07336" stroke="#A0907F" stroke-width="0.772201"/>
<path d="M12.3326 350.302C12.3326 349.05 11.3168 348.035 10.0642 348.035C8.81164 348.035 7.7959 349.05 7.7959 350.302C7.7959 350.959 8.07906 351.544 8.52471 351.96L8.51917 351.961L12.3326 355.775L16.1484 351.961C16.1467 351.96 16.1454 351.96 16.1436 351.959C16.5879 351.543 16.8693 350.959 16.8693 350.302C16.8693 349.05 15.8555 348.035 14.6011 348.035C13.349 348.035 12.3326 349.05 12.3326 350.302Z" stroke="#A0907F" stroke-width="0.772201" stroke-linejoin="round"/>
<rect x="1.2318" y="365.205" width="264.865" height="18.1467" rx="9.07336" stroke="#A0907F" stroke-width="0.772201"/>
<path d="M12.3326 372.889C12.3326 371.637 11.3168 370.622 10.0642 370.622C8.81164 370.622 7.7959 371.637 7.7959 372.889C7.7959 373.546 8.07906 374.131 8.52471 374.548L8.51917 374.549L12.3326 378.362L16.1484 374.549C16.1467 374.548 16.1454 374.548 16.1436 374.546C16.5879 374.13 16.8693 373.546 16.8693 372.889C16.8693 371.637 15.8555 370.622 14.6011 370.622C13.349 370.622 12.3326 371.637 12.3326 372.889Z" stroke="#A0907F" stroke-width="0.772201" stroke-linejoin="round"/>
<path d="M0.845703 309.992H266.483" stroke="#614F41" stroke-width="0.965251"/>
<path d="M5.47119 301.51H3.16231V300.838H6.2125V303.479H5.50207V302.614C5.16231 303.247 4.56771 303.572 3.71829 303.572C2.22794 303.572 1.15458 302.475 1.15458 300.869C1.15458 299.271 2.25111 298.166 3.78779 298.166C4.83798 298.166 5.97312 298.73 6.30516 300.043L5.54068 300.251C5.34763 299.479 4.72987 298.9 3.78779 298.9C2.70671 298.9 1.94995 299.695 1.94995 300.869C1.94995 302.043 2.67582 302.838 3.78779 302.838C4.63721 302.838 5.27814 302.375 5.47119 301.51ZM11.6339 303.479H10.7459L9.44856 301.325H8.32887V303.479H7.5335V298.267H9.78833C10.9003 298.267 11.5953 298.691 11.5953 299.796C11.5953 300.722 11.1088 301.17 10.298 301.286L11.6339 303.479ZM9.75744 298.969H8.32887V300.622H9.75744C10.437 300.622 10.7999 300.413 10.7999 299.796C10.7999 299.178 10.4215 298.969 9.75744 298.969ZM17.346 303.479H16.4966L16.0487 302.274H13.6781L13.2302 303.479H12.3808L14.3653 298.267H15.3614L17.346 303.479ZM14.8672 299.07L13.9252 301.603H15.8016L14.8672 299.07ZM17.1331 298.267H21.4806V298.969H19.7045V303.479H18.9092V298.969H17.1331V298.267ZM23.423 303.479H22.6276V298.267H23.423V303.479ZM24.5716 298.267H28.9191V298.969H27.143V303.479H26.3476V298.969H24.5716V298.267ZM31.9539 303.572C30.7492 303.572 29.8612 302.915 29.8612 301.664V298.267H30.6566V301.564C30.6566 302.382 31.1662 302.846 31.9539 302.846C32.7415 302.846 33.2512 302.382 33.2512 301.564V298.267H34.0465V301.664C34.0465 302.915 33.1585 303.572 31.9539 303.572ZM37.2204 303.479H35.4521V298.267H37.2204C39.066 298.267 40.0389 299.077 40.0389 300.869C40.0389 302.676 39.0505 303.479 37.2204 303.479ZM36.2474 298.969V302.776H37.2204C38.5409 302.776 39.2436 302.182 39.2436 300.869C39.2436 299.541 38.51 298.969 37.2204 298.969H36.2474ZM44.8888 298.267V298.969H42.078V300.506H44.6571V301.201H42.078V302.776H44.8888V303.479H41.2826V298.267H44.8888Z" fill="#614F41"/>
</svg>
