<svg width="269" height="605" viewBox="0 0 269 605" fill="none" xmlns="http://www.w3.org/2000/svg">
<mask id="path-1-inside-1_516_3897" fill="white">
<path d="M1.1084 459.887H266.745V604.095H1.1084V459.887Z"/>
</mask>
<path d="M1.1084 460.852H266.745V458.922H1.1084V460.852ZM266.745 603.13H1.1084V605.06H266.745V603.13Z" fill="#333333" mask="url(#path-1-inside-1_516_3897)"/>
<path d="M5.27056 455.574V451.443H6.06593V456.655H5.09295L2.43658 452.501V456.655H1.64122V451.443H2.60647L5.27056 455.574ZM9.93399 456.748C8.38959 456.748 7.30079 455.651 7.30079 454.045C7.30079 452.447 8.38959 451.343 9.93399 451.343C11.4784 451.343 12.5672 452.447 12.5672 454.045C12.5672 455.651 11.4784 456.748 9.93399 456.748ZM9.93399 456.014C11.0151 456.014 11.7718 455.227 11.7718 454.045C11.7718 452.871 11.0151 452.076 9.93399 452.076C8.85291 452.076 8.09615 452.871 8.09615 454.045C8.09615 455.227 8.85291 456.014 9.93399 456.014ZM13.0356 451.443H17.3831V452.146H15.607V456.655H14.8116V452.146H13.0356V451.443ZM22.1363 451.443V452.146H19.3255V453.682H21.9046V454.377H19.3255V455.953H22.1363V456.655H18.5301V451.443H22.1363ZM25.0747 456.748C23.8932 456.748 23.1287 456.169 22.9743 455.157L23.7388 454.972C23.8546 455.667 24.3643 456.076 25.121 456.076C25.7851 456.076 26.1712 455.752 26.1712 455.25C26.1712 454.648 25.5612 454.516 24.8893 454.346C24.0785 454.13 23.1596 453.875 23.1596 452.817C23.1596 451.945 23.8855 451.343 25.0052 451.343C25.9473 451.343 26.7504 451.767 26.9588 452.81L26.2407 452.995C26.094 452.292 25.6229 452.007 25.0052 452.007C24.3488 452.007 23.9473 452.316 23.9473 452.794C23.9473 453.343 24.5032 453.474 25.1982 453.644C26.0168 453.844 26.9666 454.138 26.9666 455.165C26.9666 456.146 26.3025 456.748 25.0747 456.748Z" fill="#333333"/>
<path d="M1.1084 460.466H266.745" stroke="#333333" stroke-width="0.965251"/>
<path d="M1.1084 478.42H266.745" stroke="#9A9A9A" stroke-width="0.19305"/>
<path d="M1.1084 532.281H266.745" stroke="#9A9A9A" stroke-width="0.19305"/>
<path d="M1.1084 496.374H266.745" stroke="#9A9A9A" stroke-width="0.19305"/>
<path d="M1.1084 550.234H266.745" stroke="#9A9A9A" stroke-width="0.19305"/>
<path d="M1.1084 514.327H266.745" stroke="#9A9A9A" stroke-width="0.19305"/>
<path d="M1.1084 568.188H266.745" stroke="#9A9A9A" stroke-width="0.19305"/>
<path d="M1.1084 586.142H266.745" stroke="#9A9A9A" stroke-width="0.19305"/>
<path d="M1.1084 604.095H266.745" stroke="#9A9A9A" stroke-width="0.19305"/>
<path d="M21.5713 460.659V602.937" stroke="#9A9A9A" stroke-width="0.19305"/>
<path d="M1.1084 460.659V602.937" stroke="#9A9A9A" stroke-width="0.19305"/>
<path d="M42.0352 460.659V602.937" stroke="#9A9A9A" stroke-width="0.19305"/>
<path d="M62.498 460.659V602.937" stroke="#9A9A9A" stroke-width="0.19305"/>
<path d="M82.7686 460.659V602.937" stroke="#9A9A9A" stroke-width="0.19305"/>
<path d="M103.232 460.659V602.937" stroke="#9A9A9A" stroke-width="0.19305"/>
<path d="M123.695 460.659V602.937" stroke="#9A9A9A" stroke-width="0.19305"/>
<path d="M144.158 460.659V602.937" stroke="#9A9A9A" stroke-width="0.19305"/>
<path d="M164.622 460.659V602.937" stroke="#9A9A9A" stroke-width="0.19305"/>
<path d="M185.085 460.659V602.937" stroke="#9A9A9A" stroke-width="0.19305"/>
<path d="M205.355 460.659V602.937" stroke="#9A9A9A" stroke-width="0.19305"/>
<path d="M225.818 460.659V602.937" stroke="#9A9A9A" stroke-width="0.19305"/>
<path d="M246.282 460.659V602.937" stroke="#9A9A9A" stroke-width="0.19305"/>
<path d="M266.745 460.659V602.937" stroke="#9A9A9A" stroke-width="0.19305"/>
<path d="M1.10742 73.9976H266.745" stroke="#333333" stroke-width="0.965251"/>
<path d="M1.10742 92.7236H266.745" stroke="#9A9A9A" stroke-width="0.579151"/>
<path d="M1.10742 111.449H266.745" stroke="#9A9A9A" stroke-width="0.579151"/>
<path d="M1.10742 130.175H266.745" stroke="#9A9A9A" stroke-width="0.579151"/>
<path d="M1.18464 62.271H5.53213V62.9737H3.75607V67.4834H2.9607V62.9737H1.18464V62.271ZM8.63596 67.5761C7.09156 67.5761 6.00275 66.4795 6.00275 64.8734C6.00275 63.2749 7.09156 62.1707 8.63596 62.1707C10.1804 62.1707 11.2692 63.2749 11.2692 64.8734C11.2692 66.4795 10.1804 67.5761 8.63596 67.5761ZM8.63596 66.8425C9.71704 66.8425 10.4738 66.0548 10.4738 64.8734C10.4738 63.6996 9.71704 62.9042 8.63596 62.9042C7.55488 62.9042 6.79812 63.6996 6.79812 64.8734C6.79812 66.0548 7.55488 66.8425 8.63596 66.8425ZM12.4948 62.271H14.6338C15.7458 62.271 16.4407 62.6958 16.4407 63.8C16.4407 64.9042 15.7458 65.329 14.6338 65.329H13.2902V67.4834H12.4948V62.271ZM13.2902 64.6263H14.6029C15.2824 64.6263 15.6454 64.4178 15.6454 63.8C15.6454 63.1822 15.2747 62.9737 14.6029 62.9737H13.2902V64.6263ZM19.7372 62.271H21.8762C22.9882 62.271 23.6831 62.6958 23.6831 63.8C23.6831 64.9042 22.9882 65.329 21.8762 65.329H20.5326V67.4834H19.7372V62.271ZM20.5326 64.6263H21.8453C22.5248 64.6263 22.8878 64.4178 22.8878 63.8C22.8878 63.1822 22.5171 62.9737 21.8453 62.9737H20.5326V64.6263ZM28.9217 67.4834H28.0337L26.7364 65.329H25.6167V67.4834H24.8213V62.271H27.0762C28.1881 62.271 28.8831 62.6958 28.8831 63.8C28.8831 64.7266 28.3966 65.1745 27.5858 65.2903L28.9217 67.4834ZM27.0453 62.9737H25.6167V64.6263H27.0453C27.7248 64.6263 28.0878 64.4178 28.0878 63.8C28.0878 63.1822 27.7094 62.9737 27.0453 62.9737ZM30.9196 67.4834H30.1242V62.271H30.9196V67.4834ZM34.7822 67.5761C33.2378 67.5761 32.149 66.4795 32.149 64.8734C32.149 63.2749 33.2378 62.1707 34.7822 62.1707C36.3266 62.1707 37.4154 63.2749 37.4154 64.8734C37.4154 66.4795 36.3266 67.5761 34.7822 67.5761ZM34.7822 66.8425C35.8633 66.8425 36.62 66.0548 36.62 64.8734C36.62 63.6996 35.8633 62.9042 34.7822 62.9042C33.7011 62.9042 32.9444 63.6996 32.9444 64.8734C32.9444 66.0548 33.7011 66.8425 34.7822 66.8425ZM42.7414 67.4834H41.8534L40.5561 65.329H39.4364V67.4834H38.641V62.271H40.8959C42.0078 62.271 42.7028 62.6958 42.7028 63.8C42.7028 64.7266 42.2163 65.1745 41.4055 65.2903L42.7414 67.4834ZM40.865 62.9737H39.4364V64.6263H40.865C41.5445 64.6263 41.9074 64.4178 41.9074 63.8C41.9074 63.1822 41.5291 62.9737 40.865 62.9737ZM44.7392 67.4834H43.9439V62.271H44.7392V67.4834ZM45.8878 62.271H50.2353V62.9737H48.4593V67.4834H47.6639V62.9737H45.8878V62.271ZM52.1777 67.4834H51.3823V62.271H52.1777V67.4834ZM57.2372 62.271V62.9737H54.4264V64.5104H57.0056V65.2054H54.4264V66.7807H57.2372V67.4834H53.6311V62.271H57.2372ZM60.1757 67.5761C58.9942 67.5761 58.2297 66.9969 58.0753 65.9853L58.8397 65.8C58.9556 66.495 59.4652 66.9042 60.222 66.9042C60.8861 66.9042 61.2722 66.5799 61.2722 66.078C61.2722 65.4757 60.6621 65.3444 59.9903 65.1745C59.1795 64.9583 58.2606 64.7035 58.2606 63.6456C58.2606 62.773 58.9865 62.1707 60.1062 62.1707C61.0482 62.1707 61.8513 62.5954 62.0598 63.6378L61.3417 63.8232C61.195 63.1205 60.7239 62.8347 60.1062 62.8347C59.4498 62.8347 59.0482 63.1436 59.0482 63.6224C59.0482 64.1707 59.6042 64.3019 60.2992 64.4718C61.1177 64.6726 62.0675 64.966 62.0675 65.9931C62.0675 66.9737 61.4035 67.5761 60.1757 67.5761Z" fill="#333333"/>
<circle cx="4.65253" cy="83.7194" r="3.38397" stroke="#9A9A9A" stroke-width="0.322282"/>
<circle cx="4.65253" cy="121.066" r="3.38397" stroke="#9A9A9A" stroke-width="0.322282"/>
<circle cx="4.65253" cy="102.393" r="3.38397" stroke="#9A9A9A" stroke-width="0.322282"/>
<path d="M1.10742 160.676H266.745" stroke="#333333" stroke-width="0.965251"/>
<path d="M1.10742 179.402H266.745" stroke="#9A9A9A" stroke-width="0.579151"/>
<path d="M1.10742 235.58H266.745" stroke="#9A9A9A" stroke-width="0.579151"/>
<path d="M1.10742 198.128H266.745" stroke="#9A9A9A" stroke-width="0.579151"/>
<path d="M1.10742 254.306H266.745" stroke="#9A9A9A" stroke-width="0.579151"/>
<path d="M1.10742 273.031H266.745" stroke="#9A9A9A" stroke-width="0.579151"/>
<path d="M1.10742 291.757H266.745" stroke="#9A9A9A" stroke-width="0.579151"/>
<path d="M1.10742 216.854H266.745" stroke="#9A9A9A" stroke-width="0.579151"/>
<path d="M1.18464 148.95H5.53213V149.653H3.75607V154.163H2.9607V149.653H1.18464V148.95ZM8.63596 154.255C7.09156 154.255 6.00275 153.159 6.00275 151.553C6.00275 149.954 7.09156 148.85 8.63596 148.85C10.1804 148.85 11.2692 149.954 11.2692 151.553C11.2692 153.159 10.1804 154.255 8.63596 154.255ZM8.63596 153.522C9.71704 153.522 10.4738 152.734 10.4738 151.553C10.4738 150.379 9.71704 149.583 8.63596 149.583C7.55488 149.583 6.79812 150.379 6.79812 151.553C6.79812 152.734 7.55488 153.522 8.63596 153.522ZM16.6629 154.163H14.8945V148.95H16.6629C18.5084 148.95 19.4814 149.761 19.4814 151.553C19.4814 153.36 18.493 154.163 16.6629 154.163ZM15.6899 149.653V153.46H16.6629C17.9833 153.46 18.686 152.865 18.686 151.553C18.686 150.224 17.9524 149.653 16.6629 149.653H15.6899ZM23.1343 154.255C21.5899 154.255 20.5011 153.159 20.5011 151.553C20.5011 149.954 21.5899 148.85 23.1343 148.85C24.6787 148.85 25.7675 149.954 25.7675 151.553C25.7675 153.159 24.6787 154.255 23.1343 154.255ZM23.1343 153.522C24.2154 153.522 24.9722 152.734 24.9722 151.553C24.9722 150.379 24.2154 149.583 23.1343 149.583C22.0532 149.583 21.2965 150.379 21.2965 151.553C21.2965 152.734 22.0532 153.522 23.1343 153.522ZM32.8369 154.163H29.3852V148.95H30.1805V153.46H32.8369V154.163ZM34.7444 154.163H33.949V148.95H34.7444V154.163ZM38.0201 154.255C36.8387 154.255 36.0742 153.676 35.9197 152.665L36.6842 152.479C36.8 153.174 37.3097 153.583 38.0665 153.583C38.7306 153.583 39.1167 153.259 39.1167 152.757C39.1167 152.155 38.5066 152.024 37.8348 151.854C37.024 151.638 36.1051 151.383 36.1051 150.325C36.1051 149.452 36.8309 148.85 37.9506 148.85C38.8927 148.85 39.6958 149.275 39.9043 150.317L39.1861 150.502C39.0394 149.8 38.5684 149.514 37.9506 149.514C37.2943 149.514 36.8927 149.823 36.8927 150.302C36.8927 150.85 37.4487 150.981 38.1437 151.151C38.9622 151.352 39.912 151.645 39.912 152.672C39.912 153.653 39.2479 154.255 38.0201 154.255ZM40.6001 148.95H44.9476V149.653H43.1715V154.163H42.3761V149.653H40.6001V148.95Z" fill="#333333"/>
<circle cx="4.65253" cy="170.206" r="3.38397" stroke="#9A9A9A" stroke-width="0.322282"/>
<circle cx="4.65253" cy="207.553" r="3.38397" stroke="#9A9A9A" stroke-width="0.322282"/>
<circle cx="4.65253" cy="188.88" r="3.38397" stroke="#9A9A9A" stroke-width="0.322282"/>
<circle cx="4.65253" cy="226.226" r="3.38397" stroke="#9A9A9A" stroke-width="0.322282"/>
<circle cx="4.65253" cy="244.899" r="3.38397" stroke="#9A9A9A" stroke-width="0.322282"/>
<circle cx="4.65253" cy="263.643" r="3.38397" stroke="#9A9A9A" stroke-width="0.322282"/>
<circle cx="4.65253" cy="282.386" r="3.38397" stroke="#9A9A9A" stroke-width="0.322282"/>
<path d="M6.35164 398.958L7.564 394.51H8.39025L6.96168 399.722H5.8111L4.81496 395.73L3.81882 399.722H2.66824L1.23967 394.51H2.06593L3.27056 398.942L4.37481 394.51H5.24739L6.35164 398.958ZM13.3918 399.722H12.5423L12.0945 398.518H9.72381L9.27593 399.722H8.42651L10.4111 394.51H11.4072L13.3918 399.722ZM10.913 395.313L9.97091 397.846H11.8474L10.913 395.313ZM13.1789 394.51H17.5264V395.213H15.7503V399.722H14.9549V395.213H13.1789V394.51ZM22.2796 394.51V395.213H19.4687V396.749H22.0479V397.444H19.4687V399.019H22.2796V399.722H18.6734V394.51H22.2796ZM27.594 399.722H26.7059L25.4087 397.568H24.289V399.722H23.4936V394.51H25.7484C26.8604 394.51 27.5554 394.935 27.5554 396.039C27.5554 396.965 27.0689 397.413 26.2581 397.529L27.594 399.722ZM25.7175 395.213H24.289V396.865H25.7175C26.3971 396.865 26.76 396.657 26.76 396.039C26.76 395.421 26.3816 395.213 25.7175 395.213ZM30.3483 394.51H34.6958V395.213H32.9197V399.722H32.1243V395.213H30.3483V394.51ZM39.9432 399.722H39.0551L37.7578 397.568H36.6381V399.722H35.8428V394.51H38.0976C39.2096 394.51 39.9046 394.935 39.9046 396.039C39.9046 396.965 39.4181 397.413 38.6073 397.529L39.9432 399.722ZM38.0667 395.213H36.6381V396.865H38.0667C38.7462 396.865 39.1092 396.657 39.1092 396.039C39.1092 395.421 38.7308 395.213 38.0667 395.213ZM45.6553 399.722H44.8059L44.358 398.518H41.9873L41.5394 399.722H40.69L42.6746 394.51H43.6707L45.6553 399.722ZM43.1765 395.313L42.2344 397.846H44.1109L43.1765 395.313ZM48.8125 399.815C47.2681 399.815 46.1793 398.718 46.1793 397.112C46.1793 395.514 47.2681 394.409 48.8125 394.409C50.0866 394.409 51.0519 395.166 51.3376 396.324L50.5731 396.518C50.3878 395.745 49.77 395.143 48.8125 395.143C47.7314 395.143 46.9747 395.938 46.9747 397.112C46.9747 398.294 47.7314 399.081 48.8125 399.081C49.5538 399.081 50.1484 398.703 50.4264 398.077L51.1677 398.355C50.7816 399.251 49.909 399.815 48.8125 399.815ZM56.8139 399.722H55.9259L54.2657 396.996L53.3159 397.954V399.722H52.5205V394.51H53.3159V396.942L55.7174 394.51H56.7136L54.8139 396.433L56.8139 399.722ZM61.422 394.51V395.213H58.6112V396.749H61.1903V397.444H58.6112V399.019H61.422V399.722H57.8158V394.51H61.422ZM66.7364 399.722H65.8484L64.5511 397.568H63.4314V399.722H62.636V394.51H64.8909C66.0028 394.51 66.6978 394.935 66.6978 396.039C66.6978 396.965 66.2113 397.413 65.4005 397.529L66.7364 399.722ZM64.86 395.213H63.4314V396.865H64.86C65.5395 396.865 65.9024 396.657 65.9024 396.039C65.9024 395.421 65.5241 395.213 64.86 395.213Z" fill="#333333"/>
<path fill-rule="evenodd" clip-rule="evenodd" d="M13.2706 425.51C13.2706 429.045 10.548 431.911 7.18948 431.911C3.83097 431.911 1.1084 429.045 1.1084 425.51C1.1084 420.814 7.18948 415.115 7.18948 415.115C7.18949 415.115 13.2706 420.814 13.2706 425.51Z" stroke="#9A9A9A" stroke-width="0.969024" stroke-miterlimit="22.9256"/>
<path d="M3.33641 423.996C3.0116 425.288 3.33627 428.578 5.93512 429.401" stroke="#9A9A9A" stroke-width="0.964058" stroke-linecap="round"/>
<path fill-rule="evenodd" clip-rule="evenodd" d="M40.4903 425.51C40.4903 429.045 37.7677 431.911 34.4092 431.911C31.0507 431.911 28.3281 429.045 28.3281 425.51C28.3281 420.814 34.4092 415.115 34.4092 415.115C34.4092 415.115 40.4903 420.814 40.4903 425.51Z" stroke="#9A9A9A" stroke-width="0.969024" stroke-miterlimit="22.9256"/>
<path d="M30.5552 423.996C30.2303 425.288 30.555 428.578 33.1539 429.401" stroke="#9A9A9A" stroke-width="0.964058" stroke-linecap="round"/>
<path fill-rule="evenodd" clip-rule="evenodd" d="M67.711 425.51C67.711 429.045 64.9884 431.911 61.6299 431.911C58.2714 431.911 55.5488 429.045 55.5488 425.51C55.5488 420.814 61.6299 415.115 61.6299 415.115C61.6299 415.115 67.711 420.814 67.711 425.51Z" stroke="#9A9A9A" stroke-width="0.969024" stroke-miterlimit="22.9256"/>
<path d="M57.7768 423.996C57.452 425.288 57.7767 428.578 60.3756 429.401" stroke="#9A9A9A" stroke-width="0.964058" stroke-linecap="round"/>
<path fill-rule="evenodd" clip-rule="evenodd" d="M94.9307 425.51C94.9307 429.045 92.2081 431.911 88.8496 431.911C85.4911 431.911 82.7686 429.045 82.7686 425.51C82.7686 420.814 88.8496 415.115 88.8496 415.115C88.8497 415.115 94.9307 420.814 94.9307 425.51Z" stroke="#9A9A9A" stroke-width="0.969024" stroke-miterlimit="22.9256"/>
<path d="M84.9966 423.996C84.6718 425.288 84.9964 428.578 87.5953 429.401" stroke="#9A9A9A" stroke-width="0.964058" stroke-linecap="round"/>
<path fill-rule="evenodd" clip-rule="evenodd" d="M122.15 425.51C122.15 429.045 119.428 431.911 116.069 431.911C112.711 431.911 109.988 429.045 109.988 425.51C109.988 420.814 116.069 415.115 116.069 415.115C116.069 415.115 122.15 420.814 122.15 425.51Z" stroke="#9A9A9A" stroke-width="0.969024" stroke-miterlimit="22.9256"/>
<path d="M112.216 423.996C111.891 425.288 112.216 428.578 114.815 429.401" stroke="#9A9A9A" stroke-width="0.964058" stroke-linecap="round"/>
<path fill-rule="evenodd" clip-rule="evenodd" d="M149.371 425.51C149.371 429.045 146.649 431.911 143.29 431.911C139.932 431.911 137.209 429.045 137.209 425.51C137.209 420.814 143.29 415.115 143.29 415.115C143.29 415.115 149.371 420.814 149.371 425.51Z" stroke="#9A9A9A" stroke-width="0.969024" stroke-miterlimit="22.9256"/>
<path d="M139.437 423.996C139.112 425.288 139.437 428.578 142.036 429.401" stroke="#9A9A9A" stroke-width="0.964058" stroke-linecap="round"/>
<path fill-rule="evenodd" clip-rule="evenodd" d="M176.591 425.51C176.591 429.045 173.868 431.911 170.51 431.911C167.151 431.911 164.429 429.045 164.429 425.51C164.429 420.814 170.51 415.115 170.51 415.115C170.51 415.115 176.591 420.814 176.591 425.51Z" stroke="#9A9A9A" stroke-width="0.969024" stroke-miterlimit="22.9256"/>
<path d="M166.657 423.996C166.332 425.288 166.657 428.578 169.255 429.401" stroke="#9A9A9A" stroke-width="0.964058" stroke-linecap="round"/>
<path fill-rule="evenodd" clip-rule="evenodd" d="M203.811 425.51C203.811 429.045 201.088 431.911 197.73 431.911C194.371 431.911 191.648 429.045 191.648 425.51C191.648 420.814 197.73 415.115 197.73 415.115C197.73 415.115 203.811 420.814 203.811 425.51Z" stroke="#9A9A9A" stroke-width="0.969024" stroke-miterlimit="22.9256"/>
<path d="M193.876 423.996C193.552 425.288 193.876 428.578 196.475 429.401" stroke="#9A9A9A" stroke-width="0.964058" stroke-linecap="round"/>
<path fill-rule="evenodd" clip-rule="evenodd" d="M231.031 425.51C231.031 429.045 228.309 431.911 224.95 431.911C221.592 431.911 218.869 429.045 218.869 425.51C218.869 420.814 224.95 415.115 224.95 415.115C224.95 415.115 231.031 420.814 231.031 425.51Z" stroke="#9A9A9A" stroke-width="0.969024" stroke-miterlimit="22.9256"/>
<path d="M221.097 423.996C220.772 425.288 221.097 428.578 223.696 429.401" stroke="#9A9A9A" stroke-width="0.964058" stroke-linecap="round"/>
<path fill-rule="evenodd" clip-rule="evenodd" d="M258.251 425.51C258.251 429.045 255.528 431.911 252.17 431.911C248.811 431.911 246.089 429.045 246.089 425.51C246.089 420.814 252.17 415.115 252.17 415.115C252.17 415.115 258.251 420.814 258.251 425.51Z" stroke="#9A9A9A" stroke-width="0.969024" stroke-miterlimit="22.9256"/>
<path d="M248.317 423.996C247.992 425.288 248.317 428.578 250.916 429.401" stroke="#9A9A9A" stroke-width="0.964058" stroke-linecap="round"/>
<mask id="path-72-inside-2_516_3897" fill="white">
<path d="M1.1084 402.954H263.271V431.911H1.1084V402.954Z"/>
</mask>
<path d="M1.1084 403.919H263.271V401.988H1.1084V403.919Z" fill="#333333" mask="url(#path-72-inside-2_516_3897)"/>
<rect x="1.49352" y="332.296" width="264.865" height="18.1467" rx="9.07336" stroke="#9A9A9A" stroke-width="0.772201"/>
<path d="M12.5943 339.98C12.5943 338.728 11.5785 337.713 10.326 337.713C9.07336 337.713 8.05762 338.728 8.05762 339.98C8.05762 340.637 8.34078 341.222 8.78643 341.638L8.78088 341.639L12.5943 345.453L16.4102 341.639C16.4084 341.638 16.4071 341.638 16.4053 341.637C16.8496 341.221 17.131 340.637 17.131 339.98C17.131 338.728 16.1172 337.713 14.8629 337.713C13.6107 337.713 12.5943 338.728 12.5943 339.98Z" stroke="#9A9A9A" stroke-width="0.772201" stroke-linejoin="round"/>
<rect x="1.49352" y="357.201" width="264.865" height="18.1467" rx="9.07336" stroke="#9A9A9A" stroke-width="0.772201"/>
<path d="M12.5943 364.885C12.5943 363.633 11.5785 362.618 10.326 362.618C9.07336 362.618 8.05762 363.633 8.05762 364.885C8.05762 365.542 8.34078 366.127 8.78643 366.543L8.78088 366.544L12.5943 370.358L16.4102 366.544C16.4084 366.543 16.4071 366.543 16.4053 366.542C16.8496 366.126 17.131 365.542 17.131 364.885C17.131 363.633 16.1172 362.618 14.8629 362.618C13.6107 362.618 12.5943 363.633 12.5943 364.885Z" stroke="#9A9A9A" stroke-width="0.772201" stroke-linejoin="round"/>
<path d="M1.10742 322.258H266.745" stroke="#333333" stroke-width="0.965251"/>
<path d="M5.7329 313.776H3.42402V313.104H6.47422V315.745H5.76379V314.88C5.42402 315.513 4.82943 315.837 3.98001 315.837C2.48966 315.837 1.4163 314.741 1.4163 313.135C1.4163 311.536 2.51283 310.432 4.04951 310.432C5.0997 310.432 6.23484 310.996 6.56688 312.308L5.8024 312.517C5.60935 311.745 4.99159 311.165 4.04951 311.165C2.96843 311.165 2.21167 311.961 2.21167 313.135C2.21167 314.308 2.93754 315.104 4.04951 315.104C4.89893 315.104 5.53985 314.64 5.7329 313.776ZM11.8956 315.745H11.0076L9.71028 313.59H8.59059V315.745H7.79522V310.532H10.05C11.162 310.532 11.857 310.957 11.857 312.061C11.857 312.988 11.3705 313.436 10.5597 313.552L11.8956 315.745ZM10.0192 311.235H8.59059V312.887H10.0192C10.6987 312.887 11.0616 312.679 11.0616 312.061C11.0616 311.443 10.6833 311.235 10.0192 311.235ZM17.6077 315.745H16.7583L16.3104 314.54H13.9398L13.4919 315.745H12.6425L14.627 310.532H15.6232L17.6077 315.745ZM15.129 311.335L14.1869 313.868H16.0633L15.129 311.335ZM17.3948 310.532H21.7423V311.235H19.9663V315.745H19.1709V311.235H17.3948V310.532ZM23.6847 315.745H22.8893V310.532H23.6847V315.745ZM24.8333 310.532H29.1808V311.235H27.4047V315.745H26.6094V311.235H24.8333V310.532ZM32.2156 315.837C31.011 315.837 30.1229 315.181 30.1229 313.93V310.532H30.9183V313.83C30.9183 314.648 31.4279 315.111 32.2156 315.111C33.0032 315.111 33.5129 314.648 33.5129 313.83V310.532H34.3083V313.93C34.3083 315.181 33.4202 315.837 32.2156 315.837ZM37.4821 315.745H35.7138V310.532H37.4821C39.3277 310.532 40.3007 311.343 40.3007 313.135C40.3007 314.942 39.3122 315.745 37.4821 315.745ZM36.5091 311.235V315.042H37.4821C38.8026 315.042 39.5053 314.447 39.5053 313.135C39.5053 311.806 38.7717 311.235 37.4821 311.235H36.5091ZM45.1505 310.532V311.235H42.3397V312.772H44.9188V313.467H42.3397V315.042H45.1505V315.745H41.5443V310.532H45.1505Z" fill="#333333"/>
<path d="M1.18173 2.67051H5.31048V3.33785H3.62378V7.62061H2.86843V3.33785H1.18173V2.67051ZM8.25814 7.70861C6.79144 7.70861 5.75742 6.66725 5.75742 5.14189C5.75742 3.62386 6.79144 2.57517 8.25814 2.57517C9.72483 2.57517 10.7589 3.62386 10.7589 5.14189C10.7589 6.66725 9.72483 7.70861 8.25814 7.70861ZM8.25814 7.01193C9.28483 7.01193 10.0035 6.26391 10.0035 5.14189C10.0035 4.0272 9.28483 3.27185 8.25814 3.27185C7.23145 3.27185 6.51277 4.0272 6.51277 5.14189C6.51277 6.26391 7.23145 7.01193 8.25814 7.01193ZM13.6095 7.62061H11.9301V2.67051H13.6095C15.3622 2.67051 16.2862 3.44052 16.2862 5.14189C16.2862 6.85792 15.3475 7.62061 13.6095 7.62061ZM12.6855 3.33785V6.95326H13.6095C14.8635 6.95326 15.5309 6.38858 15.5309 5.14189C15.5309 3.88053 14.8342 3.33785 13.6095 3.33785H12.6855ZM21.5281 7.62061H20.7214L20.296 6.47658H18.0447L17.6193 7.62061H16.8126L18.6973 2.67051H19.6434L21.5281 7.62061ZM19.174 3.43319L18.2793 5.83857H20.0614L19.174 3.43319ZM24.6841 2.67051H25.5641L23.8041 5.37656V7.62061H23.0487V5.36189L21.296 2.67051H22.1687L23.4301 4.64321L24.6841 2.67051ZM26.7164 4.78988H26.159L26.5697 2.67051H27.3104L26.7164 4.78988ZM30.1596 7.70861C29.0375 7.70861 28.3115 7.1586 28.1649 6.19791L28.8909 6.02191C29.0009 6.68192 29.4849 7.07059 30.2036 7.07059C30.8343 7.07059 31.2009 6.76259 31.2009 6.28591C31.2009 5.7139 30.6216 5.58923 29.9836 5.4279C29.2136 5.22256 28.3409 4.98055 28.3409 3.97587C28.3409 3.14718 29.0302 2.57517 30.0936 2.57517C30.9883 2.57517 31.7509 2.97851 31.9489 3.96853L31.2669 4.14454C31.1276 3.47719 30.6802 3.20585 30.0936 3.20585C29.4702 3.20585 29.0889 3.49919 29.0889 3.95387C29.0889 4.47454 29.6169 4.59921 30.2769 4.76055C31.0543 4.95122 31.9563 5.22989 31.9563 6.20524C31.9563 7.1366 31.3256 7.70861 30.1596 7.70861ZM38.0098 6.24924L39.2785 2.67051H40.5766V7.62061H39.8212V3.08118L38.2738 7.62061H37.7385L36.1911 3.08118V7.62061H35.4358V2.67051H36.7338L38.0098 6.24924ZM44.2495 7.70861C42.7828 7.70861 41.7488 6.66725 41.7488 5.14189C41.7488 3.62386 42.7828 2.57517 44.2495 2.57517C45.7162 2.57517 46.7502 3.62386 46.7502 5.14189C46.7502 6.66725 45.7162 7.70861 44.2495 7.70861ZM44.2495 7.01193C45.2762 7.01193 45.9948 6.26391 45.9948 5.14189C45.9948 4.0272 45.2762 3.27185 44.2495 3.27185C43.2228 3.27185 42.5041 4.0272 42.5041 5.14189C42.5041 6.26391 43.2228 7.01193 44.2495 7.01193ZM50.2022 7.70861C48.7355 7.70861 47.7015 6.66725 47.7015 5.14189C47.7015 3.62386 48.7355 2.57517 50.2022 2.57517C51.6689 2.57517 52.7029 3.62386 52.7029 5.14189C52.7029 6.66725 51.6689 7.70861 50.2022 7.70861ZM50.2022 7.01193C51.2289 7.01193 51.9476 6.26391 51.9476 5.14189C51.9476 4.0272 51.2289 3.27185 50.2022 3.27185C49.1755 3.27185 48.4568 4.0272 48.4568 5.14189C48.4568 6.26391 49.1755 7.01193 50.2022 7.01193ZM55.5536 7.62061H53.8742V2.67051H55.5536C57.3063 2.67051 58.2303 3.44052 58.2303 5.14189C58.2303 6.85792 57.2916 7.62061 55.5536 7.62061ZM54.6296 3.33785V6.95326H55.5536C56.8076 6.95326 57.4749 6.38858 57.4749 5.14189C57.4749 3.88053 56.7783 3.33785 55.5536 3.33785H54.6296Z" fill="#333333"/>
<mask id="path-81-inside-3_516_3897" fill="white">
<path d="M1.1084 10.2729H266.745V43.4776H1.1084V10.2729Z"/>
</mask>
<path d="M1.1084 11.1895H266.745V9.35635H1.1084V11.1895Z" fill="#333333" mask="url(#path-81-inside-3_516_3897)"/>
<path d="M23.97 31.9026C23.97 38.1271 18.924 43.1731 12.6995 43.1731C6.47493 43.1731 1.42894 38.1271 1.42894 31.9026C1.42894 25.6781 6.47493 20.6321 12.6995 20.6321C18.924 20.6321 23.97 25.6781 23.97 31.9026Z" stroke="#9A9A9A" stroke-width="0.641092"/>
<path d="M11.0658 30.2995C11.0658 31.1728 10.3579 31.8808 9.48458 31.8808C8.61128 31.8808 7.90332 31.1728 7.90332 30.2995C7.90332 29.4262 8.61128 28.7183 9.48458 28.7183C10.3579 28.7183 11.0658 29.4262 11.0658 30.2995Z" fill="#9A9A9A"/>
<path d="M17.6537 30.2995C17.6537 31.1728 16.9458 31.8808 16.0725 31.8808C15.1992 31.8808 14.4912 31.1728 14.4912 30.2995C14.4912 29.4262 15.1992 28.7183 16.0725 28.7183C16.9458 28.7183 17.6537 29.4262 17.6537 30.2995Z" fill="#9A9A9A"/>
<path fill-rule="evenodd" clip-rule="evenodd" d="M14.6383 33.2256C14.841 33.3067 14.9396 33.5368 14.8585 33.7395C14.52 34.5859 13.6862 34.9763 12.8937 34.9763C12.1005 34.9763 11.2531 34.5885 10.8436 33.7695C10.7459 33.5742 10.8251 33.3367 11.0204 33.2391C11.2156 33.1415 11.4531 33.2206 11.5507 33.4159C11.8001 33.9146 12.3363 34.1857 12.8937 34.1857C13.4519 34.1857 13.9359 33.9172 14.1244 33.4459C14.2055 33.2432 14.4356 33.1446 14.6383 33.2256Z" fill="#9A9A9A"/>
<path d="M72.8274 31.9026C72.8274 38.1271 67.7814 43.1731 61.5569 43.1731C55.3324 43.1731 50.2864 38.1271 50.2864 31.9026C50.2864 25.6781 55.3324 20.6321 61.5569 20.6321C67.7814 20.6321 72.8274 25.6781 72.8274 31.9026Z" stroke="#9A9A9A" stroke-width="0.641092"/>
<path d="M59.8564 30.4424C59.8564 31.2966 59.1638 31.9892 58.3095 31.9892C57.4552 31.9892 56.7627 31.2966 56.7627 30.4424C56.7627 29.5881 57.4552 28.8955 58.3095 28.8955C59.1638 28.8955 59.8564 29.5881 59.8564 30.4424Z" fill="#9A9A9A"/>
<path d="M66.3017 30.4424C66.3017 31.2966 65.6091 31.9892 64.7549 31.9892C63.9006 31.9892 63.208 31.2966 63.208 30.4424C63.208 29.5881 63.9006 28.8955 64.7549 28.8955C65.6091 28.8955 66.3017 29.5881 66.3017 30.4424Z" fill="#9A9A9A"/>
<path fill-rule="evenodd" clip-rule="evenodd" d="M63.3507 34.9908C63.549 34.9115 63.6454 34.6864 63.5661 34.4881C63.2349 33.6602 62.4194 33.2783 61.6441 33.2783C60.8681 33.2783 60.0392 33.6576 59.6386 34.4588C59.5431 34.6498 59.6205 34.8821 59.8115 34.9776C60.0025 35.0731 60.2348 34.9957 60.3303 34.8047C60.5742 34.3169 61.0988 34.0517 61.6441 34.0517C62.1901 34.0517 62.6635 34.3143 62.848 34.7754C62.9273 34.9737 63.1524 35.0701 63.3507 34.9908Z" fill="#9A9A9A"/>
<path d="M121.685 31.9026C121.685 38.1271 116.639 43.1731 110.414 43.1731C104.19 43.1731 99.1438 38.1271 99.1438 31.9026C99.1438 25.6781 104.19 20.6321 110.414 20.6321C116.639 20.6321 121.685 25.6781 121.685 31.9026Z" stroke="#9A9A9A" stroke-width="0.641092"/>
<path fill-rule="evenodd" clip-rule="evenodd" d="M108.345 33.5062C108.345 33.2951 108.516 33.124 108.727 33.124H112.039C112.25 33.124 112.421 33.2951 112.421 33.5062C112.421 34.1306 112.162 34.6209 111.764 34.948C111.374 35.2676 110.87 35.4169 110.383 35.4169C109.895 35.4169 109.391 35.2676 109.002 34.948C108.603 34.6209 108.345 34.1306 108.345 33.5062ZM109.166 33.8883C109.23 34.087 109.345 34.2407 109.487 34.3572C109.718 34.5471 110.042 34.6526 110.383 34.6526C110.723 34.6526 111.047 34.5471 111.279 34.3572C111.421 34.2407 111.536 34.087 111.6 33.8883H109.166Z" fill="#9A9A9A"/>
<path fill-rule="evenodd" clip-rule="evenodd" d="M114.891 28.6881C115.019 28.8558 114.987 29.0956 114.82 29.2238L113.18 30.4779L114.098 30.8604C114.293 30.9415 114.385 31.1653 114.304 31.3601C114.222 31.5549 113.999 31.647 113.804 31.5659L112.275 30.929C112.149 30.8765 112.061 30.7607 112.043 30.6254C112.026 30.49 112.082 30.3556 112.19 30.2726L114.356 28.6167C114.523 28.4885 114.763 28.5205 114.891 28.6881Z" fill="#9A9A9A"/>
<path fill-rule="evenodd" clip-rule="evenodd" d="M105.877 28.6881C105.749 28.8558 105.781 29.0956 105.949 29.2238L107.589 30.4779L106.671 30.8604C106.476 30.9415 106.384 31.1653 106.465 31.3601C106.546 31.5549 106.77 31.647 106.965 31.5659L108.493 30.929C108.619 30.8765 108.708 30.7607 108.725 30.6254C108.743 30.49 108.687 30.3556 108.578 30.2726L106.413 28.6167C106.245 28.4885 106.006 28.5205 105.877 28.6881Z" fill="#9A9A9A"/>
<path d="M170.542 31.9026C170.542 38.1271 165.496 43.1731 159.272 43.1731C153.047 43.1731 148.001 38.1271 148.001 31.9026C148.001 25.6781 153.047 20.6321 159.272 20.6321C165.496 20.6321 170.542 25.6781 170.542 31.9026Z" stroke="#9A9A9A" stroke-width="0.641092"/>
<path fill-rule="evenodd" clip-rule="evenodd" d="M158.05 34.3547C158.05 34.1464 158.219 33.9775 158.427 33.9775H160.438C160.647 33.9775 160.816 34.1464 160.816 34.3547C160.816 34.563 160.647 34.7318 160.438 34.7318H158.427C158.219 34.7318 158.05 34.563 158.05 34.3547Z" fill="#9A9A9A"/>
<path d="M157.672 30.5838C157.672 31.4169 156.997 32.0924 156.164 32.0924C155.331 32.0924 154.655 31.4169 154.655 30.5838C154.655 29.7506 155.331 29.0752 156.164 29.0752C156.997 29.0752 157.672 29.7506 157.672 30.5838Z" fill="#9A9A9A"/>
<path d="M163.958 30.5838C163.958 31.4169 163.282 32.0924 162.449 32.0924C161.616 32.0924 160.94 31.4169 160.94 30.5838C160.94 29.7506 161.616 29.0752 162.449 29.0752C163.282 29.0752 163.958 29.7506 163.958 30.5838Z" fill="#9A9A9A"/>
<path d="M219.4 31.9026C219.4 38.1271 214.354 43.1731 208.129 43.1731C201.905 43.1731 196.859 38.1271 196.859 31.9026C196.859 25.6781 201.905 20.6321 208.129 20.6321C214.354 20.6321 219.4 25.6781 219.4 31.9026Z" stroke="#9A9A9A" stroke-width="0.641092"/>
<path fill-rule="evenodd" clip-rule="evenodd" d="M207.973 33.7796C208.124 33.6471 208.353 33.6547 208.495 33.797L209.116 34.4184L209.738 33.797C209.887 33.6478 210.129 33.6478 210.278 33.797L211.17 34.6887C211.319 34.8379 211.319 35.0799 211.17 35.2291C211.021 35.3783 210.779 35.3783 210.629 35.2291L210.008 34.6076L209.386 35.2291C209.237 35.3783 208.995 35.3783 208.846 35.2291L208.207 34.5902L207.457 35.2465C207.306 35.3789 207.078 35.3713 206.935 35.2291L206.314 34.6076L205.692 35.2291C205.543 35.3783 205.301 35.3783 205.152 35.2291C205.003 35.0799 205.003 34.8379 205.152 34.6887L206.044 33.797C206.193 33.6478 206.435 33.6478 206.584 33.797L207.223 34.4359L207.973 33.7796Z" fill="#9A9A9A"/>
<path fill-rule="evenodd" clip-rule="evenodd" d="M212.604 28.8683C212.732 29.0359 212.7 29.2758 212.533 29.404L210.893 30.6581L211.811 31.0405C212.005 31.1217 212.098 31.3454 212.016 31.5403C211.935 31.7351 211.711 31.8272 211.517 31.746L209.988 31.1091C209.862 31.0566 209.774 30.9409 209.756 30.8056C209.739 30.6702 209.795 30.5357 209.903 30.4528L212.068 28.7969C212.236 28.6687 212.476 28.7006 212.604 28.8683Z" fill="#9A9A9A"/>
<path fill-rule="evenodd" clip-rule="evenodd" d="M203.59 28.8683C203.462 29.0359 203.494 29.2758 203.662 29.404L205.302 30.6581L204.384 31.0405C204.189 31.1217 204.097 31.3454 204.178 31.5403C204.259 31.7351 204.483 31.8272 204.678 31.746L206.206 31.1091C206.332 31.0566 206.421 30.9409 206.438 30.8056C206.456 30.6702 206.4 30.5357 206.291 30.4528L204.126 28.7969C203.958 28.6687 203.718 28.7006 203.59 28.8683Z" fill="#9A9A9A"/>
<path d="M268.258 31.9026C268.258 38.1271 263.212 43.1731 256.988 43.1731C250.763 43.1731 245.717 38.1271 245.717 31.9026C245.717 25.6781 250.763 20.6321 256.988 20.6321C263.212 20.6321 268.258 25.6781 268.258 31.9026Z" stroke="#9A9A9A" stroke-width="0.641092"/>
<path d="M260.615 29.6008C260.615 29.0551 260.172 28.6128 259.626 28.6128C259.08 28.6128 258.638 29.0551 258.638 29.6008C258.638 29.8871 258.761 30.1422 258.955 30.3236L258.953 30.324L260.615 31.986L262.278 30.324C262.277 30.3236 262.276 30.3236 262.276 30.323C262.469 30.1417 262.592 29.8871 262.592 29.6008C262.592 29.0551 262.15 28.6128 261.604 28.6128C261.058 28.6128 260.615 29.0551 260.615 29.6008Z" fill="#9A9A9A"/>
<path d="M253.279 29.6008C253.279 29.0551 252.836 28.6128 252.29 28.6128C251.744 28.6128 251.302 29.0551 251.302 29.6008C251.302 29.8871 251.425 30.1422 251.619 30.3236L251.617 30.324L253.279 31.986L254.942 30.324C254.941 30.3236 254.941 30.3236 254.94 30.323C255.133 30.1417 255.256 29.8871 255.256 29.6008C255.256 29.0551 254.814 28.6128 254.268 28.6128C253.722 28.6128 253.279 29.0551 253.279 29.6008Z" fill="#9A9A9A"/>
<path fill-rule="evenodd" clip-rule="evenodd" d="M258.613 32.6949C258.816 32.776 258.914 33.006 258.833 33.2087C258.495 34.0551 257.661 34.4455 256.868 34.4455C256.075 34.4455 255.228 34.0578 254.818 33.2387C254.721 33.0434 254.8 32.806 254.995 32.7083C255.19 32.6107 255.428 32.6899 255.525 32.8851C255.775 33.3838 256.311 33.6549 256.868 33.6549C257.426 33.6549 257.91 33.3865 258.099 32.9151C258.18 32.7124 258.41 32.6138 258.613 32.6949Z" fill="#9A9A9A"/>
</svg>
