<svg width="264" height="693" viewBox="0 0 264 693" fill="none" xmlns="http://www.w3.org/2000/svg">
<path d="M0.304688 1.0459H263.625" stroke="#614F41" stroke-width="0.965251"/>
<path d="M0.304688 99.6946H263.625" stroke="#614F41" stroke-width="0.965251"/>
<path d="M0.304688 198.343H263.625" stroke="#614F41" stroke-width="0.965251"/>
<path d="M0.304688 296.992H263.625" stroke="#614F41" stroke-width="0.965251"/>
<path d="M0.304688 395.64H263.625" stroke="#614F41" stroke-width="0.965251"/>
<path d="M0.304688 494.289H263.625" stroke="#614F41" stroke-width="0.965251"/>
<path d="M0.304688 592.938H263.625" stroke="#614F41" stroke-width="0.965251"/>
<path d="M0.304688 691.586H263.625" stroke="#614F41" stroke-width="0.965251"/>
<path d="M3.24324 62.2005L4.57915 58.4322H5.94595V63.6445H5.15058V58.8646L3.52124 63.6445H2.95753L1.32819 58.8646V63.6445H0.532819V58.4322H1.89961L3.24324 62.2005ZM9.81347 63.7372C8.26906 63.7372 7.18026 62.6407 7.18026 61.0345C7.18026 59.436 8.26906 58.3318 9.81347 58.3318C11.3579 58.3318 12.4467 59.436 12.4467 61.0345C12.4467 62.6407 11.3579 63.7372 9.81347 63.7372ZM9.81347 63.0036C10.8945 63.0036 11.6513 62.216 11.6513 61.0345C11.6513 59.8607 10.8945 59.0654 9.81347 59.0654C8.73238 59.0654 7.97563 59.8607 7.97563 61.0345C7.97563 62.216 8.73238 63.0036 9.81347 63.0036ZM17.3016 62.5635V58.4322H18.097V63.6445H17.124L14.4677 59.4901V63.6445H13.6723V58.4322H14.6375L17.3016 62.5635Z" fill="#614F41"/>
<rect y="34.4436" width="18.1467" height="18.1467" rx="2.89575" fill="#F1EBE5"/>
<path d="M2.02962 156.988H6.37711V157.691H4.60105V162.201H3.80568V157.691H2.02962V156.988ZM9.41192 162.293C8.20729 162.293 7.31926 161.637 7.31926 160.386V156.988H8.11462V160.286C8.11462 161.104 8.62428 161.567 9.41192 161.567C10.1996 161.567 10.7092 161.104 10.7092 160.286V156.988H11.5046V160.386C11.5046 161.637 10.6166 162.293 9.41192 162.293ZM16.5086 156.988V157.691H13.6978V159.228H16.2769V159.923H13.6978V161.498H16.5086V162.201H12.9024V156.988H16.5086Z" fill="#614F41"/>
<rect x="0.304688" y="133" width="18.1467" height="18.1467" rx="2.89575" fill="#F1EBE5"/>
<path d="M5.58564 260.336L6.79799 255.888H7.62425L6.19567 261.1H5.0451L4.04896 257.108L3.05282 261.1H1.90224L0.473667 255.888H1.29992L2.50456 260.32L3.6088 255.888H4.48139L5.58564 260.336ZM12.2803 255.888V256.591H9.4695V258.127H12.0487V258.822H9.4695V260.398H12.2803V261.1H8.67414V255.888H12.2803ZM15.2704 261.1H13.5021V255.888H15.2704C17.116 255.888 18.089 256.699 18.089 258.49C18.089 260.297 17.1005 261.1 15.2704 261.1ZM14.2974 256.591V260.398H15.2704C16.5909 260.398 17.2936 259.803 17.2936 258.49C17.2936 257.162 16.56 256.591 15.2704 256.591H14.2974Z" fill="#614F41"/>
<rect x="0.304688" y="231.9" width="18.1467" height="18.1467" rx="2.89575" fill="#F1EBE5"/>
<path d="M1.61487 354.116H5.96236V354.819H4.18629V359.329H3.39093V354.819H1.61487V354.116ZM7.75392 359.329H6.95856V354.116H7.75392V356.348H10.3562V354.116H11.1516V359.329H10.3562V357.051H7.75392V359.329ZM14.6469 359.421C13.4423 359.421 12.5542 358.765 12.5542 357.514V354.116H13.3496V357.414C13.3496 358.232 13.8593 358.695 14.6469 358.695C15.4345 358.695 15.9442 358.232 15.9442 357.414V354.116H16.7396V357.514C16.7396 358.765 15.8515 359.421 14.6469 359.421Z" fill="#614F41"/>
<rect x="0.304688" y="330.128" width="18.1467" height="18.1467" rx="2.89575" fill="#F1EBE5"/>
<path d="M7.58452 453.343V454.046H4.77371V455.583H7.30653V456.278H4.77371V458.556H3.97834V453.343H7.58452ZM12.7783 458.556H11.8903L10.593 456.401H9.47328V458.556H8.67791V453.343H10.9327C12.0447 453.343 12.7397 453.768 12.7397 454.872C12.7397 455.799 12.2532 456.247 11.4424 456.363L12.7783 458.556ZM10.9018 454.046H9.47328V455.699H10.9018C11.5814 455.699 11.9443 455.49 11.9443 454.872C11.9443 454.255 11.5659 454.046 10.9018 454.046ZM14.7761 458.556H13.9808V453.343H14.7761V458.556Z" fill="#614F41"/>
<rect x="0.304688" y="429.355" width="18.1467" height="18.1467" rx="2.89575" fill="#F1EBE5"/>
<path d="M4.62434 556.876C3.44287 556.876 2.67839 556.297 2.52395 555.286L3.28843 555.1C3.40426 555.795 3.91391 556.205 4.67067 556.205C5.33476 556.205 5.72086 555.88 5.72086 555.378C5.72086 554.776 5.11082 554.645 4.43901 554.475C3.6282 554.259 2.70928 554.004 2.70928 552.946C2.70928 552.073 3.43515 551.471 4.55484 551.471C5.49692 551.471 6.30001 551.896 6.50851 552.938L5.79036 553.123C5.64364 552.421 5.1726 552.135 4.55484 552.135C3.89847 552.135 3.49692 552.444 3.49692 552.923C3.49692 553.471 4.05291 553.602 4.74789 553.772C5.56642 553.973 6.51623 554.266 6.51623 555.293C6.51623 556.274 5.85214 556.876 4.62434 556.876ZM12.2751 556.784H11.4257L10.9778 555.579H8.60714L8.15927 556.784H7.30985L9.2944 551.571H10.2905L12.2751 556.784ZM9.79633 552.374L8.85425 554.907H10.7307L9.79633 552.374ZM12.0622 551.571H16.4097V552.274H14.6336V556.784H13.8383V552.274H12.0622V551.571Z" fill="#614F41"/>
<rect x="0.304688" y="527.583" width="18.1467" height="18.1467" rx="2.89575" fill="#F1EBE5"/>
<path d="M3.72695 656.104C2.54549 656.104 1.78101 655.525 1.62657 654.514L2.39105 654.328C2.50688 655.023 3.01653 655.433 3.77329 655.433C4.43738 655.433 4.82348 655.108 4.82348 654.606C4.82348 654.004 4.21344 653.873 3.54163 653.703C2.73082 653.487 1.8119 653.232 1.8119 652.174C1.8119 651.301 2.53777 650.699 3.65746 650.699C4.59954 650.699 5.40263 651.124 5.61112 652.166L4.89298 652.351C4.74626 651.649 4.27522 651.363 3.65746 651.363C3.00109 651.363 2.59954 651.672 2.59954 652.151C2.59954 652.699 3.15553 652.83 3.85051 653C4.66904 653.201 5.61885 653.494 5.61885 654.521C5.61885 655.502 4.95475 656.104 3.72695 656.104ZM8.9293 656.104C7.72466 656.104 6.83663 655.448 6.83663 654.197V650.799H7.632V654.097C7.632 654.915 8.14165 655.379 8.9293 655.379C9.71694 655.379 10.2266 654.915 10.2266 654.097V650.799H11.022V654.197C11.022 655.448 10.1339 656.104 8.9293 656.104ZM16.0491 654.931V650.799H16.8445V656.012H15.8715L13.2151 651.857V656.012H12.4198V650.799H13.385L16.0491 654.931Z" fill="#614F41"/>
<rect x="0.304688" y="626.811" width="18.1467" height="18.1467" rx="2.89575" fill="#F1EBE5"/>
</svg>
