<svg width="271" height="239" viewBox="0 0 271 239" fill="none" xmlns="http://www.w3.org/2000/svg">
<path d="M1 156.327H270.108" stroke="#9A9A9A" stroke-width="0.19305"/>
<path d="M1 136.057H270.108" stroke="#9A9A9A" stroke-width="0.19305"/>
<path d="M1 115.594H270.108" stroke="#9A9A9A" stroke-width="0.19305"/>
<path d="M1 95.3232H270.108" stroke="#9A9A9A" stroke-width="0.19305"/>
<path d="M1 74.8599H270.108" stroke="#9A9A9A" stroke-width="0.19305"/>
<path d="M1 54.3965H270.108" stroke="#9A9A9A" stroke-width="0.19305"/>
<path d="M1 34.1265H270.108" stroke="#9A9A9A" stroke-width="0.19305"/>
<path d="M1 13.6631H270.108" stroke="#9A9A9A" stroke-width="0.19305"/>
<path d="M1 176.791H270.108" stroke="#9A9A9A" stroke-width="0.19305"/>
<path d="M1 197.254H270.108" stroke="#9A9A9A" stroke-width="0.19305"/>
<path d="M1 217.524H270.108" stroke="#9A9A9A" stroke-width="0.19305"/>
<path d="M1 237.987H270.108" stroke="#9A9A9A" stroke-width="0.19305"/>
<path d="M21.7305 13.6631V237.215" stroke="#9A9A9A" stroke-width="0.19305"/>
<path d="M1 13.6631V237.215" stroke="#9A9A9A" stroke-width="0.19305"/>
<path d="M42.4619 13.6631V237.215" stroke="#9A9A9A" stroke-width="0.19305"/>
<path d="M63.1914 13.6631V237.215" stroke="#9A9A9A" stroke-width="0.19305"/>
<path d="M83.7275 13.6631V237.215" stroke="#9A9A9A" stroke-width="0.19305"/>
<path d="M104.458 13.6631V237.215" stroke="#9A9A9A" stroke-width="0.19305"/>
<path d="M125.188 13.6631V237.215" stroke="#9A9A9A" stroke-width="0.19305"/>
<path d="M145.919 13.6631V237.215" stroke="#9A9A9A" stroke-width="0.19305"/>
<path d="M166.65 13.6631V237.215" stroke="#9A9A9A" stroke-width="0.19305"/>
<path d="M187.38 13.6631V237.215" stroke="#9A9A9A" stroke-width="0.19305"/>
<path d="M207.916 13.6631V237.215" stroke="#9A9A9A" stroke-width="0.19305"/>
<path d="M228.646 13.6631V237.215" stroke="#9A9A9A" stroke-width="0.19305"/>
<path d="M249.377 13.6631V237.215" stroke="#9A9A9A" stroke-width="0.19305"/>
<path d="M270.107 13.6631V237.215" stroke="#9A9A9A" stroke-width="0.19305"/>
<mask id="path-27-inside-1_474_20692" fill="white">
<path d="M1 13.6631H270.108V238.374H1V13.6631Z"/>
</mask>
<path d="M1 14.6282H270.108V12.6979H1V14.6282ZM270.108 237.408H1V239.339H270.108V237.408Z" fill="#333333" mask="url(#path-27-inside-1_474_20692)"/>
<path d="M5.16216 6.06882V1.93755H5.95753V7.1499H4.98456L2.32819 2.99546V7.1499H1.53282V1.93755H2.49807L5.16216 6.06882ZM9.82559 7.24257C8.28119 7.24257 7.19239 6.14604 7.19239 4.53986C7.19239 2.94141 8.28119 1.83716 9.82559 1.83716C11.37 1.83716 12.4588 2.94141 12.4588 4.53986C12.4588 6.14604 11.37 7.24257 9.82559 7.24257ZM9.82559 6.50898C10.9067 6.50898 11.6634 5.72133 11.6634 4.53986C11.6634 3.36612 10.9067 2.57075 9.82559 2.57075C8.74451 2.57075 7.98775 3.36612 7.98775 4.53986C7.98775 5.72133 8.74451 6.50898 9.82559 6.50898ZM12.9272 1.93755H17.2747V2.64025H15.4986V7.1499H14.7032V2.64025H12.9272V1.93755ZM22.0279 1.93755V2.64025H19.2171V4.17693H21.7962V4.87191H19.2171V6.4472H22.0279V7.1499H18.4217V1.93755H22.0279ZM24.9663 7.24257C23.7848 7.24257 23.0203 6.66342 22.8659 5.65183L23.6304 5.4665C23.7462 6.16149 24.2559 6.57075 25.0126 6.57075C25.6767 6.57075 26.0628 6.24643 26.0628 5.7445C26.0628 5.14218 25.4528 5.01091 24.7809 4.84102C23.9701 4.62481 23.0512 4.36998 23.0512 3.31206C23.0512 2.43948 23.7771 1.83716 24.8968 1.83716C25.8389 1.83716 26.642 2.26187 26.8504 3.30434L26.1323 3.48967C25.9856 2.78697 25.5145 2.50125 24.8968 2.50125C24.2404 2.50125 23.8389 2.81013 23.8389 3.2889C23.8389 3.83716 24.3948 3.96843 25.0898 4.13832C25.9084 4.33909 26.8582 4.63253 26.8582 5.65955C26.8582 6.64025 26.1941 7.24257 24.9663 7.24257Z" fill="#333333"/>
</svg>
