<svg width="266" height="706" viewBox="0 0 266 706" fill="none" xmlns="http://www.w3.org/2000/svg">
<mask id="path-1-inside-1_446_17968" fill="white">
<path d="M0.304688 13.8164H35.4398V704.972H0.304688V13.8164Z"/>
</mask>
<path d="M34.8607 13.8164V704.972H36.019V13.8164H34.8607Z" fill="#A0907F" mask="url(#path-1-inside-1_446_17968)"/>
<path d="M0.304688 14.0093H265.942" stroke="#614F41" stroke-width="0.965251"/>
<path d="M0.304688 32.6841H265.942" stroke="#A0907F" stroke-width="0.579151"/>
<path d="M0.304688 88.708H265.942" stroke="#A0907F" stroke-width="0.579151"/>
<path d="M0.304688 144.732H265.942" stroke="#A0907F" stroke-width="0.579151"/>
<path d="M0.304688 200.756H265.942" stroke="#A0907F" stroke-width="0.579151"/>
<path d="M0.304688 256.78H265.942" stroke="#A0907F" stroke-width="0.579151"/>
<path d="M0.304688 312.804H265.942" stroke="#A0907F" stroke-width="0.579151"/>
<path d="M0.304688 368.828H265.942" stroke="#A0907F" stroke-width="0.579151"/>
<path d="M0.304688 424.853H265.942" stroke="#A0907F" stroke-width="0.579151"/>
<path d="M0.304688 480.876H265.942" stroke="#A0907F" stroke-width="0.579151"/>
<path d="M0.304688 536.901H265.942" stroke="#A0907F" stroke-width="0.579151"/>
<path d="M0.304688 592.925H265.942" stroke="#A0907F" stroke-width="0.579151"/>
<path d="M0.304688 648.949H265.942" stroke="#A0907F" stroke-width="0.579151"/>
<path d="M0.304688 704.973H265.942" stroke="#A0907F" stroke-width="0.579151"/>
<path d="M0.304688 51.3589H265.942" stroke="#A0907F" stroke-width="0.579151"/>
<path d="M0.304688 107.383H265.942" stroke="#A0907F" stroke-width="0.579151"/>
<path d="M0.304688 163.407H265.942" stroke="#A0907F" stroke-width="0.579151"/>
<path d="M0.304688 219.431H265.942" stroke="#A0907F" stroke-width="0.579151"/>
<path d="M0.304688 275.455H265.942" stroke="#A0907F" stroke-width="0.579151"/>
<path d="M0.304688 331.479H265.942" stroke="#A0907F" stroke-width="0.579151"/>
<path d="M0.304688 387.503H265.942" stroke="#A0907F" stroke-width="0.579151"/>
<path d="M0.304688 443.527H265.942" stroke="#A0907F" stroke-width="0.579151"/>
<path d="M0.304688 499.551H265.942" stroke="#A0907F" stroke-width="0.579151"/>
<path d="M0.304688 555.575H265.942" stroke="#A0907F" stroke-width="0.579151"/>
<path d="M0.304688 611.6H265.942" stroke="#A0907F" stroke-width="0.579151"/>
<path d="M0.304688 667.624H265.942" stroke="#A0907F" stroke-width="0.579151"/>
<path d="M0.304688 70.0332H265.942" stroke="#A0907F" stroke-width="0.579151"/>
<path d="M0.304688 126.058H265.942" stroke="#A0907F" stroke-width="0.579151"/>
<path d="M0.304688 182.082H265.942" stroke="#A0907F" stroke-width="0.579151"/>
<path d="M0.304688 238.105H265.942" stroke="#A0907F" stroke-width="0.579151"/>
<path d="M0.304688 294.13H265.942" stroke="#A0907F" stroke-width="0.579151"/>
<path d="M0.304688 350.154H265.942" stroke="#A0907F" stroke-width="0.579151"/>
<path d="M0.304688 406.178H265.942" stroke="#A0907F" stroke-width="0.579151"/>
<path d="M0.304688 462.202H265.942" stroke="#A0907F" stroke-width="0.579151"/>
<path d="M0.304688 518.226H265.942" stroke="#A0907F" stroke-width="0.579151"/>
<path d="M0.304688 574.25H265.942" stroke="#A0907F" stroke-width="0.579151"/>
<path d="M0.304688 630.274H265.942" stroke="#A0907F" stroke-width="0.579151"/>
<path d="M0.304688 686.298H265.942" stroke="#A0907F" stroke-width="0.579151"/>
<path d="M0.381908 2.32036H4.7294V3.02306H2.95334V7.53271H2.15797V3.02306H0.381908V2.32036ZM7.83322 7.62538C6.28882 7.62538 5.20002 6.52885 5.20002 4.92268C5.20002 3.32422 6.28882 2.21997 7.83322 2.21997C9.37762 2.21997 10.4664 3.32422 10.4664 4.92268C10.4664 6.52885 9.37762 7.62538 7.83322 7.62538ZM7.83322 6.89179C8.9143 6.89179 9.67106 6.10414 9.67106 4.92268C9.67106 3.74893 8.9143 2.95356 7.83322 2.95356C6.75214 2.95356 5.99538 3.74893 5.99538 4.92268C5.99538 6.10414 6.75214 6.89179 7.83322 6.89179ZM13.4681 7.53271H11.6998V2.32036H13.4681C15.3137 2.32036 16.2866 3.13117 16.2866 4.92268C16.2866 6.72963 15.2982 7.53271 13.4681 7.53271ZM12.4951 3.02306V6.83001H13.4681C14.7886 6.83001 15.4913 6.23542 15.4913 4.92268C15.4913 3.59449 14.7577 3.02306 13.4681 3.02306H12.4951ZM21.8062 7.53271H20.9568L20.5089 6.32808H18.1382L17.6904 7.53271H16.8409L18.8255 2.32036H19.8216L21.8062 7.53271ZM19.3274 3.12345L18.3853 5.65627H20.2618L19.3274 3.12345ZM25.1294 2.32036H26.0561L24.2028 5.16978V7.53271H23.4074V5.15434L21.5619 2.32036H22.4808L23.809 4.39758L25.1294 2.32036ZM27.2694 4.55202H26.6825L27.115 2.32036H27.8949L27.2694 4.55202ZM30.895 7.62538C29.7135 7.62538 28.9491 7.04623 28.7946 6.03465L29.5591 5.84932C29.6749 6.5443 30.1846 6.95356 30.9413 6.95356C31.6054 6.95356 31.9915 6.62924 31.9915 6.12731C31.9915 5.52499 31.3815 5.39372 30.7097 5.22383C29.8989 5.00762 28.9799 4.75279 28.9799 3.69488C28.9799 2.82229 29.7058 2.21997 30.8255 2.21997C31.7676 2.21997 32.5707 2.64468 32.7792 3.68715L32.061 3.87248C31.9143 3.16978 31.4433 2.88407 30.8255 2.88407C30.1691 2.88407 29.7676 3.19295 29.7676 3.67171C29.7676 4.21997 30.3236 4.35125 31.0186 4.52113C31.8371 4.7219 32.7869 5.01534 32.7869 6.04237C32.7869 7.02306 32.1228 7.62538 30.895 7.62538ZM38.2731 7.62538C37.0917 7.62538 36.3272 7.04623 36.1727 6.03465L36.9372 5.84932C37.0531 6.5443 37.5627 6.95356 38.3195 6.95356C38.9836 6.95356 39.3697 6.62924 39.3697 6.12731C39.3697 5.52499 38.7596 5.39372 38.0878 5.22383C37.277 5.00762 36.3581 4.75279 36.3581 3.69488C36.3581 2.82229 37.0839 2.21997 38.2036 2.21997C39.1457 2.21997 39.9488 2.64468 40.1573 3.68715L39.4392 3.87248C39.2924 3.16978 38.8214 2.88407 38.2036 2.88407C37.5473 2.88407 37.1457 3.19295 37.1457 3.67171C37.1457 4.21997 37.7017 4.35125 38.3967 4.52113C39.2152 4.7219 40.165 5.01534 40.165 6.04237C40.165 7.02306 39.5009 7.62538 38.2731 7.62538ZM43.8461 7.62538C42.3017 7.62538 41.2129 6.52885 41.2129 4.92268C41.2129 3.32422 42.3017 2.21997 43.8461 2.21997C45.1203 2.21997 46.0855 2.97673 46.3712 4.13503L45.6068 4.32808C45.4214 3.55588 44.8037 2.95356 43.8461 2.95356C42.7651 2.95356 42.0083 3.74893 42.0083 4.92268C42.0083 6.10414 42.7651 6.89179 43.8461 6.89179C44.5874 6.89179 45.182 6.51341 45.46 5.88793L46.2013 6.16592C45.8152 7.06167 44.9427 7.62538 43.8461 7.62538ZM48.3495 7.53271H47.5541V2.32036H48.3495V4.55202H50.9518V2.32036H51.7472V7.53271H50.9518V5.25472H48.3495V7.53271ZM56.8101 2.32036V3.02306H53.9992V4.55974H56.5784V5.25472H53.9992V6.83001H56.8101V7.53271H53.2039V2.32036H56.8101ZM59.8002 7.53271H58.0318V2.32036H59.8002C61.6457 2.32036 62.6187 3.13117 62.6187 4.92268C62.6187 6.72963 61.6303 7.53271 59.8002 7.53271ZM58.8272 3.02306V6.83001H59.8002C61.1206 6.83001 61.8233 6.23542 61.8233 4.92268C61.8233 3.59449 61.0897 3.02306 59.8002 3.02306H58.8272ZM65.901 7.62538C64.6963 7.62538 63.8083 6.96901 63.8083 5.71804V2.32036H64.6037V5.61766C64.6037 6.43619 65.1133 6.89951 65.901 6.89951C66.6886 6.89951 67.1983 6.43619 67.1983 5.61766V2.32036H67.9936V5.71804C67.9936 6.96901 67.1056 7.62538 65.901 7.62538ZM72.8432 7.53271H69.3914V2.32036H70.1868V6.83001H72.8432V7.53271ZM77.5614 2.32036V3.02306H74.7506V4.55974H77.3298V5.25472H74.7506V6.83001H77.5614V7.53271H73.9553V2.32036H77.5614Z" fill="#614F41"/>
<path d="M9.86057 26.1078C8.70227 26.1078 8.06135 25.212 8.06135 23.4051C8.06135 21.5904 8.69455 20.7024 9.86057 20.7024C11.0189 20.7024 11.6598 21.5904 11.6598 23.4051C11.6598 25.2043 11.0189 26.1078 9.86057 26.1078ZM9.86057 25.4205C10.5169 25.4205 10.8953 24.7796 10.8953 23.4051C10.8953 22.0229 10.5247 21.3974 9.86057 21.3974C9.19648 21.3974 8.82582 22.0151 8.82582 23.4051C8.82582 24.7873 9.2042 25.4205 9.86057 25.4205ZM13.7269 22.6947H14.5145C15.6342 22.6947 16.3446 23.212 16.3446 24.3086C16.3446 25.4051 15.6342 26.1078 14.5609 26.1078C13.4489 26.1078 12.7385 25.4669 12.7385 24.4244V24.2159H13.4952V24.3626C13.4952 25.0267 13.8813 25.4205 14.5763 25.4205C15.2018 25.4205 15.5802 24.9804 15.5802 24.3549C15.5802 23.5364 14.9238 23.3279 14.2751 23.3279H12.9161L13.1709 20.8028H16.113V21.4823H13.8582L13.7269 22.6947ZM18.35 23.3124H17.5855V22.2236H18.35V23.3124ZM18.35 26.0151H17.5855V24.9186H18.35V26.0151ZM21.4179 26.1078C20.2596 26.1078 19.6187 25.212 19.6187 23.4051C19.6187 21.5904 20.2519 20.7024 21.4179 20.7024C22.5762 20.7024 23.2172 21.5904 23.2172 23.4051C23.2172 25.2043 22.5762 26.1078 21.4179 26.1078ZM21.4179 25.4205C22.0743 25.4205 22.4527 24.7796 22.4527 23.4051C22.4527 22.0229 22.082 21.3974 21.4179 21.3974C20.7539 21.3974 20.3832 22.0151 20.3832 23.4051C20.3832 24.7873 20.7616 25.4205 21.4179 25.4205ZM26.0873 26.1078C24.929 26.1078 24.2881 25.212 24.2881 23.4051C24.2881 21.5904 24.9213 20.7024 26.0873 20.7024C27.2456 20.7024 27.8866 21.5904 27.8866 23.4051C27.8866 25.2043 27.2456 26.1078 26.0873 26.1078ZM26.0873 25.4205C26.7437 25.4205 27.1221 24.7796 27.1221 23.4051C27.1221 22.0229 26.7514 21.3974 26.0873 21.3974C25.4233 21.3974 25.0526 22.0151 25.0526 23.4051C25.0526 24.7873 25.431 25.4205 26.0873 25.4205Z" fill="#614F41"/>
<path d="M9.86057 44.7821C8.70227 44.7821 8.06135 43.8864 8.06135 42.0794C8.06135 40.2647 8.69455 39.3767 9.86057 39.3767C11.0189 39.3767 11.6598 40.2647 11.6598 42.0794C11.6598 43.8786 11.0189 44.7821 9.86057 44.7821ZM9.86057 44.0949C10.5169 44.0949 10.8953 43.4539 10.8953 42.0794C10.8953 40.6972 10.5247 40.0717 9.86057 40.0717C9.19648 40.0717 8.82582 40.6895 8.82582 42.0794C8.82582 43.4617 9.2042 44.0949 9.86057 44.0949ZM13.7269 41.369H14.5145C15.6342 41.369 16.3446 41.8864 16.3446 42.9829C16.3446 44.0794 15.6342 44.7821 14.5609 44.7821C13.4489 44.7821 12.7385 44.1412 12.7385 43.0987V42.8902H13.4952V43.0369C13.4952 43.701 13.8813 44.0949 14.5763 44.0949C15.2018 44.0949 15.5802 43.6547 15.5802 43.0292C15.5802 42.2107 14.9238 42.0022 14.2751 42.0022H12.9161L13.1709 39.4771H16.113V40.1566H13.8582L13.7269 41.369ZM18.35 41.9868H17.5855V40.8979H18.35V41.9868ZM18.35 44.6895H17.5855V43.5929H18.35V44.6895ZM21.4566 44.7821C20.2828 44.7821 19.5956 44.1412 19.5956 43.0524H20.3755C20.3832 43.7088 20.7847 44.0949 21.4411 44.0949C22.0357 44.0949 22.445 43.7319 22.445 43.1837C22.445 42.62 22.0512 42.257 21.3639 42.257H21.1554V41.6238H21.3021C21.8581 41.6238 22.2056 41.2995 22.2056 40.813C22.2056 40.3574 21.8813 40.0562 21.3948 40.0562C20.8774 40.0562 20.5145 40.4037 20.5145 40.952C20.5145 41.0292 20.5222 41.1142 20.5376 41.1991L19.7809 41.2377C19.7577 41.1219 19.75 41.0138 19.75 40.9134C19.75 39.9945 20.4064 39.3767 21.4025 39.3767C22.3446 39.3767 22.9469 39.9713 22.9469 40.7281C22.9469 41.3227 22.5762 41.7165 22.1901 41.8632C22.7539 41.9945 23.2249 42.4269 23.2249 43.1837C23.2249 44.118 22.5145 44.7821 21.4566 44.7821ZM26.0873 44.7821C24.929 44.7821 24.2881 43.8864 24.2881 42.0794C24.2881 40.2647 24.9213 39.3767 26.0873 39.3767C27.2456 39.3767 27.8866 40.2647 27.8866 42.0794C27.8866 43.8786 27.2456 44.7821 26.0873 44.7821ZM26.0873 44.0949C26.7437 44.0949 27.1221 43.4539 27.1221 42.0794C27.1221 40.6972 26.7514 40.0717 26.0873 40.0717C25.4233 40.0717 25.0526 40.6895 25.0526 42.0794C25.0526 43.4617 25.431 44.0949 26.0873 44.0949Z" fill="#614F41"/>
<path d="M9.86057 63.4574C8.70227 63.4574 8.06135 62.5617 8.06135 60.7547C8.06135 58.94 8.69455 58.052 9.86057 58.052C11.0189 58.052 11.6598 58.94 11.6598 60.7547C11.6598 62.5539 11.0189 63.4574 9.86057 63.4574ZM9.86057 62.7702C10.5169 62.7702 10.8953 62.1292 10.8953 60.7547C10.8953 59.3725 10.5247 58.747 9.86057 58.747C9.19648 58.747 8.82582 59.3647 8.82582 60.7547C8.82582 62.1369 9.2042 62.7702 9.86057 62.7702ZM14.6844 59.8744C15.6265 59.8744 16.391 60.6003 16.391 61.6273C16.391 62.662 15.5493 63.4574 14.5145 63.4574C13.4643 63.4574 12.669 62.6312 12.669 61.6196C12.669 61.164 12.8234 60.7315 13.14 60.3377L14.8852 58.1524H15.8118L14.391 59.8976C14.4914 59.8821 14.584 59.8744 14.6844 59.8744ZM15.6419 61.6119C15.6497 60.9555 15.1941 60.4381 14.5068 60.4381C13.8427 60.4381 13.3948 60.9323 13.3871 61.5964C13.3717 62.2373 13.8118 62.7702 14.4991 62.7702C15.1632 62.7702 15.6342 62.2528 15.6419 61.6119ZM18.35 60.662H17.5855V59.5732H18.35V60.662ZM18.35 63.3647H17.5855V62.2682H18.35V63.3647ZM21.4179 63.4574C20.2596 63.4574 19.6187 62.5617 19.6187 60.7547C19.6187 58.94 20.2519 58.052 21.4179 58.052C22.5762 58.052 23.2172 58.94 23.2172 60.7547C23.2172 62.5539 22.5762 63.4574 21.4179 63.4574ZM21.4179 62.7702C22.0743 62.7702 22.4527 62.1292 22.4527 60.7547C22.4527 59.3725 22.082 58.747 21.4179 58.747C20.7539 58.747 20.3832 59.3647 20.3832 60.7547C20.3832 62.1369 20.7616 62.7702 21.4179 62.7702ZM26.0873 63.4574C24.929 63.4574 24.2881 62.5617 24.2881 60.7547C24.2881 58.94 24.9213 58.052 26.0873 58.052C27.2456 58.052 27.8866 58.94 27.8866 60.7547C27.8866 62.5539 27.2456 63.4574 26.0873 63.4574ZM26.0873 62.7702C26.7437 62.7702 27.1221 62.1292 27.1221 60.7547C27.1221 59.3725 26.7514 58.747 26.0873 58.747C25.4233 58.747 25.0526 59.3647 25.0526 60.7547C25.0526 62.1369 25.431 62.7702 26.0873 62.7702Z" fill="#614F41"/>
<path d="M9.86057 82.1317C8.70227 82.1317 8.06135 81.236 8.06135 79.429C8.06135 77.6144 8.69455 76.7263 9.86057 76.7263C11.0189 76.7263 11.6598 77.6144 11.6598 79.429C11.6598 81.2283 11.0189 82.1317 9.86057 82.1317ZM9.86057 81.4445C10.5169 81.4445 10.8953 80.8035 10.8953 79.429C10.8953 78.0468 10.5247 77.4213 9.86057 77.4213C9.19648 77.4213 8.82582 78.0391 8.82582 79.429C8.82582 80.8113 9.2042 81.4445 9.86057 81.4445ZM14.6844 78.5487C15.6265 78.5487 16.391 79.2746 16.391 80.3016C16.391 81.3364 15.5493 82.1317 14.5145 82.1317C13.4643 82.1317 12.669 81.3055 12.669 80.2939C12.669 79.8383 12.8234 79.4059 13.14 79.012L14.8852 76.8267H15.8118L14.391 78.5719C14.4914 78.5564 14.584 78.5487 14.6844 78.5487ZM15.6419 80.2862C15.6497 79.6298 15.1941 79.1124 14.5068 79.1124C13.8427 79.1124 13.3948 79.6066 13.3871 80.2707C13.3717 80.9116 13.8118 81.4445 14.4991 81.4445C15.1632 81.4445 15.6342 80.9271 15.6419 80.2862ZM18.35 79.3364H17.5855V78.2476H18.35V79.3364ZM18.35 82.0391H17.5855V80.9425H18.35V82.0391ZM21.4566 82.1317C20.2828 82.1317 19.5956 81.4908 19.5956 80.402H20.3755C20.3832 81.0584 20.7847 81.4445 21.4411 81.4445C22.0357 81.4445 22.445 81.0815 22.445 80.5333C22.445 79.9696 22.0512 79.6066 21.3639 79.6066H21.1554V78.9734H21.3021C21.8581 78.9734 22.2056 78.6491 22.2056 78.1626C22.2056 77.707 21.8813 77.4059 21.3948 77.4059C20.8774 77.4059 20.5145 77.7533 20.5145 78.3016C20.5145 78.3788 20.5222 78.4638 20.5376 78.5487L19.7809 78.5873C19.7577 78.4715 19.75 78.3634 19.75 78.263C19.75 77.3441 20.4064 76.7263 21.4025 76.7263C22.3446 76.7263 22.9469 77.3209 22.9469 78.0777C22.9469 78.6723 22.5762 79.0661 22.1901 79.2128C22.7539 79.3441 23.2249 79.7765 23.2249 80.5333C23.2249 81.4676 22.5145 82.1317 21.4566 82.1317ZM26.0873 82.1317C24.929 82.1317 24.2881 81.236 24.2881 79.429C24.2881 77.6144 24.9213 76.7263 26.0873 76.7263C27.2456 76.7263 27.8866 77.6144 27.8866 79.429C27.8866 81.2283 27.2456 82.1317 26.0873 82.1317ZM26.0873 81.4445C26.7437 81.4445 27.1221 80.8035 27.1221 79.429C27.1221 78.0468 26.7514 77.4213 26.0873 77.4213C25.4233 77.4213 25.0526 78.0391 25.0526 79.429C25.0526 80.8113 25.431 81.4445 26.0873 81.4445Z" fill="#614F41"/>
<path d="M9.86057 100.807C8.70227 100.807 8.06135 99.9108 8.06135 98.1038C8.06135 96.2892 8.69455 95.4011 9.86057 95.4011C11.0189 95.4011 11.6598 96.2892 11.6598 98.1038C11.6598 99.9031 11.0189 100.807 9.86057 100.807ZM9.86057 100.119C10.5169 100.119 10.8953 99.4783 10.8953 98.1038C10.8953 96.7216 10.5247 96.0961 9.86057 96.0961C9.19648 96.0961 8.82582 96.7139 8.82582 98.1038C8.82582 99.4861 9.2042 100.119 9.86057 100.119ZM12.723 96.181V95.5015H16.3446V96.181L13.8041 100.714H12.9238L15.5107 96.181H12.723ZM18.35 98.0112H17.5855V96.9224H18.35V98.0112ZM18.35 100.714H17.5855V99.6173H18.35V100.714ZM21.4179 100.807C20.2596 100.807 19.6187 99.9108 19.6187 98.1038C19.6187 96.2892 20.2519 95.4011 21.4179 95.4011C22.5762 95.4011 23.2172 96.2892 23.2172 98.1038C23.2172 99.9031 22.5762 100.807 21.4179 100.807ZM21.4179 100.119C22.0743 100.119 22.4527 99.4783 22.4527 98.1038C22.4527 96.7216 22.082 96.0961 21.4179 96.0961C20.7539 96.0961 20.3832 96.7139 20.3832 98.1038C20.3832 99.4861 20.7616 100.119 21.4179 100.119ZM26.0873 100.807C24.929 100.807 24.2881 99.9108 24.2881 98.1038C24.2881 96.2892 24.9213 95.4011 26.0873 95.4011C27.2456 95.4011 27.8866 96.2892 27.8866 98.1038C27.8866 99.9031 27.2456 100.807 26.0873 100.807ZM26.0873 100.119C26.7437 100.119 27.1221 99.4783 27.1221 98.1038C27.1221 96.7216 26.7514 96.0961 26.0873 96.0961C25.4233 96.0961 25.0526 96.7139 25.0526 98.1038C25.0526 99.4861 25.431 100.119 26.0873 100.119Z" fill="#614F41"/>
<path d="M9.86057 119.481C8.70227 119.481 8.06135 118.585 8.06135 116.778C8.06135 114.963 8.69455 114.075 9.86057 114.075C11.0189 114.075 11.6598 114.963 11.6598 116.778C11.6598 118.577 11.0189 119.481 9.86057 119.481ZM9.86057 118.794C10.5169 118.794 10.8953 118.153 10.8953 116.778C10.8953 115.396 10.5247 114.77 9.86057 114.77C9.19648 114.77 8.82582 115.388 8.82582 116.778C8.82582 118.16 9.2042 118.794 9.86057 118.794ZM12.723 114.855V114.176H16.3446V114.855L13.8041 119.388H12.9238L15.5107 114.855H12.723ZM18.35 116.685H17.5855V115.597H18.35V116.685ZM18.35 119.388H17.5855V118.292H18.35V119.388ZM21.4566 119.481C20.2828 119.481 19.5956 118.84 19.5956 117.751H20.3755C20.3832 118.407 20.7847 118.794 21.4411 118.794C22.0357 118.794 22.445 118.431 22.445 117.882C22.445 117.319 22.0512 116.956 21.3639 116.956H21.1554V116.323H21.3021C21.8581 116.323 22.2056 115.998 22.2056 115.512C22.2056 115.056 21.8813 114.755 21.3948 114.755C20.8774 114.755 20.5145 115.102 20.5145 115.651C20.5145 115.728 20.5222 115.813 20.5376 115.898L19.7809 115.936C19.7577 115.821 19.75 115.713 19.75 115.612C19.75 114.693 20.4064 114.075 21.4025 114.075C22.3446 114.075 22.9469 114.67 22.9469 115.427C22.9469 116.021 22.5762 116.415 22.1901 116.562C22.7539 116.693 23.2249 117.126 23.2249 117.882C23.2249 118.817 22.5145 119.481 21.4566 119.481ZM26.0873 119.481C24.929 119.481 24.2881 118.585 24.2881 116.778C24.2881 114.963 24.9213 114.075 26.0873 114.075C27.2456 114.075 27.8866 114.963 27.8866 116.778C27.8866 118.577 27.2456 119.481 26.0873 119.481ZM26.0873 118.794C26.7437 118.794 27.1221 118.153 27.1221 116.778C27.1221 115.396 26.7514 114.77 26.0873 114.77C25.4233 114.77 25.0526 115.388 25.0526 116.778C25.0526 118.16 25.431 118.794 26.0873 118.794Z" fill="#614F41"/>
<path d="M9.86057 138.156C8.70227 138.156 8.06135 137.26 8.06135 135.453C8.06135 133.639 8.69455 132.751 9.86057 132.751C11.0189 132.751 11.6598 133.639 11.6598 135.453C11.6598 137.253 11.0189 138.156 9.86057 138.156ZM9.86057 137.469C10.5169 137.469 10.8953 136.828 10.8953 135.453C10.8953 134.071 10.5247 133.446 9.86057 133.446C9.19648 133.446 8.82582 134.063 8.82582 135.453C8.82582 136.836 9.2042 137.469 9.86057 137.469ZM14.5223 138.156C13.4875 138.156 12.723 137.523 12.723 136.581C12.723 135.955 13.0705 135.469 13.6188 135.237C13.2018 135.021 12.9315 134.619 12.9315 134.125C12.9315 133.33 13.6033 132.751 14.5223 132.751C15.4335 132.751 16.1053 133.338 16.1053 134.125C16.1053 134.619 15.835 135.013 15.4335 135.237C15.9817 135.477 16.3215 135.963 16.3215 136.581C16.3215 137.523 15.557 138.156 14.5223 138.156ZM14.5223 135.013C15.0165 135.013 15.3794 134.658 15.3794 134.195C15.3794 133.739 15.0087 133.407 14.5223 133.407C14.028 133.407 13.6651 133.739 13.6651 134.195C13.6651 134.666 14.028 135.013 14.5223 135.013ZM14.5223 137.469C15.1168 137.469 15.557 137.067 15.557 136.496C15.557 135.917 15.1246 135.538 14.5223 135.538C13.9199 135.538 13.4875 135.917 13.4875 136.496C13.4875 137.067 13.9277 137.469 14.5223 137.469ZM18.35 135.361H17.5855V134.272H18.35V135.361ZM18.35 138.063H17.5855V136.967H18.35V138.063ZM21.4179 138.156C20.2596 138.156 19.6187 137.26 19.6187 135.453C19.6187 133.639 20.2519 132.751 21.4179 132.751C22.5762 132.751 23.2172 133.639 23.2172 135.453C23.2172 137.253 22.5762 138.156 21.4179 138.156ZM21.4179 137.469C22.0743 137.469 22.4527 136.828 22.4527 135.453C22.4527 134.071 22.082 133.446 21.4179 133.446C20.7539 133.446 20.3832 134.063 20.3832 135.453C20.3832 136.836 20.7616 137.469 21.4179 137.469ZM26.0873 138.156C24.929 138.156 24.2881 137.26 24.2881 135.453C24.2881 133.639 24.9213 132.751 26.0873 132.751C27.2456 132.751 27.8866 133.639 27.8866 135.453C27.8866 137.253 27.2456 138.156 26.0873 138.156ZM26.0873 137.469C26.7437 137.469 27.1221 136.828 27.1221 135.453C27.1221 134.071 26.7514 133.446 26.0873 133.446C25.4233 133.446 25.0526 134.063 25.0526 135.453C25.0526 136.836 25.431 137.469 26.0873 137.469Z" fill="#614F41"/>
<path d="M9.86057 156.83C8.70227 156.83 8.06135 155.935 8.06135 154.128C8.06135 152.313 8.69455 151.425 9.86057 151.425C11.0189 151.425 11.6598 152.313 11.6598 154.128C11.6598 155.927 11.0189 156.83 9.86057 156.83ZM9.86057 156.143C10.5169 156.143 10.8953 155.502 10.8953 154.128C10.8953 152.746 10.5247 152.12 9.86057 152.12C9.19648 152.12 8.82582 152.738 8.82582 154.128C8.82582 155.51 9.2042 156.143 9.86057 156.143ZM14.5223 156.83C13.4875 156.83 12.723 156.197 12.723 155.255C12.723 154.63 13.0705 154.143 13.6188 153.912C13.2018 153.695 12.9315 153.294 12.9315 152.8C12.9315 152.004 13.6033 151.425 14.5223 151.425C15.4335 151.425 16.1053 152.012 16.1053 152.8C16.1053 153.294 15.835 153.688 15.4335 153.912C15.9817 154.151 16.3215 154.637 16.3215 155.255C16.3215 156.197 15.557 156.83 14.5223 156.83ZM14.5223 153.688C15.0165 153.688 15.3794 153.332 15.3794 152.869C15.3794 152.413 15.0087 152.081 14.5223 152.081C14.028 152.081 13.6651 152.413 13.6651 152.869C13.6651 153.34 14.028 153.688 14.5223 153.688ZM14.5223 156.143C15.1168 156.143 15.557 155.742 15.557 155.17C15.557 154.591 15.1246 154.213 14.5223 154.213C13.9199 154.213 13.4875 154.591 13.4875 155.17C13.4875 155.742 13.9277 156.143 14.5223 156.143ZM18.35 154.035H17.5855V152.946H18.35V154.035ZM18.35 156.738H17.5855V155.641H18.35V156.738ZM21.4566 156.83C20.2828 156.83 19.5956 156.19 19.5956 155.101H20.3755C20.3832 155.757 20.7847 156.143 21.4411 156.143C22.0357 156.143 22.445 155.78 22.445 155.232C22.445 154.668 22.0512 154.305 21.3639 154.305H21.1554V153.672H21.3021C21.8581 153.672 22.2056 153.348 22.2056 152.861C22.2056 152.406 21.8813 152.105 21.3948 152.105C20.8774 152.105 20.5145 152.452 20.5145 153C20.5145 153.078 20.5222 153.163 20.5376 153.247L19.7809 153.286C19.7577 153.17 19.75 153.062 19.75 152.962C19.75 152.043 20.4064 151.425 21.4025 151.425C22.3446 151.425 22.9469 152.02 22.9469 152.776C22.9469 153.371 22.5762 153.765 22.1901 153.912C22.7539 154.043 23.2249 154.475 23.2249 155.232C23.2249 156.166 22.5145 156.83 21.4566 156.83ZM26.0873 156.83C24.929 156.83 24.2881 155.935 24.2881 154.128C24.2881 152.313 24.9213 151.425 26.0873 151.425C27.2456 151.425 27.8866 152.313 27.8866 154.128C27.8866 155.927 27.2456 156.83 26.0873 156.83ZM26.0873 156.143C26.7437 156.143 27.1221 155.502 27.1221 154.128C27.1221 152.746 26.7514 152.12 26.0873 152.12C25.4233 152.12 25.0526 152.738 25.0526 154.128C25.0526 155.51 25.431 156.143 26.0873 156.143Z" fill="#614F41"/>
<path d="M9.86057 175.505C8.70227 175.505 8.06135 174.61 8.06135 172.803C8.06135 170.988 8.69455 170.1 9.86057 170.1C11.0189 170.1 11.6598 170.988 11.6598 172.803C11.6598 174.602 11.0189 175.505 9.86057 175.505ZM9.86057 174.818C10.5169 174.818 10.8953 174.177 10.8953 172.803C10.8953 171.42 10.5247 170.795 9.86057 170.795C9.19648 170.795 8.82582 171.413 8.82582 172.803C8.82582 174.185 9.2042 174.818 9.86057 174.818ZM14.5609 170.108C15.6111 170.108 16.4064 170.934 16.4064 171.945C16.4064 172.401 16.252 172.826 15.9354 173.227L14.1902 175.413H13.2636L14.6767 173.667C14.584 173.683 14.4836 173.691 14.391 173.691C13.4489 173.691 12.6844 172.957 12.6844 171.93C12.6844 170.903 13.5261 170.108 14.5609 170.108ZM15.6883 171.969C15.7037 171.328 15.2636 170.787 14.5763 170.787C13.9122 170.787 13.4412 171.312 13.4335 171.945C13.4257 172.602 13.8813 173.127 14.5686 173.127C15.2327 173.127 15.6806 172.625 15.6883 171.969ZM18.35 172.71H17.5855V171.621H18.35V172.71ZM18.35 175.413H17.5855V174.316H18.35V175.413ZM21.4179 175.505C20.2596 175.505 19.6187 174.61 19.6187 172.803C19.6187 170.988 20.2519 170.1 21.4179 170.1C22.5762 170.1 23.2172 170.988 23.2172 172.803C23.2172 174.602 22.5762 175.505 21.4179 175.505ZM21.4179 174.818C22.0743 174.818 22.4527 174.177 22.4527 172.803C22.4527 171.42 22.082 170.795 21.4179 170.795C20.7539 170.795 20.3832 171.413 20.3832 172.803C20.3832 174.185 20.7616 174.818 21.4179 174.818ZM26.0873 175.505C24.929 175.505 24.2881 174.61 24.2881 172.803C24.2881 170.988 24.9213 170.1 26.0873 170.1C27.2456 170.1 27.8866 170.988 27.8866 172.803C27.8866 174.602 27.2456 175.505 26.0873 175.505ZM26.0873 174.818C26.7437 174.818 27.1221 174.177 27.1221 172.803C27.1221 171.42 26.7514 170.795 26.0873 170.795C25.4233 170.795 25.0526 171.413 25.0526 172.803C25.0526 174.185 25.431 174.818 26.0873 174.818Z" fill="#614F41"/>
<path d="M9.86057 194.18C8.70227 194.18 8.06135 193.284 8.06135 191.477C8.06135 189.662 8.69455 188.774 9.86057 188.774C11.0189 188.774 11.6598 189.662 11.6598 191.477C11.6598 193.276 11.0189 194.18 9.86057 194.18ZM9.86057 193.492C10.5169 193.492 10.8953 192.851 10.8953 191.477C10.8953 190.095 10.5247 189.469 9.86057 189.469C9.19648 189.469 8.82582 190.087 8.82582 191.477C8.82582 192.859 9.2042 193.492 9.86057 193.492ZM14.5609 188.782C15.6111 188.782 16.4064 189.608 16.4064 190.62C16.4064 191.075 16.252 191.5 15.9354 191.902L14.1902 194.087H13.2636L14.6767 192.342C14.584 192.357 14.4836 192.365 14.391 192.365C13.4489 192.365 12.6844 191.631 12.6844 190.604C12.6844 189.577 13.5261 188.782 14.5609 188.782ZM15.6883 190.643C15.7037 190.002 15.2636 189.461 14.5763 189.461C13.9122 189.461 13.4412 189.987 13.4335 190.62C13.4257 191.276 13.8813 191.801 14.5686 191.801C15.2327 191.801 15.6806 191.299 15.6883 190.643ZM18.35 191.384H17.5855V190.295H18.35V191.384ZM18.35 194.087H17.5855V192.99H18.35V194.087ZM21.4566 194.18C20.2828 194.18 19.5956 193.539 19.5956 192.45H20.3755C20.3832 193.106 20.7847 193.492 21.4411 193.492C22.0357 193.492 22.445 193.129 22.445 192.581C22.445 192.017 22.0512 191.654 21.3639 191.654H21.1554V191.021H21.3021C21.8581 191.021 22.2056 190.697 22.2056 190.21C22.2056 189.755 21.8813 189.454 21.3948 189.454C20.8774 189.454 20.5145 189.801 20.5145 190.349C20.5145 190.427 20.5222 190.512 20.5376 190.597L19.7809 190.635C19.7577 190.519 19.75 190.411 19.75 190.311C19.75 189.392 20.4064 188.774 21.4025 188.774C22.3446 188.774 22.9469 189.369 22.9469 190.126C22.9469 190.72 22.5762 191.114 22.1901 191.261C22.7539 191.392 23.2249 191.824 23.2249 192.581C23.2249 193.515 22.5145 194.18 21.4566 194.18ZM26.0873 194.18C24.929 194.18 24.2881 193.284 24.2881 191.477C24.2881 189.662 24.9213 188.774 26.0873 188.774C27.2456 188.774 27.8866 189.662 27.8866 191.477C27.8866 193.276 27.2456 194.18 26.0873 194.18ZM26.0873 193.492C26.7437 193.492 27.1221 192.851 27.1221 191.477C27.1221 190.095 26.7514 189.469 26.0873 189.469C25.4233 189.469 25.0526 190.087 25.0526 191.477C25.0526 192.859 25.431 193.492 26.0873 193.492Z" fill="#614F41"/>
<path d="M9.87602 208.021V207.55H10.6405V212.762H9.87602V208.932H8.63277V208.291H9.60575C9.77563 208.291 9.87602 208.191 9.87602 208.021ZM14.53 212.855C13.3717 212.855 12.7307 211.959 12.7307 210.152C12.7307 208.337 13.364 207.449 14.53 207.449C15.6883 207.449 16.3292 208.337 16.3292 210.152C16.3292 211.951 15.6883 212.855 14.53 212.855ZM14.53 212.168C15.1863 212.168 15.5647 211.527 15.5647 210.152C15.5647 208.77 15.1941 208.144 14.53 208.144C13.8659 208.144 13.4952 208.762 13.4952 210.152C13.4952 211.534 13.8736 212.168 14.53 212.168ZM18.35 210.06H17.5855V208.971H18.35V210.06ZM18.35 212.762H17.5855V211.666H18.35V212.762ZM21.4179 212.855C20.2596 212.855 19.6187 211.959 19.6187 210.152C19.6187 208.337 20.2519 207.449 21.4179 207.449C22.5762 207.449 23.2172 208.337 23.2172 210.152C23.2172 211.951 22.5762 212.855 21.4179 212.855ZM21.4179 212.168C22.0743 212.168 22.4527 211.527 22.4527 210.152C22.4527 208.77 22.082 208.144 21.4179 208.144C20.7539 208.144 20.3832 208.762 20.3832 210.152C20.3832 211.534 20.7616 212.168 21.4179 212.168ZM26.0873 212.855C24.929 212.855 24.2881 211.959 24.2881 210.152C24.2881 208.337 24.9213 207.449 26.0873 207.449C27.2456 207.449 27.8866 208.337 27.8866 210.152C27.8866 211.951 27.2456 212.855 26.0873 212.855ZM26.0873 212.168C26.7437 212.168 27.1221 211.527 27.1221 210.152C27.1221 208.77 26.7514 208.144 26.0873 208.144C25.4233 208.144 25.0526 208.762 25.0526 210.152C25.0526 211.534 25.431 212.168 26.0873 212.168Z" fill="#614F41"/>
<path d="M9.87602 226.695V226.224H10.6405V231.437H9.87602V227.606H8.63277V226.965H9.60575C9.77563 226.965 9.87602 226.865 9.87602 226.695ZM14.53 231.529C13.3717 231.529 12.7307 230.633 12.7307 228.826C12.7307 227.012 13.364 226.124 14.53 226.124C15.6883 226.124 16.3292 227.012 16.3292 228.826C16.3292 230.626 15.6883 231.529 14.53 231.529ZM14.53 230.842C15.1863 230.842 15.5647 230.201 15.5647 228.826C15.5647 227.444 15.1941 226.819 14.53 226.819C13.8659 226.819 13.4952 227.437 13.4952 228.826C13.4952 230.209 13.8736 230.842 14.53 230.842ZM18.35 228.734H17.5855V227.645H18.35V228.734ZM18.35 231.437H17.5855V230.34H18.35V231.437ZM21.4566 231.529C20.2828 231.529 19.5956 230.888 19.5956 229.799H20.3755C20.3832 230.456 20.7847 230.842 21.4411 230.842C22.0357 230.842 22.445 230.479 22.445 229.931C22.445 229.367 22.0512 229.004 21.3639 229.004H21.1554V228.371H21.3021C21.8581 228.371 22.2056 228.047 22.2056 227.56C22.2056 227.104 21.8813 226.803 21.3948 226.803C20.8774 226.803 20.5145 227.151 20.5145 227.699C20.5145 227.776 20.5222 227.861 20.5376 227.946L19.7809 227.985C19.7577 227.869 19.75 227.761 19.75 227.66C19.75 226.742 20.4064 226.124 21.4025 226.124C22.3446 226.124 22.9469 226.718 22.9469 227.475C22.9469 228.07 22.5762 228.464 22.1901 228.61C22.7539 228.742 23.2249 229.174 23.2249 229.931C23.2249 230.865 22.5145 231.529 21.4566 231.529ZM26.0873 231.529C24.929 231.529 24.2881 230.633 24.2881 228.826C24.2881 227.012 24.9213 226.124 26.0873 226.124C27.2456 226.124 27.8866 227.012 27.8866 228.826C27.8866 230.626 27.2456 231.529 26.0873 231.529ZM26.0873 230.842C26.7437 230.842 27.1221 230.201 27.1221 228.826C27.1221 227.444 26.7514 226.819 26.0873 226.819C25.4233 226.819 25.0526 227.437 25.0526 228.826C25.0526 230.209 25.431 230.842 26.0873 230.842Z" fill="#614F41"/>
<path d="M9.87602 245.37V244.899H10.6405V250.111H9.87602V246.281H8.63277V245.64H9.60575C9.77563 245.64 9.87602 245.54 9.87602 245.37ZM14.5454 245.37V244.899H15.3099V250.111H14.5454V246.281H13.3022V245.64H14.2751C14.445 245.64 14.5454 245.54 14.5454 245.37ZM18.35 247.409H17.5855V246.32H18.35V247.409ZM18.35 250.111H17.5855V249.015H18.35V250.111ZM21.4179 250.204C20.2596 250.204 19.6187 249.308 19.6187 247.501C19.6187 245.687 20.2519 244.799 21.4179 244.799C22.5762 244.799 23.2172 245.687 23.2172 247.501C23.2172 249.301 22.5762 250.204 21.4179 250.204ZM21.4179 249.517C22.0743 249.517 22.4527 248.876 22.4527 247.501C22.4527 246.119 22.082 245.494 21.4179 245.494C20.7539 245.494 20.3832 246.111 20.3832 247.501C20.3832 248.884 20.7616 249.517 21.4179 249.517ZM26.0873 250.204C24.929 250.204 24.2881 249.308 24.2881 247.501C24.2881 245.687 24.9213 244.799 26.0873 244.799C27.2456 244.799 27.8866 245.687 27.8866 247.501C27.8866 249.301 27.2456 250.204 26.0873 250.204ZM26.0873 249.517C26.7437 249.517 27.1221 248.876 27.1221 247.501C27.1221 246.119 26.7514 245.494 26.0873 245.494C25.4233 245.494 25.0526 246.111 25.0526 247.501C25.0526 248.884 25.431 249.517 26.0873 249.517Z" fill="#614F41"/>
<path d="M9.87602 264.045V263.574H10.6405V268.786H9.87602V264.956H8.63277V264.315H9.60575C9.77563 264.315 9.87602 264.215 9.87602 264.045ZM14.5454 264.045V263.574H15.3099V268.786H14.5454V264.956H13.3022V264.315H14.2751C14.445 264.315 14.5454 264.215 14.5454 264.045ZM18.35 266.083H17.5855V264.995H18.35V266.083ZM18.35 268.786H17.5855V267.69H18.35V268.786ZM21.4566 268.879C20.2828 268.879 19.5956 268.238 19.5956 267.149H20.3755C20.3832 267.805 20.7847 268.192 21.4411 268.192C22.0357 268.192 22.445 267.829 22.445 267.28C22.445 266.717 22.0512 266.354 21.3639 266.354H21.1554V265.72H21.3021C21.8581 265.72 22.2056 265.396 22.2056 264.91C22.2056 264.454 21.8813 264.153 21.3948 264.153C20.8774 264.153 20.5145 264.5 20.5145 265.049C20.5145 265.126 20.5222 265.211 20.5376 265.296L19.7809 265.334C19.7577 265.219 19.75 265.11 19.75 265.01C19.75 264.091 20.4064 263.473 21.4025 263.473C22.3446 263.473 22.9469 264.068 22.9469 264.825C22.9469 265.419 22.5762 265.813 22.1901 265.96C22.7539 266.091 23.2249 266.524 23.2249 267.28C23.2249 268.215 22.5145 268.879 21.4566 268.879ZM26.0873 268.879C24.929 268.879 24.2881 267.983 24.2881 266.176C24.2881 264.361 24.9213 263.473 26.0873 263.473C27.2456 263.473 27.8866 264.361 27.8866 266.176C27.8866 267.975 27.2456 268.879 26.0873 268.879ZM26.0873 268.192C26.7437 268.192 27.1221 267.551 27.1221 266.176C27.1221 264.794 26.7514 264.168 26.0873 264.168C25.4233 264.168 25.0526 264.786 25.0526 266.176C25.0526 267.558 25.431 268.192 26.0873 268.192Z" fill="#614F41"/>
<path d="M9.87602 282.72V282.249H10.6405V287.461H9.87602V283.631H8.63277V282.99H9.60575C9.77563 282.99 9.87602 282.89 9.87602 282.72ZM15.4721 285.083L13.8196 286.774H16.3138V287.461H12.7848V286.797L14.9006 284.65C15.2558 284.287 15.4412 283.994 15.4412 283.631C15.4412 283.137 15.1014 282.835 14.5454 282.835C13.8968 282.835 13.5261 283.183 13.5261 283.839C13.5261 283.971 13.5416 284.102 13.5724 284.249L12.8311 284.349C12.8002 284.148 12.7771 283.971 12.7771 283.801C12.7771 282.766 13.4335 282.148 14.5145 282.148C15.5107 282.148 16.1979 282.712 16.1979 283.608C16.1979 284.117 16.0126 284.534 15.4721 285.083ZM18.35 284.758H17.5855V283.669H18.35V284.758ZM18.35 287.461H17.5855V286.364H18.35V287.461ZM21.4179 287.554C20.2596 287.554 19.6187 286.658 19.6187 284.851C19.6187 283.036 20.2519 282.148 21.4179 282.148C22.5762 282.148 23.2172 283.036 23.2172 284.851C23.2172 286.65 22.5762 287.554 21.4179 287.554ZM21.4179 286.866C22.0743 286.866 22.4527 286.225 22.4527 284.851C22.4527 283.469 22.082 282.843 21.4179 282.843C20.7539 282.843 20.3832 283.461 20.3832 284.851C20.3832 286.233 20.7616 286.866 21.4179 286.866ZM26.0873 287.554C24.929 287.554 24.2881 286.658 24.2881 284.851C24.2881 283.036 24.9213 282.148 26.0873 282.148C27.2456 282.148 27.8866 283.036 27.8866 284.851C27.8866 286.65 27.2456 287.554 26.0873 287.554ZM26.0873 286.866C26.7437 286.866 27.1221 286.225 27.1221 284.851C27.1221 283.469 26.7514 282.843 26.0873 282.843C25.4233 282.843 25.0526 283.461 25.0526 284.851C25.0526 286.233 25.431 286.866 26.0873 286.866Z" fill="#614F41"/>
<path d="M9.87602 301.394V300.923H10.6405V306.135H9.87602V302.305H8.63277V301.664H9.60575C9.77563 301.664 9.87602 301.564 9.87602 301.394ZM15.4721 303.757L13.8196 305.448H16.3138V306.135H12.7848V305.471L14.9006 303.324C15.2558 302.962 15.4412 302.668 15.4412 302.305C15.4412 301.811 15.1014 301.51 14.5454 301.51C13.8968 301.51 13.5261 301.857 13.5261 302.514C13.5261 302.645 13.5416 302.776 13.5724 302.923L12.8311 303.023C12.8002 302.823 12.7771 302.645 12.7771 302.475C12.7771 301.44 13.4335 300.823 14.5145 300.823C15.5107 300.823 16.1979 301.386 16.1979 302.282C16.1979 302.792 16.0126 303.209 15.4721 303.757ZM18.35 303.433H17.5855V302.344H18.35V303.433ZM18.35 306.135H17.5855V305.039H18.35V306.135ZM21.4566 306.228C20.2828 306.228 19.5956 305.587 19.5956 304.498H20.3755C20.3832 305.155 20.7847 305.541 21.4411 305.541C22.0357 305.541 22.445 305.178 22.445 304.629C22.445 304.066 22.0512 303.703 21.3639 303.703H21.1554V303.07H21.3021C21.8581 303.07 22.2056 302.745 22.2056 302.259C22.2056 301.803 21.8813 301.502 21.3948 301.502C20.8774 301.502 20.5145 301.85 20.5145 302.398C20.5145 302.475 20.5222 302.56 20.5376 302.645L19.7809 302.684C19.7577 302.568 19.75 302.46 19.75 302.359C19.75 301.44 20.4064 300.823 21.4025 300.823C22.3446 300.823 22.9469 301.417 22.9469 302.174C22.9469 302.768 22.5762 303.162 22.1901 303.309C22.7539 303.44 23.2249 303.873 23.2249 304.629C23.2249 305.564 22.5145 306.228 21.4566 306.228ZM26.0873 306.228C24.929 306.228 24.2881 305.332 24.2881 303.525C24.2881 301.711 24.9213 300.823 26.0873 300.823C27.2456 300.823 27.8866 301.711 27.8866 303.525C27.8866 305.324 27.2456 306.228 26.0873 306.228ZM26.0873 305.541C26.7437 305.541 27.1221 304.9 27.1221 303.525C27.1221 302.143 26.7514 301.517 26.0873 301.517C25.4233 301.517 25.0526 302.135 25.0526 303.525C25.0526 304.907 25.431 305.541 26.0873 305.541Z" fill="#614F41"/>
<path d="M9.87602 320.069V319.598H10.6405V324.81H9.87602V320.98H8.63277V320.339H9.60575C9.77563 320.339 9.87602 320.239 9.87602 320.069ZM14.5686 324.903C13.3948 324.903 12.7076 324.262 12.7076 323.173H13.4875C13.4952 323.829 13.8968 324.215 14.5531 324.215C15.1477 324.215 15.557 323.853 15.557 323.304C15.557 322.741 15.1632 322.378 14.4759 322.378H14.2674V321.744H14.4141C14.9701 321.744 15.3176 321.42 15.3176 320.934C15.3176 320.478 14.9933 320.177 14.5068 320.177C13.9894 320.177 13.6265 320.524 13.6265 321.073C13.6265 321.15 13.6342 321.235 13.6497 321.32L12.8929 321.358C12.8697 321.242 12.862 321.134 12.862 321.034C12.862 320.115 13.5184 319.497 14.5145 319.497C15.4566 319.497 16.0589 320.092 16.0589 320.849C16.0589 321.443 15.6883 321.837 15.3022 321.984C15.8659 322.115 16.3369 322.548 16.3369 323.304C16.3369 324.239 15.6265 324.903 14.5686 324.903ZM18.35 322.107H17.5855V321.019H18.35V322.107ZM18.35 324.81H17.5855V323.714H18.35V324.81ZM21.4179 324.903C20.2596 324.903 19.6187 324.007 19.6187 322.2C19.6187 320.385 20.2519 319.497 21.4179 319.497C22.5762 319.497 23.2172 320.385 23.2172 322.2C23.2172 323.999 22.5762 324.903 21.4179 324.903ZM21.4179 324.215C22.0743 324.215 22.4527 323.575 22.4527 322.2C22.4527 320.818 22.082 320.192 21.4179 320.192C20.7539 320.192 20.3832 320.81 20.3832 322.2C20.3832 323.582 20.7616 324.215 21.4179 324.215ZM26.0873 324.903C24.929 324.903 24.2881 324.007 24.2881 322.2C24.2881 320.385 24.9213 319.497 26.0873 319.497C27.2456 319.497 27.8866 320.385 27.8866 322.2C27.8866 323.999 27.2456 324.903 26.0873 324.903ZM26.0873 324.215C26.7437 324.215 27.1221 323.575 27.1221 322.2C27.1221 320.818 26.7514 320.192 26.0873 320.192C25.4233 320.192 25.0526 320.81 25.0526 322.2C25.0526 323.582 25.431 324.215 26.0873 324.215Z" fill="#614F41"/>
<path d="M9.87602 338.744V338.273H10.6405V343.485H9.87602V339.655H8.63277V339.014H9.60575C9.77563 339.014 9.87602 338.913 9.87602 338.744ZM14.5686 343.578C13.3948 343.578 12.7076 342.937 12.7076 341.848H13.4875C13.4952 342.504 13.8968 342.89 14.5531 342.89C15.1477 342.89 15.557 342.527 15.557 341.979C15.557 341.415 15.1632 341.052 14.4759 341.052H14.2674V340.419H14.4141C14.9701 340.419 15.3176 340.095 15.3176 339.608C15.3176 339.153 14.9933 338.852 14.5068 338.852C13.9894 338.852 13.6265 339.199 13.6265 339.747C13.6265 339.825 13.6342 339.91 13.6497 339.995L12.8929 340.033C12.8697 339.917 12.862 339.809 12.862 339.709C12.862 338.79 13.5184 338.172 14.5145 338.172C15.4566 338.172 16.0589 338.767 16.0589 339.523C16.0589 340.118 15.6883 340.512 15.3022 340.659C15.8659 340.79 16.3369 341.222 16.3369 341.979C16.3369 342.913 15.6265 343.578 14.5686 343.578ZM18.35 340.782H17.5855V339.693H18.35V340.782ZM18.35 343.485H17.5855V342.388H18.35V343.485ZM21.4566 343.578C20.2828 343.578 19.5956 342.937 19.5956 341.848H20.3755C20.3832 342.504 20.7847 342.89 21.4411 342.89C22.0357 342.89 22.445 342.527 22.445 341.979C22.445 341.415 22.0512 341.052 21.3639 341.052H21.1554V340.419H21.3021C21.8581 340.419 22.2056 340.095 22.2056 339.608C22.2056 339.153 21.8813 338.852 21.3948 338.852C20.8774 338.852 20.5145 339.199 20.5145 339.747C20.5145 339.825 20.5222 339.91 20.5376 339.995L19.7809 340.033C19.7577 339.917 19.75 339.809 19.75 339.709C19.75 338.79 20.4064 338.172 21.4025 338.172C22.3446 338.172 22.9469 338.767 22.9469 339.523C22.9469 340.118 22.5762 340.512 22.1901 340.659C22.7539 340.79 23.2249 341.222 23.2249 341.979C23.2249 342.913 22.5145 343.578 21.4566 343.578ZM26.0873 343.578C24.929 343.578 24.2881 342.682 24.2881 340.875C24.2881 339.06 24.9213 338.172 26.0873 338.172C27.2456 338.172 27.8866 339.06 27.8866 340.875C27.8866 342.674 27.2456 343.578 26.0873 343.578ZM26.0873 342.89C26.7437 342.89 27.1221 342.249 27.1221 340.875C27.1221 339.493 26.7514 338.867 26.0873 338.867C25.4233 338.867 25.0526 339.485 25.0526 340.875C25.0526 342.257 25.431 342.89 26.0873 342.89Z" fill="#614F41"/>
<path d="M9.87602 357.418V356.947H10.6405V362.16H9.87602V358.33H8.63277V357.689H9.60575C9.77563 357.689 9.87602 357.588 9.87602 357.418ZM15.8813 360.368H16.4759V361.048H15.8813V362.16H15.1168V361.048H12.5763V360.36L14.8543 356.947H15.8813V360.368ZM15.1168 357.635L13.3485 360.368H15.1168V357.635ZM18.35 359.457H17.5855V358.368H18.35V359.457ZM18.35 362.16H17.5855V361.063H18.35V362.16ZM21.4179 362.252C20.2596 362.252 19.6187 361.357 19.6187 359.55C19.6187 357.735 20.2519 356.847 21.4179 356.847C22.5762 356.847 23.2172 357.735 23.2172 359.55C23.2172 361.349 22.5762 362.252 21.4179 362.252ZM21.4179 361.565C22.0743 361.565 22.4527 360.924 22.4527 359.55C22.4527 358.167 22.082 357.542 21.4179 357.542C20.7539 357.542 20.3832 358.16 20.3832 359.55C20.3832 360.932 20.7616 361.565 21.4179 361.565ZM26.0873 362.252C24.929 362.252 24.2881 361.357 24.2881 359.55C24.2881 357.735 24.9213 356.847 26.0873 356.847C27.2456 356.847 27.8866 357.735 27.8866 359.55C27.8866 361.349 27.2456 362.252 26.0873 362.252ZM26.0873 361.565C26.7437 361.565 27.1221 360.924 27.1221 359.55C27.1221 358.167 26.7514 357.542 26.0873 357.542C25.4233 357.542 25.0526 358.16 25.0526 359.55C25.0526 360.932 25.431 361.565 26.0873 361.565Z" fill="#614F41"/>
<path d="M9.87602 376.093V375.622H10.6405V380.834H9.87602V377.004H8.63277V376.363H9.60575C9.77563 376.363 9.87602 376.263 9.87602 376.093ZM15.8813 379.042H16.4759V379.722H15.8813V380.834H15.1168V379.722H12.5763V379.035L14.8543 375.622H15.8813V379.042ZM15.1168 376.309L13.3485 379.042H15.1168V376.309ZM18.35 378.131H17.5855V377.042H18.35V378.131ZM18.35 380.834H17.5855V379.737H18.35V380.834ZM21.4566 380.927C20.2828 380.927 19.5956 380.286 19.5956 379.197H20.3755C20.3832 379.853 20.7847 380.239 21.4411 380.239C22.0357 380.239 22.445 379.876 22.445 379.328C22.445 378.764 22.0512 378.402 21.3639 378.402H21.1554V377.768H21.3021C21.8581 377.768 22.2056 377.444 22.2056 376.958C22.2056 376.502 21.8813 376.201 21.3948 376.201C20.8774 376.201 20.5145 376.548 20.5145 377.097C20.5145 377.174 20.5222 377.259 20.5376 377.344L19.7809 377.382C19.7577 377.266 19.75 377.158 19.75 377.058C19.75 376.139 20.4064 375.521 21.4025 375.521C22.3446 375.521 22.9469 376.116 22.9469 376.873C22.9469 377.467 22.5762 377.861 22.1901 378.008C22.7539 378.139 23.2249 378.571 23.2249 379.328C23.2249 380.263 22.5145 380.927 21.4566 380.927ZM26.0873 380.927C24.929 380.927 24.2881 380.031 24.2881 378.224C24.2881 376.409 24.9213 375.521 26.0873 375.521C27.2456 375.521 27.8866 376.409 27.8866 378.224C27.8866 380.023 27.2456 380.927 26.0873 380.927ZM26.0873 380.239C26.7437 380.239 27.1221 379.598 27.1221 378.224C27.1221 376.842 26.7514 376.216 26.0873 376.216C25.4233 376.216 25.0526 376.834 25.0526 378.224C25.0526 379.606 25.431 380.239 26.0873 380.239Z" fill="#614F41"/>
<path d="M9.87602 394.767V394.296H10.6405V399.509H9.87602V395.679H8.63277V395.038H9.60575C9.77563 395.038 9.87602 394.937 9.87602 394.767ZM13.7269 396.188H14.5145C15.6342 396.188 16.3446 396.706 16.3446 397.802C16.3446 398.899 15.6342 399.601 14.5609 399.601C13.4489 399.601 12.7385 398.961 12.7385 397.918V397.71H13.4952V397.856C13.4952 398.52 13.8813 398.914 14.5763 398.914C15.2018 398.914 15.5802 398.474 15.5802 397.849C15.5802 397.03 14.9238 396.822 14.2751 396.822H12.9161L13.1709 394.296H16.113V394.976H13.8582L13.7269 396.188ZM18.35 396.806H17.5855V395.717H18.35V396.806ZM18.35 399.509H17.5855V398.412H18.35V399.509ZM21.4179 399.601C20.2596 399.601 19.6187 398.706 19.6187 396.899C19.6187 395.084 20.2519 394.196 21.4179 394.196C22.5762 394.196 23.2172 395.084 23.2172 396.899C23.2172 398.698 22.5762 399.601 21.4179 399.601ZM21.4179 398.914C22.0743 398.914 22.4527 398.273 22.4527 396.899C22.4527 395.517 22.082 394.891 21.4179 394.891C20.7539 394.891 20.3832 395.509 20.3832 396.899C20.3832 398.281 20.7616 398.914 21.4179 398.914ZM26.0873 399.601C24.929 399.601 24.2881 398.706 24.2881 396.899C24.2881 395.084 24.9213 394.196 26.0873 394.196C27.2456 394.196 27.8866 395.084 27.8866 396.899C27.8866 398.698 27.2456 399.601 26.0873 399.601ZM26.0873 398.914C26.7437 398.914 27.1221 398.273 27.1221 396.899C27.1221 395.517 26.7514 394.891 26.0873 394.891C25.4233 394.891 25.0526 395.509 25.0526 396.899C25.0526 398.281 25.431 398.914 26.0873 398.914Z" fill="#614F41"/>
<path d="M9.87602 413.442V412.971H10.6405V418.184H9.87602V414.353H8.63277V413.713H9.60575C9.77563 413.713 9.87602 413.612 9.87602 413.442ZM13.7269 414.863H14.5145C15.6342 414.863 16.3446 415.381 16.3446 416.477C16.3446 417.574 15.6342 418.276 14.5609 418.276C13.4489 418.276 12.7385 417.635 12.7385 416.593V416.384H13.4952V416.531C13.4952 417.195 13.8813 417.589 14.5763 417.589C15.2018 417.589 15.5802 417.149 15.5802 416.523C15.5802 415.705 14.9238 415.496 14.2751 415.496H12.9161L13.1709 412.971H16.113V413.651H13.8582L13.7269 414.863ZM18.35 415.481H17.5855V414.392H18.35V415.481ZM18.35 418.184H17.5855V417.087H18.35V418.184ZM21.4566 418.276C20.2828 418.276 19.5956 417.635 19.5956 416.547H20.3755C20.3832 417.203 20.7847 417.589 21.4411 417.589C22.0357 417.589 22.445 417.226 22.445 416.678C22.445 416.114 22.0512 415.751 21.3639 415.751H21.1554V415.118H21.3021C21.8581 415.118 22.2056 414.794 22.2056 414.307C22.2056 413.852 21.8813 413.55 21.3948 413.55C20.8774 413.55 20.5145 413.898 20.5145 414.446C20.5145 414.523 20.5222 414.608 20.5376 414.693L19.7809 414.732C19.7577 414.616 19.75 414.508 19.75 414.408C19.75 413.489 20.4064 412.871 21.4025 412.871C22.3446 412.871 22.9469 413.465 22.9469 414.222C22.9469 414.817 22.5762 415.211 22.1901 415.357C22.7539 415.489 23.2249 415.921 23.2249 416.678C23.2249 417.612 22.5145 418.276 21.4566 418.276ZM26.0873 418.276C24.929 418.276 24.2881 417.381 24.2881 415.574C24.2881 413.759 24.9213 412.871 26.0873 412.871C27.2456 412.871 27.8866 413.759 27.8866 415.574C27.8866 417.373 27.2456 418.276 26.0873 418.276ZM26.0873 417.589C26.7437 417.589 27.1221 416.948 27.1221 415.574C27.1221 414.191 26.7514 413.566 26.0873 413.566C25.4233 413.566 25.0526 414.184 25.0526 415.574C25.0526 416.956 25.431 417.589 26.0873 417.589Z" fill="#614F41"/>
<path d="M9.87602 432.117V431.646H10.6405V436.858H9.87602V433.028H8.63277V432.387H9.60575C9.77563 432.387 9.87602 432.287 9.87602 432.117ZM14.6844 433.368C15.6265 433.368 16.391 434.094 16.391 435.121C16.391 436.156 15.5493 436.951 14.5145 436.951C13.4643 436.951 12.669 436.125 12.669 435.113C12.669 434.658 12.8234 434.225 13.14 433.831L14.8852 431.646H15.8118L14.391 433.391C14.4914 433.376 14.584 433.368 14.6844 433.368ZM15.6419 435.106C15.6497 434.449 15.1941 433.932 14.5068 433.932C13.8427 433.932 13.3948 434.426 13.3871 435.09C13.3717 435.731 13.8118 436.264 14.4991 436.264C15.1632 436.264 15.6342 435.746 15.6419 435.106ZM18.35 434.156H17.5855V433.067H18.35V434.156ZM18.35 436.858H17.5855V435.762H18.35V436.858ZM21.4179 436.951C20.2596 436.951 19.6187 436.055 19.6187 434.248C19.6187 432.434 20.2519 431.546 21.4179 431.546C22.5762 431.546 23.2172 432.434 23.2172 434.248C23.2172 436.048 22.5762 436.951 21.4179 436.951ZM21.4179 436.264C22.0743 436.264 22.4527 435.623 22.4527 434.248C22.4527 432.866 22.082 432.241 21.4179 432.241C20.7539 432.241 20.3832 432.858 20.3832 434.248C20.3832 435.631 20.7616 436.264 21.4179 436.264ZM26.0873 436.951C24.929 436.951 24.2881 436.055 24.2881 434.248C24.2881 432.434 24.9213 431.546 26.0873 431.546C27.2456 431.546 27.8866 432.434 27.8866 434.248C27.8866 436.048 27.2456 436.951 26.0873 436.951ZM26.0873 436.264C26.7437 436.264 27.1221 435.623 27.1221 434.248C27.1221 432.866 26.7514 432.241 26.0873 432.241C25.4233 432.241 25.0526 432.858 25.0526 434.248C25.0526 435.631 25.431 436.264 26.0873 436.264Z" fill="#614F41"/>
<path d="M9.87602 450.791V450.32H10.6405V455.533H9.87602V451.703H8.63277V451.062H9.60575C9.77563 451.062 9.87602 450.961 9.87602 450.791ZM14.6844 452.042C15.6265 452.042 16.391 452.768 16.391 453.795C16.391 454.83 15.5493 455.625 14.5145 455.625C13.4643 455.625 12.669 454.799 12.669 453.788C12.669 453.332 12.8234 452.9 13.14 452.506L14.8852 450.32H15.8118L14.391 452.066C14.4914 452.05 14.584 452.042 14.6844 452.042ZM15.6419 453.78C15.6497 453.123 15.1941 452.606 14.5068 452.606C13.8427 452.606 13.3948 453.1 13.3871 453.764C13.3717 454.405 13.8118 454.938 14.4991 454.938C15.1632 454.938 15.6342 454.421 15.6419 453.78ZM18.35 452.83H17.5855V451.741H18.35V452.83ZM18.35 455.533H17.5855V454.436H18.35V455.533ZM21.4566 455.625C20.2828 455.625 19.5956 454.984 19.5956 453.896H20.3755C20.3832 454.552 20.7847 454.938 21.4411 454.938C22.0357 454.938 22.445 454.575 22.445 454.027C22.445 453.463 22.0512 453.1 21.3639 453.1H21.1554V452.467H21.3021C21.8581 452.467 22.2056 452.143 22.2056 451.656C22.2056 451.201 21.8813 450.9 21.3948 450.9C20.8774 450.9 20.5145 451.247 20.5145 451.795C20.5145 451.872 20.5222 451.957 20.5376 452.042L19.7809 452.081C19.7577 451.965 19.75 451.857 19.75 451.757C19.75 450.838 20.4064 450.22 21.4025 450.22C22.3446 450.22 22.9469 450.815 22.9469 451.571C22.9469 452.166 22.5762 452.56 22.1901 452.706C22.7539 452.838 23.2249 453.27 23.2249 454.027C23.2249 454.961 22.5145 455.625 21.4566 455.625ZM26.0873 455.625C24.929 455.625 24.2881 454.73 24.2881 452.923C24.2881 451.108 24.9213 450.22 26.0873 450.22C27.2456 450.22 27.8866 451.108 27.8866 452.923C27.8866 454.722 27.2456 455.625 26.0873 455.625ZM26.0873 454.938C26.7437 454.938 27.1221 454.297 27.1221 452.923C27.1221 451.54 26.7514 450.915 26.0873 450.915C25.4233 450.915 25.0526 451.533 25.0526 452.923C25.0526 454.305 25.431 454.938 26.0873 454.938Z" fill="#614F41"/>
<path d="M9.87602 469.466V468.995H10.6405V474.208H9.87602V470.377H8.63277V469.736H9.60575C9.77563 469.736 9.87602 469.636 9.87602 469.466ZM12.723 469.675V468.995H16.3446V469.675L13.8041 474.208H12.9238L15.5107 469.675H12.723ZM18.35 471.505H17.5855V470.416H18.35V471.505ZM18.35 474.208H17.5855V473.111H18.35V474.208ZM21.4179 474.3C20.2596 474.3 19.6187 473.404 19.6187 471.597C19.6187 469.783 20.2519 468.895 21.4179 468.895C22.5762 468.895 23.2172 469.783 23.2172 471.597C23.2172 473.397 22.5762 474.3 21.4179 474.3ZM21.4179 473.613C22.0743 473.613 22.4527 472.972 22.4527 471.597C22.4527 470.215 22.082 469.59 21.4179 469.59C20.7539 469.59 20.3832 470.208 20.3832 471.597C20.3832 472.98 20.7616 473.613 21.4179 473.613ZM26.0873 474.3C24.929 474.3 24.2881 473.404 24.2881 471.597C24.2881 469.783 24.9213 468.895 26.0873 468.895C27.2456 468.895 27.8866 469.783 27.8866 471.597C27.8866 473.397 27.2456 474.3 26.0873 474.3ZM26.0873 473.613C26.7437 473.613 27.1221 472.972 27.1221 471.597C27.1221 470.215 26.7514 469.59 26.0873 469.59C25.4233 469.59 25.0526 470.208 25.0526 471.597C25.0526 472.98 25.431 473.613 26.0873 473.613Z" fill="#614F41"/>
<path d="M9.87602 488.141V487.67H10.6405V492.882H9.87602V489.052H8.63277V488.411H9.60575C9.77563 488.411 9.87602 488.311 9.87602 488.141ZM12.723 488.35V487.67H16.3446V488.35L13.8041 492.882H12.9238L15.5107 488.35H12.723ZM18.35 490.18H17.5855V489.091H18.35V490.18ZM18.35 492.882H17.5855V491.786H18.35V492.882ZM21.4566 492.975C20.2828 492.975 19.5956 492.334 19.5956 491.245H20.3755C20.3832 491.902 20.7847 492.288 21.4411 492.288C22.0357 492.288 22.445 491.925 22.445 491.377C22.445 490.813 22.0512 490.45 21.3639 490.45H21.1554V489.817H21.3021C21.8581 489.817 22.2056 489.492 22.2056 489.006C22.2056 488.55 21.8813 488.249 21.3948 488.249C20.8774 488.249 20.5145 488.597 20.5145 489.145C20.5145 489.222 20.5222 489.307 20.5376 489.392L19.7809 489.431C19.7577 489.315 19.75 489.207 19.75 489.106C19.75 488.187 20.4064 487.57 21.4025 487.57C22.3446 487.57 22.9469 488.164 22.9469 488.921C22.9469 489.516 22.5762 489.909 22.1901 490.056C22.7539 490.187 23.2249 490.62 23.2249 491.377C23.2249 492.311 22.5145 492.975 21.4566 492.975ZM26.0873 492.975C24.929 492.975 24.2881 492.079 24.2881 490.272C24.2881 488.458 24.9213 487.57 26.0873 487.57C27.2456 487.57 27.8866 488.458 27.8866 490.272C27.8866 492.072 27.2456 492.975 26.0873 492.975ZM26.0873 492.288C26.7437 492.288 27.1221 491.647 27.1221 490.272C27.1221 488.89 26.7514 488.265 26.0873 488.265C25.4233 488.265 25.0526 488.882 25.0526 490.272C25.0526 491.655 25.431 492.288 26.0873 492.288Z" fill="#614F41"/>
<path d="M9.87602 506.816V506.345H10.6405V511.557H9.87602V507.727H8.63277V507.086H9.60575C9.77563 507.086 9.87602 506.986 9.87602 506.816ZM14.5223 511.65C13.4875 511.65 12.723 511.017 12.723 510.075C12.723 509.449 13.0705 508.963 13.6188 508.731C13.2018 508.515 12.9315 508.113 12.9315 507.619C12.9315 506.824 13.6033 506.244 14.5223 506.244C15.4335 506.244 16.1053 506.831 16.1053 507.619C16.1053 508.113 15.835 508.507 15.4335 508.731C15.9817 508.97 16.3215 509.457 16.3215 510.075C16.3215 511.017 15.557 511.65 14.5223 511.65ZM14.5223 508.507C15.0165 508.507 15.3794 508.152 15.3794 507.688C15.3794 507.233 15.0087 506.901 14.5223 506.901C14.028 506.901 13.6651 507.233 13.6651 507.688C13.6651 508.159 14.028 508.507 14.5223 508.507ZM14.5223 510.963C15.1168 510.963 15.557 510.561 15.557 509.99C15.557 509.41 15.1246 509.032 14.5223 509.032C13.9199 509.032 13.4875 509.41 13.4875 509.99C13.4875 510.561 13.9277 510.963 14.5223 510.963ZM18.35 508.854H17.5855V507.766H18.35V508.854ZM18.35 511.557H17.5855V510.461H18.35V511.557ZM21.4179 511.65C20.2596 511.65 19.6187 510.754 19.6187 508.947C19.6187 507.132 20.2519 506.244 21.4179 506.244C22.5762 506.244 23.2172 507.132 23.2172 508.947C23.2172 510.746 22.5762 511.65 21.4179 511.65ZM21.4179 510.963C22.0743 510.963 22.4527 510.322 22.4527 508.947C22.4527 507.565 22.082 506.939 21.4179 506.939C20.7539 506.939 20.3832 507.557 20.3832 508.947C20.3832 510.329 20.7616 510.963 21.4179 510.963ZM26.0873 511.65C24.929 511.65 24.2881 510.754 24.2881 508.947C24.2881 507.132 24.9213 506.244 26.0873 506.244C27.2456 506.244 27.8866 507.132 27.8866 508.947C27.8866 510.746 27.2456 511.65 26.0873 511.65ZM26.0873 510.963C26.7437 510.963 27.1221 510.322 27.1221 508.947C27.1221 507.565 26.7514 506.939 26.0873 506.939C25.4233 506.939 25.0526 507.557 25.0526 508.947C25.0526 510.329 25.431 510.963 26.0873 510.963Z" fill="#614F41"/>
<path d="M9.87602 525.49V525.019H10.6405V530.231H9.87602V526.401H8.63277V525.76H9.60575C9.77563 525.76 9.87602 525.66 9.87602 525.49ZM14.5223 530.324C13.4875 530.324 12.723 529.691 12.723 528.749C12.723 528.123 13.0705 527.637 13.6188 527.405C13.2018 527.189 12.9315 526.787 12.9315 526.293C12.9315 525.498 13.6033 524.919 14.5223 524.919C15.4335 524.919 16.1053 525.506 16.1053 526.293C16.1053 526.787 15.835 527.181 15.4335 527.405C15.9817 527.645 16.3215 528.131 16.3215 528.749C16.3215 529.691 15.557 530.324 14.5223 530.324ZM14.5223 527.181C15.0165 527.181 15.3794 526.826 15.3794 526.363C15.3794 525.907 15.0087 525.575 14.5223 525.575C14.028 525.575 13.6651 525.907 13.6651 526.363C13.6651 526.834 14.028 527.181 14.5223 527.181ZM14.5223 529.637C15.1168 529.637 15.557 529.235 15.557 528.664C15.557 528.085 15.1246 527.706 14.5223 527.706C13.9199 527.706 13.4875 528.085 13.4875 528.664C13.4875 529.235 13.9277 529.637 14.5223 529.637ZM18.35 527.529H17.5855V526.44H18.35V527.529ZM18.35 530.231H17.5855V529.135H18.35V530.231ZM21.4566 530.324C20.2828 530.324 19.5956 529.683 19.5956 528.594H20.3755C20.3832 529.251 20.7847 529.637 21.4411 529.637C22.0357 529.637 22.445 529.274 22.445 528.726C22.445 528.162 22.0512 527.799 21.3639 527.799H21.1554V527.166H21.3021C21.8581 527.166 22.2056 526.841 22.2056 526.355C22.2056 525.899 21.8813 525.598 21.3948 525.598C20.8774 525.598 20.5145 525.946 20.5145 526.494C20.5145 526.571 20.5222 526.656 20.5376 526.741L19.7809 526.78C19.7577 526.664 19.75 526.556 19.75 526.455C19.75 525.536 20.4064 524.919 21.4025 524.919C22.3446 524.919 22.9469 525.513 22.9469 526.27C22.9469 526.865 22.5762 527.258 22.1901 527.405C22.7539 527.536 23.2249 527.969 23.2249 528.726C23.2249 529.66 22.5145 530.324 21.4566 530.324ZM26.0873 530.324C24.929 530.324 24.2881 529.428 24.2881 527.621C24.2881 525.807 24.9213 524.919 26.0873 524.919C27.2456 524.919 27.8866 525.807 27.8866 527.621C27.8866 529.421 27.2456 530.324 26.0873 530.324ZM26.0873 529.637C26.7437 529.637 27.1221 528.996 27.1221 527.621C27.1221 526.239 26.7514 525.614 26.0873 525.614C25.4233 525.614 25.0526 526.231 25.0526 527.621C25.0526 529.004 25.431 529.637 26.0873 529.637Z" fill="#614F41"/>
<path d="M9.87602 544.165V543.694H10.6405V548.907H9.87602V545.077H8.63277V544.436H9.60575C9.77563 544.436 9.87602 544.335 9.87602 544.165ZM14.5609 543.602C15.6111 543.602 16.4064 544.428 16.4064 545.44C16.4064 545.895 16.252 546.32 15.9354 546.721L14.1902 548.907H13.2636L14.6767 547.162C14.584 547.177 14.4836 547.185 14.391 547.185C13.4489 547.185 12.6844 546.451 12.6844 545.424C12.6844 544.397 13.5261 543.602 14.5609 543.602ZM15.6883 545.463C15.7037 544.822 15.2636 544.281 14.5763 544.281C13.9122 544.281 13.4412 544.806 13.4335 545.44C13.4257 546.096 13.8813 546.621 14.5686 546.621C15.2327 546.621 15.6806 546.119 15.6883 545.463ZM18.35 546.204H17.5855V545.115H18.35V546.204ZM18.35 548.907H17.5855V547.81H18.35V548.907ZM21.4179 548.999C20.2596 548.999 19.6187 548.104 19.6187 546.297C19.6187 544.482 20.2519 543.594 21.4179 543.594C22.5762 543.594 23.2172 544.482 23.2172 546.297C23.2172 548.096 22.5762 548.999 21.4179 548.999ZM21.4179 548.312C22.0743 548.312 22.4527 547.671 22.4527 546.297C22.4527 544.914 22.082 544.289 21.4179 544.289C20.7539 544.289 20.3832 544.907 20.3832 546.297C20.3832 547.679 20.7616 548.312 21.4179 548.312ZM26.0873 548.999C24.929 548.999 24.2881 548.104 24.2881 546.297C24.2881 544.482 24.9213 543.594 26.0873 543.594C27.2456 543.594 27.8866 544.482 27.8866 546.297C27.8866 548.096 27.2456 548.999 26.0873 548.999ZM26.0873 548.312C26.7437 548.312 27.1221 547.671 27.1221 546.297C27.1221 544.914 26.7514 544.289 26.0873 544.289C25.4233 544.289 25.0526 544.907 25.0526 546.297C25.0526 547.679 25.431 548.312 26.0873 548.312Z" fill="#614F41"/>
<path d="M9.87602 562.84V562.369H10.6405V567.581H9.87602V563.751H8.63277V563.11H9.60575C9.77563 563.11 9.87602 563.01 9.87602 562.84ZM14.5609 562.276C15.6111 562.276 16.4064 563.102 16.4064 564.114C16.4064 564.569 16.252 564.994 15.9354 565.396L14.1902 567.581H13.2636L14.6767 565.836C14.584 565.851 14.4836 565.859 14.391 565.859C13.4489 565.859 12.6844 565.125 12.6844 564.098C12.6844 563.071 13.5261 562.276 14.5609 562.276ZM15.6883 564.137C15.7037 563.496 15.2636 562.956 14.5763 562.956C13.9122 562.956 13.4412 563.481 13.4335 564.114C13.4257 564.77 13.8813 565.295 14.5686 565.295C15.2327 565.295 15.6806 564.793 15.6883 564.137ZM18.35 564.878H17.5855V563.79H18.35V564.878ZM18.35 567.581H17.5855V566.485H18.35V567.581ZM21.4566 567.674C20.2828 567.674 19.5956 567.033 19.5956 565.944H20.3755C20.3832 566.6 20.7847 566.986 21.4411 566.986C22.0357 566.986 22.445 566.624 22.445 566.075C22.445 565.512 22.0512 565.149 21.3639 565.149H21.1554V564.515H21.3021C21.8581 564.515 22.2056 564.191 22.2056 563.705C22.2056 563.249 21.8813 562.948 21.3948 562.948C20.8774 562.948 20.5145 563.295 20.5145 563.844C20.5145 563.921 20.5222 564.006 20.5376 564.091L19.7809 564.129C19.7577 564.013 19.75 563.905 19.75 563.805C19.75 562.886 20.4064 562.268 21.4025 562.268C22.3446 562.268 22.9469 562.863 22.9469 563.62C22.9469 564.214 22.5762 564.608 22.1901 564.755C22.7539 564.886 23.2249 565.319 23.2249 566.075C23.2249 567.01 22.5145 567.674 21.4566 567.674ZM26.0873 567.674C24.929 567.674 24.2881 566.778 24.2881 564.971C24.2881 563.156 24.9213 562.268 26.0873 562.268C27.2456 562.268 27.8866 563.156 27.8866 564.971C27.8866 566.77 27.2456 567.674 26.0873 567.674ZM26.0873 566.986C26.7437 566.986 27.1221 566.346 27.1221 564.971C27.1221 563.589 26.7514 562.963 26.0873 562.963C25.4233 562.963 25.0526 563.581 25.0526 564.971C25.0526 566.353 25.431 566.986 26.0873 566.986Z" fill="#614F41"/>
<path d="M10.8027 583.877L9.15015 585.569H11.6444V586.256H8.1154V585.592L10.2312 583.445C10.5864 583.082 10.7718 582.789 10.7718 582.426C10.7718 581.932 10.432 581.63 9.87602 581.63C9.22737 581.63 8.85671 581.978 8.85671 582.634C8.85671 582.766 8.87216 582.897 8.90305 583.044L8.16173 583.144C8.13084 582.943 8.10768 582.766 8.10768 582.596C8.10768 581.561 8.76405 580.943 9.84513 580.943C10.8413 580.943 11.5285 581.507 11.5285 582.403C11.5285 582.912 11.3432 583.329 10.8027 583.877ZM14.53 586.349C13.3717 586.349 12.7307 585.453 12.7307 583.646C12.7307 581.831 13.364 580.943 14.53 580.943C15.6883 580.943 16.3292 581.831 16.3292 583.646C16.3292 585.445 15.6883 586.349 14.53 586.349ZM14.53 585.661C15.1863 585.661 15.5647 585.02 15.5647 583.646C15.5647 582.264 15.1941 581.638 14.53 581.638C13.8659 581.638 13.4952 582.256 13.4952 583.646C13.4952 585.028 13.8736 585.661 14.53 585.661ZM18.35 583.553H17.5855V582.464H18.35V583.553ZM18.35 586.256H17.5855V585.159H18.35V586.256ZM21.4179 586.349C20.2596 586.349 19.6187 585.453 19.6187 583.646C19.6187 581.831 20.2519 580.943 21.4179 580.943C22.5762 580.943 23.2172 581.831 23.2172 583.646C23.2172 585.445 22.5762 586.349 21.4179 586.349ZM21.4179 585.661C22.0743 585.661 22.4527 585.02 22.4527 583.646C22.4527 582.264 22.082 581.638 21.4179 581.638C20.7539 581.638 20.3832 582.256 20.3832 583.646C20.3832 585.028 20.7616 585.661 21.4179 585.661ZM26.0873 586.349C24.929 586.349 24.2881 585.453 24.2881 583.646C24.2881 581.831 24.9213 580.943 26.0873 580.943C27.2456 580.943 27.8866 581.831 27.8866 583.646C27.8866 585.445 27.2456 586.349 26.0873 586.349ZM26.0873 585.661C26.7437 585.661 27.1221 585.02 27.1221 583.646C27.1221 582.264 26.7514 581.638 26.0873 581.638C25.4233 581.638 25.0526 582.256 25.0526 583.646C25.0526 585.028 25.431 585.661 26.0873 585.661Z" fill="#614F41"/>
<path d="M10.8027 602.552L9.15015 604.243H11.6444V604.93H8.1154V604.266L10.2312 602.119C10.5864 601.756 10.7718 601.463 10.7718 601.1C10.7718 600.606 10.432 600.305 9.87602 600.305C9.22737 600.305 8.85671 600.652 8.85671 601.309C8.85671 601.44 8.87216 601.571 8.90305 601.718L8.16173 601.818C8.13084 601.617 8.10768 601.44 8.10768 601.27C8.10768 600.235 8.76405 599.617 9.84513 599.617C10.8413 599.617 11.5285 600.181 11.5285 601.077C11.5285 601.587 11.3432 602.004 10.8027 602.552ZM14.53 605.023C13.3717 605.023 12.7307 604.127 12.7307 602.32C12.7307 600.505 13.364 599.617 14.53 599.617C15.6883 599.617 16.3292 600.505 16.3292 602.32C16.3292 604.119 15.6883 605.023 14.53 605.023ZM14.53 604.336C15.1863 604.336 15.5647 603.695 15.5647 602.32C15.5647 600.938 15.1941 600.312 14.53 600.312C13.8659 600.312 13.4952 600.93 13.4952 602.32C13.4952 603.702 13.8736 604.336 14.53 604.336ZM18.35 602.227H17.5855V601.139H18.35V602.227ZM18.35 604.93H17.5855V603.834H18.35V604.93ZM21.4566 605.023C20.2828 605.023 19.5956 604.382 19.5956 603.293H20.3755C20.3832 603.949 20.7847 604.336 21.4411 604.336C22.0357 604.336 22.445 603.973 22.445 603.424C22.445 602.861 22.0512 602.498 21.3639 602.498H21.1554V601.865H21.3021C21.8581 601.865 22.2056 601.54 22.2056 601.054C22.2056 600.598 21.8813 600.297 21.3948 600.297C20.8774 600.297 20.5145 600.644 20.5145 601.193C20.5145 601.27 20.5222 601.355 20.5376 601.44L19.7809 601.478C19.7577 601.363 19.75 601.255 19.75 601.154C19.75 600.235 20.4064 599.617 21.4025 599.617C22.3446 599.617 22.9469 600.212 22.9469 600.969C22.9469 601.563 22.5762 601.957 22.1901 602.104C22.7539 602.235 23.2249 602.668 23.2249 603.424C23.2249 604.359 22.5145 605.023 21.4566 605.023ZM26.0873 605.023C24.929 605.023 24.2881 604.127 24.2881 602.32C24.2881 600.505 24.9213 599.617 26.0873 599.617C27.2456 599.617 27.8866 600.505 27.8866 602.32C27.8866 604.119 27.2456 605.023 26.0873 605.023ZM26.0873 604.336C26.7437 604.336 27.1221 603.695 27.1221 602.32C27.1221 600.938 26.7514 600.312 26.0873 600.312C25.4233 600.312 25.0526 600.93 25.0526 602.32C25.0526 603.702 25.431 604.336 26.0873 604.336Z" fill="#614F41"/>
<path d="M10.8027 621.227L9.15015 622.918H11.6444V623.605H8.1154V622.941L10.2312 620.795C10.5864 620.432 10.7718 620.138 10.7718 619.775C10.7718 619.281 10.432 618.98 9.87602 618.98C9.22737 618.98 8.85671 619.327 8.85671 619.984C8.85671 620.115 8.87216 620.246 8.90305 620.393L8.16173 620.493C8.13084 620.293 8.10768 620.115 8.10768 619.945C8.10768 618.91 8.76405 618.293 9.84513 618.293C10.8413 618.293 11.5285 618.856 11.5285 619.752C11.5285 620.262 11.3432 620.679 10.8027 621.227ZM14.5454 618.864V618.393H15.3099V623.605H14.5454V619.775H13.3022V619.134H14.2751C14.445 619.134 14.5454 619.034 14.5454 618.864ZM18.35 620.903H17.5855V619.814H18.35V620.903ZM18.35 623.605H17.5855V622.509H18.35V623.605ZM21.4179 623.698C20.2596 623.698 19.6187 622.802 19.6187 620.995C19.6187 619.181 20.2519 618.293 21.4179 618.293C22.5762 618.293 23.2172 619.181 23.2172 620.995C23.2172 622.795 22.5762 623.698 21.4179 623.698ZM21.4179 623.011C22.0743 623.011 22.4527 622.37 22.4527 620.995C22.4527 619.613 22.082 618.988 21.4179 618.988C20.7539 618.988 20.3832 619.605 20.3832 620.995C20.3832 622.378 20.7616 623.011 21.4179 623.011ZM26.0873 623.698C24.929 623.698 24.2881 622.802 24.2881 620.995C24.2881 619.181 24.9213 618.293 26.0873 618.293C27.2456 618.293 27.8866 619.181 27.8866 620.995C27.8866 622.795 27.2456 623.698 26.0873 623.698ZM26.0873 623.011C26.7437 623.011 27.1221 622.37 27.1221 620.995C27.1221 619.613 26.7514 618.988 26.0873 618.988C25.4233 618.988 25.0526 619.605 25.0526 620.995C25.0526 622.378 25.431 623.011 26.0873 623.011Z" fill="#614F41"/>
<path d="M10.8027 639.901L9.15015 641.593H11.6444V642.28H8.1154V641.616L10.2312 639.469C10.5864 639.106 10.7718 638.813 10.7718 638.45C10.7718 637.955 10.432 637.654 9.87602 637.654C9.22737 637.654 8.85671 638.002 8.85671 638.658C8.85671 638.789 8.87216 638.921 8.90305 639.067L8.16173 639.168C8.13084 638.967 8.10768 638.789 8.10768 638.62C8.10768 637.585 8.76405 636.967 9.84513 636.967C10.8413 636.967 11.5285 637.531 11.5285 638.427C11.5285 638.936 11.3432 639.353 10.8027 639.901ZM14.5454 637.538V637.067H15.3099V642.28H14.5454V638.45H13.3022V637.809H14.2751C14.445 637.809 14.5454 637.708 14.5454 637.538ZM18.35 639.577H17.5855V638.488H18.35V639.577ZM18.35 642.28H17.5855V641.183H18.35V642.28ZM21.4566 642.372C20.2828 642.372 19.5956 641.732 19.5956 640.643H20.3755C20.3832 641.299 20.7847 641.685 21.4411 641.685C22.0357 641.685 22.445 641.322 22.445 640.774C22.445 640.21 22.0512 639.847 21.3639 639.847H21.1554V639.214H21.3021C21.8581 639.214 22.2056 638.89 22.2056 638.403C22.2056 637.948 21.8813 637.647 21.3948 637.647C20.8774 637.647 20.5145 637.994 20.5145 638.542C20.5145 638.62 20.5222 638.704 20.5376 638.789L19.7809 638.828C19.7577 638.712 19.75 638.604 19.75 638.504C19.75 637.585 20.4064 636.967 21.4025 636.967C22.3446 636.967 22.9469 637.562 22.9469 638.318C22.9469 638.913 22.5762 639.307 22.1901 639.454C22.7539 639.585 23.2249 640.017 23.2249 640.774C23.2249 641.708 22.5145 642.372 21.4566 642.372ZM26.0873 642.372C24.929 642.372 24.2881 641.477 24.2881 639.67C24.2881 637.855 24.9213 636.967 26.0873 636.967C27.2456 636.967 27.8866 637.855 27.8866 639.67C27.8866 641.469 27.2456 642.372 26.0873 642.372ZM26.0873 641.685C26.7437 641.685 27.1221 641.044 27.1221 639.67C27.1221 638.288 26.7514 637.662 26.0873 637.662C25.4233 637.662 25.0526 638.28 25.0526 639.67C25.0526 641.052 25.431 641.685 26.0873 641.685Z" fill="#614F41"/>
<path d="M10.8027 658.576L9.15015 660.267H11.6444V660.955H8.1154V660.29L10.2312 658.144C10.5864 657.781 10.7718 657.487 10.7718 657.124C10.7718 656.63 10.432 656.329 9.87602 656.329C9.22737 656.329 8.85671 656.677 8.85671 657.333C8.85671 657.464 8.87216 657.596 8.90305 657.742L8.16173 657.843C8.13084 657.642 8.10768 657.464 8.10768 657.294C8.10768 656.26 8.76405 655.642 9.84513 655.642C10.8413 655.642 11.5285 656.206 11.5285 657.101C11.5285 657.611 11.3432 658.028 10.8027 658.576ZM15.4721 658.576L13.8196 660.267H16.3138V660.955H12.7848V660.29L14.9006 658.144C15.2558 657.781 15.4412 657.487 15.4412 657.124C15.4412 656.63 15.1014 656.329 14.5454 656.329C13.8968 656.329 13.5261 656.677 13.5261 657.333C13.5261 657.464 13.5416 657.596 13.5724 657.742L12.8311 657.843C12.8002 657.642 12.7771 657.464 12.7771 657.294C12.7771 656.26 13.4335 655.642 14.5145 655.642C15.5107 655.642 16.1979 656.206 16.1979 657.101C16.1979 657.611 16.0126 658.028 15.4721 658.576ZM18.35 658.252H17.5855V657.163H18.35V658.252ZM18.35 660.955H17.5855V659.858H18.35V660.955ZM21.4179 661.047C20.2596 661.047 19.6187 660.152 19.6187 658.345C19.6187 656.53 20.2519 655.642 21.4179 655.642C22.5762 655.642 23.2172 656.53 23.2172 658.345C23.2172 660.144 22.5762 661.047 21.4179 661.047ZM21.4179 660.36C22.0743 660.36 22.4527 659.719 22.4527 658.345C22.4527 656.962 22.082 656.337 21.4179 656.337C20.7539 656.337 20.3832 656.955 20.3832 658.345C20.3832 659.727 20.7616 660.36 21.4179 660.36ZM26.0873 661.047C24.929 661.047 24.2881 660.152 24.2881 658.345C24.2881 656.53 24.9213 655.642 26.0873 655.642C27.2456 655.642 27.8866 656.53 27.8866 658.345C27.8866 660.144 27.2456 661.047 26.0873 661.047ZM26.0873 660.36C26.7437 660.36 27.1221 659.719 27.1221 658.345C27.1221 656.962 26.7514 656.337 26.0873 656.337C25.4233 656.337 25.0526 656.955 25.0526 658.345C25.0526 659.727 25.431 660.36 26.0873 660.36Z" fill="#614F41"/>
<path d="M10.8027 677.251L9.15015 678.942H11.6444V679.629H8.1154V678.965L10.2312 676.819C10.5864 676.456 10.7718 676.162 10.7718 675.799C10.7718 675.305 10.432 675.004 9.87602 675.004C9.22737 675.004 8.85671 675.351 8.85671 676.008C8.85671 676.139 8.87216 676.27 8.90305 676.417L8.16173 676.517C8.13084 676.317 8.10768 676.139 8.10768 675.969C8.10768 674.934 8.76405 674.317 9.84513 674.317C10.8413 674.317 11.5285 674.88 11.5285 675.776C11.5285 676.286 11.3432 676.703 10.8027 677.251ZM15.4721 677.251L13.8196 678.942H16.3138V679.629H12.7848V678.965L14.9006 676.819C15.2558 676.456 15.4412 676.162 15.4412 675.799C15.4412 675.305 15.1014 675.004 14.5454 675.004C13.8968 675.004 13.5261 675.351 13.5261 676.008C13.5261 676.139 13.5416 676.27 13.5724 676.417L12.8311 676.517C12.8002 676.317 12.7771 676.139 12.7771 675.969C12.7771 674.934 13.4335 674.317 14.5145 674.317C15.5107 674.317 16.1979 674.88 16.1979 675.776C16.1979 676.286 16.0126 676.703 15.4721 677.251ZM18.35 676.927H17.5855V675.838H18.35V676.927ZM18.35 679.629H17.5855V678.533H18.35V679.629ZM21.4566 679.722C20.2828 679.722 19.5956 679.081 19.5956 677.992H20.3755C20.3832 678.649 20.7847 679.035 21.4411 679.035C22.0357 679.035 22.445 678.672 22.445 678.124C22.445 677.56 22.0512 677.197 21.3639 677.197H21.1554V676.564H21.3021C21.8581 676.564 22.2056 676.239 22.2056 675.753C22.2056 675.297 21.8813 674.996 21.3948 674.996C20.8774 674.996 20.5145 675.344 20.5145 675.892C20.5145 675.969 20.5222 676.054 20.5376 676.139L19.7809 676.178C19.7577 676.062 19.75 675.954 19.75 675.853C19.75 674.934 20.4064 674.317 21.4025 674.317C22.3446 674.317 22.9469 674.911 22.9469 675.668C22.9469 676.263 22.5762 676.656 22.1901 676.803C22.7539 676.934 23.2249 677.367 23.2249 678.124C23.2249 679.058 22.5145 679.722 21.4566 679.722ZM26.0873 679.722C24.929 679.722 24.2881 678.826 24.2881 677.019C24.2881 675.205 24.9213 674.317 26.0873 674.317C27.2456 674.317 27.8866 675.205 27.8866 677.019C27.8866 678.819 27.2456 679.722 26.0873 679.722ZM26.0873 679.035C26.7437 679.035 27.1221 678.394 27.1221 677.019C27.1221 675.637 26.7514 675.012 26.0873 675.012C25.4233 675.012 25.0526 675.629 25.0526 677.019C25.0526 678.402 25.431 679.035 26.0873 679.035Z" fill="#614F41"/>
<path d="M10.8027 695.926L9.15015 697.617H11.6444V698.304H8.1154V697.64L10.2312 695.493C10.5864 695.13 10.7718 694.837 10.7718 694.474C10.7718 693.98 10.432 693.679 9.87602 693.679C9.22737 693.679 8.85671 694.026 8.85671 694.683C8.85671 694.814 8.87216 694.945 8.90305 695.092L8.16173 695.192C8.13084 694.991 8.10768 694.814 8.10768 694.644C8.10768 693.609 8.76405 692.991 9.84513 692.991C10.8413 692.991 11.5285 693.555 11.5285 694.451C11.5285 694.961 11.3432 695.378 10.8027 695.926ZM14.5686 698.397C13.3948 698.397 12.7076 697.756 12.7076 696.667H13.4875C13.4952 697.324 13.8968 697.71 14.5531 697.71C15.1477 697.71 15.557 697.347 15.557 696.798C15.557 696.235 15.1632 695.872 14.4759 695.872H14.2674V695.239H14.4141C14.9701 695.239 15.3176 694.914 15.3176 694.428C15.3176 693.972 14.9933 693.671 14.5068 693.671C13.9894 693.671 13.6265 694.018 13.6265 694.567C13.6265 694.644 13.6342 694.729 13.6497 694.814L12.8929 694.852C12.8697 694.737 12.862 694.629 12.862 694.528C12.862 693.609 13.5184 692.991 14.5145 692.991C15.4566 692.991 16.0589 693.586 16.0589 694.343C16.0589 694.937 15.6883 695.331 15.3022 695.478C15.8659 695.609 16.3369 696.042 16.3369 696.798C16.3369 697.733 15.6265 698.397 14.5686 698.397ZM18.35 695.601H17.5855V694.513H18.35V695.601ZM18.35 698.304H17.5855V697.208H18.35V698.304ZM21.4179 698.397C20.2596 698.397 19.6187 697.501 19.6187 695.694C19.6187 693.879 20.2519 692.991 21.4179 692.991C22.5762 692.991 23.2172 693.879 23.2172 695.694C23.2172 697.493 22.5762 698.397 21.4179 698.397ZM21.4179 697.71C22.0743 697.71 22.4527 697.069 22.4527 695.694C22.4527 694.312 22.082 693.686 21.4179 693.686C20.7539 693.686 20.3832 694.304 20.3832 695.694C20.3832 697.076 20.7616 697.71 21.4179 697.71ZM26.0873 698.397C24.929 698.397 24.2881 697.501 24.2881 695.694C24.2881 693.879 24.9213 692.991 26.0873 692.991C27.2456 692.991 27.8866 693.879 27.8866 695.694C27.8866 697.493 27.2456 698.397 26.0873 698.397ZM26.0873 697.71C26.7437 697.71 27.1221 697.069 27.1221 695.694C27.1221 694.312 26.7514 693.686 26.0873 693.686C25.4233 693.686 25.0526 694.304 25.0526 695.694C25.0526 697.076 25.431 697.71 26.0873 697.71Z" fill="#614F41"/>
</svg>
