<svg width="557" height="710" viewBox="0 0 557 710" fill="none" xmlns="http://www.w3.org/2000/svg">
<path d="M8.44532 57.0351L9.65768 52.5872H10.4839L9.05536 57.7996H7.90478L6.90864 53.8073L5.9125 57.7996H4.76192L3.33335 52.5872H4.15961L5.36424 57.0196L6.46849 52.5872H7.34107L8.44532 57.0351ZM13.1632 53.0582V52.5872H13.9276V57.7996H13.1632V53.9694H11.9199V53.3285H12.8929C13.0628 53.3285 13.1632 53.2281 13.1632 53.0582Z" fill="#9A9A9A"/>
<rect x="0.459961" y="18.0471" width="17.3745" height="72.973" fill="#F8F8F8"/>
<rect x="0.459961" y="91.7922" width="17.3745" height="72.973" fill="#F8F8F8"/>
<rect x="0.459961" y="165.538" width="17.3745" height="72.973" fill="#F8F8F8"/>
<rect x="0.459961" y="239.283" width="17.3745" height="72.973" fill="#F8F8F8"/>
<rect x="0.459961" y="313.028" width="17.3745" height="72.973" fill="#F8F8F8"/>
<rect x="0.459961" y="386.773" width="17.3745" height="72.973" fill="#F8F8F8"/>
<rect x="0.459961" y="460.518" width="17.3745" height="72.973" fill="#F8F8F8"/>
<path d="M9.24472 57.3555L10.5806 53.5872H11.9474V58.7996H11.1521V54.0196L9.52271 58.7996H8.95901L7.32966 54.0196V58.7996H6.5343V53.5872H7.90109L9.24472 57.3555Z" fill="#9A9A9A"/>
<path d="M7.07024 128.309H11.4177V129.012H9.64167V133.522H8.84631V129.012H7.07024V128.309Z" fill="#9A9A9A"/>
<path d="M10.7805 206.622L11.9928 202.174H12.8191L11.3905 207.387H10.24L9.24381 203.394L8.24767 207.387H7.09709L5.66852 202.174H6.49478L7.69941 206.607L8.80366 202.174H9.67625L10.7805 206.622Z" fill="#9A9A9A"/>
<path d="M7.06989 276.039H11.4174V276.742H9.64132V281.251H8.84595V276.742H7.06989V276.039Z" fill="#9A9A9A"/>
<path d="M11.1299 349.904V350.607H8.31906V352.143H10.8519V352.838H8.31906V355.116H7.52369V349.904H11.1299Z" fill="#9A9A9A"/>
<path d="M9.20281 429.074C8.02134 429.074 7.25686 428.495 7.10242 427.483L7.8669 427.298C7.98273 427.993 8.49238 428.402 9.24914 428.402C9.91323 428.402 10.2993 428.078 10.2993 427.576C10.2993 426.974 9.6893 426.842 9.01748 426.673C8.20667 426.456 7.28775 426.202 7.28775 425.144C7.28775 424.271 8.01362 423.669 9.13331 423.669C10.0754 423.669 10.8785 424.093 11.087 425.136L10.3688 425.321C10.2221 424.619 9.75107 424.333 9.13331 424.333C8.47694 424.333 8.0754 424.642 8.0754 425.12C8.0754 425.669 8.63138 425.8 9.32636 425.97C10.1449 426.171 11.0947 426.464 11.0947 427.491C11.0947 428.472 10.4306 429.074 9.20281 429.074Z" fill="#9A9A9A"/>
<path d="M9.20281 502.939C8.02134 502.939 7.25686 502.36 7.10242 501.348L7.8669 501.163C7.98273 501.858 8.49238 502.267 9.24914 502.267C9.91323 502.267 10.2993 501.943 10.2993 501.441C10.2993 500.838 9.6893 500.707 9.01748 500.537C8.20667 500.321 7.28775 500.066 7.28775 499.008C7.28775 498.136 8.01362 497.533 9.13331 497.533C10.0754 497.533 10.8785 497.958 11.087 499.001L10.3688 499.186C10.2221 498.483 9.75107 498.198 9.13331 498.198C8.47694 498.198 8.0754 498.506 8.0754 498.985C8.0754 499.533 8.63138 499.665 9.32636 499.835C10.1449 500.035 11.0947 500.329 11.0947 501.356C11.0947 502.337 10.4306 502.939 9.20281 502.939Z" fill="#9A9A9A"/>
<path d="M66.7452 4.25869C67.332 4.44402 67.6795 4.85328 67.6795 5.56371C67.6795 6.77606 66.6216 7 65.9421 7H63.5328V1.78764H65.7876C66.8996 1.78764 67.4788 2.23552 67.4788 3.11583C67.4788 3.67954 67.2317 4.08108 66.7452 4.25869ZM66.6834 3.23938C66.6834 2.70656 66.3822 2.45174 65.7722 2.45174H64.3282V4.02703H65.7722C66.3822 4.02703 66.6834 3.76448 66.6834 3.23938ZM64.3282 6.31274H65.9498C66.5598 6.31274 66.8842 6.05791 66.8842 5.47876C66.8842 4.89961 66.5598 4.64479 65.9498 4.64479H64.3282V6.31274ZM73.0567 7H72.1687L70.8714 4.84556H69.7517V7H68.9563V1.78764H71.2111C72.3231 1.78764 73.0181 2.21236 73.0181 3.3166C73.0181 4.24324 72.5316 4.69112 71.7208 4.80695L73.0567 7ZM71.1803 2.49035H69.7517V4.14286H71.1803C71.8598 4.14286 72.2227 3.93436 72.2227 3.3166C72.2227 2.69884 71.8444 2.49035 71.1803 2.49035ZM77.8653 1.78764V2.49035H75.0545V4.02703H77.6337V4.72201H75.0545V6.2973H77.8653V7H74.2592V1.78764H77.8653ZM83.589 7H82.7396L82.2917 5.79537H79.9211L79.4732 7H78.6238L80.6083 1.78764H81.6045L83.589 7ZM81.1103 2.59073L80.1682 5.12355H82.0446L81.1103 2.59073ZM88.8793 7H87.9913L86.331 4.27413L85.3812 5.23166V7H84.5858V1.78764H85.3812V4.22008L87.7828 1.78764H88.7789L86.8793 3.71042L88.8793 7ZM93.4873 1.78764V2.49035H90.6765V4.02703H93.2093V4.72201H90.6765V7H89.8812V1.78764H93.4873ZM98.4645 7H97.615L97.1672 5.79537H94.7965L94.3486 7H93.4992L95.4838 1.78764H96.4799L98.4645 7ZM95.9857 2.59073L95.0436 5.12355H96.9201L95.9857 2.59073ZM101.238 7.09266C100.057 7.09266 99.2925 6.51351 99.138 5.50193L99.9025 5.3166C100.018 6.01158 100.528 6.42085 101.285 6.42085C101.949 6.42085 102.335 6.09653 102.335 5.59459C102.335 4.99228 101.725 4.861 101.053 4.69112C100.242 4.4749 99.3234 4.22008 99.3234 3.16216C99.3234 2.28958 100.049 1.68726 101.169 1.68726C102.111 1.68726 102.914 2.11197 103.123 3.15444L102.404 3.33977C102.258 2.63707 101.787 2.35135 101.169 2.35135C100.513 2.35135 100.111 2.66023 100.111 3.139C100.111 3.68726 100.667 3.81853 101.362 3.98842C102.181 4.18919 103.13 4.48263 103.13 5.50965C103.13 6.49035 102.466 7.09266 101.238 7.09266ZM103.818 1.78764H108.166V2.49035H106.39V7H105.594V2.49035H103.818V1.78764Z" fill="#333333"/>
<path d="M211.324 7H207.873V1.78764H208.668V6.2973H211.324V7ZM214.128 7.09266C212.924 7.09266 212.036 6.43629 212.036 5.18533V1.78764H212.831V5.08494C212.831 5.90347 213.341 6.3668 214.128 6.3668C214.916 6.3668 215.426 5.90347 215.426 5.08494V1.78764H216.221V5.18533C216.221 6.43629 215.333 7.09266 214.128 7.09266ZM221.248 5.91892V1.78764H222.043V7H221.07L218.414 2.84556V7H217.619V1.78764H218.584L221.248 5.91892ZM225.911 7.09266C224.367 7.09266 223.278 5.99614 223.278 4.38996C223.278 2.79151 224.367 1.68726 225.911 1.68726C227.186 1.68726 228.151 2.44402 228.437 3.60232L227.672 3.79537C227.487 3.02317 226.869 2.42085 225.911 2.42085C224.83 2.42085 224.074 3.21622 224.074 4.38996C224.074 5.57143 224.83 6.35907 225.911 6.35907C226.653 6.35907 227.247 5.98069 227.525 5.35521L228.267 5.6332C227.881 6.52896 227.008 7.09266 225.911 7.09266ZM230.415 7H229.619V1.78764H230.415V4.0193H233.017V1.78764H233.813V7H233.017V4.72201H230.415V7Z" fill="#333333"/>
<path d="M339.649 7H337.88V1.78764H339.649C341.494 1.78764 342.467 2.59846 342.467 4.38996C342.467 6.19691 341.479 7 339.649 7ZM338.676 2.49035V6.2973H339.649C340.969 6.2973 341.672 5.7027 341.672 4.38996C341.672 3.06178 340.938 2.49035 339.649 2.49035H338.676ZM344.506 7H343.711V1.78764H344.506V7ZM349.589 5.91892V1.78764H350.384V7H349.411L346.755 2.84556V7H345.96V1.78764H346.925L349.589 5.91892ZM355.473 5.91892V1.78764H356.268V7H355.295L352.639 2.84556V7H351.843V1.78764H352.808L355.473 5.91892ZM361.333 1.78764V2.49035H358.522V4.02703H361.101V4.72201H358.522V6.2973H361.333V7H357.727V1.78764H361.333ZM366.647 7H365.759L364.462 4.84556H363.342V7H362.547V1.78764H364.802C365.914 1.78764 366.609 2.21236 366.609 3.3166C366.609 4.24324 366.122 4.69112 365.311 4.80695L366.647 7ZM364.771 2.49035H363.342V4.14286H364.771C365.45 4.14286 365.813 3.93436 365.813 3.3166C365.813 2.69884 365.435 2.49035 364.771 2.49035Z" fill="#333333"/>
<path d="M471.695 7.09266C470.514 7.09266 469.749 6.51351 469.595 5.50193L470.359 5.3166C470.475 6.01158 470.985 6.42085 471.741 6.42085C472.405 6.42085 472.792 6.09653 472.792 5.59459C472.792 4.99228 472.182 4.861 471.51 4.69112C470.699 4.4749 469.78 4.22008 469.78 3.16216C469.78 2.28958 470.506 1.68726 471.626 1.68726C472.568 1.68726 473.371 2.11197 473.579 3.15444L472.861 3.33977C472.714 2.63707 472.243 2.35135 471.626 2.35135C470.969 2.35135 470.568 2.66023 470.568 3.139C470.568 3.68726 471.124 3.81853 471.819 3.98842C472.637 4.18919 473.587 4.48263 473.587 5.50965C473.587 6.49035 472.923 7.09266 471.695 7.09266ZM478.488 5.91892V1.78764H479.283V7H478.311L475.654 2.84556V7H474.859V1.78764H475.824L478.488 5.91892ZM485.252 7H484.403L483.955 5.79537H481.584L481.136 7H480.287L482.271 1.78764H483.267L485.252 7ZM482.773 2.59073L481.831 5.12355H483.708L482.773 2.59073ZM488.409 7.09266C486.865 7.09266 485.776 5.99614 485.776 4.38996C485.776 2.79151 486.865 1.68726 488.409 1.68726C489.683 1.68726 490.649 2.44402 490.934 3.60232L490.17 3.79537C489.984 3.02317 489.367 2.42085 488.409 2.42085C487.328 2.42085 486.571 3.21622 486.571 4.38996C486.571 5.57143 487.328 6.35907 488.409 6.35907C489.15 6.35907 489.745 5.98069 490.023 5.35521L490.764 5.6332C490.378 6.52896 489.506 7.09266 488.409 7.09266ZM496.411 7H495.523L493.862 4.27413L492.913 5.23166V7H492.117V1.78764H492.913V4.22008L495.314 1.78764H496.31L494.411 3.71042L496.411 7ZM499.107 7.09266C497.925 7.09266 497.161 6.51351 497.006 5.50193L497.771 5.3166C497.887 6.01158 498.396 6.42085 499.153 6.42085C499.817 6.42085 500.203 6.09653 500.203 5.59459C500.203 4.99228 499.593 4.861 498.921 4.69112C498.111 4.4749 497.192 4.22008 497.192 3.16216C497.192 2.28958 497.917 1.68726 499.037 1.68726C499.979 1.68726 500.782 2.11197 500.991 3.15444L500.273 3.33977C500.126 2.63707 499.655 2.35135 499.037 2.35135C498.381 2.35135 497.979 2.66023 497.979 3.139C497.979 3.68726 498.535 3.81853 499.23 3.98842C500.049 4.18919 500.999 4.48263 500.999 5.50965C500.999 6.49035 500.334 7.09266 499.107 7.09266Z" fill="#333333"/>
<path d="M17.834 17.0811V533.683" stroke="#9A9A9A" stroke-width="0.579151"/>
<path d="M152.391 17.0811V533.683" stroke="#9A9A9A" stroke-width="0.579151"/>
<path d="M286.946 17.0811V533.683" stroke="#9A9A9A" stroke-width="0.579151"/>
<path d="M421.502 17.0811V533.683" stroke="#9A9A9A" stroke-width="0.579151"/>
<path d="M556.059 17.0811V533.683" stroke="#9A9A9A" stroke-width="0.579151"/>
<path d="M17.4482 17.4673L555.865 17.4673" stroke="#333333" stroke-width="0.965251"/>
<path d="M17.834 91.2124H555.865" stroke="#9A9A9A" stroke-width="0.579151"/>
<path d="M17.834 164.958H555.865" stroke="#9A9A9A" stroke-width="0.579151"/>
<path d="M17.834 238.703H555.865" stroke="#9A9A9A" stroke-width="0.579151"/>
<path d="M17.834 312.448H555.865" stroke="#9A9A9A" stroke-width="0.579151"/>
<path d="M17.834 386.193H555.865" stroke="#9A9A9A" stroke-width="0.579151"/>
<path d="M17.834 459.938H555.865" stroke="#9A9A9A" stroke-width="0.579151"/>
<path d="M17.834 533.683H555.865" stroke="#9A9A9A" stroke-width="0.579151"/>
<path d="M3.35547 685.614H555.865" stroke="#9A9A9A" stroke-width="0.579151"/>
<path d="M3.35547 568.818H555.865" stroke="#333333" stroke-width="0.965251"/>
<path d="M3.35547 592.177H555.865" stroke="#9A9A9A" stroke-width="0.579151"/>
<path d="M3.35547 615.536H555.865" stroke="#9A9A9A" stroke-width="0.579151"/>
<path d="M3.35547 638.896H555.865" stroke="#9A9A9A" stroke-width="0.579151"/>
<path d="M3.35547 662.255H555.865" stroke="#9A9A9A" stroke-width="0.579151"/>
<path d="M3.35547 708.973H555.865" stroke="#9A9A9A" stroke-width="0.579151"/>
<path d="M7.98095 558.019H5.67207V557.347H8.72226V559.988H8.01184V559.123C7.67207 559.757 7.07748 560.081 6.22806 560.081C4.73771 560.081 3.66435 558.984 3.66435 557.378C3.66435 555.78 4.76087 554.676 6.29755 554.676C7.34775 554.676 8.48288 555.239 8.81493 556.552L8.05045 556.76C7.8574 555.988 7.23964 555.409 6.29755 555.409C5.21647 555.409 4.45972 556.204 4.45972 557.378C4.45972 558.552 5.18558 559.347 6.29755 559.347C7.14697 559.347 7.7879 558.884 7.98095 558.019ZM14.1437 559.988H13.2556L11.9583 557.834H10.8386V559.988H10.0433V554.776H12.2981C13.4101 554.776 14.105 555.201 14.105 556.305C14.105 557.232 13.6186 557.679 12.8077 557.795L14.1437 559.988ZM12.2672 555.479H10.8386V557.131H12.2672C12.9467 557.131 13.3097 556.923 13.3097 556.305C13.3097 555.687 12.9313 555.479 12.2672 555.479ZM17.7554 560.081C16.211 560.081 15.1222 558.984 15.1222 557.378C15.1222 555.78 16.211 554.676 17.7554 554.676C19.2998 554.676 20.3886 555.78 20.3886 557.378C20.3886 558.984 19.2998 560.081 17.7554 560.081ZM17.7554 559.347C18.8365 559.347 19.5932 558.56 19.5932 557.378C19.5932 556.204 18.8365 555.409 17.7554 555.409C16.6743 555.409 15.9175 556.204 15.9175 557.378C15.9175 558.56 16.6743 559.347 17.7554 559.347ZM24.0235 560.081C22.4791 560.081 21.3903 558.984 21.3903 557.378C21.3903 555.78 22.4791 554.676 24.0235 554.676C25.2976 554.676 26.2629 555.432 26.5486 556.591L25.7841 556.784C25.5988 556.011 24.981 555.409 24.0235 555.409C22.9424 555.409 22.1856 556.204 22.1856 557.378C22.1856 558.56 22.9424 559.347 24.0235 559.347C24.7648 559.347 25.3594 558.969 25.6374 558.343L26.3787 558.621C25.9926 559.517 25.12 560.081 24.0235 560.081ZM31.3377 554.776V555.479H28.5269V557.015H31.106V557.71H28.5269V559.286H31.3377V559.988H27.7315V554.776H31.3377ZM36.6521 559.988H35.7641L34.4668 557.834H33.3471V559.988H32.5517V554.776H34.8065C35.9185 554.776 36.6135 555.201 36.6135 556.305C36.6135 557.232 36.127 557.679 35.3162 557.795L36.6521 559.988ZM34.7757 555.479H33.3471V557.131H34.7757C35.4552 557.131 35.8181 556.923 35.8181 556.305C35.8181 555.687 35.4397 555.479 34.7757 555.479ZM38.6499 559.988H37.8546V554.776H38.6499V559.988ZM43.7095 554.776V555.479H40.8987V557.015H43.4778V557.71H40.8987V559.286H43.7095V559.988H40.1033V554.776H43.7095ZM46.6479 560.081C45.4664 560.081 44.7019 559.502 44.5475 558.49L45.312 558.305C45.4278 559 45.9375 559.409 46.6942 559.409C47.3583 559.409 47.7444 559.085 47.7444 558.583C47.7444 557.981 47.1344 557.849 46.4626 557.679C45.6517 557.463 44.7328 557.208 44.7328 556.15C44.7328 555.278 45.4587 554.676 46.5784 554.676C47.5205 554.676 48.3236 555.1 48.532 556.143L47.8139 556.328C47.6672 555.625 47.1961 555.34 46.5784 555.34C45.922 555.34 45.5205 555.649 45.5205 556.127C45.5205 556.676 46.0765 556.807 46.7714 556.977C47.59 557.177 48.5398 557.471 48.5398 558.498C48.5398 559.479 47.8757 560.081 46.6479 560.081ZM55.6554 559.988H52.2036V554.776H52.999V559.286H55.6554V559.988ZM57.5628 559.988H56.7674V554.776H57.5628V559.988ZM60.8386 560.081C59.6571 560.081 58.8926 559.502 58.7382 558.49L59.5027 558.305C59.6185 559 60.1282 559.409 60.8849 559.409C61.549 559.409 61.9351 559.085 61.9351 558.583C61.9351 557.981 61.3251 557.849 60.6532 557.679C59.8424 557.463 58.9235 557.208 58.9235 556.15C58.9235 555.278 59.6494 554.676 60.7691 554.676C61.7112 554.676 62.5143 555.1 62.7227 556.143L62.0046 556.328C61.8579 555.625 61.3868 555.34 60.7691 555.34C60.1127 555.34 59.7112 555.649 59.7112 556.127C59.7112 556.676 60.2671 556.807 60.9621 556.977C61.7807 557.177 62.7305 557.471 62.7305 558.498C62.7305 559.479 62.0664 560.081 60.8386 560.081ZM63.4185 554.776H67.766V555.479H65.9899V559.988H65.1946V555.479H63.4185V554.776Z" fill="#333333"/>
<path d="M11.9274 580.344C11.9274 582.653 10.0453 584.526 7.72198 584.526C5.39862 584.526 3.51661 582.653 3.51661 580.344C3.51661 578.035 5.39862 576.161 7.72198 576.161C10.0453 576.161 11.9274 578.035 11.9274 580.344Z" stroke="#9A9A9A" stroke-width="0.322282"/>
<path d="M11.9274 603.896C11.9274 606.205 10.0453 608.078 7.72198 608.078C5.39862 608.078 3.51661 606.205 3.51661 603.896C3.51661 601.587 5.39862 599.713 7.72198 599.713C10.0453 599.713 11.9274 601.587 11.9274 603.896Z" stroke="#9A9A9A" stroke-width="0.322282"/>
<path d="M11.9274 627.448C11.9274 629.757 10.0453 631.63 7.72198 631.63C5.39862 631.63 3.51661 629.757 3.51661 627.448C3.51661 625.139 5.39862 623.265 7.72198 623.265C10.0453 623.265 11.9274 625.139 11.9274 627.448Z" stroke="#9A9A9A" stroke-width="0.322282"/>
<path d="M11.9274 651C11.9274 653.309 10.0453 655.182 7.72198 655.182C5.39862 655.182 3.51661 653.309 3.51661 651C3.51661 648.691 5.39862 646.817 7.72198 646.817C10.0453 646.817 11.9274 648.691 11.9274 651Z" stroke="#9A9A9A" stroke-width="0.322282"/>
<path d="M11.9274 674.552C11.9274 676.861 10.0453 678.735 7.72198 678.735C5.39862 678.735 3.51661 676.861 3.51661 674.552C3.51661 672.243 5.39862 670.37 7.72198 670.37C10.0453 670.37 11.9274 672.243 11.9274 674.552Z" stroke="#9A9A9A" stroke-width="0.322282"/>
<path d="M148.939 580.344C148.939 582.653 147.057 584.526 144.734 584.526C142.41 584.526 140.528 582.653 140.528 580.344C140.528 578.035 142.41 576.161 144.734 576.161C147.057 576.161 148.939 578.035 148.939 580.344Z" stroke="#9A9A9A" stroke-width="0.322282"/>
<path d="M148.939 603.896C148.939 606.205 147.057 608.078 144.734 608.078C142.41 608.078 140.528 606.205 140.528 603.896C140.528 601.587 142.41 599.713 144.734 599.713C147.057 599.713 148.939 601.587 148.939 603.896Z" stroke="#9A9A9A" stroke-width="0.322282"/>
<path d="M148.939 627.448C148.939 629.757 147.057 631.63 144.734 631.63C142.41 631.63 140.528 629.757 140.528 627.448C140.528 625.139 142.41 623.265 144.734 623.265C147.057 623.265 148.939 625.139 148.939 627.448Z" stroke="#9A9A9A" stroke-width="0.322282"/>
<path d="M148.939 651C148.939 653.309 147.057 655.182 144.734 655.182C142.41 655.182 140.528 653.309 140.528 651C140.528 648.691 142.41 646.817 144.734 646.817C147.057 646.817 148.939 648.691 148.939 651Z" stroke="#9A9A9A" stroke-width="0.322282"/>
<path d="M148.939 674.552C148.939 676.861 147.057 678.735 144.734 678.735C142.41 678.735 140.528 676.861 140.528 674.552C140.528 672.243 142.41 670.37 144.734 670.37C147.057 670.37 148.939 672.243 148.939 674.552Z" stroke="#9A9A9A" stroke-width="0.322282"/>
<path d="M285.951 580.344C285.951 582.653 284.069 584.526 281.745 584.526C279.422 584.526 277.54 582.653 277.54 580.344C277.54 578.035 279.422 576.161 281.745 576.161C284.069 576.161 285.951 578.035 285.951 580.344Z" stroke="#9A9A9A" stroke-width="0.322282"/>
<path d="M285.951 603.896C285.951 606.205 284.069 608.078 281.745 608.078C279.422 608.078 277.54 606.205 277.54 603.896C277.54 601.587 279.422 599.713 281.745 599.713C284.069 599.713 285.951 601.587 285.951 603.896Z" stroke="#9A9A9A" stroke-width="0.322282"/>
<path d="M285.951 627.448C285.951 629.757 284.069 631.63 281.745 631.63C279.422 631.63 277.54 629.757 277.54 627.448C277.54 625.139 279.422 623.265 281.745 623.265C284.069 623.265 285.951 625.139 285.951 627.448Z" stroke="#9A9A9A" stroke-width="0.322282"/>
<path d="M285.951 651C285.951 653.309 284.069 655.182 281.745 655.182C279.422 655.182 277.54 653.309 277.54 651C277.54 648.691 279.422 646.817 281.745 646.817C284.069 646.817 285.951 648.691 285.951 651Z" stroke="#9A9A9A" stroke-width="0.322282"/>
<path d="M285.951 674.552C285.951 676.861 284.069 678.735 281.745 678.735C279.422 678.735 277.54 676.861 277.54 674.552C277.54 672.243 279.422 670.37 281.745 670.37C284.069 670.37 285.951 672.243 285.951 674.552Z" stroke="#9A9A9A" stroke-width="0.322282"/>
<path d="M422.962 580.344C422.962 582.653 421.08 584.526 418.756 584.526C416.433 584.526 414.551 582.653 414.551 580.344C414.551 578.035 416.433 576.161 418.756 576.161C421.08 576.161 422.962 578.035 422.962 580.344Z" stroke="#9A9A9A" stroke-width="0.322282"/>
<path d="M422.962 603.896C422.962 606.205 421.08 608.078 418.756 608.078C416.433 608.078 414.551 606.205 414.551 603.896C414.551 601.587 416.433 599.713 418.756 599.713C421.08 599.713 422.962 601.587 422.962 603.896Z" stroke="#9A9A9A" stroke-width="0.322282"/>
<path d="M422.962 627.448C422.962 629.757 421.08 631.63 418.756 631.63C416.433 631.63 414.551 629.757 414.551 627.448C414.551 625.139 416.433 623.265 418.756 623.265C421.08 623.265 422.962 625.139 422.962 627.448Z" stroke="#9A9A9A" stroke-width="0.322282"/>
<path d="M422.962 651C422.962 653.309 421.08 655.182 418.756 655.182C416.433 655.182 414.551 653.309 414.551 651C414.551 648.691 416.433 646.817 418.756 646.817C421.08 646.817 422.962 648.691 422.962 651Z" stroke="#9A9A9A" stroke-width="0.322282"/>
<path d="M422.962 674.552C422.962 676.861 421.08 678.735 418.756 678.735C416.433 678.735 414.551 676.861 414.551 674.552C414.551 672.243 416.433 670.37 418.756 670.37C421.08 670.37 422.962 672.243 422.962 674.552Z" stroke="#9A9A9A" stroke-width="0.322282"/>
<path d="M11.9274 698.104C11.9274 700.413 10.0453 702.287 7.72198 702.287C5.39862 702.287 3.51661 700.413 3.51661 698.104C3.51661 695.795 5.39862 693.922 7.72198 693.922C10.0453 693.922 11.9274 695.795 11.9274 698.104Z" stroke="#9A9A9A" stroke-width="0.322282"/>
<path d="M148.939 698.104C148.939 700.413 147.057 702.287 144.734 702.287C142.41 702.287 140.528 700.413 140.528 698.104C140.528 695.795 142.41 693.922 144.734 693.922C147.057 693.922 148.939 695.795 148.939 698.104Z" stroke="#9A9A9A" stroke-width="0.322282"/>
<path d="M285.951 698.104C285.951 700.413 284.069 702.287 281.745 702.287C279.422 702.287 277.54 700.413 277.54 698.104C277.54 695.795 279.422 693.922 281.745 693.922C284.069 693.922 285.951 695.795 285.951 698.104Z" stroke="#9A9A9A" stroke-width="0.322282"/>
<path d="M422.962 698.104C422.962 700.413 421.08 702.287 418.756 702.287C416.433 702.287 414.551 700.413 414.551 698.104C414.551 695.795 416.433 693.922 418.756 693.922C421.08 693.922 422.962 695.795 422.962 698.104Z" stroke="#9A9A9A" stroke-width="0.322282"/>
</svg>
