<svg width="554" height="658" viewBox="0 0 554 658" fill="none" xmlns="http://www.w3.org/2000/svg">
<path d="M1 296.613H267.602" stroke="#626463" stroke-width="0.965251"/>
<path d="M1 316.883H267.602" stroke="#A0907F" stroke-width="0.579151"/>
<path d="M1 337.153H267.602" stroke="#A0907F" stroke-width="0.579151"/>
<path d="M1 357.424H267.602" stroke="#A0907F" stroke-width="0.579151"/>
<path d="M1 377.694H267.602" stroke="#A0907F" stroke-width="0.579151"/>
<path d="M1 397.964H267.602" stroke="#A0907F" stroke-width="0.579151"/>
<path d="M1 417.848H267.602" stroke="#A0907F" stroke-width="0.579151"/>
<path d="M1 437.732H267.602" stroke="#A0907F" stroke-width="0.579151"/>
<path d="M1 457.617H267.602" stroke="#A0907F" stroke-width="0.579151"/>
<path d="M1 477.501H267.602" stroke="#A0907F" stroke-width="0.579151"/>
<path d="M1 497.385H267.602" stroke="#A0907F" stroke-width="0.579151"/>
<path d="M1 576.922H267.602" stroke="#A0907F" stroke-width="0.579151"/>
<path d="M1 656.458H267.602" stroke="#A0907F" stroke-width="0.579151"/>
<path d="M1 517.269H267.602" stroke="#A0907F" stroke-width="0.579151"/>
<path d="M1 596.806H267.602" stroke="#A0907F" stroke-width="0.579151"/>
<path d="M1 537.153H267.602" stroke="#A0907F" stroke-width="0.579151"/>
<path d="M1 616.69H267.602" stroke="#A0907F" stroke-width="0.579151"/>
<path d="M1 557.038H267.602" stroke="#A0907F" stroke-width="0.579151"/>
<path d="M1 636.574H267.602" stroke="#A0907F" stroke-width="0.579151"/>
<path d="M1.07722 286.431H5.42471V287.134H3.64865V291.644H2.85328V287.134H1.07722V286.431ZM10.1765 291.644H9.32704L8.87916 290.439H6.50851L6.06063 291.644H5.21121L7.19577 286.431H8.1919L10.1765 291.644ZM7.6977 287.234L6.75561 289.767H8.63206L7.6977 287.234ZM12.9504 291.736C11.7689 291.736 11.0045 291.157 10.85 290.145L11.6145 289.96C11.7303 290.655 12.24 291.064 12.9967 291.064C13.6608 291.064 14.0469 290.74 14.0469 290.238C14.0469 289.636 13.4369 289.505 12.7651 289.335C11.9543 289.118 11.0354 288.864 11.0354 287.806C11.0354 286.933 11.7612 286.331 12.8809 286.331C13.823 286.331 14.6261 286.756 14.8346 287.798L14.1164 287.983C13.9697 287.281 13.4987 286.995 12.8809 286.995C12.2245 286.995 11.823 287.304 11.823 287.783C11.823 288.331 12.379 288.462 13.074 288.632C13.8925 288.833 14.8423 289.126 14.8423 290.153C14.8423 291.134 14.1782 291.736 12.9504 291.736ZM20.4076 291.644H19.5195L17.8593 288.918L16.9095 289.875V291.644H16.1141V286.431H16.9095V288.864L19.3111 286.431H20.3072L18.4076 288.354L20.4076 291.644Z" fill="#626463"/>
<path d="M211.031 291.257H209.262V286.045H211.031C212.876 286.045 213.849 286.856 213.849 288.647C213.849 290.454 212.861 291.257 211.031 291.257ZM210.058 286.748V290.555H211.031C212.351 290.555 213.054 289.96 213.054 288.647C213.054 287.319 212.32 286.748 211.031 286.748H210.058ZM218.699 286.045V286.748H215.888V288.284H218.467V288.979H215.888V290.555H218.699V291.257H215.093V286.045H218.699ZM224.423 291.257H223.573L223.125 290.053H220.755L220.307 291.257H219.457L221.442 286.045H222.438L224.423 291.257ZM221.944 286.848L221.002 289.381H222.878L221.944 286.848ZM227.195 291.257H225.427V286.045H227.195C229.041 286.045 230.014 286.856 230.014 288.647C230.014 290.454 229.026 291.257 227.195 291.257ZM226.223 286.748V290.555H227.195C228.516 290.555 229.219 289.96 229.219 288.647C229.219 287.319 228.485 286.748 227.195 286.748H226.223ZM234.709 291.257H231.258V286.045H232.053V290.555H234.709V291.257ZM236.617 291.257H235.822V286.045H236.617V291.257ZM241.7 290.176V286.045H242.495V291.257H241.522L238.866 287.103V291.257H238.07V286.045H239.036L241.7 290.176ZM247.56 286.045V286.748H244.749V288.284H247.328V288.979H244.749V290.555H247.56V291.257H243.954V286.045H247.56Z" fill="#626463"/>
<mask id="path-22-inside-1_518_3950" fill="white">
<path d="M183.818 296.806H267.602V656.458H183.818V296.806Z"/>
</mask>
<path d="M184.398 656.458V296.806H183.239V656.458H184.398Z" fill="#A0907F" mask="url(#path-22-inside-1_518_3950)"/>
<circle cx="6.01961" cy="306.826" r="4.6332" stroke="#A0907F" stroke-width="0.3861"/>
<circle cx="6.01961" cy="326.903" r="4.6332" stroke="#A0907F" stroke-width="0.3861"/>
<path d="M10.6528 346.884C10.6528 349.386 8.58216 351.421 6.01961 351.421C3.45707 351.421 1.38641 349.386 1.38641 346.884C1.38641 344.382 3.45707 342.347 6.01961 342.347C8.58216 342.347 10.6528 344.382 10.6528 346.884Z" stroke="#A0907F" stroke-width="0.3861"/>
<circle cx="6.01961" cy="366.865" r="4.6332" stroke="#A0907F" stroke-width="0.3861"/>
<circle cx="6.01961" cy="386.942" r="4.6332" stroke="#A0907F" stroke-width="0.3861"/>
<circle cx="6.01961" cy="407.019" r="4.6332" stroke="#A0907F" stroke-width="0.3861"/>
<path d="M10.6528 427C10.6528 429.502 8.58216 431.536 6.01961 431.536C3.45707 431.536 1.38641 429.502 1.38641 427C1.38641 424.498 3.45707 422.463 6.01961 422.463C8.58216 422.463 10.6528 424.498 10.6528 427Z" stroke="#A0907F" stroke-width="0.3861"/>
<circle cx="6.01961" cy="446.981" r="4.6332" stroke="#A0907F" stroke-width="0.3861"/>
<circle cx="6.01961" cy="467.058" r="4.6332" stroke="#A0907F" stroke-width="0.3861"/>
<circle cx="6.01961" cy="487.135" r="4.6332" stroke="#A0907F" stroke-width="0.3861"/>
<path d="M10.6528 507.115C10.6528 509.617 8.58216 511.652 6.01961 511.652C3.45707 511.652 1.38641 509.617 1.38641 507.115C1.38641 504.614 3.45707 502.579 6.01961 502.579C8.58216 502.579 10.6528 504.614 10.6528 507.115Z" stroke="#A0907F" stroke-width="0.3861"/>
<circle cx="6.01961" cy="527.096" r="4.6332" stroke="#A0907F" stroke-width="0.3861"/>
<circle cx="6.01961" cy="547.173" r="4.6332" stroke="#A0907F" stroke-width="0.3861"/>
<circle cx="6.01961" cy="567.251" r="4.6332" stroke="#A0907F" stroke-width="0.3861"/>
<path d="M10.6528 587.232C10.6528 589.734 8.58216 591.768 6.01961 591.768C3.45707 591.768 1.38641 589.734 1.38641 587.232C1.38641 584.73 3.45707 582.695 6.01961 582.695C8.58216 582.695 10.6528 584.73 10.6528 587.232Z" stroke="#A0907F" stroke-width="0.3861"/>
<circle cx="6.01961" cy="607.212" r="4.6332" stroke="#A0907F" stroke-width="0.3861"/>
<circle cx="6.01961" cy="627.29" r="4.6332" stroke="#A0907F" stroke-width="0.3861"/>
<circle cx="6.01961" cy="647.367" r="4.6332" stroke="#A0907F" stroke-width="0.3861"/>
<rect x="0.586914" y="0.721191" width="552.896" height="140.734" fill="#F1F1F1"/>
<path d="M244.075 21.4278C245.465 21.4162 247.087 20.617 247.087 18.9722C247.087 17.8602 246.345 17.0957 244.99 17.0957C244.388 17.0957 244.075 17.2463 244.075 17.8139V21.4278ZM242.685 24.9722V24.8563C242.871 24.8448 243.033 24.7405 243.033 24.2772V17.559C243.033 17.0957 242.871 16.9915 242.685 16.9799V16.8641H245.002C246.925 16.8641 248.245 17.6749 248.245 18.9953C248.245 20.698 246.079 21.6478 244.075 21.6594V24.2772C244.075 24.7405 244.237 24.8448 244.423 24.8563V24.9722H242.685ZM252.197 19.7135C251.316 19.7135 250.853 21.1961 250.853 22.5977V24.2772C250.853 24.7405 251.015 24.8448 251.201 24.8563V24.9722H249.463V24.8563C249.648 24.8448 249.811 24.7405 249.811 24.2772V19.8756C249.811 19.4123 249.648 19.3081 249.463 19.2965V19.1807H250.853V20.9065C251.131 19.8988 251.675 19.0648 252.463 19.0648C252.706 19.0648 252.984 19.1459 253.204 19.4239V20.5822H253.065C252.857 19.9104 252.509 19.7135 252.197 19.7135ZM254.127 22.0764C254.127 20.3853 255.378 19.0648 256.965 19.0648C258.552 19.0648 259.803 20.3853 259.803 22.0764C259.803 23.7675 258.552 25.088 256.965 25.088C255.378 25.088 254.127 23.7675 254.127 22.0764ZM255.285 22.0764C255.285 23.756 255.946 24.8563 256.965 24.8563C257.984 24.8563 258.644 23.756 258.644 22.0764C258.644 20.3969 257.984 19.2965 256.965 19.2965C255.946 19.2965 255.285 20.3969 255.285 22.0764ZM261.364 17.5706C261.364 17.2926 261.538 17.0726 261.851 17.0726C262.187 17.0726 262.407 17.3158 262.407 17.6517C262.407 18.1034 262.013 18.5552 261.364 18.6942C261.723 18.1961 261.364 17.9644 261.364 17.5706ZM260.113 27.7521C260.866 27.6015 261.364 26.7212 261.364 25.5513V19.8756C261.364 19.4123 261.202 19.3081 261.017 19.2965V19.1807H262.407V25.5513C262.407 26.8486 261.492 27.7753 260.125 27.8679L260.113 27.7521ZM268.633 23.5822L268.726 23.6517C268.309 24.4162 267.498 25.088 266.467 25.088C264.973 25.088 263.792 23.6749 263.792 22.0301C263.792 20.3853 264.973 19.0648 266.583 19.0648C267.741 19.0648 268.599 19.7482 268.599 20.5359C268.599 21.7289 266.676 22.3197 265.008 22.5861C265.263 23.8949 266.189 24.4625 267.035 24.4625C267.672 24.4625 268.297 24.1382 268.633 23.5822ZM264.973 22.3544C266.537 22.1112 267.556 21.5668 267.556 20.4664C267.556 19.8525 267.185 19.2965 266.537 19.2965C265.633 19.2965 264.938 20.3969 264.938 21.8448C264.938 22.0301 264.95 22.1922 264.973 22.3544ZM274.733 23.5822L274.825 23.6517C274.408 24.4162 273.597 25.088 272.567 25.088C271.072 25.088 269.891 23.6749 269.891 22.0301C269.891 20.3853 271.072 19.0648 272.763 19.0648C273.493 19.0648 274.142 19.3081 274.698 19.7714V20.9297H274.559C274.153 19.9799 273.528 19.2965 272.74 19.2965C271.733 19.2965 271.038 20.3969 271.038 21.8448C271.038 23.6749 272.138 24.4625 273.134 24.4625C273.771 24.4625 274.397 24.1382 274.733 23.5822ZM278.767 24.4162C278.57 24.8216 278.165 25.088 277.713 25.088C277.018 25.088 276.566 24.4625 276.566 23.5243V19.4123H275.871V19.1807C276.613 19.1343 277.134 18.6942 277.377 17.837H277.609V19.1807H278.767V19.4123H277.609V23.617C277.609 24.2656 277.794 24.6131 278.153 24.6131C278.304 24.6131 278.512 24.5552 278.675 24.3467L278.767 24.4162ZM285.198 24.9722V24.8563C285.383 24.8448 285.545 24.7405 285.545 24.2772V17.7907C285.545 17.2579 285.36 17.0957 284.978 17.0957C284.329 17.0957 283.738 17.559 283.518 18.254H283.402V16.8641H288.73V18.254H288.615C288.395 17.559 287.804 17.0957 287.155 17.0957C286.773 17.0957 286.588 17.2579 286.588 17.7907V24.2772C286.588 24.7405 286.75 24.8448 286.935 24.8563V24.9722H285.198ZM290.234 17.5706C290.234 17.2926 290.407 17.0726 290.72 17.0726C291.056 17.0726 291.276 17.3158 291.276 17.6517C291.276 18.1034 290.882 18.5552 290.234 18.6942C290.593 18.1961 290.234 17.9644 290.234 17.5706ZM289.886 24.9722V24.8563C290.071 24.8448 290.234 24.7405 290.234 24.2772V19.8756C290.234 19.4123 290.071 19.3081 289.886 19.2965V19.1807H291.276V24.2772C291.276 24.7405 291.438 24.8448 291.623 24.8563V24.9722H289.886ZM295.506 24.4162C295.309 24.8216 294.904 25.088 294.452 25.088C293.757 25.088 293.305 24.4625 293.305 23.5243V19.4123H292.61V19.1807C293.352 19.1343 293.873 18.6942 294.116 17.837H294.348V19.1807H295.506V19.4123H294.348V23.617C294.348 24.2656 294.533 24.6131 294.892 24.6131C295.043 24.6131 295.251 24.5552 295.413 24.3467L295.506 24.4162ZM299.388 24.4162C299.191 24.8216 298.786 25.088 298.334 25.088C297.639 25.088 297.187 24.4625 297.187 23.5243V19.4123H296.492V19.1807C297.234 19.1343 297.755 18.6942 297.998 17.837H298.23V19.1807H299.388V19.4123H298.23V23.617C298.23 24.2656 298.415 24.6131 298.774 24.6131C298.925 24.6131 299.133 24.5552 299.296 24.3467L299.388 24.4162ZM300.548 24.9722V24.8563C300.734 24.8448 300.896 24.7405 300.896 24.2772V17.559C300.896 17.0957 300.734 16.9915 300.548 16.9799V16.8641H301.938V24.2772C301.938 24.7405 302.1 24.8448 302.286 24.8563V24.9722H300.548ZM308.346 23.5822L308.439 23.6517C308.022 24.4162 307.211 25.088 306.18 25.088C304.686 25.088 303.504 23.6749 303.504 22.0301C303.504 20.3853 304.686 19.0648 306.296 19.0648C307.454 19.0648 308.311 19.7482 308.311 20.5359C308.311 21.7289 306.388 22.3197 304.72 22.5861C304.975 23.8949 305.902 24.4625 306.747 24.4625C307.385 24.4625 308.01 24.1382 308.346 23.5822ZM304.686 22.3544C306.249 22.1112 307.269 21.5668 307.269 20.4664C307.269 19.8525 306.898 19.2965 306.249 19.2965C305.346 19.2965 304.651 20.3969 304.651 21.8448C304.651 22.0301 304.663 22.1922 304.686 22.3544Z" fill="#626463"/>
<path d="M78.4867 106.462C77.3053 106.462 76.5408 105.883 76.3864 104.872L77.1508 104.686C77.2667 105.381 77.7763 105.79 78.5331 105.79C79.1972 105.79 79.5833 105.466 79.5833 104.964C79.5833 104.362 78.9732 104.231 78.3014 104.061C77.4906 103.845 76.5717 103.59 76.5717 102.532C76.5717 101.659 77.2976 101.057 78.4172 101.057C79.3593 101.057 80.1624 101.482 80.3709 102.524L79.6528 102.709C79.506 102.007 79.035 101.721 78.4172 101.721C77.7609 101.721 77.3593 102.03 77.3593 102.509C77.3593 103.057 77.9153 103.188 78.6103 103.358C79.4288 103.559 80.3786 103.852 80.3786 104.879C80.3786 105.86 79.7145 106.462 78.4867 106.462ZM81.0667 101.157H85.4142V101.86H83.6381V106.37H82.8427V101.86H81.0667V101.157ZM90.1659 106.37H89.3165L88.8686 105.165H86.498L86.0501 106.37H85.2007L87.1852 101.157H88.1814L90.1659 106.37ZM87.6871 101.96L86.7451 104.493H88.6215L87.6871 101.96ZM95.2631 106.37H94.3751L93.0778 104.215H91.9581V106.37H91.1627V101.157H93.4175C94.5295 101.157 95.2245 101.582 95.2245 102.686C95.2245 103.613 94.738 104.061 93.9272 104.177L95.2631 106.37ZM93.3867 101.86H91.9581V103.512H93.3867C94.0662 103.512 94.4291 103.304 94.4291 102.686C94.4291 102.068 94.0507 101.86 93.3867 101.86ZM95.9723 101.157H100.32V101.86H98.5437V106.37H97.7483V101.86H95.9723V101.157ZM105.099 106.37H103.331V101.157H105.099C106.945 101.157 107.918 101.968 107.918 103.76C107.918 105.567 106.93 106.37 105.099 106.37ZM104.126 101.86V105.667H105.099C106.42 105.667 107.123 105.072 107.123 103.76C107.123 102.431 106.389 101.86 105.099 101.86H104.126ZM113.438 106.37H112.588L112.14 105.165H109.77L109.322 106.37H108.472L110.457 101.157H111.453L113.438 106.37ZM110.959 101.96L110.017 104.493H111.893L110.959 101.96ZM113.225 101.157H117.572V101.86H115.796V106.37H115.001V101.86H113.225V101.157ZM122.325 101.157V101.86H119.514V103.397H122.094V104.092H119.514V105.667H122.325V106.37H118.719V101.157H122.325Z" fill="#626463"/>
<path d="M258.982 106.37H257.214V101.157H258.982C260.828 101.157 261.801 101.968 261.801 103.76C261.801 105.567 260.812 106.37 258.982 106.37ZM258.009 101.86V105.667H258.982C260.303 105.667 261.005 105.072 261.005 103.76C261.005 102.431 260.272 101.86 258.982 101.86H258.009ZM265.083 106.462C263.878 106.462 262.99 105.806 262.99 104.555V101.157H263.786V104.455C263.786 105.273 264.295 105.736 265.083 105.736C265.871 105.736 266.38 105.273 266.38 104.455V101.157H267.176V104.555C267.176 105.806 266.288 106.462 265.083 106.462ZM272.18 101.157V101.86H269.369V103.397H271.948V104.092H269.369V105.667H272.18V106.37H268.573V101.157H272.18ZM277.562 106.37H275.793V101.157H277.562C279.407 101.157 280.38 101.968 280.38 103.76C280.38 105.567 279.392 106.37 277.562 106.37ZM276.589 101.86V105.667H277.562C278.882 105.667 279.585 105.072 279.585 103.76C279.585 102.431 278.851 101.86 277.562 101.86H276.589ZM285.9 106.37H285.05L284.602 105.165H282.232L281.784 106.37H280.934L282.919 101.157H283.915L285.9 106.37ZM283.421 101.96L282.479 104.493H284.355L283.421 101.96ZM285.687 101.157H290.034V101.86H288.258V106.37H287.463V101.86H285.687V101.157ZM294.788 101.157V101.86H291.977V103.397H294.556V104.092H291.977V105.667H294.788V106.37H291.181V101.157H294.788Z" fill="#626463"/>
<path d="M419.124 106.462C417.579 106.462 416.491 105.366 416.491 103.76C416.491 102.161 417.579 101.057 419.124 101.057C420.398 101.057 421.363 101.814 421.649 102.972L420.884 103.165C420.699 102.393 420.081 101.79 419.124 101.79C418.043 101.79 417.286 102.586 417.286 103.76C417.286 104.941 418.043 105.729 419.124 105.729C419.865 105.729 420.46 105.35 420.738 104.725L421.479 105.003C421.093 105.899 420.22 106.462 419.124 106.462ZM425.181 106.462C423.636 106.462 422.548 105.366 422.548 103.76C422.548 102.161 423.636 101.057 425.181 101.057C426.725 101.057 427.814 102.161 427.814 103.76C427.814 105.366 426.725 106.462 425.181 106.462ZM425.181 105.729C426.262 105.729 427.019 104.941 427.019 103.76C427.019 102.586 426.262 101.79 425.181 101.79C424.1 101.79 423.343 102.586 423.343 103.76C423.343 104.941 424.1 105.729 425.181 105.729ZM431.75 104.926L433.086 101.157H434.453V106.37H433.657V101.59L432.028 106.37H431.464L429.835 101.59V106.37H429.04V101.157H430.406L431.75 104.926ZM435.911 101.157H438.05C439.162 101.157 439.857 101.582 439.857 102.686C439.857 103.79 439.162 104.215 438.05 104.215H436.706V106.37H435.911V101.157ZM436.706 103.512H438.019C438.699 103.512 439.062 103.304 439.062 102.686C439.062 102.068 438.691 101.86 438.019 101.86H436.706V103.512ZM444.447 106.37H440.995V101.157H441.791V105.667H444.447V106.37ZM449.165 101.157V101.86H446.354V103.397H448.934V104.092H446.354V105.667H449.165V106.37H445.559V101.157H449.165ZM450.037 101.157H454.384V101.86H452.608V106.37H451.813V101.86H450.037V101.157ZM459.137 101.157V101.86H456.327V103.397H458.906V104.092H456.327V105.667H459.137V106.37H455.531V101.157H459.137ZM462.128 106.37H460.359V101.157H462.128C463.973 101.157 464.946 101.968 464.946 103.76C464.946 105.567 463.958 106.37 462.128 106.37ZM461.155 101.86V105.667H462.128C463.448 105.667 464.151 105.072 464.151 103.76C464.151 102.431 463.417 101.86 462.128 101.86H461.155ZM470.358 106.37H468.589V101.157H470.358C472.203 101.157 473.176 101.968 473.176 103.76C473.176 105.567 472.188 106.37 470.358 106.37ZM469.385 101.86V105.667H470.358C471.678 105.667 472.381 105.072 472.381 103.76C472.381 102.431 471.647 101.86 470.358 101.86H469.385ZM478.696 106.37H477.846L477.399 105.165H475.028L474.58 106.37H473.731L475.715 101.157H476.711L478.696 106.37ZM476.217 101.96L475.275 104.493H477.151L476.217 101.96ZM478.483 101.157H482.83V101.86H481.054V106.37H480.259V101.86H478.483V101.157ZM487.584 101.157V101.86H484.773V103.397H487.352V104.092H484.773V105.667H487.584V106.37H483.977V101.157H487.584Z" fill="#626463"/>
<rect x="18.8303" y="112.015" width="160.811" height="17.9537" rx="8.97683" stroke="#A0907F" stroke-width="0.965251"/>
<rect x="195.085" y="112.015" width="160.811" height="17.9537" rx="8.97683" stroke="#A0907F" stroke-width="0.965251"/>
<rect x="371.34" y="112.015" width="160.811" height="17.9537" rx="8.97683" stroke="#A0907F" stroke-width="0.965251"/>
<path d="M115.091 173.359H117.23C118.342 173.359 119.037 173.784 119.037 174.888C119.037 175.992 118.342 176.417 117.23 176.417H115.886V178.571H115.091V173.359ZM115.886 175.714H117.199C117.879 175.714 118.242 175.506 118.242 174.888C118.242 174.27 117.871 174.062 117.199 174.062H115.886V175.714ZM124.276 178.571H123.388L122.09 176.417H120.971V178.571H120.175V173.359H122.43C123.542 173.359 124.237 173.784 124.237 174.888C124.237 175.815 123.751 176.262 122.94 176.378L124.276 178.571ZM122.399 174.062H120.971V175.714H122.399C123.079 175.714 123.442 175.506 123.442 174.888C123.442 174.27 123.063 174.062 122.399 174.062ZM127.887 178.664C126.343 178.664 125.254 177.567 125.254 175.961C125.254 174.363 126.343 173.259 127.887 173.259C129.432 173.259 130.521 174.363 130.521 175.961C130.521 177.567 129.432 178.664 127.887 178.664ZM127.887 177.93C128.968 177.93 129.725 177.143 129.725 175.961C129.725 174.788 128.968 173.992 127.887 173.992C126.806 173.992 126.05 174.788 126.05 175.961C126.05 177.143 126.806 177.93 127.887 177.93ZM132.103 178.664C131.694 178.664 131.285 178.556 130.868 178.309L131.207 177.66C131.462 177.83 131.725 177.923 132.01 177.923C132.505 177.923 132.76 177.583 132.76 176.965V173.359H133.555V177.104C133.555 178.093 132.96 178.664 132.103 178.664ZM138.589 173.359V174.062H135.778V175.598H138.357V176.293H135.778V177.869H138.589V178.571H134.983V173.359H138.589ZM142.175 178.664C140.63 178.664 139.541 177.567 139.541 175.961C139.541 174.363 140.63 173.259 142.175 173.259C143.449 173.259 144.414 174.015 144.7 175.174L143.935 175.367C143.75 174.594 143.132 173.992 142.175 173.992C141.094 173.992 140.337 174.788 140.337 175.961C140.337 177.143 141.094 177.93 142.175 177.93C142.916 177.93 143.511 177.552 143.789 176.927L144.53 177.204C144.144 178.1 143.271 178.664 142.175 178.664ZM145.314 173.359H149.661V174.062H147.885V178.571H147.09V174.062H145.314V173.359ZM107.782 187.571H106.013V182.359H107.782C109.627 182.359 110.6 183.17 110.6 184.961C110.6 186.768 109.612 187.571 107.782 187.571ZM106.809 183.062V186.869H107.782C109.102 186.869 109.805 186.274 109.805 184.961C109.805 183.633 109.071 183.062 107.782 183.062H106.809ZM115.45 182.359V183.062H112.639V184.598H115.218V185.293H112.639V186.869H115.45V187.571H111.844V182.359H115.45ZM118.389 187.664C117.207 187.664 116.443 187.085 116.288 186.073L117.053 185.888C117.168 186.583 117.678 186.992 118.435 186.992C119.099 186.992 119.485 186.668 119.485 186.166C119.485 185.564 118.875 185.432 118.203 185.262C117.392 185.046 116.473 184.791 116.473 183.733C116.473 182.861 117.199 182.259 118.319 182.259C119.261 182.259 120.064 182.683 120.273 183.726L119.555 183.911C119.408 183.208 118.937 182.923 118.319 182.923C117.663 182.923 117.261 183.232 117.261 183.71C117.261 184.259 117.817 184.39 118.512 184.56C119.331 184.76 120.28 185.054 120.28 186.081C120.28 187.062 119.616 187.664 118.389 187.664ZM123.962 187.664C122.417 187.664 121.328 186.567 121.328 184.961C121.328 183.363 122.417 182.259 123.962 182.259C125.236 182.259 126.201 183.015 126.487 184.174L125.722 184.367C125.537 183.594 124.919 182.992 123.962 182.992C122.88 182.992 122.124 183.788 122.124 184.961C122.124 186.143 122.88 186.93 123.962 186.93C124.703 186.93 125.297 186.552 125.575 185.927L126.317 186.204C125.931 187.1 125.058 187.664 123.962 187.664ZM131.77 187.571H130.882L129.585 185.417H128.465V187.571H127.67V182.359H129.924C131.036 182.359 131.731 182.784 131.731 183.888C131.731 184.815 131.245 185.262 130.434 185.378L131.77 187.571ZM129.893 183.062H128.465V184.714H129.893C130.573 184.714 130.936 184.506 130.936 183.888C130.936 183.27 130.558 183.062 129.893 183.062ZM133.768 187.571H132.972V182.359H133.768V187.571ZM135.221 182.359H137.36C138.472 182.359 139.167 182.784 139.167 183.888C139.167 184.992 138.472 185.417 137.36 185.417H136.016V187.571H135.221V182.359ZM136.016 184.714H137.329C138.009 184.714 138.372 184.506 138.372 183.888C138.372 183.27 138.001 183.062 137.329 183.062H136.016V184.714ZM139.85 182.359H144.197V183.062H142.421V187.571H141.626V183.062H139.85V182.359ZM146.14 187.571H145.344V182.359H146.14V187.571ZM150.002 187.664C148.458 187.664 147.369 186.567 147.369 184.961C147.369 183.363 148.458 182.259 150.002 182.259C151.547 182.259 152.635 183.363 152.635 184.961C152.635 186.567 151.547 187.664 150.002 187.664ZM150.002 186.93C151.083 186.93 151.84 186.143 151.84 184.961C151.84 183.788 151.083 182.992 150.002 182.992C148.921 182.992 148.164 183.788 148.164 184.961C148.164 186.143 148.921 186.93 150.002 186.93ZM157.49 186.49V182.359H158.286V187.571H157.313L154.656 183.417V187.571H153.861V182.359H154.826L157.49 186.49Z" fill="#626463"/>
<path d="M0.585938 163.849H263.906" stroke="#626463" stroke-width="0.965251"/>
<path d="M0.585938 262.498H263.906" stroke="#626463" stroke-width="0.965251"/>
<path d="M403.239 178.571H402.351L401.054 176.417H399.934V178.571H399.139V173.359H401.394C402.506 173.359 403.201 173.784 403.201 174.888C403.201 175.815 402.714 176.262 401.903 176.378L403.239 178.571ZM401.363 174.062H399.934V175.714H401.363C402.042 175.714 402.405 175.506 402.405 174.888C402.405 174.27 402.027 174.062 401.363 174.062ZM408.048 173.359V174.062H405.237V175.598H407.816V176.293H405.237V177.869H408.048V178.571H404.442V173.359H408.048ZM410.986 178.664C409.805 178.664 409.04 178.085 408.886 177.073L409.65 176.888C409.766 177.583 410.276 177.992 411.033 177.992C411.697 177.992 412.083 177.668 412.083 177.166C412.083 176.564 411.473 176.432 410.801 176.262C409.99 176.046 409.071 175.791 409.071 174.733C409.071 173.861 409.797 173.259 410.917 173.259C411.859 173.259 412.662 173.683 412.87 174.726L412.152 174.911C412.006 174.208 411.535 173.923 410.917 173.923C410.26 173.923 409.859 174.232 409.859 174.71C409.859 175.259 410.415 175.39 411.11 175.56C411.928 175.76 412.878 176.054 412.878 177.081C412.878 178.062 412.214 178.664 410.986 178.664ZM416.559 178.664C415.015 178.664 413.926 177.567 413.926 175.961C413.926 174.363 415.015 173.259 416.559 173.259C418.104 173.259 419.193 174.363 419.193 175.961C419.193 177.567 418.104 178.664 416.559 178.664ZM416.559 177.93C417.64 177.93 418.397 177.143 418.397 175.961C418.397 174.788 417.64 173.992 416.559 173.992C415.478 173.992 414.721 174.788 414.721 175.961C414.721 177.143 415.478 177.93 416.559 177.93ZM422.457 178.664C421.252 178.664 420.364 178.008 420.364 176.757V173.359H421.159V176.656C421.159 177.475 421.669 177.938 422.457 177.938C423.244 177.938 423.754 177.475 423.754 176.656V173.359H424.549V176.757C424.549 178.008 423.661 178.664 422.457 178.664ZM430.048 178.571H429.16L427.862 176.417H426.743V178.571H425.947V173.359H428.202C429.314 173.359 430.009 173.784 430.009 174.888C430.009 175.815 429.523 176.262 428.712 176.378L430.048 178.571ZM428.171 174.062H426.743V175.714H428.171C428.851 175.714 429.214 175.506 429.214 174.888C429.214 174.27 428.835 174.062 428.171 174.062ZM433.659 178.664C432.115 178.664 431.026 177.567 431.026 175.961C431.026 174.363 432.115 173.259 433.659 173.259C434.933 173.259 435.899 174.015 436.184 175.174L435.42 175.367C435.235 174.594 434.617 173.992 433.659 173.992C432.578 173.992 431.821 174.788 431.821 175.961C431.821 177.143 432.578 177.93 433.659 177.93C434.401 177.93 434.995 177.552 435.273 176.927L436.015 177.204C435.628 178.1 434.756 178.664 433.659 178.664ZM440.974 173.359V174.062H438.163V175.598H440.742V176.293H438.163V177.869H440.974V178.571H437.367V173.359H440.974ZM404.873 187.571H403.985L402.687 185.417H401.568V187.571H400.772V182.359H403.027C404.139 182.359 404.834 182.784 404.834 183.888C404.834 184.815 404.348 185.262 403.537 185.378L404.873 187.571ZM402.996 183.062H401.568V184.714H402.996C403.676 184.714 404.039 184.506 404.039 183.888C404.039 183.27 403.66 183.062 402.996 183.062ZM409.681 182.359V183.062H406.87V184.598H409.45V185.293H406.87V186.869H409.681V187.571H406.075V182.359H409.681ZM415.9 184.838C415.9 185.741 415.514 186.475 414.834 186.923H415.9V187.571H413.267C411.684 187.571 410.634 186.567 410.634 184.961C410.634 183.363 411.73 182.259 413.267 182.259C414.804 182.259 415.9 183.332 415.9 184.838ZM411.429 184.961C411.429 186.127 412.178 186.892 413.267 186.892C414.356 186.892 415.105 186.127 415.105 184.961C415.105 183.795 414.356 182.992 413.267 182.992C412.178 182.992 411.429 183.795 411.429 184.961ZM419.24 187.664C418.035 187.664 417.147 187.008 417.147 185.757V182.359H417.942V185.656C417.942 186.475 418.452 186.938 419.24 186.938C420.027 186.938 420.537 186.475 420.537 185.656V182.359H421.332V185.757C421.332 187.008 420.444 187.664 419.24 187.664ZM423.526 187.571H422.73V182.359H423.526V187.571ZM429.079 187.571H428.191L426.894 185.417H425.774V187.571H424.979V182.359H427.234C428.346 182.359 429.041 182.784 429.041 183.888C429.041 184.815 428.554 185.262 427.743 185.378L429.079 187.571ZM427.203 183.062H425.774V184.714H427.203C427.882 184.714 428.245 184.506 428.245 183.888C428.245 183.27 427.867 183.062 427.203 183.062ZM433.888 182.359V183.062H431.077V184.598H433.656V185.293H431.077V186.869H433.888V187.571H430.282V182.359H433.888ZM436.878 187.571H435.11V182.359H436.878C438.724 182.359 439.697 183.17 439.697 184.961C439.697 186.768 438.708 187.571 436.878 187.571ZM435.905 183.062V186.869H436.878C438.199 186.869 438.901 186.274 438.901 184.961C438.901 183.633 438.168 183.062 436.878 183.062H435.905Z" fill="#626463"/>
<path d="M286.88 163.849H553.482" stroke="#626463" stroke-width="0.965251"/>
<path d="M286.88 262.498H553.482" stroke="#626463" stroke-width="0.965251"/>
<path d="M291.162 290.176V286.045H291.958V291.257H290.985L288.328 287.103V291.257H287.533V286.045H288.498L291.162 290.176ZM295.826 291.35C294.281 291.35 293.192 290.253 293.192 288.647C293.192 287.049 294.281 285.945 295.826 285.945C297.37 285.945 298.459 287.049 298.459 288.647C298.459 290.253 297.37 291.35 295.826 291.35ZM295.826 290.616C296.907 290.616 297.663 289.829 297.663 288.647C297.663 287.474 296.907 286.678 295.826 286.678C294.745 286.678 293.988 287.474 293.988 288.647C293.988 289.829 294.745 290.616 295.826 290.616ZM298.927 286.045H303.275V286.748H301.499V291.257H300.703V286.748H298.927V286.045ZM308.028 286.045V286.748H305.217V288.284H307.796V288.979H305.217V290.555H308.028V291.257H304.422V286.045H308.028ZM310.966 291.35C309.785 291.35 309.02 290.771 308.866 289.759L309.63 289.574C309.746 290.269 310.256 290.678 311.013 290.678C311.677 290.678 312.063 290.354 312.063 289.852C312.063 289.25 311.453 289.118 310.781 288.948C309.97 288.732 309.051 288.477 309.051 287.419C309.051 286.547 309.777 285.945 310.897 285.945C311.839 285.945 312.642 286.369 312.85 287.412L312.132 287.597C311.986 286.894 311.515 286.609 310.897 286.609C310.24 286.609 309.839 286.918 309.839 287.396C309.839 287.945 310.395 288.076 311.09 288.246C311.908 288.447 312.858 288.74 312.858 289.767C312.858 290.748 312.194 291.35 310.966 291.35Z" fill="#626463"/>
<path d="M287.12 297H553.12" stroke="#626463" stroke-width="0.965251"/>
<path d="M287.12 317H553.12" stroke="#A0907F" stroke-width="0.19305"/>
<path d="M287.12 377H553.12" stroke="#A0907F" stroke-width="0.19305"/>
<path d="M287.12 337H553.12" stroke="#A0907F" stroke-width="0.19305"/>
<path d="M287.12 397H553.12" stroke="#A0907F" stroke-width="0.19305"/>
<path d="M287.12 357H553.12" stroke="#A0907F" stroke-width="0.19305"/>
<path d="M287.12 417H553.12" stroke="#A0907F" stroke-width="0.19305"/>
<path d="M287.12 437H553.12" stroke="#A0907F" stroke-width="0.19305"/>
<path d="M287.12 457H553.12" stroke="#A0907F" stroke-width="0.19305"/>
<path d="M287.12 477H553.12" stroke="#A0907F" stroke-width="0.19305"/>
<path d="M287.12 497H553.12" stroke="#A0907F" stroke-width="0.19305"/>
<path d="M287.12 517H553.12" stroke="#A0907F" stroke-width="0.19305"/>
<path d="M287.12 537H553.12" stroke="#A0907F" stroke-width="0.19305"/>
<path d="M287.12 557H553.12" stroke="#A0907F" stroke-width="0.19305"/>
<path d="M287.12 577H553.12" stroke="#A0907F" stroke-width="0.19305"/>
<path d="M287.12 597H553.12" stroke="#A0907F" stroke-width="0.19305"/>
<path d="M287.12 617H553.12" stroke="#A0907F" stroke-width="0.19305"/>
<path d="M287.12 637H553.12" stroke="#A0907F" stroke-width="0.19305"/>
<path d="M287.12 657H553.12" stroke="#A0907F" stroke-width="0.19305"/>
<path d="M307.12 297V656" stroke="#A0907F" stroke-width="0.19305"/>
<path d="M287.12 297V656" stroke="#A0907F" stroke-width="0.19305"/>
<path d="M328.12 297V656" stroke="#A0907F" stroke-width="0.19305"/>
<path d="M348.12 297V656" stroke="#A0907F" stroke-width="0.19305"/>
<path d="M368.12 297V656" stroke="#A0907F" stroke-width="0.19305"/>
<path d="M389.12 297V656" stroke="#A0907F" stroke-width="0.19305"/>
<path d="M409.12 297V656" stroke="#A0907F" stroke-width="0.19305"/>
<path d="M430.12 297V656" stroke="#A0907F" stroke-width="0.19305"/>
<path d="M451.12 297V656" stroke="#A0907F" stroke-width="0.19305"/>
<path d="M471.12 297V656" stroke="#A0907F" stroke-width="0.19305"/>
<path d="M492.12 297V656" stroke="#A0907F" stroke-width="0.19305"/>
<path d="M512.12 297V656" stroke="#A0907F" stroke-width="0.19305"/>
<path d="M532.12 297V656" stroke="#A0907F" stroke-width="0.19305"/>
<path d="M553.12 297V656" stroke="#A0907F" stroke-width="0.19305"/>
<mask id="path-90-inside-2_518_3950" fill="white">
<path d="M287.12 296H553.12V657H287.12V296Z"/>
</mask>
<path d="M287.12 296.965H553.12V295.035H287.12V296.965ZM553.12 656.035H287.12V657.965H553.12V656.035Z" fill="#626463" mask="url(#path-90-inside-2_518_3950)"/>
</svg>
