<svg width="557" height="676" viewBox="0 0 557 676" fill="none" xmlns="http://www.w3.org/2000/svg">
<path d="M0.000976562 15.7905H556.484" stroke="#626463" stroke-width="0.965251"/>
<path d="M0.000976562 36.061H556.484" stroke="#A0907F" stroke-width="0.579151"/>
<path d="M0.000976562 56.3311H556.484" stroke="#A0907F" stroke-width="0.579151"/>
<path d="M0.000976562 76.6016H556.484" stroke="#A0907F" stroke-width="0.579151"/>
<path d="M0.000976562 96.8716H556.484" stroke="#A0907F" stroke-width="0.579151"/>
<path d="M0.000976562 117.142H556.484" stroke="#A0907F" stroke-width="0.579151"/>
<path d="M0.000976562 137.412H556.484" stroke="#A0907F" stroke-width="0.579151"/>
<path d="M0.000976562 157.683H556.484" stroke="#A0907F" stroke-width="0.579151"/>
<path d="M0.000976562 177.953H556.484" stroke="#A0907F" stroke-width="0.579151"/>
<path d="M0.000976562 198.223H556.484" stroke="#A0907F" stroke-width="0.579151"/>
<path d="M0.000976562 218.493H556.484" stroke="#A0907F" stroke-width="0.579151"/>
<path d="M3.24324 5.90218L4.57915 2.13384H5.94595V7.34619H5.15058V2.56627L3.52124 7.34619H2.95753L1.32819 2.56627V7.34619H0.532819V2.13384H1.89961L3.24324 5.90218ZM9.81347 7.43886C8.26906 7.43886 7.18026 6.34233 7.18026 4.73615C7.18026 3.1377 8.26906 2.03345 9.81347 2.03345C11.3579 2.03345 12.4467 3.1377 12.4467 4.73615C12.4467 6.34233 11.3579 7.43886 9.81347 7.43886ZM9.81347 6.70526C10.8945 6.70526 11.6513 5.91762 11.6513 4.73615C11.6513 3.56241 10.8945 2.76704 9.81347 2.76704C8.73238 2.76704 7.97563 3.56241 7.97563 4.73615C7.97563 5.91762 8.73238 6.70526 9.81347 6.70526ZM17.7727 7.34619H16.8847L15.5874 5.19175H14.4677V7.34619H13.6723V2.13384H15.9271C17.0391 2.13384 17.7341 2.55855 17.7341 3.66279C17.7341 4.58943 17.2476 5.03731 16.4368 5.15314L17.7727 7.34619ZM15.8962 2.83654H14.4677V4.48905H15.8962C16.5758 4.48905 16.9387 4.28055 16.9387 3.66279C16.9387 3.04503 16.5603 2.83654 15.8962 2.83654ZM22.6045 6.26511V2.13384H23.3999V7.34619H22.4269L19.7705 3.19175V7.34619H18.9751V2.13384H19.9404L22.6045 6.26511ZM25.654 7.34619H24.8587V2.13384H25.654V7.34619ZM30.7367 6.26511V2.13384H31.5321V7.34619H30.5591L27.9028 3.19175V7.34619H27.1074V2.13384H28.0726L30.7367 6.26511ZM37.0836 5.37708H34.7747V4.70526H37.8249V7.34619H37.1144V6.48133C36.7747 7.11453 36.1801 7.43886 35.3307 7.43886C33.8403 7.43886 32.767 6.34233 32.767 4.73615C32.767 3.1377 33.8635 2.03345 35.4002 2.03345C36.4504 2.03345 37.5855 2.59716 37.9175 3.9099L37.1531 4.11839C36.96 3.34619 36.3422 2.76704 35.4002 2.76704C34.3191 2.76704 33.5623 3.56241 33.5623 4.73615C33.5623 5.9099 34.2882 6.70526 35.4002 6.70526C36.2496 6.70526 36.8905 6.24194 37.0836 5.37708ZM45.6383 7.34619H44.7502L43.4529 5.19175H42.3333V7.34619H41.5379V2.13384H43.7927C44.9047 2.13384 45.5997 2.55855 45.5997 3.66279C45.5997 4.58943 45.1132 5.03731 44.3024 5.15314L45.6383 7.34619ZM43.7618 2.83654H42.3333V4.48905H43.7618C44.4414 4.48905 44.8043 4.28055 44.8043 3.66279C44.8043 3.04503 44.4259 2.83654 43.7618 2.83654ZM49.25 7.43886C47.7056 7.43886 46.6168 6.34233 46.6168 4.73615C46.6168 3.1377 47.7056 2.03345 49.25 2.03345C50.7944 2.03345 51.8832 3.1377 51.8832 4.73615C51.8832 6.34233 50.7944 7.43886 49.25 7.43886ZM49.25 6.70526C50.3311 6.70526 51.0878 5.91762 51.0878 4.73615C51.0878 3.56241 50.3311 2.76704 49.25 2.76704C48.1689 2.76704 47.4122 3.56241 47.4122 4.73615C47.4122 5.91762 48.1689 6.70526 49.25 6.70526ZM55.1474 7.43886C53.9428 7.43886 53.0548 6.78248 53.0548 5.53152V2.13384H53.8501V5.43113C53.8501 6.24967 54.3598 6.71299 55.1474 6.71299C55.9351 6.71299 56.4447 6.24967 56.4447 5.43113V2.13384H57.2401V5.53152C57.2401 6.78248 56.3521 7.43886 55.1474 7.43886ZM58.1823 2.13384H62.5298V2.83654H60.7537V7.34619H59.9584V2.83654H58.1823V2.13384ZM64.4722 7.34619H63.6768V2.13384H64.4722V7.34619ZM69.5549 6.26511V2.13384H70.3503V7.34619H69.3773L66.7209 3.19175V7.34619H65.9256V2.13384H66.8908L69.5549 6.26511ZM75.4152 2.13384V2.83654H72.6044V4.37322H75.1836V5.0682H72.6044V6.64349H75.4152V7.34619H71.8091V2.13384H75.4152Z" fill="#626463"/>
<path d="M406.172 5.90169L407.508 2.13335H408.875V7.3457H408.079V2.56578L406.45 7.3457H405.886L404.257 2.56578V7.3457H403.462V2.13335H404.828L406.172 5.90169Z" fill="#626463"/>
<path d="M427.033 2.13335H431.381V2.83605H429.605V7.3457H428.809V2.83605H427.033V2.13335Z" fill="#626463"/>
<path d="M454.254 6.58122L455.466 2.13335H456.292L454.864 7.3457H453.713L452.717 3.35342L451.721 7.3457H450.57L449.142 2.13335H449.968L451.173 6.56578L452.277 2.13335H453.149L454.254 6.58122Z" fill="#626463"/>
<path d="M474.073 2.13335H478.421V2.83605H476.645V7.3457H475.849V2.83605H474.073V2.13335Z" fill="#626463"/>
<path d="M500.174 2.13335V2.83605H497.364V4.37273H499.896V5.06771H497.364V7.3457H496.568V2.13335H500.174Z" fill="#626463"/>
<path d="M520.193 7.43837C519.011 7.43837 518.247 6.85922 518.092 5.84763L518.857 5.66231C518.973 6.35729 519.482 6.76655 520.239 6.76655C520.903 6.76655 521.289 6.44223 521.289 5.9403C521.289 5.33798 520.679 5.20671 520.007 5.03682C519.197 4.82061 518.278 4.56578 518.278 3.50787C518.278 2.63528 519.004 2.03296 520.123 2.03296C521.065 2.03296 521.868 2.45767 522.077 3.50014L521.359 3.68547C521.212 2.98277 520.741 2.69705 520.123 2.69705C519.467 2.69705 519.065 3.00593 519.065 3.4847C519.065 4.03296 519.621 4.16424 520.316 4.33412C521.135 4.53489 522.085 4.82833 522.085 5.85536C522.085 6.83605 521.421 7.43837 520.193 7.43837Z" fill="#626463"/>
<path d="M542.236 7.43837C541.054 7.43837 540.29 6.85922 540.135 5.84763L540.9 5.66231C541.016 6.35729 541.525 6.76655 542.282 6.76655C542.946 6.76655 543.332 6.44223 543.332 5.9403C543.332 5.33798 542.722 5.20671 542.05 5.03682C541.24 4.82061 540.321 4.56578 540.321 3.50787C540.321 2.63528 541.047 2.03296 542.166 2.03296C543.108 2.03296 543.911 2.45767 544.12 3.50014L543.402 3.68547C543.255 2.98277 542.784 2.69705 542.166 2.69705C541.51 2.69705 541.108 3.00593 541.108 3.4847C541.108 4.03296 541.664 4.16424 542.359 4.33412C543.178 4.53489 544.128 4.82833 544.128 5.85536C544.128 6.83605 543.464 7.43837 542.236 7.43837Z" fill="#626463"/>
<path d="M411.256 25.8282C411.256 28.3848 409.157 30.4614 406.562 30.4614C403.968 30.4614 401.869 28.3848 401.869 25.8282C401.869 23.2716 403.968 21.195 406.562 21.195C409.157 21.195 411.256 23.2716 411.256 25.8282Z" stroke="#A0907F" stroke-width="0.3861"/>
<path d="M411.256 46.0987C411.256 48.6553 409.157 50.7319 406.562 50.7319C403.968 50.7319 401.869 48.6553 401.869 46.0987C401.869 43.5421 403.968 41.4655 406.562 41.4655C409.157 41.4655 411.256 43.5421 411.256 46.0987Z" stroke="#A0907F" stroke-width="0.3861"/>
<path d="M411.256 66.3692C411.256 68.9258 409.157 71.0024 406.562 71.0024C403.968 71.0024 401.869 68.9258 401.869 66.3692C401.869 63.8126 403.968 61.736 406.562 61.736C409.157 61.736 411.256 63.8126 411.256 66.3692Z" stroke="#A0907F" stroke-width="0.3861"/>
<path d="M411.256 86.6392C411.256 89.1958 409.157 91.2724 406.562 91.2724C403.968 91.2724 401.869 89.1958 401.869 86.6392C401.869 84.0826 403.968 82.006 406.562 82.006C409.157 82.006 411.256 84.0826 411.256 86.6392Z" stroke="#A0907F" stroke-width="0.3861"/>
<path d="M411.256 106.91C411.256 109.466 409.157 111.543 406.562 111.543C403.968 111.543 401.869 109.466 401.869 106.91C401.869 104.353 403.968 102.277 406.562 102.277C409.157 102.277 411.256 104.353 411.256 106.91Z" stroke="#A0907F" stroke-width="0.3861"/>
<path d="M411.256 127.18C411.256 129.736 409.157 131.813 406.562 131.813C403.968 131.813 401.869 129.736 401.869 127.18C401.869 124.623 403.968 122.547 406.562 122.547C409.157 122.547 411.256 124.623 411.256 127.18Z" stroke="#A0907F" stroke-width="0.3861"/>
<path d="M433.93 25.8282C433.93 28.3848 431.831 30.4614 429.236 30.4614C426.642 30.4614 424.543 28.3848 424.543 25.8282C424.543 23.2716 426.642 21.195 429.236 21.195C431.831 21.195 433.93 23.2716 433.93 25.8282Z" stroke="#A0907F" stroke-width="0.3861"/>
<path d="M433.93 46.0987C433.93 48.6553 431.831 50.7319 429.236 50.7319C426.642 50.7319 424.543 48.6553 424.543 46.0987C424.543 43.5421 426.642 41.4655 429.236 41.4655C431.831 41.4655 433.93 43.5421 433.93 46.0987Z" stroke="#A0907F" stroke-width="0.3861"/>
<path d="M433.93 66.3692C433.93 68.9258 431.831 71.0024 429.236 71.0024C426.642 71.0024 424.543 68.9258 424.543 66.3692C424.543 63.8126 426.642 61.736 429.236 61.736C431.831 61.736 433.93 63.8126 433.93 66.3692Z" stroke="#A0907F" stroke-width="0.3861"/>
<path d="M433.93 86.6392C433.93 89.1958 431.831 91.2724 429.236 91.2724C426.642 91.2724 424.543 89.1958 424.543 86.6392C424.543 84.0826 426.642 82.006 429.236 82.006C431.831 82.006 433.93 84.0826 433.93 86.6392Z" stroke="#A0907F" stroke-width="0.3861"/>
<path d="M433.93 106.91C433.93 109.466 431.831 111.543 429.236 111.543C426.642 111.543 424.543 109.466 424.543 106.91C424.543 104.353 426.642 102.277 429.236 102.277C431.831 102.277 433.93 104.353 433.93 106.91Z" stroke="#A0907F" stroke-width="0.3861"/>
<path d="M433.93 127.18C433.93 129.736 431.831 131.813 429.236 131.813C426.642 131.813 424.543 129.736 424.543 127.18C424.543 124.623 426.642 122.547 429.236 122.547C431.831 122.547 433.93 124.623 433.93 127.18Z" stroke="#A0907F" stroke-width="0.3861"/>
<path d="M456.603 25.8282C456.603 28.3848 454.503 30.4614 451.909 30.4614C449.315 30.4614 447.216 28.3848 447.216 25.8282C447.216 23.2716 449.315 21.195 451.909 21.195C454.503 21.195 456.603 23.2716 456.603 25.8282Z" stroke="#A0907F" stroke-width="0.3861"/>
<path d="M456.603 46.0987C456.603 48.6553 454.503 50.7319 451.909 50.7319C449.315 50.7319 447.216 48.6553 447.216 46.0987C447.216 43.5421 449.315 41.4655 451.909 41.4655C454.503 41.4655 456.603 43.5421 456.603 46.0987Z" stroke="#A0907F" stroke-width="0.3861"/>
<path d="M456.603 66.3692C456.603 68.9258 454.503 71.0024 451.909 71.0024C449.315 71.0024 447.216 68.9258 447.216 66.3692C447.216 63.8126 449.315 61.736 451.909 61.736C454.503 61.736 456.603 63.8126 456.603 66.3692Z" stroke="#A0907F" stroke-width="0.3861"/>
<path d="M456.603 86.6392C456.603 89.1958 454.503 91.2724 451.909 91.2724C449.315 91.2724 447.216 89.1958 447.216 86.6392C447.216 84.0826 449.315 82.006 451.909 82.006C454.503 82.006 456.603 84.0826 456.603 86.6392Z" stroke="#A0907F" stroke-width="0.3861"/>
<path d="M456.603 106.91C456.603 109.466 454.503 111.543 451.909 111.543C449.315 111.543 447.216 109.466 447.216 106.91C447.216 104.353 449.315 102.277 451.909 102.277C454.503 102.277 456.603 104.353 456.603 106.91Z" stroke="#A0907F" stroke-width="0.3861"/>
<path d="M456.603 127.18C456.603 129.736 454.503 131.813 451.909 131.813C449.315 131.813 447.216 129.736 447.216 127.18C447.216 124.623 449.315 122.547 451.909 122.547C454.503 122.547 456.603 124.623 456.603 127.18Z" stroke="#A0907F" stroke-width="0.3861"/>
<path d="M479.276 25.8282C479.276 28.3848 477.177 30.4614 474.583 30.4614C471.988 30.4614 469.889 28.3848 469.889 25.8282C469.889 23.2716 471.988 21.195 474.583 21.195C477.177 21.195 479.276 23.2716 479.276 25.8282Z" stroke="#A0907F" stroke-width="0.3861"/>
<path d="M479.276 46.0987C479.276 48.6553 477.177 50.7319 474.583 50.7319C471.988 50.7319 469.889 48.6553 469.889 46.0987C469.889 43.5421 471.988 41.4655 474.583 41.4655C477.177 41.4655 479.276 43.5421 479.276 46.0987Z" stroke="#A0907F" stroke-width="0.3861"/>
<path d="M479.276 66.3692C479.276 68.9258 477.177 71.0024 474.583 71.0024C471.988 71.0024 469.889 68.9258 469.889 66.3692C469.889 63.8126 471.988 61.736 474.583 61.736C477.177 61.736 479.276 63.8126 479.276 66.3692Z" stroke="#A0907F" stroke-width="0.3861"/>
<path d="M479.276 86.6392C479.276 89.1958 477.177 91.2724 474.583 91.2724C471.988 91.2724 469.889 89.1958 469.889 86.6392C469.889 84.0826 471.988 82.006 474.583 82.006C477.177 82.006 479.276 84.0826 479.276 86.6392Z" stroke="#A0907F" stroke-width="0.3861"/>
<path d="M479.276 106.91C479.276 109.466 477.177 111.543 474.583 111.543C471.988 111.543 469.889 109.466 469.889 106.91C469.889 104.353 471.988 102.277 474.583 102.277C477.177 102.277 479.276 104.353 479.276 106.91Z" stroke="#A0907F" stroke-width="0.3861"/>
<path d="M479.276 127.18C479.276 129.736 477.177 131.813 474.583 131.813C471.988 131.813 469.889 129.736 469.889 127.18C469.889 124.623 471.988 122.547 474.583 122.547C477.177 122.547 479.276 124.623 479.276 127.18Z" stroke="#A0907F" stroke-width="0.3861"/>
<path d="M501.95 25.8282C501.95 28.3848 499.851 30.4614 497.257 30.4614C494.662 30.4614 492.563 28.3848 492.563 25.8282C492.563 23.2716 494.662 21.195 497.257 21.195C499.851 21.195 501.95 23.2716 501.95 25.8282Z" stroke="#A0907F" stroke-width="0.3861"/>
<path d="M501.95 46.0987C501.95 48.6553 499.851 50.7319 497.257 50.7319C494.662 50.7319 492.563 48.6553 492.563 46.0987C492.563 43.5421 494.662 41.4655 497.257 41.4655C499.851 41.4655 501.95 43.5421 501.95 46.0987Z" stroke="#A0907F" stroke-width="0.3861"/>
<path d="M501.95 66.3692C501.95 68.9258 499.851 71.0024 497.257 71.0024C494.662 71.0024 492.563 68.9258 492.563 66.3692C492.563 63.8126 494.662 61.736 497.257 61.736C499.851 61.736 501.95 63.8126 501.95 66.3692Z" stroke="#A0907F" stroke-width="0.3861"/>
<path d="M501.95 86.6392C501.95 89.1958 499.851 91.2724 497.257 91.2724C494.662 91.2724 492.563 89.1958 492.563 86.6392C492.563 84.0826 494.662 82.006 497.257 82.006C499.851 82.006 501.95 84.0826 501.95 86.6392Z" stroke="#A0907F" stroke-width="0.3861"/>
<path d="M501.95 106.91C501.95 109.466 499.851 111.543 497.257 111.543C494.662 111.543 492.563 109.466 492.563 106.91C492.563 104.353 494.662 102.277 497.257 102.277C499.851 102.277 501.95 104.353 501.95 106.91Z" stroke="#A0907F" stroke-width="0.3861"/>
<path d="M501.95 127.18C501.95 129.736 499.851 131.813 497.257 131.813C494.662 131.813 492.563 129.736 492.563 127.18C492.563 124.623 494.662 122.547 497.257 122.547C499.851 122.547 501.95 124.623 501.95 127.18Z" stroke="#A0907F" stroke-width="0.3861"/>
<path d="M524.624 25.8282C524.624 28.3848 522.525 30.4614 519.931 30.4614C517.336 30.4614 515.237 28.3848 515.237 25.8282C515.237 23.2716 517.336 21.195 519.931 21.195C522.525 21.195 524.624 23.2716 524.624 25.8282Z" stroke="#A0907F" stroke-width="0.3861"/>
<path d="M524.624 46.0987C524.624 48.6553 522.525 50.7319 519.931 50.7319C517.336 50.7319 515.237 48.6553 515.237 46.0987C515.237 43.5421 517.336 41.4655 519.931 41.4655C522.525 41.4655 524.624 43.5421 524.624 46.0987Z" stroke="#A0907F" stroke-width="0.3861"/>
<path d="M524.624 66.3692C524.624 68.9258 522.525 71.0024 519.931 71.0024C517.336 71.0024 515.237 68.9258 515.237 66.3692C515.237 63.8126 517.336 61.736 519.931 61.736C522.525 61.736 524.624 63.8126 524.624 66.3692Z" stroke="#A0907F" stroke-width="0.3861"/>
<path d="M524.624 86.6392C524.624 89.1958 522.525 91.2724 519.931 91.2724C517.336 91.2724 515.237 89.1958 515.237 86.6392C515.237 84.0826 517.336 82.006 519.931 82.006C522.525 82.006 524.624 84.0826 524.624 86.6392Z" stroke="#A0907F" stroke-width="0.3861"/>
<path d="M524.624 106.91C524.624 109.466 522.525 111.543 519.931 111.543C517.336 111.543 515.237 109.466 515.237 106.91C515.237 104.353 517.336 102.277 519.931 102.277C522.525 102.277 524.624 104.353 524.624 106.91Z" stroke="#A0907F" stroke-width="0.3861"/>
<path d="M524.624 127.18C524.624 129.736 522.525 131.813 519.931 131.813C517.336 131.813 515.237 129.736 515.237 127.18C515.237 124.623 517.336 122.547 519.931 122.547C522.525 122.547 524.624 124.623 524.624 127.18Z" stroke="#A0907F" stroke-width="0.3861"/>
<path d="M547.298 25.8282C547.298 28.3848 545.199 30.4614 542.604 30.4614C540.01 30.4614 537.911 28.3848 537.911 25.8282C537.911 23.2716 540.01 21.195 542.604 21.195C545.199 21.195 547.298 23.2716 547.298 25.8282Z" stroke="#A0907F" stroke-width="0.3861"/>
<path d="M547.298 46.0987C547.298 48.6553 545.199 50.7319 542.604 50.7319C540.01 50.7319 537.911 48.6553 537.911 46.0987C537.911 43.5421 540.01 41.4655 542.604 41.4655C545.199 41.4655 547.298 43.5421 547.298 46.0987Z" stroke="#A0907F" stroke-width="0.3861"/>
<path d="M547.298 66.3692C547.298 68.9258 545.199 71.0024 542.604 71.0024C540.01 71.0024 537.911 68.9258 537.911 66.3692C537.911 63.8126 540.01 61.736 542.604 61.736C545.199 61.736 547.298 63.8126 547.298 66.3692Z" stroke="#A0907F" stroke-width="0.3861"/>
<path d="M547.298 86.6392C547.298 89.1958 545.199 91.2724 542.604 91.2724C540.01 91.2724 537.911 89.1958 537.911 86.6392C537.911 84.0826 540.01 82.006 542.604 82.006C545.199 82.006 547.298 84.0826 547.298 86.6392Z" stroke="#A0907F" stroke-width="0.3861"/>
<path d="M547.298 106.91C547.298 109.466 545.199 111.543 542.604 111.543C540.01 111.543 537.911 109.466 537.911 106.91C537.911 104.353 540.01 102.277 542.604 102.277C545.199 102.277 547.298 104.353 547.298 106.91Z" stroke="#A0907F" stroke-width="0.3861"/>
<path d="M547.298 127.18C547.298 129.736 545.199 131.813 542.604 131.813C540.01 131.813 537.911 129.736 537.911 127.18C537.911 124.623 540.01 122.547 542.604 122.547C545.199 122.547 547.298 124.623 547.298 127.18Z" stroke="#A0907F" stroke-width="0.3861"/>
<path d="M411.256 147.45C411.256 150.007 409.157 152.083 406.562 152.083C403.968 152.083 401.869 150.007 401.869 147.45C401.869 144.894 403.968 142.817 406.562 142.817C409.157 142.817 411.256 144.894 411.256 147.45Z" stroke="#A0907F" stroke-width="0.3861"/>
<path d="M411.256 167.72C411.256 170.277 409.157 172.354 406.562 172.354C403.968 172.354 401.869 170.277 401.869 167.72C401.869 165.164 403.968 163.087 406.562 163.087C409.157 163.087 411.256 165.164 411.256 167.72Z" stroke="#A0907F" stroke-width="0.3861"/>
<path d="M411.256 187.991C411.256 190.547 409.157 192.624 406.562 192.624C403.968 192.624 401.869 190.547 401.869 187.991C401.869 185.434 403.968 183.358 406.562 183.358C409.157 183.358 411.256 185.434 411.256 187.991Z" stroke="#A0907F" stroke-width="0.3861"/>
<path d="M411.256 208.261C411.256 210.817 409.157 212.894 406.562 212.894C403.968 212.894 401.869 210.817 401.869 208.261C401.869 205.704 403.968 203.628 406.562 203.628C409.157 203.628 411.256 205.704 411.256 208.261Z" stroke="#A0907F" stroke-width="0.3861"/>
<path d="M433.93 147.45C433.93 150.007 431.831 152.083 429.236 152.083C426.642 152.083 424.543 150.007 424.543 147.45C424.543 144.894 426.642 142.817 429.236 142.817C431.831 142.817 433.93 144.894 433.93 147.45Z" stroke="#A0907F" stroke-width="0.3861"/>
<path d="M433.93 167.72C433.93 170.277 431.831 172.354 429.236 172.354C426.642 172.354 424.543 170.277 424.543 167.72C424.543 165.164 426.642 163.087 429.236 163.087C431.831 163.087 433.93 165.164 433.93 167.72Z" stroke="#A0907F" stroke-width="0.3861"/>
<path d="M433.93 187.991C433.93 190.547 431.831 192.624 429.236 192.624C426.642 192.624 424.543 190.547 424.543 187.991C424.543 185.434 426.642 183.358 429.236 183.358C431.831 183.358 433.93 185.434 433.93 187.991Z" stroke="#A0907F" stroke-width="0.3861"/>
<path d="M433.93 208.261C433.93 210.817 431.831 212.894 429.236 212.894C426.642 212.894 424.543 210.817 424.543 208.261C424.543 205.704 426.642 203.628 429.236 203.628C431.831 203.628 433.93 205.704 433.93 208.261Z" stroke="#A0907F" stroke-width="0.3861"/>
<path d="M456.603 147.45C456.603 150.007 454.503 152.083 451.909 152.083C449.315 152.083 447.216 150.007 447.216 147.45C447.216 144.894 449.315 142.817 451.909 142.817C454.503 142.817 456.603 144.894 456.603 147.45Z" stroke="#A0907F" stroke-width="0.3861"/>
<path d="M456.603 167.72C456.603 170.277 454.503 172.354 451.909 172.354C449.315 172.354 447.216 170.277 447.216 167.72C447.216 165.164 449.315 163.087 451.909 163.087C454.503 163.087 456.603 165.164 456.603 167.72Z" stroke="#A0907F" stroke-width="0.3861"/>
<path d="M456.603 187.991C456.603 190.547 454.503 192.624 451.909 192.624C449.315 192.624 447.216 190.547 447.216 187.991C447.216 185.434 449.315 183.358 451.909 183.358C454.503 183.358 456.603 185.434 456.603 187.991Z" stroke="#A0907F" stroke-width="0.3861"/>
<path d="M456.603 208.261C456.603 210.817 454.503 212.894 451.909 212.894C449.315 212.894 447.216 210.817 447.216 208.261C447.216 205.704 449.315 203.628 451.909 203.628C454.503 203.628 456.603 205.704 456.603 208.261Z" stroke="#A0907F" stroke-width="0.3861"/>
<path d="M479.276 147.45C479.276 150.007 477.177 152.083 474.583 152.083C471.988 152.083 469.889 150.007 469.889 147.45C469.889 144.894 471.988 142.817 474.583 142.817C477.177 142.817 479.276 144.894 479.276 147.45Z" stroke="#A0907F" stroke-width="0.3861"/>
<path d="M479.276 167.72C479.276 170.277 477.177 172.354 474.583 172.354C471.988 172.354 469.889 170.277 469.889 167.72C469.889 165.164 471.988 163.087 474.583 163.087C477.177 163.087 479.276 165.164 479.276 167.72Z" stroke="#A0907F" stroke-width="0.3861"/>
<path d="M479.276 187.991C479.276 190.547 477.177 192.624 474.583 192.624C471.988 192.624 469.889 190.547 469.889 187.991C469.889 185.434 471.988 183.358 474.583 183.358C477.177 183.358 479.276 185.434 479.276 187.991Z" stroke="#A0907F" stroke-width="0.3861"/>
<path d="M479.276 208.261C479.276 210.817 477.177 212.894 474.583 212.894C471.988 212.894 469.889 210.817 469.889 208.261C469.889 205.704 471.988 203.628 474.583 203.628C477.177 203.628 479.276 205.704 479.276 208.261Z" stroke="#A0907F" stroke-width="0.3861"/>
<path d="M501.95 147.45C501.95 150.007 499.851 152.083 497.257 152.083C494.662 152.083 492.563 150.007 492.563 147.45C492.563 144.894 494.662 142.817 497.257 142.817C499.851 142.817 501.95 144.894 501.95 147.45Z" stroke="#A0907F" stroke-width="0.3861"/>
<path d="M501.95 167.72C501.95 170.277 499.851 172.354 497.257 172.354C494.662 172.354 492.563 170.277 492.563 167.72C492.563 165.164 494.662 163.087 497.257 163.087C499.851 163.087 501.95 165.164 501.95 167.72Z" stroke="#A0907F" stroke-width="0.3861"/>
<path d="M501.95 187.991C501.95 190.547 499.851 192.624 497.257 192.624C494.662 192.624 492.563 190.547 492.563 187.991C492.563 185.434 494.662 183.358 497.257 183.358C499.851 183.358 501.95 185.434 501.95 187.991Z" stroke="#A0907F" stroke-width="0.3861"/>
<path d="M501.95 208.261C501.95 210.817 499.851 212.894 497.257 212.894C494.662 212.894 492.563 210.817 492.563 208.261C492.563 205.704 494.662 203.628 497.257 203.628C499.851 203.628 501.95 205.704 501.95 208.261Z" stroke="#A0907F" stroke-width="0.3861"/>
<path d="M524.624 147.45C524.624 150.007 522.525 152.083 519.931 152.083C517.336 152.083 515.237 150.007 515.237 147.45C515.237 144.894 517.336 142.817 519.931 142.817C522.525 142.817 524.624 144.894 524.624 147.45Z" stroke="#A0907F" stroke-width="0.3861"/>
<path d="M524.624 167.72C524.624 170.277 522.525 172.354 519.931 172.354C517.336 172.354 515.237 170.277 515.237 167.72C515.237 165.164 517.336 163.087 519.931 163.087C522.525 163.087 524.624 165.164 524.624 167.72Z" stroke="#A0907F" stroke-width="0.3861"/>
<path d="M524.624 187.991C524.624 190.547 522.525 192.624 519.931 192.624C517.336 192.624 515.237 190.547 515.237 187.991C515.237 185.434 517.336 183.358 519.931 183.358C522.525 183.358 524.624 185.434 524.624 187.991Z" stroke="#A0907F" stroke-width="0.3861"/>
<path d="M524.624 208.261C524.624 210.817 522.525 212.894 519.931 212.894C517.336 212.894 515.237 210.817 515.237 208.261C515.237 205.704 517.336 203.628 519.931 203.628C522.525 203.628 524.624 205.704 524.624 208.261Z" stroke="#A0907F" stroke-width="0.3861"/>
<path d="M547.298 147.45C547.298 150.007 545.199 152.083 542.604 152.083C540.01 152.083 537.911 150.007 537.911 147.45C537.911 144.894 540.01 142.817 542.604 142.817C545.199 142.817 547.298 144.894 547.298 147.45Z" stroke="#A0907F" stroke-width="0.3861"/>
<path d="M547.298 167.72C547.298 170.277 545.199 172.354 542.604 172.354C540.01 172.354 537.911 170.277 537.911 167.72C537.911 165.164 540.01 163.087 542.604 163.087C545.199 163.087 547.298 165.164 547.298 167.72Z" stroke="#A0907F" stroke-width="0.3861"/>
<path d="M547.298 187.991C547.298 190.547 545.199 192.624 542.604 192.624C540.01 192.624 537.911 190.547 537.911 187.991C537.911 185.434 540.01 183.358 542.604 183.358C545.199 183.358 547.298 185.434 547.298 187.991Z" stroke="#A0907F" stroke-width="0.3861"/>
<path d="M547.298 208.261C547.298 210.817 545.199 212.894 542.604 212.894C540.01 212.894 537.911 210.817 537.911 208.261C537.911 205.704 540.01 203.628 542.604 203.628C545.199 203.628 547.298 205.704 547.298 208.261Z" stroke="#A0907F" stroke-width="0.3861"/>
<path d="M0.000976562 264.196H556.484" stroke="#626463" stroke-width="0.965251"/>
<path d="M0.000976562 284.467H556.484" stroke="#A0907F" stroke-width="0.579151"/>
<path d="M0.000976562 304.737H556.484" stroke="#A0907F" stroke-width="0.579151"/>
<path d="M0.000976562 325.007H556.484" stroke="#A0907F" stroke-width="0.579151"/>
<path d="M0.000976562 345.277H556.484" stroke="#A0907F" stroke-width="0.579151"/>
<path d="M0.000976562 365.548H556.484" stroke="#A0907F" stroke-width="0.579151"/>
<path d="M0.000976562 385.818H556.484" stroke="#A0907F" stroke-width="0.579151"/>
<path d="M0.000976562 406.088H556.484" stroke="#A0907F" stroke-width="0.579151"/>
<path d="M0.000976562 426.358H556.484" stroke="#A0907F" stroke-width="0.579151"/>
<path d="M0.000976562 446.629H556.484" stroke="#A0907F" stroke-width="0.579151"/>
<path d="M0.000976562 466.899H556.484" stroke="#A0907F" stroke-width="0.579151"/>
<path d="M4.16216 254.672V250.541H4.95753V255.753H3.98456L1.32819 251.598V255.753H0.532819V250.541H1.49807L4.16216 254.672ZM7.21169 255.753H6.41632V250.541H7.21169V255.753ZM12.7577 253.784H10.4488V253.112H13.499V255.753H12.7886V254.888C12.4488 255.521 11.8542 255.846 11.0048 255.846C9.51448 255.846 8.44112 254.749 8.44112 253.143C8.44112 251.544 9.53764 250.44 11.0743 250.44C12.1245 250.44 13.2597 251.004 13.5917 252.317L12.8272 252.525C12.6342 251.753 12.0164 251.174 11.0743 251.174C9.99324 251.174 9.23649 251.969 9.23649 253.143C9.23649 254.317 9.96236 255.112 11.0743 255.112C11.9237 255.112 12.5647 254.649 12.7577 253.784ZM15.6154 255.753H14.82V250.541H15.6154V252.772H18.2177V250.541H19.0131V255.753H18.2177V253.475H15.6154V255.753ZM20.0142 250.541H24.3617V251.243H22.5856V255.753H21.7902V251.243H20.0142V250.541ZM31.4657 255.753H30.5776L29.2803 253.598H28.1607V255.753H27.3653V250.541H29.6201C30.7321 250.541 31.4271 250.965 31.4271 252.07C31.4271 252.996 30.9406 253.444 30.1298 253.56L31.4657 255.753ZM29.5892 251.243H28.1607V252.896H29.5892C30.2688 252.896 30.6317 252.687 30.6317 252.07C30.6317 251.452 30.2533 251.243 29.5892 251.243ZM35.0774 255.846C33.533 255.846 32.4442 254.749 32.4442 253.143C32.4442 251.544 33.533 250.44 35.0774 250.44C36.6218 250.44 37.7106 251.544 37.7106 253.143C37.7106 254.749 36.6218 255.846 35.0774 255.846ZM35.0774 255.112C36.1585 255.112 36.9152 254.324 36.9152 253.143C36.9152 251.969 36.1585 251.174 35.0774 251.174C33.9963 251.174 33.2396 251.969 33.2396 253.143C33.2396 254.324 33.9963 255.112 35.0774 255.112ZM40.9748 255.846C39.7702 255.846 38.8822 255.189 38.8822 253.938V250.541H39.6775V253.838C39.6775 254.656 40.1872 255.12 40.9748 255.12C41.7625 255.12 42.2721 254.656 42.2721 253.838V250.541H43.0675V253.938C43.0675 255.189 42.1795 255.846 40.9748 255.846ZM44.0097 250.541H48.3572V251.243H46.5811V255.753H45.7858V251.243H44.0097V250.541ZM50.2996 255.753H49.5042V250.541H50.2996V255.753ZM55.3823 254.672V250.541H56.1777V255.753H55.2047L52.5483 251.598V255.753H51.753V250.541H52.7182L55.3823 254.672ZM61.2426 250.541V251.243H58.4318V252.78H61.011V253.475H58.4318V255.05H61.2426V255.753H57.6365V250.541H61.2426Z" fill="#626463"/>
<path d="M406.172 254.309L407.508 250.541H408.875V255.753H408.079V250.973L406.45 255.753H405.886L404.257 250.973V255.753H403.462V250.541H404.828L406.172 254.309Z" fill="#626463"/>
<path d="M427.033 250.541H431.381V251.244H429.605V255.753H428.809V251.244H427.033V250.541Z" fill="#626463"/>
<path d="M454.254 254.989L455.466 250.541H456.292L454.864 255.753H453.713L452.717 251.761L451.721 255.753H450.57L449.142 250.541H449.968L451.173 254.973L452.277 250.541H453.149L454.254 254.989Z" fill="#626463"/>
<path d="M474.073 250.541H478.421V251.244H476.645V255.753H475.849V251.244H474.073V250.541Z" fill="#626463"/>
<path d="M500.174 250.541V251.244H497.364V252.78H499.896V253.475H497.364V255.753H496.568V250.541H500.174Z" fill="#626463"/>
<path d="M520.193 255.846C519.011 255.846 518.247 255.267 518.092 254.255L518.857 254.07C518.973 254.765 519.482 255.174 520.239 255.174C520.903 255.174 521.289 254.85 521.289 254.348C521.289 253.746 520.679 253.614 520.007 253.445C519.197 253.228 518.278 252.973 518.278 251.916C518.278 251.043 519.004 250.441 520.123 250.441C521.065 250.441 521.868 250.865 522.077 251.908L521.359 252.093C521.212 251.39 520.741 251.105 520.123 251.105C519.467 251.105 519.065 251.414 519.065 251.892C519.065 252.441 519.621 252.572 520.316 252.742C521.135 252.943 522.085 253.236 522.085 254.263C522.085 255.244 521.421 255.846 520.193 255.846Z" fill="#626463"/>
<path d="M542.236 255.846C541.054 255.846 540.29 255.267 540.135 254.255L540.9 254.07C541.016 254.765 541.525 255.174 542.282 255.174C542.946 255.174 543.332 254.85 543.332 254.348C543.332 253.746 542.722 253.614 542.05 253.445C541.24 253.228 540.321 252.973 540.321 251.916C540.321 251.043 541.047 250.441 542.166 250.441C543.108 250.441 543.911 250.865 544.12 251.908L543.402 252.093C543.255 251.39 542.784 251.105 542.166 251.105C541.51 251.105 541.108 251.414 541.108 251.892C541.108 252.441 541.664 252.572 542.359 252.742C543.178 252.943 544.128 253.236 544.128 254.263C544.128 255.244 543.464 255.846 542.236 255.846Z" fill="#626463"/>
<path d="M411.256 274.236C411.256 276.793 409.157 278.87 406.562 278.87C403.968 278.87 401.869 276.793 401.869 274.236C401.869 271.68 403.968 269.603 406.562 269.603C409.157 269.603 411.256 271.68 411.256 274.236Z" stroke="#A0907F" stroke-width="0.3861"/>
<path d="M411.256 294.507C411.256 297.064 409.157 299.14 406.562 299.14C403.968 299.14 401.869 297.064 401.869 294.507C401.869 291.95 403.968 289.874 406.562 289.874C409.157 289.874 411.256 291.95 411.256 294.507Z" stroke="#A0907F" stroke-width="0.3861"/>
<path d="M411.256 314.777C411.256 317.334 409.157 319.41 406.562 319.41C403.968 319.41 401.869 317.334 401.869 314.777C401.869 312.22 403.968 310.144 406.562 310.144C409.157 310.144 411.256 312.22 411.256 314.777Z" stroke="#A0907F" stroke-width="0.3861"/>
<path d="M411.256 335.047C411.256 337.604 409.157 339.681 406.562 339.681C403.968 339.681 401.869 337.604 401.869 335.047C401.869 332.491 403.968 330.414 406.562 330.414C409.157 330.414 411.256 332.491 411.256 335.047Z" stroke="#A0907F" stroke-width="0.3861"/>
<path d="M411.256 355.317C411.256 357.874 409.157 359.951 406.562 359.951C403.968 359.951 401.869 357.874 401.869 355.317C401.869 352.761 403.968 350.684 406.562 350.684C409.157 350.684 411.256 352.761 411.256 355.317Z" stroke="#A0907F" stroke-width="0.3861"/>
<path d="M411.256 375.588C411.256 378.145 409.157 380.221 406.562 380.221C403.968 380.221 401.869 378.145 401.869 375.588C401.869 373.031 403.968 370.955 406.562 370.955C409.157 370.955 411.256 373.031 411.256 375.588Z" stroke="#A0907F" stroke-width="0.3861"/>
<path d="M433.93 274.236C433.93 276.793 431.831 278.87 429.236 278.87C426.642 278.87 424.543 276.793 424.543 274.236C424.543 271.68 426.642 269.603 429.236 269.603C431.831 269.603 433.93 271.68 433.93 274.236Z" stroke="#A0907F" stroke-width="0.3861"/>
<path d="M433.93 294.507C433.93 297.064 431.831 299.14 429.236 299.14C426.642 299.14 424.543 297.064 424.543 294.507C424.543 291.95 426.642 289.874 429.236 289.874C431.831 289.874 433.93 291.95 433.93 294.507Z" stroke="#A0907F" stroke-width="0.3861"/>
<path d="M433.93 314.777C433.93 317.334 431.831 319.41 429.236 319.41C426.642 319.41 424.543 317.334 424.543 314.777C424.543 312.22 426.642 310.144 429.236 310.144C431.831 310.144 433.93 312.22 433.93 314.777Z" stroke="#A0907F" stroke-width="0.3861"/>
<path d="M433.93 335.047C433.93 337.604 431.831 339.681 429.236 339.681C426.642 339.681 424.543 337.604 424.543 335.047C424.543 332.491 426.642 330.414 429.236 330.414C431.831 330.414 433.93 332.491 433.93 335.047Z" stroke="#A0907F" stroke-width="0.3861"/>
<path d="M433.93 355.317C433.93 357.874 431.831 359.951 429.236 359.951C426.642 359.951 424.543 357.874 424.543 355.317C424.543 352.761 426.642 350.684 429.236 350.684C431.831 350.684 433.93 352.761 433.93 355.317Z" stroke="#A0907F" stroke-width="0.3861"/>
<path d="M433.93 375.588C433.93 378.145 431.831 380.221 429.236 380.221C426.642 380.221 424.543 378.145 424.543 375.588C424.543 373.031 426.642 370.955 429.236 370.955C431.831 370.955 433.93 373.031 433.93 375.588Z" stroke="#A0907F" stroke-width="0.3861"/>
<path d="M456.604 274.236C456.604 276.793 454.504 278.87 451.91 278.87C449.316 278.87 447.216 276.793 447.216 274.236C447.216 271.68 449.316 269.603 451.91 269.603C454.504 269.603 456.604 271.68 456.604 274.236Z" stroke="#A0907F" stroke-width="0.3861"/>
<path d="M456.604 294.507C456.604 297.064 454.504 299.14 451.91 299.14C449.316 299.14 447.216 297.064 447.216 294.507C447.216 291.95 449.316 289.874 451.91 289.874C454.504 289.874 456.604 291.95 456.604 294.507Z" stroke="#A0907F" stroke-width="0.3861"/>
<path d="M456.604 314.777C456.604 317.334 454.504 319.41 451.91 319.41C449.316 319.41 447.216 317.334 447.216 314.777C447.216 312.22 449.316 310.144 451.91 310.144C454.504 310.144 456.604 312.22 456.604 314.777Z" stroke="#A0907F" stroke-width="0.3861"/>
<path d="M456.604 335.047C456.604 337.604 454.504 339.681 451.91 339.681C449.316 339.681 447.216 337.604 447.216 335.047C447.216 332.491 449.316 330.414 451.91 330.414C454.504 330.414 456.604 332.491 456.604 335.047Z" stroke="#A0907F" stroke-width="0.3861"/>
<path d="M456.604 355.317C456.604 357.874 454.504 359.951 451.91 359.951C449.316 359.951 447.216 357.874 447.216 355.317C447.216 352.761 449.316 350.684 451.91 350.684C454.504 350.684 456.604 352.761 456.604 355.317Z" stroke="#A0907F" stroke-width="0.3861"/>
<path d="M456.604 375.588C456.604 378.145 454.504 380.221 451.91 380.221C449.316 380.221 447.216 378.145 447.216 375.588C447.216 373.031 449.316 370.955 451.91 370.955C454.504 370.955 456.604 373.031 456.604 375.588Z" stroke="#A0907F" stroke-width="0.3861"/>
<path d="M479.276 274.236C479.276 276.793 477.177 278.87 474.583 278.87C471.988 278.87 469.889 276.793 469.889 274.236C469.889 271.68 471.988 269.603 474.583 269.603C477.177 269.603 479.276 271.68 479.276 274.236Z" stroke="#A0907F" stroke-width="0.3861"/>
<path d="M479.276 294.507C479.276 297.064 477.177 299.14 474.583 299.14C471.988 299.14 469.889 297.064 469.889 294.507C469.889 291.95 471.988 289.874 474.583 289.874C477.177 289.874 479.276 291.95 479.276 294.507Z" stroke="#A0907F" stroke-width="0.3861"/>
<path d="M479.276 314.777C479.276 317.334 477.177 319.41 474.583 319.41C471.988 319.41 469.889 317.334 469.889 314.777C469.889 312.22 471.988 310.144 474.583 310.144C477.177 310.144 479.276 312.22 479.276 314.777Z" stroke="#A0907F" stroke-width="0.3861"/>
<path d="M479.276 335.047C479.276 337.604 477.177 339.681 474.583 339.681C471.988 339.681 469.889 337.604 469.889 335.047C469.889 332.491 471.988 330.414 474.583 330.414C477.177 330.414 479.276 332.491 479.276 335.047Z" stroke="#A0907F" stroke-width="0.3861"/>
<path d="M479.276 355.317C479.276 357.874 477.177 359.951 474.583 359.951C471.988 359.951 469.889 357.874 469.889 355.317C469.889 352.761 471.988 350.684 474.583 350.684C477.177 350.684 479.276 352.761 479.276 355.317Z" stroke="#A0907F" stroke-width="0.3861"/>
<path d="M479.276 375.588C479.276 378.145 477.177 380.221 474.583 380.221C471.988 380.221 469.889 378.145 469.889 375.588C469.889 373.031 471.988 370.955 474.583 370.955C477.177 370.955 479.276 373.031 479.276 375.588Z" stroke="#A0907F" stroke-width="0.3861"/>
<path d="M501.951 274.236C501.951 276.793 499.852 278.87 497.258 278.87C494.663 278.87 492.564 276.793 492.564 274.236C492.564 271.68 494.663 269.603 497.258 269.603C499.852 269.603 501.951 271.68 501.951 274.236Z" stroke="#A0907F" stroke-width="0.3861"/>
<path d="M501.951 294.507C501.951 297.064 499.852 299.14 497.258 299.14C494.663 299.14 492.564 297.064 492.564 294.507C492.564 291.95 494.663 289.874 497.258 289.874C499.852 289.874 501.951 291.95 501.951 294.507Z" stroke="#A0907F" stroke-width="0.3861"/>
<path d="M501.951 314.777C501.951 317.334 499.852 319.41 497.258 319.41C494.663 319.41 492.564 317.334 492.564 314.777C492.564 312.22 494.663 310.144 497.258 310.144C499.852 310.144 501.951 312.22 501.951 314.777Z" stroke="#A0907F" stroke-width="0.3861"/>
<path d="M501.951 335.047C501.951 337.604 499.852 339.681 497.258 339.681C494.663 339.681 492.564 337.604 492.564 335.047C492.564 332.491 494.663 330.414 497.258 330.414C499.852 330.414 501.951 332.491 501.951 335.047Z" stroke="#A0907F" stroke-width="0.3861"/>
<path d="M501.951 355.317C501.951 357.874 499.852 359.951 497.258 359.951C494.663 359.951 492.564 357.874 492.564 355.317C492.564 352.761 494.663 350.684 497.258 350.684C499.852 350.684 501.951 352.761 501.951 355.317Z" stroke="#A0907F" stroke-width="0.3861"/>
<path d="M501.951 375.588C501.951 378.145 499.852 380.221 497.258 380.221C494.663 380.221 492.564 378.145 492.564 375.588C492.564 373.031 494.663 370.955 497.258 370.955C499.852 370.955 501.951 373.031 501.951 375.588Z" stroke="#A0907F" stroke-width="0.3861"/>
<path d="M524.624 274.236C524.624 276.793 522.525 278.87 519.931 278.87C517.336 278.87 515.237 276.793 515.237 274.236C515.237 271.68 517.336 269.603 519.931 269.603C522.525 269.603 524.624 271.68 524.624 274.236Z" stroke="#A0907F" stroke-width="0.3861"/>
<path d="M524.624 294.507C524.624 297.064 522.525 299.14 519.931 299.14C517.336 299.14 515.237 297.064 515.237 294.507C515.237 291.95 517.336 289.874 519.931 289.874C522.525 289.874 524.624 291.95 524.624 294.507Z" stroke="#A0907F" stroke-width="0.3861"/>
<path d="M524.624 314.777C524.624 317.334 522.525 319.41 519.931 319.41C517.336 319.41 515.237 317.334 515.237 314.777C515.237 312.22 517.336 310.144 519.931 310.144C522.525 310.144 524.624 312.22 524.624 314.777Z" stroke="#A0907F" stroke-width="0.3861"/>
<path d="M524.624 335.047C524.624 337.604 522.525 339.681 519.931 339.681C517.336 339.681 515.237 337.604 515.237 335.047C515.237 332.491 517.336 330.414 519.931 330.414C522.525 330.414 524.624 332.491 524.624 335.047Z" stroke="#A0907F" stroke-width="0.3861"/>
<path d="M524.624 355.317C524.624 357.874 522.525 359.951 519.931 359.951C517.336 359.951 515.237 357.874 515.237 355.317C515.237 352.761 517.336 350.684 519.931 350.684C522.525 350.684 524.624 352.761 524.624 355.317Z" stroke="#A0907F" stroke-width="0.3861"/>
<path d="M524.624 375.588C524.624 378.145 522.525 380.221 519.931 380.221C517.336 380.221 515.237 378.145 515.237 375.588C515.237 373.031 517.336 370.955 519.931 370.955C522.525 370.955 524.624 373.031 524.624 375.588Z" stroke="#A0907F" stroke-width="0.3861"/>
<path d="M547.298 274.236C547.298 276.793 545.199 278.87 542.604 278.87C540.01 278.87 537.911 276.793 537.911 274.236C537.911 271.68 540.01 269.603 542.604 269.603C545.199 269.603 547.298 271.68 547.298 274.236Z" stroke="#A0907F" stroke-width="0.3861"/>
<path d="M547.298 294.507C547.298 297.064 545.199 299.14 542.604 299.14C540.01 299.14 537.911 297.064 537.911 294.507C537.911 291.95 540.01 289.874 542.604 289.874C545.199 289.874 547.298 291.95 547.298 294.507Z" stroke="#A0907F" stroke-width="0.3861"/>
<path d="M547.298 314.777C547.298 317.334 545.199 319.41 542.604 319.41C540.01 319.41 537.911 317.334 537.911 314.777C537.911 312.22 540.01 310.144 542.604 310.144C545.199 310.144 547.298 312.22 547.298 314.777Z" stroke="#A0907F" stroke-width="0.3861"/>
<path d="M547.298 335.047C547.298 337.604 545.199 339.681 542.604 339.681C540.01 339.681 537.911 337.604 537.911 335.047C537.911 332.491 540.01 330.414 542.604 330.414C545.199 330.414 547.298 332.491 547.298 335.047Z" stroke="#A0907F" stroke-width="0.3861"/>
<path d="M547.298 355.317C547.298 357.874 545.199 359.951 542.604 359.951C540.01 359.951 537.911 357.874 537.911 355.317C537.911 352.761 540.01 350.684 542.604 350.684C545.199 350.684 547.298 352.761 547.298 355.317Z" stroke="#A0907F" stroke-width="0.3861"/>
<path d="M547.298 375.588C547.298 378.145 545.199 380.221 542.604 380.221C540.01 380.221 537.911 378.145 537.911 375.588C537.911 373.031 540.01 370.955 542.604 370.955C545.199 370.955 547.298 373.031 547.298 375.588Z" stroke="#A0907F" stroke-width="0.3861"/>
<path d="M411.256 395.858C411.256 398.415 409.157 400.491 406.562 400.491C403.968 400.491 401.869 398.415 401.869 395.858C401.869 393.301 403.968 391.225 406.562 391.225C409.157 391.225 411.256 393.301 411.256 395.858Z" stroke="#A0907F" stroke-width="0.3861"/>
<path d="M411.256 416.129C411.256 418.685 409.157 420.762 406.562 420.762C403.968 420.762 401.869 418.685 401.869 416.129C401.869 413.572 403.968 411.495 406.562 411.495C409.157 411.495 411.256 413.572 411.256 416.129Z" stroke="#A0907F" stroke-width="0.3861"/>
<path d="M411.256 436.399C411.256 438.955 409.157 441.032 406.562 441.032C403.968 441.032 401.869 438.955 401.869 436.399C401.869 433.842 403.968 431.765 406.562 431.765C409.157 431.765 411.256 433.842 411.256 436.399Z" stroke="#A0907F" stroke-width="0.3861"/>
<path d="M411.256 456.669C411.256 459.226 409.157 461.302 406.562 461.302C403.968 461.302 401.869 459.226 401.869 456.669C401.869 454.112 403.968 452.036 406.562 452.036C409.157 452.036 411.256 454.112 411.256 456.669Z" stroke="#A0907F" stroke-width="0.3861"/>
<path d="M433.93 395.858C433.93 398.415 431.831 400.491 429.236 400.491C426.642 400.491 424.543 398.415 424.543 395.858C424.543 393.301 426.642 391.225 429.236 391.225C431.831 391.225 433.93 393.301 433.93 395.858Z" stroke="#A0907F" stroke-width="0.3861"/>
<path d="M433.93 416.129C433.93 418.685 431.831 420.762 429.236 420.762C426.642 420.762 424.543 418.685 424.543 416.129C424.543 413.572 426.642 411.495 429.236 411.495C431.831 411.495 433.93 413.572 433.93 416.129Z" stroke="#A0907F" stroke-width="0.3861"/>
<path d="M433.93 436.399C433.93 438.955 431.831 441.032 429.236 441.032C426.642 441.032 424.543 438.955 424.543 436.399C424.543 433.842 426.642 431.765 429.236 431.765C431.831 431.765 433.93 433.842 433.93 436.399Z" stroke="#A0907F" stroke-width="0.3861"/>
<path d="M433.93 456.669C433.93 459.226 431.831 461.302 429.236 461.302C426.642 461.302 424.543 459.226 424.543 456.669C424.543 454.112 426.642 452.036 429.236 452.036C431.831 452.036 433.93 454.112 433.93 456.669Z" stroke="#A0907F" stroke-width="0.3861"/>
<path d="M456.604 395.858C456.604 398.415 454.504 400.491 451.91 400.491C449.316 400.491 447.216 398.415 447.216 395.858C447.216 393.301 449.316 391.225 451.91 391.225C454.504 391.225 456.604 393.301 456.604 395.858Z" stroke="#A0907F" stroke-width="0.3861"/>
<path d="M456.604 416.129C456.604 418.685 454.504 420.762 451.91 420.762C449.316 420.762 447.216 418.685 447.216 416.129C447.216 413.572 449.316 411.495 451.91 411.495C454.504 411.495 456.604 413.572 456.604 416.129Z" stroke="#A0907F" stroke-width="0.3861"/>
<path d="M456.604 436.399C456.604 438.955 454.504 441.032 451.91 441.032C449.316 441.032 447.216 438.955 447.216 436.399C447.216 433.842 449.316 431.765 451.91 431.765C454.504 431.765 456.604 433.842 456.604 436.399Z" stroke="#A0907F" stroke-width="0.3861"/>
<path d="M456.604 456.669C456.604 459.226 454.504 461.302 451.91 461.302C449.316 461.302 447.216 459.226 447.216 456.669C447.216 454.112 449.316 452.036 451.91 452.036C454.504 452.036 456.604 454.112 456.604 456.669Z" stroke="#A0907F" stroke-width="0.3861"/>
<path d="M479.276 395.858C479.276 398.415 477.177 400.491 474.583 400.491C471.988 400.491 469.889 398.415 469.889 395.858C469.889 393.301 471.988 391.225 474.583 391.225C477.177 391.225 479.276 393.301 479.276 395.858Z" stroke="#A0907F" stroke-width="0.3861"/>
<path d="M479.276 416.129C479.276 418.685 477.177 420.762 474.583 420.762C471.988 420.762 469.889 418.685 469.889 416.129C469.889 413.572 471.988 411.495 474.583 411.495C477.177 411.495 479.276 413.572 479.276 416.129Z" stroke="#A0907F" stroke-width="0.3861"/>
<path d="M479.276 436.399C479.276 438.955 477.177 441.032 474.583 441.032C471.988 441.032 469.889 438.955 469.889 436.399C469.889 433.842 471.988 431.765 474.583 431.765C477.177 431.765 479.276 433.842 479.276 436.399Z" stroke="#A0907F" stroke-width="0.3861"/>
<path d="M479.276 456.669C479.276 459.226 477.177 461.302 474.583 461.302C471.988 461.302 469.889 459.226 469.889 456.669C469.889 454.112 471.988 452.036 474.583 452.036C477.177 452.036 479.276 454.112 479.276 456.669Z" stroke="#A0907F" stroke-width="0.3861"/>
<path d="M501.951 395.858C501.951 398.415 499.852 400.491 497.258 400.491C494.663 400.491 492.564 398.415 492.564 395.858C492.564 393.301 494.663 391.225 497.258 391.225C499.852 391.225 501.951 393.301 501.951 395.858Z" stroke="#A0907F" stroke-width="0.3861"/>
<path d="M501.951 416.129C501.951 418.685 499.852 420.762 497.258 420.762C494.663 420.762 492.564 418.685 492.564 416.129C492.564 413.572 494.663 411.495 497.258 411.495C499.852 411.495 501.951 413.572 501.951 416.129Z" stroke="#A0907F" stroke-width="0.3861"/>
<path d="M501.951 436.399C501.951 438.955 499.852 441.032 497.258 441.032C494.663 441.032 492.564 438.955 492.564 436.399C492.564 433.842 494.663 431.765 497.258 431.765C499.852 431.765 501.951 433.842 501.951 436.399Z" stroke="#A0907F" stroke-width="0.3861"/>
<path d="M501.951 456.669C501.951 459.226 499.852 461.302 497.258 461.302C494.663 461.302 492.564 459.226 492.564 456.669C492.564 454.112 494.663 452.036 497.258 452.036C499.852 452.036 501.951 454.112 501.951 456.669Z" stroke="#A0907F" stroke-width="0.3861"/>
<path d="M524.624 395.858C524.624 398.415 522.525 400.491 519.931 400.491C517.336 400.491 515.237 398.415 515.237 395.858C515.237 393.301 517.336 391.225 519.931 391.225C522.525 391.225 524.624 393.301 524.624 395.858Z" stroke="#A0907F" stroke-width="0.3861"/>
<path d="M524.624 416.129C524.624 418.685 522.525 420.762 519.931 420.762C517.336 420.762 515.237 418.685 515.237 416.129C515.237 413.572 517.336 411.495 519.931 411.495C522.525 411.495 524.624 413.572 524.624 416.129Z" stroke="#A0907F" stroke-width="0.3861"/>
<path d="M524.624 436.399C524.624 438.955 522.525 441.032 519.931 441.032C517.336 441.032 515.237 438.955 515.237 436.399C515.237 433.842 517.336 431.765 519.931 431.765C522.525 431.765 524.624 433.842 524.624 436.399Z" stroke="#A0907F" stroke-width="0.3861"/>
<path d="M524.624 456.669C524.624 459.226 522.525 461.302 519.931 461.302C517.336 461.302 515.237 459.226 515.237 456.669C515.237 454.112 517.336 452.036 519.931 452.036C522.525 452.036 524.624 454.112 524.624 456.669Z" stroke="#A0907F" stroke-width="0.3861"/>
<path d="M547.298 395.858C547.298 398.415 545.199 400.491 542.604 400.491C540.01 400.491 537.911 398.415 537.911 395.858C537.911 393.301 540.01 391.225 542.604 391.225C545.199 391.225 547.298 393.301 547.298 395.858Z" stroke="#A0907F" stroke-width="0.3861"/>
<path d="M547.298 416.129C547.298 418.685 545.199 420.762 542.604 420.762C540.01 420.762 537.911 418.685 537.911 416.129C537.911 413.572 540.01 411.495 542.604 411.495C545.199 411.495 547.298 413.572 547.298 416.129Z" stroke="#A0907F" stroke-width="0.3861"/>
<path d="M547.298 436.399C547.298 438.955 545.199 441.032 542.604 441.032C540.01 441.032 537.911 438.955 537.911 436.399C537.911 433.842 540.01 431.765 542.604 431.765C545.199 431.765 547.298 433.842 547.298 436.399Z" stroke="#A0907F" stroke-width="0.3861"/>
<path d="M547.298 456.669C547.298 459.226 545.199 461.302 542.604 461.302C540.01 461.302 537.911 459.226 537.911 456.669C537.911 454.112 540.01 452.036 542.604 452.036C545.199 452.036 547.298 454.112 547.298 456.669Z" stroke="#A0907F" stroke-width="0.3861"/>
<path d="M0.382812 512.894H556.483" stroke="#626463" stroke-width="0.965251"/>
<path d="M0.382812 533.164H556.483" stroke="#A0907F" stroke-width="0.19305"/>
<path d="M0.382812 553.434H556.483" stroke="#A0907F" stroke-width="0.19305"/>
<path d="M0.382812 573.705H556.483" stroke="#A0907F" stroke-width="0.19305"/>
<path d="M0.382812 593.975H556.483" stroke="#A0907F" stroke-width="0.19305"/>
<path d="M0.382812 614.245H556.483" stroke="#A0907F" stroke-width="0.19305"/>
<path d="M0.382812 634.515H556.483" stroke="#A0907F" stroke-width="0.19305"/>
<path d="M0.382812 654.786H556.483" stroke="#A0907F" stroke-width="0.19305"/>
<path d="M0.382812 675.056H556.483" stroke="#626463" stroke-width="0.965251"/>
<path d="M0.382812 512.894V675.056" stroke="#A0907F" stroke-width="0.19305"/>
<path d="M20.3066 512.894V675.056" stroke="#A0907F" stroke-width="0.19305"/>
<path d="M40.0352 512.894V675.056" stroke="#A0907F" stroke-width="0.19305"/>
<path d="M59.958 512.894V675.056" stroke="#A0907F" stroke-width="0.19305"/>
<path d="M79.8809 512.894V675.056" stroke="#A0907F" stroke-width="0.19305"/>
<path d="M99.6094 512.894V675.056" stroke="#A0907F" stroke-width="0.19305"/>
<path d="M119.533 512.894V675.056" stroke="#A0907F" stroke-width="0.19305"/>
<path d="M139.457 512.894V675.056" stroke="#A0907F" stroke-width="0.19305"/>
<path d="M159.185 512.894V675.056" stroke="#A0907F" stroke-width="0.19305"/>
<path d="M179.108 512.894V675.056" stroke="#A0907F" stroke-width="0.19305"/>
<path d="M199.031 512.894V675.056" stroke="#A0907F" stroke-width="0.19305"/>
<path d="M218.76 512.894V675.056" stroke="#A0907F" stroke-width="0.19305"/>
<path d="M238.684 512.894V675.056" stroke="#A0907F" stroke-width="0.19305"/>
<path d="M258.607 512.894V675.056" stroke="#A0907F" stroke-width="0.19305"/>
<path d="M278.53 512.894V675.056" stroke="#A0907F" stroke-width="0.19305"/>
<path d="M298.259 512.894V675.056" stroke="#A0907F" stroke-width="0.19305"/>
<path d="M318.182 512.894V675.056" stroke="#A0907F" stroke-width="0.19305"/>
<path d="M338.105 512.894V675.056" stroke="#A0907F" stroke-width="0.19305"/>
<path d="M357.834 512.894V675.056" stroke="#A0907F" stroke-width="0.19305"/>
<path d="M377.758 512.894V675.056" stroke="#A0907F" stroke-width="0.19305"/>
<path d="M397.681 512.894V675.056" stroke="#A0907F" stroke-width="0.19305"/>
<path d="M417.408 512.894V675.056" stroke="#A0907F" stroke-width="0.19305"/>
<path d="M437.332 512.894V675.056" stroke="#A0907F" stroke-width="0.19305"/>
<path d="M457.256 512.894V675.056" stroke="#A0907F" stroke-width="0.19305"/>
<path d="M476.984 512.894V675.056" stroke="#A0907F" stroke-width="0.19305"/>
<path d="M496.908 512.894V675.056" stroke="#A0907F" stroke-width="0.19305"/>
<path d="M516.831 512.894V675.056" stroke="#A0907F" stroke-width="0.19305"/>
<path d="M536.559 512.894V675.056" stroke="#A0907F" stroke-width="0.19305"/>
<path d="M556.482 512.894V675.056" stroke="#A0907F" stroke-width="0.19305"/>
<path d="M4.54497 502.983V498.852H5.34034V504.064H4.36737L1.711 499.91V504.064H0.915631V498.852H1.88088L4.54497 502.983ZM9.2084 504.157C7.664 504.157 6.5752 503.061 6.5752 501.454C6.5752 499.856 7.664 498.752 9.2084 498.752C10.7528 498.752 11.8416 499.856 11.8416 501.454C11.8416 503.061 10.7528 504.157 9.2084 504.157ZM9.2084 503.424C10.2895 503.424 11.0462 502.636 11.0462 501.454C11.0462 500.281 10.2895 499.485 9.2084 499.485C8.12732 499.485 7.37057 500.281 7.37057 501.454C7.37057 502.636 8.12732 503.424 9.2084 503.424ZM12.31 498.852H16.6575V499.555H14.8814V504.064H14.0861V499.555H12.31V498.852ZM21.4107 498.852V499.555H18.5999V501.091H21.179V501.786H18.5999V503.362H21.4107V504.064H17.8045V498.852H21.4107ZM24.3491 504.157C23.1676 504.157 22.4031 503.578 22.2487 502.566L23.0132 502.381C23.129 503.076 23.6387 503.485 24.3954 503.485C25.0595 503.485 25.4456 503.161 25.4456 502.659C25.4456 502.057 24.8356 501.925 24.1638 501.756C23.353 501.539 22.434 501.285 22.434 500.227C22.434 499.354 23.1599 498.752 24.2796 498.752C25.2217 498.752 26.0248 499.176 26.2333 500.219L25.5151 500.404C25.3684 499.702 24.8974 499.416 24.2796 499.416C23.6232 499.416 23.2217 499.725 23.2217 500.203C23.2217 500.752 23.7777 500.883 24.4726 501.053C25.2912 501.254 26.241 501.547 26.241 502.574C26.241 503.555 25.5769 504.157 24.3491 504.157Z" fill="#626463"/>
</svg>
