<svg width="553" height="750" viewBox="0 0 553 750" fill="none" xmlns="http://www.w3.org/2000/svg">
<path d="M0.966797 1.00586L552.318 1.00591" stroke="#9A9A9A" stroke-width="0.3861" stroke-linecap="round" stroke-linejoin="round"/>
<path d="M0.966797 10.8516L552.318 10.8516" stroke="#9A9A9A" stroke-width="0.3861" stroke-linecap="round" stroke-linejoin="round"/>
<path d="M0.966797 20.6968L552.318 20.6968" stroke="#9A9A9A" stroke-width="0.3861" stroke-linecap="round" stroke-linejoin="round"/>
<path d="M0.966797 30.5425L552.318 30.5425" stroke="#9A9A9A" stroke-width="0.3861" stroke-linecap="round" stroke-linejoin="round"/>
<path d="M0.966797 40.3882L552.318 40.3882" stroke="#9A9A9A" stroke-width="0.3861" stroke-linecap="round" stroke-linejoin="round"/>
<path d="M0.966797 50.2339L552.318 50.2339" stroke="#9A9A9A" stroke-width="0.3861" stroke-linecap="round" stroke-linejoin="round"/>
<path d="M0.966797 60.0791L552.318 60.0791" stroke="#9A9A9A" stroke-width="0.3861" stroke-linecap="round" stroke-linejoin="round"/>
<path d="M0.966797 69.9248L552.318 69.9249" stroke="#9A9A9A" stroke-width="0.3861" stroke-linecap="round" stroke-linejoin="round"/>
<path d="M0.966797 79.7705L552.318 79.7706" stroke="#9A9A9A" stroke-width="0.3861" stroke-linecap="round" stroke-linejoin="round"/>
<path d="M0.966797 89.6157L552.318 89.6158" stroke="#9A9A9A" stroke-width="0.3861" stroke-linecap="round" stroke-linejoin="round"/>
<path d="M0.966797 99.4614L552.318 99.4615" stroke="#9A9A9A" stroke-width="0.3861" stroke-linecap="round" stroke-linejoin="round"/>
<path d="M0.966797 109.307L552.318 109.307" stroke="#9A9A9A" stroke-width="0.3861" stroke-linecap="round" stroke-linejoin="round"/>
<path d="M0.966797 119.152L552.318 119.152" stroke="#9A9A9A" stroke-width="0.3861" stroke-linecap="round" stroke-linejoin="round"/>
<path d="M0.966797 128.998L552.318 128.998" stroke="#9A9A9A" stroke-width="0.3861" stroke-linecap="round" stroke-linejoin="round"/>
<path d="M0.966797 138.844L552.318 138.844" stroke="#9A9A9A" stroke-width="0.3861" stroke-linecap="round" stroke-linejoin="round"/>
<path d="M0.966797 148.689L552.318 148.69" stroke="#9A9A9A" stroke-width="0.3861" stroke-linecap="round" stroke-linejoin="round"/>
<path d="M0.966797 158.535L552.318 158.535" stroke="#9A9A9A" stroke-width="0.3861" stroke-linecap="round" stroke-linejoin="round"/>
<path d="M0.966797 168.38L552.318 168.38" stroke="#9A9A9A" stroke-width="0.3861" stroke-linecap="round" stroke-linejoin="round"/>
<path d="M0.966797 178.226L552.318 178.226" stroke="#9A9A9A" stroke-width="0.3861" stroke-linecap="round" stroke-linejoin="round"/>
<path d="M0.966797 188.071L552.318 188.071" stroke="#9A9A9A" stroke-width="0.3861" stroke-linecap="round" stroke-linejoin="round"/>
<path d="M0.966797 197.917L552.318 197.917" stroke="#9A9A9A" stroke-width="0.3861" stroke-linecap="round" stroke-linejoin="round"/>
<path d="M0.966797 207.763L552.318 207.763" stroke="#9A9A9A" stroke-width="0.3861" stroke-linecap="round" stroke-linejoin="round"/>
<path d="M0.966797 217.608L552.318 217.608" stroke="#9A9A9A" stroke-width="0.3861" stroke-linecap="round" stroke-linejoin="round"/>
<path d="M0.966797 227.454L552.318 227.454" stroke="#9A9A9A" stroke-width="0.3861" stroke-linecap="round" stroke-linejoin="round"/>
<path d="M0.966797 237.299L552.318 237.299" stroke="#9A9A9A" stroke-width="0.3861" stroke-linecap="round" stroke-linejoin="round"/>
<path d="M0.966797 247.145L552.318 247.145" stroke="#9A9A9A" stroke-width="0.3861" stroke-linecap="round" stroke-linejoin="round"/>
<path d="M0.966797 256.99L552.318 256.99" stroke="#9A9A9A" stroke-width="0.3861" stroke-linecap="round" stroke-linejoin="round"/>
<path d="M0.966797 266.836L552.318 266.836" stroke="#9A9A9A" stroke-width="0.3861" stroke-linecap="round" stroke-linejoin="round"/>
<path d="M0.966797 276.682L552.318 276.682" stroke="#9A9A9A" stroke-width="0.3861" stroke-linecap="round" stroke-linejoin="round"/>
<path d="M0.966797 286.527L552.318 286.527" stroke="#9A9A9A" stroke-width="0.3861" stroke-linecap="round" stroke-linejoin="round"/>
<path d="M0.966797 296.373L552.318 296.373" stroke="#9A9A9A" stroke-width="0.3861" stroke-linecap="round" stroke-linejoin="round"/>
<path d="M0.966797 306.218L552.318 306.218" stroke="#9A9A9A" stroke-width="0.3861" stroke-linecap="round" stroke-linejoin="round"/>
<path d="M0.966797 316.064L552.318 316.064" stroke="#9A9A9A" stroke-width="0.3861" stroke-linecap="round" stroke-linejoin="round"/>
<path d="M0.966797 325.909L552.318 325.909" stroke="#9A9A9A" stroke-width="0.3861" stroke-linecap="round" stroke-linejoin="round"/>
<path d="M0.966797 335.755L552.318 335.755" stroke="#9A9A9A" stroke-width="0.3861" stroke-linecap="round" stroke-linejoin="round"/>
<path d="M0.966797 345.601L552.318 345.601" stroke="#9A9A9A" stroke-width="0.3861" stroke-linecap="round" stroke-linejoin="round"/>
<path d="M0.966797 355.446L552.318 355.446" stroke="#9A9A9A" stroke-width="0.3861" stroke-linecap="round" stroke-linejoin="round"/>
<path d="M0.966797 365.292L552.318 365.292" stroke="#9A9A9A" stroke-width="0.3861" stroke-linecap="round" stroke-linejoin="round"/>
<path d="M0.966797 375.137L552.318 375.137" stroke="#9A9A9A" stroke-width="0.3861" stroke-linecap="round" stroke-linejoin="round"/>
<path d="M0.966797 384.983L552.318 384.983" stroke="#9A9A9A" stroke-width="0.3861" stroke-linecap="round" stroke-linejoin="round"/>
<path d="M0.966797 394.828L552.318 394.828" stroke="#9A9A9A" stroke-width="0.3861" stroke-linecap="round" stroke-linejoin="round"/>
<path d="M0.966797 404.674L552.318 404.674" stroke="#9A9A9A" stroke-width="0.3861" stroke-linecap="round" stroke-linejoin="round"/>
<path d="M0.966797 414.52L552.318 414.52" stroke="#9A9A9A" stroke-width="0.3861" stroke-linecap="round" stroke-linejoin="round"/>
<path d="M0.966797 424.365L552.318 424.365" stroke="#9A9A9A" stroke-width="0.3861" stroke-linecap="round" stroke-linejoin="round"/>
<path d="M0.966797 434.21L552.318 434.21" stroke="#9A9A9A" stroke-width="0.3861" stroke-linecap="round" stroke-linejoin="round"/>
<path d="M0.966797 444.056L552.318 444.056" stroke="#9A9A9A" stroke-width="0.3861" stroke-linecap="round" stroke-linejoin="round"/>
<path d="M0.966797 453.901L552.318 453.901" stroke="#9A9A9A" stroke-width="0.3861" stroke-linecap="round" stroke-linejoin="round"/>
<path d="M0.966797 463.747L552.318 463.747" stroke="#9A9A9A" stroke-width="0.3861" stroke-linecap="round" stroke-linejoin="round"/>
<path d="M0.966797 473.593L552.318 473.593" stroke="#9A9A9A" stroke-width="0.3861" stroke-linecap="round" stroke-linejoin="round"/>
<path d="M0.966797 483.438L552.318 483.439" stroke="#9A9A9A" stroke-width="0.3861" stroke-linecap="round" stroke-linejoin="round"/>
<path d="M0.966797 493.284L552.318 493.284" stroke="#9A9A9A" stroke-width="0.3861" stroke-linecap="round" stroke-linejoin="round"/>
<path d="M0.966797 503.129L552.318 503.129" stroke="#9A9A9A" stroke-width="0.3861" stroke-linecap="round" stroke-linejoin="round"/>
<path d="M0.966797 512.975L552.318 512.975" stroke="#9A9A9A" stroke-width="0.3861" stroke-linecap="round" stroke-linejoin="round"/>
<path d="M0.966797 522.82L552.318 522.82" stroke="#9A9A9A" stroke-width="0.3861" stroke-linecap="round" stroke-linejoin="round"/>
<path d="M0.966797 532.666L552.318 532.666" stroke="#9A9A9A" stroke-width="0.3861" stroke-linecap="round" stroke-linejoin="round"/>
<path d="M0.966797 542.512L552.318 542.512" stroke="#9A9A9A" stroke-width="0.3861" stroke-linecap="round" stroke-linejoin="round"/>
<path d="M0.966797 552.357L552.318 552.357" stroke="#9A9A9A" stroke-width="0.3861" stroke-linecap="round" stroke-linejoin="round"/>
<path d="M0.966797 562.203L552.318 562.203" stroke="#9A9A9A" stroke-width="0.3861" stroke-linecap="round" stroke-linejoin="round"/>
<path d="M0.966797 572.048L552.318 572.048" stroke="#9A9A9A" stroke-width="0.3861" stroke-linecap="round" stroke-linejoin="round"/>
<path d="M0.966797 581.894L552.318 581.894" stroke="#9A9A9A" stroke-width="0.3861" stroke-linecap="round" stroke-linejoin="round"/>
<path d="M0.966797 591.739L552.318 591.739" stroke="#9A9A9A" stroke-width="0.3861" stroke-linecap="round" stroke-linejoin="round"/>
<path d="M0.966797 601.585L552.318 601.585" stroke="#9A9A9A" stroke-width="0.3861" stroke-linecap="round" stroke-linejoin="round"/>
<path d="M0.966797 611.431L552.318 611.431" stroke="#9A9A9A" stroke-width="0.3861" stroke-linecap="round" stroke-linejoin="round"/>
<path d="M0.966797 621.276L552.318 621.276" stroke="#9A9A9A" stroke-width="0.3861" stroke-linecap="round" stroke-linejoin="round"/>
<path d="M0.966797 631.122L552.318 631.122" stroke="#9A9A9A" stroke-width="0.3861" stroke-linecap="round" stroke-linejoin="round"/>
<path d="M0.966797 640.967L552.318 640.967" stroke="#9A9A9A" stroke-width="0.3861" stroke-linecap="round" stroke-linejoin="round"/>
<path d="M0.966797 650.813L552.318 650.813" stroke="#9A9A9A" stroke-width="0.3861" stroke-linecap="round" stroke-linejoin="round"/>
<path d="M0.966797 660.658L552.318 660.658" stroke="#9A9A9A" stroke-width="0.3861" stroke-linecap="round" stroke-linejoin="round"/>
<path d="M0.966797 670.504L552.318 670.504" stroke="#9A9A9A" stroke-width="0.3861" stroke-linecap="round" stroke-linejoin="round"/>
<path d="M0.966797 680.35L552.318 680.35" stroke="#9A9A9A" stroke-width="0.3861" stroke-linecap="round" stroke-linejoin="round"/>
<path d="M0.966797 690.195L552.318 690.195" stroke="#9A9A9A" stroke-width="0.3861" stroke-linecap="round" stroke-linejoin="round"/>
<path d="M0.966797 700.041L552.318 700.041" stroke="#9A9A9A" stroke-width="0.3861" stroke-linecap="round" stroke-linejoin="round"/>
<path d="M0.966797 709.886L552.318 709.886" stroke="#9A9A9A" stroke-width="0.3861" stroke-linecap="round" stroke-linejoin="round"/>
<path d="M0.966797 719.732L552.318 719.732" stroke="#9A9A9A" stroke-width="0.3861" stroke-linecap="round" stroke-linejoin="round"/>
<path d="M0.966797 729.577L552.318 729.577" stroke="#9A9A9A" stroke-width="0.3861" stroke-linecap="round" stroke-linejoin="round"/>
<path d="M0.966797 739.423L552.318 739.423" stroke="#9A9A9A" stroke-width="0.3861" stroke-linecap="round" stroke-linejoin="round"/>
<path d="M0.966797 749.269L552.318 749.269" stroke="#9A9A9A" stroke-width="0.3861" stroke-linecap="round" stroke-linejoin="round"/>
<path d="M0.966797 749.27L0.966845 1.00694" stroke="#9A9A9A" stroke-width="0.3861" stroke-linecap="round" stroke-linejoin="round"/>
<path d="M10.8125 749.27L10.8125 1.00694" stroke="#9A9A9A" stroke-width="0.3861" stroke-linecap="round" stroke-linejoin="round"/>
<path d="M20.6582 749.27L20.6583 1.00694" stroke="#9A9A9A" stroke-width="0.3861" stroke-linecap="round" stroke-linejoin="round"/>
<path d="M30.5039 749.27L30.504 1.00694" stroke="#9A9A9A" stroke-width="0.3861" stroke-linecap="round" stroke-linejoin="round"/>
<path d="M40.3486 749.27L40.3487 1.00694" stroke="#9A9A9A" stroke-width="0.3861" stroke-linecap="round" stroke-linejoin="round"/>
<path d="M50.1943 749.27L50.1944 1.00694" stroke="#9A9A9A" stroke-width="0.3861" stroke-linecap="round" stroke-linejoin="round"/>
<path d="M60.04 749.27L60.0401 1.00694" stroke="#9A9A9A" stroke-width="0.3861" stroke-linecap="round" stroke-linejoin="round"/>
<path d="M69.8857 749.27L69.8858 1.00694" stroke="#9A9A9A" stroke-width="0.3861" stroke-linecap="round" stroke-linejoin="round"/>
<path d="M79.7314 749.27L79.7315 1.00694" stroke="#9A9A9A" stroke-width="0.3861" stroke-linecap="round" stroke-linejoin="round"/>
<path d="M89.5771 749.27L89.5772 1.00694" stroke="#9A9A9A" stroke-width="0.3861" stroke-linecap="round" stroke-linejoin="round"/>
<path d="M99.4229 749.27L99.4229 1.00694" stroke="#9A9A9A" stroke-width="0.3861" stroke-linecap="round" stroke-linejoin="round"/>
<path d="M109.268 749.27L109.268 1.00694" stroke="#9A9A9A" stroke-width="0.3861" stroke-linecap="round" stroke-linejoin="round"/>
<path d="M119.113 749.27L119.113 1.00694" stroke="#9A9A9A" stroke-width="0.3861" stroke-linecap="round" stroke-linejoin="round"/>
<path d="M128.959 749.27L128.959 1.00694" stroke="#9A9A9A" stroke-width="0.3861" stroke-linecap="round" stroke-linejoin="round"/>
<path d="M138.805 749.27L138.805 1.00694" stroke="#9A9A9A" stroke-width="0.3861" stroke-linecap="round" stroke-linejoin="round"/>
<path d="M148.65 749.27L148.65 1.00694" stroke="#9A9A9A" stroke-width="0.3861" stroke-linecap="round" stroke-linejoin="round"/>
<path d="M158.496 749.27L158.496 1.00694" stroke="#9A9A9A" stroke-width="0.3861" stroke-linecap="round" stroke-linejoin="round"/>
<path d="M168.342 749.27L168.342 1.00694" stroke="#9A9A9A" stroke-width="0.3861" stroke-linecap="round" stroke-linejoin="round"/>
<path d="M178.187 749.27L178.187 1.00694" stroke="#9A9A9A" stroke-width="0.3861" stroke-linecap="round" stroke-linejoin="round"/>
<path d="M188.032 749.27L188.032 1.00694" stroke="#9A9A9A" stroke-width="0.3861" stroke-linecap="round" stroke-linejoin="round"/>
<path d="M197.878 749.27L197.878 1.00694" stroke="#9A9A9A" stroke-width="0.3861" stroke-linecap="round" stroke-linejoin="round"/>
<path d="M207.724 749.27L207.724 1.00694" stroke="#9A9A9A" stroke-width="0.3861" stroke-linecap="round" stroke-linejoin="round"/>
<path d="M217.569 749.27L217.569 1.00694" stroke="#9A9A9A" stroke-width="0.3861" stroke-linecap="round" stroke-linejoin="round"/>
<path d="M227.415 749.27L227.415 1.00694" stroke="#9A9A9A" stroke-width="0.3861" stroke-linecap="round" stroke-linejoin="round"/>
<path d="M237.26 749.27L237.26 1.00694" stroke="#9A9A9A" stroke-width="0.3861" stroke-linecap="round" stroke-linejoin="round"/>
<path d="M247.105 749.27L247.106 1.00694" stroke="#9A9A9A" stroke-width="0.3861" stroke-linecap="round" stroke-linejoin="round"/>
<path d="M256.951 749.27L256.951 1.00694" stroke="#9A9A9A" stroke-width="0.3861" stroke-linecap="round" stroke-linejoin="round"/>
<path d="M266.797 749.27L266.797 1.00694" stroke="#9A9A9A" stroke-width="0.3861" stroke-linecap="round" stroke-linejoin="round"/>
<path d="M276.643 749.27L276.643 1.00694" stroke="#9A9A9A" stroke-width="0.3861" stroke-linecap="round" stroke-linejoin="round"/>
<path d="M286.488 749.27L286.488 1.00694" stroke="#9A9A9A" stroke-width="0.3861" stroke-linecap="round" stroke-linejoin="round"/>
<path d="M296.334 749.27L296.334 1.00694" stroke="#9A9A9A" stroke-width="0.3861" stroke-linecap="round" stroke-linejoin="round"/>
<path d="M306.18 749.27L306.18 1.00694" stroke="#9A9A9A" stroke-width="0.3861" stroke-linecap="round" stroke-linejoin="round"/>
<path d="M316.025 749.27L316.025 1.00694" stroke="#9A9A9A" stroke-width="0.3861" stroke-linecap="round" stroke-linejoin="round"/>
<path d="M325.871 749.27L325.871 1.00694" stroke="#9A9A9A" stroke-width="0.3861" stroke-linecap="round" stroke-linejoin="round"/>
<path d="M335.717 749.27L335.717 1.00694" stroke="#9A9A9A" stroke-width="0.3861" stroke-linecap="round" stroke-linejoin="round"/>
<path d="M345.561 749.27L345.561 1.00694" stroke="#9A9A9A" stroke-width="0.3861" stroke-linecap="round" stroke-linejoin="round"/>
<path d="M355.406 749.27L355.406 1.00694" stroke="#9A9A9A" stroke-width="0.3861" stroke-linecap="round" stroke-linejoin="round"/>
<path d="M365.252 749.27L365.252 1.00694" stroke="#9A9A9A" stroke-width="0.3861" stroke-linecap="round" stroke-linejoin="round"/>
<path d="M375.098 749.27L375.098 1.00694" stroke="#9A9A9A" stroke-width="0.3861" stroke-linecap="round" stroke-linejoin="round"/>
<path d="M384.943 749.27L384.943 1.00694" stroke="#9A9A9A" stroke-width="0.3861" stroke-linecap="round" stroke-linejoin="round"/>
<path d="M394.789 749.27L394.789 1.00694" stroke="#9A9A9A" stroke-width="0.3861" stroke-linecap="round" stroke-linejoin="round"/>
<path d="M404.635 749.27L404.635 1.00694" stroke="#9A9A9A" stroke-width="0.3861" stroke-linecap="round" stroke-linejoin="round"/>
<path d="M414.48 749.27L414.481 1.00694" stroke="#9A9A9A" stroke-width="0.3861" stroke-linecap="round" stroke-linejoin="round"/>
<path d="M424.326 749.27L424.326 1.00694" stroke="#9A9A9A" stroke-width="0.3861" stroke-linecap="round" stroke-linejoin="round"/>
<path d="M434.172 749.27L434.172 1.00694" stroke="#9A9A9A" stroke-width="0.3861" stroke-linecap="round" stroke-linejoin="round"/>
<path d="M444.018 749.27L444.018 1.00694" stroke="#9A9A9A" stroke-width="0.3861" stroke-linecap="round" stroke-linejoin="round"/>
<path d="M453.863 749.27L453.863 1.00694" stroke="#9A9A9A" stroke-width="0.3861" stroke-linecap="round" stroke-linejoin="round"/>
<path d="M463.709 749.27L463.709 1.00694" stroke="#9A9A9A" stroke-width="0.3861" stroke-linecap="round" stroke-linejoin="round"/>
<path d="M473.553 749.27L473.553 1.00694" stroke="#9A9A9A" stroke-width="0.3861" stroke-linecap="round" stroke-linejoin="round"/>
<path d="M483.398 749.27L483.398 1.00694" stroke="#9A9A9A" stroke-width="0.3861" stroke-linecap="round" stroke-linejoin="round"/>
<path d="M493.244 749.27L493.244 1.00694" stroke="#9A9A9A" stroke-width="0.3861" stroke-linecap="round" stroke-linejoin="round"/>
<path d="M503.09 749.27L503.09 1.00694" stroke="#9A9A9A" stroke-width="0.3861" stroke-linecap="round" stroke-linejoin="round"/>
<path d="M512.936 749.27L512.936 1.00694" stroke="#9A9A9A" stroke-width="0.3861" stroke-linecap="round" stroke-linejoin="round"/>
<path d="M522.781 749.27L522.781 1.00694" stroke="#9A9A9A" stroke-width="0.3861" stroke-linecap="round" stroke-linejoin="round"/>
<path d="M532.627 749.27L532.627 1.00694" stroke="#9A9A9A" stroke-width="0.3861" stroke-linecap="round" stroke-linejoin="round"/>
<path d="M542.473 749.27L542.473 1.00694" stroke="#9A9A9A" stroke-width="0.3861" stroke-linecap="round" stroke-linejoin="round"/>
<path d="M552.318 749.27L552.318 1.00694" stroke="#9A9A9A" stroke-width="0.3861" stroke-linecap="round" stroke-linejoin="round"/>
</svg>
