<svg width="547" height="750" viewBox="0 0 547 750" fill="none" xmlns="http://www.w3.org/2000/svg">
<path d="M0.744141 1.19824H546.497" stroke="#9A9A9A" stroke-width="0.579151" stroke-linecap="round" stroke-linejoin="round"/>
<path d="M0.744141 21.4688H546.497" stroke="#9A9A9A" stroke-width="0.579151" stroke-linecap="round" stroke-linejoin="round"/>
<path d="M0.744141 41.5459H546.497" stroke="#9A9A9A" stroke-width="0.579151" stroke-linecap="round" stroke-linejoin="round"/>
<path d="M0.744141 61.8159H546.497" stroke="#9A9A9A" stroke-width="0.579151" stroke-linecap="round" stroke-linejoin="round"/>
<path d="M0.744141 82.0864H546.497" stroke="#9A9A9A" stroke-width="0.579151" stroke-linecap="round" stroke-linejoin="round"/>
<path d="M0.744141 102.356H546.497" stroke="#9A9A9A" stroke-width="0.579151" stroke-linecap="round" stroke-linejoin="round"/>
<path d="M0.744141 122.434H546.497" stroke="#9A9A9A" stroke-width="0.579151" stroke-linecap="round" stroke-linejoin="round"/>
<path d="M0.744141 142.704H546.497" stroke="#9A9A9A" stroke-width="0.579151" stroke-linecap="round" stroke-linejoin="round"/>
<path d="M0.744141 162.974H546.497" stroke="#9A9A9A" stroke-width="0.579151" stroke-linecap="round" stroke-linejoin="round"/>
<path d="M0.744141 183.052H546.497" stroke="#9A9A9A" stroke-width="0.579151" stroke-linecap="round" stroke-linejoin="round"/>
<path d="M0.744141 203.322H546.497" stroke="#9A9A9A" stroke-width="0.579151" stroke-linecap="round" stroke-linejoin="round"/>
<path d="M0.744141 223.592H546.497" stroke="#9A9A9A" stroke-width="0.579151" stroke-linecap="round" stroke-linejoin="round"/>
<path d="M0.744141 243.669H546.497" stroke="#9A9A9A" stroke-width="0.579151" stroke-linecap="round" stroke-linejoin="round"/>
<path d="M0.744141 263.939H546.497" stroke="#9A9A9A" stroke-width="0.579151" stroke-linecap="round" stroke-linejoin="round"/>
<path d="M0.744141 284.21H546.497" stroke="#9A9A9A" stroke-width="0.579151" stroke-linecap="round" stroke-linejoin="round"/>
<path d="M0.744141 304.48H546.497" stroke="#9A9A9A" stroke-width="0.579151" stroke-linecap="round" stroke-linejoin="round"/>
<path d="M0.744141 324.557H546.497" stroke="#9A9A9A" stroke-width="0.579151" stroke-linecap="round" stroke-linejoin="round"/>
<path d="M0.744141 344.828H546.497" stroke="#9A9A9A" stroke-width="0.579151" stroke-linecap="round" stroke-linejoin="round"/>
<path d="M0.744141 365.098H546.497" stroke="#9A9A9A" stroke-width="0.579151" stroke-linecap="round" stroke-linejoin="round"/>
<path d="M0.744141 385.175H546.497" stroke="#9A9A9A" stroke-width="0.579151" stroke-linecap="round" stroke-linejoin="round"/>
<path d="M0.744141 405.445H546.497" stroke="#9A9A9A" stroke-width="0.579151" stroke-linecap="round" stroke-linejoin="round"/>
<path d="M0.744141 425.716H546.497" stroke="#9A9A9A" stroke-width="0.579151" stroke-linecap="round" stroke-linejoin="round"/>
<path d="M0.744141 445.793H546.497" stroke="#9A9A9A" stroke-width="0.579151" stroke-linecap="round" stroke-linejoin="round"/>
<path d="M0.744141 466.063H546.497" stroke="#9A9A9A" stroke-width="0.579151" stroke-linecap="round" stroke-linejoin="round"/>
<path d="M0.744141 486.333H546.497" stroke="#9A9A9A" stroke-width="0.579151" stroke-linecap="round" stroke-linejoin="round"/>
<path d="M0.744141 506.604H546.497" stroke="#9A9A9A" stroke-width="0.579151" stroke-linecap="round" stroke-linejoin="round"/>
<path d="M0.744141 526.681H546.497" stroke="#9A9A9A" stroke-width="0.579151" stroke-linecap="round" stroke-linejoin="round"/>
<path d="M0.744141 546.951H546.497" stroke="#9A9A9A" stroke-width="0.579151" stroke-linecap="round" stroke-linejoin="round"/>
<path d="M0.744141 567.222H546.497" stroke="#9A9A9A" stroke-width="0.579151" stroke-linecap="round" stroke-linejoin="round"/>
<path d="M0.744141 587.299H546.497" stroke="#9A9A9A" stroke-width="0.579151" stroke-linecap="round" stroke-linejoin="round"/>
<path d="M0.744141 607.569H546.497" stroke="#9A9A9A" stroke-width="0.579151" stroke-linecap="round" stroke-linejoin="round"/>
<path d="M0.744141 627.839H546.497" stroke="#9A9A9A" stroke-width="0.579151" stroke-linecap="round" stroke-linejoin="round"/>
<path d="M0.744141 647.917H546.497" stroke="#9A9A9A" stroke-width="0.579151" stroke-linecap="round" stroke-linejoin="round"/>
<path d="M0.744141 668.187H546.497" stroke="#9A9A9A" stroke-width="0.579151" stroke-linecap="round" stroke-linejoin="round"/>
<path d="M0.744141 688.457H546.497" stroke="#9A9A9A" stroke-width="0.579151" stroke-linecap="round" stroke-linejoin="round"/>
<path d="M0.744141 708.727H546.497" stroke="#9A9A9A" stroke-width="0.579151" stroke-linecap="round" stroke-linejoin="round"/>
<path d="M0.744141 728.805H546.497" stroke="#9A9A9A" stroke-width="0.579151" stroke-linecap="round" stroke-linejoin="round"/>
<path d="M0.744141 749.075H546.497" stroke="#9A9A9A" stroke-width="0.579151" stroke-linecap="round" stroke-linejoin="round"/>
<path d="M0.744141 749.076L0.744141 1.19971" stroke="#9A9A9A" stroke-width="0.579151" stroke-linecap="round" stroke-linejoin="round"/>
<path d="M21.0137 749.076L21.0137 1.19971" stroke="#9A9A9A" stroke-width="0.579151" stroke-linecap="round" stroke-linejoin="round"/>
<path d="M41.0918 749.076L41.0918 1.19971" stroke="#9A9A9A" stroke-width="0.579151" stroke-linecap="round" stroke-linejoin="round"/>
<path d="M61.3613 749.076L61.3613 1.19971" stroke="#9A9A9A" stroke-width="0.579151" stroke-linecap="round" stroke-linejoin="round"/>
<path d="M81.6328 749.076L81.6328 1.19971" stroke="#9A9A9A" stroke-width="0.579151" stroke-linecap="round" stroke-linejoin="round"/>
<path d="M101.902 749.076L101.902 1.19971" stroke="#9A9A9A" stroke-width="0.579151" stroke-linecap="round" stroke-linejoin="round"/>
<path d="M121.98 749.076L121.98 1.19971" stroke="#9A9A9A" stroke-width="0.579151" stroke-linecap="round" stroke-linejoin="round"/>
<path d="M142.25 749.076L142.25 1.19971" stroke="#9A9A9A" stroke-width="0.579151" stroke-linecap="round" stroke-linejoin="round"/>
<path d="M162.52 749.076L162.52 1.19971" stroke="#9A9A9A" stroke-width="0.579151" stroke-linecap="round" stroke-linejoin="round"/>
<path d="M182.598 749.076L182.598 1.19971" stroke="#9A9A9A" stroke-width="0.579151" stroke-linecap="round" stroke-linejoin="round"/>
<path d="M202.867 749.076L202.867 1.19971" stroke="#9A9A9A" stroke-width="0.579151" stroke-linecap="round" stroke-linejoin="round"/>
<path d="M223.139 749.076L223.139 1.19971" stroke="#9A9A9A" stroke-width="0.579151" stroke-linecap="round" stroke-linejoin="round"/>
<path d="M243.215 749.076L243.215 1.19971" stroke="#9A9A9A" stroke-width="0.579151" stroke-linecap="round" stroke-linejoin="round"/>
<path d="M263.486 749.076L263.486 1.19971" stroke="#9A9A9A" stroke-width="0.579151" stroke-linecap="round" stroke-linejoin="round"/>
<path d="M283.756 749.076L283.756 1.19971" stroke="#9A9A9A" stroke-width="0.579151" stroke-linecap="round" stroke-linejoin="round"/>
<path d="M304.025 749.076L304.025 1.19971" stroke="#9A9A9A" stroke-width="0.579151" stroke-linecap="round" stroke-linejoin="round"/>
<path d="M324.104 749.076L324.104 1.19971" stroke="#9A9A9A" stroke-width="0.579151" stroke-linecap="round" stroke-linejoin="round"/>
<path d="M344.373 749.076L344.373 1.19971" stroke="#9A9A9A" stroke-width="0.579151" stroke-linecap="round" stroke-linejoin="round"/>
<path d="M364.645 749.076L364.645 1.19971" stroke="#9A9A9A" stroke-width="0.579151" stroke-linecap="round" stroke-linejoin="round"/>
<path d="M384.721 749.076L384.721 1.19971" stroke="#9A9A9A" stroke-width="0.579151" stroke-linecap="round" stroke-linejoin="round"/>
<path d="M404.992 749.076L404.992 1.19971" stroke="#9A9A9A" stroke-width="0.579151" stroke-linecap="round" stroke-linejoin="round"/>
<path d="M425.262 749.076L425.262 1.19971" stroke="#9A9A9A" stroke-width="0.579151" stroke-linecap="round" stroke-linejoin="round"/>
<path d="M445.338 749.076L445.338 1.19971" stroke="#9A9A9A" stroke-width="0.579151" stroke-linecap="round" stroke-linejoin="round"/>
<path d="M465.609 749.076L465.609 1.19971" stroke="#9A9A9A" stroke-width="0.579151" stroke-linecap="round" stroke-linejoin="round"/>
<path d="M485.879 749.076L485.879 1.19971" stroke="#9A9A9A" stroke-width="0.579151" stroke-linecap="round" stroke-linejoin="round"/>
<path d="M506.15 749.076L506.15 1.19971" stroke="#9A9A9A" stroke-width="0.579151" stroke-linecap="round" stroke-linejoin="round"/>
<path d="M526.227 749.076V1.19971" stroke="#9A9A9A" stroke-width="0.579151" stroke-linecap="round" stroke-linejoin="round"/>
<path d="M546.496 749.076V1.19971" stroke="#9A9A9A" stroke-width="0.579151" stroke-linecap="round" stroke-linejoin="round"/>
</svg>
