<svg width="547" height="750" viewBox="0 0 547 750" fill="none" xmlns="http://www.w3.org/2000/svg">
<path d="M0.589844 1.19824H546.343" stroke="#A0907F" stroke-width="0.579151" stroke-linecap="round" stroke-linejoin="round"/>
<path d="M0.589844 21.4688H546.343" stroke="#A0907F" stroke-width="0.579151" stroke-linecap="round" stroke-linejoin="round"/>
<path d="M0.589844 41.5459H546.343" stroke="#A0907F" stroke-width="0.579151" stroke-linecap="round" stroke-linejoin="round"/>
<path d="M0.589844 61.8159H546.343" stroke="#A0907F" stroke-width="0.579151" stroke-linecap="round" stroke-linejoin="round"/>
<path d="M0.589844 82.0864H546.343" stroke="#A0907F" stroke-width="0.579151" stroke-linecap="round" stroke-linejoin="round"/>
<path d="M0.589844 102.356H546.343" stroke="#A0907F" stroke-width="0.579151" stroke-linecap="round" stroke-linejoin="round"/>
<path d="M0.589844 122.434H546.343" stroke="#A0907F" stroke-width="0.579151" stroke-linecap="round" stroke-linejoin="round"/>
<path d="M0.589844 142.704H546.343" stroke="#A0907F" stroke-width="0.579151" stroke-linecap="round" stroke-linejoin="round"/>
<path d="M0.589844 162.974H546.343" stroke="#A0907F" stroke-width="0.579151" stroke-linecap="round" stroke-linejoin="round"/>
<path d="M0.589844 183.052H546.343" stroke="#A0907F" stroke-width="0.579151" stroke-linecap="round" stroke-linejoin="round"/>
<path d="M0.589844 203.322H546.343" stroke="#A0907F" stroke-width="0.579151" stroke-linecap="round" stroke-linejoin="round"/>
<path d="M0.589844 223.592H546.343" stroke="#A0907F" stroke-width="0.579151" stroke-linecap="round" stroke-linejoin="round"/>
<path d="M0.589844 243.669H546.343" stroke="#A0907F" stroke-width="0.579151" stroke-linecap="round" stroke-linejoin="round"/>
<path d="M0.589844 263.939H546.343" stroke="#A0907F" stroke-width="0.579151" stroke-linecap="round" stroke-linejoin="round"/>
<path d="M0.589844 284.21H546.343" stroke="#A0907F" stroke-width="0.579151" stroke-linecap="round" stroke-linejoin="round"/>
<path d="M0.589844 304.48H546.343" stroke="#A0907F" stroke-width="0.579151" stroke-linecap="round" stroke-linejoin="round"/>
<path d="M0.589844 324.557H546.343" stroke="#A0907F" stroke-width="0.579151" stroke-linecap="round" stroke-linejoin="round"/>
<path d="M0.589844 344.828H546.343" stroke="#A0907F" stroke-width="0.579151" stroke-linecap="round" stroke-linejoin="round"/>
<path d="M0.589844 365.098H546.343" stroke="#A0907F" stroke-width="0.579151" stroke-linecap="round" stroke-linejoin="round"/>
<path d="M0.589844 385.175H546.343" stroke="#A0907F" stroke-width="0.579151" stroke-linecap="round" stroke-linejoin="round"/>
<path d="M0.589844 405.445H546.343" stroke="#A0907F" stroke-width="0.579151" stroke-linecap="round" stroke-linejoin="round"/>
<path d="M0.589844 425.716H546.343" stroke="#A0907F" stroke-width="0.579151" stroke-linecap="round" stroke-linejoin="round"/>
<path d="M0.589844 445.793H546.343" stroke="#A0907F" stroke-width="0.579151" stroke-linecap="round" stroke-linejoin="round"/>
<path d="M0.589844 466.063H546.343" stroke="#A0907F" stroke-width="0.579151" stroke-linecap="round" stroke-linejoin="round"/>
<path d="M0.589844 486.333H546.343" stroke="#A0907F" stroke-width="0.579151" stroke-linecap="round" stroke-linejoin="round"/>
<path d="M0.589844 506.604H546.343" stroke="#A0907F" stroke-width="0.579151" stroke-linecap="round" stroke-linejoin="round"/>
<path d="M0.589844 526.681H546.343" stroke="#A0907F" stroke-width="0.579151" stroke-linecap="round" stroke-linejoin="round"/>
<path d="M0.589844 546.951H546.343" stroke="#A0907F" stroke-width="0.579151" stroke-linecap="round" stroke-linejoin="round"/>
<path d="M0.589844 567.222H546.343" stroke="#A0907F" stroke-width="0.579151" stroke-linecap="round" stroke-linejoin="round"/>
<path d="M0.589844 587.299H546.343" stroke="#A0907F" stroke-width="0.579151" stroke-linecap="round" stroke-linejoin="round"/>
<path d="M0.589844 607.569H546.343" stroke="#A0907F" stroke-width="0.579151" stroke-linecap="round" stroke-linejoin="round"/>
<path d="M0.589844 627.839H546.343" stroke="#A0907F" stroke-width="0.579151" stroke-linecap="round" stroke-linejoin="round"/>
<path d="M0.589844 647.917H546.343" stroke="#A0907F" stroke-width="0.579151" stroke-linecap="round" stroke-linejoin="round"/>
<path d="M0.589844 668.187H546.343" stroke="#A0907F" stroke-width="0.579151" stroke-linecap="round" stroke-linejoin="round"/>
<path d="M0.589844 688.457H546.343" stroke="#A0907F" stroke-width="0.579151" stroke-linecap="round" stroke-linejoin="round"/>
<path d="M0.589844 708.727H546.343" stroke="#A0907F" stroke-width="0.579151" stroke-linecap="round" stroke-linejoin="round"/>
<path d="M0.589844 728.805H546.343" stroke="#A0907F" stroke-width="0.579151" stroke-linecap="round" stroke-linejoin="round"/>
<path d="M0.589844 749.075H546.343" stroke="#A0907F" stroke-width="0.579151" stroke-linecap="round" stroke-linejoin="round"/>
<path d="M0.589844 749.076L0.589844 1.19971" stroke="#A0907F" stroke-width="0.579151" stroke-linecap="round" stroke-linejoin="round"/>
<path d="M20.8594 749.076L20.8594 1.19971" stroke="#A0907F" stroke-width="0.579151" stroke-linecap="round" stroke-linejoin="round"/>
<path d="M40.9375 749.076L40.9375 1.19971" stroke="#A0907F" stroke-width="0.579151" stroke-linecap="round" stroke-linejoin="round"/>
<path d="M61.207 749.076L61.207 1.19971" stroke="#A0907F" stroke-width="0.579151" stroke-linecap="round" stroke-linejoin="round"/>
<path d="M81.4785 749.076L81.4785 1.19971" stroke="#A0907F" stroke-width="0.579151" stroke-linecap="round" stroke-linejoin="round"/>
<path d="M101.748 749.076L101.748 1.19971" stroke="#A0907F" stroke-width="0.579151" stroke-linecap="round" stroke-linejoin="round"/>
<path d="M121.826 749.076L121.826 1.19971" stroke="#A0907F" stroke-width="0.579151" stroke-linecap="round" stroke-linejoin="round"/>
<path d="M142.096 749.076L142.096 1.19971" stroke="#A0907F" stroke-width="0.579151" stroke-linecap="round" stroke-linejoin="round"/>
<path d="M162.365 749.076L162.365 1.19971" stroke="#A0907F" stroke-width="0.579151" stroke-linecap="round" stroke-linejoin="round"/>
<path d="M182.443 749.076L182.443 1.19971" stroke="#A0907F" stroke-width="0.579151" stroke-linecap="round" stroke-linejoin="round"/>
<path d="M202.713 749.076L202.713 1.19971" stroke="#A0907F" stroke-width="0.579151" stroke-linecap="round" stroke-linejoin="round"/>
<path d="M222.984 749.076L222.984 1.19971" stroke="#A0907F" stroke-width="0.579151" stroke-linecap="round" stroke-linejoin="round"/>
<path d="M243.061 749.076L243.061 1.19971" stroke="#A0907F" stroke-width="0.579151" stroke-linecap="round" stroke-linejoin="round"/>
<path d="M263.332 749.076L263.332 1.19971" stroke="#A0907F" stroke-width="0.579151" stroke-linecap="round" stroke-linejoin="round"/>
<path d="M283.602 749.076L283.602 1.19971" stroke="#A0907F" stroke-width="0.579151" stroke-linecap="round" stroke-linejoin="round"/>
<path d="M303.871 749.076L303.871 1.19971" stroke="#A0907F" stroke-width="0.579151" stroke-linecap="round" stroke-linejoin="round"/>
<path d="M323.949 749.076L323.949 1.19971" stroke="#A0907F" stroke-width="0.579151" stroke-linecap="round" stroke-linejoin="round"/>
<path d="M344.219 749.076L344.219 1.19971" stroke="#A0907F" stroke-width="0.579151" stroke-linecap="round" stroke-linejoin="round"/>
<path d="M364.488 749.076L364.488 1.19971" stroke="#A0907F" stroke-width="0.579151" stroke-linecap="round" stroke-linejoin="round"/>
<path d="M384.566 749.076L384.566 1.19971" stroke="#A0907F" stroke-width="0.579151" stroke-linecap="round" stroke-linejoin="round"/>
<path d="M404.836 749.076L404.836 1.19971" stroke="#A0907F" stroke-width="0.579151" stroke-linecap="round" stroke-linejoin="round"/>
<path d="M425.107 749.076L425.107 1.19971" stroke="#A0907F" stroke-width="0.579151" stroke-linecap="round" stroke-linejoin="round"/>
<path d="M445.184 749.076L445.184 1.19971" stroke="#A0907F" stroke-width="0.579151" stroke-linecap="round" stroke-linejoin="round"/>
<path d="M465.455 749.076L465.455 1.19971" stroke="#A0907F" stroke-width="0.579151" stroke-linecap="round" stroke-linejoin="round"/>
<path d="M485.725 749.076L485.725 1.19971" stroke="#A0907F" stroke-width="0.579151" stroke-linecap="round" stroke-linejoin="round"/>
<path d="M505.996 749.076L505.996 1.19971" stroke="#A0907F" stroke-width="0.579151" stroke-linecap="round" stroke-linejoin="round"/>
<path d="M526.072 749.076V1.19971" stroke="#A0907F" stroke-width="0.579151" stroke-linecap="round" stroke-linejoin="round"/>
<path d="M546.342 749.076V1.19971" stroke="#A0907F" stroke-width="0.579151" stroke-linecap="round" stroke-linejoin="round"/>
<path d="M0.589844 587.3H546.343" stroke="#626463" stroke-width="0.965251" stroke-linecap="round" stroke-linejoin="round"/>
<path d="M162.367 1.58594L162.367 749.076" stroke="#626463" stroke-width="0.965251" stroke-linecap="round" stroke-linejoin="round"/>
</svg>
