<svg width="556" height="692" viewBox="0 0 556 692" fill="none" xmlns="http://www.w3.org/2000/svg">
<rect x="0.472656" y="0.0810547" width="554.805" height="169.112" fill="#F1F1F1"/>
<path d="M222.529 24.332V24.2162C222.714 24.2046 222.876 24.1004 222.876 23.6371V16.9189C222.876 16.4556 222.714 16.3513 222.529 16.3398V16.2239H224.266V16.3398C224.081 16.3513 223.919 16.4556 223.919 16.9189V20.7413C224.683 20.0116 225.83 19.4556 227.046 19.5946V16.9189C227.046 16.4556 226.884 16.3513 226.699 16.3398V16.2239H228.436V16.3398C228.251 16.3513 228.089 16.4556 228.089 16.9189V23.6371C228.089 24.1004 228.251 24.2046 228.436 24.2162V24.332H226.699V24.2162C226.884 24.2046 227.046 24.1004 227.046 23.6371V19.8262C225.807 19.6872 224.706 20.2432 223.919 21.0656V23.6371C223.919 24.1004 224.081 24.2046 224.266 24.2162V24.332H222.529ZM229.647 21.4363C229.647 19.7452 230.898 18.4247 232.485 18.4247C234.072 18.4247 235.323 19.7452 235.323 21.4363C235.323 23.1274 234.072 24.4479 232.485 24.4479C230.898 24.4479 229.647 23.1274 229.647 21.4363ZM230.806 21.4363C230.806 23.1158 231.466 24.2162 232.485 24.2162C233.505 24.2162 234.165 23.1158 234.165 21.4363C234.165 19.7567 233.505 18.6564 232.485 18.6564C231.466 18.6564 230.806 19.7567 230.806 21.4363ZM238.184 24.332L236.331 19.2355C236.192 18.888 236.041 18.7143 235.844 18.6564V18.5405H237.651V18.6564C237.489 18.7143 237.454 18.8764 237.547 19.2123L239.18 23.6718L240.072 21.2278L239.342 19.2355C239.203 18.888 239.053 18.7143 238.856 18.6564V18.5405H240.663V18.6564C240.501 18.7143 240.454 18.8764 240.559 19.2239L242.18 23.6834L242.956 21.5637C243.663 19.6293 243.779 18.8648 243.142 18.6564V18.5405H244.532V18.6564C244.335 18.7143 244.184 18.888 244.045 19.2355L242.192 24.332H241.196L240.188 21.5637L239.18 24.332H238.184ZM252.678 24.332H251.809L249.376 16.861C249.249 16.5482 249.122 16.3977 248.936 16.3398V16.2239H250.616V16.3398C250.454 16.3977 250.396 16.5598 250.488 16.8957L252.678 23.5907L253.882 19.861L252.909 16.861C252.782 16.5482 252.654 16.3977 252.469 16.3398V16.2239H254.149V16.3398C253.986 16.3977 253.929 16.5598 254.021 16.9073L256.199 23.6139L257.624 19.2471C258.249 17.3127 258.33 16.5482 257.693 16.3398V16.2239H259.083V16.3398C258.886 16.3977 258.747 16.5598 258.62 16.9189L256.21 24.332H255.342L254.01 20.2316L252.678 24.332ZM262.612 20.6139C261.639 21.6332 260.144 21.8996 260.144 22.9189C260.144 23.4286 260.515 23.776 261.071 23.776C261.847 23.776 262.612 23.0811 262.612 22.3513V20.6139ZM261.546 18.6564C260.874 18.6564 260.249 19.3398 259.843 20.2896H259.704V19.1313C260.26 18.6679 260.909 18.4247 261.581 18.4247C262.739 18.4247 263.654 19.1544 263.654 20.2432V23.6371C263.654 24.1004 263.816 24.2046 264.002 24.2162V24.332H262.612V23.1042C262.206 23.7992 261.338 24.4479 260.399 24.4479C259.554 24.4479 259.033 23.915 259.033 23.2316C259.033 21.7027 261.697 21.4594 262.612 20.2664V20.2432C262.612 19.3861 262.229 18.6564 261.546 18.6564ZM269.438 22.8031C269.438 23.6834 268.547 24.4479 267.249 24.4479C266.531 24.4479 265.801 24.2162 265.234 23.7413V22.583H265.373C265.778 23.5328 266.38 24.2162 267.249 24.2162C267.933 24.2162 268.419 23.7876 268.419 23.2548C268.419 21.8764 265.222 21.7606 265.222 20.0347C265.222 19.166 266.045 18.4247 267.377 18.4247C267.933 18.4247 268.651 18.5521 269.207 19.0154V20.1737H269.068C268.674 19.2239 268.106 18.6564 267.353 18.6564C266.716 18.6564 266.241 19.0618 266.241 19.5946C266.241 20.973 269.438 21.1235 269.438 22.8031ZM275.923 24.332V24.2162C276.108 24.2046 276.27 24.1004 276.27 23.6371V17.1506C276.27 16.6177 276.085 16.4556 275.703 16.4556C275.054 16.4556 274.463 16.9189 274.243 17.6139H274.128V16.2239H279.456V17.6139H279.34C279.12 16.9189 278.529 16.4556 277.88 16.4556C277.498 16.4556 277.313 16.6177 277.313 17.1506V23.6371C277.313 24.1004 277.475 24.2046 277.66 24.2162V24.332H275.923ZM280.611 24.332V24.2162C280.797 24.2046 280.959 24.1004 280.959 23.6371V16.9189C280.959 16.4556 280.797 16.3513 280.611 16.3398V16.2239H282.001V20.4054C282.314 19.3513 282.974 18.4247 284.028 18.4247C284.955 18.4247 285.592 19.1544 285.592 20.2432V23.6371C285.592 24.1004 285.754 24.2046 285.939 24.2162V24.332H284.202V24.2162C284.387 24.2046 284.55 24.1004 284.55 23.6371V20.2432C284.55 19.4672 284.167 18.9228 283.6 18.9228C282.592 18.9228 282.001 20.6718 282.001 21.9575V23.6371C282.001 24.1004 282.163 24.2046 282.349 24.2162V24.332H280.611ZM287.443 16.9305C287.443 16.6525 287.616 16.4324 287.929 16.4324C288.265 16.4324 288.485 16.6757 288.485 17.0116C288.485 17.4633 288.091 17.915 287.443 18.054C287.802 17.556 287.443 17.3243 287.443 16.9305ZM287.095 24.332V24.2162C287.28 24.2046 287.443 24.1004 287.443 23.6371V19.2355C287.443 18.7722 287.28 18.6679 287.095 18.6564V18.5405H288.485V23.6371C288.485 24.1004 288.647 24.2046 288.833 24.2162V24.332H287.095ZM294.267 22.8031C294.267 23.6834 293.375 24.4479 292.078 24.4479C291.36 24.4479 290.63 24.2162 290.063 23.7413V22.583H290.202C290.607 23.5328 291.209 24.2162 292.078 24.2162C292.761 24.2162 293.248 23.7876 293.248 23.2548C293.248 21.8764 290.051 21.7606 290.051 20.0347C290.051 19.166 290.873 18.4247 292.205 18.4247C292.761 18.4247 293.48 18.5521 294.036 19.0154V20.1737H293.897C293.503 19.2239 292.935 18.6564 292.182 18.6564C291.545 18.6564 291.07 19.0618 291.07 19.5946C291.07 20.973 294.267 21.1235 294.267 22.8031ZM302.582 24.332H301.713L299.281 16.861C299.153 16.5482 299.026 16.3977 298.841 16.3398V16.2239H300.52V16.3398C300.358 16.3977 300.3 16.5598 300.393 16.8957L302.582 23.5907L303.786 19.861L302.813 16.861C302.686 16.5482 302.559 16.3977 302.373 16.3398V16.2239H304.053V16.3398C303.891 16.3977 303.833 16.5598 303.925 16.9073L306.103 23.6139L307.528 19.2471C308.153 17.3127 308.234 16.5482 307.597 16.3398V16.2239H308.987V16.3398C308.79 16.3977 308.651 16.5598 308.524 16.9189L306.115 24.332H305.246L303.914 20.2316L302.582 24.332ZM313.778 22.9421L313.871 23.0116C313.454 23.776 312.643 24.4479 311.612 24.4479C310.118 24.4479 308.937 23.0347 308.937 21.3899C308.937 19.7452 310.118 18.4247 311.728 18.4247C312.887 18.4247 313.744 19.1081 313.744 19.8957C313.744 21.0888 311.821 21.6795 310.153 21.9459C310.408 23.2548 311.334 23.8224 312.18 23.8224C312.817 23.8224 313.443 23.4981 313.778 22.9421ZM310.118 21.7143C311.682 21.471 312.701 20.9266 312.701 19.8262C312.701 19.2123 312.331 18.6564 311.682 18.6564C310.778 18.6564 310.083 19.7567 310.083 21.2046C310.083 21.3899 310.095 21.5521 310.118 21.7143ZM319.878 22.9421L319.97 23.0116C319.553 23.776 318.742 24.4479 317.712 24.4479C316.217 24.4479 315.036 23.0347 315.036 21.3899C315.036 19.7452 316.217 18.4247 317.827 18.4247C318.986 18.4247 319.843 19.1081 319.843 19.8957C319.843 21.0888 317.92 21.6795 316.252 21.9459C316.507 23.2548 317.434 23.8224 318.279 23.8224C318.916 23.8224 319.542 23.4981 319.878 22.9421ZM316.217 21.7143C317.781 21.471 318.8 20.9266 318.8 19.8262C318.8 19.2123 318.43 18.6564 317.781 18.6564C316.878 18.6564 316.183 19.7567 316.183 21.2046C316.183 21.3899 316.194 21.5521 316.217 21.7143ZM321.19 24.332V24.2162C321.376 24.2046 321.538 24.1004 321.538 23.6371V16.9189C321.538 16.4556 321.376 16.3513 321.19 16.3398V16.2239H322.58V21.2973L324.121 19.2471C324.491 18.7606 324.897 18.5405 325.291 18.5405C325.742 18.5405 326.125 18.8417 326.125 19.3513C326.125 20.1737 325.105 20.973 324.213 21.1351L325.627 23.6718C325.835 24.0309 325.963 24.1583 326.159 24.2162V24.332H324.329V24.2162C324.573 24.1815 324.573 23.973 324.399 23.6139L323.009 21.112L322.58 21.6795V23.6371C322.58 24.1004 322.742 24.2046 322.928 24.2162V24.332H321.19ZM323.148 20.9266H323.901C324.677 20.9266 325.198 20.2896 325.198 19.6988C325.198 19.3745 325.047 19.1776 324.816 19.1776C324.561 19.1776 324.295 19.3977 323.993 19.8031L323.148 20.9266ZM330.799 18.0656C330.799 17.0116 330.266 16.3398 329.443 16.3398C328.551 16.3398 327.822 17.139 327.486 18.193H327.37V16.5714H327.486C327.532 16.6641 327.579 16.6988 327.648 16.6988C327.903 16.6988 328.401 16.1081 329.617 16.1081C331.019 16.1081 331.957 16.8957 331.957 18.0888C331.957 20.0579 329.42 20.776 329.42 22.5482H329.189C329.189 20.5907 330.799 19.8957 330.799 18.0656ZM328.702 23.6718C328.702 23.2896 328.98 23.0116 329.362 23.0116C329.745 23.0116 330.023 23.2896 330.023 23.6718C330.023 24.054 329.745 24.332 329.362 24.332C328.98 24.332 328.702 24.054 328.702 23.6718Z" fill="#626463"/>
<path d="M209.738 126.842V126.726C209.923 126.714 210.086 126.61 210.086 126.147V119.429C210.086 118.965 209.923 118.861 209.738 118.85V118.734H211.476V118.85C211.29 118.861 211.128 118.965 211.128 119.429V126.147C211.128 126.61 211.29 126.714 211.476 126.726V126.842H209.738ZM212.694 119.324C212.694 118.977 212.949 118.734 213.308 118.734C213.69 118.734 213.933 119.023 213.933 119.463C213.933 120.054 213.493 120.761 212.856 121.039L212.775 120.946C213.146 120.656 213.389 120.274 213.099 119.961C212.961 119.811 212.694 119.683 212.694 119.324ZM215.15 126.842V126.726C215.335 126.714 215.497 126.61 215.497 126.147V121.745C215.497 121.282 215.335 121.178 215.15 121.166V121.05H216.54V122.915C216.852 121.861 217.513 120.934 218.567 120.934C219.493 120.934 220.13 121.664 220.13 122.753V122.915C220.443 121.861 221.103 120.934 222.157 120.934C223.084 120.934 223.721 121.664 223.721 122.753V126.147C223.721 126.61 223.883 126.714 224.069 126.726V126.842H222.331V126.726C222.516 126.714 222.679 126.61 222.679 126.147V122.753C222.679 121.977 222.296 121.433 221.729 121.433C220.721 121.433 220.13 123.182 220.13 124.467V126.147C220.13 126.61 220.292 126.714 220.478 126.726V126.842H218.74V126.726C218.926 126.714 219.088 126.61 219.088 126.147V122.753C219.088 121.977 218.706 121.433 218.138 121.433C217.13 121.433 216.54 123.182 216.54 124.467V126.147C216.54 126.61 216.702 126.714 216.887 126.726V126.842H215.15ZM233.976 126.402C233.489 126.402 233.084 126.958 232.111 126.958C230.223 126.958 228.763 124.884 228.763 122.73C228.763 120.448 230.408 118.618 232.435 118.618C233.686 118.618 234.346 119.313 234.59 118.85H234.705V120.471H234.59C234.207 119.417 233.257 118.85 232.412 118.85C230.952 118.85 229.922 120.564 229.922 122.626C229.922 125.116 231.439 126.471 232.771 126.471C233.396 126.471 233.825 126.17 233.825 125.614V123.645C233.825 123.182 233.663 123.077 233.478 123.066V122.95H235.215V123.066C235.03 123.077 234.868 123.182 234.868 123.645V126.842H234.636C234.427 126.552 234.23 126.402 233.976 126.402ZM239.11 121.583C238.23 121.583 237.767 123.066 237.767 124.467V126.147C237.767 126.61 237.929 126.714 238.114 126.726V126.842H236.377V126.726C236.562 126.714 236.724 126.61 236.724 126.147V121.745C236.724 121.282 236.562 121.178 236.377 121.166V121.05H237.767V122.776C238.045 121.768 238.589 120.934 239.377 120.934C239.62 120.934 239.898 121.016 240.118 121.294V122.452H239.979C239.771 121.78 239.423 121.583 239.11 121.583ZM244.507 123.124C243.534 124.143 242.04 124.409 242.04 125.429C242.04 125.938 242.41 126.286 242.966 126.286C243.742 126.286 244.507 125.591 244.507 124.861V123.124ZM243.441 121.166C242.769 121.166 242.144 121.85 241.738 122.799H241.599V121.641C242.155 121.178 242.804 120.934 243.476 120.934C244.634 120.934 245.549 121.664 245.549 122.753V126.147C245.549 126.61 245.711 126.714 245.897 126.726V126.842H244.507V125.614C244.101 126.309 243.233 126.958 242.294 126.958C241.449 126.958 240.928 126.425 240.928 125.741C240.928 124.212 243.592 123.969 244.507 122.776V122.753C244.507 121.896 244.125 121.166 243.441 121.166ZM249.781 126.286C249.585 126.691 249.179 126.958 248.727 126.958C248.032 126.958 247.581 126.332 247.581 125.394V121.282H246.886V121.05C247.627 121.004 248.148 120.564 248.391 119.707H248.623V121.05H249.781V121.282H248.623V125.487C248.623 126.135 248.808 126.483 249.168 126.483C249.318 126.483 249.527 126.425 249.689 126.216L249.781 126.286ZM255.615 125.452L255.708 125.521C255.291 126.286 254.48 126.958 253.449 126.958C251.955 126.958 250.773 125.544 250.773 123.9C250.773 122.255 251.955 120.934 253.565 120.934C254.723 120.934 255.58 121.618 255.58 122.406C255.58 123.599 253.657 124.189 251.989 124.456C252.244 125.765 253.171 126.332 254.016 126.332C254.654 126.332 255.279 126.008 255.615 125.452ZM251.955 124.224C253.518 123.981 254.538 123.436 254.538 122.336C254.538 121.722 254.167 121.166 253.518 121.166C252.615 121.166 251.92 122.267 251.92 123.714C251.92 123.9 251.932 124.062 251.955 124.224ZM259.209 118.618C259.615 118.618 260.078 118.734 260.484 119.104V120.263H260.345C260.009 119.313 259.626 118.85 259.175 118.85C258.607 118.85 258.491 119.614 258.491 120.517V121.05H259.65V121.282H258.491V126.147C258.491 126.61 258.653 126.714 258.839 126.726V126.842H257.101V126.726C257.287 126.714 257.449 126.61 257.449 126.147V121.282H256.754V121.05H257.449V120.517C257.449 119.533 258.074 118.618 259.209 118.618ZM266.051 121.05V126.147C266.051 126.61 266.213 126.714 266.398 126.726V126.842H265.008V124.977C264.695 126.031 264.035 126.958 262.981 126.958C262.054 126.958 261.417 126.228 261.417 125.139V121.745C261.417 121.282 261.255 121.178 261.07 121.166V121.05H262.46V125.139C262.46 125.915 262.842 126.46 263.41 126.46C264.417 126.46 265.008 124.711 265.008 123.425V121.745C265.008 121.282 264.846 121.178 264.661 121.166V121.05H266.051ZM267.554 126.842V126.726C267.739 126.714 267.901 126.61 267.901 126.147V119.429C267.901 118.965 267.739 118.861 267.554 118.85V118.734H268.944V126.147C268.944 126.61 269.106 126.714 269.291 126.726V126.842H267.554ZM275.722 126.842V126.726C275.907 126.714 276.069 126.61 276.069 126.147V119.66C276.069 119.128 275.884 118.965 275.502 118.965C274.853 118.965 274.262 119.429 274.042 120.124H273.927V118.734H279.255V120.124H279.139C278.919 119.429 278.328 118.965 277.679 118.965C277.297 118.965 277.112 119.128 277.112 119.66V126.147C277.112 126.61 277.274 126.714 277.459 126.726V126.842H275.722ZM280.41 126.842V126.726C280.596 126.714 280.758 126.61 280.758 126.147V119.429C280.758 118.965 280.596 118.861 280.41 118.85V118.734H281.8V122.915C282.113 121.861 282.773 120.934 283.827 120.934C284.754 120.934 285.391 121.664 285.391 122.753V126.147C285.391 126.61 285.553 126.714 285.739 126.726V126.842H284.001V126.726C284.186 126.714 284.349 126.61 284.349 126.147V122.753C284.349 121.977 283.966 121.433 283.399 121.433C282.391 121.433 281.8 123.182 281.8 124.467V126.147C281.8 126.61 281.962 126.714 282.148 126.726V126.842H280.41ZM287.242 119.44C287.242 119.162 287.415 118.942 287.728 118.942C288.064 118.942 288.284 119.185 288.284 119.521C288.284 119.973 287.89 120.425 287.242 120.564C287.601 120.066 287.242 119.834 287.242 119.44ZM286.894 126.842V126.726C287.079 126.714 287.242 126.61 287.242 126.147V121.745C287.242 121.282 287.079 121.178 286.894 121.166V121.05H288.284V126.147C288.284 126.61 288.446 126.714 288.632 126.726V126.842H286.894ZM294.066 125.313C294.066 126.193 293.174 126.958 291.877 126.958C291.159 126.958 290.429 126.726 289.862 126.251V125.093H290.001C290.406 126.043 291.008 126.726 291.877 126.726C292.56 126.726 293.047 126.297 293.047 125.765C293.047 124.386 289.85 124.27 289.85 122.544C289.85 121.676 290.672 120.934 292.005 120.934C292.56 120.934 293.279 121.062 293.835 121.525V122.683H293.696C293.302 121.734 292.734 121.166 291.981 121.166C291.344 121.166 290.869 121.572 290.869 122.104C290.869 123.483 294.066 123.633 294.066 125.313ZM302.381 126.842H301.512L299.08 119.371C298.952 119.058 298.825 118.907 298.64 118.85V118.734H300.319V118.85C300.157 118.907 300.099 119.07 300.192 119.406L302.381 126.1L303.586 122.371L302.613 119.371C302.485 119.058 302.358 118.907 302.172 118.85V118.734H303.852V118.85C303.69 118.907 303.632 119.07 303.725 119.417L305.902 126.124L307.327 121.757C307.952 119.822 308.033 119.058 307.396 118.85V118.734H308.786V118.85C308.589 118.907 308.45 119.07 308.323 119.429L305.914 126.842H305.045L303.713 122.741L302.381 126.842ZM313.578 125.452L313.67 125.521C313.253 126.286 312.442 126.958 311.411 126.958C309.917 126.958 308.736 125.544 308.736 123.9C308.736 122.255 309.917 120.934 311.527 120.934C312.686 120.934 313.543 121.618 313.543 122.406C313.543 123.599 311.62 124.189 309.952 124.456C310.207 125.765 311.133 126.332 311.979 126.332C312.616 126.332 313.242 126.008 313.578 125.452ZM309.917 124.224C311.481 123.981 312.5 123.436 312.5 122.336C312.5 121.722 312.13 121.166 311.481 121.166C310.578 121.166 309.883 122.267 309.883 123.714C309.883 123.9 309.894 124.062 309.917 124.224ZM319.677 125.452L319.769 125.521C319.352 126.286 318.542 126.958 317.511 126.958C316.016 126.958 314.835 125.544 314.835 123.9C314.835 122.255 316.016 120.934 317.626 120.934C318.785 120.934 319.642 121.618 319.642 122.406C319.642 123.599 317.719 124.189 316.051 124.456C316.306 125.765 317.233 126.332 318.078 126.332C318.715 126.332 319.341 126.008 319.677 125.452ZM316.016 124.224C317.58 123.981 318.599 123.436 318.599 122.336C318.599 121.722 318.229 121.166 317.58 121.166C316.677 121.166 315.982 122.267 315.982 123.714C315.982 123.9 315.993 124.062 316.016 124.224ZM320.989 126.842V126.726C321.175 126.714 321.337 126.61 321.337 126.147V119.429C321.337 118.965 321.175 118.861 320.989 118.85V118.734H322.379V123.807L323.92 121.757C324.291 121.27 324.696 121.05 325.09 121.05C325.541 121.05 325.924 121.351 325.924 121.861C325.924 122.683 324.904 123.483 324.013 123.645L325.426 126.182C325.634 126.541 325.762 126.668 325.958 126.726V126.842H324.128V126.726C324.372 126.691 324.372 126.483 324.198 126.124L322.808 123.622L322.379 124.189V126.147C322.379 126.61 322.541 126.714 322.727 126.726V126.842H320.989ZM322.947 123.436H323.7C324.476 123.436 324.997 122.799 324.997 122.209C324.997 121.884 324.847 121.687 324.615 121.687C324.36 121.687 324.094 121.907 323.792 122.313L322.947 123.436ZM330.586 126.842V126.726C330.771 126.714 330.934 126.61 330.934 126.147V119.429C330.934 118.965 330.771 118.861 330.586 118.85V118.734H335.393V120.124H335.277C335.057 119.429 334.432 118.965 333.713 118.965H332.324C332.092 118.965 331.976 119.128 331.976 119.429V122.88C332.242 122.568 332.648 122.324 333.134 122.324C333.54 122.324 333.806 122.151 333.945 121.745H334.061V123.135H333.945C333.783 122.718 333.493 122.556 333.134 122.556C332.59 122.556 332.173 122.915 331.976 123.286V126.147C331.976 126.61 332.138 126.714 332.324 126.726V126.842H330.586ZM335.454 123.946C335.454 122.255 336.705 120.934 338.291 120.934C339.878 120.934 341.129 122.255 341.129 123.946C341.129 125.637 339.878 126.958 338.291 126.958C336.705 126.958 335.454 125.637 335.454 123.946ZM336.612 123.946C336.612 125.626 337.272 126.726 338.291 126.726C339.311 126.726 339.971 125.626 339.971 123.946C339.971 122.267 339.311 121.166 338.291 121.166C337.272 121.166 336.612 122.267 336.612 123.946ZM345.077 121.583C344.197 121.583 343.733 123.066 343.733 124.467V126.147C343.733 126.61 343.895 126.714 344.081 126.726V126.842H342.343V126.726C342.529 126.714 342.691 126.61 342.691 126.147V121.745C342.691 121.282 342.529 121.178 342.343 121.166V121.05H343.733V122.776C344.011 121.768 344.556 120.934 345.343 120.934C345.587 120.934 345.865 121.016 346.085 121.294V122.452H345.946C345.737 121.78 345.39 121.583 345.077 121.583Z" fill="#626463"/>
<rect x="18.883" y="139.367" width="160.811" height="17.9537" rx="8.97683" stroke="#A0907F" stroke-width="0.965251"/>
<path d="M29.9955 146.955C29.9955 145.703 28.9702 144.688 27.7058 144.688C26.4414 144.688 25.416 145.703 25.416 146.955C25.416 147.612 25.7019 148.197 26.1517 148.613L26.1461 148.615L29.9955 152.428L33.8474 148.615C33.8457 148.613 33.8443 148.613 33.8425 148.612C34.291 148.196 34.5751 147.612 34.5751 146.955C34.5751 145.703 33.5517 144.688 32.2855 144.688C31.0216 144.688 29.9955 145.703 29.9955 146.955Z" stroke="#A0907F" stroke-width="0.965251" stroke-linejoin="round"/>
<rect x="196.803" y="139.367" width="160.811" height="17.9537" rx="8.97683" stroke="#A0907F" stroke-width="0.965251"/>
<path d="M207.915 146.955C207.915 145.703 206.89 144.688 205.626 144.688C204.361 144.688 203.336 145.703 203.336 146.955C203.336 147.612 203.622 148.197 204.072 148.613L204.066 148.615L207.915 152.428L211.767 148.615C211.766 148.613 211.764 148.613 211.762 148.612C212.211 148.196 212.495 147.612 212.495 146.955C212.495 145.703 211.472 144.688 210.205 144.688C208.941 144.688 207.915 145.703 207.915 146.955Z" stroke="#A0907F" stroke-width="0.965251" stroke-linejoin="round"/>
<rect x="374.722" y="139.367" width="162.339" height="17.9537" rx="8.97683" stroke="#A0907F" stroke-width="0.965251"/>
<path d="M385.834 146.955C385.834 145.703 384.809 144.688 383.545 144.688C382.28 144.688 381.255 145.703 381.255 146.955C381.255 147.612 381.541 148.197 381.991 148.613L381.985 148.615L385.834 152.428L389.686 148.615C389.685 148.613 389.683 148.613 389.681 148.612C390.13 148.196 390.414 147.612 390.414 146.955C390.414 145.703 389.391 144.688 388.124 144.688C386.86 144.688 385.834 145.703 385.834 146.955Z" stroke="#A0907F" stroke-width="0.965251" stroke-linejoin="round"/>
<path d="M0.472656 201.24H266.11" stroke="#626463" stroke-width="0.965251"/>
<path d="M0.472656 219.966H266.11" stroke="#A0907F" stroke-width="0.579151"/>
<path d="M0.472656 238.691H266.11" stroke="#A0907F" stroke-width="0.579151"/>
<path d="M0.472656 257.417H266.11" stroke="#A0907F" stroke-width="0.579151"/>
<path d="M0.472656 276.143H266.11" stroke="#A0907F" stroke-width="0.579151"/>
<path d="M2.82787 194.819C1.6464 194.819 0.881923 194.24 0.727483 193.228L1.49196 193.043C1.60779 193.738 2.11744 194.147 2.8742 194.147C3.53829 194.147 3.92439 193.823 3.92439 193.321C3.92439 192.718 3.31436 192.587 2.64254 192.417C1.83173 192.201 0.912811 191.946 0.912811 190.888C0.912811 190.016 1.63868 189.413 2.75837 189.413C3.70046 189.413 4.50354 189.838 4.71204 190.881L3.99389 191.066C3.84717 190.363 3.37613 190.077 2.75837 190.077C2.102 190.077 1.70046 190.386 1.70046 190.865C1.70046 191.413 2.25644 191.545 2.95142 191.714C3.76995 191.915 4.71976 192.209 4.71976 193.236C4.71976 194.216 4.05567 194.819 2.82787 194.819ZM8.70202 193.282L10.0379 189.514H11.4047V194.726H10.6094V189.946L8.98002 194.726H8.41631L6.78697 189.946V194.726H5.9916V189.514H7.35839L8.70202 193.282ZM17.3726 194.726H16.5232L16.0753 193.521H13.7047L13.2568 194.726H12.4074L14.3919 189.514H15.3881L17.3726 194.726ZM14.8939 190.317L13.9518 192.85H15.8282L14.8939 190.317ZM21.8212 194.726H18.3694V189.514H19.1648V194.023H21.8212V194.726ZM26.385 194.726H22.9333V189.514H23.7286V194.023H26.385V194.726ZM34.3356 193.962L35.5479 189.514H36.3742L34.9456 194.726H33.7951L32.7989 190.734L31.8028 194.726H30.6522L29.2236 189.514H30.0499L31.2545 193.946L32.3588 189.514H33.2313L34.3356 193.962ZM38.2195 194.726H37.4241V189.514H38.2195V194.726ZM43.3022 193.645V189.514H44.0975V194.726H43.1246L40.4682 190.572V194.726H39.6728V189.514H40.6381L43.3022 193.645ZM47.3787 194.819C46.1973 194.819 45.4328 194.24 45.2783 193.228L46.0428 193.043C46.1586 193.738 46.6683 194.147 47.4251 194.147C48.0892 194.147 48.4753 193.823 48.4753 193.321C48.4753 192.718 47.8652 192.587 47.1934 192.417C46.3826 192.201 45.4637 191.946 45.4637 190.888C45.4637 190.016 46.1895 189.413 47.3092 189.413C48.2513 189.413 49.0544 189.838 49.2629 190.881L48.5447 191.066C48.398 190.363 47.927 190.077 47.3092 190.077C46.6529 190.077 46.2513 190.386 46.2513 190.865C46.2513 191.413 46.8073 191.545 47.5023 191.714C48.3208 191.915 49.2706 192.209 49.2706 193.236C49.2706 194.216 48.6065 194.819 47.3787 194.819ZM55.3437 194.819C53.7993 194.819 52.7105 193.722 52.7105 192.116C52.7105 190.518 53.7993 189.413 55.3437 189.413C56.8881 189.413 57.9769 190.518 57.9769 192.116C57.9769 193.722 56.8881 194.819 55.3437 194.819ZM55.3437 194.085C56.4248 194.085 57.1816 193.298 57.1816 192.116C57.1816 190.942 56.4248 190.147 55.3437 190.147C54.2627 190.147 53.5059 190.942 53.5059 192.116C53.5059 193.298 54.2627 194.085 55.3437 194.085ZM62.8087 189.514V190.216H59.9979V191.753H62.5308V192.448H59.9979V194.726H59.2026V189.514H62.8087ZM65.0694 189.514H69.4169V190.216H67.6408V194.726H66.8454V190.216H65.0694V189.514ZM71.2084 194.726H70.4131V189.514H71.2084V191.745H73.8107V189.514H74.6061V194.726H73.8107V192.448H71.2084V194.726ZM79.669 189.514V190.216H76.8582V191.753H79.4373V192.448H76.8582V194.023H79.669V194.726H76.0628V189.514H79.669ZM87.8346 193.962L89.047 189.514H89.8732L88.4447 194.726H87.2941L86.2979 190.734L85.3018 194.726H84.1512L82.7227 189.514H83.5489L84.7535 193.946L85.8578 189.514H86.7304L87.8346 193.962ZM94.5293 189.514V190.216H91.7185V191.753H94.2976V192.448H91.7185V194.023H94.5293V194.726H90.9231V189.514H94.5293ZM99.3495 189.514V190.216H96.5387V191.753H99.1179V192.448H96.5387V194.023H99.3495V194.726H95.7434V189.514H99.3495ZM104.857 194.726H103.969L102.309 192L101.359 192.958V194.726H100.564V189.514H101.359V191.946L103.76 189.514H104.757L102.857 191.436L104.857 194.726Z" fill="#626463"/>
<path d="M0.472656 308.189H268.619" stroke="#626463" stroke-width="0.965251"/>
<path d="M0.472656 326.915H268.619" stroke="#A0907F" stroke-width="0.579151"/>
<path d="M0.472656 345.641H268.619" stroke="#A0907F" stroke-width="0.579151"/>
<path d="M0.472656 364.367H268.619" stroke="#A0907F" stroke-width="0.579151"/>
<path d="M0.472656 383.092H268.619" stroke="#A0907F" stroke-width="0.579151"/>
<path d="M5.7159 300.911L6.92825 296.463H7.75451L6.32594 301.676H5.17536L4.17922 297.684L3.18308 301.676H2.0325L0.60393 296.463H1.43019L2.63482 300.896L3.73907 296.463H4.61165L5.7159 300.911ZM9.59977 301.676H8.8044V296.463H9.59977V298.695H12.2021V296.463H12.9975V301.676H12.2021V299.398H9.59977V301.676ZM18.9638 301.676H18.1144L17.6665 300.471H15.2958L14.848 301.676H13.9985L15.9831 296.463H16.9792L18.9638 301.676ZM16.485 297.267L15.5429 299.799H17.4194L16.485 297.267ZM18.7509 296.463H23.0984V297.166H21.3223V301.676H20.527V297.166H18.7509V296.463ZM24.4194 298.695H23.8326L24.265 296.463H25.0449L24.4194 298.695ZM28.0451 301.768C26.8636 301.768 26.0991 301.189 25.9447 300.178L26.7091 299.992C26.825 300.687 27.3346 301.097 28.0914 301.097C28.7555 301.097 29.1416 300.772 29.1416 300.27C29.1416 299.668 28.5315 299.537 27.8597 299.367C27.0489 299.151 26.13 298.896 26.13 297.838C26.13 296.965 26.8559 296.363 27.9756 296.363C28.9176 296.363 29.7207 296.788 29.9292 297.83L29.2111 298.016C29.0644 297.313 28.5933 297.027 27.9756 297.027C27.3192 297.027 26.9176 297.336 26.9176 297.815C26.9176 298.363 27.4736 298.494 28.1686 298.664C28.9871 298.865 29.9369 299.158 29.9369 300.185C29.9369 301.166 29.2729 301.768 28.0451 301.768ZM37.6935 299.707H35.3846V299.035H38.4348V301.676H37.7243V300.811C37.3846 301.444 36.79 301.768 35.9406 301.768C34.4502 301.768 33.3769 300.672 33.3769 299.066C33.3769 297.467 34.4734 296.363 36.0101 296.363C37.0603 296.363 38.1954 296.927 38.5274 298.239L37.763 298.448C37.5699 297.676 36.9521 297.097 36.0101 297.097C34.929 297.097 34.1722 297.892 34.1722 299.066C34.1722 300.239 34.8981 301.035 36.0101 301.035C36.8595 301.035 37.5004 300.572 37.6935 299.707ZM42.165 301.768C40.6206 301.768 39.5318 300.672 39.5318 299.066C39.5318 297.467 40.6206 296.363 42.165 296.363C43.7094 296.363 44.7982 297.467 44.7982 299.066C44.7982 300.672 43.7094 301.768 42.165 301.768ZM42.165 301.035C43.2461 301.035 44.0029 300.247 44.0029 299.066C44.0029 297.892 43.2461 297.097 42.165 297.097C41.084 297.097 40.3272 297.892 40.3272 299.066C40.3272 300.247 41.084 301.035 42.165 301.035ZM46.8192 301.676H46.0239V296.463H46.8192V301.676ZM51.902 300.595V296.463H52.6973V301.676H51.7243L49.068 297.521V301.676H48.2726V296.463H49.2379L51.902 300.595ZM58.2488 299.707H55.9399V299.035H58.9901V301.676H58.2797V300.811C57.9399 301.444 57.3453 301.768 56.4959 301.768C55.0055 301.768 53.9322 300.672 53.9322 299.066C53.9322 297.467 55.0287 296.363 56.5654 296.363C57.6156 296.363 58.7507 296.927 59.0828 298.239L58.3183 298.448C58.1252 297.676 57.5075 297.097 56.5654 297.097C55.4843 297.097 54.7275 297.892 54.7275 299.066C54.7275 300.239 55.4534 301.035 56.5654 301.035C57.4148 301.035 58.0557 300.572 58.2488 299.707ZM67.2627 300.911L68.4751 296.463H69.3013L67.8728 301.676H66.7222L65.726 297.684L64.7299 301.676H63.5793L62.1507 296.463H62.977L64.1816 300.896L65.2859 296.463H66.1585L67.2627 300.911ZM73.9574 296.463V297.166H71.1466V298.703H73.7257V299.398H71.1466V300.973H73.9574V301.676H70.3512V296.463H73.9574ZM78.6232 301.676H75.1714V296.463H75.9668V300.973H78.6232V301.676ZM83.187 301.676H79.7353V296.463H80.5306V300.973H83.187V301.676ZM85.4018 300.131H84.9385C84.9385 299.398 85.1624 299.151 85.5563 298.842C85.8111 298.641 86.0968 298.409 86.0968 297.884C86.0968 297.344 85.7493 297.004 85.1624 297.004C84.5679 297.004 84.1972 297.382 84.1972 297.977C84.1972 298.077 84.2049 298.17 84.2204 298.278L83.5563 298.363C83.5331 298.216 83.5177 298.07 83.5177 297.938C83.5177 296.95 84.1818 296.363 85.1547 296.363C86.1431 296.363 86.8227 296.95 86.8227 297.861C86.8227 298.68 86.3053 299.004 85.9192 299.259C85.5099 299.537 85.4018 299.707 85.4018 300.131ZM85.5563 301.676H84.7918V300.579H85.5563V301.676Z" fill="#626463"/>
<path d="M0.472656 415.14H268.619" stroke="#626463" stroke-width="0.965251"/>
<path d="M0.472656 433.866H268.619" stroke="#A0907F" stroke-width="0.579151"/>
<path d="M0.472656 452.592H268.619" stroke="#A0907F" stroke-width="0.579151"/>
<path d="M0.472656 471.317H268.619" stroke="#A0907F" stroke-width="0.579151"/>
<path d="M0.472656 490.043H268.619" stroke="#A0907F" stroke-width="0.579151"/>
<path d="M0.549876 403.414H4.89737V404.116H3.12131V408.626H2.32594V404.116H0.549876V403.414ZM9.64912 408.626H8.7997L8.35182 407.421H5.98116L5.53329 408.626H4.68387L6.66842 403.414H7.66456L9.64912 408.626ZM7.17035 404.217L6.22827 406.75H8.10471L7.17035 404.217ZM12.4231 408.719C11.2416 408.719 10.4771 408.139 10.3227 407.128L11.0872 406.943C11.203 407.638 11.7126 408.047 12.4694 408.047C13.1335 408.047 13.5196 407.723 13.5196 407.221C13.5196 406.618 12.9096 406.487 12.2377 406.317C11.4269 406.101 10.508 405.846 10.508 404.788C10.508 403.916 11.2339 403.313 12.3536 403.313C13.2957 403.313 14.0987 403.738 14.3072 404.78L13.5891 404.966C13.4424 404.263 12.9713 403.977 12.3536 403.977C11.6972 403.977 11.2957 404.286 11.2957 404.765C11.2957 405.313 11.8516 405.445 12.5466 405.614C13.3652 405.815 14.315 406.109 14.315 407.136C14.315 408.116 13.6509 408.719 12.4231 408.719ZM19.8802 408.626H18.9922L17.332 405.9L16.3822 406.858V408.626H15.5868V403.414H16.3822V405.846L18.7837 403.414H19.7798L17.8802 405.336L19.8802 408.626ZM22.5763 408.719C21.3948 408.719 20.6304 408.139 20.4759 407.128L21.2404 406.943C21.3562 407.638 21.8659 408.047 22.6226 408.047C23.2867 408.047 23.6728 407.723 23.6728 407.221C23.6728 406.618 23.0628 406.487 22.391 406.317C21.5802 406.101 20.6612 405.846 20.6612 404.788C20.6612 403.916 21.3871 403.313 22.5068 403.313C23.4489 403.313 24.252 403.738 24.4605 404.78L23.7423 404.966C23.5956 404.263 23.1246 403.977 22.5068 403.977C21.8504 403.977 21.4489 404.286 21.4489 404.765C21.4489 405.313 22.0049 405.445 22.6999 405.614C23.5184 405.815 24.4682 406.109 24.4682 407.136C24.4682 408.116 23.8041 408.719 22.5763 408.719ZM28.9274 408.626H28.132V403.414H28.9274V408.626ZM34.0101 407.545V403.414H34.8055V408.626H33.8325L31.1761 404.472V408.626H30.3808V403.414H31.346L34.0101 407.545ZM38.6563 403.414H40.7953C41.9073 403.414 42.6022 403.838 42.6022 404.943C42.6022 406.047 41.9073 406.472 40.7953 406.472H39.4517V408.626H38.6563V403.414ZM39.4517 405.769H40.7644C41.4439 405.769 41.8069 405.56 41.8069 404.943C41.8069 404.325 41.4362 404.116 40.7644 404.116H39.4517V405.769ZM47.8408 408.626H46.9528L45.6555 406.472H44.5358V408.626H43.7405V403.414H45.9953C47.1072 403.414 47.8022 403.838 47.8022 404.943C47.8022 405.869 47.3157 406.317 46.5049 406.433L47.8408 408.626ZM45.9644 404.116H44.5358V405.769H45.9644C46.6439 405.769 47.0069 405.56 47.0069 404.943C47.0069 404.325 46.6285 404.116 45.9644 404.116ZM51.4526 408.719C49.9082 408.719 48.8194 407.622 48.8194 406.016C48.8194 404.417 49.9082 403.313 51.4526 403.313C52.997 403.313 54.0858 404.417 54.0858 406.016C54.0858 407.622 52.997 408.719 51.4526 408.719ZM51.4526 407.985C52.5336 407.985 53.2904 407.197 53.2904 406.016C53.2904 404.842 52.5336 404.047 51.4526 404.047C50.3715 404.047 49.6147 404.842 49.6147 406.016C49.6147 407.197 50.3715 407.985 51.4526 407.985ZM59.4041 406.657H57.0952V405.985H60.1454V408.626H59.435V407.761C59.0952 408.394 58.5006 408.719 57.6512 408.719C56.1608 408.719 55.0875 407.622 55.0875 406.016C55.0875 404.417 56.184 403.313 57.7207 403.313C58.7709 403.313 59.906 403.877 60.238 405.19L59.4736 405.398C59.2805 404.626 58.6627 404.047 57.7207 404.047C56.6396 404.047 55.8828 404.842 55.8828 406.016C55.8828 407.19 56.6087 407.985 57.7207 407.985C58.5701 407.985 59.211 407.522 59.4041 406.657ZM65.5668 408.626H64.6787L63.3814 406.472H62.2617V408.626H61.4664V403.414H63.7212C64.8332 403.414 65.5282 403.838 65.5282 404.943C65.5282 405.869 65.0417 406.317 64.2309 406.433L65.5668 408.626ZM63.6903 404.116H62.2617V405.769H63.6903C64.3699 405.769 64.7328 405.56 64.7328 404.943C64.7328 404.325 64.3544 404.116 63.6903 404.116ZM70.3754 403.414V404.116H67.5646V405.653H70.1437V406.348H67.5646V407.923H70.3754V408.626H66.7692V403.414H70.3754ZM73.3138 408.719C72.1323 408.719 71.3679 408.139 71.2134 407.128L71.9779 406.943C72.0937 407.638 72.6034 408.047 73.3601 408.047C74.0242 408.047 74.4103 407.723 74.4103 407.221C74.4103 406.618 73.8003 406.487 73.1285 406.317C72.3177 406.101 71.3988 405.846 71.3988 404.788C71.3988 403.916 72.1246 403.313 73.2443 403.313C74.1864 403.313 74.9895 403.738 75.198 404.78L74.4798 404.966C74.3331 404.263 73.8621 403.977 73.2443 403.977C72.5879 403.977 72.1864 404.286 72.1864 404.765C72.1864 405.313 72.7424 405.445 73.4374 405.614C74.2559 405.815 75.2057 406.109 75.2057 407.136C75.2057 408.116 74.5416 408.719 73.3138 408.719ZM78.2999 408.719C77.1185 408.719 76.354 408.139 76.1996 407.128L76.964 406.943C77.0799 407.638 77.5895 408.047 78.3463 408.047C79.0104 408.047 79.3965 407.723 79.3965 407.221C79.3965 406.618 78.7864 406.487 78.1146 406.317C77.3038 406.101 76.3849 405.846 76.3849 404.788C76.3849 403.916 77.1107 403.313 78.2304 403.313C79.1725 403.313 79.9756 403.738 80.1841 404.78L79.466 404.966C79.3192 404.263 78.8482 403.977 78.2304 403.977C77.5741 403.977 77.1725 404.286 77.1725 404.765C77.1725 405.313 77.7285 405.445 78.4235 405.614C79.242 405.815 80.1918 406.109 80.1918 407.136C80.1918 408.116 79.5277 408.719 78.2999 408.719ZM82.2281 405.923H81.4637V404.834H82.2281V405.923ZM82.2281 408.626H81.4637V407.529H82.2281V408.626Z" fill="#626463"/>
<path d="M287.132 201.24H555" stroke="#626463" stroke-width="0.965251"/>
<path d="M287.132 219.966H555" stroke="#A0907F" stroke-width="0.579151"/>
<path d="M287.132 238.691H555" stroke="#A0907F" stroke-width="0.579151"/>
<path d="M287.132 257.417H555" stroke="#A0907F" stroke-width="0.579151"/>
<path d="M287.132 276.143H555" stroke="#A0907F" stroke-width="0.579151"/>
<path d="M287.209 189.514H291.557V190.216H289.78V194.726H288.985V190.216H287.209V189.514ZM293.348 194.726H292.553V189.514H293.348V191.745H295.95V189.514H296.746V194.726H295.95V192.448H293.348V194.726ZM298.998 194.726H298.202V189.514H298.998V194.726ZM304.081 193.645V189.514H304.876V194.726H303.903L301.247 190.572V194.726H300.451V189.514H301.416L304.081 193.645ZM310.427 192.757H308.119V192.085H311.169V194.726H310.458V193.861C310.119 194.494 309.524 194.819 308.674 194.819C307.184 194.819 306.111 193.722 306.111 192.116C306.111 190.518 307.207 189.413 308.744 189.413C309.794 189.413 310.929 189.977 311.261 191.29L310.497 191.498C310.304 190.726 309.686 190.147 308.744 190.147C307.663 190.147 306.906 190.942 306.906 192.116C306.906 193.29 307.632 194.085 308.744 194.085C309.593 194.085 310.234 193.622 310.427 192.757ZM315.677 194.726H314.882V189.514H315.677V194.726ZM321.932 194.819C320.387 194.819 319.299 193.722 319.299 192.116C319.299 190.518 320.387 189.413 321.932 189.413C323.206 189.413 324.171 190.17 324.457 191.328L323.692 191.521C323.507 190.749 322.889 190.147 321.932 190.147C320.851 190.147 320.094 190.942 320.094 192.116C320.094 193.298 320.851 194.085 321.932 194.085C322.673 194.085 323.268 193.707 323.546 193.081L324.287 193.359C323.901 194.255 323.028 194.819 321.932 194.819ZM330.059 194.726H329.209L328.762 193.521H326.391L325.943 194.726H325.094L327.078 189.514H328.074L330.059 194.726ZM327.58 190.317L326.638 192.85H328.514L327.58 190.317ZM334.685 193.645V189.514H335.48V194.726H334.507L331.851 190.572V194.726H331.056V189.514H332.021L334.685 193.645ZM340.127 194.726H339.331V189.514H340.127V194.726ZM344.29 193.282L345.626 189.514H346.993V194.726H346.198V189.946L344.568 194.726H344.005L342.375 189.946V194.726H341.58V189.514H342.947L344.29 193.282ZM348.451 189.514H350.59C351.702 189.514 352.397 189.938 352.397 191.043C352.397 192.147 351.702 192.572 350.59 192.572H349.247V194.726H348.451V189.514ZM349.247 191.869H350.559C351.239 191.869 351.602 191.66 351.602 191.043C351.602 190.425 351.231 190.216 350.559 190.216H349.247V191.869ZM357.636 194.726H356.748L355.451 192.572H354.331V194.726H353.535V189.514H355.79C356.902 189.514 357.597 189.938 357.597 191.043C357.597 191.969 357.111 192.417 356.3 192.533L357.636 194.726ZM355.759 190.216H354.331V191.869H355.759C356.439 191.869 356.802 191.66 356.802 191.043C356.802 190.425 356.424 190.216 355.759 190.216ZM361.248 194.819C359.703 194.819 358.614 193.722 358.614 192.116C358.614 190.518 359.703 189.413 361.248 189.413C362.792 189.413 363.881 190.518 363.881 192.116C363.881 193.722 362.792 194.819 361.248 194.819ZM361.248 194.085C362.329 194.085 363.085 193.298 363.085 192.116C363.085 190.942 362.329 190.147 361.248 190.147C360.167 190.147 359.41 190.942 359.41 192.116C359.41 193.298 360.167 194.085 361.248 194.085ZM366.896 193.931L368.533 189.514H369.375L367.398 194.726H366.394L364.417 189.514H365.259L366.896 193.931ZM373.978 189.514V190.216H371.167V191.753H373.746V192.448H371.167V194.023H373.978V194.726H370.372V189.514H373.978ZM379.993 194.819C378.449 194.819 377.36 193.722 377.36 192.116C377.36 190.518 378.449 189.413 379.993 189.413C381.537 189.413 382.626 190.518 382.626 192.116C382.626 193.722 381.537 194.819 379.993 194.819ZM379.993 194.085C381.074 194.085 381.831 193.298 381.831 192.116C381.831 190.942 381.074 190.147 379.993 190.147C378.912 190.147 378.155 190.942 378.155 192.116C378.155 193.298 378.912 194.085 379.993 194.085ZM387.481 193.645V189.514H388.277V194.726H387.304L384.647 190.572V194.726H383.852V189.514H384.817L387.481 193.645ZM390.5 192.023H389.735V190.935H390.5V192.023ZM390.5 194.726H389.735V193.63H390.5V194.726Z" fill="#626463"/>
<path d="M287.132 308.189H555.278" stroke="#626463" stroke-width="0.965251"/>
<path d="M287.132 326.915H555.278" stroke="#A0907F" stroke-width="0.579151"/>
<path d="M287.132 345.641H555.278" stroke="#A0907F" stroke-width="0.579151"/>
<path d="M287.132 364.367H555.278" stroke="#A0907F" stroke-width="0.579151"/>
<path d="M287.132 383.092H555.278" stroke="#A0907F" stroke-width="0.579151"/>
<path d="M292.375 300.911L293.587 296.463H294.414L292.985 301.676H291.835L290.838 297.684L289.842 301.676H288.692L287.263 296.463H288.089L289.294 300.896L290.398 296.463H291.271L292.375 300.911ZM296.259 301.676H295.464V296.463H296.259V298.695H298.861V296.463H299.657V301.676H298.861V299.398H296.259V301.676ZM305.623 301.676H304.774L304.326 300.471H301.955L301.507 301.676H300.658L302.642 296.463H303.638L305.623 301.676ZM303.144 297.267L302.202 299.799H304.079L303.144 297.267ZM305.41 296.463H309.758V297.166H307.981V301.676H307.186V297.166H305.41V296.463ZM311.079 298.695H310.492L310.924 296.463H311.704L311.079 298.695ZM314.704 301.768C313.523 301.768 312.758 301.189 312.604 300.178L313.368 299.992C313.484 300.687 313.994 301.097 314.751 301.097C315.415 301.097 315.801 300.772 315.801 300.27C315.801 299.668 315.191 299.537 314.519 299.367C313.708 299.151 312.789 298.896 312.789 297.838C312.789 296.965 313.515 296.363 314.635 296.363C315.577 296.363 316.38 296.788 316.588 297.83L315.87 298.016C315.724 297.313 315.252 297.027 314.635 297.027C313.978 297.027 313.577 297.336 313.577 297.815C313.577 298.363 314.133 298.494 314.828 298.664C315.646 298.865 316.596 299.158 316.596 300.185C316.596 301.166 315.932 301.768 314.704 301.768ZM323.889 300.595V296.463H324.685V301.676H323.712L321.055 297.521V301.676H320.26V296.463H321.225L323.889 300.595ZM328.553 301.768C327.008 301.768 325.92 300.672 325.92 299.066C325.92 297.467 327.008 296.363 328.553 296.363C330.097 296.363 331.186 297.467 331.186 299.066C331.186 300.672 330.097 301.768 328.553 301.768ZM328.553 301.035C329.634 301.035 330.391 300.247 330.391 299.066C330.391 297.892 329.634 297.097 328.553 297.097C327.472 297.097 326.715 297.892 326.715 299.066C326.715 300.247 327.472 301.035 328.553 301.035ZM331.654 296.463H336.002V297.166H334.226V301.676H333.43V297.166H331.654V296.463ZM343.565 300.911L344.777 296.463H345.604L344.175 301.676H343.025L342.028 297.684L341.032 301.676H339.882L338.453 296.463H339.279L340.484 300.896L341.588 296.463H342.461L343.565 300.911ZM348.935 301.768C347.39 301.768 346.301 300.672 346.301 299.066C346.301 297.467 347.39 296.363 348.935 296.363C350.479 296.363 351.568 297.467 351.568 299.066C351.568 300.672 350.479 301.768 348.935 301.768ZM348.935 301.035C350.016 301.035 350.772 300.247 350.772 299.066C350.772 297.892 350.016 297.097 348.935 297.097C347.854 297.097 347.097 297.892 347.097 299.066C347.097 300.247 347.854 301.035 348.935 301.035ZM356.894 301.676H356.006L354.709 299.521H353.589V301.676H352.793V296.463H355.048C356.16 296.463 356.855 296.888 356.855 297.992C356.855 298.919 356.369 299.367 355.558 299.483L356.894 301.676ZM355.017 297.166H353.589V298.819H355.017C355.697 298.819 356.06 298.61 356.06 297.992C356.06 297.375 355.681 297.166 355.017 297.166ZM362.39 301.676H361.502L359.841 298.95L358.892 299.907V301.676H358.096V296.463H358.892V298.896L361.293 296.463H362.289L360.39 298.386L362.39 301.676ZM364.187 301.676H363.392V296.463H364.187V301.676ZM369.27 300.595V296.463H370.065V301.676H369.092L366.436 297.521V301.676H365.64V296.463H366.606L369.27 300.595ZM375.617 299.707H373.308V299.035H376.358V301.676H375.647V300.811C375.308 301.444 374.713 301.768 373.864 301.768C372.373 301.768 371.3 300.672 371.3 299.066C371.3 297.467 372.396 296.363 373.933 296.363C374.983 296.363 376.118 296.927 376.45 298.239L375.686 298.448C375.493 297.676 374.875 297.097 373.933 297.097C372.852 297.097 372.095 297.892 372.095 299.066C372.095 300.239 372.821 301.035 373.933 301.035C374.783 301.035 375.423 300.572 375.617 299.707ZM379.174 300.131H378.71C378.71 299.398 378.934 299.151 379.328 298.842C379.583 298.641 379.869 298.409 379.869 297.884C379.869 297.344 379.521 297.004 378.934 297.004C378.34 297.004 377.969 297.382 377.969 297.977C377.969 298.077 377.977 298.17 377.992 298.278L377.328 298.363C377.305 298.216 377.29 298.07 377.29 297.938C377.29 296.95 377.954 296.363 378.927 296.363C379.915 296.363 380.595 296.95 380.595 297.861C380.595 298.68 380.077 299.004 379.691 299.259C379.282 299.537 379.174 299.707 379.174 300.131ZM379.328 301.676H378.564V300.579H379.328V301.676Z" fill="#626463"/>
<path d="M287.132 415.14H555.278" stroke="#626463" stroke-width="0.965251"/>
<path d="M287.132 433.866H555.278" stroke="#A0907F" stroke-width="0.579151"/>
<path d="M287.132 452.592H555.278" stroke="#A0907F" stroke-width="0.579151"/>
<path d="M287.132 471.317H555.278" stroke="#A0907F" stroke-width="0.579151"/>
<path d="M287.132 490.043H555.278" stroke="#A0907F" stroke-width="0.579151"/>
<path d="M291.294 407.545V403.414H292.089V408.626H291.116L288.46 404.472V408.626H287.665V403.414H288.63L291.294 407.545ZM297.154 403.414V404.116H294.344V405.653H296.923V406.348H294.344V407.923H297.154V408.626H293.548V403.414H297.154ZM300.87 405.977L302.778 408.626H301.82L300.345 406.587L298.878 408.626H297.921L299.836 405.977L298.021 403.414H298.948L300.353 405.39L301.751 403.414H302.677L300.87 405.977ZM303.329 403.414H307.676V404.116H305.9V408.626H305.105V404.116H303.329V403.414ZM315.239 407.861L316.452 403.414H317.278L315.849 408.626H314.699L313.703 404.634L312.707 408.626H311.556L310.127 403.414H310.954L312.158 407.846L313.263 403.414H314.135L315.239 407.861ZM321.934 403.414V404.116H319.123V405.653H321.702V406.348H319.123V407.923H321.934V408.626H318.328V403.414H321.934ZM326.754 403.414V404.116H323.944V405.653H326.523V406.348H323.944V407.923H326.754V408.626H323.148V403.414H326.754ZM332.262 408.626H331.374L329.714 405.9L328.764 406.858V408.626H327.968V403.414H328.764V405.846L331.165 403.414H332.161L330.262 405.336L332.262 408.626ZM336.451 408.626H335.656V403.414H336.451V408.626ZM338.252 405.645H337.665L338.098 403.414H338.877L338.252 405.645ZM343.507 408.626H340.055V403.414H340.851V407.923H343.507V408.626ZM348.071 408.626H344.619V403.414H345.414V407.923H348.071V408.626ZM355.068 403.414V404.116H352.257V405.653H354.79V406.348H352.257V408.626H351.462V403.414H355.068ZM358.533 408.719C356.988 408.719 355.9 407.622 355.9 406.016C355.9 404.417 356.988 403.313 358.533 403.313C360.077 403.313 361.166 404.417 361.166 406.016C361.166 407.622 360.077 408.719 358.533 408.719ZM358.533 407.985C359.614 407.985 360.371 407.197 360.371 406.016C360.371 404.842 359.614 404.047 358.533 404.047C357.452 404.047 356.695 404.842 356.695 406.016C356.695 407.197 357.452 407.985 358.533 407.985ZM364.801 408.719C363.257 408.719 362.168 407.622 362.168 406.016C362.168 404.417 363.257 403.313 364.801 403.313C366.075 403.313 367.04 404.07 367.326 405.228L366.562 405.421C366.376 404.649 365.758 404.047 364.801 404.047C363.72 404.047 362.963 404.842 362.963 406.016C362.963 407.197 363.72 407.985 364.801 407.985C365.542 407.985 366.137 407.607 366.415 406.981L367.156 407.259C366.77 408.155 365.897 408.719 364.801 408.719ZM370.548 408.719C369.343 408.719 368.455 408.062 368.455 406.811V403.414H369.25V406.711C369.25 407.529 369.76 407.993 370.548 407.993C371.335 407.993 371.845 407.529 371.845 406.711V403.414H372.64V406.811C372.64 408.062 371.752 408.719 370.548 408.719ZM375.86 408.719C374.679 408.719 373.914 408.139 373.76 407.128L374.525 406.943C374.64 407.638 375.15 408.047 375.907 408.047C376.571 408.047 376.957 407.723 376.957 407.221C376.957 406.618 376.347 406.487 375.675 406.317C374.864 406.101 373.945 405.846 373.945 404.788C373.945 403.916 374.671 403.313 375.791 403.313C376.733 403.313 377.536 403.738 377.745 404.78L377.026 404.966C376.88 404.263 376.409 403.977 375.791 403.977C375.135 403.977 374.733 404.286 374.733 404.765C374.733 405.313 375.289 405.445 375.984 405.614C376.803 405.815 377.752 406.109 377.752 407.136C377.752 408.116 377.088 408.719 375.86 408.719ZM379.82 408.626H379.024V403.414H379.82V408.626ZM384.902 407.545V403.414H385.698V408.626H384.725L382.068 404.472V408.626H381.273V403.414H382.238L384.902 407.545ZM391.249 406.657H388.94V405.985H391.99V408.626H391.28V407.761C390.94 408.394 390.346 408.719 389.496 408.719C388.006 408.719 386.932 407.622 386.932 406.016C386.932 404.417 388.029 403.313 389.566 403.313C390.616 403.313 391.751 403.877 392.083 405.19L391.319 405.398C391.126 404.626 390.508 404.047 389.566 404.047C388.485 404.047 387.728 404.842 387.728 406.016C387.728 407.19 388.454 407.985 389.566 407.985C390.415 407.985 391.056 407.522 391.249 406.657ZM398.113 408.719C396.568 408.719 395.479 407.622 395.479 406.016C395.479 404.417 396.568 403.313 398.113 403.313C399.657 403.313 400.746 404.417 400.746 406.016C400.746 407.622 399.657 408.719 398.113 408.719ZM398.113 407.985C399.194 407.985 399.95 407.197 399.95 406.016C399.95 404.842 399.194 404.047 398.113 404.047C397.032 404.047 396.275 404.842 396.275 406.016C396.275 407.197 397.032 407.985 398.113 407.985ZM405.601 407.545V403.414H406.396V408.626H405.423L402.767 404.472V408.626H401.971V403.414H402.937L405.601 407.545ZM408.619 405.923H407.855V404.834H408.619V405.923ZM408.619 408.626H407.855V407.529H408.619V408.626Z" fill="#626463"/>
<mask id="path-46-inside-1_509_4387" fill="white">
<path d="M0.277344 516.683H555.277V691.973H0.277344V516.683Z"/>
</mask>
<path d="M0.277344 516.683H555.277V691.973H0.277344V516.683Z" fill="#F1F1F1"/>
<path d="M0.277344 517.649H555.277V515.718H0.277344V517.649Z" fill="#626463" mask="url(#path-46-inside-1_509_4387)"/>
<path d="M197.972 536.301C197.972 533.961 199.478 532.131 201.447 532.131C203.416 532.131 204.922 533.961 204.922 536.301C204.922 538.641 203.416 540.471 201.447 540.471C199.478 540.471 197.972 538.641 197.972 536.301ZM199.13 536.301C199.13 538.675 200.045 540.239 201.447 540.239C202.848 540.239 203.763 538.675 203.763 536.301C203.763 533.926 202.848 532.363 201.447 532.363C200.045 532.363 199.13 533.926 199.13 536.301ZM208.364 540.355L206.51 535.258C206.371 534.911 206.221 534.737 206.024 534.679V534.563H207.831V534.679C207.669 534.737 207.622 534.911 207.727 535.247L209.348 539.706L210.124 537.587C210.831 535.652 210.947 534.888 210.31 534.679V534.563H211.7V534.679C211.503 534.737 211.352 534.911 211.213 535.258L209.36 540.355H208.364ZM217.059 538.965L217.152 539.035C216.735 539.799 215.924 540.471 214.893 540.471C213.399 540.471 212.218 539.058 212.218 537.413C212.218 535.768 213.399 534.448 215.009 534.448C216.167 534.448 217.025 535.131 217.025 535.919C217.025 537.112 215.102 537.702 213.434 537.969C213.689 539.278 214.615 539.845 215.461 539.845C216.098 539.845 216.723 539.521 217.059 538.965ZM213.399 537.737C214.963 537.494 215.982 536.95 215.982 535.849C215.982 535.235 215.611 534.679 214.963 534.679C214.059 534.679 213.364 535.78 213.364 537.228C213.364 537.413 213.376 537.575 213.399 537.737ZM221.106 535.096C220.225 535.096 219.762 536.579 219.762 537.98V539.66C219.762 540.123 219.924 540.228 220.109 540.239V540.355H218.372V540.239C218.557 540.228 218.72 540.123 218.72 539.66V535.258C218.72 534.795 218.557 534.691 218.372 534.679V534.563H219.762V536.289C220.04 535.282 220.584 534.448 221.372 534.448C221.615 534.448 221.893 534.529 222.113 534.807V535.965H221.974C221.766 535.293 221.418 535.096 221.106 535.096ZM226.502 536.637C225.529 537.656 224.035 537.923 224.035 538.942C224.035 539.452 224.406 539.799 224.962 539.799C225.738 539.799 226.502 539.104 226.502 538.374V536.637ZM225.436 534.679C224.765 534.679 224.139 535.363 223.734 536.313H223.595V535.154C224.151 534.691 224.799 534.448 225.471 534.448C226.629 534.448 227.545 535.177 227.545 536.266V539.66C227.545 540.123 227.707 540.228 227.892 540.239V540.355H226.502V539.127C226.097 539.822 225.228 540.471 224.29 540.471C223.444 540.471 222.923 539.938 222.923 539.255C222.923 537.726 225.587 537.482 226.502 536.289V536.266C226.502 535.409 226.12 534.679 225.436 534.679ZM229.055 540.355V540.239C229.24 540.228 229.402 540.123 229.402 539.66V532.942C229.402 532.479 229.24 532.374 229.055 532.363V532.247H230.445V539.66C230.445 540.123 230.607 540.228 230.792 540.239V540.355H229.055ZM231.953 540.355V540.239C232.138 540.228 232.3 540.123 232.3 539.66V532.942C232.3 532.479 232.138 532.374 231.953 532.363V532.247H233.343V539.66C233.343 540.123 233.505 540.228 233.69 540.239V540.355H231.953ZM240.121 540.355V540.239C240.306 540.228 240.468 540.123 240.468 539.66V533.174C240.468 532.641 240.283 532.479 239.901 532.479C239.252 532.479 238.662 532.942 238.441 533.637H238.326V532.247H243.654V533.637H243.538C243.318 532.942 242.727 532.479 242.078 532.479C241.696 532.479 241.511 532.641 241.511 533.174V539.66C241.511 540.123 241.673 540.228 241.858 540.239V540.355H240.121ZM244.809 540.355V540.239C244.995 540.228 245.157 540.123 245.157 539.66V532.942C245.157 532.479 244.995 532.374 244.809 532.363V532.247H246.199V536.428C246.512 535.374 247.172 534.448 248.226 534.448C249.153 534.448 249.79 535.177 249.79 536.266V539.66C249.79 540.123 249.952 540.228 250.138 540.239V540.355H248.4V540.239C248.585 540.228 248.748 540.123 248.748 539.66V536.266C248.748 535.49 248.365 534.946 247.798 534.946C246.79 534.946 246.199 536.695 246.199 537.98V539.66C246.199 540.123 246.361 540.228 246.547 540.239V540.355H244.809ZM251.351 537.459C251.351 535.768 252.602 534.448 254.189 534.448C255.776 534.448 257.027 535.768 257.027 537.459C257.027 539.15 255.776 540.471 254.189 540.471C252.602 540.471 251.351 539.15 251.351 537.459ZM252.509 537.459C252.509 539.139 253.17 540.239 254.189 540.239C255.208 540.239 255.868 539.139 255.868 537.459C255.868 535.78 255.208 534.679 254.189 534.679C253.17 534.679 252.509 535.78 252.509 537.459ZM263.221 534.563V539.66C263.221 540.123 263.384 540.228 263.569 540.239V540.355H262.179V538.49C261.866 539.544 261.206 540.471 260.152 540.471C259.225 540.471 258.588 539.741 258.588 538.652V535.258C258.588 534.795 258.426 534.691 258.241 534.679V534.563H259.631V538.652C259.631 539.428 260.013 539.973 260.58 539.973C261.588 539.973 262.179 538.224 262.179 536.938V535.258C262.179 534.795 262.017 534.691 261.831 534.679V534.563H263.221ZM264.863 536.88C264.863 535.513 266.01 534.448 267.47 534.448C268.466 534.448 269.323 534.297 269.462 533.544C269.786 533.544 270.006 533.718 270.006 533.961C270.006 534.355 269.427 534.563 268.501 534.645C269.427 535.015 270.076 535.861 270.076 536.88C270.076 538.247 268.929 539.313 267.47 539.313C267.111 539.313 266.775 539.255 266.473 539.139C266.033 539.185 265.848 539.382 265.848 539.556C265.848 540.436 270.215 539.185 270.215 541.258C270.215 542.394 268.918 543.251 267.307 543.251C265.871 543.251 264.782 542.579 264.782 541.699C264.782 541.038 265.396 540.645 266.01 540.494C265.582 540.39 265.28 540.204 265.28 539.834C265.28 539.44 265.605 539.081 266.091 538.953C265.35 538.525 264.863 537.772 264.863 536.88ZM266.022 536.88C266.022 538.212 266.589 539.081 267.47 539.081C268.35 539.081 268.918 538.212 268.918 536.88C268.918 535.548 268.35 534.679 267.47 534.679C266.589 534.679 266.022 535.548 266.022 536.88ZM266.531 540.587C266.138 540.737 265.825 541.108 265.825 541.606C265.825 542.37 266.578 542.961 267.551 542.961C268.466 542.961 269.195 542.428 269.195 541.71C269.195 540.679 267.678 540.726 266.531 540.587ZM271.434 540.355V540.239C271.62 540.228 271.782 540.123 271.782 539.66V532.942C271.782 532.479 271.62 532.374 271.434 532.363V532.247H272.824V536.428C273.137 535.374 273.797 534.448 274.851 534.448C275.778 534.448 276.415 535.177 276.415 536.266V539.66C276.415 540.123 276.577 540.228 276.763 540.239V540.355H275.025V540.239C275.211 540.228 275.373 540.123 275.373 539.66V536.266C275.373 535.49 274.99 534.946 274.423 534.946C273.415 534.946 272.824 536.695 272.824 537.98V539.66C272.824 540.123 272.987 540.228 273.172 540.239V540.355H271.434ZM280.64 539.799C280.443 540.204 280.038 540.471 279.586 540.471C278.891 540.471 278.439 539.845 278.439 538.907V534.795H277.744V534.563C278.486 534.517 279.007 534.077 279.25 533.22H279.482V534.563H280.64V534.795H279.482V539C279.482 539.648 279.667 539.996 280.026 539.996C280.177 539.996 280.385 539.938 280.548 539.729L280.64 539.799ZM285.333 540.355L287.198 532.247H287.557L285.692 540.355H285.333ZM292.248 540.355V540.239C292.433 540.228 292.595 540.123 292.595 539.66V532.942C292.595 532.479 292.433 532.374 292.248 532.363V532.247H293.985V532.363C293.8 532.374 293.638 532.479 293.638 532.942V539.66C293.638 540.123 293.8 540.228 293.985 540.239V540.355H292.248ZM295.204 537.83C295.204 536.104 296.223 534.448 297.613 534.448C298.308 534.448 298.794 534.853 299.142 535.432V532.942C299.142 532.479 298.98 532.374 298.794 532.363V532.247H300.184V539.66C300.184 540.123 300.346 540.228 300.532 540.239V540.355H299.142V538.641C298.852 539.625 298.273 540.471 297.254 540.471C296.142 540.471 295.204 539.486 295.204 537.83ZM299.142 536.938V535.93C298.818 535.154 298.296 534.957 297.926 534.957C296.976 534.957 296.362 536.255 296.362 537.737C296.362 539.185 296.953 539.973 297.648 539.973C298.667 539.973 299.142 538.316 299.142 536.938ZM306.473 538.965L306.565 539.035C306.148 539.799 305.337 540.471 304.306 540.471C302.812 540.471 301.631 539.058 301.631 537.413C301.631 535.768 302.812 534.448 304.422 534.448C305.581 534.448 306.438 535.131 306.438 535.919C306.438 537.112 304.515 537.702 302.847 537.969C303.102 539.278 304.029 539.845 304.874 539.845C305.511 539.845 306.137 539.521 306.473 538.965ZM302.812 537.737C304.376 537.494 305.395 536.95 305.395 535.849C305.395 535.235 305.025 534.679 304.376 534.679C303.473 534.679 302.778 535.78 302.778 537.228C302.778 537.413 302.789 537.575 302.812 537.737ZM311.309 536.637C310.336 537.656 308.842 537.923 308.842 538.942C308.842 539.452 309.213 539.799 309.769 539.799C310.545 539.799 311.309 539.104 311.309 538.374V536.637ZM310.244 534.679C309.572 534.679 308.946 535.363 308.541 536.313H308.402V535.154C308.958 534.691 309.606 534.448 310.278 534.448C311.437 534.448 312.352 535.177 312.352 536.266V539.66C312.352 540.123 312.514 540.228 312.699 540.239V540.355H311.309V539.127C310.904 539.822 310.035 540.471 309.097 540.471C308.251 540.471 307.73 539.938 307.73 539.255C307.73 537.726 310.394 537.482 311.309 536.289V536.266C311.309 535.409 310.927 534.679 310.244 534.679ZM318.136 538.826C318.136 539.706 317.244 540.471 315.947 540.471C315.229 540.471 314.499 540.239 313.931 539.764V538.606H314.07C314.476 539.556 315.078 540.239 315.947 540.239C316.63 540.239 317.117 539.811 317.117 539.278C317.117 537.899 313.92 537.784 313.92 536.058C313.92 535.189 314.742 534.448 316.074 534.448C316.63 534.448 317.348 534.575 317.904 535.038V536.197H317.765C317.371 535.247 316.804 534.679 316.051 534.679C315.414 534.679 314.939 535.085 314.939 535.618C314.939 536.996 318.136 537.146 318.136 538.826ZM322.883 540.355L324.748 532.247H325.107L323.242 540.355H322.883ZM335.265 540.355H335.033L330.492 533.104V539.428C330.492 540.007 330.655 540.204 330.956 540.239V540.355H329.797V540.239C330.099 540.204 330.261 540.007 330.261 539.428V533.174C330.261 532.594 330.099 532.397 329.797 532.363V532.247H331.187L335.033 538.397V533.174C335.033 532.594 334.871 532.397 334.57 532.363V532.247H335.728V532.363C335.427 532.397 335.265 532.594 335.265 533.174V540.355ZM336.939 537.459C336.939 535.768 338.19 534.448 339.776 534.448C341.363 534.448 342.614 535.768 342.614 537.459C342.614 539.15 341.363 540.471 339.776 540.471C338.19 540.471 336.939 539.15 336.939 537.459ZM338.097 537.459C338.097 539.139 338.757 540.239 339.776 540.239C340.796 540.239 341.456 539.139 341.456 537.459C341.456 535.78 340.796 534.679 339.776 534.679C338.757 534.679 338.097 535.78 338.097 537.459ZM346.55 539.799C346.353 540.204 345.948 540.471 345.496 540.471C344.801 540.471 344.35 539.845 344.35 538.907V534.795H343.655V534.563C344.396 534.517 344.917 534.077 345.16 533.22H345.392V534.563H346.55V534.795H345.392V539C345.392 539.648 345.577 539.996 345.936 539.996C346.087 539.996 346.295 539.938 346.458 539.729L346.55 539.799ZM352.384 538.965L352.476 539.035C352.059 539.799 351.249 540.471 350.218 540.471C348.724 540.471 347.542 539.058 347.542 537.413C347.542 535.768 348.724 534.448 350.334 534.448C351.492 534.448 352.349 535.131 352.349 535.919C352.349 537.112 350.426 537.702 348.758 537.969C349.013 539.278 349.94 539.845 350.785 539.845C351.422 539.845 352.048 539.521 352.384 538.965ZM348.724 537.737C350.287 537.494 351.307 536.95 351.307 535.849C351.307 535.235 350.936 534.679 350.287 534.679C349.384 534.679 348.689 535.78 348.689 537.228C348.689 537.413 348.7 537.575 348.724 537.737ZM357.971 538.826C357.971 539.706 357.079 540.471 355.781 540.471C355.063 540.471 354.334 540.239 353.766 539.764V538.606H353.905C354.31 539.556 354.913 540.239 355.781 540.239C356.465 540.239 356.951 539.811 356.951 539.278C356.951 537.899 353.754 537.784 353.754 536.058C353.754 535.189 354.577 534.448 355.909 534.448C356.465 534.448 357.183 534.575 357.739 535.038V536.197H357.6C357.206 535.247 356.639 534.679 355.886 534.679C355.249 534.679 354.774 535.085 354.774 535.618C354.774 536.996 357.971 537.146 357.971 538.826Z" fill="#626463"/>
</svg>
