<svg width="557" height="707" viewBox="0 0 557 707" fill="none" xmlns="http://www.w3.org/2000/svg">
    <rect x="290.846" y="605.91" width="265.637" height="100.965" fill="#F1F1F1" />
    <path d="M290.846 146.865H556.483" stroke="#626463" stroke-width="0.965251" />
    <path d="M290.846 165.59H556.483" stroke="#A0907F" stroke-width="0.579151" />
    <path d="M290.846 184.316H556.483" stroke="#A0907F" stroke-width="0.579151" />
    <path d="M290.846 203.042H556.483" stroke="#A0907F" stroke-width="0.579151" />
    <path d="M290.846 221.768H556.483" stroke="#A0907F" stroke-width="0.579151" />
    <path d="M290.846 240.494H556.483" stroke="#A0907F" stroke-width="0.579151" />
    <path d="M290.846 259.22H556.483" stroke="#A0907F" stroke-width="0.579151" />
    <path d="M290.846 277.946H556.483" stroke="#A0907F" stroke-width="0.579151" />
    <path
        d="M292.174 140.351H291.379V135.139H292.174V137.371H294.776V135.139H295.572V140.351H294.776V138.073H292.174V140.351ZM301.538 140.351H300.688L300.241 139.147H297.87L297.422 140.351H296.573L298.557 135.139H299.553L301.538 140.351ZM299.059 135.942L298.117 138.475H299.994L299.059 135.942ZM305.747 137.61C306.334 137.795 306.681 138.205 306.681 138.915C306.681 140.127 305.624 140.351 304.944 140.351H302.535V135.139H304.79C305.902 135.139 306.481 135.587 306.481 136.467C306.481 137.031 306.234 137.432 305.747 137.61ZM305.685 136.591C305.685 136.058 305.384 135.803 304.774 135.803H303.33V137.378H304.774C305.384 137.378 305.685 137.116 305.685 136.591ZM303.33 139.664H304.952C305.562 139.664 305.886 139.409 305.886 138.83C305.886 138.251 305.562 137.996 304.952 137.996H303.33V139.664ZM308.754 140.351H307.958V135.139H308.754V140.351ZM309.902 135.139H314.25V135.842H312.474V140.351H311.678V135.842H309.902V135.139ZM316.413 135.139H320.761V135.842H318.985V140.351H318.189V135.842H316.413V135.139ZM326.008 140.351H325.12L323.823 138.197H322.703V140.351H321.908V135.139H324.162C325.274 135.139 325.969 135.564 325.969 136.668C325.969 137.595 325.483 138.042 324.672 138.158L326.008 140.351ZM324.132 135.842H322.703V137.494H324.132C324.811 137.494 325.174 137.286 325.174 136.668C325.174 136.05 324.796 135.842 324.132 135.842ZM331.72 140.351H330.871L330.423 139.147H328.052L327.604 140.351H326.755L328.739 135.139H329.736L331.72 140.351ZM329.241 135.942L328.299 138.475H330.176L329.241 135.942ZM334.877 140.444C333.333 140.444 332.244 139.347 332.244 137.741C332.244 136.143 333.333 135.039 334.877 135.039C336.151 135.039 337.117 135.795 337.402 136.954L336.638 137.147C336.453 136.374 335.835 135.772 334.877 135.772C333.796 135.772 333.039 136.568 333.039 137.741C333.039 138.923 333.796 139.71 334.877 139.71C335.619 139.71 336.213 139.332 336.491 138.707L337.233 138.985C336.846 139.88 335.974 140.444 334.877 140.444ZM342.879 140.351H341.991L340.331 137.625L339.381 138.583V140.351H338.585V135.139H339.381V137.571L341.782 135.139H342.778L340.879 137.062L342.879 140.351ZM347.487 135.139V135.842H344.676V137.378H347.255V138.073H344.676V139.649H347.487V140.351H343.881V135.139H347.487ZM352.801 140.351H351.913L350.616 138.197H349.496V140.351H348.701V135.139H350.956C352.068 135.139 352.763 135.564 352.763 136.668C352.763 137.595 352.276 138.042 351.465 138.158L352.801 140.351ZM350.925 135.842H349.496V137.494H350.925C351.604 137.494 351.967 137.286 351.967 136.668C351.967 136.05 351.589 135.842 350.925 135.842Z"
        fill="#626463" />
    <path
        d="M434.308 138.907L435.644 135.139H437.011V140.351H436.216V135.571L434.586 140.351H434.023L432.393 135.571V140.351H431.598V135.139H432.965L434.308 138.907Z"
        fill="#626463" />
    <path d="M451.404 135.139H455.752V135.842H453.976V140.351H453.18V135.842H451.404V135.139Z" fill="#626463" />
    <path
        d="M474.955 139.587L476.167 135.139H476.993L475.565 140.351H474.414L473.418 136.359L472.422 140.351H471.271L469.843 135.139H470.669L471.874 139.571L472.978 135.139H473.851L474.955 139.587Z"
        fill="#626463" />
    <path d="M490.98 135.139H495.327V135.842H493.551V140.351H492.756V135.842H490.98V135.139Z" fill="#626463" />
    <path d="M513.475 135.139V135.842H510.665V137.378H513.197V138.073H510.665V140.351H509.869V135.139H513.475Z"
        fill="#626463" />
    <path
        d="M529.695 140.444C528.513 140.444 527.749 139.865 527.594 138.853L528.359 138.668C528.475 139.363 528.984 139.772 529.741 139.772C530.405 139.772 530.791 139.448 530.791 138.946C530.791 138.344 530.181 138.212 529.51 138.042C528.699 137.826 527.78 137.571 527.78 136.513C527.78 135.641 528.506 135.039 529.625 135.039C530.567 135.039 531.371 135.463 531.579 136.506L530.861 136.691C530.714 135.988 530.243 135.703 529.625 135.703C528.969 135.703 528.567 136.012 528.567 136.49C528.567 137.039 529.123 137.17 529.818 137.34C530.637 137.541 531.587 137.834 531.587 138.861C531.587 139.842 530.923 140.444 529.695 140.444Z"
        fill="#626463" />
    <path
        d="M548.035 140.444C546.853 140.444 546.089 139.865 545.934 138.853L546.699 138.668C546.815 139.363 547.324 139.772 548.081 139.772C548.745 139.772 549.131 139.448 549.131 138.946C549.131 138.344 548.521 138.212 547.849 138.042C547.039 137.826 546.12 137.571 546.12 136.513C546.12 135.641 546.846 135.039 547.965 135.039C548.907 135.039 549.71 135.463 549.919 136.506L549.201 136.691C549.054 135.988 548.583 135.703 547.965 135.703C547.309 135.703 546.907 136.012 546.907 136.49C546.907 137.039 547.463 137.17 548.158 137.34C548.977 137.541 549.927 137.834 549.927 138.861C549.927 139.842 549.262 140.444 548.035 140.444Z"
        fill="#626463" />
    <circle cx="433.897" cy="156.324" r="4.05406" stroke="#A0907F" stroke-width="0.3861" />
    <circle cx="433.897" cy="175.05" r="4.05406" stroke="#A0907F" stroke-width="0.3861" />
    <circle cx="433.897" cy="193.776" r="4.05406" stroke="#A0907F" stroke-width="0.3861" />
    <circle cx="433.897" cy="212.502" r="4.05406" stroke="#A0907F" stroke-width="0.3861" />
    <circle cx="433.897" cy="231.228" r="4.05406" stroke="#A0907F" stroke-width="0.3861" />
    <circle cx="433.897" cy="249.954" r="4.05406" stroke="#A0907F" stroke-width="0.3861" />
    <circle cx="453.009" cy="156.324" r="4.05406" stroke="#A0907F" stroke-width="0.3861" />
    <circle cx="453.009" cy="175.05" r="4.05406" stroke="#A0907F" stroke-width="0.3861" />
    <circle cx="453.009" cy="193.776" r="4.05406" stroke="#A0907F" stroke-width="0.3861" />
    <circle cx="453.009" cy="212.502" r="4.05406" stroke="#A0907F" stroke-width="0.3861" />
    <circle cx="453.009" cy="231.228" r="4.05406" stroke="#A0907F" stroke-width="0.3861" />
    <circle cx="453.009" cy="249.954" r="4.05406" stroke="#A0907F" stroke-width="0.3861" />
    <circle cx="472.12" cy="156.324" r="4.05406" stroke="#A0907F" stroke-width="0.3861" />
    <circle cx="472.12" cy="175.05" r="4.05406" stroke="#A0907F" stroke-width="0.3861" />
    <circle cx="472.12" cy="193.776" r="4.05406" stroke="#A0907F" stroke-width="0.3861" />
    <circle cx="472.12" cy="212.502" r="4.05406" stroke="#A0907F" stroke-width="0.3861" />
    <circle cx="472.12" cy="231.228" r="4.05406" stroke="#A0907F" stroke-width="0.3861" />
    <circle cx="472.12" cy="249.954" r="4.05406" stroke="#A0907F" stroke-width="0.3861" />
    <circle cx="491.232" cy="156.324" r="4.05406" stroke="#A0907F" stroke-width="0.3861" />
    <circle cx="491.232" cy="175.05" r="4.05406" stroke="#A0907F" stroke-width="0.3861" />
    <circle cx="491.232" cy="193.776" r="4.05406" stroke="#A0907F" stroke-width="0.3861" />
    <circle cx="491.232" cy="212.502" r="4.05406" stroke="#A0907F" stroke-width="0.3861" />
    <circle cx="491.232" cy="231.228" r="4.05406" stroke="#A0907F" stroke-width="0.3861" />
    <circle cx="491.232" cy="249.954" r="4.05406" stroke="#A0907F" stroke-width="0.3861" />
    <circle cx="510.345" cy="156.324" r="4.05406" stroke="#A0907F" stroke-width="0.3861" />
    <circle cx="510.345" cy="175.05" r="4.05406" stroke="#A0907F" stroke-width="0.3861" />
    <circle cx="510.345" cy="193.776" r="4.05406" stroke="#A0907F" stroke-width="0.3861" />
    <circle cx="510.345" cy="212.502" r="4.05406" stroke="#A0907F" stroke-width="0.3861" />
    <circle cx="510.345" cy="231.228" r="4.05406" stroke="#A0907F" stroke-width="0.3861" />
    <circle cx="510.345" cy="249.954" r="4.05406" stroke="#A0907F" stroke-width="0.3861" />
    <circle cx="529.456" cy="156.324" r="4.05406" stroke="#A0907F" stroke-width="0.3861" />
    <circle cx="529.456" cy="175.05" r="4.05406" stroke="#A0907F" stroke-width="0.3861" />
    <circle cx="529.456" cy="193.776" r="4.05406" stroke="#A0907F" stroke-width="0.3861" />
    <circle cx="529.456" cy="212.502" r="4.05406" stroke="#A0907F" stroke-width="0.3861" />
    <circle cx="529.456" cy="231.228" r="4.05406" stroke="#A0907F" stroke-width="0.3861" />
    <circle cx="529.456" cy="249.954" r="4.05406" stroke="#A0907F" stroke-width="0.3861" />
    <circle cx="548.568" cy="156.324" r="4.05406" stroke="#A0907F" stroke-width="0.3861" />
    <circle cx="548.568" cy="175.05" r="4.05406" stroke="#A0907F" stroke-width="0.3861" />
    <circle cx="548.568" cy="193.776" r="4.05406" stroke="#A0907F" stroke-width="0.3861" />
    <circle cx="548.568" cy="212.502" r="4.05406" stroke="#A0907F" stroke-width="0.3861" />
    <circle cx="548.568" cy="231.228" r="4.05406" stroke="#A0907F" stroke-width="0.3861" />
    <circle cx="548.568" cy="249.954" r="4.05406" stroke="#A0907F" stroke-width="0.3861" />
    <circle cx="433.897" cy="268.679" r="4.05406" stroke="#A0907F" stroke-width="0.3861" />
    <circle cx="453.009" cy="268.679" r="4.05406" stroke="#A0907F" stroke-width="0.3861" />
    <circle cx="472.12" cy="268.679" r="4.05406" stroke="#A0907F" stroke-width="0.3861" />
    <circle cx="491.232" cy="268.679" r="4.05406" stroke="#A0907F" stroke-width="0.3861" />
    <circle cx="510.345" cy="268.679" r="4.05406" stroke="#A0907F" stroke-width="0.3861" />
    <circle cx="529.456" cy="268.679" r="4.05406" stroke="#A0907F" stroke-width="0.3861" />
    <circle cx="548.568" cy="268.679" r="4.05406" stroke="#A0907F" stroke-width="0.3861" />
    <path d="M290.846 14.0464H556.483" stroke="#626463" stroke-width="0.965251" />
    <path d="M290.846 33.7375H556.483" stroke="#A0907F" stroke-width="0.579151" />
    <path d="M290.846 53.4287H556.483" stroke="#A0907F" stroke-width="0.579151" />
    <path d="M290.846 73.1196H556.483" stroke="#A0907F" stroke-width="0.579151" />
    <path d="M290.846 92.8108H556.483" stroke="#A0907F" stroke-width="0.579151" />
    <path d="M290.846 112.502H556.483" stroke="#A0907F" stroke-width="0.579151" />
    <path
        d="M294.089 6.08846L295.425 2.32012H296.792V7.53247H295.996V2.75255L294.367 7.53247H293.803L292.174 2.75255V7.53247H291.379V2.32012H292.745L294.089 6.08846ZM302.76 7.53247H301.91L301.462 6.32784H299.092L298.644 7.53247H297.794L299.779 2.32012H300.775L302.76 7.53247ZM300.281 3.1232L299.339 5.65602H301.215L300.281 3.1232ZM304.552 7.53247H303.756V2.32012H304.552V7.53247ZM309.634 6.45139V2.32012H310.43V7.53247H309.457L306.8 3.37803V7.53247H306.005V2.32012H306.97L309.634 6.45139ZM318.373 5.56336H316.064V4.89154H319.115V7.53247H318.404V6.66761C318.064 7.30081 317.47 7.62513 316.62 7.62513C315.13 7.62513 314.057 6.52861 314.057 4.92243C314.057 3.32398 315.153 2.21973 316.69 2.21973C317.74 2.21973 318.875 2.78344 319.207 4.09618L318.443 4.30467C318.25 3.53247 317.632 2.95332 316.69 2.95332C315.609 2.95332 314.852 3.74869 314.852 4.92243C314.852 6.09618 315.578 6.89154 316.69 6.89154C317.539 6.89154 318.18 6.42822 318.373 5.56336ZM322.845 7.62513C321.3 7.62513 320.212 6.52861 320.212 4.92243C320.212 3.32398 321.3 2.21973 322.845 2.21973C324.389 2.21973 325.478 3.32398 325.478 4.92243C325.478 6.52861 324.389 7.62513 322.845 7.62513ZM322.845 6.89154C323.926 6.89154 324.683 6.1039 324.683 4.92243C324.683 3.74869 323.926 2.95332 322.845 2.95332C321.764 2.95332 321.007 3.74869 321.007 4.92243C321.007 6.1039 321.764 6.89154 322.845 6.89154ZM330.98 7.53247H330.13L329.682 6.32784H327.312L326.864 7.53247H326.014L327.999 2.32012H328.995L330.98 7.53247ZM328.501 3.1232L327.559 5.65602H329.435L328.501 3.1232ZM335.428 7.53247H331.976V2.32012H332.772V6.82977H335.428V7.53247ZM338.159 7.62513C336.978 7.62513 336.213 7.04598 336.059 6.0344L336.823 5.84907C336.939 6.54405 337.449 6.95332 338.205 6.95332C338.869 6.95332 339.256 6.629 339.256 6.12707C339.256 5.52475 338.645 5.39347 337.974 5.22359C337.163 5.00737 336.244 4.75255 336.244 3.69463C336.244 2.82205 336.97 2.21973 338.089 2.21973C339.032 2.21973 339.835 2.64444 340.043 3.68691L339.325 3.87224C339.178 3.16954 338.707 2.88382 338.089 2.88382C337.433 2.88382 337.032 3.1927 337.032 3.67147C337.032 4.21973 337.588 4.351 338.283 4.52089C339.101 4.72166 340.051 5.0151 340.051 6.04212C340.051 7.02282 339.387 7.62513 338.159 7.62513Z"
        fill="#626463" />
    <circle cx="294.391" cy="23.5754" r="3.38397" stroke="#A0907F" stroke-width="0.322282" />
    <circle cx="294.391" cy="43.4069" r="3.38397" stroke="#A0907F" stroke-width="0.322282" />
    <circle cx="294.391" cy="63.2385" r="3.38397" stroke="#A0907F" stroke-width="0.322282" />
    <circle cx="294.391" cy="83.07" r="3.38397" stroke="#A0907F" stroke-width="0.322282" />
    <circle cx="294.391" cy="102.902" r="3.38397" stroke="#A0907F" stroke-width="0.322282" />
    <path
        d="M295.008 400.75V396.619H295.803V401.831H294.83L292.174 397.677V401.831H291.379V396.619H292.344L295.008 400.75ZM299.671 401.924C298.127 401.924 297.038 400.827 297.038 399.221C297.038 397.623 298.127 396.518 299.671 396.518C301.216 396.518 302.304 397.623 302.304 399.221C302.304 400.827 301.216 401.924 299.671 401.924ZM299.671 401.19C300.752 401.19 301.509 400.402 301.509 399.221C301.509 398.047 300.752 397.252 299.671 397.252C298.59 397.252 297.833 398.047 297.833 399.221C297.833 400.402 298.59 401.19 299.671 401.19ZM302.773 396.619H307.12V397.321H305.344V401.831H304.549V397.321H302.773V396.619ZM311.874 396.619V397.321H309.063V398.858H311.642V399.553H309.063V401.128H311.874V401.831H308.267V396.619H311.874ZM314.812 401.924C313.631 401.924 312.866 401.345 312.712 400.333L313.476 400.148C313.592 400.843 314.102 401.252 314.858 401.252C315.522 401.252 315.909 400.928 315.909 400.426C315.909 399.823 315.298 399.692 314.627 399.522C313.816 399.306 312.897 399.051 312.897 397.993C312.897 397.121 313.623 396.518 314.742 396.518C315.685 396.518 316.488 396.943 316.696 397.985L315.978 398.171C315.831 397.468 315.36 397.182 314.742 397.182C314.086 397.182 313.685 397.491 313.685 397.97C313.685 398.518 314.241 398.65 314.936 398.819C315.754 399.02 316.704 399.314 316.704 400.341C316.704 401.321 316.04 401.924 314.812 401.924Z"
        fill="#626463" />
    <mask id="path-80-inside-1_665_5506" fill="white">
        <path d="M290.846 605.938V408.641H556.483V605.938H290.846Z" />
    </mask>
    <path
        d="M290.846 605.938H290.653V606.517H290.846V605.938ZM290.846 408.641V408.062H290.653V408.641H290.846ZM556.483 408.641H556.676V408.062H556.483V408.641ZM556.483 605.938V606.517H556.676V605.938H556.483ZM291.039 605.938V408.641H290.653V605.938H291.039ZM290.846 409.22H556.483V408.062H290.846V409.22ZM556.29 408.641V605.938H556.676V408.641H556.29ZM556.483 605.359H290.846V606.517H556.483V605.359Z"
        fill="#A0907F" mask="url(#path-80-inside-1_665_5506)" />
    <path d="M290.846 408.641H556.483" stroke="#626463" stroke-width="0.965251" />
    <path d="M290.846 605.938H556.483" stroke="#626463" stroke-width="0.965251" />
    <path d="M290.846 426.595H556.483" stroke="#A0907F" stroke-width="0.19305" />
    <path d="M290.846 480.456H556.483" stroke="#A0907F" stroke-width="0.19305" />
    <path d="M290.846 444.548H556.483" stroke="#A0907F" stroke-width="0.19305" />
    <path d="M290.846 498.409H556.483" stroke="#A0907F" stroke-width="0.19305" />
    <path d="M290.846 462.502H556.483" stroke="#A0907F" stroke-width="0.19305" />
    <path d="M290.846 516.363H556.483" stroke="#A0907F" stroke-width="0.19305" />
    <path d="M290.846 534.317H556.483" stroke="#A0907F" stroke-width="0.19305" />
    <path d="M290.846 552.271H556.483" stroke="#A0907F" stroke-width="0.19305" />
    <path d="M290.846 570.224H556.483" stroke="#A0907F" stroke-width="0.19305" />
    <path d="M290.846 588.178H556.483" stroke="#A0907F" stroke-width="0.19305" />
    <path d="M309.765 408.834V605.938" stroke="#A0907F" stroke-width="0.19305" />
    <path d="M330.421 408.834V605.938" stroke="#A0907F" stroke-width="0.19305" />
    <path d="M351.077 408.834V605.938" stroke="#A0907F" stroke-width="0.19305" />
    <path d="M371.733 408.834V605.938" stroke="#A0907F" stroke-width="0.19305" />
    <path d="M392.39 408.834V605.938" stroke="#A0907F" stroke-width="0.19305" />
    <path d="M413.047 408.834V605.938" stroke="#A0907F" stroke-width="0.19305" />
    <path d="M433.703 408.834V605.938" stroke="#A0907F" stroke-width="0.19305" />
    <path d="M454.359 408.834V605.938" stroke="#A0907F" stroke-width="0.19305" />
    <path d="M475.016 408.834V605.938" stroke="#A0907F" stroke-width="0.19305" />
    <path d="M495.672 408.834V605.938" stroke="#A0907F" stroke-width="0.19305" />
    <path d="M516.328 408.834V605.938" stroke="#A0907F" stroke-width="0.19305" />
    <path d="M536.984 408.834V605.938" stroke="#A0907F" stroke-width="0.19305" />
    <rect x="291.232" y="320.031" width="264.865" height="18.1467" rx="9.07336" stroke="#A0907F"
        stroke-width="0.772201" />
    <path
        d="M302.333 327.715C302.333 326.463 301.317 325.448 300.064 325.448C298.812 325.448 297.796 326.463 297.796 327.715C297.796 328.372 298.079 328.958 298.525 329.374L298.519 329.375L302.333 333.188L306.148 329.375C306.147 329.374 306.145 329.374 306.144 329.372C306.588 328.956 306.869 328.372 306.869 327.715C306.869 326.463 305.856 325.448 304.601 325.448C303.349 325.448 302.333 326.463 302.333 327.715Z"
        stroke="#A0907F" stroke-width="0.772201" stroke-linejoin="round" />
    <rect x="291.232" y="342.618" width="264.865" height="18.1467" rx="9.07336" stroke="#A0907F"
        stroke-width="0.772201" />
    <path
        d="M302.333 350.302C302.333 349.05 301.317 348.035 300.064 348.035C298.812 348.035 297.796 349.05 297.796 350.302C297.796 350.959 298.079 351.544 298.525 351.96L298.519 351.961L302.333 355.775L306.148 351.961C306.147 351.96 306.145 351.96 306.144 351.959C306.588 351.543 306.869 350.959 306.869 350.302C306.869 349.05 305.856 348.035 304.601 348.035C303.349 348.035 302.333 349.05 302.333 350.302Z"
        stroke="#A0907F" stroke-width="0.772201" stroke-linejoin="round" />
    <rect x="291.232" y="365.205" width="264.865" height="18.1467" rx="9.07336" stroke="#A0907F"
        stroke-width="0.772201" />
    <path
        d="M302.333 372.889C302.333 371.637 301.317 370.622 300.064 370.622C298.812 370.622 297.796 371.637 297.796 372.889C297.796 373.546 298.079 374.131 298.525 374.548L298.519 374.549L302.333 378.362L306.148 374.549C306.147 374.548 306.145 374.548 306.144 374.546C306.588 374.13 306.869 373.546 306.869 372.889C306.869 371.637 305.856 370.622 304.601 370.622C303.349 370.622 302.333 371.637 302.333 372.889Z"
        stroke="#A0907F" stroke-width="0.772201" stroke-linejoin="round" />
    <path d="M290.846 309.992H556.483" stroke="#626463" stroke-width="0.965251" />
    <path
        d="M295.471 301.51H293.162V300.838H296.212V303.479H295.502V302.614C295.162 303.247 294.568 303.572 293.718 303.572C292.228 303.572 291.155 302.475 291.155 300.869C291.155 299.271 292.251 298.166 293.788 298.166C294.838 298.166 295.973 298.73 296.305 300.043L295.541 300.251C295.348 299.479 294.73 298.9 293.788 298.9C292.707 298.9 291.95 299.695 291.95 300.869C291.95 302.043 292.676 302.838 293.788 302.838C294.637 302.838 295.278 302.375 295.471 301.51ZM301.634 303.479H300.746L299.449 301.325H298.329V303.479H297.534V298.267H299.788C300.9 298.267 301.595 298.691 301.595 299.796C301.595 300.722 301.109 301.17 300.298 301.286L301.634 303.479ZM299.757 298.969H298.329V300.622H299.757C300.437 300.622 300.8 300.413 300.8 299.796C300.8 299.178 300.422 298.969 299.757 298.969ZM307.346 303.479H306.497L306.049 302.274H303.678L303.23 303.479H302.381L304.365 298.267H305.361L307.346 303.479ZM304.867 299.07L303.925 301.603H305.802L304.867 299.07ZM307.133 298.267H311.481V298.969H309.705V303.479H308.909V298.969H307.133V298.267ZM313.423 303.479H312.628V298.267H313.423V303.479ZM314.572 298.267H318.919V298.969H317.143V303.479H316.348V298.969H314.572V298.267ZM321.954 303.572C320.749 303.572 319.861 302.915 319.861 301.664V298.267H320.657V301.564C320.657 302.382 321.166 302.846 321.954 302.846C322.742 302.846 323.251 302.382 323.251 301.564V298.267H324.047V301.664C324.047 302.915 323.159 303.572 321.954 303.572ZM327.22 303.479H325.452V298.267H327.22C329.066 298.267 330.039 299.077 330.039 300.869C330.039 302.676 329.051 303.479 327.22 303.479ZM326.247 298.969V302.776H327.22C328.541 302.776 329.244 302.182 329.244 300.869C329.244 299.541 328.51 298.969 327.22 298.969H326.247ZM334.889 298.267V298.969H332.078V300.506H334.657V301.201H332.078V302.776H334.889V303.479H331.283V298.267H334.889Z"
        fill="#626463" />
    <path d="M0.304688 14.0459H263.625" stroke="#626463" stroke-width="0.965251" />
    <path d="M0.304688 112.695H263.625" stroke="#626463" stroke-width="0.965251" />
    <path d="M0.304688 211.343H263.625" stroke="#626463" stroke-width="0.965251" />
    <path d="M0.304688 309.992H263.625" stroke="#626463" stroke-width="0.965251" />
    <path d="M0.304688 408.64H263.625" stroke="#626463" stroke-width="0.965251" />
    <path d="M0.304688 507.289H263.625" stroke="#626463" stroke-width="0.965251" />
    <path d="M0.304688 605.938H263.625" stroke="#626463" stroke-width="0.965251" />
    <path d="M0.304688 704.586H263.625" stroke="#626463" stroke-width="0.965251" />
    <path
        d="M3.24324 75.2005L4.57915 71.4322H5.94595V76.6445H5.15058V71.8646L3.52124 76.6445H2.95753L1.32819 71.8646V76.6445H0.532819V71.4322H1.89961L3.24324 75.2005ZM9.81347 76.7372C8.26906 76.7372 7.18026 75.6407 7.18026 74.0345C7.18026 72.436 8.26906 71.3318 9.81347 71.3318C11.3579 71.3318 12.4467 72.436 12.4467 74.0345C12.4467 75.6407 11.3579 76.7372 9.81347 76.7372ZM9.81347 76.0036C10.8945 76.0036 11.6513 75.216 11.6513 74.0345C11.6513 72.8607 10.8945 72.0654 9.81347 72.0654C8.73238 72.0654 7.97563 72.8607 7.97563 74.0345C7.97563 75.216 8.73238 76.0036 9.81347 76.0036ZM17.3016 75.5635V71.4322H18.097V76.6445H17.124L14.4677 72.4901V76.6445H13.6723V71.4322H14.6375L17.3016 75.5635Z"
        fill="#626463" />
    <rect y="47.4436" width="18.1467" height="18.1467" rx="2.89575" fill="#F1F1F1" />
    <path
        d="M2.02962 169.988H6.37711V170.691H4.60105V175.201H3.80568V170.691H2.02962V169.988ZM9.41192 175.293C8.20729 175.293 7.31926 174.637 7.31926 173.386V169.988H8.11462V173.286C8.11462 174.104 8.62428 174.567 9.41192 174.567C10.1996 174.567 10.7092 174.104 10.7092 173.286V169.988H11.5046V173.386C11.5046 174.637 10.6166 175.293 9.41192 175.293ZM16.5086 169.988V170.691H13.6978V172.228H16.2769V172.923H13.6978V174.498H16.5086V175.201H12.9024V169.988H16.5086Z"
        fill="#626463" />
    <rect x="0.304688" y="146" width="18.1467" height="18.1467" rx="2.89575" fill="#F1F1F1" />
    <path
        d="M5.58564 273.336L6.79799 268.888H7.62425L6.19567 274.1H5.0451L4.04896 270.108L3.05282 274.1H1.90224L0.473667 268.888H1.29992L2.50456 273.32L3.6088 268.888H4.48139L5.58564 273.336ZM12.2803 268.888V269.591H9.4695V271.127H12.0487V271.822H9.4695V273.398H12.2803V274.1H8.67414V268.888H12.2803ZM15.2704 274.1H13.5021V268.888H15.2704C17.116 268.888 18.089 269.699 18.089 271.49C18.089 273.297 17.1005 274.1 15.2704 274.1ZM14.2974 269.591V273.398H15.2704C16.5909 273.398 17.2936 272.803 17.2936 271.49C17.2936 270.162 16.56 269.591 15.2704 269.591H14.2974Z"
        fill="#626463" />
    <rect x="0.304688" y="244.9" width="18.1467" height="18.1467" rx="2.89575" fill="#F1F1F1" />
    <path
        d="M1.61487 367.116H5.96236V367.819H4.18629V372.329H3.39093V367.819H1.61487V367.116ZM7.75392 372.329H6.95856V367.116H7.75392V369.348H10.3562V367.116H11.1516V372.329H10.3562V370.051H7.75392V372.329ZM14.6469 372.421C13.4423 372.421 12.5542 371.765 12.5542 370.514V367.116H13.3496V370.414C13.3496 371.232 13.8593 371.695 14.6469 371.695C15.4345 371.695 15.9442 371.232 15.9442 370.414V367.116H16.7396V370.514C16.7396 371.765 15.8515 372.421 14.6469 372.421Z"
        fill="#626463" />
    <rect x="0.304688" y="343.128" width="18.1467" height="18.1467" rx="2.89575" fill="#F1F1F1" />
    <path
        d="M7.58452 466.343V467.046H4.77371V468.583H7.30653V469.278H4.77371V471.556H3.97834V466.343H7.58452ZM12.7783 471.556H11.8903L10.593 469.401H9.47328V471.556H8.67791V466.343H10.9327C12.0447 466.343 12.7397 466.768 12.7397 467.872C12.7397 468.799 12.2532 469.247 11.4424 469.363L12.7783 471.556ZM10.9018 467.046H9.47328V468.699H10.9018C11.5814 468.699 11.9443 468.49 11.9443 467.872C11.9443 467.255 11.5659 467.046 10.9018 467.046ZM14.7761 471.556H13.9808V466.343H14.7761V471.556Z"
        fill="#626463" />
    <rect x="0.304688" y="442.355" width="18.1467" height="18.1467" rx="2.89575" fill="#F1F1F1" />
    <path
        d="M4.62434 569.876C3.44287 569.876 2.67839 569.297 2.52395 568.286L3.28843 568.1C3.40426 568.795 3.91391 569.205 4.67067 569.205C5.33476 569.205 5.72086 568.88 5.72086 568.378C5.72086 567.776 5.11082 567.645 4.43901 567.475C3.6282 567.259 2.70928 567.004 2.70928 565.946C2.70928 565.073 3.43515 564.471 4.55484 564.471C5.49692 564.471 6.30001 564.896 6.50851 565.938L5.79036 566.123C5.64364 565.421 5.1726 565.135 4.55484 565.135C3.89847 565.135 3.49692 565.444 3.49692 565.923C3.49692 566.471 4.05291 566.602 4.74789 566.772C5.56642 566.973 6.51623 567.266 6.51623 568.293C6.51623 569.274 5.85214 569.876 4.62434 569.876ZM12.2751 569.784H11.4257L10.9778 568.579H8.60714L8.15927 569.784H7.30985L9.2944 564.571H10.2905L12.2751 569.784ZM9.79633 565.374L8.85425 567.907H10.7307L9.79633 565.374ZM12.0622 564.571H16.4097V565.274H14.6336V569.784H13.8383V565.274H12.0622V564.571Z"
        fill="#626463" />
    <rect x="0.304688" y="540.583" width="18.1467" height="18.1467" rx="2.89575" fill="#F1F1F1" />
    <path
        d="M3.72695 669.104C2.54549 669.104 1.78101 668.525 1.62657 667.514L2.39105 667.328C2.50688 668.023 3.01653 668.433 3.77329 668.433C4.43738 668.433 4.82348 668.108 4.82348 667.606C4.82348 667.004 4.21344 666.873 3.54163 666.703C2.73082 666.487 1.8119 666.232 1.8119 665.174C1.8119 664.301 2.53777 663.699 3.65746 663.699C4.59954 663.699 5.40263 664.124 5.61112 665.166L4.89298 665.351C4.74626 664.649 4.27522 664.363 3.65746 664.363C3.00109 664.363 2.59954 664.672 2.59954 665.151C2.59954 665.699 3.15553 665.83 3.85051 666C4.66904 666.201 5.61885 666.494 5.61885 667.521C5.61885 668.502 4.95475 669.104 3.72695 669.104ZM8.9293 669.104C7.72466 669.104 6.83663 668.448 6.83663 667.197V663.799H7.632V667.097C7.632 667.915 8.14165 668.379 8.9293 668.379C9.71694 668.379 10.2266 667.915 10.2266 667.097V663.799H11.022V667.197C11.022 668.448 10.1339 669.104 8.9293 669.104ZM16.0491 667.931V663.799H16.8445V669.012H15.8715L13.2151 664.857V669.012H12.4198V663.799H13.385L16.0491 667.931Z"
        fill="#626463" />
    <rect x="0.304688" y="639.811" width="18.1467" height="18.1467" rx="2.89575" fill="#F1F1F1" />
</svg>