<svg width="556" height="691" viewBox="0 0 556 691" fill="none" xmlns="http://www.w3.org/2000/svg">
<path d="M293.66 465.663H554.085" stroke="#333333" stroke-width="0.965251"/>
<path d="M293.66 486.126H554.085" stroke="#9A9A9A" stroke-width="0.579151"/>
<path d="M293.66 547.517H554.085" stroke="#9A9A9A" stroke-width="0.579151"/>
<path d="M293.66 506.59H554.085" stroke="#9A9A9A" stroke-width="0.579151"/>
<path d="M293.66 567.594H554.085" stroke="#9A9A9A" stroke-width="0.579151"/>
<path d="M293.66 588.057H554.085" stroke="#9A9A9A" stroke-width="0.579151"/>
<path d="M293.66 527.053H554.085" stroke="#9A9A9A" stroke-width="0.579151"/>
<path d="M298.903 458.385L300.116 453.938H300.942L299.513 459.15H298.363L297.367 455.158L296.371 459.15H295.22L293.791 453.938H294.618L295.822 458.37L296.927 453.938H297.799L298.903 458.385ZM302.787 459.15H301.992V453.938H302.787V456.169H305.39V453.938H306.185V459.15H305.39V456.872H302.787V459.15ZM312.151 459.15H311.302L310.854 457.945H308.483L308.035 459.15H307.186L309.171 453.938H310.167L312.151 459.15ZM309.673 454.741L308.73 457.273H310.607L309.673 454.741ZM311.938 453.938H316.286V454.64H314.51V459.15H313.714V454.64H311.938V453.938ZM321.699 459.243C320.154 459.243 319.066 458.146 319.066 456.54C319.066 454.941 320.154 453.837 321.699 453.837C322.973 453.837 323.938 454.594 324.224 455.752L323.459 455.945C323.274 455.173 322.656 454.571 321.699 454.571C320.618 454.571 319.861 455.366 319.861 456.54C319.861 457.721 320.618 458.509 321.699 458.509C322.44 458.509 323.035 458.131 323.313 457.505L324.054 457.783C323.668 458.679 322.795 459.243 321.699 459.243ZM329.826 459.15H328.977L328.529 457.945H326.158L325.71 459.15H324.861L326.845 453.938H327.841L329.826 459.15ZM327.347 454.741L326.405 457.273H328.282L327.347 454.741ZM334.452 458.069V453.938H335.247V459.15H334.274L331.618 454.995V459.15H330.823V453.938H331.788L334.452 458.069ZM339.894 459.15H339.098V453.938H339.894V459.15ZM345.515 459.15H343.747V453.938H345.515C347.361 453.938 348.334 454.748 348.334 456.54C348.334 458.347 347.345 459.15 345.515 459.15ZM344.542 454.64V458.447H345.515C346.836 458.447 347.538 457.853 347.538 456.54C347.538 455.212 346.805 454.64 345.515 454.64H344.542ZM351.987 459.243C350.442 459.243 349.353 458.146 349.353 456.54C349.353 454.941 350.442 453.837 351.987 453.837C353.531 453.837 354.62 454.941 354.62 456.54C354.62 458.146 353.531 459.243 351.987 459.243ZM351.987 458.509C353.068 458.509 353.824 457.721 353.824 456.54C353.824 455.366 353.068 454.571 351.987 454.571C350.905 454.571 350.149 455.366 350.149 456.54C350.149 457.721 350.905 458.509 351.987 458.509ZM357.397 453.938H361.745V454.64H359.969V459.15H359.173V454.64H357.397V453.938ZM364.849 459.243C363.304 459.243 362.215 458.146 362.215 456.54C362.215 454.941 363.304 453.837 364.849 453.837C366.393 453.837 367.482 454.941 367.482 456.54C367.482 458.146 366.393 459.243 364.849 459.243ZM364.849 458.509C365.93 458.509 366.686 457.721 366.686 456.54C366.686 455.366 365.93 454.571 364.849 454.571C363.767 454.571 363.011 455.366 363.011 456.54C363.011 457.721 363.767 458.509 364.849 458.509ZM373.81 457.706L375.146 453.938H376.512V459.15H375.717V454.37L374.088 459.15H373.524L371.895 454.37V459.15H371.099V453.938H372.466L373.81 457.706ZM382.48 459.15H381.631L381.183 457.945H378.812L378.365 459.15H377.515L379.5 453.938H380.496L382.48 459.15ZM380.002 454.741L379.06 457.273H380.936L380.002 454.741ZM387.771 459.15H386.883L385.222 456.424L384.273 457.382V459.15H383.477V453.938H384.273V456.37L386.674 453.938H387.67L385.771 455.86L387.771 459.15ZM392.379 453.938V454.64H389.568V456.177H392.147V456.872H389.568V458.447H392.379V459.15H388.772V453.938H392.379ZM395.145 453.938H399.492V454.64H397.716V459.15H396.921V454.64H395.145V453.938ZM402.596 459.243C401.051 459.243 399.963 458.146 399.963 456.54C399.963 454.941 401.051 453.837 402.596 453.837C404.14 453.837 405.229 454.941 405.229 456.54C405.229 458.146 404.14 459.243 402.596 459.243ZM402.596 458.509C403.677 458.509 404.434 457.721 404.434 456.54C404.434 455.366 403.677 454.571 402.596 454.571C401.515 454.571 400.758 455.366 400.758 456.54C400.758 457.721 401.515 458.509 402.596 458.509ZM409.165 457.706L410.501 453.938H411.868V459.15H411.072V454.37L409.443 459.15H408.879L407.25 454.37V459.15H406.455V453.938H407.821L409.165 457.706ZM415.735 459.243C414.191 459.243 413.102 458.146 413.102 456.54C413.102 454.941 414.191 453.837 415.735 453.837C417.28 453.837 418.369 454.941 418.369 456.54C418.369 458.146 417.28 459.243 415.735 459.243ZM415.735 458.509C416.816 458.509 417.573 457.721 417.573 456.54C417.573 455.366 416.816 454.571 415.735 454.571C414.654 454.571 413.897 455.366 413.897 456.54C413.897 457.721 414.654 458.509 415.735 458.509ZM423.695 459.15H422.807L421.509 456.995H420.39V459.15H419.594V453.938H421.849C422.961 453.938 423.656 454.362 423.656 455.467C423.656 456.393 423.169 456.841 422.359 456.957L423.695 459.15ZM421.818 454.64H420.39V456.293H421.818C422.498 456.293 422.861 456.084 422.861 455.467C422.861 454.849 422.482 454.64 421.818 454.64ZM428.997 459.15H428.109L426.812 456.995H425.692V459.15H424.897V453.938H427.152C428.264 453.938 428.959 454.362 428.959 455.467C428.959 456.393 428.472 456.841 427.661 456.957L428.997 459.15ZM427.121 454.64H425.692V456.293H427.121C427.8 456.293 428.163 456.084 428.163 455.467C428.163 454.849 427.785 454.64 427.121 454.64ZM432.609 459.243C431.065 459.243 429.976 458.146 429.976 456.54C429.976 454.941 431.065 453.837 432.609 453.837C434.154 453.837 435.242 454.941 435.242 456.54C435.242 458.146 434.154 459.243 432.609 459.243ZM432.609 458.509C433.69 458.509 434.447 457.721 434.447 456.54C434.447 455.366 433.69 454.571 432.609 454.571C431.528 454.571 430.771 455.366 430.771 456.54C430.771 457.721 431.528 458.509 432.609 458.509ZM441.058 458.385L442.27 453.938H443.096L441.668 459.15H440.517L439.521 455.158L438.525 459.15H437.374L435.946 453.938H436.772L437.977 458.37L439.081 453.938H439.953L441.058 458.385ZM449.6 456.409C450.187 456.594 450.534 457.003 450.534 457.714C450.534 458.926 449.476 459.15 448.797 459.15H446.387V453.938H448.642C449.754 453.938 450.333 454.385 450.333 455.266C450.333 455.829 450.086 456.231 449.6 456.409ZM449.538 455.389C449.538 454.856 449.237 454.602 448.627 454.602H447.183V456.177H448.627C449.237 456.177 449.538 455.914 449.538 455.389ZM447.183 458.463H448.804C449.414 458.463 449.739 458.208 449.739 457.629C449.739 457.05 449.414 456.795 448.804 456.795H447.183V458.463ZM455.417 453.938V454.64H452.606V456.177H455.185V456.872H452.606V458.447H455.417V459.15H451.811V453.938H455.417ZM456.289 453.938H460.636V454.64H458.86V459.15H458.065V454.64H456.289V453.938ZM461.411 453.938H465.758V454.64H463.982V459.15H463.187V454.64H461.411V453.938ZM470.511 453.938V454.64H467.7V456.177H470.28V456.872H467.7V458.447H470.511V459.15H466.905V453.938H470.511ZM475.826 459.15H474.938L473.64 456.995H472.521V459.15H471.725V453.938H473.98C475.092 453.938 475.787 454.362 475.787 455.467C475.787 456.393 475.301 456.841 474.49 456.957L475.826 459.15ZM473.949 454.64H472.521V456.293H473.949C474.629 456.293 474.992 456.084 474.992 455.467C474.992 454.849 474.613 454.64 473.949 454.64Z" fill="#333333"/>
<mask id="path-9-inside-1_665_5667" fill="white">
<path d="M1 0H555.915V98H1V0Z"/>
</mask>
<path d="M1 0H555.915V98H1V0Z" fill="#F8F8F8"/>
<path d="M1 0.965251H555.915V-0.965251H1V0.965251Z" fill="#333333" mask="url(#path-9-inside-1_665_5667)"/>
<path d="M199.049 23.3311V23.2152C199.234 23.2036 199.396 23.0994 199.396 22.6361V15.9179C199.396 15.4546 199.234 15.3504 199.049 15.3388V15.2229H200.786V15.3388C200.601 15.3504 200.439 15.4546 200.439 15.9179V22.6361C200.439 23.0994 200.601 23.2036 200.786 23.2152V23.3311H199.049ZM201.947 23.3311V23.2152C202.132 23.2036 202.294 23.0994 202.294 22.6361V18.2345C202.294 17.7712 202.132 17.667 201.947 17.6554V17.5395H203.337V19.4044C203.65 18.3504 204.31 17.4237 205.364 17.4237C206.29 17.4237 206.928 18.1534 206.928 19.2423V22.6361C206.928 23.0994 207.09 23.2036 207.275 23.2152V23.3311H205.538V23.2152C205.723 23.2036 205.885 23.0994 205.885 22.6361V19.2423C205.885 18.4662 205.503 17.9218 204.935 17.9218C203.928 17.9218 203.337 19.6708 203.337 20.9565V22.6361C203.337 23.0994 203.499 23.2036 203.684 23.2152V23.3311H201.947ZM212.705 21.8021C212.705 22.6824 211.813 23.4469 210.516 23.4469C209.797 23.4469 209.068 23.2152 208.5 22.7403V21.582H208.639C209.045 22.5318 209.647 23.2152 210.516 23.2152C211.199 23.2152 211.685 22.7867 211.685 22.2538C211.685 20.8755 208.489 20.7596 208.489 19.0338C208.489 18.165 209.311 17.4237 210.643 17.4237C211.199 17.4237 211.917 17.5511 212.473 18.0145V19.1728H212.334C211.94 18.2229 211.373 17.6554 210.62 17.6554C209.983 17.6554 209.508 18.0608 209.508 18.5936C209.508 19.972 212.705 20.1226 212.705 21.8021ZM219.247 20.0646C219.247 21.7905 218.228 23.4469 216.838 23.4469C216.143 23.4469 215.656 23.0415 215.309 22.4623V25.5318C215.309 25.9951 215.471 26.0994 215.656 26.111V26.2268H213.919V26.111C214.104 26.0994 214.266 25.9951 214.266 25.5318V18.2345C214.266 17.7712 214.104 17.667 213.919 17.6554V17.5395H215.309V19.2538C215.599 18.2693 216.178 17.4237 217.197 17.4237C218.309 17.4237 219.247 18.4083 219.247 20.0646ZM215.309 20.9565V21.9643C215.633 22.7403 216.155 22.9372 216.525 22.9372C217.475 22.9372 218.089 21.6399 218.089 20.1573C218.089 18.7094 217.498 17.9218 216.803 17.9218C215.784 17.9218 215.309 19.5782 215.309 20.9565ZM220.807 15.9295C220.807 15.6515 220.981 15.4314 221.293 15.4314C221.629 15.4314 221.849 15.6747 221.849 16.0106C221.849 16.4623 221.455 16.9141 220.807 17.0531C221.166 16.555 220.807 16.3233 220.807 15.9295ZM220.459 23.3311V23.2152C220.645 23.2036 220.807 23.0994 220.807 22.6361V18.2345C220.807 17.7712 220.645 17.667 220.459 17.6554V17.5395H221.849V22.6361C221.849 23.0994 222.011 23.2036 222.197 23.2152V23.3311H220.459ZM226.091 18.0724C225.211 18.0724 224.747 19.555 224.747 20.9565V22.6361C224.747 23.0994 224.909 23.2036 225.095 23.2152V23.3311H223.357V23.2152C223.543 23.2036 223.705 23.0994 223.705 22.6361V18.2345C223.705 17.7712 223.543 17.667 223.357 17.6554V17.5395H224.747V19.2654C225.025 18.2577 225.57 17.4237 226.357 17.4237C226.601 17.4237 226.879 17.5048 227.099 17.7828V18.9411H226.96C226.751 18.2693 226.404 18.0724 226.091 18.0724ZM231.487 19.6129C230.514 20.6322 229.02 20.8986 229.02 21.9179C229.02 22.4276 229.391 22.7751 229.947 22.7751C230.723 22.7751 231.487 22.0801 231.487 21.3504V19.6129ZM230.422 17.6554C229.75 17.6554 229.124 18.3388 228.719 19.2886H228.58V18.1303C229.136 17.667 229.785 17.4237 230.456 17.4237C231.615 17.4237 232.53 18.1534 232.53 19.2423V22.6361C232.53 23.0994 232.692 23.2036 232.877 23.2152V23.3311H231.487V22.1033C231.082 22.7982 230.213 23.4469 229.275 23.4469C228.429 23.4469 227.908 22.9141 227.908 22.2307C227.908 20.7017 230.572 20.4585 231.487 19.2654V19.2423C231.487 18.3851 231.105 17.6554 230.422 17.6554ZM236.762 22.7751C236.565 23.1805 236.16 23.4469 235.708 23.4469C235.013 23.4469 234.561 22.8214 234.561 21.8832V17.7712H233.866V17.5395C234.608 17.4932 235.129 17.0531 235.372 16.1959H235.604V17.5395H236.762V17.7712H235.604V21.9758C235.604 22.6245 235.789 22.972 236.148 22.972C236.299 22.972 236.507 22.9141 236.669 22.7056L236.762 22.7751ZM238.27 15.9295C238.27 15.6515 238.443 15.4314 238.756 15.4314C239.092 15.4314 239.312 15.6747 239.312 16.0106C239.312 16.4623 238.918 16.9141 238.27 17.0531C238.629 16.555 238.27 16.3233 238.27 15.9295ZM237.922 23.3311V23.2152C238.107 23.2036 238.27 23.0994 238.27 22.6361V18.2345C238.27 17.7712 238.107 17.667 237.922 17.6554V17.5395H239.312V22.6361C239.312 23.0994 239.474 23.2036 239.66 23.2152V23.3311H237.922ZM240.878 20.4353C240.878 18.7442 242.129 17.4237 243.716 17.4237C245.303 17.4237 246.554 18.7442 246.554 20.4353C246.554 22.1264 245.303 23.4469 243.716 23.4469C242.129 23.4469 240.878 22.1264 240.878 20.4353ZM242.036 20.4353C242.036 22.1148 242.697 23.2152 243.716 23.2152C244.735 23.2152 245.395 22.1148 245.395 20.4353C245.395 18.7558 244.735 17.6554 243.716 17.6554C242.697 17.6554 242.036 18.7558 242.036 20.4353ZM247.768 23.3311V23.2152C247.953 23.2036 248.115 23.0994 248.115 22.6361V18.2345C248.115 17.7712 247.953 17.667 247.768 17.6554V17.5395H249.158V19.4044C249.47 18.3504 250.131 17.4237 251.185 17.4237C252.111 17.4237 252.748 18.1534 252.748 19.2423V22.6361C252.748 23.0994 252.91 23.2036 253.096 23.2152V23.3311H251.358V23.2152C251.544 23.2036 251.706 23.0994 251.706 22.6361V19.2423C251.706 18.4662 251.324 17.9218 250.756 17.9218C249.748 17.9218 249.158 19.6708 249.158 20.9565V22.6361C249.158 23.0994 249.32 23.2036 249.505 23.2152V23.3311H247.768ZM257.888 19.6129C256.915 20.6322 255.421 20.8986 255.421 21.9179C255.421 22.4276 255.792 22.7751 256.348 22.7751C257.124 22.7751 257.888 22.0801 257.888 21.3504V19.6129ZM256.823 17.6554C256.151 17.6554 255.526 18.3388 255.12 19.2886H254.981V18.1303C255.537 17.667 256.186 17.4237 256.858 17.4237C258.016 17.4237 258.931 18.1534 258.931 19.2423V22.6361C258.931 23.0994 259.093 23.2036 259.278 23.2152V23.3311H257.888V22.1033C257.483 22.7982 256.614 23.4469 255.676 23.4469C254.831 23.4469 254.309 22.9141 254.309 22.2307C254.309 20.7017 256.973 20.4585 257.888 19.2654V19.2423C257.888 18.3851 257.506 17.6554 256.823 17.6554ZM260.441 23.3311V23.2152C260.626 23.2036 260.789 23.0994 260.789 22.6361V15.9179C260.789 15.4546 260.626 15.3504 260.441 15.3388V15.2229H261.831V22.6361C261.831 23.0994 261.993 23.2036 262.179 23.2152V23.3311H260.441ZM266.872 19.277C266.872 16.9372 268.378 15.1071 270.347 15.1071C272.316 15.1071 273.822 16.9372 273.822 19.277C273.822 21.2461 272.744 22.8562 271.239 23.3195L269.71 23.9797C271.065 23.9102 272.571 24.6863 273.648 24.0376C273.949 24.6168 273.555 25.0917 272.918 25.0917C271.887 25.0917 270.578 23.887 269.362 24.1303L269.304 24.1534V24.026L270.683 23.4237C270.567 23.4353 270.463 23.4469 270.347 23.4469C268.378 23.4469 266.872 21.6168 266.872 19.277ZM268.03 19.277C268.03 21.6515 268.945 23.2152 270.347 23.2152C271.748 23.2152 272.663 21.6515 272.663 19.277C272.663 16.9025 271.748 15.3388 270.347 15.3388C268.945 15.3388 268.03 16.9025 268.03 19.277ZM280.02 17.5395V22.6361C280.02 23.0994 280.183 23.2036 280.368 23.2152V23.3311H278.978V21.4662C278.665 22.5202 278.005 23.4469 276.951 23.4469C276.024 23.4469 275.387 22.7172 275.387 21.6284V18.2345C275.387 17.7712 275.225 17.667 275.04 17.6554V17.5395H276.43V21.6284C276.43 22.4044 276.812 22.9488 277.379 22.9488C278.387 22.9488 278.978 21.1998 278.978 19.9141V18.2345C278.978 17.7712 278.816 17.667 278.63 17.6554V17.5395H280.02ZM281.581 20.4353C281.581 18.7442 282.832 17.4237 284.419 17.4237C286.006 17.4237 287.257 18.7442 287.257 20.4353C287.257 22.1264 286.006 23.4469 284.419 23.4469C282.832 23.4469 281.581 22.1264 281.581 20.4353ZM282.74 20.4353C282.74 22.1148 283.4 23.2152 284.419 23.2152C285.439 23.2152 286.099 22.1148 286.099 20.4353C286.099 18.7558 285.439 17.6554 284.419 17.6554C283.4 17.6554 282.74 18.7558 282.74 20.4353ZM291.193 22.7751C290.996 23.1805 290.591 23.4469 290.139 23.4469C289.444 23.4469 288.992 22.8214 288.992 21.8832V17.7712H288.297V17.5395C289.039 17.4932 289.56 17.0531 289.803 16.1959H290.035V17.5395H291.193V17.7712H290.035V21.9758C290.035 22.6245 290.22 22.972 290.579 22.972C290.73 22.972 290.938 22.9141 291.1 22.7056L291.193 22.7751ZM297.027 21.9411L297.119 22.0106C296.702 22.7751 295.891 23.4469 294.861 23.4469C293.366 23.4469 292.185 22.0338 292.185 20.389C292.185 18.7442 293.366 17.4237 294.976 17.4237C296.135 17.4237 296.992 18.1071 296.992 18.8948C296.992 20.0878 295.069 20.6785 293.401 20.945C293.656 22.2538 294.583 22.8214 295.428 22.8214C296.065 22.8214 296.691 22.4971 297.027 21.9411ZM293.366 20.7133C294.93 20.4701 295.949 19.9256 295.949 18.8253C295.949 18.2114 295.579 17.6554 294.93 17.6554C294.027 17.6554 293.332 18.7558 293.332 20.2036C293.332 20.389 293.343 20.5511 293.366 20.7133ZM304.096 15.1071C304.501 15.1071 304.965 15.2229 305.37 15.5936V16.7519H305.231C304.895 15.8021 304.513 15.3388 304.061 15.3388C303.494 15.3388 303.378 16.1033 303.378 17.0067V17.5395H304.536V17.7712H303.378V22.6361C303.378 23.0994 303.54 23.2036 303.725 23.2152V23.3311H301.988V23.2152C302.173 23.2036 302.335 23.0994 302.335 22.6361V17.7712H301.64V17.5395H302.335V17.0067C302.335 16.0222 302.961 15.1071 304.096 15.1071ZM305.313 20.4353C305.313 18.7442 306.564 17.4237 308.151 17.4237C309.738 17.4237 310.989 18.7442 310.989 20.4353C310.989 22.1264 309.738 23.4469 308.151 23.4469C306.564 23.4469 305.313 22.1264 305.313 20.4353ZM306.471 20.4353C306.471 22.1148 307.132 23.2152 308.151 23.2152C309.17 23.2152 309.83 22.1148 309.83 20.4353C309.83 18.7558 309.17 17.6554 308.151 17.6554C307.132 17.6554 306.471 18.7558 306.471 20.4353ZM314.936 18.0724C314.056 18.0724 313.593 19.555 313.593 20.9565V22.6361C313.593 23.0994 313.755 23.2036 313.94 23.2152V23.3311H312.203V23.2152C312.388 23.2036 312.55 23.0994 312.55 22.6361V18.2345C312.55 17.7712 312.388 17.667 312.203 17.6554V17.5395H313.593V19.2654C313.871 18.2577 314.415 17.4237 315.203 17.4237C315.446 17.4237 315.724 17.5048 315.944 17.7828V18.9411H315.805C315.596 18.2693 315.249 18.0724 314.936 18.0724ZM322.43 23.3311V23.2152C322.615 23.2036 322.777 23.0994 322.777 22.6361V16.1496C322.777 15.6168 322.592 15.4546 322.21 15.4546C321.561 15.4546 320.97 15.9179 320.75 16.6129H320.634V15.2229H325.962V16.6129H325.847C325.627 15.9179 325.036 15.4546 324.387 15.4546C324.005 15.4546 323.82 15.6168 323.82 16.1496V22.6361C323.82 23.0994 323.982 23.2036 324.167 23.2152V23.3311H322.43ZM327.118 23.3311V23.2152C327.303 23.2036 327.466 23.0994 327.466 22.6361V15.9179C327.466 15.4546 327.303 15.3504 327.118 15.3388V15.2229H328.508V19.4044C328.821 18.3504 329.481 17.4237 330.535 17.4237C331.462 17.4237 332.099 18.1534 332.099 19.2423V22.6361C332.099 23.0994 332.261 23.2036 332.446 23.2152V23.3311H330.709V23.2152C330.894 23.2036 331.056 23.0994 331.056 22.6361V19.2423C331.056 18.4662 330.674 17.9218 330.106 17.9218C329.099 17.9218 328.508 19.6708 328.508 20.9565V22.6361C328.508 23.0994 328.67 23.2036 328.855 23.2152V23.3311H327.118ZM338.501 21.9411L338.594 22.0106C338.177 22.7751 337.366 23.4469 336.335 23.4469C334.841 23.4469 333.66 22.0338 333.66 20.389C333.66 18.7442 334.841 17.4237 336.451 17.4237C337.61 17.4237 338.467 18.1071 338.467 18.8948C338.467 20.0878 336.544 20.6785 334.876 20.945C335.131 22.2538 336.057 22.8214 336.903 22.8214C337.54 22.8214 338.166 22.4971 338.501 21.9411ZM334.841 20.7133C336.405 20.4701 337.424 19.9256 337.424 18.8253C337.424 18.2114 337.054 17.6554 336.405 17.6554C335.501 17.6554 334.806 18.7558 334.806 20.2036C334.806 20.389 334.818 20.5511 334.841 20.7133ZM345.606 23.3311H343.289V23.2152C343.474 23.2036 343.636 23.0994 343.636 22.6361V15.9179C343.636 15.4546 343.474 15.3504 343.289 15.3388V15.2229H345.606C347.992 15.2229 349.775 16.8446 349.775 19.277C349.775 21.7094 347.992 23.3311 345.606 23.3311ZM344.679 23.0994H345.606C347.378 23.0994 348.617 21.5241 348.617 19.2423C348.617 16.9836 347.413 15.4546 345.571 15.4546C344.992 15.4546 344.679 15.6052 344.679 16.1728V23.0994ZM354.281 19.6129C353.308 20.6322 351.814 20.8986 351.814 21.9179C351.814 22.4276 352.184 22.7751 352.74 22.7751C353.516 22.7751 354.281 22.0801 354.281 21.3504V19.6129ZM353.215 17.6554C352.543 17.6554 351.918 18.3388 351.512 19.2886H351.373V18.1303C351.929 17.667 352.578 17.4237 353.25 17.4237C354.408 17.4237 355.323 18.1534 355.323 19.2423V22.6361C355.323 23.0994 355.485 23.2036 355.671 23.2152V23.3311H354.281V22.1033C353.875 22.7982 353.007 23.4469 352.068 23.4469C351.223 23.4469 350.702 22.9141 350.702 22.2307C350.702 20.7017 353.366 20.4585 354.281 19.2654V19.2423C354.281 18.3851 353.899 17.6554 353.215 17.6554ZM358.707 23.3311L356.853 18.2345C356.714 17.887 356.564 17.7133 356.367 17.6554V17.5395H358.174V17.6554C358.012 17.7133 357.965 17.8755 358.07 18.2114L359.703 22.6824L360.467 20.5627C361.174 18.6284 361.29 17.8639 360.653 17.6554V17.5395H362.043V17.6554C361.846 17.7133 361.695 17.8755 361.556 18.2229L359.494 23.9102C359.043 25.1496 358.429 26.2268 357.386 26.2268L357.108 24.86L357.213 24.8137C357.444 25.138 357.687 25.277 357.931 25.277C358.487 25.277 359.008 24.5704 359.251 23.9102L359.297 23.7944C359.379 23.5048 359.17 23.3311 358.707 23.3311Z" fill="#333333"/>
<path d="M1 264.085H265.809" stroke="#333333" stroke-width="0.965251"/>
<path d="M1 282.812H265.809" stroke="#9A9A9A" stroke-width="0.579151"/>
<path d="M1 301.537H265.809" stroke="#9A9A9A" stroke-width="0.579151"/>
<path d="M1 320.263H265.809" stroke="#9A9A9A" stroke-width="0.579151"/>
<path d="M3.94209 257.664C2.39768 257.664 1.30888 256.567 1.30888 254.961C1.30888 253.363 2.39768 252.259 3.94209 252.259C5.21622 252.259 6.18147 253.015 6.46718 254.174L5.7027 254.367C5.51737 253.594 4.89961 252.992 3.94209 252.992C2.861 252.992 2.10425 253.788 2.10425 254.961C2.10425 256.143 2.861 256.93 3.94209 256.93C4.6834 256.93 5.27799 256.552 5.55598 255.927L6.2973 256.204C5.9112 257.1 5.03861 257.664 3.94209 257.664ZM8.44546 257.571H7.6501V252.359H8.44546V254.591H11.0478V252.359H11.8431V257.571H11.0478V255.293H8.44546V257.571ZM17.8095 257.571H16.9601L16.5122 256.367H14.1415L13.6937 257.571H12.8442L14.8288 252.359H15.8249L17.8095 257.571ZM15.3307 253.162L14.3886 255.695H16.2651L15.3307 253.162ZM22.258 257.571H18.8063V252.359H19.6017V256.869H22.258V257.571ZM26.8219 257.571H23.3701V252.359H24.1655V256.869H26.8219V257.571ZM31.5401 252.359V253.062H28.7293V254.598H31.3085V255.293H28.7293V256.869H31.5401V257.571H27.9339V252.359H31.5401ZM36.3835 256.49V252.359H37.1789V257.571H36.2059L33.5495 253.417V257.571H32.7542V252.359H33.7194L36.3835 256.49ZM42.7303 255.602H40.4215V254.93H43.4716V257.571H42.7612V256.706C42.4215 257.34 41.8269 257.664 40.9774 257.664C39.4871 257.664 38.4137 256.567 38.4137 254.961C38.4137 253.363 39.5103 252.259 41.0469 252.259C42.0971 252.259 43.2323 252.822 43.5643 254.135L42.7998 254.343C42.6068 253.571 41.989 252.992 41.0469 252.992C39.9659 252.992 39.2091 253.788 39.2091 254.961C39.2091 256.135 39.935 256.93 41.0469 256.93C41.8964 256.93 42.5373 256.467 42.7303 255.602ZM48.3988 252.359V253.062H45.588V254.598H48.1672V255.293H45.588V256.869H48.3988V257.571H44.7927V252.359H48.3988ZM54.4142 257.664C52.8698 257.664 51.7809 256.567 51.7809 254.961C51.7809 253.363 52.8698 252.259 54.4142 252.259C55.9586 252.259 57.0474 253.363 57.0474 254.961C57.0474 256.567 55.9586 257.664 54.4142 257.664ZM54.4142 256.93C55.4952 256.93 56.252 256.143 56.252 254.961C56.252 253.788 55.4952 252.992 54.4142 252.992C53.3331 252.992 52.5763 253.788 52.5763 254.961C52.5763 256.143 53.3331 256.93 54.4142 256.93ZM61.8792 252.359V253.062H59.0684V254.598H61.6012V255.293H59.0684V257.571H58.273V252.359H61.8792ZM64.1398 252.359H68.4873V253.062H66.7112V257.571H65.9158V253.062H64.1398V252.359ZM70.2788 257.571H69.4835V252.359H70.2788V254.591H72.8812V252.359H73.6765V257.571H72.8812V255.293H70.2788V257.571ZM78.7394 252.359V253.062H75.9286V254.598H78.5077V255.293H75.9286V256.869H78.7394V257.571H75.1332V252.359H78.7394ZM84.1215 257.571H82.3532V252.359H84.1215C85.9671 252.359 86.94 253.17 86.94 254.961C86.94 256.768 85.9516 257.571 84.1215 257.571ZM83.1485 253.062V256.869H84.1215C85.442 256.869 86.1447 256.274 86.1447 254.961C86.1447 253.633 85.4111 253.062 84.1215 253.062H83.1485ZM92.4596 257.571H91.6102L91.1623 256.367H88.7916L88.3437 257.571H87.4943L89.4789 252.359H90.475L92.4596 257.571ZM89.9808 253.162L89.0387 255.695H90.9152L89.9808 253.162ZM95.7828 252.359H96.7095L94.8562 255.208V257.571H94.0608V255.193L92.2153 252.359H93.1342L94.4624 254.436L95.7828 252.359Z" fill="#333333"/>
<path d="M294.673 264.085H555.999" stroke="#333333" stroke-width="0.965251"/>
<path d="M294.673 282.812H555.999" stroke="#9A9A9A" stroke-width="0.579151"/>
<path d="M294.673 301.537H555.999" stroke="#9A9A9A" stroke-width="0.579151"/>
<path d="M294.673 320.263H555.999" stroke="#9A9A9A" stroke-width="0.579151"/>
<path d="M299.715 257.571H298.866L298.418 256.367H296.047L295.599 257.571H294.75L296.735 252.359H297.731L299.715 257.571ZM297.237 253.162L296.294 255.695H298.171L297.237 253.162ZM302.873 257.664C301.328 257.664 300.239 256.567 300.239 254.961C300.239 253.363 301.328 252.259 302.873 252.259C304.147 252.259 305.112 253.015 305.398 254.174L304.633 254.367C304.448 253.594 303.83 252.992 302.873 252.992C301.791 252.992 301.035 253.788 301.035 254.961C301.035 256.143 301.791 256.93 302.873 256.93C303.614 256.93 304.208 256.552 304.486 255.927L305.228 256.204C304.842 257.1 303.969 257.664 302.873 257.664ZM307.376 257.571H306.581V252.359H307.376V254.591H309.978V252.359H310.774V257.571H309.978V255.293H307.376V257.571ZM313.026 257.571H312.23V252.359H313.026V257.571ZM318.085 252.359V253.062H315.274V254.598H317.854V255.293H315.274V256.869H318.085V257.571H314.479V252.359H318.085ZM321.322 256.776L322.959 252.359H323.801L321.824 257.571H320.82L318.844 252.359H319.685L321.322 256.776ZM328.404 252.359V253.062H325.594V254.598H328.173V255.293H325.594V256.869H328.404V257.571H324.798V252.359H328.404ZM332.329 256.127L333.665 252.359H335.032V257.571H334.236V252.791L332.607 257.571H332.043L330.414 252.791V257.571H329.618V252.359H330.985L332.329 256.127ZM340.096 252.359V253.062H337.285V254.598H339.864V255.293H337.285V256.869H340.096V257.571H336.49V252.359H340.096ZM344.939 256.49V252.359H345.735V257.571H344.762L342.105 253.417V257.571H341.31V252.359H342.275L344.939 256.49ZM346.889 252.359H351.236V253.062H349.46V257.571H348.665V253.062H346.889V252.359ZM356.649 257.664C355.105 257.664 354.016 256.567 354.016 254.961C354.016 253.363 355.105 252.259 356.649 252.259C358.193 252.259 359.282 253.363 359.282 254.961C359.282 256.567 358.193 257.664 356.649 257.664ZM356.649 256.93C357.73 256.93 358.487 256.143 358.487 254.961C358.487 253.788 357.73 252.992 356.649 252.992C355.568 252.992 354.811 253.788 354.811 254.961C354.811 256.143 355.568 256.93 356.649 256.93ZM364.114 252.359V253.062H361.303V254.598H363.836V255.293H361.303V257.571H360.508V252.359H364.114ZM366.375 252.359H370.722V253.062H368.946V257.571H368.151V253.062H366.375V252.359ZM372.514 257.571H371.718V252.359H372.514V254.591H375.116V252.359H375.911V257.571H375.116V255.293H372.514V257.571ZM380.974 252.359V253.062H378.164V254.598H380.743V255.293H378.164V256.869H380.974V257.571H377.368V252.359H380.974ZM386.356 257.571H384.588V252.359H386.356C388.202 252.359 389.175 253.17 389.175 254.961C389.175 256.768 388.187 257.571 386.356 257.571ZM385.383 253.062V256.869H386.356C387.677 256.869 388.38 256.274 388.38 254.961C388.38 253.633 387.646 253.062 386.356 253.062H385.383ZM394.695 257.571H393.845L393.397 256.367H391.027L390.579 257.571H389.729L391.714 252.359H392.71L394.695 257.571ZM392.216 253.162L391.274 255.695H393.15L392.216 253.162ZM398.018 252.359H398.944L397.091 255.208V257.571H396.296V255.193L394.45 252.359H395.369L396.697 254.436L398.018 252.359Z" fill="#333333"/>
<path d="M1 134.478H556" stroke="#333333" stroke-width="0.965251"/>
<path d="M1 153.204H556" stroke="#9A9A9A" stroke-width="0.579151"/>
<path d="M1 209.381H556" stroke="#9A9A9A" stroke-width="0.579151"/>
<path d="M1 171.93H556" stroke="#9A9A9A" stroke-width="0.579151"/>
<path d="M1 228.107H556" stroke="#9A9A9A" stroke-width="0.579151"/>
<path d="M1 190.656H556" stroke="#9A9A9A" stroke-width="0.579151"/>
<path d="M1.07722 122.752H5.42471V123.455H3.64865V127.964H2.85328V123.455H1.07722V122.752ZM8.52854 128.057C6.98413 128.057 5.89533 126.96 5.89533 125.354C5.89533 123.756 6.98413 122.652 8.52854 122.652C10.0729 122.652 11.1617 123.756 11.1617 125.354C11.1617 126.96 10.0729 128.057 8.52854 128.057ZM8.52854 127.323C9.60962 127.323 10.3664 126.536 10.3664 125.354C10.3664 124.181 9.60962 123.385 8.52854 123.385C7.44745 123.385 6.6907 124.181 6.6907 125.354C6.6907 126.536 7.44745 127.323 8.52854 127.323ZM14.1634 127.964H12.3951V122.752H14.1634C16.009 122.752 16.982 123.563 16.982 125.354C16.982 127.161 15.9935 127.964 14.1634 127.964ZM13.1905 123.455V127.262H14.1634C15.4839 127.262 16.1866 126.667 16.1866 125.354C16.1866 124.026 15.453 123.455 14.1634 123.455H13.1905ZM22.5015 127.964H21.6521L21.2042 126.76H18.8336L18.3857 127.964H17.5363L19.5208 122.752H20.517L22.5015 127.964ZM20.0227 123.555L19.0807 126.088H20.9571L20.0227 123.555ZM25.8247 122.752H26.7514L24.8981 125.601V127.964H24.1027V125.586L22.2572 122.752H23.1761L24.5043 124.829L25.8247 122.752ZM27.9647 124.984H27.3778L27.8103 122.752H28.5902L27.9647 124.984ZM31.5903 128.057C30.4088 128.057 29.6444 127.478 29.4899 126.466L30.2544 126.281C30.3702 126.976 30.8799 127.385 31.6366 127.385C32.3007 127.385 32.6868 127.061 32.6868 126.559C32.6868 125.957 32.0768 125.825 31.405 125.655C30.5942 125.439 29.6753 125.184 29.6753 124.127C29.6753 123.254 30.4011 122.652 31.5208 122.652C32.4629 122.652 33.266 123.076 33.4745 124.119L32.7563 124.304C32.6096 123.601 32.1386 123.316 31.5208 123.316C30.8644 123.316 30.4629 123.625 30.4629 124.103C30.4629 124.652 31.0189 124.783 31.7139 124.953C32.5324 125.154 33.4822 125.447 33.4822 126.474C33.4822 127.455 32.8181 128.057 31.5903 128.057ZM41.6557 127.964H40.8063L40.3584 126.76H37.9878L37.5399 127.964H36.6905L38.675 122.752H39.6712L41.6557 127.964ZM39.1769 123.555L38.2349 126.088H40.1113L39.1769 123.555ZM46.2587 122.752V123.455H43.4479V124.991H45.9807V125.686H43.4479V127.964H42.6525V122.752H46.2587ZM50.9583 122.752V123.455H48.1474V124.991H50.6803V125.686H48.1474V127.964H47.3521V122.752H50.9583ZM52.847 127.964H52.0516V122.752H52.847V127.964ZM58.4008 127.964H57.5127L56.2154 125.81H55.0957V127.964H54.3004V122.752H56.5552C57.6672 122.752 58.3622 123.177 58.3622 124.281C58.3622 125.208 57.8757 125.655 57.0649 125.771L58.4008 127.964ZM56.5243 123.455H55.0957V125.107H56.5243C57.2038 125.107 57.5668 124.899 57.5668 124.281C57.5668 123.663 57.1884 123.455 56.5243 123.455ZM62.3136 126.52L63.6496 122.752H65.0164V127.964H64.221V123.184L62.5916 127.964H62.0279L60.3986 123.184V127.964H59.6032V122.752H60.97L62.3136 126.52ZM70.9843 127.964H70.1348L69.687 126.76H67.3163L66.8684 127.964H66.019L68.0036 122.752H68.9997L70.9843 127.964ZM68.5055 123.555L67.5634 126.088H69.4398L68.5055 123.555ZM70.7714 122.752H75.1188V123.455H73.3428V127.964H72.5474V123.455H70.7714V122.752ZM77.0612 127.964H76.2659V122.752H77.0612V127.964ZM80.9239 128.057C79.3795 128.057 78.2907 126.96 78.2907 125.354C78.2907 123.756 79.3795 122.652 80.9239 122.652C82.4683 122.652 83.5571 123.756 83.5571 125.354C83.5571 126.96 82.4683 128.057 80.9239 128.057ZM80.9239 127.323C82.0049 127.323 82.7617 126.536 82.7617 125.354C82.7617 124.181 82.0049 123.385 80.9239 123.385C79.8428 123.385 79.086 124.181 79.086 125.354C79.086 126.536 79.8428 127.323 80.9239 127.323ZM88.412 126.883V122.752H89.2074V127.964H88.2344L85.5781 123.81V127.964H84.7827V122.752H85.7479L88.412 126.883ZM91.4307 125.262H90.6662V124.173H91.4307V125.262ZM91.4307 127.964H90.6662V126.868H91.4307V127.964ZM96.0722 127.964H95.2768V122.752H96.0722V127.964ZM104.427 127.964H103.578L103.13 126.76H100.759L100.311 127.964H99.4619L101.446 122.752H102.443L104.427 127.964ZM101.948 123.555L101.006 126.088H102.883L101.948 123.555ZM108.134 126.52L109.47 122.752H110.837V127.964H110.042V123.184L108.412 127.964H107.849L106.219 123.184V127.964H105.424V122.752H106.791L108.134 126.52ZM115.452 127.964H114.687V126.868H115.452V127.964ZM117.67 127.964H116.906V126.868H117.67V127.964ZM119.889 127.964H119.125V126.868H119.889V127.964Z" fill="#333333"/>
<path d="M1 360.557H556" stroke="#333333" stroke-width="0.965251"/>
<path d="M1 382.758H556" stroke="#9A9A9A" stroke-width="0.579151"/>
<path d="M1 404.958H556" stroke="#9A9A9A" stroke-width="0.579151"/>
<path d="M1 427.16H556" stroke="#9A9A9A" stroke-width="0.579151"/>
<path d="M2.32819 351.726H1.53282V346.514H2.32819V348.745H4.9305V346.514H5.72587V351.726H4.9305V349.448H2.32819V351.726ZM10.7887 346.514V347.216H7.97792V348.753H10.5571V349.448H7.97792V351.023H10.7887V351.726H7.18255V346.514H10.7887ZM16.1032 351.726H15.2151L13.9178 349.572H12.7981V351.726H12.0028V346.514H14.2576C15.3696 346.514 16.0646 346.938 16.0646 348.043C16.0646 348.969 15.5781 349.417 14.7673 349.533L16.1032 351.726ZM14.2267 347.216H12.7981V348.869H14.2267C14.9063 348.869 15.2692 348.66 15.2692 348.043C15.2692 347.425 14.8908 347.216 14.2267 347.216ZM20.9118 346.514V347.216H18.101V348.753H20.6801V349.448H18.101V351.023H20.9118V351.726H17.3056V346.514H20.9118ZM29.0275 351.726H28.1781L27.7302 350.521H25.3596L24.9117 351.726H24.0623L26.0468 346.514H27.043L29.0275 351.726ZM26.5487 347.317L25.6067 349.85H27.4831L26.5487 347.317ZM34.1247 351.726H33.2367L31.9394 349.572H30.8197V351.726H30.0243V346.514H32.2791C33.3911 346.514 34.0861 346.938 34.0861 348.043C34.0861 348.969 33.5996 349.417 32.7888 349.533L34.1247 351.726ZM32.2483 347.216H30.8197V348.869H32.2483C32.9278 348.869 33.2907 348.66 33.2907 348.043C33.2907 347.425 32.9123 347.216 32.2483 347.216ZM38.9333 346.514V347.216H36.1225V348.753H38.7017V349.448H36.1225V351.023H38.9333V351.726H35.3272V346.514H38.9333ZM44.1919 351.819C43.0182 351.819 42.3309 351.178 42.3309 350.089H43.1108C43.1185 350.745 43.5201 351.131 44.1765 351.131C44.7711 351.131 45.1803 350.769 45.1803 350.22C45.1803 349.657 44.7865 349.294 44.0992 349.294H43.8907V348.66H44.0375C44.5934 348.66 44.9409 348.336 44.9409 347.85C44.9409 347.394 44.6166 347.093 44.1301 347.093C43.6128 347.093 43.2498 347.44 43.2498 347.989C43.2498 348.066 43.2575 348.151 43.273 348.236L42.5162 348.274C42.4931 348.159 42.4853 348.05 42.4853 347.95C42.4853 347.031 43.1417 346.413 44.1379 346.413C45.0799 346.413 45.6823 347.008 45.6823 347.765C45.6823 348.359 45.3116 348.753 44.9255 348.9C45.4892 349.031 45.9602 349.464 45.9602 350.22C45.9602 351.155 45.2498 351.819 44.1919 351.819ZM54.1105 351.726H53.261L52.8132 350.521H50.4425L49.9946 351.726H49.1452L51.1298 346.514H52.1259L54.1105 351.726ZM51.6317 347.317L50.6896 349.85H52.5661L51.6317 347.317ZM57.8177 350.282L59.1536 346.514H60.5204V351.726H59.725V346.946L58.0957 351.726H57.532L55.9026 346.946V351.726H55.1073V346.514H56.4741L57.8177 350.282ZM66.4883 351.726H65.6389L65.191 350.521H62.8203L62.3725 351.726H61.523L63.5076 346.514H64.5037L66.4883 351.726ZM64.0095 347.317L63.0674 349.85H64.9439L64.0095 347.317ZM70.9368 347.162L68.1337 351.023H71.0063V351.726H67.1762V351.07L69.987 347.216H67.1839V346.514H70.9368V347.162ZM72.9348 351.726H72.1394V346.514H72.9348V351.726ZM78.0175 350.645V346.514H78.8129V351.726H77.8399L75.1835 347.572V351.726H74.3881V346.514H75.3534L78.0175 350.645ZM84.3643 349.757H82.0554V349.085H85.1056V351.726H84.3952V350.861C84.0554 351.494 83.4608 351.819 82.6114 351.819C81.1211 351.819 80.0477 350.722 80.0477 349.116C80.0477 347.518 81.1442 346.413 82.6809 346.413C83.7311 346.413 84.8663 346.977 85.1983 348.29L84.4338 348.498C84.2408 347.726 83.623 347.147 82.6809 347.147C81.5998 347.147 80.8431 347.942 80.8431 349.116C80.8431 350.29 81.569 351.085 82.6809 351.085C83.5303 351.085 84.1713 350.622 84.3643 349.757ZM87.9785 346.514H92.326V347.216H90.5499V351.726H89.7545V347.216H87.9785V346.514ZM94.1175 351.726H93.3222V346.514H94.1175V348.745H96.7198V346.514H97.5152V351.726H96.7198V349.448H94.1175V351.726ZM99.7673 351.726H98.9719V346.514H99.7673V351.726ZM104.85 350.645V346.514H105.645V351.726H104.672L102.016 347.572V351.726H101.221V346.514H102.186L104.85 350.645ZM111.197 349.757H108.888V349.085H111.938V351.726H111.228V350.861C110.888 351.494 110.293 351.819 109.444 351.819C107.954 351.819 106.88 350.722 106.88 349.116C106.88 347.518 107.977 346.413 109.513 346.413C110.564 346.413 111.699 346.977 112.031 348.29L111.266 348.498C111.073 347.726 110.455 347.147 109.513 347.147C108.432 347.147 107.676 347.942 107.676 349.116C107.676 350.29 108.401 351.085 109.513 351.085C110.363 351.085 111.004 350.622 111.197 349.757ZM115.082 351.819C113.9 351.819 113.136 351.24 112.981 350.228L113.746 350.043C113.861 350.738 114.371 351.147 115.128 351.147C115.792 351.147 116.178 350.823 116.178 350.321C116.178 349.718 115.568 349.587 114.896 349.417C114.085 349.201 113.166 348.946 113.166 347.888C113.166 347.016 113.892 346.413 115.012 346.413C115.954 346.413 116.757 346.838 116.966 347.881L116.248 348.066C116.101 347.363 115.63 347.077 115.012 347.077C114.356 347.077 113.954 347.386 113.954 347.865C113.954 348.413 114.51 348.545 115.205 348.714C116.024 348.915 116.973 349.209 116.973 350.236C116.973 351.216 116.309 351.819 115.082 351.819ZM119.797 346.514H124.145V347.216H122.368V351.726H121.573V347.216H119.797V346.514ZM125.936 351.726H125.141V346.514H125.936V348.745H128.538V346.514H129.334V351.726H128.538V349.448H125.936V351.726ZM135.3 351.726H134.451L134.003 350.521H131.632L131.184 351.726H130.335L132.319 346.514H133.316L135.3 351.726ZM132.821 347.317L131.879 349.85H133.756L132.821 347.317ZM135.087 346.514H139.435V347.216H137.659V351.726H136.863V347.216H135.087V346.514ZM143.234 351.726H142.438V346.514H143.234V348.745H145.836V346.514H146.631V351.726H145.836V349.448H143.234V351.726ZM152.598 351.726H151.748L151.3 350.521H148.93L148.482 351.726H147.632L149.617 346.514H150.613L152.598 351.726ZM150.119 347.317L149.177 349.85H151.053L150.119 347.317ZM153.595 346.514H155.734C156.846 346.514 157.54 346.938 157.54 348.043C157.54 349.147 156.846 349.572 155.734 349.572H154.39V351.726H153.595V346.514ZM154.39 348.869H155.703C156.382 348.869 156.745 348.66 156.745 348.043C156.745 347.425 156.374 347.216 155.703 347.216H154.39V348.869ZM158.679 346.514H160.818C161.93 346.514 162.625 346.938 162.625 348.043C162.625 349.147 161.93 349.572 160.818 349.572H159.474V351.726H158.679V346.514ZM159.474 348.869H160.787C161.466 348.869 161.829 348.66 161.829 348.043C161.829 347.425 161.459 347.216 160.787 347.216H159.474V348.869ZM167.369 346.514V347.216H164.558V348.753H167.137V349.448H164.558V351.023H167.369V351.726H163.763V346.514H167.369ZM172.212 350.645V346.514H173.008V351.726H172.035L169.378 347.572V351.726H168.583V346.514H169.548L172.212 350.645ZM178.073 346.514V347.216H175.262V348.753H177.841V349.448H175.262V351.023H178.073V351.726H174.467V346.514H178.073ZM181.063 351.726H179.295V346.514H181.063C182.908 346.514 183.881 347.325 183.881 349.116C183.881 350.923 182.893 351.726 181.063 351.726ZM180.09 347.216V351.023H181.063C182.383 351.023 183.086 350.429 183.086 349.116C183.086 347.788 182.352 347.216 181.063 347.216H180.09ZM186.677 346.514H191.024V347.216H189.248V351.726H188.453V347.216H186.677V346.514ZM194.128 351.819C192.584 351.819 191.495 350.722 191.495 349.116C191.495 347.518 192.584 346.413 194.128 346.413C195.673 346.413 196.761 347.518 196.761 349.116C196.761 350.722 195.673 351.819 194.128 351.819ZM194.128 351.085C195.209 351.085 195.966 350.298 195.966 349.116C195.966 347.942 195.209 347.147 194.128 347.147C193.047 347.147 192.29 347.942 192.29 349.116C192.29 350.298 193.047 351.085 194.128 351.085ZM199.763 351.726H197.995V346.514H199.763C201.609 346.514 202.582 347.325 202.582 349.116C202.582 350.923 201.593 351.726 199.763 351.726ZM198.79 347.216V351.023H199.763C201.084 351.023 201.786 350.429 201.786 349.116C201.786 347.788 201.053 347.216 199.763 347.216H198.79ZM208.101 351.726H207.252L206.804 350.521H204.433L203.985 351.726H203.136L205.12 346.514H206.117L208.101 351.726ZM205.622 347.317L204.68 349.85H206.557L205.622 347.317ZM211.424 346.514H212.351L210.498 349.363V351.726H209.702V349.348L207.857 346.514H208.776L210.104 348.591L211.424 346.514Z" fill="#333333"/>
<path d="M9.61125 370.884C9.61125 373.192 7.72111 375.066 5.38619 375.066C3.05128 375.066 1.16114 373.192 1.16114 370.884C1.16114 368.575 3.05128 366.701 5.38619 366.701C7.72111 366.701 9.61125 368.575 9.61125 370.884Z" stroke="#9A9A9A" stroke-width="0.322282"/>
<path d="M9.61125 393.418C9.61125 395.726 7.72111 397.6 5.38619 397.6C3.05128 397.6 1.16114 395.726 1.16114 393.418C1.16114 391.109 3.05128 389.235 5.38619 389.235C7.72111 389.235 9.61125 391.109 9.61125 393.418Z" stroke="#9A9A9A" stroke-width="0.322282"/>
<path d="M9.61125 415.952C9.61125 418.26 7.72111 420.135 5.38619 420.135C3.05128 420.135 1.16114 418.26 1.16114 415.952C1.16114 413.644 3.05128 411.77 5.38619 411.77C7.72111 411.77 9.61125 413.644 9.61125 415.952Z" stroke="#9A9A9A" stroke-width="0.322282"/>
<path d="M1 608.327H265" stroke="#9A9A9A" stroke-width="0.19305"/>
<path d="M1 588.057H265" stroke="#9A9A9A" stroke-width="0.19305"/>
<path d="M1 567.594H265" stroke="#9A9A9A" stroke-width="0.19305"/>
<path d="M1 547.323H265" stroke="#9A9A9A" stroke-width="0.19305"/>
<path d="M1 526.86H265" stroke="#9A9A9A" stroke-width="0.19305"/>
<path d="M1 506.396H265" stroke="#9A9A9A" stroke-width="0.19305"/>
<path d="M1 486.126H265" stroke="#9A9A9A" stroke-width="0.19305"/>
<path d="M1 465.663H265" stroke="#9A9A9A" stroke-width="0.19305"/>
<path d="M1 628.791H265" stroke="#9A9A9A" stroke-width="0.19305"/>
<path d="M1 649.254H265" stroke="#9A9A9A" stroke-width="0.19305"/>
<path d="M1 669.524H265" stroke="#9A9A9A" stroke-width="0.19305"/>
<path d="M1 689.987H265" stroke="#9A9A9A" stroke-width="0.19305"/>
<path d="M21.3369 465.663V689.215" stroke="#9A9A9A" stroke-width="0.19305"/>
<path d="M1 465.663V689.215" stroke="#9A9A9A" stroke-width="0.19305"/>
<path d="M41.6748 465.663V689.215" stroke="#9A9A9A" stroke-width="0.19305"/>
<path d="M62.0107 465.663V689.215" stroke="#9A9A9A" stroke-width="0.19305"/>
<path d="M82.1572 465.663V689.215" stroke="#9A9A9A" stroke-width="0.19305"/>
<path d="M102.494 465.663V689.215" stroke="#9A9A9A" stroke-width="0.19305"/>
<path d="M122.831 465.663V689.215" stroke="#9A9A9A" stroke-width="0.19305"/>
<path d="M143.168 465.663V689.215" stroke="#9A9A9A" stroke-width="0.19305"/>
<path d="M163.506 465.663V689.215" stroke="#9A9A9A" stroke-width="0.19305"/>
<path d="M183.843 465.663V689.215" stroke="#9A9A9A" stroke-width="0.19305"/>
<path d="M203.988 465.663V689.215" stroke="#9A9A9A" stroke-width="0.19305"/>
<path d="M224.324 465.663V689.215" stroke="#9A9A9A" stroke-width="0.19305"/>
<path d="M244.663 465.663V689.215" stroke="#9A9A9A" stroke-width="0.19305"/>
<path d="M265 465.663V689.215" stroke="#9A9A9A" stroke-width="0.19305"/>
<mask id="path-63-inside-2_665_5667" fill="white">
<path d="M1 465.663H265V690.374H1V465.663Z"/>
</mask>
<path d="M1 466.628H265V464.698H1V466.628ZM265 689.408H1V691.339H265V689.408Z" fill="#333333" mask="url(#path-63-inside-2_665_5667)"/>
<path d="M5.16216 458.069V453.938H5.95753V459.15H4.98456L2.32819 454.995V459.15H1.53282V453.938H2.49807L5.16216 458.069ZM9.82559 459.243C8.28119 459.243 7.19239 458.146 7.19239 456.54C7.19239 454.941 8.28119 453.837 9.82559 453.837C11.37 453.837 12.4588 454.941 12.4588 456.54C12.4588 458.146 11.37 459.243 9.82559 459.243ZM9.82559 458.509C10.9067 458.509 11.6634 457.721 11.6634 456.54C11.6634 455.366 10.9067 454.571 9.82559 454.571C8.74451 454.571 7.98775 455.366 7.98775 456.54C7.98775 457.721 8.74451 458.509 9.82559 458.509ZM12.9272 453.938H17.2747V454.64H15.4986V459.15H14.7032V454.64H12.9272V453.938ZM22.0279 453.938V454.64H19.2171V456.177H21.7962V456.872H19.2171V458.447H22.0279V459.15H18.4217V453.938H22.0279ZM24.9663 459.243C23.7848 459.243 23.0203 458.663 22.8659 457.652L23.6304 457.467C23.7462 458.161 24.2559 458.571 25.0126 458.571C25.6767 458.571 26.0628 458.246 26.0628 457.744C26.0628 457.142 25.4528 457.011 24.7809 456.841C23.9701 456.625 23.0512 456.37 23.0512 455.312C23.0512 454.439 23.7771 453.837 24.8968 453.837C25.8389 453.837 26.642 454.262 26.8504 455.304L26.1323 455.49C25.9856 454.787 25.5145 454.501 24.8968 454.501C24.2404 454.501 23.8389 454.81 23.8389 455.289C23.8389 455.837 24.3948 455.968 25.0898 456.138C25.9084 456.339 26.8582 456.633 26.8582 457.66C26.8582 458.64 26.1941 459.243 24.9663 459.243Z" fill="#333333"/>
<mask id="path-66-inside-3_665_5667" fill="white">
<path d="M293.66 588.058H554.085V690.375H293.66V588.058Z"/>
</mask>
<path d="M293.66 588.058H554.085V690.375H293.66V588.058Z" fill="#F8F8F8"/>
<path d="M293.66 589.023H554.085V587.093H293.66V589.023Z" fill="#333333" mask="url(#path-66-inside-3_665_5667)"/>
</svg>
