<svg width="43" height="42" viewBox="0 0 43 42" fill="none" xmlns="http://www.w3.org/2000/svg">
<rect x="0.948755" y="0.362329" width="41.0195" height="41.0195" rx="3.57143" stroke="#9A9A9A" stroke-width="0.579151"/>
<path d="M0.988281 7.43994H41.7219" stroke="#9A9A9A" stroke-width="0.579151"/>
<path d="M0.988281 11.3008H41.7219" stroke="#9A9A9A" stroke-width="0.579151"/>
<path d="M0.988281 15.1619H41.7219" stroke="#9A9A9A" stroke-width="0.579151"/>
<path d="M0.988281 19.0229H41.7219" stroke="#9A9A9A" stroke-width="0.579151"/>
<path d="M0.988281 22.8838H41.7219" stroke="#9A9A9A" stroke-width="0.579151"/>
<path d="M0.988281 26.7449H41.7219" stroke="#9A9A9A" stroke-width="0.579151"/>
<path d="M0.988281 30.606H41.7219" stroke="#9A9A9A" stroke-width="0.579151"/>
<path d="M0.988281 34.4668H41.7219" stroke="#9A9A9A" stroke-width="0.579151"/>
<path d="M0.988281 38.3279H41.7219" stroke="#9A9A9A" stroke-width="0.579151"/>
<path d="M0.988281 3.57886H41.7219" stroke="#9A9A9A" stroke-width="0.579151"/>
<path d="M7.84277 41.3201L7.84277 0.586479" stroke="#9A9A9A" stroke-width="0.579151"/>
<path d="M11.7031 41.3201L11.7031 0.586479" stroke="#9A9A9A" stroke-width="0.579151"/>
<path d="M15.5645 41.3201L15.5645 0.586479" stroke="#9A9A9A" stroke-width="0.579151"/>
<path d="M19.4258 41.3201L19.4258 0.586479" stroke="#9A9A9A" stroke-width="0.579151"/>
<path d="M23.2861 41.3201L23.2861 0.586479" stroke="#9A9A9A" stroke-width="0.579151"/>
<path d="M27.1475 41.3201L27.1475 0.586479" stroke="#9A9A9A" stroke-width="0.579151"/>
<path d="M31.0088 41.3201L31.0088 0.586479" stroke="#9A9A9A" stroke-width="0.579151"/>
<path d="M34.8691 41.3201V0.586479" stroke="#9A9A9A" stroke-width="0.579151"/>
<path d="M38.7305 41.3201V0.586479" stroke="#9A9A9A" stroke-width="0.579151"/>
<path d="M3.98145 41.3201L3.98145 0.586479" stroke="#9A9A9A" stroke-width="0.579151"/>
</svg>
